<?xml version="1.0" encoding="utf-8"?>
<!-- Generator: Adobe Illustrator 27.7.0, SVG Export Plug-In . SVG Version: 6.00 Build 0)  -->
<svg version="1.1" id="Слой_1" xmlns="http://www.w3.org/2000/svg" xmlns:xlink="http://www.w3.org/1999/xlink" x="0px" y="0px"
	 viewBox="0 0 2000 2800" style="enable-background:new 0 0 2000 2800;" xml:space="preserve">
<style type="text/css">
	.st0{clip-path:url(#SVGID_00000119807667830606855600000009389641822330221953_);}
	.st1{fill:none;}
	.st2{fill:#FFCFC6;}
	.st3{fill:#FEDED9;}
	.st4{display:none;}
	.st5{display:inline;}
	.st6{fill:#60291C;}
	.st7{fill:#60291C;stroke:#60291C;stroke-miterlimit:10;}
	.st8{fill:#FFE6DE;}
	.st9{fill:#DE6544;}
	.st10{fill:#FFE3A6;}
	.st11{fill:#AAB889;}
	.st12{fill:#FFA6A2;}
	.st13{fill:#FFFFFF;}
	.st14{fill:#F9BF79;}
</style>
<g>
	<g>
		<g>
			<defs>
				<rect id="SVGID_1_" x="16.67" y="0" width="2000" height="2800"/>
			</defs>
			<clipPath id="SVGID_00000134972678762970722780000011777033376277319049_">
				<use xlink:href="#SVGID_1_"  style="overflow:visible;"/>
			</clipPath>
			<g style="clip-path:url(#SVGID_00000134972678762970722780000011777033376277319049_);">
				<rect x="1792.56" y="-274.77" class="st1" width="523.92" height="560.52"/>
				<rect x="1792.56" y="-274.77" class="st2" width="261.96" height="140.13"/>
				<rect x="1792.56" y="-134.64" class="st3" width="261.96" height="140.13"/>
				<rect x="1792.56" y="5.49" class="st2" width="261.96" height="140.13"/>
				<rect x="1792.56" y="145.62" class="st3" width="261.96" height="140.13"/>
				<rect x="2054.52" y="145.62" class="st2" width="261.96" height="140.13"/>
				<rect x="2054.52" y="-274.77" class="st3" width="261.96" height="140.13"/>
				<rect x="2054.52" y="-134.64" class="st2" width="261.96" height="140.13"/>
				<rect x="2054.52" y="5.49" class="st3" width="261.96" height="140.13"/>
			</g>
			<g style="clip-path:url(#SVGID_00000134972678762970722780000011777033376277319049_);">
				<rect x="1792.56" y="285.75" class="st1" width="523.92" height="560.52"/>
				<rect x="1792.56" y="285.75" class="st2" width="261.96" height="140.13"/>
				<rect x="1792.56" y="425.88" class="st3" width="261.96" height="140.13"/>
				<rect x="1792.56" y="566.01" class="st2" width="261.96" height="140.13"/>
				<rect x="1792.56" y="706.14" class="st3" width="261.96" height="140.13"/>
				<rect x="2054.52" y="706.14" class="st2" width="261.96" height="140.13"/>
				<rect x="2054.52" y="285.75" class="st3" width="261.96" height="140.13"/>
				<rect x="2054.52" y="425.88" class="st2" width="261.96" height="140.13"/>
				<rect x="2054.52" y="566.01" class="st3" width="261.96" height="140.13"/>
			</g>
			<g style="clip-path:url(#SVGID_00000134972678762970722780000011777033376277319049_);">
				<rect x="1792.56" y="846.27" class="st1" width="523.92" height="560.52"/>
				<rect x="1792.56" y="846.27" class="st2" width="261.96" height="140.13"/>
				<rect x="1792.56" y="986.4" class="st3" width="261.96" height="140.13"/>
				<rect x="1792.56" y="1126.53" class="st2" width="261.96" height="140.13"/>
				<rect x="1792.56" y="1266.66" class="st3" width="261.96" height="140.13"/>
				<rect x="2054.52" y="1266.66" class="st2" width="261.96" height="140.13"/>
				<rect x="2054.52" y="846.27" class="st3" width="261.96" height="140.13"/>
				<rect x="2054.52" y="986.4" class="st2" width="261.96" height="140.13"/>
				<rect x="2054.52" y="1126.53" class="st3" width="261.96" height="140.13"/>
			</g>
			<g style="clip-path:url(#SVGID_00000134972678762970722780000011777033376277319049_);">
				<rect x="1792.56" y="1406.79" class="st1" width="523.92" height="560.52"/>
				<rect x="1792.56" y="1406.79" class="st2" width="261.96" height="140.13"/>
				<rect x="1792.56" y="1546.92" class="st3" width="261.96" height="140.13"/>
				<rect x="1792.56" y="1687.05" class="st2" width="261.96" height="140.13"/>
				<rect x="1792.56" y="1827.18" class="st3" width="261.96" height="140.13"/>
				<rect x="2054.52" y="1827.18" class="st2" width="261.96" height="140.13"/>
				<rect x="2054.52" y="1406.79" class="st3" width="261.96" height="140.13"/>
				<rect x="2054.52" y="1546.92" class="st2" width="261.96" height="140.13"/>
				<rect x="2054.52" y="1687.05" class="st3" width="261.96" height="140.13"/>
			</g>
			<g style="clip-path:url(#SVGID_00000134972678762970722780000011777033376277319049_);">
				<rect x="1792.56" y="1967.31" class="st1" width="523.92" height="560.52"/>
				<rect x="1792.56" y="1967.31" class="st2" width="261.96" height="140.13"/>
				<rect x="1792.56" y="2107.44" class="st3" width="261.96" height="140.13"/>
				<rect x="1792.56" y="2247.57" class="st2" width="261.96" height="140.13"/>
				<rect x="1792.56" y="2387.71" class="st3" width="261.96" height="140.13"/>
				<rect x="2054.52" y="2387.71" class="st2" width="261.96" height="140.13"/>
				<rect x="2054.52" y="1967.31" class="st3" width="261.96" height="140.13"/>
				<rect x="2054.52" y="2107.44" class="st2" width="261.96" height="140.13"/>
				<rect x="2054.52" y="2247.57" class="st3" width="261.96" height="140.13"/>
			</g>
			<g style="clip-path:url(#SVGID_00000134972678762970722780000011777033376277319049_);">
				<rect x="1792.56" y="2527.84" class="st1" width="523.92" height="560.52"/>
				<rect x="1792.56" y="2527.84" class="st2" width="261.96" height="140.13"/>
				<rect x="1792.56" y="2667.97" class="st3" width="261.96" height="140.13"/>
				<rect x="1792.56" y="2808.1" class="st2" width="261.96" height="140.13"/>
				<rect x="1792.56" y="2948.23" class="st3" width="261.96" height="140.13"/>
				<rect x="2054.52" y="2948.23" class="st2" width="261.96" height="140.13"/>
				<rect x="2054.52" y="2527.84" class="st3" width="261.96" height="140.13"/>
				<rect x="2054.52" y="2667.97" class="st2" width="261.96" height="140.13"/>
				<rect x="2054.52" y="2808.1" class="st3" width="261.96" height="140.13"/>
			</g>
			<g style="clip-path:url(#SVGID_00000134972678762970722780000011777033376277319049_);">
				<rect x="1268.64" y="-274.77" class="st1" width="523.92" height="560.52"/>
				<rect x="1268.64" y="-274.77" class="st2" width="261.96" height="140.13"/>
				<rect x="1268.64" y="-134.64" class="st3" width="261.96" height="140.13"/>
				<rect x="1268.64" y="5.49" class="st2" width="261.96" height="140.13"/>
				<rect x="1268.64" y="145.62" class="st3" width="261.96" height="140.13"/>
				<rect x="1530.6" y="145.62" class="st2" width="261.96" height="140.13"/>
				<rect x="1530.6" y="-274.77" class="st3" width="261.96" height="140.13"/>
				<rect x="1530.6" y="-134.64" class="st2" width="261.96" height="140.13"/>
				<rect x="1530.6" y="5.49" class="st3" width="261.96" height="140.13"/>
			</g>
			<g style="clip-path:url(#SVGID_00000134972678762970722780000011777033376277319049_);">
				<rect x="1268.64" y="285.75" class="st1" width="523.92" height="560.52"/>
				<rect x="1268.64" y="285.75" class="st2" width="261.96" height="140.13"/>
				<rect x="1268.64" y="425.88" class="st3" width="261.96" height="140.13"/>
				<rect x="1268.64" y="566.01" class="st2" width="261.96" height="140.13"/>
				<rect x="1268.64" y="706.14" class="st3" width="261.96" height="140.13"/>
				<rect x="1530.6" y="706.14" class="st2" width="261.96" height="140.13"/>
				<rect x="1530.6" y="285.75" class="st3" width="261.96" height="140.13"/>
				<rect x="1530.6" y="425.88" class="st2" width="261.96" height="140.13"/>
				<rect x="1530.6" y="566.01" class="st3" width="261.96" height="140.13"/>
			</g>
			<g style="clip-path:url(#SVGID_00000134972678762970722780000011777033376277319049_);">
				<rect x="1268.64" y="846.27" class="st1" width="523.92" height="560.52"/>
				<rect x="1268.64" y="846.27" class="st2" width="261.96" height="140.13"/>
				<rect x="1268.64" y="986.4" class="st3" width="261.96" height="140.13"/>
				<rect x="1268.64" y="1126.53" class="st2" width="261.96" height="140.13"/>
				<rect x="1268.64" y="1266.66" class="st3" width="261.96" height="140.13"/>
				<rect x="1530.6" y="1266.66" class="st2" width="261.96" height="140.13"/>
				<rect x="1530.6" y="846.27" class="st3" width="261.96" height="140.13"/>
				<rect x="1530.6" y="986.4" class="st2" width="261.96" height="140.13"/>
				<rect x="1530.6" y="1126.53" class="st3" width="261.96" height="140.13"/>
			</g>
			<g style="clip-path:url(#SVGID_00000134972678762970722780000011777033376277319049_);">
				<rect x="1268.64" y="1406.79" class="st1" width="523.92" height="560.52"/>
				<rect x="1268.64" y="1406.79" class="st2" width="261.96" height="140.13"/>
				<rect x="1268.64" y="1546.92" class="st3" width="261.96" height="140.13"/>
				<rect x="1268.64" y="1687.05" class="st2" width="261.96" height="140.13"/>
				<rect x="1268.64" y="1827.18" class="st3" width="261.96" height="140.13"/>
				<rect x="1530.6" y="1827.18" class="st2" width="261.96" height="140.13"/>
				<rect x="1530.6" y="1406.79" class="st3" width="261.96" height="140.13"/>
				<rect x="1530.6" y="1546.92" class="st2" width="261.96" height="140.13"/>
				<rect x="1530.6" y="1687.05" class="st3" width="261.96" height="140.13"/>
			</g>
			<g style="clip-path:url(#SVGID_00000134972678762970722780000011777033376277319049_);">
				<rect x="1268.64" y="1967.31" class="st1" width="523.92" height="560.52"/>
				<rect x="1268.64" y="1967.31" class="st2" width="261.96" height="140.13"/>
				<rect x="1268.64" y="2107.44" class="st3" width="261.96" height="140.13"/>
				<rect x="1268.64" y="2247.57" class="st2" width="261.96" height="140.13"/>
				<rect x="1268.64" y="2387.71" class="st3" width="261.96" height="140.13"/>
				<rect x="1530.6" y="2387.71" class="st2" width="261.96" height="140.13"/>
				<rect x="1530.6" y="1967.31" class="st3" width="261.96" height="140.13"/>
				<rect x="1530.6" y="2107.44" class="st2" width="261.96" height="140.13"/>
				<rect x="1530.6" y="2247.57" class="st3" width="261.96" height="140.13"/>
			</g>
			<g style="clip-path:url(#SVGID_00000134972678762970722780000011777033376277319049_);">
				<rect x="1268.64" y="2527.84" class="st1" width="523.92" height="560.52"/>
				<rect x="1268.64" y="2527.84" class="st2" width="261.96" height="140.13"/>
				<rect x="1268.64" y="2667.97" class="st3" width="261.96" height="140.13"/>
				<rect x="1268.64" y="2808.1" class="st2" width="261.96" height="140.13"/>
				<rect x="1268.64" y="2948.23" class="st3" width="261.96" height="140.13"/>
				<rect x="1530.6" y="2948.23" class="st2" width="261.96" height="140.13"/>
				<rect x="1530.6" y="2527.84" class="st3" width="261.96" height="140.13"/>
				<rect x="1530.6" y="2667.97" class="st2" width="261.96" height="140.13"/>
				<rect x="1530.6" y="2808.1" class="st3" width="261.96" height="140.13"/>
			</g>
			<g style="clip-path:url(#SVGID_00000134972678762970722780000011777033376277319049_);">
				<rect x="744.72" y="-274.77" class="st1" width="523.92" height="560.52"/>
				<rect x="744.72" y="-274.77" class="st2" width="261.96" height="140.13"/>
				<rect x="744.72" y="-134.64" class="st3" width="261.96" height="140.13"/>
				<rect x="744.72" y="5.49" class="st2" width="261.96" height="140.13"/>
				<rect x="744.72" y="145.62" class="st3" width="261.96" height="140.13"/>
				<rect x="1006.68" y="145.62" class="st2" width="261.96" height="140.13"/>
				<rect x="1006.68" y="-274.77" class="st3" width="261.96" height="140.13"/>
				<rect x="1006.68" y="-134.64" class="st2" width="261.96" height="140.13"/>
				<rect x="1006.68" y="5.49" class="st3" width="261.96" height="140.13"/>
			</g>
			<g style="clip-path:url(#SVGID_00000134972678762970722780000011777033376277319049_);">
				<rect x="744.72" y="285.75" class="st1" width="523.92" height="560.52"/>
				<rect x="744.72" y="285.75" class="st2" width="261.96" height="140.13"/>
				<rect x="744.72" y="425.88" class="st3" width="261.96" height="140.13"/>
				<rect x="744.72" y="566.01" class="st2" width="261.96" height="140.13"/>
				<rect x="744.72" y="706.14" class="st3" width="261.96" height="140.13"/>
				<rect x="1006.68" y="706.14" class="st2" width="261.96" height="140.13"/>
				<rect x="1006.68" y="285.75" class="st3" width="261.96" height="140.13"/>
				<rect x="1006.68" y="425.88" class="st2" width="261.96" height="140.13"/>
				<rect x="1006.68" y="566.01" class="st3" width="261.96" height="140.13"/>
			</g>
			<g style="clip-path:url(#SVGID_00000134972678762970722780000011777033376277319049_);">
				<rect x="744.72" y="846.27" class="st1" width="523.92" height="560.52"/>
				<rect x="744.72" y="846.27" class="st2" width="261.96" height="140.13"/>
				<rect x="744.72" y="986.4" class="st3" width="261.96" height="140.13"/>
				<rect x="744.72" y="1126.53" class="st2" width="261.96" height="140.13"/>
				<rect x="744.72" y="1266.66" class="st3" width="261.96" height="140.13"/>
				<rect x="1006.68" y="1266.66" class="st2" width="261.96" height="140.13"/>
				<rect x="1006.68" y="846.27" class="st3" width="261.96" height="140.13"/>
				<rect x="1006.68" y="986.4" class="st2" width="261.96" height="140.13"/>
				<rect x="1006.68" y="1126.53" class="st3" width="261.96" height="140.13"/>
			</g>
			<g style="clip-path:url(#SVGID_00000134972678762970722780000011777033376277319049_);">
				<rect x="744.72" y="1406.79" class="st1" width="523.92" height="560.52"/>
				<rect x="744.72" y="1406.79" class="st2" width="261.96" height="140.13"/>
				<rect x="744.72" y="1546.92" class="st3" width="261.96" height="140.13"/>
				<rect x="744.72" y="1687.05" class="st2" width="261.96" height="140.13"/>
				<rect x="744.72" y="1827.18" class="st3" width="261.96" height="140.13"/>
				<rect x="1006.68" y="1827.18" class="st2" width="261.96" height="140.13"/>
				<rect x="1006.68" y="1406.79" class="st3" width="261.96" height="140.13"/>
				<rect x="1006.68" y="1546.92" class="st2" width="261.96" height="140.13"/>
				<rect x="1006.68" y="1687.05" class="st3" width="261.96" height="140.13"/>
			</g>
			<g style="clip-path:url(#SVGID_00000134972678762970722780000011777033376277319049_);">
				<rect x="744.72" y="1967.31" class="st1" width="523.92" height="560.52"/>
				<rect x="744.72" y="1967.31" class="st2" width="261.96" height="140.13"/>
				<rect x="744.72" y="2107.44" class="st3" width="261.96" height="140.13"/>
				<rect x="744.72" y="2247.57" class="st2" width="261.96" height="140.13"/>
				<rect x="744.72" y="2387.71" class="st3" width="261.96" height="140.13"/>
				<rect x="1006.68" y="2387.71" class="st2" width="261.96" height="140.13"/>
				<rect x="1006.68" y="1967.31" class="st3" width="261.96" height="140.13"/>
				<rect x="1006.68" y="2107.44" class="st2" width="261.96" height="140.13"/>
				<rect x="1006.68" y="2247.57" class="st3" width="261.96" height="140.13"/>
			</g>
			<g style="clip-path:url(#SVGID_00000134972678762970722780000011777033376277319049_);">
				<rect x="744.72" y="2527.84" class="st1" width="523.92" height="560.52"/>
				<rect x="744.72" y="2527.84" class="st2" width="261.96" height="140.13"/>
				<rect x="744.72" y="2667.97" class="st3" width="261.96" height="140.13"/>
				<rect x="744.72" y="2808.1" class="st2" width="261.96" height="140.13"/>
				<rect x="744.72" y="2948.23" class="st3" width="261.96" height="140.13"/>
				<rect x="1006.68" y="2948.23" class="st2" width="261.96" height="140.13"/>
				<rect x="1006.68" y="2527.84" class="st3" width="261.96" height="140.13"/>
				<rect x="1006.68" y="2667.97" class="st2" width="261.96" height="140.13"/>
				<rect x="1006.68" y="2808.1" class="st3" width="261.96" height="140.13"/>
			</g>
			<g style="clip-path:url(#SVGID_00000134972678762970722780000011777033376277319049_);">
				<rect x="220.79" y="-274.77" class="st1" width="523.92" height="560.52"/>
				<rect x="220.79" y="-274.77" class="st2" width="261.96" height="140.13"/>
				<rect x="220.79" y="-134.64" class="st3" width="261.96" height="140.13"/>
				<rect x="220.79" y="5.49" class="st2" width="261.96" height="140.13"/>
				<rect x="220.79" y="145.62" class="st3" width="261.96" height="140.13"/>
				<rect x="482.75" y="145.62" class="st2" width="261.96" height="140.13"/>
				<rect x="482.75" y="-274.77" class="st3" width="261.96" height="140.13"/>
				<rect x="482.75" y="-134.64" class="st2" width="261.96" height="140.13"/>
				<rect x="482.75" y="5.49" class="st3" width="261.96" height="140.13"/>
			</g>
			<g style="clip-path:url(#SVGID_00000134972678762970722780000011777033376277319049_);">
				<rect x="220.79" y="285.75" class="st1" width="523.92" height="560.52"/>
				<rect x="220.79" y="285.75" class="st2" width="261.96" height="140.13"/>
				<rect x="220.79" y="425.88" class="st3" width="261.96" height="140.13"/>
				<rect x="220.79" y="566.01" class="st2" width="261.96" height="140.13"/>
				<rect x="220.79" y="706.14" class="st3" width="261.96" height="140.13"/>
				<rect x="482.75" y="706.14" class="st2" width="261.96" height="140.13"/>
				<rect x="482.75" y="285.75" class="st3" width="261.96" height="140.13"/>
				<rect x="482.75" y="425.88" class="st2" width="261.96" height="140.13"/>
				<rect x="482.75" y="566.01" class="st3" width="261.96" height="140.13"/>
			</g>
			<g style="clip-path:url(#SVGID_00000134972678762970722780000011777033376277319049_);">
				<rect x="220.79" y="846.27" class="st1" width="523.92" height="560.52"/>
				<rect x="220.79" y="846.27" class="st2" width="261.96" height="140.13"/>
				<rect x="220.79" y="986.4" class="st3" width="261.96" height="140.13"/>
				<rect x="220.79" y="1126.53" class="st2" width="261.96" height="140.13"/>
				<rect x="220.79" y="1266.66" class="st3" width="261.96" height="140.13"/>
				<rect x="482.75" y="1266.66" class="st2" width="261.96" height="140.13"/>
				<rect x="482.75" y="846.27" class="st3" width="261.96" height="140.13"/>
				<rect x="482.75" y="986.4" class="st2" width="261.96" height="140.13"/>
				<rect x="482.75" y="1126.53" class="st3" width="261.96" height="140.13"/>
			</g>
			<g style="clip-path:url(#SVGID_00000134972678762970722780000011777033376277319049_);">
				<rect x="220.79" y="1406.79" class="st1" width="523.92" height="560.52"/>
				<rect x="220.79" y="1406.79" class="st2" width="261.96" height="140.13"/>
				<rect x="220.79" y="1546.92" class="st3" width="261.96" height="140.13"/>
				<rect x="220.79" y="1687.05" class="st2" width="261.96" height="140.13"/>
				<rect x="220.79" y="1827.18" class="st3" width="261.96" height="140.13"/>
				<rect x="482.75" y="1827.18" class="st2" width="261.96" height="140.13"/>
				<rect x="482.75" y="1406.79" class="st3" width="261.96" height="140.13"/>
				<rect x="482.75" y="1546.92" class="st2" width="261.96" height="140.13"/>
				<rect x="482.75" y="1687.05" class="st3" width="261.96" height="140.13"/>
			</g>
			<g style="clip-path:url(#SVGID_00000134972678762970722780000011777033376277319049_);">
				<rect x="220.79" y="1967.31" class="st1" width="523.92" height="560.52"/>
				<rect x="220.79" y="1967.31" class="st2" width="261.96" height="140.13"/>
				<rect x="220.79" y="2107.44" class="st3" width="261.96" height="140.13"/>
				<rect x="220.79" y="2247.57" class="st2" width="261.96" height="140.13"/>
				<rect x="220.79" y="2387.71" class="st3" width="261.96" height="140.13"/>
				<rect x="482.75" y="2387.71" class="st2" width="261.96" height="140.13"/>
				<rect x="482.75" y="1967.31" class="st3" width="261.96" height="140.13"/>
				<rect x="482.75" y="2107.44" class="st2" width="261.96" height="140.13"/>
				<rect x="482.75" y="2247.57" class="st3" width="261.96" height="140.13"/>
			</g>
			<g style="clip-path:url(#SVGID_00000134972678762970722780000011777033376277319049_);">
				<rect x="220.79" y="2527.84" class="st1" width="523.92" height="560.52"/>
				<rect x="220.79" y="2527.84" class="st2" width="261.96" height="140.13"/>
				<rect x="220.79" y="2667.97" class="st3" width="261.96" height="140.13"/>
				<rect x="220.79" y="2808.1" class="st2" width="261.96" height="140.13"/>
				<rect x="220.79" y="2948.23" class="st3" width="261.96" height="140.13"/>
				<rect x="482.75" y="2948.23" class="st2" width="261.96" height="140.13"/>
				<rect x="482.75" y="2527.84" class="st3" width="261.96" height="140.13"/>
				<rect x="482.75" y="2667.97" class="st2" width="261.96" height="140.13"/>
				<rect x="482.75" y="2808.1" class="st3" width="261.96" height="140.13"/>
			</g>
			<g style="clip-path:url(#SVGID_00000134972678762970722780000011777033376277319049_);">
				<rect x="-303.13" y="-274.77" class="st1" width="523.92" height="560.52"/>
				<rect x="-303.13" y="-274.77" class="st2" width="261.96" height="140.13"/>
				<rect x="-303.13" y="-134.64" class="st3" width="261.96" height="140.13"/>
				<rect x="-303.13" y="5.49" class="st2" width="261.96" height="140.13"/>
				<rect x="-303.13" y="145.62" class="st3" width="261.96" height="140.13"/>
				<rect x="-41.17" y="145.62" class="st2" width="261.96" height="140.13"/>
				<rect x="-41.17" y="-274.77" class="st3" width="261.96" height="140.13"/>
				<rect x="-41.17" y="-134.64" class="st2" width="261.96" height="140.13"/>
				<rect x="-41.17" y="5.49" class="st3" width="261.96" height="140.13"/>
			</g>
			<g style="clip-path:url(#SVGID_00000134972678762970722780000011777033376277319049_);">
				<rect x="-303.13" y="285.75" class="st1" width="523.92" height="560.52"/>
				<rect x="-303.13" y="285.75" class="st2" width="261.96" height="140.13"/>
				<rect x="-303.13" y="425.88" class="st3" width="261.96" height="140.13"/>
				<rect x="-303.13" y="566.01" class="st2" width="261.96" height="140.13"/>
				<rect x="-303.13" y="706.14" class="st3" width="261.96" height="140.13"/>
				<rect x="-41.17" y="706.14" class="st2" width="261.96" height="140.13"/>
				<rect x="-41.17" y="285.75" class="st3" width="261.96" height="140.13"/>
				<rect x="-41.17" y="425.88" class="st2" width="261.96" height="140.13"/>
				<rect x="-41.17" y="566.01" class="st3" width="261.96" height="140.13"/>
			</g>
			<g style="clip-path:url(#SVGID_00000134972678762970722780000011777033376277319049_);">
				<rect x="-303.13" y="846.27" class="st1" width="523.92" height="560.52"/>
				<rect x="-303.13" y="846.27" class="st2" width="261.96" height="140.13"/>
				<rect x="-303.13" y="986.4" class="st3" width="261.96" height="140.13"/>
				<rect x="-303.13" y="1126.53" class="st2" width="261.96" height="140.13"/>
				<rect x="-303.13" y="1266.66" class="st3" width="261.96" height="140.13"/>
				<rect x="-41.17" y="1266.66" class="st2" width="261.96" height="140.13"/>
				<rect x="-41.17" y="846.27" class="st3" width="261.96" height="140.13"/>
				<rect x="-41.17" y="986.4" class="st2" width="261.96" height="140.13"/>
				<rect x="-41.17" y="1126.53" class="st3" width="261.96" height="140.13"/>
			</g>
			<g style="clip-path:url(#SVGID_00000134972678762970722780000011777033376277319049_);">
				<rect x="-303.13" y="1406.79" class="st1" width="523.92" height="560.52"/>
				<rect x="-303.13" y="1406.79" class="st2" width="261.96" height="140.13"/>
				<rect x="-303.13" y="1546.92" class="st3" width="261.96" height="140.13"/>
				<rect x="-303.13" y="1687.05" class="st2" width="261.96" height="140.13"/>
				<rect x="-303.13" y="1827.18" class="st3" width="261.96" height="140.13"/>
				<rect x="-41.17" y="1827.18" class="st2" width="261.96" height="140.13"/>
				<rect x="-41.17" y="1406.79" class="st3" width="261.96" height="140.13"/>
				<rect x="-41.17" y="1546.92" class="st2" width="261.96" height="140.13"/>
				<rect x="-41.17" y="1687.05" class="st3" width="261.96" height="140.13"/>
			</g>
			<g style="clip-path:url(#SVGID_00000134972678762970722780000011777033376277319049_);">
				<rect x="-303.13" y="1967.31" class="st1" width="523.92" height="560.52"/>
				<rect x="-303.13" y="1967.31" class="st2" width="261.96" height="140.13"/>
				<rect x="-303.13" y="2107.44" class="st3" width="261.96" height="140.13"/>
				<rect x="-303.13" y="2247.57" class="st2" width="261.96" height="140.13"/>
				<rect x="-303.13" y="2387.71" class="st3" width="261.96" height="140.13"/>
				<rect x="-41.17" y="2387.71" class="st2" width="261.96" height="140.13"/>
				<rect x="-41.17" y="1967.31" class="st3" width="261.96" height="140.13"/>
				<rect x="-41.17" y="2107.44" class="st2" width="261.96" height="140.13"/>
				<rect x="-41.17" y="2247.57" class="st3" width="261.96" height="140.13"/>
			</g>
			<g style="clip-path:url(#SVGID_00000134972678762970722780000011777033376277319049_);">
				<rect x="-303.13" y="2527.84" class="st1" width="523.92" height="560.52"/>
				<rect x="-303.13" y="2527.84" class="st2" width="261.96" height="140.13"/>
				<rect x="-303.13" y="2667.97" class="st3" width="261.96" height="140.13"/>
				<rect x="-303.13" y="2808.1" class="st2" width="261.96" height="140.13"/>
				<rect x="-303.13" y="2948.23" class="st3" width="261.96" height="140.13"/>
				<rect x="-41.17" y="2948.23" class="st2" width="261.96" height="140.13"/>
				<rect x="-41.17" y="2527.84" class="st3" width="261.96" height="140.13"/>
				<rect x="-41.17" y="2667.97" class="st2" width="261.96" height="140.13"/>
				<rect x="-41.17" y="2808.1" class="st3" width="261.96" height="140.13"/>
			</g>
		</g>
	</g>
	<g class="st4">
		<g class="st5">
			<g>
				<g>
					<g>
						<g>
							<path class="st6" d="M686.19,1226.56c-128.38,0-215.01-32.81-257.47-97.52c-42.65-64.99-38.53-159.4,12.26-280.6l51.45,21.98
								c-43.03,102.69-48.8,179.21-17.14,227.45c31.47,47.95,102.43,72.27,210.91,72.27V1226.56z"/>
						</g>
					</g>
				</g>
				<g>
					<g>
						<g>
							<path class="st6" d="M1425.92,1277.01c-48.31,0-104.49-10.28-168.27-30.84l16.99-53.74
								c122.45,39.49,208.83,37.92,256.73-4.64c60.45-53.72,50.27-167.29,38.83-230.2l54.94-10.2
								c16.59,91.19,20.19,214.26-56.87,282.74C1533.12,1261.38,1485.51,1277.01,1425.92,1277.01z"/>
						</g>
					</g>
				</g>
				<g>
					<g>
						<g>
							<g>
								<path class="st7" d="M798.87,2470.79c-12.33,0-23.61-8.31-26.96-20.9c-73.75-277.39-34.64-573.1,95.11-719.12
									c10.3-11.59,27.96-12.56,39.44-2.16c11.48,10.4,12.44,28.24,2.13,39.83c-55.84,62.84-95.09,162.9-110.53,281.76
									c-15.79,121.53-5.92,258.28,27.79,385.06c4,15.04-4.83,30.52-19.73,34.55C803.7,2470.48,801.27,2470.79,798.87,2470.79z"/>
							</g>
						</g>
					</g>
					<g>
						<g>
							<g>
								<g>
									<path class="st8" d="M781.44,2526.27c0,0-22.87-54.53-18.32-63.95c4.55-9.43,59.89-28.19,67.32-22.05
										c2.55,0.68,16.84,67.69,16.84,67.69L781.44,2526.27z"/>
								</g>
							</g>
							<g>
								<g>
									<path class="st6" d="M781.44,2528.44c-0.84,0-1.64-0.5-1.98-1.32c-3.88-9.26-23.01-55.93-18.27-65.75
										c3.79-7.85,32.48-18.67,50.57-22.67c15.91-3.51,19.01-0.95,20.04-0.11l-0.02,0.02c1.72,1.74,5.27,11.04,17.6,68.89
										c0.24,1.13-0.43,2.25-1.53,2.55l-65.83,18.31C781.82,2528.41,781.63,2528.44,781.44,2528.44z M824.98,2441.23
										c-2.46,0-6.31,0.39-12.29,1.71c-19.78,4.38-45.16,15.21-47.63,20.33c-2.92,6.05,8.98,39.5,17.64,60.41l62.06-17.26
										c-5.1-23.8-13.45-60.4-15.7-64.49C828.82,2441.76,827.87,2441.23,824.98,2441.23z"/>
								</g>
							</g>
						</g>
						<g>
							<g>
								<g>
									<path class="st9" d="M866.52,2532.63c3.96,22.18,13.97,43.87,20.4,66.48l-0.04,0.02c15.61,64.3-117.16,64.38-165.98,79.99
										c-109.48,19.48-104.93-116.58-24.31-143.23c22.01-7.29,63.45-10.4,77.16,9.69c1.93-7.88-28.56-45.69-10.16-50.75
										C840.71,2494.99,847.48,2417.59,866.52,2532.63z"/>
								</g>
							</g>
							<g>
								<g>
									<path class="st6" d="M700.72,2683.14c-33.09,0-56.16-16.25-63.44-45.63c-9.33-37.63,12.01-88.26,58.64-103.68
										c20.97-6.94,55.84-9.4,73.44,4.09c-1.15-2.49-2.57-5.26-3.85-7.77c-5.83-11.42-12.44-24.36-9.09-32.04
										c1.17-2.67,3.39-4.48,6.6-5.36l0.57-0.08c0.07,0,0.15,0,0.22,0c27.81,0,46.16-10.23,59.57-17.7
										c10.13-5.64,17.45-9.73,24.03-6.5c8.67,4.23,14.02,20.34,21.22,63.81c2.4,13.44,6.98,26.48,11.82,40.29
										c2.96,8.45,6.03,17.18,8.52,25.96l0.52,1.81l-0.13,0.06c2.15,10.48,0.54,19.91-4.78,28.07
										c-17.22,26.38-69.01,35.1-114.71,42.78c-18.66,3.14-36.29,6.1-48.32,9.95C714.24,2682.5,707.28,2683.14,700.72,2683.14z
										 M732.72,2532.41c-12.62,0-25.63,2.28-35.47,5.54c-44.36,14.66-64.67,62.77-55.81,98.5c8.12,32.75,37.67,47.87,79.08,40.53
										c12.05-3.87,29.82-6.86,48.64-10.03c42.61-7.17,95.64-16.09,111.83-40.88c5.01-7.68,6.25-16.32,3.8-26.43l-0.22-0.92
										c-2.41-8.33-5.33-16.66-8.16-24.72c-4.69-13.37-9.54-27.18-12-40.98l0-0.03c-6.66-40.26-11.95-57.25-18.85-60.63
										c-4.58-2.22-11.09,1.39-20.09,6.4c-13.81,7.69-32.7,18.22-61.57,18.24c-1.8,0.55-2.93,1.46-3.54,2.85
										c-2.52,5.79,4.12,18.8,8.98,28.3c4.7,9.21,7.32,14.58,6.5,17.95l-1.15,4.68l-2.71-3.97
										C764.77,2536.26,749.08,2532.41,732.72,2532.41z"/>
								</g>
							</g>
						</g>
						<g>
							<g>
								<g>
									<path class="st8" d="M866.52,2532.63c3.96,22.18,13.97,43.87,20.4,66.48l-0.04,0.02c-0.27,21.54-14.37,19.97-22.2,24.04
										C846.05,2595.42,852.86,2562.98,866.52,2532.63z"/>
								</g>
							</g>
							<g>
								<g>
									<path class="st6" d="M864.67,2625.34c-0.69,0-1.37-0.34-1.78-0.95c-16.12-24.02-15.58-54.33,1.67-92.65
										c0.39-0.86,1.29-1.4,2.22-1.25c0.93,0.12,1.68,0.83,1.85,1.77c2.4,13.45,6.98,26.49,11.82,40.3
										c2.96,8.45,6.03,17.18,8.52,25.96c0.1,0.35,0.11,0.7,0.04,1.04c-0.37,18.1-10.52,21.25-17.94,23.54
										c-2,0.62-3.89,1.21-5.42,2C865.34,2625.26,865,2625.34,864.67,2625.34z M865.79,2539.76
										c-13.81,33.47-13.89,59.28-0.33,80.68c1.38-0.56,2.84-1.01,4.36-1.48c7.54-2.33,14.66-4.54,14.91-19.67
										c-2.44-8.51-5.43-17.04-8.32-25.28C872.48,2562.82,868.44,2551.31,865.79,2539.76z"/>
								</g>
							</g>
						</g>
						<g>
							<g>
								<g>
									<path class="st8" d="M886.91,2599.09c-39.16,61.29-166.02,80.02-235.35,62.24
										C701.01,2716.05,906.74,2668.93,886.91,2599.09z"/>
								</g>
							</g>
							<g>
								<g>
									<path class="st6" d="M729.95,2687.55c-34.12,0-64.43-7.56-79.97-24.76c-0.64-0.71-0.74-1.75-0.26-2.58
										c0.49-0.82,1.45-1.22,2.37-0.99c67.07,17.2,194.46-0.97,233.01-61.32c0.46-0.71,1.28-1.09,2.12-0.97
										c0.83,0.12,1.52,0.73,1.75,1.55c6.01,21.18-7.32,42.23-37.55,59.29C818.45,2676.39,771.39,2687.55,729.95,2687.55z
										 M658.99,2665.26c37.71,29.35,135.21,19.83,190.34-11.27c15.36-8.67,39.51-26.2,36.51-49.5
										C843.71,2662.74,726.62,2679.1,658.99,2665.26z"/>
								</g>
							</g>
						</g>
						<g>
							<g>
								<g>
									<path class="st6" d="M783.11,2588.77c-0.26,0-0.52-0.05-0.78-0.15c-1.1-0.44-1.65-1.7-1.22-2.81
										c5.48-14.13-2.78-29.05-7.21-37.07c-0.84-1.52-1.53-2.77-1.94-3.69l-1.02-2.25l2.35-0.72c11.74-3.6,22.73,5.33,24.62,8.66
										c0.59,1.04,0.23,2.36-0.8,2.96c-1.03,0.58-2.34,0.23-2.93-0.81c-1.1-1.94-8.78-8.16-17.03-7.2
										c0.16,0.3,0.34,0.61,0.52,0.94c4.44,8.02,13.68,24.72,7.46,40.77C784.78,2588.25,783.97,2588.77,783.11,2588.77z"/>
								</g>
							</g>
						</g>
						<g>
							<g>
								<g>
									<path class="st6" d="M668.98,2655.28c-6.7,0-11.95-0.41-14.89-1.25c-1.14-0.33-1.81-1.53-1.48-2.68
										c0.32-1.15,1.51-1.81,2.65-1.5c8.91,2.55,47.18,0.67,77.51-6.44c1.16-0.27,2.31,0.46,2.58,1.62
										c0.27,1.17-0.45,2.33-1.61,2.61C712.45,2652.62,686.04,2655.28,668.98,2655.28z"/>
								</g>
							</g>
						</g>
					</g>
				</g>
				<g>
					<g>
						<g>
							<g>
								<path class="st7" d="M1319.21,2131.18c-18.66,0-35.74-4.04-51.46-12.05c-69.63-35.48-99.34-142.79-99.34-358.82
									c0-15.58,12.51-28.21,27.93-28.21c15.43,0,27.93,12.63,27.93,28.21c0,184.02,22.45,284.92,68.64,308.46
									c34.07,17.34,91.85-4.05,171.73-63.62c12.41-9.26,29.9-6.6,39.06,5.93c9.16,12.53,6.53,30.19-5.88,39.44
									C1425.2,2104.69,1366.99,2131.18,1319.21,2131.18z"/>
							</g>
						</g>
					</g>
					<g>
						<g>
							<g>
								<g>
									<path class="st8" d="M1564.77,2013.67c0,0-41.92,41.41-52.27,40.58c-10.35-0.83-47.86-46.01-44.91-55.23
										c-0.31-2.65,56.25-40.55,56.25-40.55L1564.77,2013.67z"/>
								</g>
							</g>
							<g>
								<g>
									<path class="st6" d="M1512.74,2056.42c-0.14,0-0.27,0-0.41-0.02c-8.62-0.69-29.07-23.72-39.37-39.27
										c-9.05-13.66-7.82-17.52-7.41-18.79l0.03,0.01c0.97-2.25,8.25-8.98,57.08-41.7c0.95-0.63,2.22-0.41,2.91,0.51l40.93,55.2
										c0.64,0.87,0.55,2.09-0.22,2.85C1559.25,2022.16,1523.99,2056.42,1512.74,2056.42z M1469.63,1999.72
										c-0.13,0.49-0.52,3.8,6.91,15.01c11.26,17,30.52,36.9,36.14,37.35c0.07,0,0.15,0.01,0.23,0.01c7,0,33.08-23.06,49.01-38.65
										l-38.58-52.03C1503.26,1974.9,1472.57,1996.1,1469.63,1999.72z"/>
								</g>
							</g>
						</g>
						<g>
							<g>
								<g>
									<path class="st9" d="M1539.57,1931.36c19-11.82,35.34-29.16,53.84-43.45l0.03,0.03c53.58-38.15,102.14,86.63,134.36,126.82
										c57.94,95.81-69.16,141.22-123.16,75.16c-14.75-18.03-32.76-55.85-19.24-76.07c-7.97,1.07-31.69,43.54-43.08,28.08
										C1514.29,1969.38,1440.47,1991.28,1539.57,1931.36z"/>
								</g>
							</g>
							<g>
								<g>
									<path class="st6" d="M1671.57,2123.26c-24.65,0-50.51-9.84-68.6-31.96c-14.06-17.18-29.07-49.06-23.05-70.54
										c-1.88,2-3.92,4.34-5.76,6.46c-8.39,9.65-17.98,20.55-26.22,20.25c-2.89-0.12-5.37-1.55-7.36-4.25l-0.28-0.51
										c-10.15-26.28-26.33-39.84-38.15-49.75c-8.9-7.46-15.34-12.85-14.78-20.22c0.74-9.69,13.63-20.6,51.07-43.24
										c11.52-7.17,21.87-16.23,32.82-25.82c6.7-5.87,13.63-11.94,20.82-17.5l1.44-1.11l0.11,0.1c8.89-5.86,18.19-7.81,27.66-5.78
										c30.61,6.55,57.55,52.05,81.33,92.21c9.71,16.4,18.88,31.88,26.82,41.8c23.38,38.62,19.77,74.11-9.49,95.17
										C1706.8,2118.05,1689.51,2123.26,1671.57,2123.26z M1589.84,2011.07l-2.67,4c-12.58,18.81,3.97,54.97,19.12,73.48
										c29.72,36.35,81.49,37.87,111.19,16.5c27.22-19.59,30.39-52.92,8.49-89.15c-7.97-9.92-17.22-25.53-27.01-42.06
										c-22.17-37.44-49.76-84.04-78.53-90.19c-8.9-1.89-17.33,0.08-25.75,6.08l-0.8,0.57c-6.79,5.3-13.39,11.08-19.78,16.67
										c-10.61,9.29-21.58,18.9-33.4,26.25l-0.02,0.01c-34.68,20.97-48.42,32.14-49.01,39.86c-0.39,5.13,5.33,9.92,13.23,16.54
										c12.14,10.17,28.74,24.08,39.3,51.22c1.16,1.5,2.41,2.22,3.92,2.28c0.07,0,0.14,0,0.22,0c6.26,0,15.69-10.84,22.6-18.78
										c6.77-7.78,10.77-12.2,14.17-12.66L1589.84,2011.07z"/>
								</g>
							</g>
						</g>
						<g>
							<g>
								<g>
									<path class="st8" d="M1539.57,1931.36c19-11.82,35.34-29.16,53.84-43.45l0.03,0.03c19.96-7.61,23.65,6.22,30.27,12.1
										C1604.93,1927.68,1572.53,1933.12,1539.57,1931.36z"/>
								</g>
							</g>
							<g>
								<g>
									<path class="st6" d="M1549.96,1933.82c-3.4,0-6.91-0.09-10.51-0.29c-0.94-0.05-1.74-0.71-1.97-1.63
										c-0.23-0.92,0.15-1.89,0.95-2.39c11.52-7.17,21.88-16.23,32.84-25.83c6.7-5.87,13.63-11.94,20.82-17.5
										c0.29-0.22,0.61-0.36,0.95-0.42c16.83-6.26,23.42,2.13,28.25,8.27c1.3,1.66,2.53,3.22,3.82,4.37
										c0.81,0.72,0.97,1.95,0.35,2.86C1610.63,1923.12,1585.87,1933.82,1549.96,1933.82z M1546.41,1929.45
										c35.84,0.81,59.72-8.59,74.49-29.15c-1.02-1.09-1.97-2.3-2.96-3.56c-4.91-6.23-9.54-12.14-23.58-6.83
										c-6.96,5.4-13.72,11.32-20.26,17.05C1565.21,1914.74,1556.08,1922.74,1546.41,1929.45z"/>
								</g>
							</g>
						</g>
						<g>
							<g>
								<g>
									<path class="st8" d="M1593.39,1887.92c70.81,14.43,134.4,126.84,143.33,198.51
										C1769.1,2019.97,1650.52,1843.78,1593.39,1887.92z"/>
								</g>
							</g>
							<g>
								<g>
									<path class="st6" d="M1736.72,2088.61c-0.12,0-0.23-0.01-0.35-0.03c-0.94-0.16-1.66-0.92-1.78-1.87
										c-8.64-69.33-71.91-182.45-141.62-196.65c-0.82-0.17-1.48-0.81-1.67-1.64c-0.19-0.83,0.12-1.69,0.79-2.21
										c17.32-13.39,41.6-8.54,68.37,13.65c53.24,44.13,100.73,141.28,78.19,187.54
										C1738.28,2088.14,1737.53,2088.61,1736.72,2088.61z M1598.76,1886.96c69.08,18.33,126.93,122.43,138.87,191.06
										c13.29-46.17-31.09-134.35-79.9-174.81C1644.13,1891.93,1619.15,1875.63,1598.76,1886.96z"/>
								</g>
							</g>
						</g>
						<g>
							<g>
								<g>
									<path class="st6" d="M1583.85,2017.51l-1.53-1.95c-7.63-9.72-3.39-23.31-1.01-26.3c0.74-0.94,2.1-1.08,3.02-0.33
										c0.92,0.75,1.07,2.11,0.32,3.05c-1.39,1.74-4.3,11.23-0.42,18.64c0.21-0.26,0.44-0.54,0.68-0.83
										c5.78-7.1,17.79-21.89,34.86-21.9c0,0,0,0,0,0c1.19,0,2.15,0.97,2.15,2.17c0,1.19-0.96,2.17-2.15,2.17
										c-15.03,0.01-25.77,13.22-31.54,20.31c-1.1,1.35-2,2.45-2.69,3.17L1583.85,2017.51z"/>
								</g>
							</g>
						</g>
						<g>
							<g>
								<g>
									<path class="st6" d="M1726.92,2089.11c-1.09,0-2.02-0.83-2.14-1.95c-0.92-9.31-16.62-44.6-34.24-70.51
										c-0.67-0.99-0.42-2.34,0.55-3.02c0.98-0.68,2.32-0.42,2.99,0.56c17.22,25.33,33.91,61.66,34.98,72.54
										c0.12,1.19-0.74,2.26-1.93,2.37C1727.06,2089.11,1726.99,2089.11,1726.92,2089.11z"/>
								</g>
							</g>
						</g>
					</g>
				</g>
				<g>
					<g>
						<g>
							<path class="st10" d="M1444.34,1451.08c50.35,249.81-78.82,418.95-479.43,418.92c-271.19-0.02-494.76-127.11-437.84-452.73
								c17.81-101.91,110.44-203.45,167.67-275.53c37.13-46.76,77.64-201.73,80.21-219.23C804.13,723.75,961.74,714.29,1057,713.93
								c197.32-0.74,199.95,261.01,199.96,263.69c0.47,89.1,9.25,124.1,44.25,172.24
								C1363.26,1235.24,1420.67,1333.64,1444.34,1451.08z"/>
						</g>
					</g>
					<g>
						<g>
							<path class="st6" d="M965,1872.17c-0.04,0-0.05,0-0.09,0c-168.5-0.01-302.35-49.43-376.89-139.16
								c-64.86-78.08-86.08-184.44-63.06-316.12c15.57-89.06,86.74-176.41,143.93-246.6c8.5-10.43,16.64-20.43,24.17-29.9
								c36.38-45.82,76.92-198.81,79.76-218.19c12.83-87.38,52.34-148.04,117.43-180.33c52.79-26.19,113.91-29.92,166.74-30.12
								c0.27,0,0.57,0,0.83,0c197.58,0,201.27,263.19,201.29,265.85c0.46,88.55,9.48,123.7,43.83,170.97
								c49.08,67.52,117.35,172.29,143.5,302.07c23.59,117.03,6.99,211.66-49.32,281.26
								C1321.82,1824.98,1176.42,1872.17,965,1872.17z M1057.82,716.1c-0.27,0-0.54,0-0.81,0
								c-123.48,0.46-253.3,25.38-279.93,206.74c-2.87,19.53-43.83,173.88-80.66,220.26c-7.54,9.5-15.69,19.5-24.21,29.95
								c-56.87,69.8-127.65,156.66-143.02,244.6c-22.79,130.36-1.89,235.53,62.12,312.58c73.71,88.73,206.39,137.6,373.6,137.61
								c0.03,0,0.07,0,0.09,0c210.09,0,354.35-46.66,428.8-138.68c55.46-68.55,71.76-161.96,48.44-277.65
								c-25.99-128.94-93.92-233.18-142.76-300.37c-35.01-48.17-44.19-83.85-44.66-173.51
								C1254.8,975.01,1251.14,716.1,1057.82,716.1z"/>
						</g>
					</g>
				</g>
				<g>
					<g>
						<g>
							<g>
								<g>
									<path class="st8" d="M524.15,864.29c9.54-6.17,33.9-40.73,40.11-50.3c7.41-11.41,14.74-23.36,17.13-36.8
										s-0.58-26.53-11.16-33.31c19.33-17.87,39.33-41.17,55.47-62.02c15.33-19.81,7.37-35.01-10.23-37.16
										c-21.01-2.57-57.23,47.36-78.86,70.75c6.14-26.7,10.09-88.03,2.87-102.66c-5.41-10.95-25.31-17.3-35.76,8.91
										c-8.46,21.23-8.98,50.65-14.59,77.45c-25.35-28.63-46.51-13.54-42.27,13.13c-6.93-8.46-19.32-14.94-28.02-8.82
										c-8.7,6.12-11.73,18.13-10.13,28.71c1.6,10.59,6.99,20.14,12.28,29.42c-10.11,11.75-17.44,49.96-11.97,64.51
										C414.5,840.64,506.23,875.88,524.15,864.29z"/>
								</g>
							</g>
							<g>
								<g>
									<path class="st6" d="M512.95,868.75c-14.79,0-35.84-6.35-46.09-9.77c-21.95-7.32-56-21.92-59.84-32.12
										c-5.46-14.52,1.21-51.87,11.38-65.48c-4.9-8.61-10.21-18.29-11.81-28.89c-1.91-12.66,2.42-24.76,11.02-30.82
										c8.01-5.64,18.71-2.09,26.57,4.76c-0.19-10.88,4-19.68,11.4-23.24c9.17-4.42,20.78-0.25,32.26,11.4
										c1.65-8.73,2.85-17.73,4.01-26.48c2.31-17.34,4.49-33.73,9.87-47.24c6.65-16.69,16.49-19.54,21.76-19.75
										c7.34-0.42,14.66,4.1,17.91,10.68c7.21,14.61,3.89,67.8-1.14,96.34c3.23-3.68,6.7-7.75,10.29-11.97
										c22.28-26.16,47.52-55.87,65.19-53.64c9.2,1.12,16.08,5.67,18.88,12.47c3.26,7.94,0.7,17.95-7.22,28.18
										c-18.19,23.5-37.19,44.87-53.76,60.47c8.9,7.09,12.49,19.27,9.87,33.92c-2.43,13.66-9.64,25.58-17.45,37.6
										c-6.07,9.34-30.68,44.42-40.75,50.94l0,0C522.39,868,518.04,868.75,512.95,868.75z M426.64,703.24
										c-2.37,0-4.61,0.61-6.57,1.99c-7.27,5.12-10.9,15.56-9.23,26.61c1.56,10.33,6.88,19.65,12.02,28.66
										c0.46,0.81,0.36,1.81-0.24,2.51c-9.79,11.38-16.72,48.66-11.58,62.31c2.44,6.49,28.62,20.02,57.17,29.54
										c27.08,9.03,48.07,11.93,54.79,7.6h0c8.63-5.58,32.04-38.21,39.47-49.66c7.55-11.63,14.52-23.13,16.82-35.99
										c2.5-14-1.22-25.34-10.2-31.1c-0.56-0.36-0.93-0.97-0.99-1.64c-0.06-0.67,0.2-1.33,0.69-1.79
										c16.85-15.58,36.46-37.51,55.22-61.75c6.92-8.95,9.28-17.41,6.64-23.84c-2.18-5.31-7.81-8.9-15.43-9.83
										c-15.37-1.94-41.99,29.35-61.41,52.16c-5.64,6.63-10.97,12.89-15.62,17.91c-0.67,0.72-1.72,0.89-2.58,0.44
										c-0.86-0.46-1.3-1.45-1.08-2.41c6.04-26.25,9.89-87.33,3.04-101.21c-2.52-5.1-8.21-8.58-13.9-8.28
										c-7.31,0.3-13.69,6.34-17.95,17.03c-5.18,13-7.33,29.13-9.6,46.2c-1.36,10.2-2.76,20.75-4.88,30.89
										c-0.17,0.8-0.77,1.44-1.55,1.65c-0.78,0.2-1.62-0.05-2.16-0.65c-10.87-12.28-22.12-17.31-30.09-13.48
										c-7,3.37-10.31,13.11-8.45,24.82c0.15,0.97-0.35,1.92-1.23,2.32c-0.88,0.41-1.92,0.17-2.54-0.59
										C440.34,707.71,433.04,703.24,426.64,703.24z"/>
								</g>
							</g>
						</g>
						<g>
							<g>
								<g>
									<path class="st6" d="M467.48,859.7c-0.27-0.09-0.53-0.17-0.78-0.26c-22.03-7.35-56.23-22.05-60.13-32.41
										c-5.47-14.53,1.12-51.75,11.26-65.69c-4.87-8.58-10.11-18.21-11.71-28.78c-1.94-12.84,2.47-25.12,11.22-31.29
										c7.95-5.6,18.44-2.41,26.36,4.12c0.09-10.59,4.34-19.11,11.68-22.64c9.19-4.42,20.74-0.46,32.16,10.86
										c1.56-8.43,2.72-17.11,3.84-25.55c2.31-17.38,4.5-33.8,9.9-47.36c6.75-16.94,16.8-19.83,22.19-20.05
										c7.49-0.3,15.02,4.2,18.36,10.95c7.11,14.4,4.06,65.98-0.81,94.96c2.91-3.34,5.99-6.95,9.17-10.69
										c22.35-26.25,47.69-56,65.6-53.8c9.38,1.15,16.4,5.8,19.26,12.77c3.33,8.11,0.75,18.28-7.28,28.66
										c-18.06,23.34-36.92,44.56-53.41,60.14c8.72,7.24,12.22,19.43,9.62,34.03c-2.45,13.75-9.69,25.72-17.52,37.78
										c-6.08,9.36-30.75,44.52-40.89,51.08c0,0,0,0,0,0C514.22,873.86,481.77,864.41,467.48,859.7z M431.81,704.61
										c-4.11-1.36-8.21-1.27-11.46,1.02c-8.66,6.09-10.28,17.89-9.03,26.14c1.55,10.24,6.84,19.52,11.96,28.5
										c0.56,0.98,0.44,2.21-0.3,3.06c-9.72,11.29-16.59,48.27-11.49,61.83c2.14,5.68,25.5,18.79,56.87,29.25
										c26.64,8.86,47.88,11.85,54.38,7.65l0,0c8.58-5.55,31.91-38.09,39.33-49.52c7.52-11.59,14.47-23.04,16.75-35.81
										c2.46-13.8-1.18-24.96-9.99-30.61c-0.69-0.44-1.14-1.18-1.21-2.01c-0.07-0.82,0.24-1.63,0.84-2.19
										c16.83-15.55,36.42-37.47,55.17-61.7c6.81-8.8,9.15-17.1,6.57-23.36c-2.12-5.15-7.61-8.63-15.05-9.54
										c-15.13-1.85-41.64,29.27-60.99,52c-5.65,6.63-10.98,12.89-15.64,17.93c-0.81,0.88-2.1,1.1-3.15,0.53
										c-1.05-0.57-1.59-1.77-1.32-2.94c6.03-26.19,9.88-87.09,3.07-100.88c-2.44-4.94-7.97-8.24-13.45-8.02
										c-7.11,0.29-13.34,6.23-17.53,16.73c-5.16,12.95-7.3,29.04-9.57,46.09c-1.36,10.21-2.76,20.76-4.89,30.92
										c-0.2,0.98-0.94,1.76-1.89,2.01c-0.95,0.26-1.97-0.05-2.63-0.79c-10.72-12.11-21.77-17.1-29.54-13.37
										c-6.8,3.27-10.01,12.81-8.18,24.31c0.19,1.18-0.43,2.34-1.51,2.84c-1.08,0.49-2.35,0.2-3.11-0.72
										C441.34,709.68,436.56,706.18,431.81,704.61z M524.15,864.29l0.02,0.01L524.15,864.29z"/>
								</g>
							</g>
						</g>
					</g>
					<g>
						<g>
							<g>
								<g>
									<path class="st6" d="M536.2,780.73c-10.98-3.63-21.04-10.13-28.78-18.8c-4.98-5.58-10.72-14.31-9.8-24.2
										c0.96-10.26,9.69-19.56,20.76-22.11c17.04-3.94,33.71,9.94,45.88,20.06c3.2,2.66,5.96,4.96,8.23,6.51
										c1.2,0.82,1.52,2.47,0.71,3.68c-0.81,1.21-2.46,1.53-3.64,0.72c-2.48-1.69-5.33-4.06-8.63-6.81
										c-11.33-9.43-26.85-22.34-41.37-18.99c-8.92,2.06-15.95,9.4-16.7,17.45c-0.75,7.97,4.2,15.36,8.47,20.15
										c10.17,11.39,24.68,18.71,39.8,20.09c1.44,0.13,2.51,1.42,2.38,2.88c-0.13,1.46-1.41,2.53-2.85,2.4
										C545.74,783.3,540.89,782.28,536.2,780.73z"/>
								</g>
							</g>
						</g>
					</g>
					<g>
						<g>
							<g>
								<g>
									<path class="st6" d="M502.27,729.73c-0.65-0.21-1.21-0.68-1.54-1.34c-4.4-8.95-6.05-12.08-10.44-20.44l-4.64-8.85
										c-0.68-1.29-0.19-2.9,1.1-3.58c1.28-0.68,2.87-0.19,3.55,1.11l4.64,8.84c4.42,8.4,6.06,11.55,10.5,20.56
										c0.65,1.31,0.11,2.9-1.18,3.55C503.61,729.91,502.9,729.94,502.27,729.73z"/>
								</g>
							</g>
						</g>
					</g>
					<g>
						<g>
							<g>
								<g>
									<path class="st8" d="M438.17,836.34c-14.03-4.24-22.21-9.3-32.82-21.04c-8.87-9.82-25.81,10.54-19.19,23.65
										c14.75,29.23,53.56,45.47,73.41,52.12c46.5,15.56,74.37-1.43,80.15-9.46c4.09-5.68,5.12-14.06,0.89-19.65
										c-5.07-6.71-16.02-3.22-24.37-3.35C506.61,858.47,451.94,840.5,438.17,836.34z"/>
								</g>
							</g>
							<g>
								<g>
									<path class="st6" d="M495.72,899.55c-10.69,0-23.02-1.81-36.82-6.43c-21.48-7.19-59.75-23.66-74.65-53.19
										c-4.62-9.15,0.7-21.49,8.36-26.85c5.24-3.67,10.6-3.39,14.33,0.75c10.17,11.25,17.91,16.21,31.85,20.42
										c1.14,0.34,1.78,1.56,1.44,2.7c-0.34,1.15-1.53,1.79-2.67,1.46c-14.62-4.42-23.15-9.88-33.79-21.66
										c-2.83-3.14-6.3-1.79-8.71-0.1c-6.19,4.32-10.48,14.36-6.97,21.31c14.21,28.15,51.32,44.06,72.17,51.04
										c43.1,14.43,71.43,0.09,77.74-8.67c3.35-4.65,4.74-12.01,0.92-17.05c-3.04-4.02-9.14-3.47-15.6-2.89
										c-2.37,0.21-4.81,0.45-7.09,0.4c-1.19-0.02-2.13-1-2.12-2.2c0.02-1.2,1.02-2.16,2.18-2.14c2.05,0.07,4.29-0.17,6.65-0.38
										c7-0.63,14.92-1.34,19.4,4.58c5.09,6.74,3.42,16.29-0.86,22.24C536.45,889.84,520.49,899.55,495.72,899.55z"/>
								</g>
							</g>
						</g>
					</g>
					<g>
						<g>
							<g>
								<g>
									<path class="st6" d="M486.09,767.73c-21.56-7.12-38.26-45.98-41.66-54.42c-0.55-1.36,0.1-2.9,1.44-3.46
										c1.35-0.55,2.88,0.1,3.42,1.46c7.87,19.53,25.93,52.5,43.75,52.24c2.72-0.04,9.37-0.66,12.22-5.51
										c0.74-1.26,2.37-1.67,3.6-0.93c1.25,0.75,1.66,2.37,0.92,3.63c-2.96,5.04-9.03,7.99-16.66,8.11
										C490.74,768.89,488.39,768.49,486.09,767.73z"/>
								</g>
							</g>
						</g>
					</g>
					<g>
						<g>
							<g>
								<g>
									<path class="st6" d="M444.28,780.86c-9.26-3.06-18.83-9.87-26.14-19.51c-0.88-1.16-0.66-2.83,0.49-3.72
										c1.15-0.89,2.8-0.67,3.68,0.49c12.18,16.07,31.72,23.79,41.81,16.54c6.05-4.35,8.33-14.03,4.61-19.55
										c-0.82-1.21-0.51-2.86,0.69-3.68c1.2-0.82,2.83-0.51,3.65,0.7c5.88,8.72,1.73,21.37-5.91,26.86
										C461.15,783.31,452.85,783.69,444.28,780.86z"/>
								</g>
							</g>
						</g>
					</g>
					<g>
						<g>
							<g>
								<g>
									<path class="st6" d="M466.92,800.98c-0.08-0.03-0.16-0.06-0.23-0.09c-1.33-0.59-1.94-2.15-1.36-3.49
										c3.9-9.03,10.66-16.77,19.06-21.8c8.39-5.03,18.36-7.32,28.07-6.45c1.45,0.13,2.51,1.42,2.38,2.88
										c-0.13,1.46-1.4,2.54-2.85,2.41c-8.63-0.77-17.48,1.26-24.93,5.72c-7.45,4.47-13.46,11.34-16.92,19.36
										C469.59,800.78,468.19,801.4,466.92,800.98z"/>
								</g>
							</g>
						</g>
					</g>
				</g>
				<g>
					<g>
						<g>
							<g>
								<path class="st11" d="M1023.43,762.18c8.94,1.72,36.71,5.93,42.26,4.17c22.13-7.01-84.55-242.86-161.85-318.28
									c0.79,32.44-8.11,52.64-35.58,54.37C953.49,572.57,975.4,680.3,1023.43,762.18z"/>
							</g>
						</g>
						<g>
							<g>
								<path class="st6" d="M1061.1,768.93c-11.26,0-33.55-3.75-38.07-4.62c-0.61-0.12-1.13-0.49-1.45-1.03
									c-15.41-26.27-27.87-54.58-41.07-84.55c-27.54-62.55-56.01-127.22-113.61-174.62c-0.69-0.56-0.96-1.5-0.69-2.35
									c0.27-0.85,1.03-1.45,1.91-1.5c24.06-1.51,34.41-17.6,33.57-52.15c-0.02-0.88,0.49-1.69,1.28-2.04
									c0.8-0.36,1.73-0.18,2.36,0.43c71.81,70.06,172.83,283.56,165.04,316.84c-0.79,3.39-2.64,4.63-4.04,5.07
									C1065.19,768.77,1063.37,768.93,1061.1,768.93z M1024.78,760.23c12.02,2.23,35.94,5.41,40.26,4.05
									c0.62-0.19,0.96-1.16,1.15-1.93c6.52-27.84-87.31-234.13-160.16-309.03c-0.32,31.01-10.75,47.3-32.49,50.73
									c55.77,47.71,83.79,111.34,110.9,172.93C997.44,706.5,1009.73,734.41,1024.78,760.23z"/>
							</g>
						</g>
					</g>
					<g>
						<g>
							<g>
								<g>
									<path class="st11" d="M990.28,589.87c47.33-2.97,85.85-43.3,101.96-88.34c16.12-45.04,14.4-94.31,12.48-142.16
										c-28.08,17.88-56.34,35.9-80.55,58.84c-24.2,22.94-44.36,51.37-52.37,83.9C963.8,534.64,969.32,571.53,990.28,589.87z"/>
								</g>
							</g>
							<g>
								<g>
									<path class="st6" d="M989.54,592.09l-0.66-0.58c-20.32-17.78-28.02-53.91-19.15-89.92c7.3-29.64,25.62-59.02,52.98-84.95
										c24.44-23.16,53.13-41.43,80.87-59.1l3.14-2l0.15,3.75c1.82,45.41,3.89,96.89-12.61,142.98
										c-15.17,42.39-53.16,86.59-103.85,89.77L989.54,592.09z M1102.73,363.21c-26.59,16.94-53.86,34.58-77.08,56.59
										c-26.76,25.36-44.65,54.01-51.76,82.84c-8.39,34.06-1.5,68.06,17.14,85.01c48.3-3.52,84.59-46.05,99.19-86.85
										C1105.98,456.75,1104.48,407.29,1102.73,363.21z"/>
								</g>
							</g>
						</g>
						<g>
							<g>
								<g>
									<path class="st6" d="M989.82,591.12c-0.29,0-0.59-0.06-0.88-0.19c-1.08-0.49-1.57-1.78-1.08-2.87
										c5.22-11.74,10.43-25.04,15.95-39.12c13.92-35.51,29.69-75.76,50.33-101.84c0.74-0.94,2.09-1.08,3.02-0.34
										c0.93,0.75,1.08,2.11,0.34,3.05c-20.24,25.57-35.88,65.5-49.69,100.73c-5.54,14.12-10.76,27.46-16.02,39.3
										C991.43,590.64,990.65,591.12,989.82,591.12z"/>
								</g>
							</g>
						</g>
					</g>
					<g>
						<g>
							<g>
								<g>
									<path class="st11" d="M1000.5,666.73c-21.51-48.21-77.79-72.64-130.15-71.87c-52.36,0.77-102.08,21.79-150.27,42.46
										c29.24,22.31,58.71,44.75,91.62,61.04c32.91,16.29,69.85,26.22,106.25,21.88C954.34,715.91,989.92,695.75,1000.5,666.73z"
										/>
								</g>
							</g>
							<g>
								<g>
									<path class="st6" d="M900.82,723.42c-28.49,0-59.27-7.86-90.07-23.1c-33.21-16.44-63.08-39.23-91.97-61.26l-2.96-2.26
										l3.42-1.47c45.72-19.62,97.54-41.85,151.08-42.64c49.28-0.79,109.15,21.62,132.14,73.15l0.36,0.81l-0.3,0.83
										c-10.23,28.06-44.11,50.13-84.31,54.92C912.52,723.08,906.72,723.42,900.82,723.42z M724.34,637.86
										c27.81,21.2,56.59,42.86,88.31,58.56c36.42,18.03,72.75,25.51,105.05,21.68c38.23-4.56,70.43-25.12,80.48-51.29
										c-22.47-49.16-80.39-70.64-127.79-69.78C819,597.79,768.85,618.77,724.34,637.86z"/>
								</g>
							</g>
						</g>
						<g>
							<g>
								<g>
									<path class="st6" d="M999.74,669.73c-0.04,0-0.09,0-0.13,0c-14.05-0.86-29.69-1.1-46.24-1.36
										c-41.73-0.65-89.04-1.4-123.74-12.73c-1.13-0.37-1.75-1.59-1.38-2.73c0.37-1.14,1.57-1.77,2.71-1.39
										c34.09,11.13,81.05,11.87,122.48,12.52c16.6,0.26,32.29,0.5,46.44,1.37c1.18,0.07,2.09,1.1,2.02,2.3
										C1001.81,668.85,1000.86,669.73,999.74,669.73z"/>
								</g>
							</g>
						</g>
					</g>
					<g>
						<g>
							<g>
								
									<ellipse transform="matrix(0.4514 -0.8923 0.8923 0.4514 61.6411 1054.8702)" class="st11" cx="888.67" cy="477.31" rx="32.95" ry="24.71"/>
							</g>
						</g>
						<g>
							<g>
								<path class="st6" d="M882.59,510.94c-3.56,0-6.98-0.82-10.09-2.47c-6.45-3.41-10.75-9.91-12.13-18.3
									c-1.34-8.17,0.28-17.2,4.55-25.43c8.91-17.18,26.82-25.52,39.92-18.6c13.09,6.93,16.49,26.55,7.58,43.73
									c-4.27,8.23-10.7,14.71-18.11,18.25C890.37,510,886.4,510.94,882.59,510.94z M894.73,448.02c-9.52,0-19.99,7.13-26.01,18.74
									c-3.84,7.39-5.3,15.45-4.11,22.7c1.15,7.02,4.66,12.4,9.88,15.17c5.23,2.77,11.61,2.61,17.98-0.43
									c6.57-3.14,12.3-8.94,16.14-16.34c7.81-15.06,5.23-32.05-5.77-37.87C900.32,448.65,897.57,448.02,894.73,448.02z"/>
							</g>
						</g>
					</g>
				</g>
				<g>
					<g>
						<g>
							<g>
								<path class="st6" d="M922.7,850.79c2.05,5.27-18,7.15-40.19,15.97c-22.2,8.82-38.14,21.24-40.19,15.97
									c-2.05-5.27,12.54-20.13,34.48-29.59C907.25,840.02,920.64,845.52,922.7,850.79z"/>
							</g>
						</g>
						<g>
							<g>
								<path class="st6" d="M844.44,886.16c-0.66,0-1.26-0.1-1.82-0.31c-1.08-0.42-1.88-1.22-2.31-2.33
									c-2.92-7.49,14.4-23.22,35.64-32.38c25.1-10.82,37.61-8.74,42.83-6.53c2.95,1.25,5.05,3.16,5.92,5.38l0,0
									c0.43,1.11,0.39,2.25-0.12,3.3c-1.51,3.07-6.72,4.67-17.41,7.72c-6.77,1.92-15.2,4.33-23.87,7.77
									c-8.67,3.45-16.47,7.49-22.72,10.74C852.7,883.61,847.78,886.16,844.44,886.16z M908.46,847.2c-6.4,0-16.28,1.67-30.82,7.94
									c-22.54,9.71-34.52,23.73-33.33,26.8c1.39,0.4,8.24-3.13,14.29-6.27c6.34-3.3,14.24-7.39,23.12-10.92
									c8.87-3.53,17.42-5.96,24.28-7.91c6.38-1.82,13.6-3.87,14.66-5.36c-0.26-0.58-1.08-1.81-3.54-2.86
									C915.61,847.99,912.85,847.2,908.46,847.2z"/>
							</g>
						</g>
					</g>
					<g>
						<g>
							<g>
								<g>
									<path class="st6" d="M1064.65,1110.89c0.89,13.41-4.71,30.67-14.74,43.16c-0.15,0.18-0.3,0.37-0.45,0.54
										c-6.55,7.96-14.92,13.88-24.57,15.47c-0.31,0.06-0.62,0.11-0.93,0.14c-0.69,0.09-1.38,0.16-2.08,0.21
										c-0.53,0.04-1.06,0.06-1.59,0.07c-16.23,0.3-31.81-11.67-41.58-26.22c0,0,0,0,0-0.01c-0.08-0.1-0.16-0.22-0.23-0.32
										c-5.71-8.64-9.39-18.15-9.95-26.52c-0.91-13.63,6.46-15.79,18.11-15.64c8.11,0.11,18.28,1.34,29.17,0.6
										c11.12-0.75,21.23-3.44,29.33-4.6C1056.37,1096.14,1063.76,1097.45,1064.65,1110.89z"/>
								</g>
							</g>
							<g>
								<g>
									<path class="st6" d="M1019.68,1172.66c-18.05,0-33.89-13.98-42.76-27.18c-0.02-0.03-0.03-0.05-0.05-0.08
										c-0.05-0.06-0.09-0.12-0.1-0.14c-6.16-9.31-9.82-19.1-10.4-27.71c-0.4-6.07,0.73-10.44,3.48-13.37
										c3.91-4.17,10.4-4.64,16.8-4.58c2.73,0.04,5.69,0.2,8.84,0.37c6.11,0.33,13.04,0.71,20.16,0.23
										c7.09-0.48,13.87-1.78,19.85-2.93c3.33-0.64,6.45-1.24,9.32-1.64c5.83-0.85,12.39-1.23,16.76,2.34
										c3.1,2.53,4.8,6.71,5.2,12.77l0,0c0.95,14.2-5.17,32.16-15.22,44.67l-0.52,0.63c-7.39,8.98-16.34,14.59-25.82,16.16
										c-0.3,0.06-0.67,0.12-1.05,0.16c-0.69,0.09-1.42,0.17-2.17,0.22c-0.56,0.04-1.13,0.06-1.7,0.07
										C1020.11,1172.66,1019.9,1172.66,1019.68,1172.66z M980.48,1143.04c8.34,12.41,23.22,25.56,39.76,25.27
										c0.5-0.01,0.99-0.03,1.47-0.06c0.67-0.04,1.31-0.11,1.96-0.19c0.29-0.03,0.54-0.07,0.78-0.12
										c8.53-1.41,16.57-6.5,23.34-14.73l0.44-0.53c9.41-11.73,15.15-28.46,14.27-41.65l0,0c-0.32-4.79-1.5-7.95-3.62-9.68
										c-2.46-2.01-6.48-2.44-13.45-1.42c-2.81,0.4-5.87,0.99-9.12,1.61c-6.1,1.17-13.02,2.5-20.37,3
										c-7.39,0.51-14.45,0.11-20.69-0.23c-3.08-0.17-5.98-0.33-8.66-0.36c-7.32-0.09-11.41,0.87-13.62,3.22
										c-1.87,2-2.63,5.3-2.31,10.1c0.52,7.86,3.93,16.9,9.59,25.46c0.06,0.08,0.13,0.2,0.2,0.33L980.48,1143.04z"/>
								</g>
							</g>
						</g>
						<g>
							<g>
								<g>
									<path class="st12" d="M1049.46,1154.59c-6.55,7.96-14.92,13.88-24.57,15.47c-0.31,0.06-0.62,0.11-0.93,0.14
										c-0.69,0.09-1.38,0.16-2.08,0.21c-0.53,0.04-1.06,0.06-1.59,0.07c-16.23,0.3-31.81-11.67-41.58-26.22c0,0,0,0,0-0.01
										c0.19-1.85,0.76-3.61,1.81-5.05c2.24-3.01,6.88-4.82,10.42-4.88c4.28-0.09,7.77,1.62,11.85,3.09
										c1.32,0.49,2.78-0.27,3.15-1.74c0.79-3.22,3.4-4.58,5.03-4.92c7.17-1.53,15.26,1.74,21.68,5.77
										C1039.4,1140.73,1045.12,1147.14,1049.46,1154.59z"/>
								</g>
							</g>
							<g>
								<g>
									<path class="st6" d="M1019.68,1172.66c-18.05,0-33.89-13.98-42.76-27.18l-0.32-0.47l-0.05-0.56c0.25-2.8,1-4.86,2.22-6.53
										c2.75-3.7,8.17-5.69,12.11-5.76c3.96-0.11,7.11,1.14,10.5,2.42l2.11,0.79c1.32-4.22,4.55-6.23,7.02-6.75
										c8.37-1.81,17.27,2.3,23.24,6.05c6.76,4.22,12.83,10.74,17.54,18.83l0.76,1.31l-0.96,1.17
										c-7.44,9.05-16.39,14.66-25.88,16.23c-0.3,0.06-0.67,0.12-1.05,0.16c-0.69,0.09-1.42,0.17-2.17,0.22
										c-0.56,0.04-1.13,0.06-1.7,0.07C1020.11,1172.66,1019.9,1172.66,1019.68,1172.66z M980.95,1143.72
										c8.42,12.21,22.98,25.01,39.3,24.59c0.5-0.01,0.99-0.03,1.47-0.06c0.67-0.04,1.31-0.11,1.96-0.19
										c0.29-0.03,0.54-0.07,0.78-0.12c8.11-1.34,15.79-6.01,22.36-13.56c-4.23-6.87-9.5-12.39-15.31-16.02
										c-4.35-2.73-12.75-7.08-20.1-5.49c-0.29,0.06-2.73,0.64-3.39,3.32c-0.32,1.3-1.16,2.39-2.31,3.01
										c-1.12,0.6-2.46,0.69-3.66,0.25l-2.17-0.81c-3.12-1.19-5.82-2.31-8.9-2.14c-2.87,0.05-6.93,1.57-8.75,4.01
										C981.6,1141.37,981.17,1142.45,980.95,1143.72z"/>
								</g>
							</g>
						</g>
						<g>
							<g>
								<g>
									<path class="st13" d="M1045.13,1097.78c-1.18,9.07-5.5,14.85-11.08,8.23c-0.91,8.02-7.89,9.82-12.48,2.23
										c-0.87,7.11-7.91,8.35-11.4,0.13c-3.52,9.25-9.66,5.5-11.43-1.61c-2.88,5.83-6.48,4.7-9.46,1.44
										c-1.64-1.8-2.02-3.55-2.65-6.42c8.11,0.11,18.28,1.34,29.17,0.6C1026.92,1101.62,1037.03,1098.93,1045.13,1097.78z"/>
								</g>
							</g>
							<g>
								<g>
									<path class="st6" d="M1016.56,1115.15c-2,0-4.43-1.16-6.34-4.3c-1.99,3.68-4.34,4.2-5.66,4.08
										c-2.44-0.15-4.74-2.32-6.11-5.61c-1.13,1.53-2.41,2.39-3.84,2.6c-1.98,0.31-4.05-0.72-6.12-2.99
										c-1.84-2.02-2.27-3.97-2.91-6.92c-0.07-0.32,0.01-0.66,0.22-0.92c0.21-0.25,0.5-0.43,0.85-0.4
										c2.72,0.04,5.67,0.2,8.79,0.37c6.14,0.34,13.1,0.71,20.29,0.23c7.15-0.49,13.97-1.8,19.98-2.95
										c3.29-0.63,6.4-1.23,9.27-1.64c0.33-0.05,0.67,0.06,0.91,0.3c0.24,0.24,0.35,0.58,0.31,0.91
										c-0.85,6.5-3.19,10.93-6.26,11.84c-1.24,0.36-3.05,0.32-5.22-1.53c-0.85,3.12-2.72,5.23-5.23,5.79
										c-2.55,0.56-5.23-0.62-7.43-3.23c-0.89,2.41-2.6,4-4.79,4.31C1017.04,1115.13,1016.81,1115.15,1016.56,1115.15z
										 M1010.17,1107.28c0.43,0,0.82,0.26,0.99,0.66c1.72,4.06,4.13,5.26,5.82,5.01c1.84-0.26,3.19-2.12,3.53-4.84
										c0.06-0.46,0.39-0.83,0.84-0.93c0.44-0.1,0.91,0.1,1.14,0.49c1.9,3.14,4.35,4.72,6.55,4.23c2.07-0.47,3.59-2.77,3.96-6.02
										c0.05-0.43,0.34-0.79,0.75-0.92c0.41-0.12,0.85,0,1.13,0.33c1.14,1.36,2.85,2.87,4.46,2.38c1.97-0.59,3.69-3.91,4.52-8.61
										c-2.42,0.38-5.01,0.88-7.73,1.4c-6.07,1.17-12.95,2.49-20.24,2.98c-7.32,0.51-14.35,0.11-20.56-0.22
										c-2.58-0.14-5.04-0.28-7.34-0.34c0.46,1.98,0.89,3.26,2.09,4.57c1.08,1.18,2.71,2.55,4.24,2.31
										c1.24-0.18,2.41-1.36,3.46-3.5c0.2-0.41,0.61-0.65,1.08-0.6c0.45,0.05,0.82,0.38,0.93,0.82c0.87,3.52,2.94,6.16,4.91,6.28
										c1.65,0.09,3.25-1.6,4.47-4.79c0.16-0.41,0.55-0.69,0.98-0.69C1010.15,1107.28,1010.16,1107.28,1010.17,1107.28z"/>
								</g>
							</g>
						</g>
					</g>
					<g>
						<g>
							<g>
								<g>
									<g>
										
											<ellipse transform="matrix(0.9992 -0.0397 0.0397 0.9992 -38.3392 36.4176)" class="st13" cx="897.81" cy="983.58" rx="49.36" ry="77.91"/>
									</g>
								</g>
								<g>
									<g>
										<path class="st6" d="M899.62,1063.62c-13.42,0-26.24-7.88-36.23-22.32c-10.14-14.65-16.19-34.41-17.04-55.61
											c-1.78-44.12,19.86-80.96,48.24-82.13c13.91-0.47,27.3,7.35,37.64,22.29c10.14,14.66,16.19,34.41,17.04,55.61
											c1.78,44.12-19.86,80.97-48.24,82.13C900.56,1063.61,900.09,1063.62,899.62,1063.62z M895.99,907.87
											c-0.41,0-0.82,0.01-1.22,0.03c-26.01,1.07-45.8,35.88-44.12,77.61c0.82,20.39,6.6,39.32,16.27,53.3
											c9.47,13.7,21.52,20.94,33.94,20.44c26.01-1.07,45.8-35.89,44.12-77.62l0,0c-0.82-20.38-6.6-39.31-16.27-53.3
											C919.55,915.1,907.97,907.87,895.99,907.87z"/>
									</g>
								</g>
							</g>
							<g>
								<g>
									<g>
										<path class="st6" d="M945.99,986.44c1.35,33.45-14.06,61.23-34.42,62.07c-19.52,0.8-36.5-23.47-39.04-54.96l26.29-5.17
											l-25.3-18.86c1.77-10.44,5.24-19.67,9.94-26.81c6.06-9.19,14.16-14.92,23.24-15.29
											C927.06,926.59,944.64,953.01,945.99,986.44z"/>
									</g>
								</g>
								<g>
									<g>
										<path class="st6" d="M910.66,1050.69c-20.09,0-37.67-24.73-40.27-56.97c-0.09-1.1,0.66-2.1,1.73-2.31l21.49-4.22
											l-21.36-15.92c-0.65-0.49-0.98-1.31-0.84-2.11c1.79-10.6,5.34-20.16,10.27-27.64c6.66-10.1,15.52-15.87,24.94-16.26
											c21.45-0.92,40.13,26.53,41.53,61.1c0.67,16.57-2.65,32.35-9.34,44.41c-6.88,12.4-16.52,19.47-27.14,19.91
											C911.32,1050.69,910.99,1050.69,910.66,1050.69z M874.84,995.3c2.97,29.5,18.8,51.92,36.64,51.04
											c9.07-0.37,17.44-6.65,23.56-17.69c6.31-11.37,9.43-26.33,8.8-42.11l0,0c-1.3-32.18-17.93-57.84-37.06-56.94
											c-8.01,0.33-15.66,5.42-21.54,14.32c-4.39,6.67-7.62,15.17-9.38,24.66l24.22,18.06c0.69,0.51,1.01,1.39,0.82,2.22
											c-0.19,0.84-0.85,1.49-1.69,1.65L874.84,995.3z"/>
									</g>
								</g>
							</g>
						</g>
					</g>
					<g>
						<g>
							<g>
								<path class="st6" d="M1179.61,892.48c-2.91,4.85-16.54-10.11-36.95-22.59c-20.41-12.48-39.86-17.74-36.95-22.59
									c2.91-4.85,23.46-2.14,44.21,9.74C1178.73,873.54,1182.52,887.63,1179.61,892.48z"/>
							</g>
						</g>
						<g>
							<g>
								<path class="st6" d="M1177.91,895.58c-3.24,0-7.63-3.21-15.76-9.38c-5.63-4.27-12.63-9.59-20.6-14.46
									c-7.97-4.87-15.88-8.67-22.24-11.73c-10.03-4.82-14.89-7.28-15.87-10.57c-0.33-1.12-0.18-2.25,0.43-3.27
									c4.13-6.89,27.02-2.52,47.11,8.98c23.74,13.59,29.68,24.9,31.11,30.43c0.81,3.13,0.58,5.97-0.64,8.01l0,0
									c-0.61,1.02-1.54,1.68-2.67,1.9C1178.5,895.56,1178.21,895.58,1177.91,895.58z M1179.61,892.48h0.04H1179.61z
									 M1112.72,847.14c-2.86,0-4.68,0.49-5.16,1.29c0.51,1.38,7.47,4.72,13.61,7.67c6.44,3.1,14.46,6.95,22.62,11.94
									c8.16,4.99,15.25,10.37,20.96,14.7c5.27,4,11.22,8.52,13.07,8.52c0.01,0,0.02,0,0.03,0c0.3-0.56,0.78-1.97,0.1-4.57
									c-1.01-3.92-5.88-14.47-29.07-27.75C1133.61,850.2,1119.9,847.14,1112.72,847.14z"/>
							</g>
						</g>
					</g>
					<g>
						<g>
							<g>
								<g>
									<g>
										
											<ellipse transform="matrix(0.0767 -0.9971 0.9971 0.0767 52.1653 2023.6906)" class="st13" cx="1118.79" cy="983.68" rx="77.91" ry="49.36"/>
									</g>
								</g>
								<g>
									<g>
										<path class="st6" d="M1115.28,1063.62c-0.91,0-1.81-0.04-2.72-0.11c-13.9-1.1-26.24-10.57-34.74-26.65
											c-8.34-15.77-12.02-36.1-10.38-57.26c1.65-21.15,8.44-40.66,19.12-54.92c10.89-14.54,24.55-21.94,38.45-20.83
											c13.9,1.1,26.24,10.57,34.75,26.65c8.34,15.77,12.02,36.1,10.37,57.26c-1.65,21.15-8.44,40.66-19.12,54.92
											C1140.83,1056.27,1128.23,1063.62,1115.28,1063.62z M1122.31,908.08c-11.58,0-22.98,6.75-32.32,19.22
											c-10.19,13.6-16.68,32.3-18.27,52.64c-1.59,20.34,1.92,39.83,9.88,54.88c7.79,14.73,18.9,23.39,31.29,24.37
											c12.38,0.92,24.7-5.81,34.68-19.13c10.19-13.6,16.68-32.3,18.27-52.64c1.59-20.34-1.92-39.83-9.88-54.88
											c-7.79-14.73-18.9-23.39-31.29-24.37C1123.89,908.11,1123.1,908.08,1122.31,908.08z"/>
									</g>
								</g>
							</g>
							<g>
								<g>
									<g>
										<path class="st6" d="M1071.72,993.22c-1.06,33.46,14.57,61.11,34.94,61.77c19.53,0.63,36.3-23.78,38.58-55.3l-26.33-4.94
											l25.14-19.07c-1.85-10.43-5.41-19.62-10.17-26.72c-6.14-9.14-14.29-14.8-23.37-15.09
											C1090.14,933.2,1072.78,959.77,1071.72,993.22z"/>
									</g>
								</g>
								<g>
									<g>
										<path class="st6" d="M1107.39,1057.16c-0.27,0-0.53,0-0.8-0.01c-21.51-0.7-38.12-29.41-37.02-64l0,0
											c0.53-16.57,4.97-32.05,12.51-43.59c7.75-11.86,17.88-18.14,28.5-17.86c9.42,0.31,18.33,6,25.07,16.04
											c4.99,7.44,8.62,16.96,10.5,27.56c0.14,0.81-0.18,1.62-0.82,2.11l-21.23,16.1l21.52,4.04c1.08,0.2,1.83,1.19,1.75,2.29
											C1145.04,1032.22,1127.55,1057.16,1107.39,1057.16z M1073.86,993.28c-1.02,32.21,13.72,58.91,32.86,59.53
											c17.72,0.78,33.49-21.83,36.21-51.35l-24.42-4.59c-0.84-0.16-1.51-0.8-1.7-1.64c-0.19-0.84,0.12-1.71,0.8-2.23
											l24.07-18.26c-1.83-9.47-5.14-17.95-9.59-24.58c-5.95-8.86-13.64-13.88-21.65-14.14c-9.12-0.36-17.87,5.36-24.77,15.91
											C1078.56,962.83,1074.37,977.51,1073.86,993.28L1073.86,993.28z"/>
									</g>
								</g>
							</g>
						</g>
					</g>
					<g>
						<g>
							<g>
								<path class="st6" d="M1015.3,1150.76c-2.78-6.1-6.58-11.71-11.23-16.5c-0.65-0.67-1.69-0.84-2.43-0.2
									c-0.67,0.58-0.86,1.78-0.2,2.46c4.46,4.6,8.09,9.89,10.75,15.74C1013.11,1154.29,1016.23,1152.81,1015.3,1150.76z"/>
							</g>
						</g>
					</g>
				</g>
				<path class="st10" d="M1016.82,761.58c-5.18,1.75-2.53,10.01,0.37,8.87c8.36-3.27,16.92-3.3,25.39-1.81
					c-3.21,4.2,3.98,3.88,23.51,6.86c2.11,0.32,3.18-1.81,2.31-3.22C1100.02,780.71,1068.2,744.26,1016.82,761.58z"/>
				<g>
					<g>
						<g>
							<path class="st10" d="M797.25,1071.52c26.33-12.9,52.14-30.78,79.41-35.07c27.27-4.29,57.37,7.8,74.37,44.63L797.25,1071.52z
								"/>
						</g>
					</g>
					<g>
						<g>
							<path class="st6" d="M951.02,1083.25c-0.81,0-1.58-0.46-1.95-1.25c-14.75-31.96-41.69-48.21-72.09-43.4
								c-19.6,3.08-38.93,13.59-57.62,23.75c-6.92,3.76-14.08,7.65-21.18,11.13c-1.07,0.53-2.35,0.08-2.87-1.01
								c-0.52-1.08-0.07-2.37,1-2.9c7.02-3.44,14.13-7.31,21.02-11.05c19.01-10.33,38.67-21.02,59-24.21
								c32.38-5.11,61.04,12.04,76.65,45.86c0.5,1.08,0.04,2.38-1.04,2.88C951.63,1083.18,951.32,1083.25,951.02,1083.25z"/>
						</g>
					</g>
				</g>
				<g>
					<g>
						<g>
							<path class="st10" d="M1074.4,1078.28c19.37-19.56,41.01-37.9,65.3-40.14c12.59-1.16,25.18,2.12,37.37,6.49
								c15.63,5.61,30.88,13.04,45.53,22.18L1074.4,1078.28z"/>
						</g>
					</g>
					<g>
						<g>
							<path class="st6" d="M1074.4,1080.45c-0.55,0-1.1-0.21-1.52-0.64c-0.84-0.85-0.84-2.22,0-3.07
								c18.66-18.84,41.17-38.42,66.62-40.76c14-1.3,27.81,2.86,38.28,6.61c15.74,5.64,31.2,13.17,45.94,22.37
								c1.01,0.63,1.32,1.97,0.7,2.99c-0.62,1.02-1.95,1.33-2.96,0.71c-14.48-9.04-29.66-16.43-45.12-21.98
								c-10.05-3.61-23.28-7.59-36.45-6.37c-24.09,2.22-45.86,21.22-63.98,39.51C1075.5,1080.23,1074.95,1080.45,1074.4,1080.45z"/>
						</g>
					</g>
				</g>
				<g>
					<g>
						<g>
							<g>
								<g>
									<g>
										<path class="st8" d="M1551.59,961.35c-16.21-9.95-28.82-25.43-36.46-42.96c-15.41-35.32-16.77-73.03-7-89.01
											c6.04-9.87,23.59-3.34,24.63,9.51c6.35,78.49,71.04,19.13,37.45,0.52c-13.89-7.7-27.7-12.4-42.78-17.35
											c-11.86-3.89-24.45-12.12-14.72-24.71c13.3-17.2,52.56-11.74,81.23,13.85c-12.13-20.28-24.26-40.55-36.39-60.83
											c-5.37-8.97-10.86-20.08-6.06-29.38c4.82-9.36,21.64-13.7,37.73,6.06c-11.07-29.16,5.35-36.88,18.72-30.23
											c9.15,4.55,11.81,16.83,21.01,29.87c-10.55-44.21,24.66-39.93,37.76-9.63c25.93,59.96,38.24,125.62,31.16,190.65
											c-2.72,24.95-12.97,39.21-32.57,56.14C1638.32,987.17,1554.06,968.98,1551.59,961.35z"/>
									</g>
								</g>
								<g>
									<g>
										<path class="st6" d="M1619.98,977.48c-20.69,0-42.11-3.8-54.55-7.33c-11.77-3.34-14.65-5.87-15.51-7.31
											c-15.73-9.83-28.77-25.28-36.75-43.59c-14.84-34.03-17.79-73.16-6.86-91.02c2.91-4.76,8.5-6.82,14.6-5.33
											c6.25,1.52,13.3,7.11,14,15.8c1.83,22.59,9.07,36.25,19.87,37.48c9.61,1.13,19.32-7.84,22.06-16.53
											c1.41-4.49,2.29-12.84-7.65-18.35c-13.41-7.43-26.58-12-42.4-17.19c-6.1-2-16.71-6.57-19.17-14.69
											c-1.3-4.29-0.15-8.81,3.42-13.42c4.64-6,12.22-9.64,21.93-10.55c16.34-1.53,36.23,4.9,53.1,16.73l-30.33-50.7
											c-5.94-9.93-11.32-21.44-6.13-31.51c2.56-4.97,7.71-8.32,13.78-8.96c4.34-0.47,12.22,0.21,21.15,7.98
											c-3.05-13.42,1.03-19.92,4.13-22.77c4.91-4.51,12.86-5.05,20.26-1.36c6.41,3.19,9.85,9.64,13.83,17.11
											c0.73,1.36,1.48,2.78,2.29,4.24c-1.5-17.54,6.34-22.42,10.27-23.75c11.12-3.77,26.11,6.86,33.4,23.72
											c27.28,63.08,38.12,129.39,31.33,191.76c-2.89,26.56-14.4,41.21-33.3,57.55C1656.34,974.46,1638.45,977.48,1619.98,977.48
											z M1553.61,960.58c1.38,1.99,14.67,7.08,36.6,10.3c34.07,5,61.63,1.75,73.71-8.68c18.52-16,29.08-29.46,31.83-54.72
											c6.71-61.62-4.01-127.16-30.99-189.55c-6.97-16.11-20.16-24.03-28.09-21.34c-7.34,2.49-9.44,13.56-5.61,29.6
											c0.24,1.01-0.26,2.05-1.2,2.48c-0.93,0.43-2.04,0.14-2.64-0.72c-3.45-4.89-6-9.68-8.26-13.91
											c-3.78-7.09-6.77-12.69-11.95-15.27c-5.81-2.89-11.87-2.62-15.46,0.68c-4.94,4.55-5.04,14.32-0.3,26.83
											c0.38,0.99-0.01,2.11-0.93,2.65c-0.91,0.52-2.07,0.32-2.74-0.5c-10.17-12.49-19.24-13.52-23.76-13.08
											c-4.63,0.49-8.52,2.97-10.41,6.64c-4.2,8.16,0.67,18.36,6,27.26l36.39,60.83c0.55,0.92,0.35,2.1-0.46,2.79
											c-0.81,0.68-2,0.67-2.8-0.04c-17.6-15.71-40.82-24.79-59.18-23.04c-8.5,0.79-15.04,3.87-18.93,8.9
											c-2.65,3.43-3.56,6.62-2.69,9.48c1.38,4.56,7.35,8.87,16.38,11.83c16.04,5.26,29.41,9.89,43.15,17.51
											c9.1,5.04,12.71,13.81,9.68,23.46c-3.31,10.53-14.78,20.86-26.64,19.54c-7.66-0.88-20.91-7.43-23.67-41.44
											c-0.53-6.54-5.93-10.78-10.72-11.94c-4.29-1.03-8,0.23-9.94,3.39c-8.84,14.45-8.59,50.94,7.14,87
											c7.73,17.72,20.38,32.63,35.61,41.98C1553.12,959.75,1553.44,960.13,1553.61,960.58z"/>
									</g>
								</g>
							</g>
						</g>
						<g>
							<g>
								<g>
									<g>
										<path class="st8" d="M1654.17,959.14c7.06-1.8,14.99-6.14,23.72-8.52c13.09-3.56,19.38,20.96,11.28,29.35
											c-23.35,24.18-66.82,27.18-88.36,27.27c-50.43,0.2-72.32-25.44-75.44-35.16c-2.2-6.89-0.55-15.41,5.35-19.51
											c7.09-4.92,16.69,2.02,24.91,4.6C1558.53,958.08,1629.38,965.47,1654.17,959.14z"/>
									</g>
								</g>
								<g>
									<g>
										<path class="st6" d="M1600.24,1009.41c-49.23,0-73.06-24.66-76.9-36.66c-2.3-7.18-0.92-17.04,6.18-21.96
											c6.23-4.34,13.75-1.08,20.38,1.8c2.24,0.97,4.36,1.89,6.38,2.52c1.13,0.36,1.77,1.57,1.41,2.72
											c-0.35,1.14-1.55,1.79-2.69,1.43c-2.23-0.7-4.55-1.71-6.8-2.68c-6.16-2.67-11.97-5.17-16.26-2.21
											c-5.37,3.72-6.34,11.4-4.53,17.05c3.39,10.58,26.41,33.66,72.83,33.66c0.18,0,0.37,0,0.55,0
											c22.92-0.09,64.67-3.67,86.83-26.61c3.98-4.13,4.03-14.06,0.1-20.83c-1.7-2.93-4.68-6.13-9.28-4.91
											c-4.35,1.18-8.51,2.87-12.53,4.51c-3.93,1.6-7.64,3.11-11.22,4.02c-1.15,0.3-2.32-0.4-2.61-1.57
											c-0.29-1.16,0.41-2.34,1.56-2.63c3.3-0.84,6.88-2.3,10.67-3.84c4.14-1.68,8.42-3.42,13.02-4.67
											c5.54-1.52,10.68,1,14.1,6.9c4.43,7.63,5.2,19.92-0.73,26.06c-23.25,24.08-66.3,27.83-89.89,27.92
											C1600.63,1009.41,1600.43,1009.41,1600.24,1009.41z"/>
									</g>
								</g>
							</g>
						</g>
						<g>
							<g>
								<g>
									<g>
										<path class="st6" d="M1606.53,937.48c0.02,0,0.04,0,0.06,0c1.49-0.03,2.68-1.28,2.65-2.79
											c-0.79-38.63,11.05-60.99,39.59-74.79c1.35-0.65,1.92-2.28,1.27-3.64c-0.64-1.36-2.26-1.93-3.61-1.28
											c-30.74,14.86-43.5,38.74-42.66,79.83C1603.85,936.29,1605.06,937.48,1606.53,937.48z"/>
									</g>
								</g>
							</g>
						</g>
						<g>
							<g>
								<g>
									<g>
										<path class="st6" d="M1585.91,826.76c1.19,0,2.28-0.8,2.61-2.01c1.41-5.23,6.18-9.58,14.58-13.31
											c23.02-10.21,50.64-10.55,73.89-0.91c1.38,0.57,2.96-0.09,3.53-1.49c0.57-1.39-0.09-2.99-1.47-3.56
											c-24.58-10.19-53.78-9.83-78.11,0.96c-9.98,4.43-15.74,9.94-17.62,16.87c-0.39,1.45,0.45,2.95,1.9,3.35
											C1585.43,826.73,1585.67,826.76,1585.91,826.76z"/>
									</g>
								</g>
							</g>
						</g>
						<g>
							<g>
								<g>
									<g>
										<path class="st6" d="M1623.22,803.78c0.36,0,0.73-0.07,1.08-0.23c1.37-0.6,1.99-2.21,1.39-3.59
											c-10.2-23.59-14.35-32.26-21.23-46.62c-3.46-7.22-7.63-15.92-13.62-28.72c-0.64-1.36-2.24-1.95-3.6-1.3
											c-1.35,0.64-1.92,2.27-1.29,3.63c6.01,12.82,10.18,21.54,13.64,28.76c6.85,14.3,10.99,22.94,21.15,46.43
											C1621.18,803.17,1622.17,803.78,1623.22,803.78z"/>
									</g>
								</g>
							</g>
						</g>
						<g>
							<g>
								<g>
									<g>
										<path class="st6" d="M1654.07,804.46c0.25,0,0.5-0.04,0.75-0.11c1.43-0.42,2.26-1.94,1.84-3.38
											c-7.41-25.73-14.69-48.73-26.11-77.34c-0.56-1.4-2.13-2.07-3.52-1.51c-1.38,0.56-2.05,2.15-1.5,3.55
											c11.34,28.4,18.57,51.25,25.94,76.82C1651.82,803.68,1652.9,804.46,1654.07,804.46z"/>
									</g>
								</g>
							</g>
						</g>
					</g>
					<g>
						<g>
							<g>
								<path class="st8" d="M1584.26,962.43c7.09,1.85,14.52,2.37,21.79,1.55L1584.26,962.43z"/>
							</g>
						</g>
						<g>
							<g>
								<path class="st6" d="M1599.31,966.54c-5.25,0-10.46-0.67-15.59-2c-1.15-0.3-1.84-1.48-1.55-2.64
									c0.3-1.16,1.49-1.86,2.62-1.56c6.89,1.79,13.96,2.29,21.02,1.5c1.2-0.11,2.24,0.72,2.38,1.92c0.13,1.19-0.72,2.26-1.9,2.4
									C1603.97,966.4,1601.64,966.54,1599.31,966.54z"/>
							</g>
						</g>
					</g>
				</g>
				<g>
					<g>
						<g>
							<path class="st6" d="M945.89,788.85c-3.32,0-5.67-0.74-7.51-2.1c-4.99-3.71-4.69-11.4-3.65-22.71
								c0.11-1.2,1.15-2.03,2.34-1.96c1.18,0.11,2.05,1.17,1.94,2.36c-0.87,9.53-1.24,16.46,1.92,18.81
								c5.89,4.38,27.3-3.28,64.73-18.97c39.65-16.61,65.47-5.5,86.21,3.42c16.46,7.08,29.47,12.67,44.39,2.74
								c0.99-0.67,2.32-0.39,2.98,0.61c0.65,1,0.38,2.35-0.61,3c-16.85,11.22-31.49,4.92-48.44-2.37
								c-21.05-9.06-44.9-19.32-82.88-3.41C972.49,782.88,955.32,788.84,945.89,788.85z"/>
						</g>
					</g>
				</g>
			</g>
			<g>
				<g>
					<g>
						<path class="st13" d="M873.53,765.09c-10.93,6.52-21.24,13.29-29.29,23.38c-8.46,10.61-16.13,21.95-23.54,33.32
							c-1.52,2.34,2.19,4.52,3.71,2.19c7.21-11.06,14.64-22.13,22.87-32.44c7.83-9.81,17.79-16.36,28.42-22.7
							C878.08,767.42,875.92,763.66,873.53,765.09z"/>
					</g>
				</g>
			</g>
			<g>
				<g>
					<g>
						<path class="st13" d="M882.48,761.06c-2.77,0-2.77,4.34,0,4.34C885.25,765.4,885.25,761.06,882.48,761.06z"/>
					</g>
				</g>
			</g>
			<g>
				<g>
					<g>
						<path class="st13" d="M816.19,832.03c-2.77,0-2.77,4.34,0,4.34C818.96,836.37,818.96,832.03,816.19,832.03z"/>
					</g>
				</g>
			</g>
			<g>
				<g>
					<g>
						<path class="st13" d="M809.21,844.11c-2.77,0-2.77,4.34,0,4.34C811.98,848.45,811.98,844.11,809.21,844.11z"/>
					</g>
				</g>
			</g>
			<g>
				<g>
					<g>
						<path class="st13" d="M1300.16,1169.23c-7.05-12.54-14.1-25.08-21.15-37.62c-1.37-2.43-5.08-0.24-3.71,2.19
							c7.05,12.54,14.1,25.08,21.15,37.62C1297.82,1173.85,1301.53,1171.67,1300.16,1169.23z"/>
					</g>
				</g>
			</g>
			<g>
				<g>
					<g>
						<path class="st13" d="M1305.14,1180.83c-2.76,0-2.77,4.34,0,4.34C1307.9,1185.16,1307.91,1180.83,1305.14,1180.83z"/>
					</g>
				</g>
			</g>
			<g>
				<g>
					<g>
						<path class="st13" d="M1369.74,1284.84c-15.35-29.27-32.05-57.8-50.04-85.49c-1.51-2.33-5.23-0.15-3.71,2.19
							c17.99,27.69,34.69,56.22,50.04,85.49C1367.32,1289.5,1371.03,1287.31,1369.74,1284.84z"/>
					</g>
				</g>
			</g>
			<g>
				<g>
					<g>
						<path class="st13" d="M1373.92,1298.1c-2.77,0-2.77,4.34,0,4.34C1376.69,1302.44,1376.69,1298.1,1373.92,1298.1z"/>
					</g>
				</g>
			</g>
			<g>
				<g>
					<g>
						<path class="st13" d="M1380.4,1311.69c-2.77,0-2.77,4.34,0,4.34C1383.17,1316.03,1383.17,1311.69,1380.4,1311.69z"/>
					</g>
				</g>
			</g>
			<g>
				<g>
					<g>
						<path class="st13" d="M623.84,1733c-33.55-29.37-52.51-71.02-66.51-112.7c-4.23-12.6-8.09-25.31-11.95-38.03
							c-0.81-2.66-4.96-1.53-4.14,1.15c13.35,43.98,27.18,89.19,55.19,126.24c7.25,9.59,15.34,18.49,24.37,26.4
							C622.88,1737.89,625.93,1734.84,623.84,1733z"/>
					</g>
				</g>
			</g>
			<g>
				<g>
					<g>
						<path class="st13" d="M631.24,1740.9c-2.77,0-2.77,4.34,0,4.34C634,1745.24,634.01,1740.9,631.24,1740.9z"/>
					</g>
				</g>
			</g>
			<g>
				<g>
					<g>
						<path class="st13" d="M640.93,1750.69c-2.77,0-2.77,4.34,0,4.34C643.7,1755.03,643.7,1750.69,640.93,1750.69z"/>
					</g>
				</g>
			</g>
		</g>
		<g class="st5">
			<g>
				<g>
					<path class="st12" d="M286.17,1575.04c0,0-29.48-37.09-52.91-15.99c-53.39,48.08,60.62,119.4,60.62,119.4
						s89.37-68.6,62.26-112.61C329.75,1522.98,286.17,1575.04,286.17,1575.04z"/>
					<path class="st6" d="M294.06,1682.16l-1.77-1.11c-2.96-1.84-72.39-45.75-76.13-89.15c-1.14-13.27,3.93-25.09,15.09-35.13
						c5.99-5.4,12.87-7.81,20.42-7.17c15.34,1.29,29.2,14.89,34.55,20.82c6.66-7.14,26.3-25.92,46.19-24.48
						c10.46,0.77,19.32,6.93,26.32,18.29c28.24,45.84-59.26,113.79-63,116.66L294.06,1682.16z M249.3,1555.62
						c-5.16,0-9.76,1.88-14.02,5.72c-9.78,8.81-14.06,18.63-13.08,30.02c3.16,36.69,60.6,76.15,71.51,83.33
						c11.93-9.6,83.23-69.3,59.86-107.24c-5.92-9.61-13.19-14.79-21.6-15.41c-20.95-1.66-43.25,24.7-43.47,24.97l-2.38,2.84
						l-2.31-2.9c-0.16-0.2-16.01-19.87-32.66-21.26C250.52,1555.64,249.91,1555.62,249.3,1555.62z"/>
				</g>
			</g>
		</g>
		<g class="st5">
			<g>
				<g>
					<path class="st12" d="M1702.12,1534.17c0,0-29.48-37.09-52.91-15.99c-53.39,48.08,60.62,119.4,60.62,119.4
						s89.37-68.6,62.26-112.61C1745.7,1482.12,1702.12,1534.17,1702.12,1534.17z"/>
					<path class="st6" d="M1710.01,1641.3l-1.77-1.11c-2.96-1.84-72.39-45.75-76.13-89.15c-1.14-13.27,3.93-25.09,15.09-35.13
						c5.99-5.4,12.87-7.81,20.42-7.17c15.34,1.29,29.2,14.89,34.55,20.82c6.66-7.14,26.3-25.92,46.19-24.48
						c10.46,0.77,19.32,6.93,26.32,18.29c28.24,45.84-59.26,113.79-63,116.66L1710.01,1641.3z M1665.25,1514.76
						c-5.16,0-9.76,1.88-14.02,5.72c-9.78,8.81-14.06,18.63-13.08,30.02c3.16,36.69,60.6,76.15,71.51,83.33
						c11.93-9.6,83.23-69.3,59.86-107.24c-5.92-9.61-13.19-14.79-21.6-15.41c-20.95-1.66-43.25,24.7-43.47,24.97l-2.38,2.84
						l-2.31-2.9c-0.16-0.2-16.01-19.87-32.66-21.26C1666.47,1514.78,1665.86,1514.76,1665.25,1514.76z"/>
				</g>
			</g>
		</g>
		<g class="st5">
			<g>
				<g>
					<path class="st12" d="M682.21,234.38c0,0-29.48-37.09-52.91-15.99c-53.39,48.08,60.62,119.4,60.62,119.4
						s89.37-68.6,62.26-112.61C725.78,182.33,682.21,234.38,682.21,234.38z"/>
					<path class="st6" d="M690.09,341.5l-1.77-1.11c-2.96-1.84-72.39-45.75-76.13-89.15c-1.14-13.27,3.93-25.09,15.09-35.13
						c5.99-5.4,12.87-7.81,20.42-7.17c15.34,1.29,29.2,14.89,34.55,20.82c6.66-7.14,26.3-25.92,46.19-24.48
						c10.46,0.77,19.32,6.93,26.32,18.29c28.24,45.84-59.26,113.79-63,116.66L690.09,341.5z M645.34,214.96
						c-5.16,0-9.76,1.88-14.02,5.72c-9.78,8.81-14.06,18.63-13.08,30.02c3.16,36.69,60.6,76.15,71.51,83.33
						c11.93-9.6,83.23-69.3,59.86-107.24c-5.92-9.61-13.19-14.79-21.6-15.41c-20.95-1.66-43.25,24.7-43.47,24.97l-2.38,2.84
						l-2.31-2.9c-0.16-0.2-16.01-19.87-32.66-21.26C646.56,214.99,645.94,214.96,645.34,214.96z"/>
				</g>
			</g>
		</g>
		<g class="st5">
			<g>
				<g>
					<path class="st12" d="M1461.32,358.68c-36.99,7.17-42.74,12.98-49.84,50.33c-7.1-37.35-12.85-43.16-49.84-50.33
						c36.99-7.17,42.74-12.98,49.84-50.33C1418.58,345.71,1424.33,351.52,1461.32,358.68z"/>
				</g>
				<g>
					<path class="st6" d="M1411.48,421l-2.2-11.57c-6.94-36.53-11.89-41.52-48.07-48.53l-11.45-2.22l11.46-2.22
						c36.18-7.01,41.12-12,48.06-48.53l2.2-11.57l2.2,11.57c6.94,36.53,11.88,41.52,48.06,48.53l11.46,2.22l-11.46,2.22
						c-36.18,7.01-41.12,12-48.06,48.53L1411.48,421z M1372.58,358.68c25.58,5.99,32.96,13.45,38.9,39.28
						c5.93-25.83,13.31-33.29,38.9-39.28c-25.59-5.99-32.96-13.44-38.9-39.28C1405.54,345.24,1398.17,352.69,1372.58,358.68z"/>
				</g>
			</g>
			<g>
				<g>
					<path class="st12" d="M1658.94,159.21c-36.99,7.17-42.74,12.98-49.84,50.33c-7.1-37.35-12.85-43.16-49.84-50.33
						c36.99-7.17,42.74-12.98,49.84-50.33C1616.2,146.23,1621.95,152.04,1658.94,159.21z"/>
				</g>
				<g>
					<path class="st6" d="M1609.1,221.53l-2.2-11.57c-6.94-36.53-11.89-41.52-48.06-48.53l-11.45-2.22l11.46-2.22
						c36.17-7.01,41.12-12,48.06-48.53l2.2-11.56l2.2,11.56c6.94,36.53,11.89,41.52,48.06,48.53l11.46,2.22l-11.45,2.22
						c-36.18,7.01-41.12,12-48.06,48.53L1609.1,221.53z M1570.21,159.21c25.58,5.99,32.96,13.45,38.9,39.28
						c5.94-25.83,13.31-33.29,38.9-39.28c-25.58-5.99-32.96-13.44-38.9-39.28C1603.17,145.77,1595.79,153.22,1570.21,159.21z"/>
				</g>
			</g>
			<g>
				<g>
					<path class="st13" d="M1429.41,593.8c-30.37,5.89-35.1,52.92-40.92,83.59c-5.83-30.67-10.55-77.7-40.92-83.59
						c30.37-5.89,35.1-48.88,40.92-79.55C1394.32,544.92,1399.04,587.91,1429.41,593.8z"/>
				</g>
			</g>
			<g>
				<g>
					<path class="st13" d="M487.65,1811.65c-30.37,5.89-35.1,52.92-40.92,83.59c-5.83-30.67-10.55-77.7-40.92-83.59
						c30.37-5.89,35.1-48.88,40.92-79.55C452.55,1762.77,457.27,1805.76,487.65,1811.65z"/>
				</g>
			</g>
			<g>
				<g>
					<path class="st14" d="M1726.72,388.73c-36.99,7.17-42.74,12.98-49.84,50.33c-7.1-37.35-12.85-43.16-49.84-50.33
						c36.99-7.17,42.74-12.98,49.84-50.33C1683.98,375.76,1689.73,381.57,1726.72,388.73z"/>
				</g>
				<g>
					<path class="st6" d="M1676.88,451.05l-2.2-11.57c-6.94-36.53-11.89-41.52-48.06-48.53l-11.45-2.22l11.46-2.22
						c36.17-7.01,41.12-12,48.06-48.53l2.2-11.56l2.2,11.56c6.94,36.53,11.89,41.52,48.06,48.53l11.46,2.22l-11.45,2.22
						c-36.18,7.01-41.12,12-48.06,48.53L1676.88,451.05z M1637.98,388.73c25.58,5.99,32.96,13.45,38.9,39.28
						c5.94-25.83,13.31-33.29,38.9-39.28c-25.58-5.99-32.96-13.44-38.9-39.28C1670.94,375.29,1663.56,382.74,1637.98,388.73z"/>
				</g>
			</g>
		</g>
		<g class="st5">
			<g>
				<g>
					<path class="st12" d="M236.66,535.14c-36.99,7.17-42.74,12.98-49.84,50.33c-7.1-37.35-12.85-43.16-49.84-50.33
						c36.99-7.17,42.74-12.98,49.84-50.33C193.92,522.16,199.68,527.97,236.66,535.14z"/>
				</g>
				<g>
					<path class="st6" d="M186.83,597.46l-2.2-11.57c-6.94-36.53-11.89-41.52-48.07-48.53l-11.45-2.22l11.46-2.22
						c36.18-7.01,41.12-12,48.06-48.53l2.2-11.57l2.2,11.57c6.94,36.53,11.88,41.52,48.06,48.53l11.46,2.22l-11.46,2.22
						c-36.18,7.01-41.12,12-48.06,48.53L186.83,597.46z M147.93,535.14c25.58,5.99,32.96,13.45,38.9,39.28
						c5.93-25.83,13.31-33.29,38.9-39.28c-25.58-5.99-32.96-13.44-38.9-39.28C180.89,521.69,173.51,529.14,147.93,535.14z"/>
				</g>
			</g>
			<g>
				<g>
					<path class="st12" d="M325.4,273.35c-36.99,7.17-42.74,12.98-49.84,50.33c-7.1-37.35-12.85-43.16-49.84-50.33
						c36.99-7.17,42.74-12.98,49.84-50.33C282.66,260.37,288.41,266.18,325.4,273.35z"/>
				</g>
				<g>
					<path class="st6" d="M275.56,335.67l-2.2-11.57c-6.94-36.53-11.89-41.52-48.06-48.53l-11.45-2.22l11.46-2.22
						c36.17-7.01,41.12-12,48.06-48.53l2.2-11.56l2.2,11.56c6.94,36.53,11.89,41.52,48.06,48.53l11.46,2.22l-11.45,2.22
						c-36.18,7.01-41.12,12-48.06,48.53L275.56,335.67z M236.66,273.35c25.58,5.99,32.96,13.45,38.9,39.28
						c5.94-25.83,13.31-33.29,38.9-39.28c-25.58-5.99-32.96-13.44-38.9-39.28C269.62,259.91,262.24,267.35,236.66,273.35z"/>
				</g>
			</g>
			<g>
				<g>
					<path class="st13" d="M204.76,770.25c-30.37,5.89-35.1,52.92-40.92,83.59c-5.83-30.67-10.55-77.7-40.92-83.59
						c30.37-5.89,35.1-48.88,40.92-79.55C169.66,721.38,174.39,764.37,204.76,770.25z"/>
				</g>
			</g>
			<g>
				<g>
					<path class="st13" d="M504.92,395.94c-30.37,5.89-35.1,52.92-40.92,83.59c-5.83-30.67-10.55-77.7-40.92-83.59
						c30.37-5.89,35.1-48.88,40.92-79.55C469.82,347.07,474.55,390.06,504.92,395.94z"/>
				</g>
			</g>
			<g>
				<g>
					<path class="st13" d="M1837.97,1258.66c-30.37,5.89-35.1,52.92-40.92,83.59c-5.83-30.67-10.55-77.7-40.92-83.59
						c30.37-5.89,35.1-48.88,40.92-79.55C1802.88,1209.78,1807.6,1252.77,1837.97,1258.66z"/>
				</g>
			</g>
			<g>
				<g>
					<path class="st14" d="M224.79,1198.36c-36.99,7.17-42.74,12.98-49.84,50.33c-7.1-37.35-12.85-43.16-49.84-50.33
						c36.99-7.17,42.74-12.98,49.84-50.33C182.05,1185.38,187.8,1191.19,224.79,1198.36z"/>
				</g>
				<g>
					<path class="st6" d="M174.95,1260.68l-2.2-11.57c-6.94-36.53-11.89-41.52-48.06-48.53l-11.45-2.22l11.46-2.22
						c36.17-7.01,41.12-12,48.06-48.53l2.2-11.56l2.2,11.56c6.94,36.53,11.89,41.52,48.06,48.53l11.46,2.22l-11.45,2.22
						c-36.18,7.01-41.12,12-48.06,48.53L174.95,1260.68z M136.06,1198.36c25.58,5.99,32.96,13.45,38.9,39.28
						c5.94-25.83,13.31-33.29,38.9-39.28c-25.58-5.99-32.96-13.44-38.9-39.28C169.01,1184.91,161.64,1192.36,136.06,1198.36z"/>
				</g>
			</g>
		</g>
		<g class="st5">
			<g>
				<g>
					<path class="st12" d="M1325,2570.13c4.17,37.8,9.46,44.05,45.77,54.12c-37.43,4.21-43.62,9.55-53.6,46.22
						c-4.17-37.8-9.46-44.05-45.77-54.12C1308.83,2612.14,1315.02,2606.8,1325,2570.13z"/>
				</g>
				<g>
					<path class="st6" d="M1382.61,2625.19l-11.59,1.31c-36.61,4.12-41.92,8.71-51.69,44.58l-3.09,11.36l-1.29-11.71
						c-4.08-36.97-8.62-42.34-44.14-52.19l-11.25-3.12l11.59-1.31c36.61-4.12,41.92-8.7,51.68-44.57l3.09-11.36l1.29,11.71
						c4.08,36.97,8.62,42.34,44.14,52.19L1382.61,2625.19z M1318.03,2659.46c7.93-25.29,15.86-32.13,41.83-36.08
						c-25.04-8-31.81-16.01-35.72-42.24c-7.92,25.29-15.86,32.13-41.83,36.07C1307.34,2625.22,1314.12,2633.23,1318.03,2659.46z"/>
				</g>
			</g>
			<g>
				<g>
					<path class="st12" d="M1862.48,1750.16c4.17,37.8,9.46,44.05,45.77,54.12c-37.43,4.21-43.62,9.55-53.6,46.22
						c-4.17-37.8-9.46-44.05-45.77-54.12C1846.32,1792.17,1852.51,1786.84,1862.48,1750.16z"/>
				</g>
				<g>
					<path class="st6" d="M1920.1,1805.23l-11.59,1.31c-36.61,4.12-41.92,8.71-51.69,44.58l-3.09,11.36l-1.29-11.71
						c-4.08-36.97-8.62-42.34-44.14-52.19l-11.25-3.12l11.59-1.31c36.61-4.12,41.92-8.7,51.68-44.57l3.09-11.36l1.29,11.71
						c4.08,36.97,8.62,42.34,44.14,52.19L1920.1,1805.23z M1855.52,1839.49c7.93-25.29,15.86-32.13,41.83-36.08
						c-25.04-8-31.81-16.01-35.72-42.24c-7.92,25.29-15.86,32.13-41.83,36.07C1844.83,1805.25,1851.61,1813.27,1855.52,1839.49z"/>
				</g>
			</g>
			<g>
				<g>
					<path class="st12" d="M1143.59,2355.52c4.17,37.8,9.46,44.05,45.77,54.12c-37.43,4.21-43.62,9.55-53.6,46.22
						c-4.17-37.8-9.46-44.05-45.77-54.12C1127.42,2397.53,1133.61,2392.19,1143.59,2355.52z"/>
				</g>
				<g>
					<path class="st6" d="M1201.2,2410.59l-11.59,1.31c-36.61,4.12-41.92,8.71-51.69,44.57l-3.09,11.35l-1.29-11.71
						c-4.08-36.96-8.62-42.33-44.14-52.19l-11.24-3.12l11.59-1.31c36.61-4.12,41.92-8.71,51.68-44.57l3.09-11.36l1.29,11.7
						c4.08,36.97,8.62,42.34,44.14,52.19L1201.2,2410.59z M1136.62,2444.85c7.93-25.28,15.86-32.12,41.83-36.07
						c-25.04-8-31.82-16.02-35.73-42.24c-7.92,25.28-15.86,32.12-41.83,36.07C1125.94,2410.61,1132.71,2418.63,1136.62,2444.85z"/>
				</g>
			</g>
			<g>
				<g>
					<path class="st13" d="M1554.6,2620.71c3.43,31.04,49.48,39.49,79.3,47.76c-30.74,3.46-77.54,4.52-85.73,34.64
						c-3.43-31.04-45.5-39.17-75.32-47.44C1503.6,2652.2,1546.41,2650.82,1554.6,2620.71z"/>
				</g>
			</g>
			<g>
				<g>
					<path class="st14" d="M1629.19,2375.97c4.17,37.8,9.46,44.05,45.77,54.12c-37.43,4.21-43.62,9.55-53.6,46.22
						c-4.17-37.8-9.46-44.05-45.77-54.12C1613.02,2417.98,1619.21,2412.64,1629.19,2375.97z"/>
				</g>
				<g>
					<path class="st6" d="M1686.8,2431.03l-11.59,1.31c-36.61,4.12-41.92,8.71-51.69,44.57l-3.09,11.36l-1.29-11.71
						c-4.08-36.96-8.62-42.33-44.14-52.19l-11.24-3.12l11.59-1.31c36.61-4.12,41.92-8.71,51.68-44.57l3.09-11.36l1.29,11.7
						c4.08,36.97,8.62,42.34,44.14,52.19L1686.8,2431.03z M1622.22,2465.3c7.93-25.28,15.86-32.12,41.83-36.07
						c-25.04-8-31.82-16.02-35.73-42.24c-7.92,25.28-15.86,32.12-41.83,36.07C1611.54,2431.06,1618.31,2439.07,1622.22,2465.3z"/>
				</g>
			</g>
		</g>
		<g class="st5">
			<g>
				<g>
					<path class="st12" d="M301.4,2292.76c-36.99,7.17-42.74,12.98-49.84,50.33c-7.1-37.35-12.85-43.16-49.84-50.33
						c36.99-7.17,42.74-12.98,49.84-50.33C258.66,2279.78,264.41,2285.59,301.4,2292.76z"/>
				</g>
				<g>
					<path class="st6" d="M251.56,2355.08l-2.2-11.57c-6.94-36.53-11.89-41.52-48.07-48.53l-11.45-2.22l11.46-2.22
						c36.18-7.01,41.12-12,48.06-48.53l2.2-11.57l2.2,11.57c6.94,36.53,11.88,41.52,48.06,48.53l11.46,2.22l-11.46,2.22
						c-36.18,7.01-41.12,12-48.06,48.53L251.56,2355.08z M212.66,2292.76c25.59,5.99,32.96,13.45,38.9,39.28
						c5.93-25.83,13.31-33.29,38.9-39.28c-25.58-5.99-32.96-13.44-38.9-39.28C245.62,2279.31,238.25,2286.76,212.66,2292.76z"/>
				</g>
			</g>
			<g>
				<g>
					<path class="st12" d="M499.02,2093.28c-36.99,7.17-42.74,12.98-49.84,50.33c-7.1-37.35-12.85-43.16-49.84-50.33
						c36.99-7.17,42.74-12.98,49.84-50.33C456.28,2080.31,462.03,2086.12,499.02,2093.28z"/>
				</g>
				<g>
					<path class="st6" d="M449.18,2155.6l-2.2-11.57c-6.94-36.53-11.89-41.52-48.06-48.53l-11.45-2.22l11.46-2.22
						c36.17-7.01,41.12-12,48.06-48.53l2.2-11.56l2.2,11.56c6.94,36.53,11.89,41.52,48.06,48.53l11.46,2.22l-11.45,2.22
						c-36.18,7.01-41.12,12-48.06,48.53L449.18,2155.6z M410.29,2093.28c25.58,5.99,32.96,13.45,38.9,39.28
						c5.94-25.83,13.31-33.29,38.9-39.28c-25.58-5.99-32.96-13.44-38.9-39.28C443.25,2079.84,435.87,2087.29,410.29,2093.28z"/>
				</g>
			</g>
			<g>
				<g>
					<path class="st13" d="M269.49,2527.87c-30.37,5.89-35.1,52.92-40.92,83.59c-5.83-30.67-10.55-77.7-40.92-83.59
						c30.37-5.89,35.1-48.88,40.92-79.55C234.39,2479,239.12,2521.99,269.49,2527.87z"/>
				</g>
			</g>
			<g>
				<g>
					<path class="st14" d="M516.96,2583.75c-36.99,7.17-42.74,12.98-49.84,50.33c-7.1-37.35-12.85-43.16-49.84-50.33
						c36.99-7.17,42.74-12.98,49.84-50.33C474.22,2570.77,479.97,2576.58,516.96,2583.75z"/>
				</g>
				<g>
					<path class="st6" d="M467.12,2646.07l-2.2-11.57c-6.94-36.53-11.89-41.52-48.06-48.53l-11.45-2.22l11.46-2.22
						c36.17-7.01,41.12-12,48.06-48.53l2.2-11.56l2.2,11.56c6.94,36.53,11.89,41.52,48.06,48.53l11.46,2.22l-11.45,2.22
						c-36.18,7.01-41.12,12-48.06,48.53L467.12,2646.07z M428.22,2583.75c25.58,5.99,32.96,13.45,38.9,39.28
						c5.94-25.83,13.31-33.29,38.9-39.28c-25.58-5.99-32.96-13.44-38.9-39.28C461.18,2570.3,453.81,2577.75,428.22,2583.75z"/>
				</g>
			</g>
		</g>
	</g>
</g>
</svg>
