<?xml version="1.0" encoding="UTF-8"?>
<svg id="Calque_2" data-name="Calque 2" xmlns="http://www.w3.org/2000/svg" xmlns:xlink="http://www.w3.org/1999/xlink" viewBox="0 0 722.21 431.53">
  <defs>
    <style>
      .cls-1 {
        fill: #692d1a;
      }

      .cls-2, .cls-3 {
        fill: none;
      }

      .cls-3 {
        clip-path: url(#clippath);
      }
    </style>
    <clipPath id="clippath">
      <rect class="cls-2" width="722.21" height="431.53"/>
    </clipPath>
  </defs>
  <g id="Calque_1-2" data-name="Calque 1">
    <g class="cls-3">
      <path class="cls-1" d="m654.79,131.27c15.85-.24,31.7-.36,47.67-.72,4.47-.12,8.83-.48,13.31-.73.6,0,1.21.13,1.33.85.12.6,0,1.21-.6,1.45-1.45.84-3.03,1.81-4.48,2.66-18.27,9.8-37.26,18.15-55.89,27.09-12.95,6.17-25.65,12.58-38.11,19.84-6.9,3.99-13.31,8.59-19.35,13.79-2.66,2.3-5.08,4.71-7.14,7.5-5.08,6.65-6.17,14.03-3.63,21.9,1.21,3.87,3.15,7.5,5.56,10.77,4.6,6.53,9.8,12.46,15.36,18.15,15.12,15.36,31.57,29.15,49.23,41.37,12.1,8.35,24.44,16.33,36.66,24.56,1.45.97,3.15,1.7,3.99,3.27.12.24.24.84,0,1.09-.36.48-.85,1.09-1.21.96-1.45-.24-3.02-.6-4.47-1.09-8.23-2.66-16.57-5.2-24.8-8.1-14.88-5.2-30.24-8.22-45.6-11.13-15.12-2.78-30.24-4.35-45.61-4.23-2.3,0-4.59.13-6.9.48-3.14.48-4.35,1.69-4.84,4.84-.48,3.27-.36,6.54.48,9.8.73,3.27,1.94,6.29,3.39,9.31,3.75,7.62,8.1,15,12.94,22.02,5.69,8.23,11.37,16.57,16.94,24.92.6.97,1.33,1.94.84,3.15-.36.85-1.93.72-3.63-.24-6.53-3.88-13.06-7.63-19.35-11.61-5.2-3.27-10.77-3.99-16.69-3.63-4.11.24-6.78,2.42-8.35,6.17-.48,1.21-.84,2.54-1.09,3.87-.72,6.9-.97,13.91,1.21,20.69,1.94,6.29,3.75,12.58,5.69,18.87.36,1.09.6,2.3.6,3.39,0,.97-.72,1.45-1.57,1.21-1.57-.61-3.27-1.33-4.72-2.06-5.56-2.78-11.01-5.69-16.57-8.47-9.56-4.72-19.47-8.59-29.64-11.85-18.99-5.93-37.98-11.98-57.1-17.79-13.19-3.99-26.61-6.9-40.29-8.1-4.84-.48-9.68,0-14.52.6-1.94.24-3.75.97-5.44,1.94-3.51,1.94-5.57,4.84-5.57,8.83-.12,6.78-.12,13.55.48,20.33.73,8.1,1.21,16.21,1.82,24.31.12,1.94.24,3.87.24,5.81,0,2.42-.6,3.63-1.81,3.87-1.82.36-2.78-1.09-3.75-2.3-16.82-22.38-36.9-41.61-58.55-59.28-2.06-1.69-4.35-3.27-6.53-4.84-3.03-2.18-6.17-3.99-9.56-5.57-9.56-4.59-19.35-4.72-29.28-1.21-4.72,1.69-9.19,3.99-13.43,6.78-22.02,14.28-40.89,31.81-55.29,53.95-1.33,2.06-2.78,4.11-4.35,6.17-.6.85-2.06.48-2.3-.48-.36-1.7-.73-3.39-.85-5.08-.84-8.47-1.57-16.94-2.66-25.41-1.57-12.7-3.75-25.28-7.98-37.38-1.45-3.99-3.15-7.86-4.84-11.73-1.57-3.39-3.63-6.41-5.93-9.31-7.26-9.19-16.82-14.03-28.55-14.4-12.7-.48-25.04.97-37.38,4.35-9.56,2.54-18.75,6.05-28.18,9.07-2.79.85-5.45,1.81-8.23,2.66-1.33.36-2.66.6-3.99.24-1.33-.36-2.18-2.18-1.33-3.27.6-.72,1.33-1.45,2.18-1.81,1.57-.85,3.15-1.45,4.72-2.18,10.28-4.47,20.32-9.44,30.24-14.76,4.11-2.18,8.1-4.59,11.85-7.38,1.81-1.45,3.63-2.9,4.72-5.08,1.21-2.3.97-4.48-.73-6.41-1.45-1.57-3.27-2.66-5.2-3.63-4.72-2.42-9.56-4.11-14.64-5.69-17.3-5.56-35.08-9.68-52.74-13.67-10.52-2.42-21.05-4.96-31.57-7.74-6.53-1.81-13.06-3.63-19.96-3.02-1.09.12-2.3,0-3.39-.61-.72-.48-1.09-1.09-1.09-1.93s.48-1.45,1.33-1.57c.97-.12,1.94-.24,2.9-.24,28.31-1.57,56.26-5.44,83.84-11.73,7.5-1.69,15-3.87,22.14-6.89,3.87-1.7,7.74-3.63,11.49-5.45,2.3-1.09,4.23-2.66,6.05-4.47,3.15-3.27,4.11-7.02,2.18-11.13-.85-1.69-1.81-3.39-2.9-4.96-2.66-3.63-5.81-6.66-9.32-9.56-9.07-7.62-18.27-15-27.22-22.74-9.44-8.22-18.87-16.69-26.61-26.73-.72-.84-1.33-1.81-1.93-2.9-.36-.48.48-1.7,1.09-1.7,2.18,0,4.23.48,6.29,1.09,6.54,1.81,13.07,3.63,19.6,5.56,17.18,4.84,34.6,5.93,52.38,4.6,7.02-.48,13.79-1.45,20.45-3.75,14.15-4.72,23.71-14.04,28.79-28.19,2.66-7.38,3.99-15,4.23-22.74.48-15.48.84-30.97-.13-46.45,0-.36-.12-.72-.12-1.21,0-.85.24-1.45.97-1.94.97-.6,1.81-.24,2.66.36.48.36.84.72,1.33,1.09,9.44,8.1,19.72,15,30.24,21.41,4.11,2.54,8.47,4.6,12.82,6.78,14.03,6.65,28.67,7.5,43.67,4.23,10.77-2.42,19.47-8.35,27.22-15.85,7.98-7.74,14.28-16.69,19.6-26.49,3.02-5.56,5.68-11.49,7.98-17.42,2.06-5.45,3.02-11.13,3.75-16.94.48-3.63.72-7.26,1.21-11.01.12-.6.24-1.09.36-1.69.36-1.09,2.18-1.57,2.9-.6,1.21,1.69,2.42,3.51,3.51,5.32,4.47,7.5,9.43,14.64,14.64,21.65,15.73,20.81,36.29,33.99,61.58,39.68,18.02,4.11,36.29,5.81,54.8,4.59,10.04-.6,19.96-2.3,29.64-5.32,10.53-3.27,20.81-7.14,31.09-11.25,7.62-3.02,15.24-5.68,22.98-7.98,3.87-1.21,7.62-2.66,11.49-3.99,1.09-.36,2.18-.85,3.27-1.21,1.33-.36,2.9-1.09,3.75.12,1.21,1.57-.36,2.78-1.33,3.87-9.07,10.28-18.27,20.57-27.46,30.73-3.99,4.47-7.86,9.07-11.01,14.15-2.06,3.27-3.63,6.78-4.47,10.65-1.57,7.14.36,11.98,6.53,15.85,5.08,3.27,10.89,4.96,16.69,6.29,8.11,1.81,16.33,3.02,24.68,3.87,23.34,2.9,46.81,3.03,70.16,3.27Zm-318.4,43.55c-.48-1.09-.24-2.3-.12-3.39.97-7.5,1.94-15,3.15-22.38,1.69-9.92,3.63-19.72,5.56-29.64.97-5.32-.72-8.23-5.8-9.56-2.06-.48-4.11-.85-6.29-1.21-13.43-1.82-26.98-1.45-40.53-.97-4.96.12-10.04.84-14.76,2.9-4.47,2.06-7.02,5.32-7.02,10.29v2.3c-.36,24.8-.12,49.48-1.21,74.28-.73,16.82-1.21,33.63-1.69,50.45,0,1.33-.24,2.66-.24,3.99-.24,8.47-.6,17.06-.84,25.53-.13,2.54.24,4.96,1.09,7.38,1.81,5.08,5.44,7.74,10.77,8.22,6.41.6,11.73-1.69,16.45-5.81,3.99-3.51,6.9-7.74,9.68-12.21,2.66-4.48,5.32-8.95,8.1-13.43,20.2-32.54,41.13-64.6,62.54-96.29,2.3-3.39,4.48-6.78,6.78-10.16,2.9-4.35,2.42-3.51-.36-7.5-1.93-2.66-3.99-5.2-5.93-7.86-.85-1.09-1.57-2.18-2.18-3.39-.72-1.45-.12-3.27,1.09-4.11s3.03-.72,4.23.6c1.94,2.18,3.63,4.6,5.32,6.78,1.33,1.57,2.3,3.63,4.11,4.72.48-.24.96-.36,1.09-.61,2.3-3.02,2.3-3.14.24-6.05-1.81-2.66-3.75-5.32-5.56-8.1-.6-.97-1.21-1.94-1.57-3.03-.36-.97.24-1.93,1.09-2.42.6-.36,1.45-.36,2.18,0,1.69.97,2.9,2.54,4.11,3.99,1.69,2.06,2.9,4.48,5.56,6.41,3.75-5.08,7.02-10.28,10.28-15.48,1.33-2.06.48-4.47-1.45-6.17-2.54-2.18-5.69-2.66-8.71-2.79-4.96-.24-10.04-.24-15.12-.12-1.69,0-3.39.48-5.08.85-3.15.72-5.56,2.66-6.9,5.68-.72,1.57-1.45,3.15-2.3,4.72-8.71,17.91-18.99,34.96-28.55,52.51-.13.48-.73.72-1.21,1.09Zm35.33,163.07c6.05.61,11.97.13,17.9-1.09,11.49-2.3,21.66-7.38,30.24-15.12,15.24-13.67,21.78-30.12,15.6-50.57-.97-3.27-1.57-6.77-2.18-10.16-.72-3.63,0-7.02,2.18-9.92,3.99-5.32,9.19-8.23,16.09-7.26,3.03.36,6.05,1.09,9.19,1.57,4.6.85,9.07,1.57,13.79,1.81,7.38.36,13.67-2.06,19.23-6.77,7.26-6.17,11.61-14.04,13.19-23.23,1.94-10.89-.36-20.69-8.47-28.91-4.35-4.35-9.8-6.78-15.6-8.47-14.28-3.99-28.79-5.93-43.55-5.08-11.73.72-22.98,3.14-33.63,8.22-21.65,10.16-34.96,26.85-39.44,50.45-2.18,11.49.61,21.9,7.74,31.09,2.66,3.39,5.69,6.29,8.59,9.43.97.97,1.94,1.09,3.15.48.97-.6,1.94-1.21,3.03-1.81,2.18-1.33,4.23-2.66,6.53-3.75,1.81-.97,3.27-.6,3.99.72.73,1.33.36,2.91-.97,4.11-.84.72-1.93,1.33-2.9,1.94-2.18,1.33-4.23,2.66-6.41,3.99-1.09.72-1.57,1.69-.85,2.91.36.72.61,1.45,1.09,2.05.48.73,1.21,1.09,1.94.61,2.18-1.33,4.23-2.66,6.41-3.99,1.09-.72,2.18-1.57,3.63-1.69.97-.12,1.94.24,2.54,1.09s.6,1.81.24,2.78c-.48,1.09-1.45,1.82-2.42,2.54-2.91,1.94-5.81,3.87-8.71,5.69-2.06,1.21-3.63,2.54-4.47,4.96-1.45,4.11-4.84,6.41-9.07,7.38-3.27.84-6.41,1.09-9.8.48-4.11-.85-8.34-1.57-12.46-2.54-4.23-.97-7.62.24-10.53,3.27-2.05,2.18-3.27,4.72-4.11,7.62-1.09,4.23-.73,8.47.36,12.58,1.33,4.72,4.23,8.22,9.07,9.8,1.7.48,3.39.97,4.96,1.45,4.84,1.09,9.92.85,14.88,1.33Zm-94.12-110.81c-.12,1.93-.24,3.87.48,5.68.97,2.3,3.15,3.75,5.44,3.63,2.78-.12,4.84-1.81,5.2-4.59.36-2.66.6-5.32.72-8.11.61-15.48,1.09-30.97,1.57-46.33.13-5.08.36-10.04.48-15.13,0-1.33,0-2.78-.24-3.99-.6-2.79-2.66-4.35-5.32-4.35s-4.84,1.45-5.44,4.23c-.48,2.3-.61,4.6-.73,6.9-.36,10.29-.24,20.45-.97,27.95-.36,13.31-.84,23.71-1.21,34.11Zm5.32,16.09c-2.54,0-4.47,2.06-4.47,4.96s2.18,5.2,5.08,5.2c2.54,0,4.35-2.18,4.48-5.08-.13-3.02-2.06-5.08-5.08-5.08Zm53.59-68.35c-.73,0-.85.48-.85,1.09,0,.12.12.24.24.48.24-.13.48-.24.61-.48,0-.36-.13-.73,0-1.09-.13,0,0,0,0,0Zm47.42,49.72c2.3.72,4.72-.12,6.05-2.18.6-.73.97-1.69,1.33-2.54,2.06-4.47,5.32-7.98,9.44-10.77,10.16-6.9,20.93-12.34,33.39-13.91,1.57-.24,3.02-.73,3.99-2.06,1.94-2.78,1.09-6.65-2.06-8.47-1.93-1.09-3.99-1.21-6.17-.84-4.6.84-8.95,2.42-13.31,3.99-9.56,3.75-18.75,8.35-26.61,15.12-3.75,3.27-6.66,7.02-8.71,11.49-.72,1.57-1.09,3.27-1.21,4.96.12,2.18,1.82,4.48,3.87,5.2Zm73.92-37.02c0-3.27-3.27-6.41-6.78-6.54-3.63-.12-6.53,2.79-6.53,6.54s2.78,6.29,6.66,6.53c3.63,0,6.65-2.91,6.65-6.53Z"/>
    </g>
  </g>
</svg>