<?xml version="1.0" encoding="UTF-8"?>
<svg id="Calque_2" data-name="Calque 2" xmlns="http://www.w3.org/2000/svg" viewBox="0 0 259.64 197.7">
  <defs>
    <style>
      .cls-1 {
        fill: #ff7954;
      }

      .cls-2 {
        fill: #f3983e;
      }

      .cls-3 {
        fill: #489776;
      }

      .cls-4 {
        fill: #f05142;
      }

      .cls-5 {
        fill: #f7ac50;
      }

      .cls-6 {
        fill: #ffebca;
      }

      .cls-7 {
        fill: #ffc994;
      }

      .cls-8 {
        fill: #5db991;
      }

      .cls-9 {
        fill: #fdb228;
      }

      .cls-10 {
        fill: #fcb05e;
      }

      .cls-11 {
        fill: #bf793a;
      }

      .cls-12 {
        fill: #cf8840;
      }

      .cls-13 {
        fill: #cc813e;
      }
    </style>
  </defs>
  <g id="Layer_1" data-name="Layer 1">
    <g id="burger">
      <g>
        <path class="cls-5" d="m245.68,120.09c-.67,2.35-1.43,4.67-2.3,6.97-8.57,22.71-26.9,43.03-51.62,56.03-7.56,3.98-15.72,7.27-24.37,9.73-39.83,11.35-79.64,2.2-104.32-20.7-.56-.52-1.08-1.06-1.57-1.62-.48-.56-.93-1.13-1.33-1.72-1.39-2-2.34-4.18-2.87-6.43-.03-.1-.05-.21-.07-.31-.36-1.63-.5-3.31-.42-4.98h0c3.51-13.32,39.64-33.79,86.41-48.17,40.29-12.38,76.58-16.59,92.51-11.74,3.72,2,6.67,4.95,8.53,8.45.39.73.73,1.49,1.02,2.27,1.39,3.71,1.63,7.9.4,12.21Z"/>
        <path class="cls-2" d="m243.98,103.47c.21.68.3,1.4.27,2.14-.46,13.21-37.75,34.93-86.69,49.97-50.25,15.45-94.29,18.17-100.34,6.47-.17-.33-.32-.68-.43-1.04-.38-1.23-.37-2.54,0-3.94,0,0,0,0,0,0,3.51-13.31,39.64-33.79,86.41-48.17,40.29-12.38,76.58-16.59,92.51-11.74,4.51,1.37,7.38,3.47,8.26,6.31Z"/>
      </g>
      <path class="cls-2" d="m245.68,120.09c-.67,2.35-1.43,4.67-2.3,6.97-24.51,17.16-69.58,57.39-69.58,57.39-13.91-11.78-87.4-14.91-113.63-15.66-1.39-2-2.34-4.18-2.87-6.43.02-.02.04-.04.07-.05,34.74-25.88,166.87-60.22,166.87-60.22,0,0,10.47,2.16,19.74,5.34.44.15.87.3,1.3.46,1.39,3.71,1.63,7.9.4,12.21Z"/>
      <path class="cls-9" d="m96.53,91.66l-47.29,71.7s120.7,3.91,127.47,13.45c0,0,62.37-56.63,74.38-65.17l-154.56-19.98Z"/>
      <g>
        <ellipse class="cls-1" cx="146.95" cy="121.02" rx="78.32" ry="32.77" transform="translate(-25.89 41.24) rotate(-14.7)"/>
        <path class="cls-4" d="m153.52,153.16c39.66-10,69.42-31.9,69.25-50.23.4.95.71,1.93.92,2.96,3.86,18.89-27,42.77-68.93,53.34-41.93,10.57-79.06,3.82-82.92-15.07-.21-1.02-.31-2.06-.32-3.11,6.98,16.61,42.33,22.11,82,12.12Z"/>
        <path class="cls-4" d="m147.11,115.67s19.18-28.24,31.79-28.11c12.6.13,17.68-1.76,14.17,4.04-3.51,5.8-44.76,27.06-44.76,27.06l-1.2-3Z"/>
        <path class="cls-4" d="m150.77,119.93s49.51-26.51,57.18-22.32c7.67,4.19,8.6,10.84,2.58,12.62-6.02,1.77-65.53,12.69-59.76,9.7Z"/>
        <path class="cls-4" d="m136.37,124.7s-32.97,24.29-39.62,20.11c-6.65-4.18-8.61-10.56-4.33-12.13,4.28-1.57,47.81-10.72,43.95-7.98Z"/>
        <path class="cls-4" d="m150.96,122.94s47.91-5.19,48.09-.13c.18,5.06-10.57,12.87-17.45,14.6-6.88,1.73-35.24-14.08-30.64-14.47Z"/>
        <path class="cls-4" d="m144.77,125.02s13.64,18.63,10.24,21.95c-3.4,3.32-16.86,5.43-28.14,4.41-11.28-1.02,15.24-30,17.89-26.37Z"/>
        <path class="cls-4" d="m141.3,118.74s10.78-22.45,7.85-25.83-21.7,1.94-23.45,5.91c-1.75,3.97,8.33,18.81,15.6,19.92Z"/>
        <path class="cls-4" d="m133.88,120.61s-20.22-13.53-27.21-12.28c-6.98,1.25-22.04,10.91-16.79,13.67,5.25,2.76,49.85,2.23,44-1.39Z"/>
        <path class="cls-6" d="m99.72,149.26c6.01.86,9.82-.45,15.76,1.01,1.12.28,2.54.7,2.36,1.4-.22.88-2.87,1.71-3.76,1.98-9.03,2.83-26.31.05-25.4-4.16.03-.14.25-1.08,1.33-1.64,2.05-1.06,4.56.66,9.7,1.4Z"/>
        <path class="cls-6" d="m163.29,114.2s37.96-17.03,36.91-12.09-43.4,17.85-36.91,12.09Z"/>
        <path class="cls-6" d="m151.3,110.27s24.88-24.97,27.73-21-29.73,27.36-27.73,21Z"/>
        <path class="cls-6" d="m138.99,115.74s-14.45-17.16-7.99-17.8c6.46-.64,14.32,20.02,7.99,17.8Z"/>
        <path class="cls-6" d="m125.87,121.63s-34.2,1.78-29.78-1.96,37.84-.7,29.78,1.96Z"/>
        <path class="cls-6" d="m128.07,127.84s-27.65,18.06-28.34,14.16c-.68-3.9,32.14-19.42,28.34-14.16Z"/>
        <path class="cls-6" d="m143.79,128.22s12.99,17.81,6.57,18.26c-6.42.45-12.65-20.7-6.57-18.26Z"/>
        <path class="cls-6" d="m164.52,124.78s34.67-3.75,30.69.15-38.54,2.91-30.69-.15Z"/>
      </g>
      <path class="cls-12" d="m60.17,131.06c-6.91,4.47-16.91,13.88-14.49,20.71,1.46,4.12,7.04,6.13,10.32,6.64,4.24.65,5.17-1.12,13.69-2.37,1.31-.19.98-.1,11.98-.92,6.69-.5,10.06-.75,11.06-.95,4.75-.92,8.31-2.45,14.12-4.95,6.6-2.84,7.02-3.66,10.11-4.03,4.34-.52,5.56.86,9.46-.15,3.65-.94,4.18-2.55,7.89-4.27,4.59-2.12,6.24-.81,12.29-1.94,7.4-1.38,7-3.73,16.66-6.66,7.38-2.23,7.49-.82,12.59-2.95,6.6-2.76,6.57-5.19,13.65-8.49,4.56-2.12,4.4-1.03,12.89-3.96,4.87-1.68,9.62-3.32,15.17-6.5,5.75-3.29,5.37-4.23,10.26-6.53,6.19-2.91,7.94-1.93,10.86-4.57,3.25-2.93,5.06-7.7,4.55-12.13-.7-6.09-5.58-9.83-6.25-10.35-13.43-10.32-45.93,7.04-64.94,17.2-13.11,7.01-18.26,11.21-30.48,14.58-5.88,1.62-15.96,3.76-25.35,5.34-8.37,1.41-10.21,1.36-16.01,2.78-4.61,1.12-7.03,2.02-20.56,6.93-17.29,6.29-17.81,6.45-19.46,7.52Z"/>
      <path class="cls-13" d="m237.15,76.84c.23,4.2-1.55,8.59-4.61,11.35-2.93,2.64-4.67,1.66-10.86,4.57-4.89,2.29-4.51,3.23-10.26,6.53-5.55,3.18-10.3,4.82-15.17,6.5-8.49,2.93-8.33,1.84-12.89,3.96-7.08,3.3-7.04,5.73-13.65,8.49-5.09,2.13-5.21.72-12.59,2.95-9.66,2.92-9.26,5.28-16.66,6.66-6.05,1.13-7.7-.19-12.29,1.94-3.71,1.72-4.24,3.33-7.89,4.27-3.91,1.01-5.13-.37-9.46.15-3.09.37-3.51,1.19-10.11,4.03-5.81,2.5-9.37,4.03-14.12,4.95-1,.19-4.37.45-11.06.95-11,.82-10.67.73-11.98.92-8.52,1.25-9.45,3.02-13.69,2.37-1.13-.17-2.53-.53-3.93-1.08-.69,1.89-.85,3.74-.25,5.43,1.46,4.12,7.04,6.13,10.32,6.64,4.24.65,5.17-1.12,13.69-2.37,1.31-.19.98-.1,11.98-.92,6.69-.5,10.06-.75,11.06-.95,4.75-.92,8.31-2.45,14.12-4.95,6.6-2.84,7.02-3.66,10.11-4.03,4.34-.52,5.56.86,9.46-.15,3.65-.94,4.18-2.55,7.89-4.27,4.59-2.12,6.24-.81,12.29-1.94,7.4-1.38,7-3.73,16.66-6.66,7.38-2.23,7.49-.82,12.59-2.95,6.6-2.76,6.57-5.19,13.65-8.49,4.56-2.12,4.4-1.03,12.89-3.96,4.87-1.68,9.62-3.32,15.17-6.5,5.75-3.29,5.37-4.23,10.26-6.53,6.19-2.91,7.94-1.93,10.86-4.57,3.25-2.93,5.06-7.7,4.55-12.13-.66-5.71-4.99-9.36-6.08-10.21Z"/>
      <path class="cls-11" d="m68.35,143.72c.26.85-1.97,2.29-4.99,3.22-3.02.93-5.68.99-5.94.14-.26-.85,1.97-2.29,4.99-3.22,3.02-.93,5.68-.99,5.94-.14Z"/>
      <path class="cls-11" d="m99.67,144.83c.26.85-1.97,2.29-4.99,3.22-3.02.93-5.68.99-5.94.14-.26-.85,1.97-2.29,4.99-3.22,3.02-.93,5.68-.99,5.94-.14Z"/>
      <path class="cls-11" d="m88.7,142.07c.26.85-1.97,2.29-4.99,3.22-3.02.93-5.68.99-5.94.14-.26-.85,1.97-2.29,4.99-3.22,3.02-.93,5.68-.99,5.94-.14Z"/>
      <path class="cls-11" d="m121.72,133.76c.26.85-1.97,2.29-4.99,3.22-3.02.93-5.68.99-5.94.14-.26-.85,1.97-2.29,4.99-3.22,3.02-.93,5.68-.99,5.94-.14Z"/>
      <path class="cls-11" d="m137.07,131.8c.26.85-1.97,2.29-4.99,3.22-3.02.93-5.68.99-5.94.14-.26-.85,1.97-2.29,4.99-3.22,3.02-.93,5.68-.99,5.94-.14Z"/>
      <path class="cls-11" d="m154.55,121.83c.26.85-1.97,2.29-4.99,3.22-3.02.93-5.68.99-5.94.14-.26-.85,1.97-2.29,4.99-3.22,3.02-.93,5.68-.99,5.94-.14Z"/>
      <path class="cls-11" d="m166.59,126.1c.26.85-1.97,2.29-4.99,3.22-3.02.93-5.68.99-5.94.14-.26-.85,1.97-2.29,4.99-3.22,3.02-.93,5.68-.99,5.94-.14Z"/>
      <path class="cls-11" d="m229.36,98.83c.26.85-1.97,2.29-4.99,3.22-3.02.93-5.68.99-5.94.14-.26-.85,1.97-2.29,4.99-3.22,3.02-.93,5.68-.99,5.94-.14Z"/>
      <path class="cls-11" d="m233.98,87.9c.26.85-1.97,2.29-4.99,3.22-3.02.93-5.68.99-5.94.14-.26-.85,1.97-2.29,4.99-3.22,3.02-.93,5.68-.99,5.94-.14Z"/>
      <path class="cls-11" d="m211.73,99.34c.26.85-1.97,2.29-4.99,3.22-3.02.93-5.68.99-5.94.14-.26-.85,1.97-2.29,4.99-3.22,3.02-.93,5.68-.99,5.94-.14Z"/>
      <path class="cls-11" d="m193.5,109.85c.26.85-1.97,2.29-4.99,3.22-3.02.93-5.68.99-5.94.14-.26-.85,1.97-2.29,4.99-3.22,3.02-.93,5.68-.99,5.94-.14Z"/>
      <path class="cls-11" d="m182.27,110.24c.26.85-1.97,2.29-4.99,3.22-3.02.93-5.68.99-5.94.14-.26-.85,1.97-2.29,4.99-3.22,3.02-.93,5.68-.99,5.94-.14Z"/>
      <g>
        <path class="cls-3" d="m259.23,48.33c-.09.23-.19.45-.32.68-3.53,6.52-21.45,14.3-21.45,14.3,0,0,.43.62,1.21,2.79h0c.76,2.1,1.84,5.65,3.18,11.47,2.72,11.85-34.14-7.31-30.17,5.61,3.97,12.93-3.42,10.81-3.42,10.81,0,0-2.38-.1-6.17.29-3.33.34-7.74,1.06-12.59,2.55-8.52,2.62-3.03.93-3.18,5.85-.03,1.06-.32,2.44-1.08,4.24-4.26,10.09-26.36.05-26.36.05,0,0,7.77,8.66-2.94,8.03-.43-.02-.88-.06-1.37-.12-12.72-1.46-15.82,3.4-15.96,2.95-.05-.16-1.68.86-3.96,2.09-4.06,2.2-10.19,5.07-13.14,3.17-4.6-2.98-.72-8.32-15.44-1.35-1.71.81-3.23,1.59-4.58,2.35h0c-10.26,5.71-10.92,9.57-14.51,9.38-4.05-.22-6.48-3.13-10.26-3.43-.95-.08-2.06.5-3.36,1.45,0,0-.01.01-.02.01-3.87,2.85-9.36,9.04-16.91,11.35-10.09,3.1-10.1-5.92-10.1-5.92,0,0-3.89,7.29-13.47,8.05-9.58.75,2.88-13.57,2.88-13.57,0,0-.01,0-.02.01-.15.11-1.12.79-2.55,1.7,0,0-.01,0-.02,0-4.71,2.99-14.45,8.45-17.31,4.39-3.81-5.41.03-15.87.03-15.87,0,0-5.32,2.18-9.82,1.24-2.84-.59-5.36-2.44-6.01-6.86-1.68-11.44,45.85-7.31,45.85-7.31,0,0,1.23-.4,3.48-1.14,3.93-1.3,10.96-3.62,19.91-6.64,7.72-2.6,16.86-5.7,26.68-9.1,36.72-12.69,82.9-29.41,99.16-38.54h0c3.45-1.94,5.56-3.53,5.93-4.68.38-1.16,1.07-2.08,2.01-2.81,7.6-5.94,31.45.53,39.66-8.29,9.22-9.91,19.06,4.14,16.5,10.78Z"/>
        <path class="cls-8" d="m72.54,95.48s-1.29,2.28-3.25,5.49c-3.36,5.52-8.7,13.8-12.84,18-6.54,6.65-13.19,7.96-20.7,12.46,0,0-.01,0-.02.01-.92.56-1.77,1.12-2.55,1.7,0,0-.01,0-.02,0-4.71,2.99-14.45,8.45-17.31,4.39-3.81-5.41.03-15.87.03-15.87,0,0-5.32,2.18-9.82,1.24,6.38-2.5,15.01-5.1,24.4-5.72,12.33-.82,15.83-5.34,18.92-9.59,1.73-2.38,3.33-4.68,6.28-6.2,8.21-4.23,8.69-2.67,8.69-2.67l8.2-3.25Z"/>
        <path class="cls-8" d="m101.49,124.11c-10.26,5.71-10.92,9.57-14.51,9.38-4.05-.22-6.48-3.13-10.26-3.43-.95-.08-2.06.5-3.36,1.45,7.95-6.66,3.36-1.45,1.03-9.03-2.33-7.58,4.2-22.27,4.2-22.27l17.37-8.33s7.43,11.2-.94,18.89c-5.47,5.03,1.2,10.3,6.46,13.34Z"/>
        <path class="cls-8" d="m154.81,109.71c-.09,1.99.35,3.76,1.13,5.32-.43-.02-.88-.06-1.37-.12-12.72-1.46-15.82,3.4-15.96,2.95-.05-.16-1.68.86-3.96,2.09-3.34-1.21-3.98-2.58-7.53-9.53-5.39-10.54-14.9-20.55-14.9-20.55,0,0,20.66-5.62,23.98.19,3.32,5.81,19.11,8.28,18.61,19.65Z"/>
        <path class="cls-8" d="m202.09,94.3c-3.33.34-7.74,1.06-12.59,2.55-8.52,2.62-3.03.93-3.18,5.85-2.53-1.58-6.6-3.42-12.97-6.5-12.97-6.26-17.42-19.77-17.42-19.77,0,0,16.52-14.1,19.61-6.03,3.1,8.07,5.83,6.99,19.7,14.19,9.66,5.02,8.19,4.82,6.85,9.71Z"/>
        <path class="cls-8" d="m237.46,63.32s.43.62,1.21,2.79c-3.07-.03-7.44.47-13.89,1.84-23.03,4.89-30.72-7.15-30.72-7.15,0,0,.04-3.72,1.06-7.48h0c.85-3.13,2.37-6.29,5.11-7.35,1.12-.43,2-.44,2.83-.14,3.63,1.32,6.28,8.56,23.73,11.73,21.44,3.9,7.34-11.04,22.72-9.91,4.02.3,7.08.79,9.4,1.36-3.53,6.52-21.45,14.3-21.45,14.3Z"/>
      </g>
      <path class="cls-5" d="m211.27,67.58c-20.52,13.43-45.57,25.2-73.51,33.79-27.95,8.59-55.28,12.91-79.8,13.33-15.62.27-27.48-13.91-24.42-29.24,5.68-28.49,23.91-54.23,50.54-69.91,7.4-4.36,15.44-7.93,24.05-10.58,39.59-12.17,80.47-1.35,106.92,24.69.6.59,1.17,1.21,1.69,1.84,9.21,11.08,6.9,27.98-5.47,36.07Z"/>
      <path class="cls-2" d="m211.27,67.58c-20.52,13.43-45.57,25.2-73.51,33.79-27.95,8.59-55.28,12.91-79.8,13.33-15.62.27-27.48-13.91-24.42-29.24,5.68-28.49,23.91-54.23,50.54-69.91-14.85,15.98-41.35,50.66-16.49,63.83,30.85,16.34,110.77-19.47,149.15-47.88,9.21,11.08,6.9,27.98-5.47,36.07Z"/>
      <path class="cls-7" d="m94.57,32.46c.43,1.39-2.24,3.45-5.95,4.59-3.71,1.14-7.07.94-7.5-.45-.43-1.39,2.24-3.45,5.95-4.59,3.71-1.14,7.07-.94,7.5.45Z"/>
      <path class="cls-7" d="m134.29,21c.31,1.02-1.63,2.51-4.34,3.35s-5.16.68-5.47-.33c-.31-1.02,1.63-2.51,4.34-3.35,2.71-.83,5.16-.68,5.47.33Z"/>
      <path class="cls-7" d="m139.23,4.15c.31,1.02-1.63,2.51-4.34,3.35-2.71.83-5.16.68-5.47-.33-.31-1.02,1.63-2.51,4.34-3.35,2.71-.83,5.16-.68,5.47.33Z"/>
      <path class="cls-7" d="m117.64,38.69c.31,1.02-1.63,2.51-4.34,3.35s-5.16.68-5.47-.33,1.63-2.51,4.34-3.35c2.71-.83,5.16-.68,5.47.33Z"/>
      <path class="cls-7" d="m110.95,9.94c.43,1.39-2.24,3.45-5.95,4.59-3.71,1.14-7.07.94-7.5-.45-.43-1.39,2.24-3.45,5.95-4.59s7.07-.94,7.5.45Z"/>
      <path class="cls-7" d="m163.57,8.49c.43,1.39-2.24,3.45-5.95,4.59-3.71,1.14-7.07.94-7.5-.45-.43-1.39,2.24-3.45,5.95-4.59,3.71-1.14,7.07-.94,7.5.45Z"/>
      <path class="cls-10" d="m196.23,20.06c-6.6-.66-10.51,5.94-25.42,14.22-10.79,5.99-15.7,6.4-21.67,12.67-.84.88-6.75,7.08-4.83,9.57,1.81,2.36,9.71.14,13.57-.97,21.49-6.19,47.04-22.68,44.79-31.17-.67-2.51-3.69-4.03-6.44-4.31Z"/>
    </g>
  </g>
</svg>