<?xml version="1.0" encoding="UTF-8"?>
<svg id="Calque_2" data-name="Calque 2" xmlns="http://www.w3.org/2000/svg" viewBox="0 0 302.21 167.33">
  <defs>
    <style>
      .cls-1 {
        fill: #375624;
      }

      .cls-2 {
        fill: #f29e22;
      }

      .cls-3 {
        fill: #873f17;
      }

      .cls-4 {
        fill: #ee8d16;
      }

      .cls-5 {
        fill: #efd2ac;
      }

      .cls-6 {
        fill: #921914;
      }

      .cls-7 {
        fill: #5d7b2b;
      }

      .cls-8 {
        fill: #e18b18;
      }

      .cls-9 {
        fill: #5c8439;
      }

      .cls-10 {
        fill: #f9b442;
      }

      .cls-11 {
        fill: #e7853d;
      }

      .cls-12 {
        fill: #d1d9db;
      }

      .cls-13 {
        fill: #fcc233;
      }

      .cls-14 {
        fill: #aa1b17;
      }

      .cls-15 {
        fill: #bb2a1a;
      }

      .cls-16 {
        fill: #d8aa81;
      }

      .cls-17 {
        fill: #476d2b;
      }

      .cls-18 {
        fill: #cc441f;
      }

      .cls-19 {
        fill: #7e8d27;
      }

      .cls-20 {
        fill: #65270f;
      }

      .cls-21 {
        fill: #94ad2d;
      }

      .cls-22 {
        fill: #f7ab22;
      }

      .cls-23 {
        fill: #a54f28;
      }

      .cls-24 {
        fill: #1e150f;
      }

      .cls-25 {
        fill: #e18a24;
      }

      .cls-26 {
        fill: #a41d16;
      }

      .cls-27 {
        fill: #d84438;
      }

      .cls-28 {
        fill: #758d2a;
      }

      .cls-29 {
        fill: #d77610;
      }
    </style>
  </defs>
  <g id="_Шар_1" data-name="Шар 1">
    <g>
      <ellipse class="cls-12" cx="179.5" cy="144.5" rx="30.95" ry="16.57"/>
      <ellipse class="cls-12" cx="226.4" cy="147" rx="29.08" ry="20.32"/>
      <path class="cls-12" d="m51.72,137.69s12.38,35.89,107.68,9.9c95.31-25.99,131.75-55.24,141.1-75.5,7.43-16.09-8.66-23.52-63.13-13.62-77.5,14.09-181.95,58.17-185.66,79.22Z"/>
      <g>
        <path class="cls-25" d="m22.64,54.02c-2.63.97-9.39,2.56-1.51,33.42,7.88,30.86,55.39,65,73.57,61.44,18.18-3.55,45.67-18.47,35.41-56.16-3.55-13.04-23.95-34.98-40.69-40.72-31.64-10.84-66.77,2.01-66.77,2.01Z"/>
        <path class="cls-28" d="m146.01,109.76c-8.71,3.81-12.83,5.23-14.38,5.42-2.82,2.66-6.51,6.14-10.49,9.87-9.91,9.26-21.64,20.06-26.44,23.83-2.49,1.95-4.53,3.13-6.16,3.69-5.88,2.05-6.6-3.85-5.06-10.37,1.96-8.28-4.48,1.78-10.25,12.44-5.77,10.66-28.45-1.71-27.92-10.78.52-9.07-6.21-9.81-12.47-10.84-6.26-1.03-11.55-13.03-5.37-16.82,0,0,2.47-2.3,6.41-5.52,7.41-6.03,20.03-15.33,31.49-18.97,6.19-1.97,21.5-1.81,37.49-.23,29.35,2.87,61.06,10.47,43.17,18.27Z"/>
        <path class="cls-7" d="m121.21,124.91l-.07.15c-9.91,9.26-21.64,20.06-26.44,23.83-2.49,1.95-4.53,3.13-6.16,3.69,6.45-9.25,3.32-28.44-13.42-32.55-16.83-4.14-14.34,5.83-29.64,7.69-15.31,1.86-16.6-4.52-18.75-8.89l7.14-8.13c7.41-6.03,20.03-15.33,31.49-18.97,6.19-1.97,21.5-1.81,37.49-.23l6.14,11.08,12.23,22.33Z"/>
        <path class="cls-15" d="m81,103.66c-1.64,3.21-3.15,5.66-3.15,5.66,0,0,1.25-6.93-1.42-8.22-7.58-3.66-17.1,4.05-18.7,7.72-1.55,3.55,6.13,9.47,6.6,9.84-.4-.24-5.21-3.06-8.96.93-3.92,4.17-1.94,15.5,1.33,17.95,2.96,2.21,6.8.92,8.59-.44,1.79-1.35-2.32,6.98.5,11.37,2.82,4.39,12.86,4.92,19.73,1.39,6.88-3.54,8.08-16.3,5.48-17.92-2.58-1.62-6.44-3.23-6.44-3.23,0,0,7.41-.44,10.2-3.9,2.8-3.46,2.99-11.59-1.21-17.68-3.72-5.38-10.91-6.67-12.55-3.46Zm11.99,15.75c-.78,2.81-11.56,7.56-14.19,7.48-2.64-.07,2.29,1.73,5.56,4.98,3.26,3.25,4,10.59-3.34,12.92-7.33,2.33-11.66-1.46-11.79-5.93-.14-4.47,2.44-6.47,1.02-6.4-1.43.07-9,5.99-11.97.49-2.97-5.51-1.46-10.26.95-11.44,2.42-1.18,9.04-1.27,9.31-1.61.44-.55-7.48-6.56-6.33-9.24,1.15-2.67,8.9-7.21,11.39-6.01,2.49,1.2,2.84,11.05,2.84,11.05,0,0,5.84-9.5,9.23-9.59,3.4-.09,8.12,10.48,7.34,13.28Z"/>
        <path class="cls-24" d="m76.17,106.31c-8.59,1.89-9.89,18.16,6.62,17.61,16.5-.55,15.29-22.42-6.62-17.61Z"/>
        <path class="cls-3" d="m117.94,115.47c-8.61-3.73-36.67-4.11-35.02,4.56,1.65,8.67,7.56,10.61,1.43,11.84-6.12,1.23,1.3,10.38,5.78,13.37,4.49,2.99,9.66-3.68,14.94-4.05,5.28-.36,26.27-19.91,12.87-25.72Z"/>
        <path class="cls-2" d="m287.42,49.29c-.15.62-.33,1.25-.54,1.88-.3.93-.76,1.91-1.35,2.92-11,18.95-69.86,50.84-99.38,64.39-31.11,14.27-89.88,32.9-91.46,30.4-.82-1.29,5.12-8.07,10.27-17.74,4.87-9.17,9.04-20.93,6.08-33.04-6.07-24.91-37.86-51.41-43.26-51.58-5.39-.16,203.2-31.59,203.2-31.59,3.67,4.45,20.65,16.94,16.43,34.36Z"/>
        <path class="cls-8" d="m112.77,105.25s15.09,10.52,26.28,13.86c11.19,3.34,66.56-14.63,94.47-38.09,27.91-23.46,35.79-47.69,37.47-66.1,1.68-18.41-158.22,90.32-158.22,90.32Z"/>
        <path class="cls-21" d="m108.95,81.14c-4.75,1.28-23.93,13.25-38.69,22.73-2.49.57-5.16,1.97-7.86,3.79-2.92,1.98-5.86,4.46-8.61,6.93-.24.21-.48.44-.72.65-4.28,3.89-8.03,7.67-10.38,9.33-1.96,1.39-4.15,1.72-6.26,1.49-4.39-.47-8.01-3.37-9.71-7.25-.41-.91-.71-1.88-.89-2.87-.57-3.11-.98-10.24-2.56-14.67-2.64-7.39-6.03-2.81-12.63-2.88-1.8-.01-3.83-.37-6.15-1.41-9.42-4.2-2.06-10.49,4.06-15.79h0c.92-.8,1.81-1.57,2.6-2.31,6.14-5.67-5.23-8.27-9.01-19.34-.47-1.4-.53-2.54-.26-3.46,1.57-5.36,14.18-3.46,20.41-2.13.12.02.23.04.34.07,1.67.36,6.85-.56,8.54-.89,7.14-1.42,26.04-4.56,39.92-1.39,8.75,2,26.47,12.19,41.44,23.02-.28,3.35-1.5,5.8-3.59,6.37Z"/>
        <path class="cls-19" d="m8.83,81.09c-.09.05-.18.08-.27.09.92-.79,1.81-1.56,2.6-2.3,6.14-5.67-5.23-8.27-9.01-19.34-.47-1.4-.53-2.54-.26-3.46,1.08,4.49,6.59,9.74,11.46,13.27,4.9,3.53-1.41,9.93-4.53,11.74Z"/>
        <path class="cls-19" d="m108.95,81.14c-4.75,1.28-23.93,13.25-38.69,22.73-3.96,2.55-7.51,3.63-10.45,5.56.93-.89,1.76-.61,2.6-1.77,4.04-5.51,6.16-14.15-1.32-26.75-15.1-25.4-40.37-26.67-40.37-26.67,0,0,.56-.11,1.59-.28,8.74-1.53,51.27-8.69,69.45-6.73,14.99,1.63,21.56,18.13,20.78,27.55-.28,3.35-1.5,5.8-3.59,6.37Z"/>
        <g>
          <path class="cls-4" d="m2.23,68.48l1.26,7.2,11.01,8.15c21.69,3.36,48.96,4.44,78.33,4.66l.28-5.43L2.23,68.48Z"/>
          <path class="cls-29" d="m2.23,68.48c1.34,1.99,82.5,9.77,81.16,7.46l9.72,7.12c-29.73-1.09-57.52-2.89-79.7-6.76-5.05-1.18-8.41-4.18-11.18-7.82Z"/>
        </g>
        <g>
          <path class="cls-4" d="m26.92,96l4.38,5.89,13.55,2.48c20.95-6.48,45.85-17.45,72.25-30.11l-2.21-4.99-87.97,26.73Z"/>
          <path class="cls-29" d="m26.92,96c2.1,1.19,78.3-27.36,76.05-28.85l11.93,2.12c-27.11,12.04-52.82,22.59-74.42,28.83-5.06,1.16-9.42-.06-13.55-2.11Z"/>
        </g>
        <g>
          <path class="cls-4" d="m69.26,141.96l-2.24-6.96,5.99-12.21c17.72-12.76,41.45-26,67.45-39.42l2.78,4.7-73.99,53.89Z"/>
          <path class="cls-29" d="m69.26,141.96c.26-2.37,68.78-45.85,68.67-43.18l5.32-10.71c-25.92,14.36-49.78,28.48-67.69,41.9-3.94,3.32-5.53,7.5-6.29,11.98Z"/>
        </g>
        <path class="cls-15" d="m74.98,72.92c-3.11-1.89-5.45-3.59-5.45-3.59,0,0,6.91,1.84,8.45-.66,4.38-7.09-2.58-17.1-6.16-19-3.46-1.83-10.14,5.16-10.56,5.59.28-.37,3.56-4.83-.15-8.86-3.87-4.21-15.53-3.27-18.3-.29-2.51,2.7-1.54,6.58-.31,8.46,1.21,1.88-6.87-2.89-11.56-.52-4.7,2.37-6.13,12.15-3.16,19.2,2.97,7.05,15.8,9.36,17.66,6.96,1.87-2.39,3.85-6.02,3.85-6.02,0,0-.21,7.29,3.04,10.34,3.25,3.05,11.48,3.96,18.02.38,5.79-3.17,7.73-10.09,4.62-11.99Zm-17.02,10.34c-2.78-1.01-6.63-11.99-6.32-14.57.31-2.58-1.95,2.09-5.54,5-3.58,2.91-11.09,2.97-12.8-4.42-1.71-7.39,2.51-11.29,7.05-11.02,4.54.26,6.34,2.97,6.4,1.56.06-1.41-5.27-9.35.57-11.77,5.84-2.42,10.52-.52,11.5,1.95.98,2.47.48,8.97.8,9.26.52.48,7.31-6.74,9.92-5.38,2.6,1.37,6.51,9.36,5.07,11.69-1.44,2.33-11.45,1.8-11.45,1.8,0,0,9.11,6.56,8.89,9.89-.22,3.34-11.33,7.02-14.11,6Z"/>
        <g>
          <path class="cls-16" d="m52.98,105.85s7.36,26.29,35.23,26.64c25.78.33,31.38-19.53,32.5-25.95,1.12-6.42.42-25.43-22.07-33.32,0,0,15.67,11.44,16.64,24.22.97,12.79-.48,22.38-9.46,26.5-31.21,14.33-52.83-18.1-52.83-18.1Z"/>
          <path class="cls-16" d="m61.64,115.42s-6.54-18.51.85-28.34c7.38-9.83,28.45-17.84,41.51-4.38,13.06,13.46,7.88,30.86,7.88,30.86l2.41-24.84s-16.09-14.15-17.1-14.38c-1.01-.23-19.04-2.78-19.04-2.78l-18.33,9.95-4.72,10.96-.39,10.64,6.94,12.32Z"/>
          <path class="cls-5" d="m92.18,70.96c-17.88-4.09-35.49,5.69-39.31,21.84-3.82,16.15,7.59,32.55,25.47,36.64,17.9,4.09,35.49-5.68,39.31-21.83,3.82-16.15-7.59-32.56-25.48-36.66Zm-13.72,53.81c-15.28-3.49-25.01-17.56-21.73-31.4,3.28-13.86,18.32-22.26,33.6-18.76,15.28,3.49,25,17.55,21.72,31.41-3.28,13.85-18.31,22.25-33.59,18.76Z"/>
        </g>
        <g>
          <path class="cls-16" d="m34.58,94.13s5.81,21.23,27.83,21.04c19.18-.16,23.83-21.64,23.83-21.64,0,0-2.84,11.63-9.94,14.89-9.22,4.23-17.61,5.15-24.21,2.32-11.06-4.73-17.52-16.62-17.52-16.62Z"/>
          <path class="cls-16" d="m38.98,98.65s-3.99-12.49,1.85-20.26c5.83-7.76,22.23-11.56,34.04-2.56,8.91,6.79,9.43,17.04,9.43,17.04l-1.3-12.29c-5.75-10.06-15.11-14.79-28.55-13.56,0,0-9.65,2.55-14.48,7.86-4.83,5.31-3.73,8.66-3.73,8.66,0,0-1.23.75-.31,8.41.92,7.65,3.04,6.69,3.04,6.69Z"/>
          <path class="cls-5" d="m65.55,66.58c-14.13-3.23-28.03,4.5-31.05,17.25-3.02,12.76,5.99,25.71,20.12,28.94,14.13,3.23,28.04-4.49,31.05-17.24,3.02-12.76-5.99-25.72-20.13-28.95Zm-10.96,44.33c-12.07-2.76-20.93-16.42-18.35-27.35,2.59-10.95,16.35-17.97,28.41-15.21,12.07,2.76,21.47,15.91,18.88,26.86-2.59,10.94-16.89,18.47-28.95,15.71Z"/>
        </g>
        <path class="cls-20" d="m66.99,53.95c-1.81-.81-16.86,7.14-12.44,12.08s12.87,8.05,6.31,10.47-10.63,12.88-7.26,17.19c3.37,4.31,15.43-2.76,13.08,3.78-2.34,6.53,1,14.36,4.2,14.31,3.21-.05,30.49-10.7,32.41-25.58,1.92-14.88-36.3-32.25-36.3-32.25Z"/>
        <g>
          <path class="cls-6" d="m122.47,76.16s-13.26-12.28-30.51-6.76c-17.25,5.52-22.75,18.71-21.1,29.04,1.65,10.33,9.02,17.59,14.13,20.24,5.11,2.65,37.49-42.51,37.49-42.51Z"/>
          <ellipse class="cls-15" cx="101.87" cy="96.22" rx="29.31" ry="26.25" transform="translate(-24.92 36.55) rotate(-18.16)"/>
          <ellipse class="cls-26" cx="102.03" cy="95.98" rx="27.26" ry="25.24" transform="translate(-23.47 33.76) rotate(-16.88)"/>
          <path class="cls-18" d="m118.53,112.09c-2.07,2.26-12.29,8.39-17.48,6.37-1.8-.7-5.52-19.53-.37-21.67.84-.35,19.93,13.04,17.85,15.3Z"/>
          <path class="cls-18" d="m98.3,97.08c-.45,4.66-3.19,15.98-3.01,18.17s-3.87,2.54-7.12-.22c-3.25-2.76-6.64-5.19-7.99-8.27-1.35-3.08,18.59-14.65,18.11-9.68Z"/>
          <path class="cls-18" d="m98.03,93.29c-2.21.53-11.86,3.84-15.11,4.94-3.25,1.1-5.56-1.64-5.24-4.31.32-2.67,4.2-11.52,6.65-12.59,2.45-1.06,16.57,11.27,13.71,11.96Z"/>
          <path class="cls-18" d="m98.98,92.07c-1.48-2.93-10.82-13.56-8.82-15.8,2-2.24,11.47-5.03,14.36-2.9,2.9,2.14-4.29,21.19-5.55,18.7Z"/>
          <path class="cls-18" d="m102.26,96.27c3.9,2.65,10.95,7.16,14.49,10.34s9.26-2.59,9.93-8.17c.66-5.58-.13-6.87-2.59-7.67-2.46-.8-24.2,3.47-22.26,5.13l.43.37Z"/>
          <path class="cls-18" d="m124.1,84.24c-3.52-5.61-11.26-9.37-13.13-9.49-1.87-.12-9.94,18.95-8.45,18.1,1.49-.84,24.58-3.82,21.58-8.61Z"/>
          <path class="cls-11" d="m102.26,99.82c1.46,1.44,2.11,4.23.97,3.63-1.14-.6-4.66-7.26-.97-3.63Z"/>
          <path class="cls-11" d="m105.29,97.19c3.23,1.26,4.07-2.29,2.95-2.45-1.12-.17-7.75.58-2.95,2.45Z"/>
          <path class="cls-11" d="m96.66,92.47c-.38-1.8-4.47-3.33-4.54-1.98-.07,1.36,4.89,3.62,4.54,1.98Z"/>
        </g>
        <path class="cls-24" d="m71.37,67.52c-4.54,4.75,6.53,17.99,17.79,14.28,11.26-3.71-2.4-30.39-17.79-14.28Z"/>
        <path class="cls-22" d="m251.98,56.98c-18.77,28.7-83.9,60.92-129.36,50.53-27.68-6.33-35.04-33.51-50.72-47.92-1.06-.97-2.15-1.88-3.28-2.72-9.75-7.23-21.66-4.95-45.97-2.84-5.53.48,6.06-8.87,30.64-15.09C116.4,22.95,247.18-1.33,260.65.06c8.32.86,11.24,6.52,10.27,15.08h0c-1.22,10.7-8.51,25.9-18.93,41.84Z"/>
        <path class="cls-3" d="m57.38,62.49c-4.04,6.06,7.72,10.14,10.1,5.71s-5.56-12.53-10.1-5.71Z"/>
        <path class="cls-3" d="m57.27,82.09c-5.61,5.39,3.04,8.55,8.29,3.21,5.26-5.34-.37-10.82-8.29-3.21Z"/>
        <path class="cls-23" d="m87.46,137.95c2.29,5.36,6.35,3.55,9.12-.27s-12.72-8.14-9.12.27Z"/>
        <path class="cls-23" d="m97.39,133.64c1.01,1.69,2.21,2.47,4.64,1.06,2.43-1.41-6.3-3.86-4.64-1.06Z"/>
        <path class="cls-19" d="m26.73,118.82c-.41-.91-.71-1.88-.89-2.87-.57-3.11-.98-10.24-2.56-14.67-2.64-7.39-6.03-2.81-12.63-2.88,3.04-1.7,13.84-7.27,16.51-1.69,2.74,5.72-1.05,15.84-.43,22.11Z"/>
        <path class="cls-2" d="m270.92,15.13c-.82-13.61-43.79,2.8-113.68,15.73-72.12,13.35-85.06,28.72-85.06,28.72h-.28c-1.06-.96-2.15-1.88-3.28-2.72-9.75-7.23-21.66-4.95-45.97-2.84-5.53.48,6.06-8.87,30.64-15.09C116.4,22.95,247.18-1.33,260.65.06c8.32.86,11.24,6.52,10.27,15.08Z"/>
        <path class="cls-13" d="m110.45,72.26c6.72,6.65,59.07,26.07,92.16,7.72,33.1-18.35,44.77-38.46,43.29-44.55-1.49-6.1-170.18,2.45-135.45,36.83Z"/>
        <path class="cls-10" d="m156.14,94.67c.56,1.83-1.39,4.03-4.36,4.91-2.97.89-5.84.13-6.4-1.7-.56-1.83,1.39-4.03,4.36-4.91,2.97-.89,5.84-.13,6.4,1.7Z"/>
        <path class="cls-10" d="m173.19,95.99c.33,1.06-1,2.4-2.96,2.98-1.96.59-3.82.2-4.15-.86-.33-1.06,1-2.4,2.96-2.98,1.96-.59,3.82-.2,4.15.86Z"/>
        <path class="cls-10" d="m102.69,51.45c.33,1.06-1,2.4-2.96,2.98-1.96.59-3.82.2-4.15-.86-.33-1.06,1-2.4,2.96-2.98,1.96-.59,3.82-.2,4.15.86Z"/>
        <path class="cls-2" d="m130.11,39.02c.33,1.06-1,2.4-2.96,2.98-1.96.59-3.82.2-4.15-.86-.33-1.06,1-2.4,2.96-2.98,1.96-.59,3.82-.2,4.15.86Z"/>
        <path class="cls-2" d="m221.35,77.37c.36.8-.49,1.94-1.9,2.55-1.4.61-2.83.45-3.19-.34-.36-.8.49-1.94,1.9-2.55,1.4-.61,2.83-.45,3.19.34Z"/>
        <path class="cls-22" d="m226.08,58.83c.36.8-.49,1.94-1.9,2.55-1.4.61-2.83.45-3.19-.34-.36-.8.49-1.94,1.9-2.55,1.4-.61,2.83-.45,3.19.34Z"/>
        <path class="cls-22" d="m215.88,66.36c.87,1.38-.39,3.7-2.81,5.19-2.43,1.49-5.1,1.57-5.98.19-.87-1.38.39-3.7,2.81-5.19,2.43-1.49,5.1-1.57,5.98-.19Z"/>
        <path class="cls-2" d="m137.54,39.67c.29.66-.39,1.59-1.53,2.09-1.14.49-2.31.36-2.6-.29s.39-1.59,1.53-2.09c1.14-.49,2.31-.36,2.6.29Z"/>
        <path class="cls-8" d="m285.54,54.09c-11,18.95-69.86,50.84-99.38,64.39-31.11,14.27-89.88,32.9-91.46,30.4-.82-1.29,5.12-8.07,10.27-17.74.23.9,3.82,10.14,51.52-3.58,46.61-13.41,118.3-57.98,129.05-73.48Z"/>
        <path class="cls-8" d="m287.42,49.29c-.15.62-.33,1.25-.54,1.88.16-1.32.35-1.89.54-1.88Z"/>
      </g>
      <g>
        <path class="cls-15" d="m219.95,104.51c.85,9.37-6.32,17.67-16.01,18.55-9.69.88-18.23-6.01-19.08-15.38-.04-.42-.06-.84-.07-1.26-.12-8.84,6.83-16.45,16.08-17.28,4.63-.42,9.01.93,12.4,3.49h0c3.7,2.78,6.24,6.99,6.68,11.88Z"/>
        <path class="cls-14" d="m219.95,104.51c.85,9.37-6.32,17.67-16.01,18.55-9.69.88-18.23-6.01-19.08-15.38-.04-.42-.06-.84-.07-1.26l.04-.1s2.79,16.19,19.05,11.84c19.19-5.13,12.82-21.73,9.39-25.53,3.7,2.78,6.24,6.99,6.68,11.88Z"/>
        <path class="cls-27" d="m202.62,104.13c1.49,3.37.89,8.92-3.68,10.94s-10.9-2.85-12.39-6.22c-1.49-3.37,1-7.74,5.57-9.77,4.57-2.02,9,1.68,10.49,5.05Z"/>
        <path class="cls-14" d="m188.46,102.51c-.13-.38,6.5-6.05,10.48-6.01,0,0,.21,4.55.61,5.7s1.06,2.98,1.06,2.98c0,0,1.26-6.97,3.75-7.98,2.49-1.02,8.41,3.01,8.41,3.01,0,0-3.15-7.36-5.51-7.15-2.36.21-1.97-.91-1.97-.91,0,0,1.86-2.45,2.78-2.24.91.22-4.92-1.74-6.41.48-1.49,2.22-6.73,2.4-8.14,3.32-1.41.92-3.92,4.92-4.23,5.94-.3,1.02-.83,2.86-.83,2.86Z"/>
        <path class="cls-9" d="m200.61,105.18c-2.12-2.59-3.07-8.66-2.05-9.45,1.02-.79-4.13-.62-6.77,2-2.64,2.62-3.36,5.67-3.48,4.39s1.46-6.88,4.15-9.01c2.69-2.13,7.27-1.95,8.03-1.22.76.73-4.12-1.61-2.9-2.42,1.22-.81,8.6-.48,8.44.03-.15.51-2.73,2.73-1.57,2.43s4.22-.58,5.99,1.44,2.76,7.5,2.31,6.84c-.46-.65-8.74-5.56-9.29-5.02-.26.26-2.21,2.73-2.82,5.02-.69,2.57-.05,4.97-.05,4.97Z"/>
        <path class="cls-17" d="m200.15,92.12c-1.39.52-4.61.04-4.5,1.3.11,1.26,5.2-.99,4.63,1-.57,1.99.66,1.58,1.31.48s3.08-1.4,3.85-1.02c.78.38-.62-1.95-2.38-1.57-1.75.38.91-1.42.29-1.74-.62-.32-3.15-.24-3.1.35.05.59.68.91-.11,1.2Z"/>
        <path class="cls-15" d="m186.23,127.53c1.04,11.55-7.79,21.78-19.74,22.86-11.94,1.08-22.47-7.41-23.51-18.95-.05-.52-.07-1.04-.08-1.56-.15-10.89,8.42-20.27,19.82-21.3,5.71-.52,11.1,1.15,15.28,4.3h0c4.56,3.43,7.69,8.62,8.24,14.65Z"/>
        <path class="cls-14" d="m186.23,127.53c1.04,11.55-7.79,21.78-19.74,22.86-11.94,1.08-22.47-7.41-23.51-18.95-.05-.52-.07-1.04-.08-1.56l.05-.12s3.44,19.96,23.49,14.6c23.65-6.32,15.8-26.78,11.57-31.47,4.56,3.43,7.69,8.62,8.24,14.64Z"/>
        <path class="cls-27" d="m164.86,127.07c1.84,4.16,1.1,10.99-4.53,13.48-5.63,2.49-13.43-3.51-15.27-7.67-1.84-4.16,1.24-9.54,6.87-12.04,5.63-2.49,11.09,2.07,12.93,6.22Z"/>
        <path class="cls-14" d="m147.41,125.07c-.17-.47,8.02-7.46,12.92-7.41,0,0,.26,5.61.76,7.03.5,1.42,1.31,3.68,1.31,3.68,0,0,1.55-8.58,4.62-9.84,3.07-1.26,10.37,3.71,10.37,3.71,0,0-3.88-9.07-6.79-8.81-2.91.26-2.43-1.13-2.43-1.13,0,0,2.3-3.02,3.42-2.76,1.13.27-6.07-2.14-7.9.59-1.83,2.74-8.3,2.95-10.03,4.09-1.73,1.14-4.84,6.07-5.21,7.32s-1.03,3.52-1.03,3.52Z"/>
        <path class="cls-9" d="m162.4,128.36c-2.61-3.19-3.78-10.67-2.52-11.64,1.26-.97-5.09-.76-8.34,2.47-3.26,3.23-4.14,6.98-4.28,5.41-.14-1.58,1.8-8.49,5.12-11.11,3.31-2.62,8.96-2.4,9.9-1.51.94.89-5.08-1.99-3.57-2.98,1.5-.99,10.59-.59,10.41.04-.19.63-3.37,3.36-1.93,2.99,1.43-.37,5.2-.71,7.38,1.78,2.18,2.5,3.41,9.24,2.84,8.43s-10.78-6.86-11.45-6.19c-.32.32-2.72,3.37-3.48,6.19-.85,3.17-.06,6.12-.06,6.12Z"/>
        <path class="cls-17" d="m161.83,112.26c-1.72.64-5.69.06-5.55,1.6s6.41-1.22,5.71,1.23c-.7,2.45.82,1.95,1.61.59.8-1.36,3.79-1.72,4.75-1.26.96.46-.77-2.41-2.93-1.94-2.16.47,1.13-1.75.36-2.14-.77-.39-3.88-.29-3.82.44.07.73.84,1.12-.14,1.48Z"/>
        <path class="cls-15" d="m243.5,137.19c1.15,12.77-8.87,24.11-22.39,25.33-13.51,1.22-25.41-8.14-26.56-20.91-.05-.58-.08-1.15-.09-1.72-.15-12.05,9.58-22.44,22.48-23.61,6.46-.58,12.56,1.25,17.28,4.73h0c5.16,3.79,8.68,9.52,9.29,16.18Z"/>
        <path class="cls-14" d="m243.5,137.19c1.15,12.77-8.87,24.11-22.39,25.33-13.51,1.22-25.41-8.14-26.56-20.91-.05-.58-.08-1.15-.09-1.72l.05-.14s3.84,22.07,26.54,16.09c26.78-7.05,17.94-29.66,13.16-34.84,5.16,3.78,8.68,9.51,9.29,16.18Z"/>
        <path class="cls-27" d="m219.32,136.73c2.07,4.59,1.22,12.15-5.16,14.92-6.38,2.77-15.19-3.85-17.26-8.45-2.07-4.59,1.42-10.56,7.8-13.33,6.38-2.77,12.55,2.26,14.62,6.85Z"/>
        <path class="cls-14" d="m199.58,134.56c-.19-.52,9.09-8.27,14.63-8.23,0,0,.28,6.2.84,7.77.56,1.57,1.48,4.06,1.48,4.06,0,0,1.77-9.5,5.25-10.9s11.73,4.08,11.73,4.08c0,0-4.37-10.03-7.67-9.73-3.3.3-2.74-1.24-2.74-1.24,0,0,2.61-3.35,3.88-3.06s-6.86-2.36-8.94.67c-2.08,3.03-9.4,3.29-11.36,4.55-1.96,1.26-5.49,6.72-5.92,8.11s-1.17,3.9-1.17,3.9Z"/>
        <path class="cls-9" d="m216.53,138.17c-2.95-3.52-4.25-11.8-2.83-12.87,1.43-1.08-5.76-.83-9.45,2.75-3.69,3.58-4.7,7.73-4.86,5.99-.16-1.75,2.06-9.39,5.81-12.3,3.75-2.91,10.15-2.68,11.21-1.69s-5.74-2.19-4.04-3.29,11.99-.68,11.78.02c-.21.7-3.82,3.73-2.19,3.31,1.62-.42,5.88-.8,8.35,1.95,2.47,2.76,3.83,10.21,3.2,9.32s-12.18-7.56-12.95-6.82c-.36.35-3.08,3.73-3.95,6.85-.97,3.51-.08,6.78-.08,6.78Z"/>
        <path class="cls-17" d="m215.92,120.36c-1.94.71-6.44.07-6.28,1.79.15,1.71,7.25-1.37,6.46,1.35-.79,2.71.92,2.15,1.82.65.9-1.5,4.3-1.91,5.38-1.4,1.09.51-.86-2.66-3.31-2.14-2.45.53,1.28-1.94.41-2.37-.87-.43-4.39-.31-4.32.49.07.81.94,1.23-.16,1.64Z"/>
        <path class="cls-1" d="m164.73,112.55c-1.55-9.95,16.19-12.22,22.74-12.89,7.84-.8,15.66-.16,23.37,1.42,14.64,3,27.89,10.61,40.69,18.05,10.2,5.92,20.13,12.3,29.78,19.08,3.12,2.19,6.21,4.42,9.24,6.74.86.65,3.6,2.6,3.78,2.99.73,1.55,3.04.2,2.31-1.35-.63-1.33-2.8-2.46-3.92-3.32-3.76-2.9-7.63-5.67-11.52-8.39-12.51-8.71-25.49-16.79-38.93-23.99-14.9-7.98-30.17-14.24-47.37-14.28-9.6-.02-35.05,1.81-32.74,16.64.26,1.69,2.84.97,2.58-.71h0Z"/>
        <path class="cls-1" d="m222.27,101.96c-10.24.97-9.1,11.77-5.39,18.69.61,1.13,2.33.13,1.73-1.01-2.84-5.3-4.99-14.87,3.67-15.68,1.27-.12,1.28-2.12,0-2h0Z"/>
        <path class="cls-1" d="m202.79,92.51c3.02-3.8,8.47-5.39,12.24-1.6,2.98,3,2.96,7.18,4.5,10.84.35.83,1.73.47,1.38-.38-2.03-4.83-2.08-10.88-7.57-13.39-4.18-1.91-8.87.14-11.56,3.52-.56.71.44,1.73,1.01,1.01h0Z"/>
      </g>
    </g>
  </g>
</svg>