<?xml version="1.0" encoding="UTF-8"?>
<svg xmlns="http://www.w3.org/2000/svg" xmlns:xlink="http://www.w3.org/1999/xlink" viewBox="0 0 571.34 315.09">
  <defs>
    <style>
      .cls-1, .cls-2, .cls-3, .cls-4 {
        mix-blend-mode: multiply;
      }

      .cls-1, .cls-3, .cls-5 {
        opacity: .1;
      }

      .cls-1, .cls-4, .cls-6 {
        fill: #231f20;
      }

      .cls-2, .cls-7, .cls-8, .cls-9, .cls-10, .cls-11, .cls-12, .cls-13, .cls-14 {
        fill: none;
      }

      .cls-2, .cls-7, .cls-4, .cls-12 {
        opacity: .2;
      }

      .cls-15 {
        fill: url(#linear-gradient-2);
      }

      .cls-16 {
        fill: #00782a;
      }

      .cls-17, .cls-18, .cls-19, .cls-5 {
        fill: #fff;
      }

      .cls-7, .cls-18, .cls-19, .cls-5 {
        mix-blend-mode: overlay;
      }

      .cls-8 {
        opacity: .8;
      }

      .cls-20 {
        fill: #4c352d;
      }

      .cls-18, .cls-13 {
        opacity: .3;
      }

      .cls-21 {
        fill: #cddddd;
      }

      .cls-3 {
        fill: #808285;
      }

      .cls-22 {
        fill: #ae9076;
      }

      .cls-23 {
        fill: #19965f;
      }

      .cls-9 {
        isolation: isolate;
      }

      .cls-24 {
        fill: #8c9393;
      }

      .cls-10 {
        opacity: .6;
      }

      .cls-25 {
        fill: url(#linear-gradient-5);
      }

      .cls-11 {
        opacity: .5;
      }

      .cls-26 {
        fill: url(#linear-gradient-3);
      }

      .cls-19, .cls-14 {
        opacity: .15;
      }

      .cls-27 {
        fill: #b9c6c6;
      }

      .cls-28 {
        fill: url(#linear-gradient);
      }

      .cls-29 {
        fill: #480902;
      }

      .cls-30 {
        fill: url(#linear-gradient-4);
      }
    </style>
    <linearGradient id="linear-gradient" x1="365.51" y1="52.51" x2="446.28" y2="125.97" gradientUnits="userSpaceOnUse">
      <stop offset=".18" stop-color="#edce80"/>
      <stop offset=".33" stop-color="#efcb6a"/>
      <stop offset=".57" stop-color="#f5c73e"/>
      <stop offset=".71" stop-color="#efc03c"/>
      <stop offset=".85" stop-color="#e5b439"/>
    </linearGradient>
    <linearGradient id="linear-gradient-2" x1="228.86" y1="338.62" x2="315.9" y2="287.09" gradientTransform="translate(138.23 -112.51) rotate(5.81)" gradientUnits="userSpaceOnUse">
      <stop offset=".18" stop-color="#edce80"/>
      <stop offset=".28" stop-color="#eecc75"/>
      <stop offset=".44" stop-color="#f1c958"/>
      <stop offset=".57" stop-color="#f5c73e"/>
      <stop offset=".68" stop-color="#efc03c"/>
      <stop offset=".78" stop-color="#e5b439"/>
    </linearGradient>
    <linearGradient id="linear-gradient-3" x1="394.05" y1="250.14" x2="454.28" y2="159.61" gradientUnits="userSpaceOnUse">
      <stop offset=".11" stop-color="#edce80"/>
      <stop offset=".21" stop-color="#eecc75"/>
      <stop offset=".38" stop-color="#f1ca5a"/>
      <stop offset=".53" stop-color="#f5c73e"/>
      <stop offset=".56" stop-color="#f3c53d"/>
      <stop offset=".78" stop-color="#e5b439"/>
    </linearGradient>
    <linearGradient id="linear-gradient-4" x1="415.2" y1="66.23" x2="454.55" y2="150.14" gradientUnits="userSpaceOnUse">
      <stop offset=".12" stop-color="#edce80"/>
      <stop offset=".63" stop-color="#f5c73e"/>
      <stop offset=".76" stop-color="#efc03c"/>
      <stop offset=".89" stop-color="#e5b439"/>
    </linearGradient>
    <linearGradient id="linear-gradient-5" x1="574.01" y1="159.65" x2="375.57" y2="164.17" gradientUnits="userSpaceOnUse">
      <stop offset=".14" stop-color="#edce80"/>
      <stop offset=".53" stop-color="#f5c73e"/>
      <stop offset=".65" stop-color="#efc03c"/>
      <stop offset=".78" stop-color="#e5b439"/>
    </linearGradient>
  </defs>
  <g class="cls-9">
    <g id="Calque_2" data-name="Calque 2">
      <g id="Layer_1" data-name="Layer 1">
        <g id="peking_duck2" data-name="peking duck2">
          <path class="cls-27" d="m571.34,153.76v19.01c0,78.6-127.89,142.31-285.67,142.31S0,251.37,0,172.78v-19.01h571.34Z"/>
          <path class="cls-1" d="m571.34,141.49v19.01c0,78.6-127.89,142.31-285.67,142.31S0,239.1,0,160.5v-19.01h571.34Z"/>
          <ellipse class="cls-21" cx="285.67" cy="153.76" rx="285.67" ry="142.31"/>
          <path class="cls-1" d="m20.46,153.76C20.46,76.87,142.87,14.23,295.9,11.55c-3.4-.06-6.8-.1-10.23-.1C127.9,11.45,0,75.17,0,153.76s127.9,142.31,285.67,142.31c3.43,0,6.83-.04,10.23-.1-153.03-2.68-275.44-65.32-275.44-142.21Z"/>
          <g>
            <polygon class="cls-16" points="274.22 99.57 261.97 99.31 239.63 5.61 277 0 274.22 99.57"/>
            <path class="cls-4" d="m256.06,74.55l5.9,24.77,12.26.26,1.39-49.99c-3.09,13.91-8.28,22.83-19.55,24.97Z"/>
            <polygon class="cls-16" points="332.74 114.16 321.8 109.94 389.92 20.4 427.49 24.03 332.74 114.16"/>
            <path class="cls-4" d="m348.49,74.83l-26.69,35.11,10.94,4.22,13.2-14.83c-7.53-5.77-1.5-15.1,2.55-24.5Z"/>
            <polygon class="cls-16" points="323.17 103.18 311.61 99.51 358.83 8.57 395.65 10.64 323.17 103.18"/>
            <polygon class="cls-16" points="303.98 99.54 291.75 97.44 321.97 5.82 351.55 18.23 303.98 99.54"/>
            <g class="cls-2">
              <path class="cls-6" d="m297.95,75.36l-6.2,22.09,12.23,2.09,21.22-36.27c-7,5.67-17.96,9.82-27.25,12.09Z"/>
            </g>
            <polygon class="cls-23" points="302.36 125.74 291.44 121.52 350.06 31.98 386.89 35.61 302.36 125.74"/>
            <path class="cls-4" d="m311.61,90.71l-20.17,30.81,10.91,4.22,40.87-43.57c-10.03,6.08-19.27,12.78-31.61,8.54Z"/>
            <polygon class="cls-16" points="287.16 98.73 274.74 96.56 284.69 8.26 317.88 8.76 287.16 98.73"/>
            <path class="cls-4" d="m278.29,65.02l-3.55,31.53,12.43,2.17,3.39-11.64c-8.03-4.34-11.39-12.43-12.27-22.06Z"/>
            <polygon class="cls-23" points="291.93 122.51 281.4 121.01 292.41 26.45 328.31 23.68 291.93 122.51"/>
            <g class="cls-2">
              <path class="cls-6" d="m294.39,86.15c-2.84.74-5.77.19-8.86-.54l-4.12,35.4,10.53,1.5,19.68-53.47c-4.03,7.97-10.79,14.91-17.23,17.11Z"/>
            </g>
            <polygon class="cls-16" points="257.64 103.94 240.28 106.33 198.14 9.79 233.88 9.94 257.64 103.94"/>
            <path class="cls-4" d="m246.37,81.39c-5.45,1.76-11.21.86-16.41-1.59l10.32,26.53,17.36-2.38-5.68-25.08c-1.68,1.27-3.53,2.2-5.59,2.52Z"/>
            <polygon class="cls-23" points="272.53 110.89 260.79 111.47 233.44 27.92 263.88 22.6 272.53 110.89"/>
            <g class="cls-2">
              <path class="cls-6" d="m251.89,84.28l8.9,27.19,11.74-.58-4.25-43.42c-1.62,9.04-5.5,16.98-16.39,16.8Z"/>
            </g>
            <polygon class="cls-16" points="232.57 109.08 151.75 33.71 178.41 17.9 244.37 103.47 232.57 109.08"/>
            <path class="cls-4" d="m207.91,86.09l24.66,23,11.8-5.61-6.39-9.71c-9.61.77-21.03-2.42-30.06-7.67Z"/>
            <polygon class="cls-23" points="258.83 115.73 246.29 119.78 230.64 96.69 183.81 38.44 214.82 25.82 236.41 66.05 258.83 115.73"/>
            <path class="cls-4" d="m258.83,115.73l-12.54,4.05-15.65-23.09c3.47-2.87,6.78-5.93,7.87-9.52,1.66-5.29.54-11.26-2.11-21.12l22.42,49.68Z"/>
            <polygon class="cls-16" points="347.35 118.43 336.27 119.36 421.4 33.08 433.81 47.87 347.35 118.43"/>
            <g class="cls-2">
              <path class="cls-6" d="m356.23,99.13l-19.96,20.23,11.08-.93,31.13-25.41c-3.37,1.85-8.75,3.39-12.04,5.26-3.77,2.04-8.31,3.66-10.21.85Z"/>
            </g>
            <polygon class="cls-23" points="321.49 119.54 323.74 128.73 415.1 48.47 391.05 42.84 321.49 119.54"/>
            <path class="cls-4" d="m342.8,96.05l-21.31,23.49,2.25,9.2,41.56-36.51c-5.67,4.6-10.74,5.19-14.98,6.52-4.77,1.02-6.25.82-7.52-2.69Z"/>
          </g>
          <path class="cls-1" d="m230.64,178.59c11.9,8.6,34.78,8.58,49.45,8.91,18.4.42,34.84-.08,52.52-5.2,4.1-1.19,8.28-2.59,11.49-5.39s5.25-7.37,3.93-11.42c-.98-3.01-3.64-5.25-6.56-6.47-2.93-1.22-6.13-1.56-9.29-1.84-17.07-1.53-34.26-1.8-51.38-.83-8.45.48-16.89,1.26-25.28,2.35-4.41.57-8.8,1.22-13.19,1.96-3.37.57-9.34.37-12.4,1.97-7.57,3.96-7.44,10.05.72,15.95Z"/>
          <g>
            <path class="cls-27" d="m363.68,116.99s-2.24,7.76-6.9,17.99c-6.49,14.29-17.71,33.39-34.1,42.9-11.1,2.56-23.82,4.01-37.34,4.01s-26.24-1.45-37.34-4.01h-.01c-16.38-9.51-27.59-28.63-34.09-42.9-4.66-10.23-6.9-17.99-6.9-17.99l44.17,1.73,34.17,1.34,34.19-1.34,44.15-1.73Z"/>
            <path class="cls-1" d="m250.92,169.65c-18.15-8.6-29.61-32.28-33.36-52.66h-10.56s2.24,7.76,6.9,17.99c6.49,14.28,17.7,33.39,34.09,42.9h.01c11.1,2.56,23.82,4.01,37.34,4.01s26.24-1.45,37.34-4.01c3.34-1.94,6.45-4.29,9.37-6.9-25.67,11.51-55.66,10.99-81.13-1.33Z"/>
            <path class="cls-21" d="m363.68,116.99c0,6.57-4.49,12.69-12.22,17.85-13.9,9.26-38.32,15.4-66.12,15.4s-51.14-5.87-65.18-14.8c-.33-.2-.64-.42-.96-.62-7.73-5.15-12.2-11.26-12.2-17.83,0-18.36,35.08-33.25,78.34-33.25,39.54,0,72.25,12.44,77.57,28.6.51,1.52.77,3.08.77,4.65Z"/>
            <path class="cls-20" d="m354,127.52c0,2.54-.88,4.98-2.54,7.31-13.9,9.26-38.32,15.4-66.12,15.4s-51.14-5.87-65.18-14.8c-.33-.2-.64-.42-.96-.62-1.64-2.32-2.52-4.77-2.52-7.29,0-14.95,30.74-27.07,68.66-27.07,34.65,0,63.31,10.12,67.98,23.29.45,1.24.67,2.51.67,3.78Z"/>
            <path class="cls-1" d="m238.17,123.95c-3.31-4.26-2.19-12.25.42-16.24-13.46,4.94-21.9,11.99-21.9,19.81,0,2.53.88,4.97,2.52,7.29.32.2.63.42.96.62,14.04,8.93,37.99,14.8,65.18,14.8,16.24,0,31.32-2.1,43.83-5.69-32.14,4.73-75.38-.49-91.01-20.6Z"/>
            <path class="cls-24" d="m362.92,112.33c-5.33-16.16-38.04-28.6-77.57-28.6-43.26,0-78.34,14.89-78.34,33.25,0,6.57,4.47,12.67,12.2,17.83.32.2.63.42.96.62,14.04,8.93,37.99,14.8,65.18,14.8s52.22-6.15,66.12-15.4c7.73-5.15,12.22-11.28,12.22-17.85,0-1.57-.26-3.13-.77-4.65Zm-13.66,21.9c-13.44,8.95-37.04,14.89-63.91,14.89s-49.43-5.67-63-14.31c-.32-.2-.62-.41-.93-.6-7.47-4.98-11.79-10.88-11.79-17.23,0-17.75,33.91-32.14,75.73-32.14,38.22,0,69.83,12.02,74.98,27.64.49,1.47.74,2.98.74,4.5,0,6.35-4.34,12.27-11.81,17.25Z"/>
            <path class="cls-18" d="m352.38,138.07c-3.45,6.29-6.92,12.62-11.36,18.25s-9.95,10.59-16.55,13.41c-4.58,1.95-11.55,3.69-16.5,4.16-27.6,2.59-57.71.07-73.86-27.94,34.45,10.72,69.13,11.47,103.37.1,4.28-1.42,12.35-4.24,14.9-7.96Z"/>
            <path class="cls-5" d="m247.85,124.34c-1.08-1.01-2.07-2.11-2.93-3.31-2.02-2.81-1.29-6.95.81-9.63,2.7-3.45,7.41-4.5,11.75-5.14,16.7-2.48,33.2-1.89,49.92-.03,9.77,1.08,19.32,3.67,28.24,7.83,2.71,1.26,5.4,2.7,7.48,4.85,2.07,2.15,3.46,5.15,3.05,8.11-.33,2.42-1.83,4.56-3.71,6.11s-4.15,2.56-6.43,3.43c-13.34,5.07-28.66,5.49-42.77,4.75-14.31-.75-27.71-5.36-39.86-12.83-1.96-1.2-3.85-2.56-5.54-4.14Z"/>
            <g class="cls-12">
              <path class="cls-17" d="m294.98,108.35c11.74.4,43.2,2.17,46.81,15.64.21.8.26,1.75.22,2.57,0,.12-.18.14-.2.02-1.38-8.02-13.84-11.47-20.64-13.62-8.55-2.28-17.38-3.61-26.21-4.4-.12,0-.12-.21,0-.2h0Z"/>
            </g>
          </g>
          <g>
            <path class="cls-29" d="m195.06,112.42s21.2-34.5-15.41-68.46c0,0-31-26.92-58.25-7.8l25.33,8.98s41.14,37.92,41.55,38.59c.42.67,6.77,28.69,6.77,28.69Z"/>
            <path class="cls-4" d="m151.85,34.96c-1.98-1.17-2.14-2.52-2.14-2.52-.07-1.26.63-2.01,2.8-2.07-9.61-2.11-20.63-1.56-31.11,5.78l25.33,8.98s27.48,25.33,37.74,34.95c1.92-19.51-12.66-36.88-32.63-45.13Z"/>
            <path class="cls-22" d="m122.63,36.79s14.94,8.69,13.92,32.79c0,0,44.88,45.3,58.52,42.85,0,0,10.19-23.67-19.63-58.34,0,0-19.67-25-52.8-17.3Z"/>
            <path class="cls-4" d="m195.06,112.42s10.19-23.67-19.63-58.34c0,0-19.33-24.56-51.94-17.48,31.03-.31,63.13,23.44,64.24,53.24.31,10.41-7.61,11.76-16.5,10.62,9.64,7.35,18.83,12.86,23.83,11.96Z"/>
            <path class="cls-4" d="m173.91,54.41c28.08,32.64,20.69,55.53,19.73,58.09.51.02.99,0,1.43-.09,0,0,10.19-23.67-19.63-58.34,0,0-19.33-24.56-51.94-17.48.07,0,.15,0,.22,0,31.55-5.85,50.2,17.82,50.2,17.82Z"/>
            <path class="cls-18" d="m153.1,32.19c-1.58.28,1.01,2.46,2.44,3.1,2.26,1.01,6.94,3.44,8.05,4.22,21.47,14.95,33.71,36.3,34.09,59.2.01.69,1.12.71,1.25.03,2.41-12.71-.47-25.25-6.98-36.63-3.28-5.73-7.48-11.86-12.64-16.18-5.2-4.36-10.18-7.41-16.79-10.58-1.36-.65-8.08-3.41-9.42-3.17Z"/>
            <path class="cls-18" d="m180.87,76.28c1.89,3.81,3.41,8.04,2.53,12.23-.89,4.19-4.98,8.11-9.45,7.64-3.25-.34-6.39-2.39-8.56-4.65-5.43-5.66-9.79-8.84-15.23-14.5-2.56-2.67-8.25-5.22-9.71-8.56-1.26-2.88.99-7.64.37-12.13-.44-3.18-1.95-6.13-3.53-8.94-1.35-2.4-4.89-5.3-5.49-7.78,7.82.35,16.81,5.16,23.19,9.02,7.11,4.31,13.41,9.78,18.5,16.13,2.87,3.59,5.36,7.45,7.38,11.54Z"/>
            <g class="cls-14">
              <path class="cls-21" d="m166.21,38.37c15.19,7.19,26.88,21.28,31.14,37.56,1.47,5.38,2.25,11.05,1.48,16.56,0-2.77-.34-5.5-.9-8.18-3.93-19.33-15.33-35.13-31.72-45.94h0Z"/>
            </g>
            <g class="cls-8">
              <path class="cls-21" d="m156.8,53.36c12.99,6.79,24.06,19.37,25.72,34.32-.35-1.28-.71-2.72-1.04-4.01-4.06-12.76-13.66-23.04-24.68-30.31h0Z"/>
            </g>
          </g>
          <g>
            <path class="cls-29" d="m190.81,116.01s.3-47.33-56.54-63c0,0-47.03-11.36-62.61,23.21l30.59-4.28s63.74,17.37,64.55,17.84c.82.47,24.01,26.23,24.01,26.23Z"/>
            <path class="cls-4" d="m101.2,58.59c-2.67-.15-3.65-1.47-3.65-1.47-.83-1.28-.58-2.43,1.54-3.66-10.82,2.97-21.46,9.47-27.45,22.76l30.59-4.28s42.57,11.6,58.57,16.1c-9.85-21.35-34.79-31.6-59.61-29.44Z"/>
            <path class="cls-22" d="m73.24,76.21s20.09,1.02,33.58,26.66c0,0,71.9,23.03,83.98,13.14,0,0-4.12-30.13-54.65-50.19,0,0-34.61-15.46-62.92,10.39Z"/>
            <path class="cls-4" d="m190.81,116.01s-4.12-30.13-54.65-50.19c0,0-34.01-15.18-62.17,9.73,30.66-17.01,76.88-9.55,95.93,20.89,6.58,10.68-.49,16.34-10.01,19.93,14.01,2.46,26.47,3.26,30.9-.36Z"/>
            <path class="cls-4" d="m134.84,66.98c47.58,18.89,54.01,46.7,54.6,49.89.52-.25.98-.54,1.37-.86,0,0-4.12-30.13-54.65-50.19,0,0-34.01-15.18-62.17,9.73.07-.04.15-.08.22-.12,27.85-23.06,60.64-8.45,60.64-8.45Z"/>
            <path class="cls-18" d="m100.77,55.03c-1.41,1.14,2.49,2.02,4.3,1.92,2.86-.17,8.98-.15,10.55.06,30.35,4.02,55.38,19.67,69.55,43.31.43.71,1.54.14,1.26-.64-5.25-14.53-15.67-26.04-29-34.39-6.71-4.2-14.58-8.32-22.31-10.05-7.8-1.74-14.59-2.24-23.06-1.98-1.74.05-10.09.79-11.28,1.76Z"/>
            <path class="cls-18" d="m154.93,86.01c4.17,2.95,8.24,6.54,9.88,11.37s-.07,11.12-4.8,13.04c-3.44,1.4-7.79.95-11.31-.23-8.81-2.97-15.06-3.94-23.87-6.91-4.15-1.4-11.35-1-14.81-3.69-2.99-2.32-3.62-8.49-6.93-12.83-2.35-3.07-5.63-5.34-8.89-7.42-2.79-1.77-8.05-2.89-10.14-5.15,7.99-3.84,19.83-3.67,28.49-3.08,9.67.66,19.22,2.97,28.1,6.85,5.02,2.19,9.82,4.88,14.29,8.04Z"/>
            <g class="cls-14">
              <path class="cls-21" d="m117.53,54.42c20.02-.45,39.84,8.17,53.66,22.59,4.64,4.74,8.77,10.13,11.36,16.22-1.63-2.87-3.57-5.52-5.71-8-15.21-17.81-36.01-28.54-59.31-30.81h0Z"/>
            </g>
            <g class="cls-8">
              <path class="cls-21" d="m117.21,75.09c17.46.26,35.71,7.55,46.23,21.91-1.53-1.53-2.95-3.3-4.61-4.68-11.27-10.4-26.53-15.7-41.62-17.23h0Z"/>
            </g>
          </g>
          <g>
            <path class="cls-29" d="m181.22,130.28s-14.31-53.15-82.87-53.14c0,0-56.23,1.81-63.01,45.39l32.97-14.26s76.82-.24,77.88.04c1.07.28,35.02,21.98,35.02,21.98Z"/>
            <path class="cls-4" d="m63.02,93.63c-3.04.66-4.54-.52-4.54-.52-1.33-1.17-1.4-2.55.6-4.58-11.21,6.68-21.13,17.25-23.73,34l32.97-14.26s51.31-.16,70.64-.07c-17.64-20.89-48.78-24.67-75.93-14.57Z"/>
            <path class="cls-22" d="m37.12,122.02s22.83-5.07,45.89,19.5c0,0,87.72,3.59,98.21-11.24,0,0-13.94-32.5-76.78-39.36,0,0-43.58-6.62-67.31,31.11Z"/>
            <path class="cls-4" d="m181.22,130.28s-13.94-32.5-76.78-39.36c0,0-42.82-6.5-66.68,30.13,29.11-28.55,83.23-34.48,114-6.25,10.68,9.94,4.51,18.46-5.06,25.44,16.47-1.57,30.68-4.53,34.52-9.96Z"/>
            <path class="cls-4" d="m103.32,92.63c59.17,6.46,74.99,35.65,76.63,39.04.5-.44.93-.91,1.27-1.39,0,0-13.94-32.5-76.78-39.36,0,0-42.82-6.5-66.68,30.13.07-.07.14-.13.21-.2,24.09-34.46,65.36-28.22,65.36-28.22Z"/>
            <path class="cls-18" d="m61.43,89.76c-1.22,1.72,3.41,1.5,5.41.82,3.15-1.07,10.02-2.94,11.84-3.19,35.26-4.88,68.16,4.92,91.36,27.05.7.67,1.77-.32,1.21-1.11-10.38-14.66-25.62-24.35-43.14-29.58-8.82-2.64-18.92-4.82-28.11-4.37-9.28.46-17.05,2-26.47,4.91-1.93.6-11.07,4.01-12.1,5.47Z"/>
            <path class="cls-18" d="m131.72,107.75c5.58,2.02,11.25,4.78,14.59,9.7,3.33,4.91,3.36,12.49-1.35,16.1-3.43,2.63-8.44,3.48-12.75,3.24-10.79-.61-18.1.24-28.9-.37-5.09-.29-13.03,2.39-17.74.44-4.07-1.68-6.68-8.4-11.74-12.24-3.59-2.72-7.96-4.24-12.26-5.56-3.67-1.13-9.92-.75-12.96-2.64,7.77-6.78,21.09-10.25,30.98-12.26,11.04-2.24,22.47-2.61,33.62-1.01,6.3.9,12.51,2.43,18.5,4.6Z"/>
            <g class="cls-14">
              <path class="cls-21" d="m80.02,83.9c26.07-7.64,55.38-1.41,76.67,15.33,2.97,2.44,5.88,5.01,8.23,8.07-2.69-2.74-5.68-5.13-8.83-7.27-22.61-15.41-49.14-21-76.07-16.13h0Z"/>
            </g>
            <g class="cls-8">
              <path class="cls-21" d="m86.06,107.17c19.64-4.98,42.37-2.56,58.6,10.26-2.15-1.38-4.29-2.77-6.58-3.89-15.86-8.22-34.63-9.45-52.02-6.37h0Z"/>
            </g>
          </g>
          <g>
            <path class="cls-29" d="m178.63,145.68s-28.46-47.12-94.34-28.13c0,0-53.53,17.3-47.99,61.05l27.74-22.83s73.75-21.49,74.85-21.52c1.1-.03,39.74,11.43,39.74,11.43Z"/>
            <path class="cls-4" d="m54.9,143.16c-2.74,1.47-4.51.76-4.51.76-1.6-.76-2.05-2.06-.69-4.57-8.93,9.52-15.53,22.42-13.39,39.24l27.74-22.83s49.26-14.36,67.86-19.62c-22.73-15.19-53.7-10.2-77,7.01Z"/>
            <path class="cls-22" d="m37.88,177.62s20.54-11.19,49.49,6.04c0,0,85.29-20.83,91.26-37.98,0,0-22.39-27.38-84.68-16.58,0,0-43.71,5.7-56.08,48.52Z"/>
            <path class="cls-4" d="m178.63,145.68s-22.39-27.38-84.68-16.58c0,0-42.95,5.61-55.74,47.41,20.07-35.49,70.44-56.17,107.82-37.55,13.01,6.59,9.44,16.49,2.18,25.85,15.39-6.07,28.23-12.84,30.42-19.13Z"/>
            <path class="cls-4" d="m93.35,131.06c58.65-10.17,81.92,13.51,84.44,16.31.36-.57.64-1.13.83-1.69,0,0-22.39-27.38-84.68-16.58,0,0-42.95,5.61-55.74,47.41.05-.08.1-.16.14-.25,13.61-39.78,55-45.21,55-45.21Z"/>
            <path class="cls-18" d="m52.31,139.89c-.7,1.99,3.7.5,5.42-.71,2.73-1.9,8.81-5.6,10.5-6.35,32.54-14.45,66.86-14.14,95.27.71.86.45,1.61-.8.86-1.4-14.04-11.22-31.35-16.3-49.64-16.49-9.21-.09-19.52.6-28.22,3.59-8.79,3.01-15.83,6.64-24.07,12.05-1.69,1.11-9.52,6.92-10.12,8.6Z"/>
            <path class="cls-18" d="m124.83,137.72c5.93.4,12.14,1.48,16.7,5.28,4.56,3.8,6.69,11.07,3.16,15.85-2.56,3.47-7.15,5.68-11.36,6.64-10.54,2.4-17.33,5.24-27.87,7.65-4.97,1.13-11.86,5.9-16.92,5.34-4.37-.49-8.75-6.23-14.67-8.51-4.2-1.62-8.82-1.88-13.32-1.95-3.84-.07-9.74,2.02-13.19,1.05,5.59-8.66,17.43-15.68,26.38-20.35,9.99-5.21,20.87-8.73,32.03-10.28,6.3-.88,12.7-1.13,19.05-.7Z"/>
            <g class="cls-14">
              <path class="cls-21" d="m68.55,129.11c22.94-14.55,52.83-16.68,77.91-6.49,3.53,1.52,7.04,3.19,10.14,5.48-3.34-1.89-6.88-3.35-10.49-4.54-25.99-8.55-53.03-6.58-77.56,5.55h0Z"/>
            </g>
            <g class="cls-8">
              <path class="cls-21" d="m80.79,149.81c17.5-10.22,40-14.18,59.15-6.36-2.45-.73-4.89-1.48-7.4-1.92-17.52-3.51-35.89.51-51.76,8.28h0Z"/>
            </g>
          </g>
          <g>
            <path class="cls-29" d="m188.73,161.04s-41-36.73-98.44.7c0,0-46.13,32.21-28.03,72.42l19.85-29.94s64.24-42.13,65.28-42.48c1.04-.35,41.34-.7,41.34-.7Z"/>
            <path class="cls-4" d="m69.68,194.84c-2.19,2.21-4.09,2.05-4.09,2.05-1.75-.26-2.57-1.37-2-4.16-5.75,11.72-8.29,25.98-1.33,41.44l19.85-29.94s42.91-28.14,59.15-38.61c-26.18-7.88-54.33,5.95-71.58,29.23Z"/>
            <path class="cls-22" d="m63.48,232.76s16.36-16.71,49.09-8.7c0,0,75.46-44.87,76.16-63.02,0,0-29.42-19.63-85.82,8.92,0,0-40.13,18.24-39.43,62.8Z"/>
            <path class="cls-4" d="m188.73,161.04s-29.42-19.63-85.82,8.92c0,0-39.43,17.92-39.43,61.64,8.81-39.81,50.93-74.32,92.11-67.45,14.37,2.5,13.85,13.01,9.65,24.08,12.94-10.3,23.24-20.54,23.49-27.19Z"/>
            <path class="cls-4" d="m102.91,172.01c53.11-26.88,82.29-11.05,85.52-9.11.18-.64.28-1.27.3-1.86,0,0-29.42-19.63-85.82,8.92,0,0-39.43,17.92-39.43,61.64.02-.09.04-.19.07-.28,1.38-42.02,39.37-59.32,39.37-59.32Z"/>
            <path class="cls-18" d="m66.25,192.46c-.09,2.11,3.68-.61,4.98-2.26,2.05-2.62,6.79-7.93,8.18-9.14,26.89-23.33,59.8-33.08,91.31-27.19.95.18,1.31-1.24.41-1.59-16.7-6.62-34.75-6.42-52.29-1.24-8.83,2.6-18.49,6.29-25.94,11.68-7.53,5.45-13.2,10.98-19.5,18.56-1.29,1.56-7.08,9.4-7.16,11.18Z"/>
            <path class="cls-18" d="m134.96,169.17c5.78-1.36,12.04-2.13,17.52.16,5.48,2.3,9.63,8.63,7.66,14.23-1.44,4.07-5.17,7.52-8.92,9.67-9.38,5.38-15.04,10.08-24.41,15.46-4.42,2.54-9.61,9.12-14.62,10.05-4.33.81-10.18-3.39-16.51-3.85-4.49-.32-8.98.79-13.31,2.03-3.69,1.06-8.72,4.79-12.3,4.86,2.81-9.92,12.08-20.09,19.27-27.18,8.03-7.91,17.4-14.45,27.62-19.2,5.77-2.68,11.81-4.79,18.01-6.24Z"/>
            <g class="cls-14">
              <path class="cls-21" d="m78.63,177.41c17.68-20.63,45.64-31.4,72.61-29,3.82.43,7.67.99,11.3,2.28-3.74-.83-7.56-1.2-11.36-1.28-27.36-.58-52.64,9.23-72.54,28h0Z"/>
            </g>
            <g class="cls-8">
              <path class="cls-21" d="m96.38,193.61c13.74-14.89,34.11-25.27,54.71-23.39-2.56.02-5.11.02-7.63.33-17.78,1.77-34.17,10.98-47.07,23.05h0Z"/>
            </g>
          </g>
          <g>
            <path class="cls-29" d="m201.88,170.42s-44.66-17.93-83.47,28.39c0,0-30.59,38.93-4.46,66.13l8.86-29.68s43.33-52.02,44.12-52.6c.79-.58,34.95-12.25,34.95-12.25Z"/>
            <path class="cls-4" d="m109.74,231.24c-1.27,2.39-2.93,2.8-2.93,2.8-1.56.29-2.55-.38-2.81-2.78-1.76,11.04-.09,23.23,9.95,33.68l8.86-29.68s28.94-34.75,39.95-47.76c-24.36,1.07-44.58,20.14-53.01,43.73Z"/>
            <path class="cls-22" d="m114.61,263.48s9.44-18.06,39.39-20.87c0,0,52.13-57.4,47.87-72.18,0,0-30.25-7.46-70.55,31.43,0,0-29.23,26-16.72,61.62Z"/>
            <path class="cls-4" d="m201.88,170.42s-30.25-7.46-70.55,31.43c0,0-28.71,25.55-17.03,60.69-3.16-34.49,23.41-74.13,60.25-80.25,12.88-2.05,15.25,6.54,14.64,16.62,8.24-11.94,14.26-23.08,12.7-28.49Z"/>
            <path class="cls-4" d="m131.87,203.5c37.95-36.62,66.98-32.15,70.24-31.5-.02-.57-.1-1.1-.24-1.58,0,0-30.25-7.46-70.55,31.43,0,0-28.71,25.55-17.03,60.69,0-.08-.01-.16-.02-.24-10.06-34.16,17.59-58.81,17.59-58.81Z"/>
            <path class="cls-18" d="m106.19,230.3c.49,1.72,2.96-1.53,3.63-3.23,1.05-2.68,3.65-8.29,4.51-9.66,16.61-26.35,41.97-43.49,70.33-47.67.85-.13.78-1.36-.08-1.39-15.97-.6-31.25,4.67-44.77,13.78-6.81,4.59-14.03,10.28-18.92,16.72-4.94,6.51-8.28,12.55-11.61,20.43-.68,1.62-3.51,9.56-3.09,11.01Z"/>
            <path class="cls-18" d="m158.35,192.16c4.55-2.72,9.66-5.12,14.93-4.82,5.27.3,10.49,4.21,10.31,9.27-.13,3.68-2.39,7.51-4.99,10.29-6.53,6.98-10.08,12.36-16.61,19.33-3.08,3.29-5.73,10.04-9.74,12.21-3.46,1.87-9.56.15-15.06,1.58-3.9,1.01-7.42,3.17-10.77,5.39-2.85,1.9-6.13,6.31-9.15,7.39-.26-8.77,4.89-19.57,9.11-27.29,4.71-8.62,10.93-16.53,18.34-23.24,4.19-3.79,8.76-7.19,13.64-10.11Z"/>
            <g class="cls-14">
              <path class="cls-21" d="m112.68,214.7c8.27-18.96,24.88-33.7,44.17-40.89,6.39-2.45,13.16-4.2,19.99-4.31-6.73.88-13.19,3.11-19.39,5.78-6.13,2.7-12.14,5.96-17.66,9.75-11.07,7.72-20.24,18.08-27.11,29.67h0Z"/>
            </g>
            <g class="cls-8">
              <path class="cls-21" d="m132.1,222.71c7.8-16.25,22.44-30.03,40.24-34.26-2.07.83-4.32,1.46-6.31,2.47-14.44,6.38-26.01,18.3-33.93,31.8h0Z"/>
            </g>
          </g>
          <g>
            <path class="cls-29" d="m223.47,175s-44.15-2.2-65.54,49.28c0,0-16.2,42.66,14.22,58.36l-.35-28.23s23.8-57.73,24.34-58.47,27.34-20.94,27.34-20.94Z"/>
            <path class="cls-4" d="m159.21,254.82c-.46,2.44-1.81,3.29-1.81,3.29-1.29.71-2.34.43-3.23-1.56,1.48,10.05,6.29,20.06,17.98,26.1l-.35-28.23s15.89-38.56,22-53.05c-21.1,8.16-33.64,30.61-34.58,53.46Z"/>
            <path class="cls-22" d="m172.33,281.18s3.34-18.38,28.88-29.7c0,0,30.06-64.99,22.26-76.47,0,0-28.62,2.55-53.36,48.06,0,0-18.55,31.11,2.21,58.11Z"/>
            <path class="cls-4" d="m223.47,175s-28.62,2.55-53.36,48.06c0,0-18.22,30.57,1.68,57.4-12.23-28.81.24-70.89,30.92-87.11,10.75-5.6,15.19,1.11,17.42,9.99,3.97-12.75,6.2-24.14,3.34-28.35Z"/>
            <path class="cls-4" d="m171.05,224.32c23.29-42.86,50.02-47.62,53.07-48.03-.18-.48-.39-.92-.64-1.29,0,0-28.62,2.55-53.36,48.06,0,0-18.22,30.57,1.68,57.4-.03-.07-.05-.14-.08-.2-18.21-26.47-.67-55.95-.67-55.95Z"/>
            <path class="cls-18" d="m155.83,255.07c.9,1.34,2.19-2.2,2.3-3.86.18-2.63.93-8.24,1.31-9.67,7.37-27.66,24.95-49.98,48.71-62,.72-.36.31-1.41-.45-1.18-14.19,4.22-26.17,13.31-35.55,25.19-4.72,5.98-9.51,13.03-12.03,20.04-2.55,7.08-3.83,13.29-4.59,21.07-.16,1.6-.46,9.28.3,10.42Z"/>
            <path class="cls-18" d="m191.2,206.68c3.25-3.7,7.08-7.28,11.79-8.59,4.71-1.31,10.37.51,11.6,4.93.89,3.21-.04,7.18-1.56,10.36-3.82,7.96-5.47,13.65-9.29,21.61-1.8,3.75-2.28,10.37-5.21,13.43-2.52,2.64-8.36,2.97-12.8,5.83-3.15,2.03-5.65,4.94-7.98,7.85-1.99,2.48-3.66,7.27-6.02,9.09-2.64-7.49-1.07-18.33.52-26.25,1.77-8.84,5.06-17.51,9.74-25.49,2.64-4.51,5.72-8.8,9.21-12.77Z"/>
            <g class="cls-14">
              <path class="cls-21" d="m157.26,239.69c2.02-19.07,12.67-36.66,27.6-48.5,4.93-3.99,10.39-7.46,16.37-9.54-2.83,1.39-5.5,3.05-8.03,4.89-7.59,5.46-14.33,12.14-20.11,19.47-7.61,9.9-12.88,21.55-15.83,33.68h0Z"/>
            </g>
            <g class="cls-8">
              <path class="cls-21" d="m176.52,240.82c2.38-16.52,11.53-32.68,25.95-41.5-1.57,1.33-3.36,2.55-4.83,4-10.86,9.76-17.79,23.4-21.13,37.5h0Z"/>
            </g>
          </g>
          <g>
            <path class="cls-16" d="m247.61,192.25c-3.84,28.98-24.34,68.67-47.17,90.9,3.78-29.03,24.44-68.7,47.17-90.9h0Z"/>
            <path class="cls-4" d="m247.41,193.61c.07-.45.14-.91.2-1.36-22.74,22.2-43.39,61.87-47.17,90.9,1.05-1.03,2.1-2.1,3.14-3.2,4.03-27.54,22.71-64.04,43.83-86.34Z"/>
            <g class="cls-7">
              <path class="cls-17" d="m244.08,199.3c-3.15,13.6-8.74,26.49-15.01,39.22-6.45,12.67-13.56,25.04-22.98,36.45,3.45-13.54,9.15-26.36,15.44-39.08,6.46-12.65,13.42-25.03,22.56-36.6h0Z"/>
            </g>
            <g class="cls-13">
              <path class="cls-17" d="m242.03,203.58c-12.44,21.78-23.47,44.33-33.85,67.15,9.11-23.37,20.23-46.07,33.85-67.15h0Z"/>
            </g>
          </g>
          <g>
            <path class="cls-16" d="m253.97,193.05c2.78,29.09-8.39,71.31-25.79,96.75-2.85-29.14,8.47-71.35,25.79-96.75h0Z"/>
            <path class="cls-4" d="m254.19,195.78c-.06-.92-.13-1.83-.22-2.73-17.31,25.4-28.63,67.61-25.79,96.75.97-1.42,1.92-2.9,2.85-4.41-1.82-27.32,7.98-64.77,23.16-89.6Z"/>
            <g class="cls-7">
              <path class="cls-17" d="m252.6,201.24c-.15,13.6-2.75,26.87-6.01,40.1-3.45,13.2-7.52,26.21-14.01,38.69.13-13.6,2.74-26.87,6.01-40.1,3.46-13.2,7.53-26.2,14.01-38.69h0Z"/>
            </g>
            <g class="cls-13">
              <path class="cls-17" d="m251.73,204.51c-7.28,20.06-13.24,40.7-16.68,61.78-.58,3-.86,6.04-1.34,9.07,1.74-24.41,8.4-48.41,18.02-70.85h0Z"/>
            </g>
          </g>
          <g>
            <path class="cls-16" d="m261.99,192.33c7.61,29.3,3.6,73.55-9.4,101.6-7.68-29.33-3.52-73.6,9.4-101.6h0Z"/>
            <path class="cls-4" d="m262.82,195.85c-.26-1.19-.54-2.37-.84-3.52-12.92,28-17.08,72.26-9.4,101.6.78-1.68,1.52-3.41,2.23-5.2-6.09-27.43-2.68-65.99,8-92.88Z"/>
            <g class="cls-7">
              <path class="cls-17" d="m262,201.24c2.13,13.62,1.78,27.2.77,40.82-1.2,13.61-3.05,27.1-7.39,40.36-2.15-13.62-1.79-27.2-.77-40.82,1.21-13.61,3.07-27.1,7.39-40.36h0Z"/>
            </g>
            <g class="cls-13">
              <path class="cls-17" d="m261.56,204.93c-5.3,20.83-5.64,42.72-5.83,64.12.01,3.08.06,6.15.05,9.24-.22-3.07-.36-6.15-.55-9.23-.3-8.98-.33-18.81.23-27.73.87-12.26,2.13-24.7,6.1-36.4h0Z"/>
            </g>
          </g>
          <g>
            <path class="cls-16" d="m272.93,194.4c10.29,28.56,10.37,72.66,0,101.28-10.36-28.59-10.3-72.71,0-101.28h0Z"/>
            <path class="cls-4" d="m274.19,198.2c-.41-1.29-.82-2.56-1.27-3.79-10.3,28.57-10.36,72.7,0,101.28.64-1.77,1.24-3.59,1.8-5.47-8.48-26.73-8.61-64.83-.53-92.02Z"/>
            <g class="cls-7">
              <path class="cls-17" d="m273.92,203.67c3.37,13.25,4.25,26.62,4.49,40.07.05,13.45-.57,26.83-3.69,40.13-3.38-13.25-4.27-26.62-4.49-40.07-.03-13.45.59-26.83,3.69-40.13h0Z"/>
            </g>
            <g class="cls-13">
              <path class="cls-17" d="m273.84,207.03c-1.8,24.31-1.23,48.73.89,72.99-3.5-24.12-4.06-48.81-.89-72.99h0Z"/>
            </g>
          </g>
          <g>
            <path class="cls-16" d="m285.26,196.05c11.34,27.91,13.06,71.51,3.76,100.03-11.42-27.94-12.99-71.57-3.76-100.03h0Z"/>
            <path class="cls-4" d="m286.72,199.89c-.47-1.31-.95-2.59-1.45-3.84-9.23,28.46-7.66,72.09,3.76,100.03.58-1.78,1.12-3.62,1.62-5.52-9.41-26.13-10.95-63.67-3.92-90.67Z"/>
            <g class="cls-7">
              <path class="cls-17" d="m287.15,204.51c3.81,13.16,5.14,26.49,5.83,39.92.5,13.44.33,26.81-2.34,40.16-3.83-13.16-5.16-26.49-5.83-39.92-.48-13.44-.31-26.81,2.34-40.17h0Z"/>
            </g>
            <g class="cls-13">
              <path class="cls-17" d="m287.15,207.54c-.12,11.81-.29,24.63,0,36.39.34,11.26.5,22.86,2.94,33.88,0,0,.54,2.21.54,2.21-3.85-11.58-4.01-24-4.51-36.07-.18-12.15.05-24.3,1.01-36.41h0Z"/>
            </g>
          </g>
          <g>
            <path class="cls-16" d="m295.35,194.25c14.04,26.56,20.07,69.31,13.61,97.9-14.13-26.61-20-69.34-13.61-97.9h0Z"/>
            <path class="cls-4" d="m297.34,198.24c-.64-1.36-1.3-2.7-1.99-4-6.39,28.57-.52,71.29,13.61,97.9.41-1.83.78-3.73,1.09-5.67-11.82-24.93-16.99-61.38-12.71-88.24Z"/>
            <g class="cls-7">
              <path class="cls-17" d="m297.82,203.67c5.09,12.48,7.73,25.31,9.74,38.29,1.82,13,2.97,25.98,1.62,39.12-5.11-12.48-7.74-25.31-9.74-38.29-1.8-13-2.95-25.98-1.62-39.12h0Z"/>
            </g>
            <g class="cls-13">
              <path class="cls-17" d="m298.21,207.03c1.45,23.73,3.82,47.63,10.58,70.5-4.21-11.19-6.57-22.98-8.26-34.79-1.52-11.84-2.47-23.77-2.31-35.71h0Z"/>
            </g>
          </g>
          <g>
            <path class="cls-16" d="m306.26,193.41c16.4,26.6,26.19,70.13,22.28,99.93-16.48-26.65-26.12-70.16-22.28-99.93h0Z"/>
            <path class="cls-4" d="m308.75,197.69c-.81-1.47-1.64-2.9-2.49-4.28-3.84,29.77,5.8,73.28,22.28,99.93.25-1.93.45-3.92.58-5.95-13.93-25.01-22.24-61.93-20.38-89.7Z"/>
            <g class="cls-7">
              <path class="cls-17" d="m310.05,202.47c6.17,12.74,9.92,25.95,13.05,39.34,2.94,13.42,5.22,26.87,5.01,40.6-6.19-12.74-9.93-25.95-13.05-39.34-2.92-13.42-5.2-26.87-5.01-40.6h0Z"/>
            </g>
            <g class="cls-13">
              <path class="cls-17" d="m310.83,206.45c3.52,23.96,7.87,47.98,16.1,70.82-4.92-11.13-8.16-22.92-10.79-34.78-2.46-11.9-4.41-23.92-5.31-36.04h0Z"/>
            </g>
          </g>
          <g>
            <path class="cls-16" d="m317.71,195.28c2.96,3.65,5.38,7.42,7.68,11.22,2.28,3.81,4.32,7.67,6.25,11.55,3.82,7.78,7,15.72,9.73,23.75,2.72,8.04,4.96,16.19,6.57,24.49,1.55,8.31,2.72,16.72,2.32,25.48-5.82-7.32-10.07-15-13.95-22.77-3.81-7.79-7-15.72-9.71-23.76-2.7-8.05-4.94-16.2-6.55-24.5-.78-4.16-1.45-8.34-1.89-12.57-.41-4.24-.71-8.51-.46-12.91Z"/>
            <path class="cls-4" d="m339.38,267.31c-3.81-7.79-7-15.72-9.71-23.76-2.7-8.05-4.94-16.2-6.55-24.5-.78-4.16-1.45-8.34-1.89-12.57-.23-2.37-.41-4.75-.49-7.15-.96-1.36-1.95-2.72-3.03-4.05-.25,4.4.05,8.66.46,12.91.43,4.24,1.11,8.42,1.89,12.57,1.61,8.3,3.85,16.45,6.55,24.5,2.71,8.04,5.9,15.97,9.71,23.76,3.88,7.77,8.13,15.45,13.95,22.77.09-1.94.09-3.86.03-5.77-4.32-6.08-7.75-12.36-10.92-18.7Z"/>
            <g class="cls-7">
              <path class="cls-17" d="m322.36,204.64c7.43,11.89,12.51,24.44,16.99,37.21,4.29,12.82,7.93,25.71,9.12,39.08-7.45-11.89-12.52-24.44-16.99-37.21-4.28-12.82-7.91-25.71-9.12-39.08h0Z"/>
            </g>
            <g class="cls-13">
              <path class="cls-17" d="m323.54,208.33c5.4,21.91,11.35,43.96,21.39,64.25,0,0,2.11,4.01,2.11,4.01-6.53-10.21-10.97-21.61-14.79-33.06-3.65-11.53-6.69-23.27-8.71-35.19h0Z"/>
            </g>
          </g>
          <g>
            <path class="cls-16" d="m324.54,191.61c22.96,23.16,43.91,64.12,47.88,94.04-23.06-23.19-43.85-64.16-47.88-94.04h0Z"/>
            <path class="cls-4" d="m328.62,195.94c-1.35-1.5-2.71-2.95-4.08-4.33,4.03,29.88,24.82,70.85,47.88,94.04-.26-1.96-.6-3.96-1-6-19.9-22.05-37.4-56.4-42.8-83.71Z"/>
            <g class="cls-7">
              <path class="cls-17" d="m330.76,199.77c9.25,11.28,16.25,23.44,22.7,35.89,6.27,12.51,11.89,25.17,15.16,38.55-9.26-11.27-16.27-23.44-22.7-35.89-6.25-12.52-11.87-25.17-15.17-38.55h0Z"/>
            </g>
            <g class="cls-13">
              <path class="cls-17" d="m331.87,202.41c4.77,10.39,11.31,24.86,16.26,34.97,5.33,10.73,10.46,21.8,17.46,31.55,0,0,1.46,1.92,1.46,1.92-8.54-9.69-14.03-21.61-19.85-33.02-5.53-11.62-10.75-23.39-15.34-35.41h0Z"/>
            </g>
          </g>
          <g>
            <path class="cls-16" d="m321.44,192.58c21.38,24.18,39.57,66.05,41.54,96.11-21.48-24.22-39.51-66.09-41.54-96.11h0Z"/>
            <path class="cls-4" d="m325.22,197.09c-1.25-1.56-2.51-3.07-3.79-4.51,2.03,30.02,20.06,71.89,41.54,96.11-.13-1.96-.33-3.98-.59-6.04-18.4-22.93-33.59-58.04-37.16-85.56Z"/>
            <g class="cls-7">
              <path class="cls-17" d="m327.11,201.01c8.48,11.68,14.66,24.16,20.27,36.89,5.42,12.78,10.2,25.68,12.57,39.19-8.5-11.68-14.68-24.15-20.27-36.89-5.41-12.79-10.18-25.68-12.57-39.19h0Z"/>
            </g>
            <g class="cls-13">
              <path class="cls-17" d="m328.04,203.7c4.07,10.59,9.63,25.33,13.9,35.65,4.6,10.96,8.99,22.24,15.34,32.32,0,0,1.34,1.98,1.34,1.98-7.89-10.1-12.57-22.25-17.62-33.92-4.74-11.85-9.17-23.83-12.95-36.03h0Z"/>
            </g>
          </g>
          <g>
            <path class="cls-16" d="m330.03,191.1c24.84,21.77,49.16,61.43,55.62,91.04-24.94-21.8-49.11-61.47-55.62-91.04h0Z"/>
            <path class="cls-4" d="m334.46,195.18c-1.47-1.42-2.95-2.78-4.43-4.08,6.52,29.57,30.68,69.25,55.62,91.04-.42-1.94-.92-3.92-1.5-5.93-21.7-20.84-42.03-54.1-49.7-81.03Z"/>
            <g class="cls-7">
              <path class="cls-17" d="m336.92,198.88c10.17,10.71,18.17,22.45,25.64,34.49,7.3,12.12,13.97,24.42,18.35,37.58-10.18-10.71-18.19-22.44-25.64-34.49-7.28-12.13-13.95-24.42-18.35-37.58h0Z"/>
            </g>
            <g class="cls-13">
              <path class="cls-17" d="m338.25,201.45c5.63,10.09,13.37,24.16,19.16,33.95,6.21,10.4,12.26,21.14,20.05,30.45,0,0,1.62,1.82,1.62,1.82-9.31-9.15-15.79-20.71-22.55-31.76-6.49-11.28-12.69-22.72-18.27-34.47h0Z"/>
            </g>
          </g>
          <g>
            <path class="cls-16" d="m312.07,193.93c17.35,26.18,28.71,69.45,25.88,99.33-17.44-26.23-28.64-69.48-25.88-99.33h0Z"/>
            <path class="cls-4" d="m314.71,198.15c-.87-1.45-1.75-2.86-2.65-4.22-2.76,29.85,8.44,73.1,25.88,99.33.18-1.93.3-3.93.37-5.97-14.82-24.65-24.47-61.35-23.61-89.15Z"/>
            <g class="cls-7">
              <path class="cls-17" d="m316.18,202.89c6.63,12.58,10.85,25.69,14.46,39,3.42,13.34,6.18,26.72,6.47,40.46-6.64-12.58-10.86-25.69-14.46-39-3.41-13.34-6.17-26.72-6.47-40.46h0Z"/>
            </g>
            <g class="cls-13">
              <path class="cls-17" d="m317.1,206.86c4.39,23.88,9.61,47.79,18.65,70.39-5.31-10.98-8.98-22.68-12.03-34.47-2.89-11.83-5.28-23.81-6.62-35.92h0Z"/>
            </g>
          </g>
          <path class="cls-5" d="m353.21,94.98c1.75-.63,3.28-1.76,4.77-2.87,6.99-5.21,13.99-10.41,20.98-15.62,5.83-4.34,11.77-8.79,15.85-14.8,1.39-2.05,2.57-4.37,2.52-6.84-.05-2.47-1.69-5.05-4.13-5.43-2.61-.41-4.91,1.63-6.76,3.52-6.68,6.82-13.37,13.65-20.05,20.47-4.05,4.13-8.09,8.26-12.14,12.4-1.69,1.73-5.46,4.56-6.08,6.96-.77,3.02,3.13,2.89,5.03,2.21Z"/>
          <g>
            <path class="cls-16" d="m301.76,194.67c14.71,27.28,21.76,71.17,15.99,100.76-14.79-27.33-21.69-71.2-15.99-100.76h0Z"/>
            <path class="cls-4" d="m303.98,199.05c-.72-1.5-1.46-2.97-2.22-4.38-5.69,29.56,1.2,73.43,15.99,100.76.37-1.92.69-3.89.96-5.92-12.34-25.58-18.33-62.81-14.73-90.46Z"/>
            <g class="cls-7">
              <path class="cls-17" d="m304.97,203.88c5.36,12.99,8.28,26.35,10.57,39.86,2.1,13.53,3.53,27.05,2.46,40.76-5.38-12.99-8.29-26.35-10.57-39.86-2.08-13.53-3.51-27.06-2.46-40.76h0Z"/>
            </g>
            <g class="cls-13">
              <path class="cls-17" d="m305.5,207.89c2.02,24.05,4.84,48.21,11.64,71.42-4.23-11.36-6.72-23.3-8.6-35.25-1.71-11.99-2.9-24.06-3.04-36.17h0Z"/>
            </g>
          </g>
          <g>
            <path class="cls-16" d="m290.76,194.4c13.09,27.84,17.56,71.97,10.06,101.29-13.17-27.9-17.48-72-10.06-101.29h0Z"/>
            <path class="cls-4" d="m292.73,198.87c-.63-1.53-1.28-3.02-1.96-4.47-7.42,29.3-3.11,73.39,10.06,101.29.49-1.9.92-3.86,1.3-5.87-10.83-26.05-14.62-63.48-9.41-90.95Z"/>
            <g class="cls-7">
              <path class="cls-17" d="m293.44,203.73c4.59,13.19,6.72,26.65,8.21,40.24,1.3,13.6,1.93,27.17.06,40.81-4.61-13.19-6.74-26.65-8.21-40.24-1.28-13.6-1.92-27.17-.06-40.81h0Z"/>
            </g>
            <g class="cls-13">
              <path class="cls-17" d="m293.73,207.76c.6,24.07,1.99,48.3,7.44,71.81-3.56-11.56-5.35-23.59-6.53-35.61-1-12.04-1.48-24.14-.91-36.21h0Z"/>
            </g>
          </g>
          <g>
            <path class="cls-16" d="m279.19,194.23c10.8,28.51,11.66,72.79,1.8,101.63-10.87-28.58-11.59-72.81-1.8-101.63h0Z"/>
            <path class="cls-4" d="m280.79,198.8c-.51-1.56-1.03-3.09-1.59-4.57-9.79,28.81-9.07,73.05,1.8,101.63.64-1.87,1.23-3.8,1.78-5.79-8.68-26.6-9.43-64.16-1.99-91.27Z"/>
            <g class="cls-7">
              <path class="cls-17" d="m281.1,203.69c3.51,13.42,4.54,26.97,4.92,40.61.19,13.64-.28,27.21-3.25,40.72-3.53-13.42-4.55-26.97-4.92-40.61-.17-13.64.3-27.21,3.25-40.72h0Z"/>
            </g>
            <g class="cls-13">
              <path class="cls-17" d="m281.06,207.73c-1.35,24-1.95,48.23,1.58,72.07-2.62-11.79-3.42-23.91-3.62-35.96-.02-12.06.49-24.14,2.03-36.1h0Z"/>
            </g>
          </g>
          <g>
            <path class="cls-16" d="m267.88,193.01c8.76,28.99,6.49,73.24-5.4,101.54-8.83-29.06-6.41-73.26,5.4-101.54h0Z"/>
            <path class="cls-4" d="m269.15,197.65c-.4-1.58-.81-3.13-1.27-4.64-11.81,28.28-14.23,72.48-5.4,101.54.77-1.83,1.5-3.73,2.18-5.69-6.78-26.98-4.87-64.51,4.48-91.21Z"/>
            <g class="cls-7">
              <path class="cls-17" d="m269.11,202.55c2.55,13.57,2.62,27.15,2.04,40.78-.78,13.63-2.21,27.15-6.13,40.49-2.57-13.57-2.64-27.15-2.04-40.78.79-13.63,2.22-27.15,6.13-40.49h0Z"/>
            </g>
            <g class="cls-13">
              <path class="cls-17" d="m268.79,206.58c-3.03,23.85-5.37,47.98-3.52,72.02-1.79-11.95-1.72-24.1-1.06-36.14.84-12.03,2.2-24.05,4.58-35.88h0Z"/>
            </g>
          </g>
          <g>
            <path class="cls-16" d="m258.36,192.91c5.23,29.58-2.36,73.41-17.59,100.58-5.29-29.65,2.43-73.42,17.59-100.58h0Z"/>
            <path class="cls-4" d="m259.07,197.63c-.2-1.61-.43-3.19-.7-4.72-15.15,27.16-22.88,70.93-17.59,100.58.99-1.76,1.94-3.59,2.86-5.48-3.5-27.41,2.92-64.59,15.43-90.38Z"/>
            <g class="cls-7">
              <path class="cls-17" d="m258.44,202.5c.91,13.71-.66,27.23-2.88,40.74-2.41,13.49-5.46,26.83-10.97,39.78-.93-13.71.64-27.23,2.88-40.74,2.43-13.49,5.48-26.83,10.97-39.78h0Z"/>
            </g>
            <g class="cls-13">
              <path class="cls-17" d="m257.64,206.48c-5.86,23.42-11.11,47.18-12.17,71.36-.34-12.12,1.21-24.22,3.31-36.15,2.28-11.89,5.08-23.71,8.86-35.22h0Z"/>
            </g>
          </g>
          <g>
            <path class="cls-16" d="m251.19,192.23c-.69,29.89-16.83,72.09-37.22,96.81.64-29.97,16.9-72.09,37.22-96.81h0Z"/>
            <path class="cls-4" d="m250.95,196.98c.12-1.61.2-3.2.24-4.75-20.31,24.72-36.58,66.84-37.22,96.81,1.32-1.6,2.62-3.28,3.9-5.01,1.96-27.51,15.64-63.31,33.07-87.04Z"/>
            <g class="cls-7">
              <path class="cls-17" d="m249.37,201.7c-1.81,13.65-6.03,26.77-10.89,39.8-5.04,12.98-10.69,25.72-18.68,37.74,1.8-13.65,6.01-26.77,10.89-39.8,5.06-12.98,10.7-25.71,18.68-37.74h0Z"/>
            </g>
            <g class="cls-13">
              <path class="cls-17" d="m247.79,205.52c-10.34,22.22-20.23,44.87-26.1,68.73,2.08-12.14,6.03-23.88,10.45-35.34,4.6-11.4,9.68-22.63,15.65-33.39h0Z"/>
            </g>
          </g>
          <g>
            <path class="cls-16" d="m243.68,190.23c-7.11,29.3-32.08,68.42-57.46,89.69,7.08-29.39,32.16-68.4,57.46-89.69h0Z"/>
            <path class="cls-4" d="m242.42,194.87c.46-1.57.89-3.12,1.26-4.64-25.31,21.29-50.38,60.3-57.46,89.69,1.64-1.38,3.28-2.83,4.92-4.35,7.85-26.77,29.02-59.96,51.29-80.7Z"/>
            <g class="cls-7">
              <path class="cls-17" d="m239.85,199.28c-4.72,13.16-11.7,25.44-19.28,37.53-7.76,12.02-16.05,23.71-26.51,34.34,4.71-13.17,11.68-25.44,19.28-37.53,7.77-12.01,16.07-23.7,26.51-34.34h0Z"/>
            </g>
            <g class="cls-13">
              <path class="cls-17" d="m237.47,202.8c-14.9,20.28-29.5,41.01-40.48,63.73,4.7-11.73,11.12-22.7,17.94-33.31,6.98-10.52,14.38-20.78,22.54-30.41h0Z"/>
            </g>
          </g>
          <g>
            <path class="cls-28" d="m372.23,142.87s9.56-18.91,13.73-30.66c4.18-11.75,6.62-47.52,6.62-71.03,0,0,53.53-2.44,80.43,24.98,26.9,27.42-100.78,76.71-100.78,76.71Z"/>
            <path class="cls-3" d="m473.01,66.16c-5.35-5.45-11.75-9.72-18.57-13.06-7.5,28.07-25.82,48.49-54.02,69.73-9.71,7.31-18.74,11.57-27.88,19.43-.2.39-.31.61-.31.61,0,0,127.67-49.29,100.78-76.71Z"/>
            <path class="cls-19" d="m387.72,123.35c3.26-2.5,6.51-5,9.77-7.51,6.3-4.84,12.62-9.7,18.4-15.15,9.66-9.11,17.77-19.85,23.88-31.63,2.09-4.03,3.88-9.17,1.21-12.84-1.93-2.65-5.46-3.43-8.68-4.03-7.75-1.44-15.51-2.88-23.26-4.31-2.29-.42-6.34-.85-7.08,2.2-.4,1.66,1.6,3.83,1.87,5.46,1.18,6.95-1.25,16.17-2.44,23.04-2.67,15.42-7.26,30.5-13.66,44.78Z"/>
          </g>
          <g>
            <path class="cls-15" d="m355.1,173.59s15.1,27.08-.96,98.94c0,0,51.95,8.79,74.6-7.46,0,0-15.73-79.29-73.63-91.48Z"/>
            <path class="cls-3" d="m360.67,175.01c30.4,21.82,43.43,61.42,44.54,98.47,8.93-1.39,17.33-3.96,23.53-8.4,0,0-14.72-74.16-68.06-90.06Z"/>
            <path class="cls-19" d="m366.6,264.8c5.43,1.91,11.62,2.1,16.99,3.47,3.96,1.01,8.2-.61,10.42-4.04,2.41-3.74,2.5-8.53,2.2-12.99-.82-12.23-3.95-24.29-9.05-35.43-4.68-10.22-11.88-23.48-21.25-30.1-1.62,3.54,2.71,14.24,3.28,18.53.87,6.53,1.2,13.12,1.01,19.71-.36,11.99-2.48,23.94-6.34,35.3-.78,2.29.46,4.75,2.74,5.56Z"/>
          </g>
          <g>
            <path class="cls-26" d="m417.65,273.41s71.72-24.37,74.16-53.97c2.44-29.59-92.26-52.22-123.25-52.22,0,0,52.57,74.16,49.09,106.19Z"/>
            <path class="cls-3" d="m368.56,167.22s1.07,1.51,2.89,4.19c35.06,7.13,71.23,26.09,95.46,55.17,5.7,6.73,5.36,13.99,2.84,21.25,11.82-8.27,21.2-18,22.05-28.38,2.44-29.59-92.26-52.22-123.25-52.22Z"/>
            <path class="cls-19" d="m408.94,215.95c7.45,11.8,13.41,24.72,15.85,38.46.34,1.91.7,4,2.19,5.24,1.88,1.58,4.68,1.09,7.07.52,7.31-1.75,14.87-3.62,20.85-8.18s9.99-12.6,7.55-19.72c-1.07-3.11-3.22-5.72-5.41-8.18-18.13-20.37-41.85-35.7-67.87-43.86-2.14-.67-5.41-.6-4.84,2.46.5,2.63,3.77,5.32,5.4,7.31,4.36,5.33,8.65,10.72,12.68,16.31,2.27,3.15,4.46,6.36,6.54,9.64Z"/>
          </g>
          <g>
            <path class="cls-30" d="m385.53,159.91s-12.31-2.07-16.97-6.01c3.17-3.12,81.3-48.83,99.49-106.54,0,0,58.58,30.03,47.44,64.5-11.14,34.47-129.95,48.05-129.95,48.05Z"/>
            <path class="cls-3" d="m503.04,73.65c.96,9.28-1.26,18.38-8.51,26.11-29.66,30.68-72.61,37.84-111.48,52.16-4.59,1.72-8.87,1.51-13.18.99-.67.47-1.13.8-1.31.99,4.66,3.94,16.97,6.01,16.97,6.01,0,0,118.81-13.58,129.95-48.05,4.54-14.05-2.51-27.37-12.45-38.21Z"/>
            <path class="cls-19" d="m387.45,146.41c1.64-4.73,11.8-10.37,16.26-12.65,29.38-15.05,53.44-40.24,67.13-70.27.71-1.56,1.58-3.31,3.22-3.82,1.68-.53,3.42.47,4.9,1.43,8.27,5.35,17.4,11.91,15.81,23.22-.32,2.25-1.09,4.41-2.17,6.4-3.91,7.22-10.74,11.6-17.52,15.67-10.72,6.43-21.76,12.31-33.02,17.74-9.98,4.81-18.93,9.57-30.16,13.67-2.71.99-6.68,2.4-9.4,3.37-1.4.5-13.58,5.47-15.06,5.25Z"/>
          </g>
          <g>
            <path class="cls-25" d="m386.66,158.26s97.49-25.76,137.53-62.32c0,0,71.72,91.92-38.3,130.56,0,0-46.14-43.18-99.4-58.67l-13.26-4.89s6.27-2.83,13.43-4.69Z"/>
            <path class="cls-3" d="m405.51,167.22c-5.46-7.31,3.61-13.69,9.76-17.6-16.93,5.55-28.61,8.64-28.61,8.64-7.16,1.86-13.43,4.69-13.43,4.69l13.26,4.89c18.51,5.38,36.15,14.11,51.3,23.2-16.85-11.15-22.77-14.03-32.28-23.82Z"/>
            <path class="cls-19" d="m431.55,172.63c-3.66-2.31-7.62-5.02-8.52-9.1-.89-4.01,1.62-8.14,5.07-10.61,3.45-2.47,7.72-3.65,11.85-4.88,24.72-7.37,48.22-18.42,69.37-32.61,3.01-2.02,6.38-4.21,10.03-3.73,2.74.36,5.06,2.22,6.53,4.43,1.47,2.22,2.23,4.78,2.97,7.31,2.94,10.05,5.9,20.2,6.39,30.62.84,17.76-5.88,35.74-18.34,49.05-6.33,6.77-14.67,12.56-24.2,13.19-9.18.61-11.63-7.42-18.24-13.47-5.17-4.73-10.99-8.28-17.88-13.63-4.81-3.74-8.75-6.29-13.92-9.56-3.7-2.34-7.41-4.68-11.11-7.01Z"/>
          </g>
          <path class="cls-5" d="m195.82,49.49c-1.19-1.13-2.41-2.28-3.21-3.71-.8-1.44-1.11-3.24-.41-4.73.79-1.66,2.61-2.53,4.29-3.27,2.67-1.18,5.34-2.35,8.01-3.53,1.95-.86,4.12-1.73,6.13-1.05,1.72.58,2.89,2.15,3.94,3.64,4.96,7.02,9.95,14.08,13.72,21.8,3.77,7.72,6.3,16.22,6.05,24.81-.05,1.52-.22,3.14-1.2,4.3-2.66,3.17-4.29-1.01-5.63-2.78-2.29-3.04-4.64-6.03-7.05-8.97-4.86-5.94-9.96-11.68-15.28-17.21-3.05-3.17-6.18-6.28-9.37-9.31Z"/>
          <path class="cls-5" d="m263.67,72.23c1.17-3.58.76-7.46.34-11.2-1.11-9.89-2.22-19.78-3.32-29.68-.17-1.55.31-3.2-.78-4.32-1.59-1.63-3.67-.9-5.92-.52-3.4.57-7.22,1.26-10.19,2.44-1.28.51-3.62,1.32-4.43,2.44-.98,1.34.02,4.66.51,6.24,2.4,7.75,3.73,12.05,6.12,19.79,1.72,5.56,3.44,11.12,5.16,16.69.83,2.69,2.38,6.16,5.75,5.09,3.13-.99,5.76-3.93,6.75-6.97Z"/>
          <path class="cls-5" d="m307.14,71.11c2.06-3.26,3.36-6.94,4.63-10.58,3.18-9.07,6.36-18.14,9.55-27.21.41-1.17.82-2.5.27-3.62-.79-1.62-3-1.8-4.8-1.73-4.34.18-8.68.53-12.99,1.03-3.18.37-5.19-.29-7.29,2.13-1.96,2.25-2.25,7.3-2.41,10.27-.67,12.58-2.74,24.61-3.41,37.19-.14,2.55-.45,4.12,2.39,3.27,1.97-.59,3.87-1.48,5.63-2.54,3.39-2.05,6.32-4.87,8.44-8.22Z"/>
          <path class="cls-5" d="m332.65,84.43c9.89-4.65,17.38-13.09,24.58-21.3,2.7-3.08,5.39-6.15,8.09-9.23,2.94-3.35,5.87-6.7,8.81-10.05.54-.62,1.1-1.26,1.37-2.04.27-.78.19-1.74-.41-2.3-.45-.42-1.09-.55-1.69-.65-3.98-.71-8-1.36-12.04-1.2-4.04.16-8.14,1.18-11.41,3.56-2.83,2.05-4.87,4.98-6.87,7.84-4.7,6.76-9.4,13.52-14.1,20.28-1.94,2.79-3.88,5.57-5.76,8.4-1.23,1.84-5.12,6.03-5.08,8.29.08,4.56,12.55-.67,14.5-1.58Z"/>
          <path class="cls-5" d="m170.63,27.02c2.28-1.23,5-1.85,7.49-1.14,2.49.71,4.61,2.99,4.61,5.58,0,1.67-.82,3.23-1,4.89-.29,2.72,1.15,5.3,2.65,7.59,9.2,14.07,22.22,25.23,32.16,38.78.7.96,1.38,2.35.58,3.23-.81.89-2.28.32-3.3-.32-17.02-10.71-29.86-26.77-42.36-42.52-1.97-2.48-6.14-6.3-6.61-9.54-.43-2.97,3.57-5.35,5.78-6.55Z"/>
          <path class="cls-5" d="m208.96,22.94c-2.23-.91-3.96-2.93-4.53-5.27-.26-1.07-.25-2.3.44-3.16.86-1.07,2.43-1.18,3.8-1.21,5.18-.1,10.36-.21,15.54-.31,2.71-.05,5.95.18,7.27,2.55,1.02,1.82.38,4.07.05,6.14-.86,5.38.66,10.82,2.16,16.06,3.85,13.44,7.7,26.88,11.54,40.32-1.44-3.12-2.88-6.24-4.32-9.36-4.22-9.13-8.43-18.27-12.65-27.4-2.1-4.55-4.24-9.16-7.24-13.21-1.03-1.4-2.64-3.94-4.4-4.41-.98-.26-2.77-.39-3.83-.26-1.3.17-2.64.01-3.86-.48Z"/>
          <path class="cls-5" d="m251.03,20.4c-2.97-1.07-7.07-3.98-6.29-7.03.45-1.78.3-3.97,1.94-4.79s6.64-1.24,8.44-1.56c2.6-.47,5.28-1.36,7.92-1.19s7.63-1.39,9.49.49c2.31,2.34.54,7.31,1,10.56,1.21,8.5.55,18.98.21,27.56-.11,2.71-1.22,8.31-2.09,10.6-.47,1.25-1.3-5.13-1.46-6.45-.95-7.78-1.47-12-2.43-19.78-.26-2.1-.55-4.29-1.73-6.05-3.09-4.57-10.51-.74-15.01-2.35Z"/>
          <path class="cls-5" d="m287.2,38.48c-.11-2.42-.28-4.88.18-7.26.46-2.38,1.65-4.74,3.71-6.03,2.43-1.53,5.5-1.31,8.35-1.66,3.46-.42,6.8-1.76,9.59-3.84,1.1-.82,2.14-1.78,2.74-3.02.6-1.23.68-2.79-.06-3.94-1.13-1.74-3.56-1.94-5.63-1.95l-13.51-.11c-1.83-.01-3.87.05-5.2,1.31-1.22,1.16-1.47,2.98-1.64,4.66-1.82,17.58-3.05,35.23-3.71,52.9-.06,1.69,1.32,5.81,2.4,2.35.79-2.56,1.07-5.42,1.47-8.06.81-5.4,1.28-10.85,1.41-16.3.07-3.02.05-6.04-.09-9.06Z"/>
          <path class="cls-5" d="m327.27,21.28c-.97.21-1.82.76-2.75,1.1-.93.34-2.08.41-2.81-.26-.98-.89-.66-2.47-.27-3.74.7-2.26,1.63-4.79,3.82-5.71,2.06-.86,4.39.06,6.42.98,2.78,1.26,5.56,2.51,8.34,3.77,1.54.69,3.22,1.55,3.77,3.14.53,1.55-.22,3.21-.95,4.68-2.23,4.46-4.45,8.91-6.68,13.37-3.72,7.46-7.45,14.92-11.83,22.02-.89,1.45-1.93,2.98-3.53,3.56s-3.83-.41-3.8-2.11c.01-.76.45-1.43.87-2.07,5.85-8.95,10.2-18.89,12.8-29.27.65-2.58,1.55-10.5-3.39-9.45Z"/>
          <path class="cls-5" d="m354.15,28.95c-.38-1.02-.05-2.15.27-3.19.77-2.45,1.55-4.93,2.82-7.16,1.27-2.24,3.09-4.24,5.45-5.28,2.33-1.03,4.97-1.03,7.53-1.01,4.63.03,9.25.06,13.88.1,1.3,0,2.9.22,3.36,1.43.36.96-.23,1.99-.8,2.84-1.9,2.84-3.81,5.68-5.71,8.53-1.49,2.23-3.13,4.58-5.62,5.59-2.04.82-4.33.6-6.52.36-2.88-.31-5.76-.62-8.64-.93-1.21-.13-2.39-.21-3.57-.19-1.01.02-1.97.16-2.44-1.09Z"/>
          <path class="cls-5" d="m384.99,41.4c-12.12,14.22-28.3,25.06-37.89,41.1-.42.7-.81,1.62-.31,2.26.6.77,1.82.36,2.65-.15,5.39-3.37,9.23-8.67,13.14-13.69,6.96-8.92,14.58-17.33,22.79-25.12,2.01-1.91,4.09-3.81,6.55-5.09,3.81-1.98,9.31-.92,13.54-1.67,4.22-.75,7.55-3.51,10.26-6.83,1.1-1.34,4.36-4.25,3.75-5.87-.81-2.17-6-1.76-8.29-2.12-4.36-.67-13.95-2.11-18.35-1.8-4.2.29-7.47,5.07-8.88,9.92-.6,2.08,3.27.95,4.27,2.44,1.65,2.48-1.57,4.69-3.22,6.62Z"/>
          <g class="cls-11">
            <path class="cls-17" d="m209.28,35.31c10.9,11.19,24.75,29.6,24.16,45.86-.09-2.2-.4-4.38-.93-6.5-3.96-14.86-13.71-27.55-23.23-39.35h0Z"/>
          </g>
          <g class="cls-11">
            <path class="cls-17" d="m256.95,27.96c5.27,14.58,7.29,30.55,5.26,45.95,0-1.95.17-3.88.1-5.81.04-13.53-1.94-27.06-5.36-40.14h0Z"/>
          </g>
          <g class="cls-11">
            <path class="cls-17" d="m322.75,83c6.86-12.38,23.45-38.96,36.91-43.35-12.33,5.11-28.98,31.72-36.91,43.35h0Z"/>
          </g>
          <g class="cls-11">
            <path class="cls-17" d="m351.55,89.47c5.97-6.89,12.33-13.41,18.84-19.77,6.68-6.11,13.16-12.85,21.3-17.02-7.69,4.85-13.98,11.58-20.6,17.75-5.72,5.47-13.79,13.46-19.55,19.04h0Z"/>
          </g>
          <g class="cls-11">
            <path class="cls-17" d="m300.99,31.37c-1.84,3.63-2.47,7.75-3.31,11.7-.77,4-1.42,8.02-1.97,12.06-1.21,8.07-2.06,16.18-3.19,24.27.3-8.17,1.07-16.31,2.18-24.42.64-4.04,1.27-8.08,2.21-12.07,1.02-3.93,1.84-8.1,4.08-11.54h0Z"/>
          </g>
          <g class="cls-13">
            <path class="cls-17" d="m7.63,195.99c4.96,9.56,11.98,17.93,19.48,25.6,13.19,13.44,28.74,24.33,45,33.73,49.49,28.11,106.45,39.78,162.64,45.09-42.04-2.04-86.72-10.45-127.13-25.37-30.42-11.5-59.95-27.71-82.06-51.98-7.27-8.08-13.96-16.9-18.21-26.95-.03-.08,0-.17.08-.2.08-.03.17,0,.2.09h0Z"/>
          </g>
          <g class="cls-8">
            <path class="cls-17" d="m504.32,69.04c39.18,24.55,76.78,73.46,49.09,119.73-3.55,5.83-7.67,11.27-12.36,16.16,8.3-10.51,15.1-22.48,17.79-35.64,8.22-40.85-24.56-76.99-54.52-100.25h0Z"/>
          </g>
          <g class="cls-10">
            <path class="cls-17" d="m437.79,153.76c25.66-8.99,52.96-17.43,77.62-28.74,1.63-.85,3.27-1.69,4.93-2.51-12.3,8.24-26.27,13.62-40.09,18.71-13.92,4.93-28.06,9.23-42.46,12.54h0Z"/>
          </g>
          <g class="cls-10">
            <path class="cls-17" d="m476.73,67.48c-11.51,26.37-33.69,49.88-60.15,61.49,1.55-.97,3.11-1.91,4.68-2.84,2.69-1.5,6.49-4.27,9.09-6,19.02-13.89,34.79-32.18,46.38-52.66h0Z"/>
          </g>
          <g class="cls-10">
            <path class="cls-17" d="m409.05,53.78c1.94,18.26-4.29,38.6-12.72,54.67.69-2.27,1.49-4.48,2.23-6.72,5.1-15.57,9.58-31.52,10.49-47.96h0Z"/>
          </g>
          <g class="cls-10">
            <path class="cls-17" d="m394.7,185.71c21.26,8.46,55.44,27.81,61.57,51.28-1.21-3.21-2.85-6.2-4.83-8.95-13.25-18.1-37.23-31.61-56.74-42.33h0Z"/>
          </g>
          <g class="cls-10">
            <path class="cls-17" d="m373.23,196.33c10.75,14.13,18.78,32.26,18.52,50.26-.12,2.6-.41,5.19-.98,7.71.12-2.58.13-5.14-.03-7.69-1.37-17.94-9-34.65-17.52-50.27h0Z"/>
          </g>
        </g>
      </g>
    </g>
  </g>
</svg>