<?xml version="1.0" encoding="UTF-8"?>
<svg id="Calque_2" data-name="Calque 2" xmlns="http://www.w3.org/2000/svg" viewBox="0 0 736.44 700.12">
  <defs>
    <style>
      .cls-1 {
        fill: #fff;
      }

      .cls-2 {
        fill: #f9ebe4;
      }

      .cls-3 {
        fill: #f9d5c0;
      }

      .cls-4 {
        fill: #fcc28d;
      }

      .cls-5 {
        fill: #f7aa6b;
      }

      .cls-6 {
        fill: #f9c7af;
      }

      .cls-7 {
        fill: #ffc000;
      }

      .cls-8 {
        fill: #4a7219;
      }

      .cls-9 {
        fill: #651c0d;
      }

      .cls-10 {
        fill: #fce4d4;
      }

      .cls-11 {
        fill: #82961d;
      }

      .cls-12 {
        fill: #ff7f00;
      }

      .cls-13 {
        fill: #f9e4cf;
      }

      .cls-14 {
        fill: #f7c0a4;
      }

      .cls-15 {
        fill: #752012;
      }

      .cls-16 {
        fill: #1f2300;
      }

      .cls-17 {
        fill: #f29129;
      }
    </style>
  </defs>
  <g id="Layer_1" data-name="Layer 1">
    <g>
      <ellipse class="cls-4" cx="619.25" cy="657.13" rx="117.19" ry="41.94"/>
      <g>
        <g>
          <path class="cls-16" d="m0,242.5s21.06,92,95.91,86.38c0,0,71.51,9.16,93.17-86.38H0Z"/>
          <ellipse class="cls-1" cx="94.54" cy="242.5" rx="94.54" ry="60.47"/>
          <path class="cls-3" d="m182.76,242.5c0,7.57-3.17,15.23-9.01,22.27-3.9,4.69-8.99,9.11-15.13,13.04-17.01,10.88-39.77,16.87-64.08,16.87s-47.07-5.99-64.08-16.87c-6.14-3.93-11.23-8.34-15.13-13.04-5.84-7.03-9.01-14.7-9.01-22.27,0-12.62,8.8-25.49,24.14-35.3,17.01-10.88,39.77-16.87,64.08-16.87s47.07,5.99,64.08,16.87c15.34,9.81,24.14,22.68,24.14,35.3Z"/>
          <path class="cls-12" d="m173.75,264.77c-3.9,4.69-8.99,9.11-15.13,13.04-17.01,10.88-39.77,16.87-64.08,16.87-17.39,0-34-3.07-48.26-8.8-5.67-2.28-10.98-4.97-15.82-8.07-.58-.37-1.16-.75-1.72-1.13-5.37-3.64-9.88-7.66-13.41-11.9.81-10.23,7.95-20.51,19.92-28.65.55-.38,1.12-.75,1.69-1.12,2.06-1.32,4.22-2.56,6.46-3.71,14.37-7.42,32.23-11.45,51.14-11.45,9.75,0,19.23,1.07,28.09,3.13.3.07.6.14.91.21,6.99,1.68,13.59,3.98,19.63,6.86,3.15,1.5,6.15,3.15,8.97,4.96,4.09,2.62,7.66,5.47,10.66,8.5,6.54,6.58,10.37,13.94,10.96,21.27Z"/>
        </g>
        <polygon class="cls-16" points="535.05 619.02 202.81 687.59 196.36 688.92 179 692.5 172.56 693.83 142.06 700.12 130.94 676.22 128.15 670.22 20.65 439.11 17.86 433.11 9.66 415.48 36.85 409.83 43.3 408.49 417.35 330.66 535.05 619.02"/>
        <path class="cls-8" d="m663.55,470.82l-6.45,4.14s-11.96,4.29-21.09,6.98c0,0,10.2,5.54,11.21,7.34,0,0-3.02,2.88-13.49,2.34,0,0,3.75,5,2.28,7.47,0,0-22.02,4.67-26.86-.86,0,0-17.15,6.02-33.37-18.34h0c-.62-.93-1.24-1.91-1.86-2.94,0,0-7.5-21.87,1.98-40.53,0,0,4.69-7.44,7.09-11.44,2.4-4,8.04,4.62,8.04,4.62,0,0,4.84-4.16,7.26-3.97,2.42.19,5.64,7.7,5.64,10.8s8.44-20.47,14.7-24.4c6.25-3.93,8.67,0,8.67,0v7.83s14.89-9.44,19.94-9.8c4.88-.34.31,10.24.01,10.91.34-.65,6.11-11.18,16.94-8.55.06.01.12.03.18.04,0,0,.81,10.06-4.03,18.56.1-.14,2.56-3.59,9.67,0,0,0,.81,14.16-16.93,23.02,0,0,12.91,4.85,16.93,4.84s0,7.83-6.45,11.97Z"/>
        <path class="cls-8" d="m419.88,653.42c27.77,6.37,57.41-1.77,77.89-21.6,5.35-5.18,10-11.07,13.83-17.46.59-.99-.96-1.89-1.55-.9-13.82,23.08-38.45,38.34-65.32,40.17-8.18.55-16.38-.1-24.37-1.93-1.12-.26-1.6,1.47-.48,1.73h0Z"/>
        <path class="cls-8" d="m531.42,628.18c-24.39,3.2-49.03,4.41-73.62,3.56-6.94-.24-13.87-.65-20.79-1.21-1.15-.09-1.14,1.7,0,1.79,24.52,1.98,49.19,1.96,73.71-.11,6.92-.58,13.82-1.34,20.71-2.24,1.13-.15,1.14-1.94,0-1.79h0Z"/>
        <path class="cls-8" d="m693.93,544.54c-31.86-14.52-66.06-23.7-100.91-27.05-9.88-.95-19.79-1.42-29.71-1.43-1.15,0-1.16,1.79,0,1.79,34.77.05,69.46,5.9,102.32,17.27,9.3,3.22,18.44,6.88,27.4,10.96,1.04.47,1.95-1.07.9-1.55h0Z"/>
        <path class="cls-8" d="m560.28,510.47c25.5.41,50.54,10.41,69.57,27.36,5.41,4.82,10.32,10.19,14.62,16.03.68.92,2.23.03,1.55-.9-15.45-21-38.59-35.93-64-41.68-7.13-1.61-14.42-2.48-21.73-2.6-1.15-.02-1.15,1.77,0,1.79h0Z"/>
        <path class="cls-8" d="m548.83,531.83c20.79-2.38,40.23-13.38,53.2-29.78,3.66-4.63,6.78-9.64,9.29-14.98.49-1.04-1.06-1.95-1.55-.9-8.66,18.44-24.86,32.96-43.99,39.88-5.48,1.98-11.17,3.34-16.96,4-1.13.13-1.15,1.92,0,1.79h0Z"/>
        <path class="cls-11" d="m637.56,523.57s8.76-18.6,26.37-24.63c0,0,7.6-1.84,11.61-2.91,4-1.07,2.27,7.92,2.27,7.92,0,0,5.66.34,7.09,1.96,1.43,1.62-1.17,8.41-3.09,10.38-1.92,1.97,18.06-7.83,24.49-6.47s5.53,5.37,5.53,5.37l-4.85,4.99s15.35,3.2,18.79,6.1c3.44,2.9-6.77,6.98-6.77,6.98,0,0,10.8-3.66,16.22,5.17,0,0-5.72,6.92-14.06,9.34,0,0,3.81-.84,6.17,5.99,0,0-8.26,9.53-25.05,4.2,0,0,5.23,11.08,7.81,13.57,2.57,2.49-4.85,4.99-11.53,3.64l-6.67-1.35s-10.29-4.67-17.78-8.61c0,0,3.07,9.85,2.61,11.63,0,0-3.71-.03-10.06-6.86,0,0-.7,5.51-3.17,6.17,0,0-16.94-10.66-16.6-17.18,0,0-15.82-7.32-9.3-35.4Z"/>
        <path class="cls-3" d="m590.18,487.26c0,2.88-.12,5.75-.35,8.61l.14-15.22c.14,2.19.21,4.4.21,6.6Z"/>
        <path class="cls-4" d="m591.22,348.99l-.1,10.96-1.15,120.7-.14,15.22c-1.58,19.37-8.5,38.1-20.64,55.82-13.17,19.22-31.91,36.41-55.71,51.1-23.5,14.5-50.8,25.88-81.15,33.8-31.28,8.16-64.47,12.3-98.67,12.3-.87,0-1.73,0-2.6-.01-33.28-.2-65.59-4.34-96.07-12.29-22.52-5.88-43.35-13.66-62.2-23.2-6.56-3.32-12.88-6.86-18.95-10.6-23.79-14.69-42.54-31.88-55.71-51.1-13.93-20.32-20.99-42-20.99-64.43,0-5.21.38-10.37,1.14-15.49v-118.32l113.33-.98c13.63-5.69,28.12-10.55,43.38-14.53,31.27-8.16,64.47-12.3,98.67-12.3s67.4,4.14,98.67,12.3c13.05,3.41,25.55,7.45,37.41,12.12l114.51-.99,6.97-.06Z"/>
        <path class="cls-5" d="m584.8,359.82c0,22.43-7.06,44.11-20.99,64.43-4.77,6.96-10.28,13.66-16.49,20.07-.01.01-.02.02-.03.03-10.92,11.27-24.03,21.64-39.19,31-23.5,14.5-50.8,25.88-81.15,33.8-31.28,8.17-64.47,12.31-98.67,12.31s-67.4-4.14-98.67-12.31c-30.35-7.92-57.65-19.29-81.15-33.8-23.8-14.69-42.54-31.88-55.71-51.1-6.18-9.03-11.01-18.32-14.47-27.82v-42.98c0-22.43,7.06-44.1,20.99-64.43,4.77-6.96,10.28-13.66,16.49-20.08.01,0,.02-.02.03-.03,9.5-8.83,20.42-17.06,32.68-24.63,23.5-14.5,50.8-25.88,81.15-33.8,31.27-8.16,64.47-12.3,98.67-12.3s67.4,4.14,98.67,12.3c30.35,7.92,57.65,19.29,81.15,33.8,23.8,14.69,42.54,31.88,55.71,51.1,11.68,17.06,18.54,35.06,20.44,53.66.37,3.57.55,7.16.55,10.77Z"/>
        <path class="cls-5" d="m281.61,449.25v196.35c-15.93-2.05-31.5-5.06-46.63-9.01-11.93-3.11-23.39-6.76-34.33-10.92v-165.81h-8.57v162.4c-6.65-2.76-13.09-5.72-19.31-8.87l1.71-165.37,107.12,1.23Z"/>
        <path class="cls-5" d="m334.18,449.85l-3.12,199.04c-10.63-.07-21.16-.53-31.57-1.4v-198.04l34.69.4Z"/>
        <path class="cls-1" d="m591.32,353.45c0,2.18-.07,4.35-.2,6.51-1.24,20.12-8.22,39.57-20.79,57.92-6.38,9.31-14.07,18.15-23,26.45-.01.01-.02.02-.03.03-9.5,8.83-20.42,17.06-32.68,24.63-23.5,14.5-50.8,25.88-81.15,33.8-31.28,8.16-64.47,12.3-98.67,12.3s-67.4-4.14-98.67-12.3c-30.35-7.92-57.65-19.29-81.15-33.8-23.8-14.69-42.54-31.89-55.71-51.1-13.93-20.32-20.99-42-20.99-64.43s7.06-44.1,20.99-64.43c4.77-6.96,10.28-13.66,16.49-20.08.01,0,.02-.02.03-.03,10.92-11.27,24.03-21.64,39.19-31,23.5-14.5,50.8-25.88,81.15-33.8,31.27-8.16,64.47-12.3,98.67-12.3s67.4,4.14,98.67,12.3c30.35,7.92,57.65,19.29,81.15,33.8,23.8,14.69,42.54,31.88,55.71,51.1,13.93,20.32,20.99,42,20.99,64.43Z"/>
        <path class="cls-17" d="m582.71,353.45c0,6.2-.6,12.31-1.76,18.32-14.67,75.88-119.28,134.72-246.16,134.72s-221.56-53.41-243.48-124.08c-2.91-9.38-4.43-19.06-4.43-28.96,0-84.52,111-153.03,247.91-153.03s247.92,68.51,247.92,153.03Z"/>
        <path class="cls-12" d="m580.95,371.76c-.23,1.22-.49,2.43-.78,3.64-9.87,42.41-47.91,79.2-102.04,102.91-6.13,2.69-12.48,5.21-19.01,7.55-5.68,2.04-11.5,3.94-17.46,5.7-6.24,1.84-12.63,3.53-19.15,5.06-27.27,6.37-56.85,9.86-87.74,9.86-119.51,0-219.27-52.2-242.7-121.68-.27-.8-.53-1.6-.78-2.4,14.66-75.89,119.28-134.72,246.16-134.72s221.56,53.41,243.49,124.08Z"/>
        <path class="cls-9" d="m555.14,311.78c-41.75-41.72-94.35-61.43-131.12-70.63-39.8-9.95-70.1-10.05-70.49-10.05h0v-1.79s0,0,0,0c.39,0,30.92.1,70.93,10.1,23.53,5.88,45.71,13.99,65.9,24.09,25.26,12.64,47.48,28.45,66.05,47.01l-1.27,1.27Z"/>
        <path class="cls-9" d="m100.31,333.61l-1.54-.92c.14-.23,14.29-23.7,46.19-47.71,18.72-14.09,39.82-25.62,62.7-34.27,28.59-10.81,60.07-17.13,93.56-18.79l.09,1.79c-75.36,3.73-125.99,30.69-155.2,52.65-31.65,23.8-45.66,47.01-45.8,47.25Z"/>
        <path class="cls-4" d="m580.18,375.4c-3.45,14.84-10.35,28.98-20.19,42.12-18.27,24.42-46.66,45.37-81.85,60.79-6.13,2.69-12.48,5.21-19.01,7.55-5.68,2.04-11.5,3.94-17.46,5.7-2.94.87-5.91,1.7-8.91,2.5-3.37.9-6.78,1.75-10.23,2.56-27.27,6.37-56.85,9.86-87.74,9.86-13.33,0-26.41-.65-39.17-1.9-61.71-6.04-115.83-26.14-153.5-54.82-24.38-18.55-41.86-40.7-50.04-64.96,17.25-74.12,120.54-131.08,245.38-131.08s219.28,52.2,242.71,121.68Z"/>
        <g>
          <path class="cls-17" d="m350.29,277.33c1.58-3.88,30.43,4.21,64.43,18.08,16.27,6.63,30.76,13.38,41.29,19.05-13.43.07-26.58-.58-39.33-1.92-2.53-.99-5.1-2.02-7.7-3.08-34-13.87-60.28-28.25-58.7-32.13Z"/>
          <path class="cls-17" d="m442.42,348.18c-1.81,3.78-30.12-6.02-63.23-21.9-33.11-15.87-58.48-31.81-56.67-35.59,1.81-3.78,30.12,6.02,63.23,21.9,33.11,15.87,58.48,31.81,56.67,35.59Z"/>
          <path class="cls-17" d="m430.15,373.79c-1.81,3.78-30.12-6.02-63.23-21.9-33.11-15.87-58.48-31.81-56.67-35.59,1.81-3.78,30.12,6.02,63.23,21.9,33.11,15.87,58.48,31.81,56.67,35.59Z"/>
          <ellipse class="cls-17" cx="343.35" cy="401.04" rx="7.59" ry="66.49" transform="translate(-166.71 537.28) rotate(-64.39)"/>
          <ellipse class="cls-17" cx="331.65" cy="425.44" rx="7.59" ry="66.49" transform="translate(-195.36 540.59) rotate(-64.39)"/>
          <ellipse class="cls-17" cx="319.95" cy="449.85" rx="7.59" ry="66.49" transform="translate(-224.01 543.89) rotate(-64.39)"/>
          <ellipse class="cls-17" cx="283.06" cy="470.51" rx="7.59" ry="66.49" transform="translate(-263.57 522.36) rotate(-64.39)"/>
        </g>
        <g>
          <path class="cls-17" d="m452.74,322.68s0-.04.01-.05c.61-2.26,3.11-3.42,5.23-2.41,8.47,4.05,17.99,8.97,27.94,14.5,32.09,17.84,56.46,35.27,54.42,38.94-2.03,3.66-29.71-7.83-61.8-25.67-8.14-4.52-15.78-9.02-22.61-13.27h0c-1.26-3.35-2.33-6.74-3.2-10.15-.16-.61-.15-1.26.01-1.87Z"/>
          <path class="cls-17" d="m548.86,417.22c-.83,1.71-1.7,3.42-2.63,5.1-.91,1.66-2.91,2.39-4.67,1.69-9.27-3.69-19.94-8.37-31.15-13.75-33.11-15.87-58.48-31.81-56.67-35.59,1.81-3.78,30.12,6.02,63.23,21.9,11.28,5.41,21.66,10.82,30.37,15.76,1.72.97,2.37,3.11,1.52,4.88Z"/>
          <path class="cls-17" d="m532.85,441.76c-1.39,1.66-2.83,3.3-4.33,4.93-1.06,1.15-2.73,1.52-4.18.92-8.04-3.33-16.94-7.3-26.21-11.74-33.11-15.87-58.48-31.81-56.67-35.59,1.81-3.78,30.12,6.02,63.24,21.9,9.89,4.74,19.1,9.49,27.09,13.92,2.05,1.14,2.56,3.86,1.06,5.66Z"/>
          <path class="cls-17" d="m478.14,478.32c-5.65,2.48-11.48,4.82-17.48,7-.97.36-2.06.29-2.98-.19-26.18-13.42-44.62-25.6-43.07-28.85,1.81-3.78,30.12,6.02,63.23,21.9.1.04.19.09.29.14Z"/>
          <path class="cls-17" d="m431.01,494.53c-2.31.6-4.65,1.18-6.99,1.74-.96.23-1.97.07-2.81-.44-12.12-7.35-19.28-13.07-18.29-15.14,1.12-2.33,12.31.5,28.49,6.74,3.38,1.3,3.11,6.19-.4,7.1Z"/>
        </g>
        <g>
          <path class="cls-17" d="m286.11,295.78c-1.02,2.12-10.37-.03-24.23-5.13-2.77-1.02-2.45-5.04.45-5.6,2.87-.55,5.76-1.07,8.68-1.55.72-.12,1.46.04,2.07.43,8.88,5.74,13.87,10.1,13.03,11.85Z"/>
          <path class="cls-17" d="m273.83,321.38c-1.69,3.53-26.53-4.8-56.8-18.86-2.37-1.1-2.22-4.52.24-5.39,4.13-1.45,8.34-2.83,12.63-4.12.72-.22,1.51-.15,2.18.2,25.47,13.15,43.27,24.98,41.75,28.16Z"/>
          <path class="cls-17" d="m261.55,346.99c-1.81,3.78-30.12-6.03-63.23-21.9-5.48-2.63-10.75-5.25-15.71-7.83-2.1-1.09-2.1-4.08-.01-5.17,3.39-1.77,6.85-3.47,10.4-5.11.77-.36,1.66-.36,2.43,0,3.09,1.42,6.25,2.89,9.45,4.43,33.11,15.87,58.48,31.81,56.67,35.59Z"/>
          <path class="cls-17" d="m132.04,360.75c1.64-3.86,30.36,4.7,64.13,19.1,17.61,7.51,33.12,15.13,43.7,21.25,1.53.89,1.93,2.93.83,4.32-1.04,1.32-2.12,2.62-3.23,3.92-.75.88-1.94,1.24-3.05.91-11.61-3.45-27.28-9.21-44.21-16.43-33.78-14.41-59.82-29.21-58.18-33.06Z"/>
          <path class="cls-17" d="m131.02,393.01c1.78-3.79,30.17,5.76,63.42,21.34,19.54,9.16,36.4,18.35,46.63,25.15,1.24.82,1.66,2.44.98,3.76-.55,1.06-1.12,2.11-1.71,3.16-.67,1.18-2.06,1.75-3.36,1.36-11.77-3.53-29.54-10.57-48.97-19.68-33.25-15.58-58.76-31.29-56.98-35.09Z"/>
          <path class="cls-17" d="m132.01,429.03c1.75-3.81,30.21,5.56,63.56,20.93,18.16,8.37,34.03,16.79,44.43,23.34.57.36,1,.91,1.22,1.55,0,0,0,.01,0,.02.16.47.19.97.1,1.45-.26,1.41-.56,2.81-.88,4.2-.39,1.64-2.07,2.62-3.68,2.13-11.78-3.58-28.9-10.3-47.55-18.9-33.35-15.36-58.96-30.9-57.21-34.71Z"/>
        </g>
        <path class="cls-17" d="m301.27,325.11c0,26.28-35.48,47.58-79.25,47.58s-78.94-21.12-79.24-47.24c0-.11,0-.23,0-.34,0,0-3.06-38.23,55.77-73.62,0,0,7.65-6.02,11.68-6.4,4.03-.38,7.25,5.17,9.67,3.34,2.42-1.83,5.24-6.01,7.65-3.36,2.42,2.65,1.61,4.06,3.63,3.36,2.01-.71,2.31-.52,4.3,3.06,1.84,3.32,54.94,18.76,64.4,62.58.49,2.25.86,4.57,1.1,6.97.14,1.33.23,2.69.29,4.07Z"/>
        <path class="cls-17" d="m522.26,318.5c0,26.09-35.48,47.25-79.25,47.25s-79.25-21.15-79.25-47.25c-.26-2.4-.11-4.85.38-7.31,5.81-29.21,59.81-61.81,61.4-63.77,1.72-2.13,4.58-2.79,7.57-3.18,2.98-.38,7.21,3.46,13.6.98,6.39-2.48,7.52.51,7.52.51,46.85,18.95,61.46,45.3,66,60.55,1.27,4.27,1.76,7.67,1.93,9.79.07.81.1,1.61.1,2.43Z"/>
        <path class="cls-3" d="m519.85,311.14c0,26.09-35.48,47.25-79.25,47.25s-79.25-21.15-79.25-47.25c-.26-2.4-.11-4.85.38-7.31,5.81-29.21,59.81-61.81,61.4-63.77,1.72-2.13,4.58-2.79,7.57-3.18,2.98-.38,7.21,3.46,13.6.98,6.39-2.48,7.52.51,7.52.51,46.85,18.95,61.46,45.3,66,60.55,1.27,4.27,1.76,7.67,1.93,9.79.07.81.1,1.61.1,2.43Z"/>
        <path class="cls-3" d="m300.58,317.75c0,26.28-35.48,47.58-79.25,47.58s-78.94-21.12-79.24-47.24c0-.11,0-.23,0-.34,0,0-3.06-38.23,55.77-73.62,0,0,7.65-6.02,11.68-6.4,4.03-.38,7.25,5.17,9.67,3.34,2.42-1.83,5.24-6.01,7.65-3.36,2.42,2.65,1.61,4.06,3.63,3.36,2.01-.71,2.31-.52,4.3,3.06,1.84,3.32,54.94,18.76,64.4,62.58.49,2.25.86,4.57,1.1,6.97.14,1.33.23,2.69.29,4.07Z"/>
        <path class="cls-17" d="m438.76,407.56c0,15.61-41.02,28.27-91.62,28.27s-88.29-11.65-91.43-26.38c-.13-.62-.2-1.25-.2-1.88,0,0-1.91-26.67,78.66-43.54,0,0,1.31-1.79,8.69-.31,7.38,1.48,12.27-.81,15.72-.59,3.45.23,6.75.63,8.75,1.9,1.57,1.01,47.54,15.44,64.96,30.54,4.65,4.03,7.27,8.11,6.46,11.99Z"/>
        <path class="cls-10" d="m300.58,317.75c-.05-1.38-.15-2.74-.29-4.07.19,1.34.29,2.7.29,4.07Z"/>
        <path class="cls-6" d="m519.85,311.14c0,26.09-35.48,47.25-79.25,47.25s-79.25-21.15-79.25-47.25c-.26-2.4-.11-4.85.38-7.31,3.16-.35,9.21.56,20.74,4.88,26.53,9.94,32.98,31.29,39.03,32.1,6.04.81,18.53-7.26,42.31-5.64,23.78,1.61,32.15-3.03,37.64-11.79,3.88-6.2,12.4-16.3,16.37-24.46,1.27,4.27,1.76,7.67,1.93,9.79.07.81.1,1.61.1,2.43Z"/>
        <path class="cls-14" d="m439.92,247.56s.13,21.56-14.49,35.09c-14.62,13.54-16.71,3.87-10.25-.04s19.63-12.12,24.74-35.05Z"/>
        <path class="cls-14" d="m444.59,244.81s11.08,18.49,5.39,37.58c-5.7,19.1-12.41,11.84-8.84,5.18,3.57-6.66,10.73-20.42,3.45-42.76Z"/>
        <path class="cls-14" d="m453.67,248.8s15.43,14.8,15.63,30.89c.21,16.1-8.02,10.4-6.64,4.71,1.38-5.69,4.04-17.43-8.99-35.6Z"/>
        <path class="cls-14" d="m456.72,248.17s17.35,4.55,24.08,16.27c6.72,11.72-1.64,10.9-2.94,6.17s-4.16-14.43-21.13-22.43Z"/>
        <path class="cls-6" d="m300.58,317.75c0,26.28-35.48,47.58-79.25,47.58s-78.94-21.12-79.24-47.24c4.71,4.33,11.22,9.51,18.7,13.18,15.31,7.52,16.33-10.57,37.18-4.35,20.85,6.23,31.94,14.65,39.89,6.21,7.34-7.79,34.68-31.85,61.34-26.43.49,2.25.86,4.57,1.1,6.97.14,1.33.23,2.69.29,4.07Z"/>
        <path class="cls-10" d="m519.85,311.14c0-.82-.03-1.62-.1-2.43.13,1.57.1,2.43.1,2.43Z"/>
        <path class="cls-16" d="m621.24,14.42l-20.44,21-1.92,1.98-2.52,2.54-6.11,6.16-6.17,6.22-178.71,180.04h0s-49.77,50.14-49.77,50.14c0,0-.2.21-.6.61l-.02.02c-5.51,5.64-46.62,47.61-57.14,55.97-8.24,6.55-7.12-1.29-7.12-1.29l106.35-113.62,76.47-81.7v-.02s93.35-99.73,93.35-99.73l6.64-7.09,11.25-12.02,3.22-3.44L606.87.02c16.75-.67,14.37,14.4,14.37,14.4Z"/>
        <path class="cls-10" d="m559.99,417.53c-10.71,14.32-24.89,27.44-41.89,38.95-12,8.13-25.39,15.46-39.96,21.84-6.13,2.69-12.48,5.21-19.01,7.55-5.68,2.04-11.5,3.94-17.46,5.7-2.94.87-5.91,1.7-8.91,2.5-19.74-9.27-32.36-23.45-32.36-39.33,0,0-.14-2.51.56-6.85,2.13-13.15,12.06-43.11,57.53-70.62,0,0,4.48-7.52,9.53-7.83,5.04-.31,3.18.76,7.4,2.93,4.23,2.17,6.34-1.12,9.66-1.52,3.32-.4,3.56,2.8,4.38,3.03.82.23,3.18-3.77,4.99-2.24,1.81,1.54,5.37,3.72,5.37,3.72,0,0,38.36,15.97,60.17,42.17Z"/>
        <path class="cls-14" d="m432.16,249.45s-10.72,18.49-26.31,22.5c-15.59,4.01-12-5.33-6.15-5.34,5.85,0,17.89-.21,32.46-17.17Z"/>
        <path class="cls-14" d="m222.22,252.75s-.13,21.56,14.49,35.09,16.71,3.87,10.25-.04c-6.46-3.91-19.63-12.12-24.74-35.05Z"/>
        <path class="cls-14" d="m217.56,250s-11.08,18.49-5.39,37.58,12.41,11.84,8.84,5.18c-3.57-6.66-10.73-20.42-3.45-42.76Z"/>
        <path class="cls-14" d="m208.47,253.99s-15.43,14.8-15.63,30.89c-.21,16.1,8.02,10.4,6.64,4.71-1.38-5.69-4.04-17.43,8.99-35.6Z"/>
        <path class="cls-14" d="m205.42,253.36s-17.35,4.55-24.08,16.27c-6.72,11.72,1.64,10.9,2.94,6.17,1.31-4.73,4.16-14.43,21.13-22.43Z"/>
        <path class="cls-14" d="m229.98,254.64s10.72,18.49,26.31,22.5c15.59,4.01,12-5.33,6.15-5.34-5.85,0-17.89-.21-32.46-17.17Z"/>
        <path class="cls-3" d="m482.51,387.84s-.13,21.56,14.49,35.09c14.62,13.54,16.71,3.87,10.25-.04-6.46-3.91-19.63-12.12-24.74-35.05Z"/>
        <path class="cls-3" d="m477.84,385.09s-11.08,18.49-5.39,37.58c5.7,19.1,12.41,11.84,8.84,5.18-3.57-6.66-10.73-20.42-3.45-42.76Z"/>
        <path class="cls-3" d="m468.76,389.08s-15.43,14.8-15.63,30.89c-.21,16.1,8.02,10.4,6.64,4.71s-4.04-17.43,8.99-35.6Z"/>
        <path class="cls-3" d="m465.71,388.45s-17.35,4.55-24.08,16.27c-6.72,11.72,1.64,10.9,2.94,6.17,1.31-4.73,4.16-14.43,21.13-22.43Z"/>
        <path class="cls-3" d="m490.27,389.73s10.72,18.49,26.31,22.5c15.59,4.01,12-5.33,6.15-5.34-5.85,0-17.89-.21-32.46-17.17Z"/>
        <path class="cls-3" d="m518.1,456.48c-12,8.13-25.39,15.46-39.96,21.84-6.13,2.69-12.48,5.21-19.01,7.55-5.68,2.04-11.5,3.94-17.46,5.7-2.94.87-5.91,1.7-8.91,2.5-19.74-9.27-32.36-23.45-32.36-39.33,0,0-.14-2.51.56-6.85,5.84,7.18,15.11,15.98,24.86,15.02,16.23-1.61,22.84-6.35,52.32-3.05,13.57,1.52,28.09-.56,39.96-3.38Z"/>
        <path class="cls-9" d="m365.08,294.26c11.46-15.92,25.44-29.96,41.31-41.5.92-.67.03-2.23-.9-1.55-16.14,11.72-30.3,25.95-41.96,42.14-.67.94.88,1.83,1.55.9h0Z"/>
        <path class="cls-9" d="m475.28,252.46c14.34,7.58,30.64,16.53,35.26,33.37.31,1.11,2.03.64,1.73-.48-4.76-17.33-21.3-26.62-36.09-34.44-1.02-.54-1.93,1.01-.9,1.55h0Z"/>
        <path class="cls-9" d="m241.65,250.14c21.64,10.55,46.7,23.33,53.43,48.57.3,1.11,2.03.64,1.73-.48-6.87-25.74-32.17-38.87-54.26-49.64-1.03-.5-1.94,1.04-.9,1.55h0Z"/>
        <path class="cls-9" d="m164.37,270.72c-10.01,12.2-20.48,25.25-22.41,41.48-1.81,15.23,6.2,28.61,18.05,37.59,7.31,5.54,15.7,9.4,24.14,12.88,1.07.44,1.53-1.29.48-1.73-13.54-5.58-27.51-12.61-35.59-25.39-3.91-6.19-5.88-13.23-5.52-20.55.38-7.74,3.08-15.21,6.84-21.93,4.24-7.6,9.78-14.37,15.28-21.08.73-.89-.54-2.16-1.27-1.27h0Z"/>
        <path class="cls-9" d="m195.58,363.2c4.43.67,8.87,1.34,13.3,2.01,1.13.17,1.61-1.56.48-1.73l-13.3-2.01c-1.13-.17-1.61,1.56-.48,1.73h0Z"/>
        <path class="cls-9" d="m221.22,365.58c1.88.13,3.76.25,5.64.38,1.15.08,1.15-1.72,0-1.79-1.88-.13-3.76-.25-5.64-.38-1.15-.08-1.15,1.72,0,1.79h0Z"/>
        <path class="cls-9" d="m402.07,444.01c7.14-19.77,20.12-37.25,37-49.77.92-.68.02-2.24-.9-1.55-17.29,12.82-30.52,30.59-37.83,50.84-.39,1.09,1.34,1.56,1.73.48h0Z"/>
        <path class="cls-9" d="m477.08,374.44c5.56-2.6,11.83-.97,17.31,1.02,5.47,1.99,10.83,4.34,16.07,6.87,10.27,4.97,20.11,10.83,29.35,17.51,5.32,3.84,10.43,7.97,15.33,12.33.86.76,2.13-.5,1.27-1.27-17.93-15.95-38.94-28.97-61.54-37.17-6.01-2.18-12.65-3.66-18.69-.84-1.04.49-.13,2.03.9,1.55h0Z"/>
        <path class="cls-9" d="m354.92,506.88c-.48,0-.88-.38-.9-.87-.02-.49.37-.91.87-.92.17,0,17.4-.59,41.06-4.27,21.82-3.39,53.72-10.19,81.8-23.31.45-.21.98-.02,1.19.43.21.45.02.98-.43,1.19-28.28,13.21-60.37,20.05-82.31,23.46-23.76,3.7-41.08,4.28-41.25,4.28,0,0-.02,0-.03,0Z"/>
        <path class="cls-9" d="m498.81,469.1c-.32,0-.63-.17-.79-.48-.23-.44-.06-.98.37-1.21.36-.19,36.67-19.52,50.53-37.46.3-.39.86-.46,1.26-.16.39.3.46.87.16,1.26-14.1,18.24-49.61,37.15-51.11,37.95-.13.07-.28.1-.42.1Z"/>
        <path class="cls-9" d="m566.33,409.15c-.17,0-.34-.05-.49-.15-.41-.27-.53-.83-.26-1.24.07-.1,6.79-10.46,11.49-26.1,4.32-14.39,7.77-36.34-.38-59.17-.17-.47.08-.98.54-1.15.47-.17.98.08,1.15.54,8.32,23.3,4.8,45.67.39,60.34-4.78,15.87-11.62,26.41-11.69,26.51-.17.26-.46.4-.75.4Z"/>
        <path class="cls-9" d="m361.22,570.96c-.49,0-.89-.39-.9-.88,0-.49.38-.9.88-.91.4,0,40.37-.96,88.22-16.17,44.11-14.02,104.14-43.37,139.63-103.6.25-.43.8-.57,1.23-.32.43.25.57.8.32,1.23-15.81,26.82-37.71,49.86-65.1,68.47-21.89,14.88-47.32,26.97-75.58,35.95-48.09,15.28-88.28,16.23-88.68,16.24h-.02Z"/>
        <path class="cls-9" d="m178.76,533.51c-.08,0-.16-.01-.24-.03-17.14-4.81-33.12-12.5-47.5-22.86-11.5-8.28-22-18.29-31.21-29.72-15.69-19.48-22.3-36.64-22.37-36.81-.18-.46.06-.98.52-1.16.46-.18.98.06,1.16.52.06.17,6.6,17.11,22.13,36.37,14.31,17.75,39.42,41.17,77.76,51.93.48.13.75.63.62,1.1-.11.4-.47.65-.86.65Z"/>
        <path class="cls-1" d="m429.97,245.1c-.84-1.67-4.81-1.37-8.88.67-4.06,2.04-6.68,5.05-5.84,6.72.84,1.67,4.81,1.37,8.88-.67,4.06-2.04,6.68-5.05,5.84-6.72Z"/>
        <path class="cls-1" d="m212.78,244.47c-.84-1.67-4.81-1.37-8.88.67-4.06,2.04-6.68,5.05-5.84,6.72.84,1.67,4.81,1.37,8.88-.67,4.06-2.04,6.68-5.05,5.84-6.72Z"/>
        <g>
          <path class="cls-2" d="m422.92,350.53c7.88,29.9-23.45,64.08-69.99,76.34-44.65,11.77-87.07-.92-97.39-28.38-.43-1.16-.81-2.35-1.13-3.56,0,0-15.22-50.62,50.36-102.44,0,0,.3-3.75,7.84-2.7,7.54,1.05,10.87-4.53,14.16-4.93,3.29-.4,6.53-.44,9,1.52,1.96,1.55,51.51,18.05,75.15,42.75,6.31,6.59,10.78,13.77,11.99,21.4Z"/>
          <g>
            <path class="cls-3" d="m422.92,350.53c7.88,29.9-23.45,64.08-69.99,76.34-44.65,11.77-87.07-.92-97.39-28.38,6.75,5.78,18.3,12.26,33.5,8.12,25.14-6.85,32.84,8.06,48.72-1.17,15.88-9.22,27.97-26.7,46.78-26.48,17.53.2,34.74-26.12,26.39-49.83,6.31,6.59,10.78,13.77,11.99,21.4Z"/>
            <path class="cls-3" d="m316.01,299.72s5.62,20.81-5.07,37.63-15.17,8-9.92,2.57c5.25-5.43,15.89-16.72,14.99-40.2Z"/>
            <path class="cls-3" d="m319.83,295.87s15.43,15.05,14.79,34.97c-.64,19.92-8.99,14.61-7.23,7.26,1.76-7.35,5.17-22.48-7.56-42.23Z"/>
            <path class="cls-3" d="m329.62,297.41s18.69,10.38,22.99,25.89c4.3,15.51-5.11,12.1-5.22,6.25-.11-5.85-.54-17.89-17.77-32.14Z"/>
            <path class="cls-3" d="m332.42,296.02s17.94-.02,27.43,9.59c9.49,9.62,1.2,10.96-1.28,6.71-2.47-4.25-7.7-12.89-26.15-16.31Z"/>
            <path class="cls-3" d="m308.99,303.52s-5.66,20.62-19.71,28.47c-14.05,7.85-12.97-2.1-7.31-3.59,5.66-1.49,17.25-4.76,27.02-24.87Z"/>
            <path class="cls-9" d="m338.19,287.3c13.46,6.9,26.92,13.8,40.37,20.71,11.96,6.14,24.55,12.28,33.37,22.75,4.56,5.41,7.86,11.81,8.94,18.84.17,1.14,1.9.65,1.73-.48-1.93-12.55-10.64-22.64-20.67-29.82-5.84-4.18-12.2-7.56-18.58-10.84-6.86-3.53-13.74-7.05-20.61-10.57-7.89-4.04-15.77-8.09-23.66-12.13-1.02-.53-1.93,1.02-.9,1.55h0Z"/>
            <path class="cls-9" d="m264.11,337.13c-6.1,9.51-11.04,20.82-11.15,32.29-.01,1.15,1.78,1.15,1.79,0,.1-11.16,4.97-22.13,10.9-31.38.62-.97-.93-1.87-1.55-.9h0Z"/>
            <path class="cls-9" d="m268.98,332.34c3.39-3.9,6.77-7.81,10.16-11.71.75-.87-.51-2.14-1.27-1.27-3.39,3.9-6.77,7.81-10.16,11.71-.75.87.51,2.14,1.27,1.27h0Z"/>
            <path class="cls-9" d="m359.29,425.21c10.03-1.73,19.64-5.31,28.37-10.53.99-.59.09-2.14-.9-1.55-8.61,5.15-18.06,8.64-27.95,10.35-1.13.2-.65,1.92.48,1.73h0Z"/>
            <path class="cls-1" d="m299.45,305.38c-1.24-1.4-5-.1-8.41,2.91-3.41,3.01-5.17,6.58-3.94,7.98,1.24,1.4,5,.1,8.41-2.91,3.41-3.01,5.17-6.58,3.94-7.98Z"/>
            <path class="cls-1" d="m374.49,371.72c-.1-1.86-3.86-3.18-8.4-2.95s-8.14,1.94-8.05,3.81c.1,1.86,3.86,3.18,8.4,2.95,4.54-.24,8.14-1.94,8.05-3.81Z"/>
            <path class="cls-1" d="m400.28,348.71c-2.92-2.63-9.34-.28-14.34,5.26-5,5.54-6.69,12.17-3.77,14.8,2.92,2.63,9.34.28,14.34-5.26,5-5.54,6.69-12.17,3.77-14.8Z"/>
          </g>
        </g>
        <path class="cls-1" d="m471.43,376.41c-.84-1.67-4.81-1.37-8.88.67-4.06,2.04-6.68,5.05-5.84,6.72.84,1.67,4.81,1.37,8.88-.67,4.06-2.04,6.68-5.05,5.84-6.72Z"/>
        <path class="cls-16" d="m479.83,602.2s22.92,100.12,104.38,94.01c0,0,77.82,9.97,101.4-94.01h-205.77Z"/>
        <ellipse class="cls-1" cx="582.71" cy="602.2" rx="102.89" ry="65.81"/>
        <path class="cls-3" d="m678.71,602.2c0,8.24-3.45,16.58-9.81,24.23-4.24,5.11-9.78,9.91-16.46,14.19-18.51,11.84-43.28,18.36-69.73,18.36s-51.22-6.52-69.73-18.36c-6.68-4.28-12.22-9.08-16.46-14.19-6.36-7.65-9.81-15.99-9.81-24.23,0-13.73,9.58-27.74,26.27-38.41,18.51-11.84,43.28-18.36,69.73-18.36s51.22,6.52,69.73,18.36c16.69,10.68,26.27,24.68,26.27,38.41Z"/>
        <path class="cls-9" d="m668.91,626.43c-4.24,5.11-9.78,9.91-16.46,14.19-18.51,11.84-43.28,18.36-69.73,18.36-18.93,0-37-3.34-52.52-9.58-6.17-2.48-11.95-5.41-17.21-8.78-.63-.41-1.26-.82-1.87-1.23-5.85-3.96-10.75-8.33-14.59-12.95.88-11.13,8.65-22.32,21.68-31.18.6-.41,1.21-.82,1.84-1.21,2.24-1.44,4.59-2.78,7.02-4.04,15.64-8.07,35.08-12.46,55.65-12.46,10.61,0,20.93,1.17,30.57,3.41.33.07.66.15.99.23,7.61,1.83,14.79,4.34,21.36,7.47,3.42,1.63,6.69,3.43,9.76,5.4,4.45,2.85,8.34,5.96,11.6,9.24,7.12,7.16,11.29,15.17,11.92,23.15Z"/>
        <path class="cls-1" d="m537.82,564.75c-.77-1.89-5.91-1.59-11.48.68-5.58,2.26-9.47,5.62-8.71,7.51s5.91,1.59,11.48-.68c5.58-2.26,9.47-5.62,8.71-7.51Z"/>
        <path class="cls-1" d="m51.46,216.51c-.77-1.89-5.91-1.59-11.48.68-5.58,2.26-9.47,5.62-8.71,7.51s5.91,1.59,11.48-.68c5.58-2.26,9.47-5.62,8.71-7.51Z"/>
        <path class="cls-1" d="m550.62,570.37c-.39-.97-3.05-.82-5.92.35-2.88,1.17-4.89,2.9-4.49,3.87.39.97,3.05.82,5.92-.35s4.89-2.9,4.49-3.87Z"/>
        <path class="cls-1" d="m646.49,628.88c-.39-.97-3.05-.82-5.92.35-2.88,1.17-4.89,2.9-4.49,3.87.39.97,3.05.82,5.92-.35,2.88-1.17,4.89-2.9,4.49-3.87Z"/>
        <path class="cls-15" d="m656.99,603.28c-12-2.18-21.09-2.82-30.66,14.98-12.49,23.24-31.52,35.07-45.38,27.34-13.86-7.73-44.74-6.91-49.72,2.36-.31.57-.66,1.05-1.05,1.45-6.17-2.48-11.95-5.41-17.21-8.78-.63-.41-1.26-.82-1.87-1.23,1.41-7.32,7.51-29.94,38.13-23.28,35.19,7.66,36.8,25.78,56.95-1.21,10.48-14.05,20.64-22.42,29.44-26.26,3.42,1.63,6.69,3.43,9.76,5.4,4.45,2.85,8.34,5.96,11.6,9.24Z"/>
        <path class="cls-15" d="m614.27,581.18c-.65.09-1.31.18-1.98.28.33-.17.66-.34.99-.51.33.07.66.15.99.23Z"/>
        <path class="cls-15" d="m595.33,609.88c-.88,4.25-9.43,6.06-19.09,4.05-9.66-2.01-16.77-7.09-15.88-11.33.88-4.25,9.43-6.06,19.09-4.05,9.66,2.01,16.77,7.09,15.88,11.33Z"/>
        <path class="cls-15" d="m607.72,601.55c-1.14,2.32-5.65,2.45-10.08.27-4.43-2.17-7.09-5.82-5.95-8.14s5.65-2.45,10.08-.27c4.43,2.17,7.09,5.82,5.95,8.14Z"/>
        <path class="cls-9" d="m673.83,82.5l-23.2,17.9-2.19,1.69-2.85,2.16-5.32,4.02-8.89,6.72-202.06,152.76h0s-56.35,42.6-56.35,42.6c0,0-.23.18-.67.52h-.02c-6.26,4.82-52.88,40.56-64.47,47.35-9.08,5.32-6.86-2.29-6.86-2.29l121.34-97.46,87.24-70.07h.01s113.43-91.11,113.43-91.11l8.47-6.8,5.01-4.03,3.67-2.95,21.53-17.3c16.68,1.71,12.19,16.29,12.19,16.29Z"/>
        <path class="cls-10" d="m308.46,477.88c0,9.79-4.69,18.93-12.83,26.7-49.29-4.83-93.75-18.63-128.84-38.6-8.84-5.03-17.08-10.45-24.65-16.22,19.28-32.05,66.91-52.08,66.91-52.08,0,0,3.56-2.21,5.37-3.76,1.81-1.55,4.17,2.49,4.99,2.26.82-.23,1.05-3.47,4.37-3.06,3.32.41,5.44,3.73,9.66,1.54,4.23-2.19,2.36-3.27,7.41-2.96,5.04.31,9.52,7.91,9.52,7.91,46.73,28.57,55.92,59.74,57.69,72.42.52,3.72.4,5.85.4,5.85Z"/>
        <path class="cls-3" d="m226.18,412.76s.13,21.56-14.49,35.09c-14.62,13.54-16.71,3.87-10.25-.04,6.46-3.91,19.63-12.12,24.74-35.05Z"/>
        <path class="cls-3" d="m230.84,410.01s11.08,18.49,5.39,37.58-12.41,11.84-8.84,5.18c3.57-6.66,10.73-20.42,3.45-42.76Z"/>
        <path class="cls-3" d="m239.92,414s15.43,14.8,15.63,30.89-8.02,10.4-6.64,4.71c1.38-5.69,4.04-17.43-8.99-35.6Z"/>
        <path class="cls-3" d="m242.98,413.37s17.35,4.55,24.08,16.27-1.64,10.9-2.94,6.17c-1.31-4.73-4.16-14.43-21.13-22.43Z"/>
        <path class="cls-3" d="m218.42,414.65s-10.72,18.49-26.31,22.5c-15.59,4.01-12-5.33-6.15-5.34,5.85,0,17.89-.21,32.46-17.17Z"/>
        <path class="cls-3" d="m308.46,477.88c0,9.79-4.69,18.93-12.83,26.7-49.29-4.83-93.75-18.63-128.84-38.6,10.83.27,26.74,1.26,37.69,4.53,18.07,5.39,25.8,14.89,45.96,12.26,17.29-2.26,38.32-21.18,57.63-10.74.52,3.72.4,5.85.4,5.85Z"/>
        <path class="cls-9" d="m250.6,400.01c23.95,11.55,42.74,32.84,51.73,57.82,2.55,7.09,4.31,14.46,5.19,21.94.13,1.13,1.93,1.15,1.79,0-3.14-26.88-17.33-52.02-38.37-68.99-5.99-4.83-12.5-8.98-19.44-12.32-1.03-.5-1.94,1.05-.9,1.55h0Z"/>
        <path class="cls-9" d="m147.66,443.69c10.89-12.29,23.64-22.8,37.8-31.12.99-.58.09-2.13-.9-1.55-14.28,8.4-27.18,19-38.16,31.4-.76.86.5,2.13,1.27,1.27h0Z"/>
        <path class="cls-9" d="m300.72,505.99c-36,0-72.58-11.77-96.98-21.68-26.56-10.78-44.84-21.74-45.02-21.85-.42-.26-.56-.81-.3-1.23.26-.42.81-.56,1.23-.3.18.11,18.36,11.01,44.8,21.74,24.25,9.84,60.59,21.53,96.28,21.53.19,0,.37,0,.55,0h0c.49,0,.89.4.9.89,0,.49-.4.9-.89.9-.19,0-.37,0-.56,0Z"/>
        <path class="cls-1" d="m215.83,406.32c-.84-1.67-4.81-1.37-8.88.67-4.06,2.04-6.68,5.05-5.84,6.72.84,1.67,4.81,1.37,8.88-.67,4.06-2.04,6.68-5.05,5.84-6.72Z"/>
        <path class="cls-11" d="m471.15,652.75s-2.13,20.44-16.77,31.95c0,0-6.57,4.25-10,6.58s-4.75-6.73-4.75-6.73c0,0-5.46,1.55-7.34.49-1.88-1.06-1.67-8.32-.51-10.82,1.16-2.49-14.47,13.35-20.99,14.18s-6.99-3.25-6.99-3.25l2.93-6.31s-15.55,2.04-19.75.44c-4.2-1.6,4.09-8.82,4.09-8.82,0,0-8.99,7.02-17.01.47,0,0,3.11-8.41,10.2-13.46,0,0-3.32,2.05-7.8-3.62,0,0,4.65-11.73,22.26-12.23,0,0-8.6-8.74-11.84-10.23-3.25-1.5,2.94-6.32,9.68-7.24l6.75-.92s11.25,1.02,19.62,2.26c0,0-6.15-8.29-6.29-10.12,0,0,3.51-1.2,11.76,3.16,0,0-1.16-5.43.95-6.87,0,0,19.51,4.47,21.34,10.75,0,0,17.35,1.69,20.46,30.35Z"/>
        <path class="cls-8" d="m396.09,658.98s63.55-5.04,72.67-13.38c0,0-7.4,21.4-72.67,13.38Z"/>
        <path class="cls-8" d="m641.28,526.45s38.68,16.32,73.74,12.69c0,0-36.87,24.78-73.74-12.69Z"/>
        <path class="cls-11" d="m595.35,485.28s29.9-28.23,39.39-47.74c.47-.97.89-1.91,1.25-2.83,7.71-19.47,1.95,39.92-40.64,50.57Z"/>
        <path class="cls-13" d="m179,692.5l-6.45,1.33-10.46-24.45-2.58-6.04-15.46-36.15c-.7-1.64.06-3.53,1.7-4.23,1.64-.7,3.53.06,4.24,1.7l15.94,37.28h0l2.58,6.04,10.49,24.52Z"/>
        <path class="cls-13" d="m202.81,687.59l-6.45,1.33-10.58-24.73-2.58-6.04-9.94-23.25c-.7-1.64.06-3.53,1.7-4.23,1.64-.7,3.53.06,4.23,1.7l10.42,24.38,2.58,6.04,10.61,24.81Z"/>
        <path class="cls-13" d="m56.49,447.54c-.42.18-.85.26-1.27.26-1.25,0-2.44-.73-2.97-1.96l-5.34-12.49-2.58-6.04-7.48-17.48,6.45-1.34,7.45,17.42,2.58,6.04,4.86,11.36c.7,1.64-.06,3.53-1.7,4.24Z"/>
        <path class="cls-13" d="m193.37,662.52l-1.17.26-6.42,1.41-17.26,3.79-6.42,1.41-31.16,6.84-2.79-6,31.37-6.88,6.41-1.41,17.27-3.79,6.41-1.41,2.37-.52c1.74-.38,3.46.72,3.84,2.46.38,1.74-.72,3.46-2.46,3.84Z"/>
        <path class="cls-13" d="m69.31,428.44l-15.99,3.51-6.42,1.41-26.26,5.76-2.79-6,26.47-5.8,6.41-1.41,17.19-3.77c1.74-.38,3.46.72,3.84,2.46.38,1.74-.72,3.46-2.46,3.84Z"/>
        <ellipse class="cls-17" cx="114.27" cy="222.36" rx="8.53" ry="3.17"/>
        <path class="cls-17" d="m82.5,237.43c.48-1.68-2.8-4.09-7.33-5.38-4.53-1.29-8.59-.97-9.07.71s2.8,4.09,7.33,5.38,8.59.97,9.07-.71Z"/>
        <path class="cls-17" d="m83.69,249.1c.48-1.68-1.56-3.74-4.55-4.59-2.99-.85-5.8-.18-6.28,1.5-.48,1.68,1.56,3.74,4.55,4.59s5.8.18,6.28-1.5Z"/>
        <path class="cls-17" d="m30.9,242.9c-.87-1.52-3.77-1.48-6.46.07-2.69,1.56-4.17,4.04-3.29,5.56.87,1.52,3.77,1.48,6.46-.07,2.69-1.56,4.17-4.04,3.29-5.56Z"/>
        <path class="cls-17" d="m40.54,244.33c-.58-1.01-2.46-1.01-4.19-.01-1.73,1-2.66,2.63-2.08,3.63.58,1.01,2.46,1.01,4.19.01,1.73-1,2.66-2.63,2.08-3.63Z"/>
        <path class="cls-17" d="m90.01,261.96c-.58-1.01-2.46-1.01-4.19-.01-1.73,1-2.66,2.63-2.08,3.63.58,1.01,2.46,1.01,4.19.01,1.73-1,2.66-2.63,2.08-3.63Z"/>
        <path class="cls-17" d="m63.31,282.84c-.58-1.01-2.46-1.01-4.19-.01s-2.66,2.63-2.08,3.63c.58,1.01,2.46,1.01,4.19.01s2.66-2.63,2.08-3.63Z"/>
        <path class="cls-7" d="m97.67,229.97c-.58-1.01-2.46-1.01-4.19-.01-1.73,1-2.66,2.63-2.08,3.63.58,1.01,2.46,1.01,4.19.01,1.73-1,2.66-2.63,2.08-3.63Z"/>
        <path class="cls-7" d="m77.43,250.94c-.58-1.01-2.46-1.01-4.19-.01-1.73,1-2.66,2.63-2.08,3.63.58,1.01,2.46,1.01,4.19.01,1.73-1,2.66-2.63,2.08-3.63Z"/>
        <path class="cls-7" d="m64.91,277.23c-.58-1.01-2.46-1.01-4.19-.01-1.73,1-2.66,2.63-2.08,3.63.58,1.01,2.46,1.01,4.19.01,1.73-1,2.66-2.63,2.08-3.63Z"/>
        <path class="cls-7" d="m134.31,239.61c.41-1.09-.77-2.54-2.64-3.25-1.87-.71-3.72-.4-4.13.69-.41,1.09.77,2.54,2.64,3.25,1.87.71,3.72.4,4.13-.69Z"/>
        <path class="cls-7" d="m46.74,234.03c.41-1.09-.77-2.54-2.64-3.25-1.87-.71-3.72-.4-4.13.69-.41,1.09.77,2.54,2.64,3.25,1.87.71,3.72.4,4.13-.69Z"/>
        <path class="cls-7" d="m55.42,280.89c.41-1.09-.77-2.54-2.64-3.25-1.87-.71-3.72-.4-4.13.69-.41,1.09.77,2.54,2.64,3.25,1.87.71,3.72.4,4.13-.69Z"/>
        <path class="cls-4" d="m573.53,35.64c6.04,3.31,11.6,6.82,16.72,10.46l-6.17,6.22c-5.9-4.09-11.7-7.21-17.18-9.59l6.64-7.09Z"/>
        <path class="cls-4" d="m640.28,108.27l-8.89,6.72c-2.66-6.39-5.48-12.28-8.43-17.7l8.47-6.8c3.67,6.21,6.57,12.22,8.85,17.78Z"/>
      </g>
    </g>
  </g>
</svg>