<?xml version="1.0" encoding="UTF-8"?>
<svg id="Calque_2" data-name="Calque 2" xmlns="http://www.w3.org/2000/svg" viewBox="0 0 162.08 236.1">
  <defs>
    <style>
      .cls-1 {
        fill: #fff7ed;
      }

      .cls-2 {
        fill: #fee881;
      }

      .cls-3 {
        fill: #ffdfd9;
      }

      .cls-4 {
        fill: #fff5cc;
      }

      .cls-5 {
        fill: #f2ebe3;
      }

      .cls-6 {
        fill: #fdb228;
      }

      .cls-7 {
        fill: #ffbe57;
      }

      .cls-8 {
        fill: none;
        opacity: .34;
      }

      .cls-9 {
        fill: #d8d2ca;
      }

      .cls-10 {
        fill: #fd7a56;
      }
    </style>
  </defs>
  <g id="Layer_1" data-name="Layer 1">
    <g id="fried_potatoes" data-name="fried potatoes">
      <g>
        <path class="cls-7" d="m83.35,119.51l-13.91-3.01c5.06-20.6,9.81-41.26,14.25-61.98,3.89-18.12,7.54-36.3,10.96-54.52,4.64,1,9.27,2.01,13.91,3.01-4.4,14.27-8.59,29.49-12.39,45.62-5.93,25.2-10.03,48.97-12.83,70.88Z"/>
        <path class="cls-4" d="m96.22,10.78s-6.62,25.93-4.54,28.26c2.08,2.33,12.08-42.57,4.54-28.26Z"/>
      </g>
      <g>
        <path class="cls-2" d="m53.41,122.41l-13.75-3.68c6.04-20.33,11.79-40.73,17.22-61.22,4.76-17.91,9.28-35.89,13.58-53.93,4.58,1.23,9.17,2.45,13.75,3.68-5.08,14.04-10,29.04-14.57,44.97-7.14,24.89-12.38,48.43-16.23,70.18Z"/>
        <path class="cls-4" d="m71.5,14.43s-7.86,25.58-5.9,28.01c1.97,2.43,14.12-41.93,5.9-28.01Z"/>
      </g>
      <g>
        <path class="cls-6" d="m34.46,15.48l3.27,5.81c.83,8.48,1.29,18.71.65,30.28-.44,8.08-1.28,14.21-2.63,24.03-1.18,8.53-2.78,18.72-5,30.19-1.5.02-3.01.04-4.51.07L34.46,15.48Z"/>
        <path class="cls-2" d="m25.13,72.71c.24-5.86.6-14.8.44-26.61-.16-11.91-.77-22.12-1.42-30.07l10.68-.46c.9,19.11.51,40.69-2.3,64.17-1.08,9.02-2.44,17.64-3.99,25.82-1.94.27-3.89.53-5.83.8,1.35-13.24,2.05-24.64,2.42-33.64Z"/>
        <path class="cls-4" d="m29.5,24.66s1.64,19.97-.19,21.43c-1.83,1.46-3.58-32.94.19-21.43Z"/>
      </g>
      <g>
        <path class="cls-6" d="m60.72,18.79l2.11,6.33c-.79,8.48-2.29,18.62-5.1,29.86-1.97,7.85-3.95,13.71-7.14,23.09-2.78,8.16-6.28,17.85-10.63,28.7-1.48-.26-2.96-.53-4.44-.79L60.72,18.79Z"/>
        <path class="cls-2" d="m40.7,73.21c1.35-5.71,3.39-14.41,5.48-26.04,2.11-11.73,3.44-21.87,4.31-29.79l10.58,1.57c-2.74,18.93-7.21,40.05-14.43,62.57-2.77,8.65-5.74,16.85-8.82,24.59-1.96-.11-3.92-.21-5.88-.32,3.84-12.74,6.68-23.81,8.75-32.57Z"/>
        <path class="cls-4" d="m54.1,26.86s-2.18,19.92-4.25,21.01c-2.07,1.09,2.73-33.03,4.25-21.01Z"/>
      </g>
      <g>
        <path class="cls-6" d="m72.52,11.4l2.11,6.33c-.79,8.48-2.29,18.62-5.1,29.86-1.97,7.85-3.95,13.71-7.14,23.09-2.78,8.16-6.28,17.85-10.63,28.7-1.48-.26-2.96-.53-4.44-.79L72.52,11.4Z"/>
        <path class="cls-2" d="m52.5,65.82c1.35-5.71,3.39-14.41,5.48-26.04,2.11-11.73,3.44-21.87,4.31-29.79l10.58,1.57c-2.74,18.93-7.21,40.05-14.43,62.57-2.77,8.65-5.74,16.85-8.81,24.59-1.96-.11-3.92-.21-5.88-.32,3.84-12.74,6.68-23.81,8.75-32.57Z"/>
        <path class="cls-4" d="m65.9,19.47s-2.18,19.92-4.25,21.01,2.73-33.03,4.25-21.01Z"/>
      </g>
      <g>
        <path class="cls-6" d="m153.19,42.9l-5.58,3.65c-4.65,7.14-9.77,16.01-14.54,26.57-3.33,7.37-5.42,13.2-8.75,22.53-2.89,8.12-6.16,17.89-9.49,29.09,1.32.71,2.65,1.42,3.97,2.14l34.39-83.99Z"/>
        <path class="cls-2" d="m135.07,97.98c2.49-5.31,6.29-13.4,11.88-23.81,5.63-10.5,10.89-19.27,15.13-26.03l-9.27-5.34c-9.61,16.54-19.22,35.87-27.55,57.99-3.2,8.51-5.97,16.77-8.37,24.75,1.6,1.13,3.2,2.27,4.8,3.4,4.9-12.37,9.55-22.81,13.37-30.96Z"/>
        <path class="cls-4" d="m153.36,53.33s-10.66,16.97-9.71,19.11c.95,2.14,18.37-27.58,9.71-19.11Z"/>
      </g>
      <g>
        <path class="cls-6" d="m139.47,33.53l-5.21,4.16c-3.95,7.55-8.21,16.86-11.96,27.83-2.62,7.65-4.15,13.65-6.58,23.26-2.11,8.35-4.44,18.39-6.69,29.86,1.38.58,2.77,1.17,4.15,1.75l26.29-86.86Z"/>
        <path class="cls-2" d="m126.65,90.07c1.97-5.52,5-13.94,9.57-24.83,4.61-10.99,9.02-20.22,12.6-27.34l-9.73-4.44c-8.01,17.37-15.74,37.53-21.94,60.34-2.38,8.77-4.35,17.26-5.99,25.43,1.7.98,3.4,1.95,5.1,2.93,3.71-12.78,7.35-23.61,10.38-32.09Z"/>
        <path class="cls-4" d="m140.63,43.89s-9.01,17.9-7.86,19.94c1.15,2.04,15.68-29.19,7.86-19.94Z"/>
      </g>
      <g>
        <path class="cls-6" d="m122.51,22.76l-4.99,4.43c-3.56,7.74-7.33,17.26-10.51,28.41-2.22,7.78-3.44,13.85-5.37,23.57-1.68,8.45-3.49,18.6-5.14,30.17,1.41.51,2.83,1.02,4.24,1.54l21.77-88.11Z"/>
        <path class="cls-2" d="m112.63,79.89c1.69-5.62,4.27-14.18,8.28-25.29,4.04-11.21,7.96-20.66,11.17-27.96l-9.95-3.93c-7.1,17.76-13.78,38.29-18.79,61.39-1.93,8.88-3.46,17.47-4.66,25.7,1.75.89,3.5,1.77,5.25,2.66,3.05-12.95,6.12-23.96,8.71-32.58Z"/>
        <path class="cls-4" d="m124.2,33.05s-8.07,18.34-6.82,20.32c1.25,1.98,14.15-29.96,6.82-20.32Z"/>
      </g>
      <g>
        <path class="cls-6" d="m128.78,34.7l-4.99,4.43c-3.56,7.74-7.33,17.26-10.51,28.41-2.22,7.78-3.44,13.85-5.37,23.57-1.68,8.45-3.49,18.6-5.14,30.17l4.24,1.54,21.77-88.11Z"/>
        <path class="cls-2" d="m118.9,91.84c1.69-5.62,4.27-14.18,8.28-25.29,4.04-11.21,7.96-20.66,11.17-27.96l-9.95-3.93c-7.1,17.76-13.78,38.29-18.79,61.39-1.93,8.88-3.46,17.47-4.66,25.7,1.75.89,3.5,1.77,5.25,2.66,3.05-12.95,6.12-23.96,8.71-32.58Z"/>
        <path class="cls-4" d="m130.47,45s-8.07,18.34-6.82,20.32c1.25,1.98,14.15-29.96,6.82-20.32Z"/>
      </g>
      <g>
        <path class="cls-6" d="m47.97,27.68l-4.99,4.43c-3.56,7.74-7.33,17.26-10.51,28.41-2.22,7.78-3.44,13.85-5.37,23.57-1.68,8.45-3.49,18.6-5.14,30.17,1.41.51,2.83,1.02,4.24,1.53L47.97,27.68Z"/>
        <path class="cls-2" d="m38.09,84.82c1.69-5.62,4.27-14.18,8.28-25.29,4.04-11.21,7.96-20.66,11.17-27.96l-9.95-3.93c-7.1,17.76-13.78,38.29-18.79,61.39-1.93,8.88-3.46,17.47-4.66,25.7,1.75.89,3.5,1.77,5.25,2.66,3.05-12.95,6.12-23.96,8.71-32.58Z"/>
        <path class="cls-4" d="m49.66,37.98s-8.07,18.34-6.82,20.32c1.25,1.98,14.15-29.97,6.82-20.32Z"/>
      </g>
      <g>
        <path class="cls-6" d="m84.33,36.05l-4.99,4.43c-3.56,7.74-7.33,17.26-10.51,28.41-2.22,7.78-3.44,13.85-5.37,23.57-1.68,8.45-3.49,18.6-5.14,30.17l4.24,1.54,21.77-88.11Z"/>
        <path class="cls-2" d="m74.45,93.18c1.69-5.62,4.27-14.18,8.28-25.29,4.04-11.21,7.96-20.66,11.17-27.96l-9.95-3.93c-7.1,17.76-13.78,38.29-18.79,61.39-1.93,8.88-3.46,17.47-4.66,25.7,1.75.89,3.5,1.77,5.25,2.66,3.05-12.95,6.12-23.96,8.71-32.58Z"/>
        <path class="cls-4" d="m86.02,46.34s-8.07,18.34-6.82,20.32c1.25,1.98,14.15-29.96,6.82-20.32Z"/>
      </g>
      <g>
        <path class="cls-2" d="m90.9,134.14l-13.87-3.19c5.32-20.53,10.34-41.13,15.05-61.79,4.12-18.07,8.01-36.19,11.67-54.37,4.62,1.06,9.25,2.13,13.87,3.19-4.59,14.21-8.97,29.37-12.98,45.46-6.25,25.13-10.66,48.84-13.74,70.71Z"/>
        <path class="cls-4" d="m105.17,25.59s-6.95,25.84-4.9,28.2c2.05,2.36,12.63-42.41,4.9-28.2Z"/>
      </g>
      <g>
        <path class="cls-2" d="m61.08,129.86l-13.66-3.99c6.5-20.19,12.7-40.46,18.6-60.82,5.16-17.8,10.09-35.67,14.79-53.61,4.55,1.33,9.11,2.66,13.66,3.99-5.4,13.92-10.65,28.81-15.58,44.63-7.69,24.72-13.46,48.14-17.8,69.8Z"/>
        <path class="cls-4" d="m81.6,22.32s-8.43,25.39-6.52,27.87c1.91,2.47,15.06-41.6,6.52-27.87Z"/>
      </g>
      <g>
        <path class="cls-5" d="m131.15,117.88c-10.19,36.38-20.38,72.77-30.56,109.15-.79,2.84-2.84,5.18-5.7,6.74-.76.42-1.58.78-2.45,1.08-1.52.52-3.19.86-4.97.97-.35.02-.72.04-1.08.06-.86.05-1.74.09-2.64.12-1.01.04-2.05.06-3.12.08-2.68.04-5.56,0-8.6-.15-1.79-.09-3.63-.21-5.54-.37-.39-.03-.79-.07-1.18-.11-1.4-.13-2.83-.29-4.29-.47-2.61-.33-5.31-.74-8.08-1.25-1.74-.32-3.52-.68-5.33-1.08-.45-.1-.9-.2-1.35-.3-1.33-.31-2.65-.63-3.93-.97-2.72-.71-5.33-1.47-7.83-2.28-1.4-.45-2.76-.91-4.08-1.38-.37-.13-.74-.27-1.11-.4-1.78-.65-3.5-1.32-5.16-1.99-2.78-1.14-5.38-2.3-7.8-3.46-.96-.46-1.9-.93-2.8-1.39-.79-.4-1.56-.81-2.31-1.2-1.08-.58-2.12-1.15-3.11-1.71-.69-.39-1.35-.82-1.97-1.27-4.47-3.27-6.78-7.94-5.99-12.35,3.98-22.11,7.97-44.21,11.95-66.32,0,0,0-.01,0-.01,2.72-15.08,5.44-30.16,8.15-45.24,2.9-1.18,5.88-2.22,8.93-3.12,1.93-.57,3.88-1.07,5.85-1.52.22-.05.44-.1.67-.15,1.69-.37,3.39-.69,5.11-.97,3.95-.64,7.97-1.05,12.05-1.21,1.85-.07,3.71-.09,5.57-.06.06,0,.12,0,.18,0,1.77.03,3.54.11,5.33.24,3.83.28,7.68.77,11.55,1.5,1.38.26,2.76.55,4.14.86.39.09.78.18,1.17.28,1.77.43,3.52.9,5.25,1.42,3.78,1.13,7.44,2.46,10.98,3.97,1.65.71,3.27,1.45,4.86,2.24.06.03.11.06.17.08,1.69.83,3.34,1.71,4.96,2.63,3.58,2.03,6.99,4.26,10.23,6.67,1.4,1.04,2.77,2.12,4.1,3.23.19.16.38.32.56.47,1.57,1.33,3.09,2.7,4.55,4.11,1.62,1.56,3.18,3.18,4.68,4.84Z"/>
        <g>
          <g>
            <path class="cls-3" d="m13.53,220.48c-.79-.4-1.56-.81-2.31-1.2,1.12-8.53,2.66-18.52,4.44-29.21,5.97-35.76,14.68-79.31,19.39-102.33.22-.05.44-.1.67-.15l-18.13,108.62-4.05,24.27Z"/>
            <path class="cls-10" d="m16.33,221.87c-.96-.46-1.9-.93-2.8-1.39-.79-.4-1.56-.81-2.31-1.2-1.08-.58-2.12-1.15-3.11-1.71-.69-.39-1.35-.82-1.97-1.27.37-2.75.79-5.69,1.26-8.82,1.39-9.34,3.2-20.34,5.41-32.86,1.4-7.95,2.96-16.51,4.67-25.66,4.26-22.74,8.68-44.8,11.71-59.7,1.93-.57,3.88-1.07,5.85-1.52.22-.05.44-.1.67-.15,1.69-.37,3.39-.69,5.11-.97-3,14.65-7.95,39.17-12.71,64.55-3.85,20.53-6.66,36.72-8.69,49.48-1.36,8.53-2.36,15.52-3.09,21.23Z"/>
          </g>
          <g>
            <path class="cls-3" d="m30.4,227.72c-.37-.13-.74-.27-1.11-.4.7-4.02,1.51-8.45,2.41-13.18,7.77-41.27,21.71-105.69,26.75-128.8.06,0,.12,0,.18,0l-25.66,129.45-2.56,12.93Z"/>
            <path class="cls-10" d="m34.48,229.1c-1.4-.45-2.76-.91-4.08-1.38-.37-.13-.74-.27-1.11-.4-1.78-.65-3.5-1.32-5.16-1.99.77-4.4,1.67-9.24,2.64-14.41,7.71-40.7,20.89-101.68,26.1-125.52,1.85-.07,3.71-.09,5.57-.06.06,0,.12,0,.18,0,1.77.03,3.54.11,5.33.24-4.92,22.54-19.42,89.52-27.21,131.07-.84,4.47-1.6,8.65-2.26,12.44Z"/>
          </g>
          <path class="cls-10" d="m80.82,88.22c-.39-.09-.78-.19-1.17-.28-1.38-.32-2.76-.61-4.14-.86l-33.19,144.3c1.29.34,2.6.66,3.93.97.45.1.9.21,1.35.3,1.8.4,3.58.76,5.33,1.08l33.14-144.1c-1.73-.52-3.48-.99-5.25-1.42Z"/>
          <g>
            <path class="cls-3" d="m102.08,95.93c-5.94,24.55-22.62,92.95-33.62,132.61-.68,2.46-1.34,4.8-1.98,7.02-.39-.03-.79-.07-1.18-.11l1.91-7.27,34.71-132.34c.06.03.11.06.17.08Z"/>
            <path class="cls-10" d="m107.03,98.56c-6.24,25.8-22.46,92.24-33.32,131.34-.58,2.09-1.15,4.11-1.69,6.03-1.79-.09-3.63-.21-5.54-.37-.39-.03-.79-.07-1.18-.11-1.4-.13-2.83-.29-4.29-.47.71-2.49,1.46-5.15,2.24-7.96,11.09-40.06,28.1-109.85,33.8-133.42,1.65.71,3.27,1.45,4.86,2.24.06.03.11.06.17.08,1.69.83,3.34,1.71,4.96,2.63Z"/>
          </g>
          <g>
            <path class="cls-3" d="m121.92,108.93c-7.42,28.98-22.91,88.18-34.49,123.77-.35,1.08-.7,2.15-1.05,3.18-.86.05-1.74.09-2.64.12l1.11-3.75,36.51-123.8c.19.16.38.32.56.47Z"/>
            <path class="cls-10" d="m126.47,113.04c-3.77,14.7-9.28,35.83-15.21,57.49-6.33,23.13-11.88,42.32-16.5,57.05-.65,2.07-1.28,4.05-1.9,5.94-.15.45-.29.9-.44,1.34-1.52.52-3.19.86-4.97.97-.35.02-.72.04-1.08.06-.86.05-1.74.09-2.64.12-1.01.04-2.05.06-3.12.08.46-1.37.94-2.82,1.44-4.35,4.47-13.71,10.52-34.01,18.68-63.87,6.66-24.35,12.8-48.05,16.52-62.63,1.4,1.04,2.77,2.12,4.1,3.23.19.16.38.32.56.47,1.57,1.33,3.09,2.7,4.55,4.11Z"/>
          </g>
        </g>
      </g>
      <path class="cls-1" d="m106.26,123.11c-3.79,4.79-2.93,9.7-4.43,18.89-3.07,18.82-10.9,23.88-8.69,34.74.14.69,1.73,8.13,5.4,8.36,2.6.17,5.08-3.37,6.21-5.02,9.99-14.56,19.58-57.95,10.83-61.81-2.88-1.27-7.12,2.03-9.34,4.83Z"/>
      <path class="cls-1" d="m94.31,131.22c-1.67,3.25-1.47,6.18-2.35,11.93-1.81,11.78-5.12,15.54-4.55,21.99.04.41.45,4.83,1.93,4.65,1.05-.12,2.15-2.49,2.66-3.6,4.47-9.76,9.65-37.12,6.23-38.73-1.13-.53-2.94,1.85-3.91,3.75Z"/>
      <g class="cls-8">
        <path class="cls-9" d="m94.88,233.78c-.76.42-1.58.78-2.45,1.08-1.52.52-3.19.86-4.97.97-.35.02-.72.04-1.08.06-.86.05-1.74.09-2.64.12-1.01.04-2.05.06-3.12.08-2.68.04-5.56,0-8.6-.15-1.79-.09-3.63-.21-5.54-.37-.39-.03-.79-.07-1.18-.11-1.4-.13-2.83-.29-4.29-.47-2.61-.33-5.31-.74-8.08-1.25-1.74-.32-3.52-.68-5.33-1.08-.45-.1-.9-.2-1.35-.3-1.33-.31-2.65-.63-3.93-.97-2.72-.71-5.33-1.47-7.83-2.28-1.4-.45-2.76-.91-4.08-1.38-.37-.13-.74-.27-1.11-.4-1.78-.65-3.5-1.32-5.16-1.99-2.78-1.14-5.38-2.3-7.8-3.46-.96-.46-1.9-.93-2.8-1.39-.79-.4-1.56-.81-2.31-1.2-1.08-.58-2.12-1.15-3.11-1.71-.69-.39-1.35-.82-1.97-1.27-4.47-3.27-6.78-7.94-5.99-12.35,3.98-22.11,7.97-44.21,11.95-66.32-.04.52-1.51,18.44.7,36.99.62,5.23,1.53,10.5,2.86,15.45.56,2.12,1.2,4.17,1.92,6.14.56,1.53,1.17,3.01,1.84,4.43,1.95,4.12,4.36,7.67,7.35,10.29,1.21,1.06,2.5,1.96,3.9,2.7.34.18.68.35,1.02.53.42.22.84.43,1.27.65,1.26.64,2.52,1.26,3.78,1.87,2.7,1.3,5.4,2.52,8.12,3.67,1.7.72,3.4,1.41,5.1,2.08,1.71.67,3.42,1.31,5.13,1.92,2.71.97,5.44,1.87,8.16,2.7,1.32.4,2.64.79,3.96,1.16.42.12.84.23,1.25.35,1.75.48,3.5.93,5.26,1.36,2.78.68,5.56,1.29,8.34,1.83.93.18,1.86.36,2.79.52.86.16,1.72.3,2.58.45,1.81.3,3.63.57,5.44.81.67.09,1.35.18,2.02.26Z"/>
      </g>
    </g>
  </g>
</svg>