<?xml version="1.0" encoding="UTF-8"?>
<svg id="Calque_2" data-name="Calque 2" xmlns="http://www.w3.org/2000/svg" xmlns:xlink="http://www.w3.org/1999/xlink" viewBox="0 0 481.5 393.81">
  <defs>
    <style>
      .cls-1 {
        fill: #d66b1a;
      }

      .cls-2 {
        fill: #a37a4e;
      }

      .cls-3 {
        fill: #ad5817;
      }

      .cls-4 {
        fill: #ebdfda;
      }

      .cls-5 {
        fill: #de701d;
      }

      .cls-6 {
        fill: #853d07;
      }

      .cls-7 {
        fill: #d16919;
      }

      .cls-8 {
        fill: url(#radial-gradient);
      }

      .cls-9 {
        fill: #e67a27;
      }

      .cls-10 {
        fill: #ffcfa6;
      }

      .cls-11 {
        fill: url(#radial-gradient-2);
      }

      .cls-12 {
        fill: #ff8863;
      }

      .cls-13 {
        fill: #cc6618;
      }

      .cls-14 {
        fill: url(#radial-gradient-3);
      }

      .cls-15 {
        fill: #d46917;
      }

      .cls-16 {
        fill: #ffb87a;
      }

      .cls-17 {
        fill: #f53a25;
      }

      .cls-18 {
        fill: #ff8b33;
      }

      .cls-19 {
        fill: #ffb06b;
      }

      .cls-20 {
        fill: #ffa454;
      }

      .cls-21 {
        fill: #fffaf2;
      }

      .cls-22 {
        fill: #bf560b;
        opacity: .69;
      }
    </style>
    <radialGradient id="radial-gradient" cx="114.26" cy="2.85" fx="114.26" fy="2.85" r="49.16" gradientTransform="translate(8.5 134.26) rotate(8.17) scale(.95 1.45)" gradientUnits="userSpaceOnUse">
      <stop offset="0" stop-color="#fff8ed"/>
      <stop offset=".54" stop-color="#ffebcd"/>
      <stop offset="1" stop-color="#ffdfb0"/>
    </radialGradient>
    <radialGradient id="radial-gradient-2" cx="215.78" cy="130.53" fx="215.78" fy="130.53" r="66.93" gradientTransform="translate(-15.49 15.91) rotate(10.62) scale(.95 1.16)" gradientUnits="userSpaceOnUse">
      <stop offset="0" stop-color="#fff8ed"/>
      <stop offset="1" stop-color="#ffdfb0"/>
    </radialGradient>
    <radialGradient id="radial-gradient-3" cx="209.26" cy="243.47" fx="209.26" fy="243.47" r="60.03" gradientUnits="userSpaceOnUse">
      <stop offset="0" stop-color="#fff8ed"/>
      <stop offset=".23" stop-color="#fff5e6"/>
      <stop offset=".55" stop-color="#ffedd4"/>
      <stop offset=".92" stop-color="#ffe1b7"/>
      <stop offset="1" stop-color="#ffdfb0"/>
    </radialGradient>
  </defs>
  <g id="Layer_1" data-name="Layer 1">
    <g>
      <g>
        <path class="cls-20" d="m7.29,329.81C2.52,322.1.01,313.21.01,304.15v-83.15s-4.49-99.27,154.46-99.27,154.62,91.45,154.41,98.8c-.01.47-.02.94-.02,1.41v82.35c0,8.79-2.36,17.43-6.87,24.98-13.64,22.82-51.29,64.53-144.31,64.53S21.49,352.75,7.29,329.81Z"/>
        <ellipse class="cls-15" cx="154.47" cy="212.93" rx="154.35" ry="98.35"/>
        <path class="cls-19" d="m292.13,235.71c-3.8,11.71-12.23,21.47-22.02,28.93-9.79,7.46-20.96,12.85-32.05,18.2-3.99,1.92-8.04,3.86-12.39,4.67-38.43,11.7-80.2,13.48-119.98,5.34-28.04-5.74-55.95-16.93-75.65-37.69-4.79-5.04-9.07-10.66-11.91-17-6.37-14.24-4.93-27.17-2.3-42.55.25-1.46.63-2.96,1.13-4.47,4.18-12.75,16.49-26.76,26.72-34.29,28.58-21.03,83.4-33.47,125.91-30.67,56.03,3.68,116.42,31.61,124.13,69.61.51,2.51.75,5.06.9,7.63.06,1.15.11,2.3.15,3.46.34,9.7.35,19.61-2.64,28.84Z"/>
        <path class="cls-9" d="m294.62,203.42c-1.95,42.98-63.6,77.49-139.37,77.49S15.83,245.27,15.83,201.32c0-3.45.38-6.84,1.13-10.18,4.18-12.75,16.49-26.76,26.72-34.29,28.58-21.03,83.4-33.47,125.91-30.67,56.03,3.68,116.42,31.61,124.13,69.61.51,2.51.75,5.06.9,7.63Z"/>
        <path class="cls-20" d="m280.33,202.8c0,4.09-.69,8.1-2.01,11.99-7.87,23.23-38.22,42.3-78.62,50.61-7.84,1.61-16.05,2.82-24.55,3.58-6.81.61-13.8.92-20.93.92-8.89,0-17.56-.49-25.93-1.42-8.04-.89-15.8-2.19-23.19-3.86t0,0c-38.58-8.69-67.34-27.31-74.98-49.83-1.32-3.89-2.01-7.9-2.01-11.99,0-37.06,56.46-67.1,126.11-67.1s126.11,30.04,126.11,67.1Z"/>
        <path class="cls-18" d="m277.88,213.54c-.78-2.08-1.75-4.12-2.88-6.13-.39-.69-.81-1.38-1.24-2.07-.33-.52-.67-1.03-1.02-1.54h0c-.13-.19-.26-.38-.4-.57-.31-.45-.64-.89-.97-1.33-.24-.32-.48-.63-.73-.95-2.94-3.75-6.51-7.33-10.63-10.7-.42-.34-.84-.68-1.27-1.02h0c-1.07-.84-2.17-1.67-3.3-2.48-1.01-.73-2.06-1.44-3.13-2.14h0c-1.58-1.04-3.21-2.05-4.9-3.04-2.83-1.65-5.82-3.23-8.95-4.73-1.05-.5-2.11-.99-3.19-1.48-4.05-1.81-8.32-3.48-12.78-5.02-6.48-2.22-13.38-4.14-20.6-5.71-.53-.12-1.07-.23-1.6-.34-3.31-.69-6.7-1.31-10.14-1.85-.53-.08-1.06-.17-1.6-.25-8.41-1.26-17.17-2.07-26.2-2.38,0,0,0,0,0,0-2.68-.09-5.39-.14-8.12-.14-22.33,0-43.31,3.09-61.5,8.51-.06.02-.12.04-.19.06-.6.18-1.2.36-1.79.55-13.55,4.21-25.5,9.73-35.23,16.22h0c-.15.1-.3.21-.45.31-3.99,2.7-7.6,5.56-10.79,8.57-6.77,6.39-11.62,13.43-14.15,20.89.16.47.33.94.51,1.41,1.07,2.8,2.46,5.53,4.16,8.2,4.64,7.26,11.55,13.96,20.28,19.87,4.11,2.78,8.62,5.38,13.49,7.78,17.38,8.56,39.3,14.55,63.62,16.84,6.49.61,13.16.95,19.95,1.01.7,0,1.39,0,2.09,0,10.04,0,19.81-.62,29.17-1.81,18.08-2.28,34.65-6.62,48.78-12.55.19-.08.37-.16.56-.23,0,0,0,0,.01,0,7.97-3.38,15.15-7.26,21.38-11.55,4.05-2.79,7.69-5.75,10.88-8.87,6.33-6.17,10.89-12.94,13.32-20.1-.14-.42-.29-.84-.45-1.25Z"/>
        <path class="cls-9" d="m.01,273.22c7.57,13.3,17.89,25.3,30.7,35.68,12.7,10.29,27.26,18.56,43.29,24.57,14.79,5.55,31.09,9.33,48.45,11.22,15.59,1.7,32.44,1.92,50.07.67,33.24-2.37,60.48-9.3,83.28-21.16,13.17-6.86,24.81-15.48,34.59-25.63,7.58-7.88,13.77-16.4,18.46-25.44v5.71c-4.45,7.63-9.96,14.87-16.48,21.64-9.98,10.36-21.86,19.17-35.3,26.16-23.14,12.05-50.73,19.07-84.35,21.47-7.56.54-14.98.81-22.22.81-9.81,0-19.29-.49-28.35-1.48-17.58-1.92-34.11-5.74-49.12-11.38-16.3-6.12-31.13-14.53-44.06-25.01-11.78-9.55-21.5-20.44-28.97-32.44v-5.39Z"/>
        <path class="cls-16" d="m46.24,310.4c-.14,0-.29-.04-.42-.11-14.14-7.9-26.75-18.92-36.46-31.87-.29-.38-.21-.92.17-1.21.38-.29.92-.21,1.21.17,9.57,12.76,21.99,23.62,35.92,31.4.42.23.56.76.33,1.17-.16.28-.45.44-.75.44Z"/>
        <path class="cls-16" d="m32.32,292.18c-.16,0-.33-.05-.47-.14-9.57-6.32-18.1-14.63-24.66-24.04-.27-.39-.18-.93.21-1.2.39-.27.93-.18,1.2.21,6.44,9.23,14.8,17.39,24.2,23.59.4.26.51.8.24,1.19-.17.25-.44.39-.72.39Z"/>
        <path class="cls-16" d="m55.86,297.58c-.14,0-.27-.03-.4-.1-11.87-6.26-22.76-14.18-32.37-23.55-.34-.33-.35-.88-.02-1.22.33-.34.88-.35,1.22-.02,9.49,9.25,20.25,17.08,31.97,23.26.42.22.58.74.36,1.16-.15.29-.45.46-.76.46Z"/>
        <path class="cls-16" d="m103.54,315.33c-.06,0-.12,0-.17-.02-13.66-2.8-26.88-7.43-39.31-13.76-.42-.22-.59-.73-.38-1.16.22-.42.74-.59,1.16-.38,12.29,6.26,25.37,10.83,38.87,13.6.47.1.77.55.67,1.02-.08.41-.44.69-.84.69Z"/>
        <path class="cls-16" d="m110.43,337.05s-.06,0-.09,0c-5.48-.56-10.95-1.57-16.27-3.01-.46-.12-.73-.6-.61-1.06.12-.46.6-.73,1.06-.61,5.23,1.41,10.61,2.41,15.99,2.96.47.05.82.47.77.94-.05.44-.42.77-.86.77Z"/>
        <path class="cls-16" d="m147.61,339.4s-.02,0-.02,0c-4.92-.13-9.9-.39-14.81-.79-.47-.04-.83-.45-.79-.93.04-.47.46-.83.93-.79,4.87.39,9.82.65,14.72.78.48.01.85.41.84.88-.01.47-.4.84-.86.84Z"/>
        <path class="cls-16" d="m111.92,384.63s-.09,0-.13-.01c-8.14-1.26-16.24-3.16-24.08-5.66-.45-.14-.7-.63-.56-1.08.14-.45.63-.7,1.08-.56,7.76,2.47,15.77,4.35,23.82,5.6.47.07.79.51.72.98-.07.43-.43.73-.85.73Z"/>
        <path class="cls-16" d="m61.54,341.9c-.13,0-.26-.03-.39-.09l-12.09-6.11c-.42-.21-.6-.73-.38-1.16.21-.42.73-.6,1.16-.38l12.09,6.11c.42.21.6.73.38,1.16-.15.3-.46.47-.77.47Z"/>
        <path class="cls-16" d="m154.53,355.84c-4.23,0-8.45-.1-12.66-.3-.48-.02-.84-.43-.82-.9.02-.46.4-.82.86-.82.01,0,.03,0,.04,0,11.01.52,22.17.35,33.16-.49.48-.04.89.32.93.79.04.47-.32.89-.79.93-6.86.53-13.79.8-20.71.8Z"/>
        <path class="cls-16" d="m119.98,352.53s-.03,0-.05,0c-7.55-.4-15.11-1.47-22.48-3.18-.46-.11-.75-.57-.64-1.03.11-.46.57-.75,1.03-.64,7.27,1.69,14.73,2.75,22.18,3.14.48.03.84.43.81.91-.02.46-.4.82-.86.82Z"/>
        <path class="cls-16" d="m85.6,318.88c-.07,0-.14,0-.21-.03-14.9-3.79-28.83-10.2-41.39-19.07-.39-.27-.48-.81-.21-1.2.27-.39.81-.48,1.2-.21,12.39,8.75,26.12,15.07,40.82,18.81.46.12.74.59.62,1.05-.1.39-.45.65-.83.65Z"/>
        <path class="cls-16" d="m82.96,327.65c-.08,0-.16-.01-.24-.03-8.57-2.51-16.88-5.96-24.71-10.25-.42-.23-.57-.75-.34-1.17s.75-.57,1.17-.34c7.72,4.24,15.91,7.64,24.37,10.11.46.13.72.61.59,1.07-.11.38-.45.62-.83.62Z"/>
        <path class="cls-16" d="m121.11,325.32s-.02,0-.03,0c-9.34-.3-18.58-1.9-27.47-4.76-.45-.15-.7-.63-.56-1.08.15-.45.63-.7,1.08-.56,8.74,2.81,17.82,4.39,26.99,4.68.48.02.85.41.83.89-.01.47-.4.83-.86.83Z"/>
        <path class="cls-16" d="m132.93,332.42s-.02,0-.04,0c-9.12-.38-18.3-1.37-27.29-2.95-.47-.08-.78-.53-.7-1,.08-.47.53-.78,1-.7,8.91,1.57,18.02,2.56,27.07,2.93.48.02.85.42.83.9-.02.46-.4.83-.86.83Z"/>
        <path class="cls-16" d="m160.69,337.27c-1.56,0-3.11-.02-4.67-.07-.48-.01-.85-.41-.84-.89.01-.48.41-.84.89-.84,11.5.35,23.04-.61,34.32-2.84.47-.09.92.21,1.01.68.09.47-.21.92-.68,1.01-9.88,1.96-19.97,2.94-30.04,2.94Z"/>
        <path class="cls-16" d="m158.02,329.33c-4.27,0-8.54-.18-12.78-.54-.47-.04-.83-.46-.79-.93.04-.47.46-.83.93-.79,10.43.88,20.99.67,31.38-.64.47-.06.9.27.96.75.06.47-.28.9-.75.96-6.28.79-12.62,1.19-18.95,1.19Z"/>
        <path class="cls-16" d="m154,320.04c-6.58,0-13.18-.33-19.71-.99-.47-.05-.82-.47-.77-.94.05-.47.47-.82.94-.77,9.9,1,19.96,1.24,29.9.7.48-.03.88.34.91.81.03.48-.34.88-.81.91-3.48.19-6.97.28-10.46.28Z"/>
        <path class="cls-16" d="m175.52,319.37c-.47,0-.85-.37-.86-.84-.01-.48.36-.87.84-.88,12.87-.31,25.78-1.83,38.37-4.52.47-.1.92.2,1.02.66.1.47-.2.92-.66,1.02-12.69,2.71-25.71,4.24-38.69,4.56,0,0-.01,0-.02,0Z"/>
        <path class="cls-16" d="m187.4,325.68c-.45,0-.82-.34-.86-.8-.04-.47.32-.89.79-.92,5.65-.42,11.35-1.14,16.93-2.13.47-.08.92.23,1,.7.08.47-.23.92-.7,1-5.64,1-11.39,1.73-17.11,2.15-.02,0-.04,0-.07,0Z"/>
        <path class="cls-16" d="m219.89,321.23c-.42,0-.79-.31-.85-.74-.06-.47.27-.91.74-.97,17.09-2.35,32.56-11.34,46.74-20.71.4-.26.93-.15,1.19.24.26.4.15.93-.24,1.19-14.35,9.48-30.03,18.59-47.46,20.98-.04,0-.08,0-.12,0Z"/>
        <path class="cls-16" d="m225.03,312.41c-.4,0-.75-.28-.84-.68-.1-.47.2-.92.66-1.02,9.52-2.05,18.47-5.79,26.61-11.14.4-.26.93-.15,1.19.25.26.4.15.93-.25,1.19-8.32,5.47-17.47,9.3-27.2,11.39-.06.01-.12.02-.18.02Z"/>
        <path class="cls-16" d="m211.52,331.84c-.4,0-.75-.28-.84-.68-.1-.46.19-.92.66-1.02,10.14-2.21,20.63-4.49,29.86-9.56.42-.23.94-.08,1.17.34.23.42.08.94-.34,1.17-9.45,5.19-20.06,7.5-30.32,9.73-.06.01-.12.02-.18.02Z"/>
        <path class="cls-16" d="m278.44,291.29c-.28,0-.55-.13-.71-.38-.27-.39-.17-.93.23-1.2,9.46-6.45,17.8-14.31,24.8-23.37.29-.38.83-.45,1.21-.15.38.29.45.83.15,1.21-7.11,9.2-15.59,17.19-25.2,23.74-.15.1-.32.15-.48.15Z"/>
        <path class="cls-16" d="m263.85,293.51c-.28,0-.56-.14-.73-.4-.26-.4-.14-.93.26-1.19,9.22-5.87,17.75-12.84,25.34-20.71.33-.34.88-.35,1.22-.02.34.33.35.88.02,1.22-7.68,7.97-16.31,15.02-25.65,20.97-.14.09-.3.14-.46.14Z"/>
        <path class="cls-16" d="m255.75,314.77c-.31,0-.62-.17-.77-.47-.21-.42-.04-.94.38-1.16,11.24-5.67,21.72-12.78,31.15-21.13.36-.32.9-.28,1.22.07.32.36.28.9-.07,1.22-9.54,8.44-20.14,15.63-31.51,21.38-.12.06-.26.09-.39.09Z"/>
        <path class="cls-16" d="m35.17,347.59c-.15,0-.29-.04-.43-.12-6.8-3.93-22.73-20.64-28.82-29.45-.27-.39-.17-.93.22-1.2.39-.27.93-.17,1.2.22,5.86,8.48,21.76,25.18,28.26,28.94.41.24.55.77.32,1.18-.16.28-.45.43-.75.43Z"/>
        <path class="cls-16" d="m20.11,322.56c-.18,0-.37-.06-.53-.18-5.37-4.15-10.23-8.96-14.43-14.3-.29-.37-.23-.92.14-1.21.37-.29.92-.23,1.21.14,4.12,5.22,8.87,9.93,14.13,14,.38.29.45.83.15,1.21-.17.22-.42.33-.68.33Z"/>
        <path class="cls-16" d="m42.25,330.38c-.15,0-.31-.04-.45-.13-10.64-6.49-20.2-14.52-28.42-23.89-.31-.36-.28-.9.08-1.22.36-.31.9-.28,1.22.08,8.11,9.23,17.54,17.15,28.03,23.55.41.25.53.78.29,1.18-.16.27-.45.41-.74.41Z"/>
        <path class="cls-16" d="m61.74,351.33c-.13,0-.26-.03-.39-.09-12.22-6.21-23.87-13.67-34.63-22.16-.37-.3-.44-.84-.14-1.21.29-.37.84-.44,1.21-.14,10.67,8.43,22.22,15.82,34.34,21.98.42.22.59.73.38,1.16-.15.3-.45.47-.77.47Z"/>
        <path class="cls-16" d="m93.71,375.13c-.06,0-.11,0-.17-.02-13.07-2.59-25.51-7.36-36.96-14.18-.41-.24-.54-.77-.3-1.18.24-.41.77-.54,1.18-.3,11.28,6.72,23.53,11.42,36.41,13.97.47.09.77.55.68,1.01-.08.41-.44.69-.84.69Z"/>
        <path class="cls-16" d="m107.6,368.69s-.09,0-.13,0c-12.02-1.82-23.64-5.48-34.54-10.87-.43-.21-.6-.73-.39-1.15.21-.43.73-.6,1.15-.39,10.74,5.31,22.19,8.92,34.04,10.71.47.07.79.51.72.98-.06.43-.43.73-.85.73Z"/>
        <path class="cls-16" d="m103.46,357.45c-.06,0-.12,0-.18-.02-11.79-2.44-23.38-6.08-34.44-10.83-.44-.19-.64-.69-.45-1.13.19-.44.69-.64,1.13-.45,10.96,4.7,22.44,8.31,34.11,10.73.47.1.77.55.67,1.02-.08.41-.44.69-.84.69Z"/>
        <path class="cls-16" d="m148.58,383.91s-.04,0-.06,0c-13.18-.9-26.82-1.83-39.59-6.32-.45-.16-.69-.65-.53-1.1.16-.45.65-.68,1.1-.53,12.55,4.41,26.07,5.33,39.14,6.23.47.03.83.44.8.92-.03.45-.41.8-.86.8Z"/>
        <path class="cls-16" d="m156.62,373.76c-11.21,0-22.41-.99-33.46-2.98-.47-.08-.78-.53-.7-1,.08-.47.53-.78,1-.7,15.86,2.85,32.04,3.64,48.1,2.35.48-.04.89.32.93.79.04.47-.32.89-.79.93-5.02.4-10.05.6-15.08.6Z"/>
        <path class="cls-16" d="m147.4,363.37c-11.85,0-23.66-1.41-35.19-4.22-.46-.11-.75-.58-.63-1.04.11-.46.58-.75,1.04-.63,13.26,3.22,26.9,4.59,40.53,4.06.47-.01.88.35.89.83.02.48-.35.88-.83.89-1.94.08-3.88.11-5.82.11Z"/>
        <path class="cls-16" d="m161.22,362.9c-.47,0-.86-.38-.86-.86,0-.48.38-.86.86-.87,14.24-.06,28.46-1.86,42.26-5.35.46-.12.93.16,1.05.62.12.46-.16.93-.62,1.05-13.94,3.52-28.3,5.33-42.68,5.4h0Z"/>
        <path class="cls-16" d="m160.94,384.07c-.14,0-.27,0-.41,0-.48,0-.86-.39-.86-.86,0-.48.39-.86.86-.86h0c.13,0,.27,0,.4,0,12.8,0,25.61-1.47,38.08-4.36.46-.11.93.18,1.03.64.11.46-.18.93-.64,1.03-12.6,2.92-25.54,4.4-38.47,4.4Z"/>
        <path class="cls-16" d="m182.22,372.59c-.43,0-.8-.32-.85-.76-.06-.47.28-.9.75-.96,18.87-2.24,37.41-6.88,55.11-13.79.44-.17.94.05,1.12.49.17.44-.05.94-.49,1.12-17.84,6.97-36.52,11.64-55.53,13.9-.03,0-.07,0-.1,0Z"/>
        <path class="cls-16" d="m212.9,354.79c-.39,0-.74-.27-.84-.66-.11-.46.18-.93.64-1.04,18.23-4.31,35.86-10.95,52.4-19.73.42-.22.94-.06,1.17.36.22.42.06.94-.36,1.17-16.68,8.85-34.45,15.54-52.82,19.88-.07.02-.13.02-.2.02Z"/>
        <path class="cls-16" d="m272.19,330.22c-.27,0-.54-.13-.71-.37-.27-.39-.17-.93.22-1.2,9.73-6.66,18.7-14.46,26.64-23.18.32-.35.87-.38,1.22-.06.35.32.38.87.06,1.22-8.03,8.82-17.09,16.71-26.94,23.45-.15.1-.32.15-.49.15Z"/>
        <path class="cls-16" d="m248.66,353.59c-.34,0-.67-.21-.8-.54-.18-.44.04-.94.48-1.12,13.41-5.32,25.78-12.75,36.77-22.09.36-.31.91-.26,1.21.1.31.36.26.91-.1,1.21-11.13,9.46-23.67,16.99-37.25,22.38-.1.04-.21.06-.32.06Z"/>
        <path class="cls-16" d="m205.85,378.71c-.41,0-.78-.3-.85-.72-.08-.47.23-.91.7-1,7.56-1.3,15.02-3.34,22.19-6.07.44-.17.94.05,1.11.5.17.44-.05.94-.5,1.11-7.27,2.76-14.85,4.83-22.51,6.15-.05,0-.1.01-.15.01Z"/>
        <path class="cls-16" d="m235.99,370.37c-.35,0-.69-.22-.81-.57-.16-.45.08-.94.52-1.1,12.27-4.35,23.79-10.49,34.24-18.24.38-.28.92-.2,1.21.18.28.38.2.92-.18,1.21-10.59,7.86-22.26,14.07-34.69,18.48-.1.03-.19.05-.29.05Z"/>
        <path class="cls-16" d="m291.48,327.49c-.24,0-.49-.1-.66-.3-.31-.36-.26-.91.1-1.21,3.2-2.72,6.29-5.64,9.17-8.69.33-.35.87-.36,1.22-.03.35.33.36.87.03,1.22-2.93,3.09-6.06,6.06-9.31,8.82-.16.14-.36.2-.56.2Z"/>
        <path class="cls-16" d="m184.2,144.34s-.07,0-.11,0c-7.9-1-15.93-1.43-23.89-1.26,0,0-.01,0-.02,0-.47,0-.85-.37-.86-.84,0-.48.37-.87.84-.88,8.04-.17,16.16.26,24.14,1.28.47.06.81.49.75.96-.06.44-.43.75-.85.75Z"/>
        <path class="cls-16" d="m219.73,152.4c-.09,0-.19-.01-.28-.05-8.36-2.84-16.99-5.15-25.65-6.87-.47-.09-.77-.55-.68-1.01.09-.47.55-.77,1.01-.68,8.74,1.73,17.44,4.06,25.87,6.92.45.15.69.64.54,1.09-.12.36-.46.59-.82.59Z"/>
        <path class="cls-16" d="m250.85,167.52c-.16,0-.31-.04-.46-.13-7.66-4.8-15.81-8.88-24.24-12.13-.44-.17-.67-.67-.49-1.11.17-.44.67-.66,1.11-.49,8.53,3.29,16.79,7.42,24.54,12.28.4.25.53.78.27,1.19-.16.26-.44.4-.73.4Z"/>
        <path class="cls-16" d="m238.66,168.35c-.12,0-.25-.03-.37-.08-14.88-7.03-25.83-11.16-33.48-12.61-.47-.09-.77-.54-.69-1.01.09-.47.54-.77,1.01-.69,7.8,1.48,18.88,5.65,33.9,12.74.43.2.61.72.41,1.15-.15.31-.46.49-.78.49Z"/>
        <path class="cls-16" d="m196.13,154.2s-.1,0-.15-.01c-22.17-3.81-44.75-4.62-67.13-2.42-.47.04-.9-.3-.94-.77-.05-.47.3-.9.77-.94,22.53-2.22,45.28-1.4,67.59,2.43.47.08.78.53.7,1-.07.42-.44.72-.85.72Z"/>
        <path class="cls-16" d="m95.54,151.77c-.38,0-.72-.25-.83-.63-.13-.46.14-.93.6-1.06,17.88-5,36.36-7.64,54.93-7.85.48,0,.87.38.87.85,0,.48-.38.87-.85.87-18.42.21-36.75,2.83-54.48,7.79-.08.02-.16.03-.23.03Z"/>
        <path class="cls-16" d="m104.9,156.92c-.37,0-.71-.24-.82-.6-.14-.45.11-.94.56-1.08,5.75-1.81,11.71-3.01,17.72-3.57.47-.04.89.3.94.78.04.47-.3.89-.78.94-5.88.54-11.72,1.72-17.36,3.49-.09.03-.17.04-.26.04Z"/>
        <path class="cls-16" d="m69.16,170.49c-.29,0-.58-.15-.74-.42-.24-.41-.11-.94.3-1.18,8.37-5,18.38-9.01,28.96-11.61.46-.11.93.17,1.04.63.11.46-.17.93-.63,1.04-10.42,2.55-20.27,6.5-28.49,11.41-.14.08-.29.12-.44.12Z"/>
        <path class="cls-16" d="m52.69,173.17c-.25,0-.5-.11-.67-.32-.3-.37-.25-.91.12-1.21,10.7-8.72,23.61-13.87,35.9-18.39.45-.16.94.06,1.11.51.16.45-.06.94-.51,1.11-12.16,4.47-24.91,9.55-35.41,18.11-.16.13-.35.19-.54.19Z"/>
        <path class="cls-16" d="m45.44,187.17c-.22,0-.44-.08-.6-.25-.34-.33-.34-.88-.01-1.22,4.55-4.64,9.63-7.94,14.1-10.85.81-.53,1.6-1.04,2.38-1.56.4-.26.93-.16,1.19.24.26.4.15.93-.24,1.19-.78.52-1.58,1.04-2.39,1.57-4.4,2.87-9.39,6.11-13.81,10.62-.17.17-.39.26-.61.26Z"/>
        <path class="cls-16" d="m36.43,188.18c-.19,0-.39-.07-.55-.2-.37-.3-.42-.85-.11-1.21,3.29-3.96,6.59-7.73,10.94-10.36.41-.25.94-.12,1.18.29s.12.94-.29,1.18c-4.12,2.49-7.32,6.15-10.51,9.99-.17.21-.42.31-.66.31Z"/>
        <path class="cls-16" d="m265.62,187.15c-.24,0-.48-.1-.65-.29-4.71-5.33-11.76-10.85-18.84-14.74-.42-.23-.57-.75-.34-1.17.23-.42.75-.57,1.17-.34,7.25,3.99,14.47,9.64,19.31,15.11.32.36.28.9-.07,1.22-.16.14-.37.22-.57.22Z"/>
        <path class="cls-16" d="m270.21,184.82c-.27,0-.54-.13-.7-.36-2.86-4.05-6.45-7.17-9.27-9.45-.37-.3-.43-.84-.13-1.21.3-.37.84-.43,1.21-.13,2.9,2.34,6.62,5.57,9.6,9.79.27.39.18.93-.21,1.2-.15.11-.32.16-.5.16Z"/>
        <path class="cls-9" d="m7.43,230.26c-.36,0-.69-.22-.81-.58-1.92-5.56-2.81-11.36-2.63-17.24.01-.48.41-.85.89-.84.48.01.85.41.84.89-.17,5.67.68,11.27,2.54,16.63.16.45-.08.94-.53,1.1-.09.03-.19.05-.28.05Z"/>
        <path class="cls-9" d="m20.16,253.27c-.24,0-.48-.1-.65-.29-4.53-5.14-8.14-11.26-10.45-17.71-.16-.45.07-.94.52-1.1.45-.16.94.07,1.1.52,2.23,6.25,5.73,12.18,10.12,17.15.31.36.28.9-.08,1.22-.16.14-.37.22-.57.22Z"/>
        <path class="cls-9" d="m15.21,238.37c-.31,0-.6-.16-.76-.45-2.99-5.49-4.92-11.42-5.74-17.62-.06-.47.27-.91.74-.97.47-.06.9.27.97.74.79,5.99,2.66,11.72,5.54,17.02.23.42.07.94-.35,1.17-.13.07-.27.1-.41.1Z"/>
        <path class="cls-20" d="m21.03,212.1c-.36,0-.69-.22-.81-.58-1.48-4.3-2.03-8.97-1.6-13.49.05-.47.47-.82.94-.78.47.05.82.47.78.94-.41,4.28.11,8.7,1.51,12.77.15.45-.08.94-.53,1.1-.09.03-.19.05-.28.05Z"/>
        <path class="cls-20" d="m35.76,236.23c-.22,0-.44-.08-.61-.25-5.49-5.51-9.98-12.22-12.97-19.41-.18-.44.02-.94.46-1.13.44-.18.94.02,1.13.46,2.91,6.98,7.27,13.5,12.6,18.85.34.34.34.88,0,1.22-.17.17-.39.25-.61.25Z"/>
        <path class="cls-20" d="m28.8,219.48c-.3,0-.59-.15-.75-.43-3.02-5.23-4.77-11.18-5.06-17.22-.02-.48.34-.88.82-.9.48-.03.88.34.9.82.28,5.76,1.95,11.44,4.83,16.44.24.41.1.94-.32,1.18-.14.08-.28.12-.43.12Z"/>
        <path class="cls-9" d="m303.8,203.92c-.43,0-.8-.32-.85-.75-.95-7.43-3.18-14.57-6.64-21.21-.22-.42-.06-.94.37-1.16.42-.22.94-.06,1.16.37,3.55,6.82,5.85,14.16,6.83,21.79.06.47-.27.9-.75.96-.04,0-.07,0-.11,0Z"/>
        <path class="cls-9" d="m302.88,230.82s-.1,0-.15-.01c-.47-.08-.78-.53-.7-1,1.21-7.03,1.73-14.22,1.55-21.35-.01-.48.36-.87.84-.88,0,0,.02,0,.02,0,.47,0,.85.37.86.84.19,7.25-.34,14.55-1.58,21.69-.07.42-.44.72-.85.72Z"/>
        <path class="cls-9" d="m300.09,220.72s-.05,0-.07,0c-.47-.04-.83-.45-.79-.93.59-7.42-.03-14.84-1.83-22.06-.12-.46.17-.93.63-1.04.46-.12.93.17,1.04.63,1.85,7.4,2.48,15.01,1.88,22.62-.04.45-.41.79-.86.79Z"/>
        <path class="cls-19" d="m287.14,191.49c-.39,0-.74-.26-.84-.65-1.51-6.06-4.63-11.62-9.01-16.06-.33-.34-.33-.88,0-1.22.34-.33.88-.33,1.22,0,4.6,4.67,7.87,10.5,9.46,16.86.12.46-.17.93-.63,1.04-.07.02-.14.03-.21.03Z"/>
        <path class="cls-19" d="m286.54,217.38c-.12,0-.23-.02-.35-.07-.44-.19-.63-.7-.44-1.14,2.85-6.45,3.51-13.77,1.86-20.63-.11-.46.17-.93.64-1.04.47-.11.93.17,1.04.64,1.73,7.22,1.04,14.93-1.96,21.73-.14.32-.46.51-.79.51Z"/>
        <path class="cls-19" d="m284.56,207.44s-.06,0-.09,0c-.47-.05-.82-.47-.77-.94.8-7.97-1.04-16.13-5.18-22.98-.25-.41-.11-.94.29-1.18.41-.25.94-.11,1.18.29,4.33,7.17,6.25,15.71,5.42,24.05-.04.44-.42.78-.86.78Z"/>
        <path class="cls-7" d="m265,234.89c-3.19,3.11-6.83,6.08-10.88,8.87l-185.57,8.29c-4.87-2.4-9.38-5-13.49-7.78l209.94-9.38Z"/>
        <path class="cls-7" d="m277.87,213.54l-243.09,10.86c-1.7-2.66-3.09-5.4-4.16-8.2l243.13-10.86c1.69,2.66,3.07,5.4,4.12,8.2Z"/>
        <path class="cls-13" d="m252.31,184.61l-208.04,9.29c3.31-3.13,7.07-6.09,11.25-8.88h0s182.94-8.17,182.94-8.17c4.99,2.39,9.63,4.98,13.85,7.76Z"/>
      </g>
      <g>
        <path class="cls-4" d="m27.01,70.23s-.04-.06-.06-.03c-1.55,2.11-2.84,4.47-3.3,7.04-.47,2.64,0,5.52,1.69,7.6,1.12,1.38,2.77,2.45,3.22,4.17.62,2.39-1.36,4.56-2.76,6.6-2.64,3.86-3.47,8.9-2.21,13.4,1.26,4.5,4.6,8.37,8.86,10.28,2.44,1.09,5.1,1.56,7.61,2.49,2.47.91,4.91,2.42,6.03,4.8.01.03.06.03.07,0,.86-4.02-2.19-7.92-5.68-10.11-1.92-1.2-4.07-2.14-5.59-3.82-1.26-1.4-1.98-3.21-2.39-5.05-.58-2.62-.56-5.37.05-7.98.63-2.72,1.9-5.32,2.03-8.11.15-3.26-1.39-6.56-3.99-8.54-.83-.63-1.77-1.15-2.47-1.93-.63-.71-1.03-1.6-1.3-2.51-.77-2.57-.59-5.41.19-8.3Z"/>
        <path class="cls-4" d="m152.64,6.4c-.08-.12-.27-.05-.25.1.47,3.36.75,7.03-1.23,9.74-2.16,2.96-6.55,4.07-7.86,7.49-1.16,3.02.6,6.83-1.25,9.48-1.54,2.22-4.68,2.37-7.34,2.87-6.08,1.15-11.47,5.48-13.91,11.17-2.44,5.69-1.85,12.58,1.51,17.78,1.23,1.91,2.81,3.6,3.78,5.66,1.11,2.36,1.31,5.14.58,7.64-.04.14.13.24.23.13,2.77-3,4.13-7.26,3.59-11.31-.59-4.41-3.29-8.64-2.4-13,.76-3.7,3.94-6.41,7.28-8.19s7.01-2.92,10.09-5.1c3.08-2.18,5.57-5.81,4.91-9.53-.3-1.69-1.23-3.29-1.09-5,.18-2.29,2.16-3.95,3.53-5.8,2.88-3.91,3.04-9.62-.16-14.13Z"/>
        <path class="cls-4" d="m93.92.22c.05-.18-.19-.3-.3-.15-3.27,4.39-4.31,9.28-2.2,14.35,1.73,4.15,5.96,8.55,6.25,13.03.19,2.92-1.63,6.29-3.96,8.06-2.37,1.8-5.51,2.34-7.85,4.18-2.02,1.6-3.23,4.02-4.06,6.46-1.72,5.09-1.93,11.11,1.21,15.46,1.81,2.5,4.59,4.28,5.94,7.05,1.14,2.34,1.11,5.07.92,7.67-.19,2.6-.5,5.26.17,7.78.63,2.37,2.38,4.63,4.75,5.14.15.03.26-.14.17-.27-1.39-1.92-1.44-4.58-.94-6.93.53-2.49,1.57-4.87,1.88-7.4.37-3.09-.43-6.31-2.2-8.87-.85-1.22-1.91-2.29-2.73-3.54-2.48-3.76-2.39-9.03.2-12.72,2.27-3.23,6.03-5.03,8.85-7.8,5.21-5.1,6.63-13.65,3.36-20.16-1.84-3.66-4.91-6.54-7.15-9.97-2.09-3.19-3.43-7.35-2.32-11.38Z"/>
        <path class="cls-4" d="m52.61,8.32c-.09-.07-.21.03-.15.13,1.92,3.39,1.76,7.87-.42,11.09-1.47,2.17-3.69,3.7-5.7,5.4-4.3,3.64-7.87,8.4-9.08,13.91s.28,11.77,4.57,15.43c3.3,2.81,7.79,3.83,11.31,6.36,3.96,2.85,6.48,7.98,5.3,12.71-.74,2.98-2.78,5.44-4.24,8.15-1.84,3.44-2.75,7.45-2.14,11.3.62,3.85,2.86,7.5,6.24,9.45,1.76,1.01,3.75,1.54,5.56,2.46,1.58.81,3.08,2.03,3.7,3.66.04.11.2.07.19-.05-.17-3.17-1.61-6.26-3.95-8.41-1.52-1.4-3.43-2.47-4.41-4.28-1.51-2.79-.26-6.3,1.61-8.85,1.87-2.55,4.36-4.69,5.73-7.55,1.3-2.72,1.46-5.83,1.4-8.84-.07-2.92-.33-5.87-1.33-8.61-1.19-3.27-3.43-6.14-6.3-8.11-2.9-1.98-6.43-3.06-8.95-5.51-2.17-2.11-3.39-5.16-3.27-8.18.27-7.04,7.08-12.19,8.64-19.07,1.02-4.48-.49-9.44-4.33-12.61Z"/>
        <path class="cls-4" d="m176.12,40.64c.04-.06-.02-.12-.08-.09-2.88,1.9-4.96,5.08-5.57,8.55-.26,1.5-.27,3.05-.74,4.5-1.47,4.51-6.59,6.28-10.05,9.43-4.54,4.13-6.12,11.37-3.77,17.02.03.06.12.04.11-.03-.1-4.75,3.57-8.79,7.26-11.75,3.77-3.03,8.07-5.95,9.76-10.56,2-5.43,0-12.33,3.07-17.07Z"/>
      </g>
      <g>
        <g>
          <path class="cls-8" d="m159.78,92.96c-2.34-.7-4.75.62-6.84,1.87-2.1,1.24-4.56,2.51-6.86,1.69-1.68-.59-2.81-2.16-4.33-3.1-1.91-1.18-4.34-1.28-6.5-.68-2.16.6-4.09,1.83-5.87,3.19-1.45,1.1-2.83,2.3-4.42,3.18-1.59.88-3.46,1.41-5.24,1.05-.97-.2-1.86-.64-2.78-.99-6.53-2.51-14.66.24-18.33,6.2-.76,1.24-1.39,2.64-2.55,3.53-2.29,1.75-5.51.68-7.73.11-3-.76-6.09,1.08-8.4,3.14-2.31,2.06-2.77,4.6-5.31,6.38-2.21,1.55-6.36,2.54-7.94,4.72-1.39,1.92-1.66,4.4-2.33,6.67s-2.08,4.67-4.41,5.11c-1.58.3-4.28-.75-5.86-1.1-3.9-.88-7.11.86-9.79,3.83s-3.25,7.34-2.62,11.09c.84,4.96-2.23,10.14-6.48,12.83-1.69,1.07-3.62,1.78-5.13,3.1-1.44,1.25-2.4,2.97-3.22,4.69-.95,1.98-1.79,4.08-1.94,6.27-.06.91.02,1.9.62,2.58.68.78,1.85.93,2.87.75,1.02-.18,1.96-.65,2.96-.92,3.27-.9,6.71.31,9.84,1.61,8.75,3.63,17.62,8.2,27.27,7.78,9.92.94,19.92,1.87,29.81.74,9-1.03,17.73-3.74,26.13-7.12,17.46-7.03,33.73-16.99,47.78-29.23,7.38-6.06,12.38-14.57,16.06-23.39,1.54-3.7,2.95-7.59,5.73-10.47,3.39-3.5,8.69-5.36,10.58-9.85.41-.97.46-2.38-.51-2.79-.38-.16-.81-.11-1.21-.04-1.34.24-2.73.64-4.04.27-1.63-.46-2.68-1.98-3.86-3.19-4.11-4.2-11.28-4.94-16.16-1.67-1.77,1.19-3.36,2.87-5.46,3.21-.98.16-1.99,0-2.94-.3-1.28-.41-2.5-1.13-3.28-2.23-1.01-1.43-1.14-3.28-1.71-4.93s-2-3.33-5.59-3.57Z"/>
          <path class="cls-2" d="m60.45,168.59c-1.41-2.58-3.9-3.72-6.42-4.94-.84-.42-.96-.47-1.52-.84-.28-.16-.49-.44-.8-.53-.79-.26-1.35.83-.69,1.34,1.15.93,2.54,1.48,3.84,2.16,1.48.73,2.62,1.44,3.41,2.37.26.31.5.63.72.97.15.2.22.47.46.59.7.45,1.52-.46,1.01-1.12Z"/>
          <path class="cls-2" d="m70.87,167.49c-.2-.27-.56-.33-.85-.47-2.29-1-3.45-1.7-4.86-3.6-.82-1.17-1.27-2.28-2.15-3.82-.65-1.16-1.44-2.24-2.32-3.24-1.36-1.65-4.05-4.08-5.05-5.03-.36-.38-.72-.76-1.06-1.14-.19-.22-.38-.47-.68-.5-.65-.11-1.15.71-.73,1.23,1.07,1.24,2.26,2.35,3.48,3.45,1.36,1.31,2.01,1.97,3.25,3.44,1.12,1.35,1.78,2.49,2.39,3.68.59,1.11,1.15,2.25,1.93,3.25.6.73,1.26,1.43,2.03,1.99.94.69,1.99,1.2,3.05,1.67.4.15.81.46,1.24.28.46-.18.63-.79.33-1.18Z"/>
          <path class="cls-2" d="m67.29,134.37c.04-.62-.75-1.01-1.23-.63-.35.3-.41.8-.63,1.18-.51,1.02-.56,1.11-1.13,1.97-.8,1.11-1.18,1.49-2.04,2.2-.65.51-.49.44-1.14.7-.56.21-.51.18-1.34.26-.75,0-2.32-.32-3.53-.85-1.05-.46-2.04-1.08-3.16-1.37-.86-.23-1.74-.33-2.62-.32-1.03-.05-2.04.23-2.93.73-.37.22-.87.42-.93.9-.11.66.71,1.15,1.23.73,1.28-.89,2.54-1.04,4.73-.58.38.02,1.76.69,2.66,1.14.96.46,1.99.75,3.02.98,1.48.34,3.1.17,4.39-.66,1.57-1.11,2.82-2.61,3.73-4.29.27-.47.5-.95.72-1.44.08-.21.22-.42.21-.65Z"/>
          <path class="cls-2" d="m109.33,101.95c-2.28.26-4.36,1.54-5.79,3.3-.73.92-1.26,1.97-1.82,3-.9,1.69-1.3,2.51-2.37,3.96-1.97,2.64-3.99,3.84-6.97,3.46-2.12-.31-3.24-.87-5.45-1.4-1.29-.28-2.65-.58-3.97-.32-1.47.34-2.71,1.29-3.72,2.38-.43.48-.83.99-1.28,1.45-.03.03-.05.06-.08.08,0,0-.02.02-.03.03-.16.14-.32.29-.49.41-.14.09-.29.18-.36.34-.45.7.45,1.52,1.12,1.01,1.01-.68,1.7-1.72,2.54-2.58-.05.05-.09.09-.14.14,1-1.04,2.12-1.62,2.77-1.75,1.05-.18,2.53.12,4.05.51,1.22.31,3.35,1.11,5.23,1.28,3.54.32,6.02-1.41,8.05-4.15,1.7-2.22,2.73-5.06,4.09-6.83.85-1.06,2.01-1.95,3.35-2.44.7-.22.45-.16,1.22-.31.18-.03.38-.02.53-.13.73-.38.36-1.55-.48-1.44Z"/>
          <path class="cls-2" d="m151.03,99.37c-.44-.18-.87.12-1.29.23-.73.25-1.46.51-2.19.74-.76.21-1.02.33-2.04.42-.48-.03-.95-.09-1.41-.22-.05-.02-.19-.06-.28-.09-.82-.33-.7-.29-1.3-.67-.88-.6-1.72-1.29-2.67-1.78-1.42-.75-3.05-1.15-4.66-1.02-2.4.14-3.66,1.26-5.46,2.66-.22.17-.45.32-.69.47,0,0,0,0,0,0-.18.1-.4.15-.53.3-.62.56.06,1.59.83,1.27,1.29-.58,2.26-1.64,3.45-2.38,1.03-.67,2.7-1.04,4.52-.63.3.08.66.17,1.36.46.34.15.68.33,1,.52.94.59,1.78,1.33,2.76,1.85,1,.53,2.13.79,3.26.79,1.59-.13,3.09-.75,4.59-1.25.33-.15.74-.17,1-.43.41-.34.26-1.07-.23-1.26Z"/>
          <path class="cls-2" d="m175.84,131.88c.3-3.61-.14-7.69-.02-10.67.06-1.15.18-2.3.35-3.44.06-.42.13-.84.21-1.26.03-.22.13-.45.05-.67-.18-.81-1.4-.74-1.51.08-.53,2.71-.76,5.48-.63,8.24.15,3.7.25,6.36-.22,10.04-.02.38-.25.81-.15,1.17.07.38.47.62.84.57.69-.08.72-.87.82-1.41.14-.88.2-1.76.26-2.65Z"/>
          <path class="cls-2" d="m184.9,101.35c-.47-.62-1.25-.12-1.82.09-1.39.6-2.55,1.59-3.72,2.53-1.47,1.22-2.85,2.58-4.5,3.57-.04.03-.53.29-1.08.51-.43.17-.87.31-1.32.44-.34.08-.7.14-1.05.14-.77-.06-.67-.11-1.54-.38-1.2-.49-1.46-.64-2.39-1.4-.32-.31-.18-.12-.59-.65-.13-.19-.21-.43-.43-.53-.7-.45-1.52.46-1.01,1.12.92,1.55,2.75,2.57,4.44,3.09,1.28.51,2.64.27,3.9-.18,2.75-.88,4.74-3.08,6.93-4.84.84-.69,2.06-1.6,2.52-1.79.34-.17.7-.32,1.06-.45.18-.07.4-.1.53-.26.29-.25.31-.71.08-1.01Z"/>
          <path class="cls-21" d="m190.6,116.13c-.16.06-.26.2-.35.33-.21.29-.41.59-.61.89-1.43,2.12-2.72,4.39-3.38,6.87-.1.75,1.03.92,1.15.16.27-1.11,1.24-3.27,2.1-4.7.05-.09.81-1.28,1.17-1.8.21-.36.53-.68.69-1.06.16-.44-.35-.88-.77-.69Z"/>
          <path class="cls-21" d="m197,111.63c-.5-.6-1.14.15-1.62.41-1.02.68-2.07,1.36-2.94,2.24-.21.22-.5.44-.45.78.05.49.73.69,1.03.29.52-.61,1.35-1.24,2.32-1.89.51-.35,1.02-.68,1.54-1.01.25-.18.31-.57.12-.81Z"/>
          <path class="cls-21" d="m192.48,111.19c-.22.02-.38.2-.55.32-1.37,1.04-2.65,2.2-3.78,3.5-.48.58-1.06,1.12-1.38,1.81-.2.59.63,1.01,1.01.52,1.46-2.01,2.73-3.22,4.64-4.73.25-.23.66-.37.72-.75.06-.37-.28-.71-.65-.66Z"/>
          <path class="cls-21" d="m103.34,113.29c-.33.04-.47.35-.65.58-.99,1.24-1.6,1.98-2.74,2.82-.6.47.08,1.37.7.93.77-.53,1.42-1.21,2.03-1.91.43-.52.99-1.09,1.29-1.69.14-.38-.24-.8-.63-.73Z"/>
          <path class="cls-21" d="m108.77,105.58c-.3-.05-.52.18-.74.36-.35.29-.69.6-.99.94-.95,1.08-1.63,2.37-2.22,3.67-.12.25-.24.51-.37.76-.06.12-.14.24-.13.38-.03.62.87.81,1.11.24.66-1.3,1.17-2.56,1.82-3.44.27-.4.58-.78.92-1.12.21-.2.43-.39.66-.58.12-.11.28-.18.35-.33.23-.33-.02-.83-.41-.87Z"/>
          <path class="cls-21" d="m108.86,110.85c.03-.46-.56-.76-.92-.47-.25.22-.31.57-.48.85-.31.59-.62,1.18-.96,1.76-.29.54-1.37,2.08-2.2,2.89-.04.04-.09.08-.13.12-.21.21-.52.36-.56.68-.09.49.53.86.92.55,1.29-1.09,2.29-2.48,3.13-3.94.3-.52.59-1.06.87-1.59.11-.28.33-.54.34-.84Z"/>
          <path class="cls-21" d="m40.59,174.67c-.1-.12-.23-.21-.38-.23-.6-.15-1.2-.28-1.81-.41-1.35-.3-2.71-.47-4.09-.54-.27-.02-.54-.04-.82-.04-.15-.02-.31.02-.43.11-.41.29-.23.98.27,1.04,1.76.05,3.52.26,5.24.66.44.09.87.19,1.31.3.13.03.26.07.39.02.39-.07.56-.6.32-.9Z"/>
          <path class="cls-21" d="m48.55,178.3c-.1-.25-.35-.34-.57-.44-.43-.21-.85-.41-1.28-.62-1.09-.51-2.17-1.04-3.3-1.44-.23-.08-.47-.15-.71-.22-.14-.06-.31-.06-.45,0-.46.17-.48.89-.01,1.07,1.52.44,2.93,1.17,4.36,1.83.35.17.71.34,1.06.51.12.06.23.13.37.11.4.03.7-.43.54-.79Z"/>
          <path class="cls-21" d="m45.25,173.55c-1.61-.83-3.32-1.46-5.05-1.99-.54-.17-1.09-.31-1.64-.46-.27-.08-.57-.19-.81,0-.41.29-.23.98.27,1.04,2.13.55,4.57,1.31,6.87,2.51.27.11.51.35.81.35.29.02.54-.22.58-.49.08-.59-.63-.73-1.02-.97Z"/>
        </g>
        <g>
          <path class="cls-11" d="m93.18,164.84c-.58,4.05-1.71,8.83-5.53,10.28-2.58.98-5.46.02-8.2.25-4.98.42-9.11,5.4-8.59,10.38.16,1.54.7,3.08.4,4.6-.39,1.94-2.08,3.36-3.86,4.21-1.78.85-3.75,1.28-5.52,2.15-6.04,2.96-8.54,10.1-10.48,16.53-.38,1.26-.69,2.82.26,3.73,1,.96,2.62.5,3.94.09,7.08-2.18,15.15-.9,21.2,3.38,4.65,3.29,8.27,8.28,13.67,10.09,2.9.97,6.02.92,9.07.85,6.35-.13,12.69-.27,19.04-.4,7.77-.16,15.58-.33,23.26-1.54,14.74-2.32,28.85-8.55,40.53-17.18,4.57-6.16,12.9-7.95,19.26-12.24,3.68-2.48,6.7-5.82,9.44-9.31,4.47-5.68,8.33-11.89,10.83-18.67,1.31-3.56,2.25-7.27,3.97-10.65,1.71-3.38,4.37-6.5,7.95-7.73,1.2-.41,2.5-.61,3.61-1.23,1.11-.62,2.03-1.86,1.74-3.1-.14-.61-.54-1.12-1.01-1.54-3.52-3.14-9.33-.9-13.6-2.91-2.97-1.39-4.65-4.58-7.27-6.55-2.75-2.08-6.57-2.67-9.82-1.52-2.59.91-4.72,2.8-7.19,4-2.47,1.2-5.76,1.55-7.71-.39-2-1.99-1.71-5.47-3.6-7.56-2.21-2.44-6.34-1.76-9,.17-1.76,1.28-3.37,3.07-5.54,3.24-3.37.25-5.66-3.49-8.91-4.42-2.97-.84-6.05.84-8.47,2.75-2.43,1.91-4.77,4.19-7.79,4.83-3.48.74-7-.87-10.55-1.14-5.9-.46-11.89,3.25-14.16,8.28-.75,2.03-2.96,3.19-5.1,3.47-2.15.28-4.31-.14-6.47-.3-2.16-.16-4.47-.03-6.25,1.2-2.97,2.04-3.57,6.41-6.49,8.52-1.22.88-2.72,1.27-4.06,1.95-1.34.68-2.76,1.82-2.99,3.44Z"/>
          <path class="cls-2" d="m110.26,216.52c-.15-.79-.73-.66-1.13-.87-.69-.24-1.37-.51-2.04-.79-2.31-1.03-3.75-1.96-5.62-3.84-1.54-1.5-2.69-3.81-3.36-6.42-.54-2.21-.96-5.08-1.94-7.73-1.25-3.68-2.92-7.24-5.41-10.25-.25-.32-.51-.64-.79-.95-.12-.17-.3-.29-.5-.32-.65-.13-1.17.65-.78,1.2,2.2,2.58,3.69,4.94,4.84,7.76.85,2.07,1.63,4.19,2.14,6.37.43,1.75.86,4.83,1.85,7.08.42.94.89,1.87,1.47,2.74,1.69,2.27,3.95,4.08,6.48,5.34.98.47,1.99.87,3.02,1.23.38.09.76.36,1.15.27.38-.06.64-.44.61-.81Z"/>
          <path class="cls-2" d="m94.23,215.47c-.19-.28-.54-.35-.82-.5-.5-.24-1-.5-1.49-.76-1.9-1.02-2.98-1.7-4.51-2.82-2.22-1.67-3.43-3.03-4.86-5.39-1.07-1.8-2.16-3.59-3.43-5.25-.36-.46-.73-.92-1.12-1.36-.25-.24-.44-.61-.79-.71-.78-.29-1.38.77-.75,1.31.76.77,2.19,2.67,3.11,4.12.82,1.25,1.54,2.57,2.37,3.82,2.54,3.87,6.64,6.34,10.7,8.38.39.16.78.48,1.22.32.47-.16.66-.76.38-1.17Z"/>
          <path class="cls-2" d="m95.12,173.64c-.08-.53-.76-.78-1.19-.48-.45.43-.24.41-.4.71-.18.51-.38,1-.61,1.49-1.14,2.45-2.41,4.44-4.2,5.15-.54.16-.24.1-.93.16-.8.04-.56.07-1.37-.09-.53-.14-2.66-1.35-3.94-1.6-1.88-.5-4.03-.48-5.67.68-.25.17-.48.37-.69.58-.13.13-.29.26-.33.45-.29.78.77,1.38,1.31.75,1.48-1.64,4.24-1.5,6.66-.38.9.4,1.75.95,2.74,1.11,4.02.64,6.21-2.77,7.73-5.95.26-.55.49-1.11.69-1.68.08-.3.28-.6.19-.91Z"/>
          <path class="cls-2" d="m134.77,142.37c-2.51.31-4.37,1.83-5.39,4.11-.76,1.86-1.3,4.15-2.3,5.25-.98,1.26-2.35,2.12-3.59,2.67-1.09.46-1.93.78-2.67.84-1.57.18-3.4-.48-5.42-.83-3.6-.53-6.16.13-9.15,2.18-.66.44-1.29.94-1.9,1.45-.25.24-.62.43-.68.81-.13.65.65,1.17,1.2.78,2.04-1.76,3.7-2.9,6.01-3.59.66-.2,2.48-.32,3.41-.2,1.69.12,3.29.75,4.98.91,1.56.22,3.08-.15,4.5-.78,1.89-.79,3.63-1.99,4.83-3.67,1.02-1.44,1.42-3.2,2.05-4.83.53-1.15.72-1.55,1.68-2.45.27-.23.56-.42.87-.58.08-.04.19-.09.26-.12.88-.32.87-.31,1.63-.42,1.12-.15.82-1.78-.31-1.52Z"/>
          <path class="cls-2" d="m190.06,169.89c.52-3.67.49-7.52-.84-11.03-.72-2-1.84-3.81-2.84-5.67-.72-1.27-2.11-4.79-2.24-6.25-.11-.77-.19-1.56-.16-2.34,0-.03,0-.07,0-.1,0-.24.11-.48.04-.72-.14-.81-1.37-.8-1.51.02-.42,3.26.76,6.49,2.14,9.39,1.04,2.12,1.95,3.37,2.75,5.32.62,1.45.97,2.71,1.15,3.81.32,1.69.29,4.25.21,5.26-.09.97-.21,1.94-.37,2.91-.03.63-.54,1.51.13,1.94.42.32,1.1.03,1.18-.5.13-.68.25-1.36.34-2.05Z"/>
          <path class="cls-2" d="m202.12,171.64c.04-.4.07-.79.1-1.19.08-1.34.1-2.7-.09-4.03-.34-2.7-.85-5.41-.73-8.15.02-.87.18-2.22.5-3.58.22-.95.46-1.9.77-2.83-.02.07-.04.13-.06.2.12-.46.38-.92.44-1.38.07-.82-1.11-1.13-1.46-.38-1.49,3.99-2.1,7.98-1.53,12.21.19,1.7.5,3.38.65,5.09.08,1.09.02,2.32-.01,2.84-.02.35-.05.71-.09,1.06-.01.17-.07.34-.01.51.08.53.77.79,1.19.48.28-.19.35-.51.36-.83Z"/>
          <path class="cls-2" d="m208.88,139.3c-.48-.66-1.16-.17-1.7.12-1.16.63-2.2,1.45-3.19,2.32-2.23,1.93-4.94,3.81-6.93,4.12-1.26.15-1.48.16-2.67-.12-.74-.21-1.03-.32-1.95-1.2-.14-.17-.08-.05-.35-.45-.03-.08-.09-.22-.11-.29-.36-.95-1.77-.45-1.46.52.22.73.76,1.29,1.33,1.78,1.48,1.3,3.62,1.61,5.51,1.27,1.14-.18,2.19-.68,3.2-1.24,1.6-.9,3.06-2.03,4.45-3.23.82-.71,1.67-1.4,2.61-1.95.66-.42.73-.35,1.14-.64.3-.23.34-.7.13-1.01Z"/>
          <path class="cls-2" d="m175.99,138.4c-2.21.8-3.63,1.19-5.52.85-.98-.21-1.16-.23-2.02-.78-.53-.36-.99-.8-1.5-1.19-.74-.54-1.54-1.01-2.43-1.23-2.59-.6-5.09.29-7.22,1.75-.58.39-1.13.82-1.65,1.29-.24.25-.57.46-.68.8-.29.78.77,1.38,1.31.75,1.1-1.13,2.71-2.26,4.37-2.86,1.26-.52,3.04-.39,3.64-.2,1.51.54,1.93,1.22,3.34,2.19.94.69,2.09.97,3.23,1.09,1.31.14,2.63-.04,3.89-.43.52-.15,1.03-.31,1.53-.5.27-.09.54-.2.66-.47.31-.6-.32-1.31-.96-1.07Z"/>
          <path class="cls-21" d="m222.92,161.37c-.12-.35-.57-.5-.87-.28-.2.13-.25.37-.35.57-.23.53-.46,1.06-.69,1.59-.49,1.16-.94,2.33-1.36,3.52-.15.43-.3.85-.44,1.28-.04.17-.13.35-.07.53.1.61,1.03.59,1.13-.01.34-1.21,1.12-3.2,1.78-4.8.25-.6.51-1.19.77-1.78.1-.19.18-.4.1-.61Z"/>
          <path class="cls-21" d="m230.94,151.44c-1.25.78-2.47,1.59-3.65,2.47-1.63,1.24-3.05,2.77-4.08,4.55-.61.72.41,1.53.91.73.87-1.56,2.32-3.19,3.78-4.29.86-.65,1.75-1.25,2.65-1.84.27-.18.54-.35.82-.52.13-.09.3-.15.38-.3.36-.5-.3-1.16-.81-.8Z"/>
          <path class="cls-21" d="m224.5,153.49c-1.44,1.27-2.71,2.74-3.72,4.38-.75,1.18-1.39,2.42-1.92,3.71-.13.33-.27.65-.4.98-.08.18-.15.38-.07.58.15.47.86.51,1.07.06,1.22-3.19,2.6-5.66,4.89-7.99.28-.28.56-.55.85-.81.11-.1.25-.2.28-.36.22-.58-.59-1.04-.98-.56Z"/>
          <path class="cls-21" d="m75.76,215.79c-.09-.14-.24-.2-.38-.27-.32-.16-.63-.32-.96-.48-.92-.43-1.85-.83-2.8-1.19-.72-.28-1.46-.53-2.22-.71-.37-.07-.75-.2-1.13-.15-.61.11-.59,1.03.01,1.13,1.52.21,2.24.55,3.7,1.12.66.27,1.31.55,1.95.85.32.15.64.31.95.47.11.06.23.13.36.12.46.06.78-.53.51-.9Z"/>
          <path class="cls-21" d="m83.59,222.54c-.06-.4-.46-.61-.7-.91-.45-.46-.89-.91-1.35-1.36-.78-.74-1.58-1.46-2.4-2.15-.43-.32-.84-.77-1.31-1.01-.58-.22-1.04.59-.56.98,1.82,1.43,3.53,2.99,5.12,4.67.14.13.25.32.45.37.37.15.8-.2.76-.59Z"/>
          <path class="cls-21" d="m81.71,217.07c-.08-.23-.3-.35-.48-.5-.39-.32-.81-.62-1.23-.91-1.53-1.04-3.11-2-4.76-2.82-.37-.15-.76-.49-1.14-.54-.61-.06-.84.84-.28,1.1,2.47,1.27,4.59,2.43,6.54,3.96.21.14.38.38.62.46.43.18.9-.31.73-.74Z"/>
          <path class="cls-21" d="m135.3,146.67c-.4-.05-.73.29-1.06.47-1.73,1.11-2.2,3.23-2.96,5.01-.28.75-.93,1.88-1.12,2.13-.22.32-.45.63-.71.92-.15.19-.39.33-.46.57-.22.58.59,1.04.98.56,1.31-1.31,2.14-3.01,2.77-4.73.77-1.96,1.11-3.03,2.79-3.88.42-.27.27-.97-.22-1.05Z"/>
          <path class="cls-21" d="m141.07,146.32c-.27-.19-.63-.21-.94-.31-.58-.15-1.17-.21-1.77-.21-.26.02-.54-.08-.78.05-.57.27-.31,1.15.31,1.09.86.03.99-.01,1.89.18.4.05.85.38,1.23.12.31-.2.33-.68.05-.92Z"/>
          <path class="cls-21" d="m139.22,148.96c-1.23-.24-2.57.07-3.46.97-.84.9-1.52,2.11-1.5,3.36.11.61,1.03.59,1.13-.01.11-.85.16-.92.54-1.67.2-.31.1-.18.42-.6.06-.08.26-.29.25-.29.47-.42,1.02-.58,1.17-.61.59-.08.7-.07,1.02-.03.17.01.35.09.52.04.65-.13.57-1.1-.09-1.15Z"/>
        </g>
        <g>
          <path class="cls-14" d="m287.69,193.44c-3.21,4.91-7.81,8.71-11.81,13-.3.32-.59.64-.89.97-6.39,7.12-11.24,15.48-16.04,23.76-.72,1.09-1.57,2.21-2.51,3.35-1.14,1.39-2.39,2.8-3.63,4.2-3.05,3.44-6.12,6.9-9.67,9.84-.21.17-.42.34-.63.51-.42.34-.86.67-1.29.99-.21.16-.41.31-.62.46-.04.03-.09.06-.13.09-.19.14-.38.27-.57.4-.22.16-.45.31-.67.46-.23.15-.45.3-.68.45-.21.14-.41.27-.62.4-.27.17-.55.34-.82.51-.21.13-.42.26-.63.38-.23.14-.47.28-.7.41-.18.1-.36.21-.54.31-.3.17-.6.34-.9.5-.2.11-.4.22-.6.33-.33.18-.66.35-.99.52,0,0,0,0-.01,0-.18.09-.35.18-.53.27,0-.01-.02-.03-.03-.04-14.13,5.92-30.71,10.27-48.78,12.55-9.36,1.18-19.13,1.81-29.17,1.81-.7,0-1.39,0-2.09,0-6.79-.06-13.46-.4-19.95-1.01-5.84-2.22-11.82-5.2-17.52-8.94-5.76-3.79-12.2-7.13-19.09-7.13-1.07,0-2.41-.08-2.83-1.07-.24-.56-.05-1.21.14-1.79,1.29-3.94,2.65-8.01,5.41-11.11,1.59-1.79,3.61-3.19,5.84-4.06,2.05-.8,4.25-1.14,6.28-1.99.98-.41,1.95-.98,2.74-1.7.84-.76,1.48-1.7,1.74-2.8.06-.26.1-.52.12-.78,0,0,0,0,0,0,.11-1.23-.15-2.49-.19-3.74-.17-5.61,4.94-10.83,10.56-10.78,2.16.02,4.26.7,6.41,1,2.14.3,4.53.15,6.18-1.25,2.92-2.48,2.11-7.37,4.44-10.41.49-.64,1.08-1.15,1.74-1.59.6-.41,1.25-.76,1.92-1.1h0c1.04-.53,2.11-1.02,3.08-1.63,2.41-1.53,4.31-3.89,6.51-5.68.57-.47,1.16-.89,1.78-1.25.57-.33,1.17-.61,1.8-.81.19-.06.38-.11.57-.16,3.52-.86,7.32.82,10.8-.18,4.1-1.18,6.28-5.55,9.53-8.32,3.86-3.3,9.57-4.26,14.29-2.41,5.24,2.06,9.98,2.81,13.33.11,1.67-1.35,2.88-3.24,4.67-4.42,2.07-1.37,4.83-1.64,7.13-.69.1.04.19.08.29.12h0c.32.15.63.31.93.49,1.26.74,2.43,1.67,3.79,2.21,3.1,1.23,6.63.24,9.66-1.15.34-.16.68-.32,1.03-.48,1.32-.62,2.66-1.22,4.11-1.36,2.62-.25,5.32,1.16,6.59,3.46.7,1.27.98,2.72,1.44,4.1.17.52.37,1.03.62,1.52,1.37,2.6,4.52,4.01,7.41,3.66.91-.11,1.79-.4,2.59-.87,1-.6,1.84-1.44,2.78-2.12,4.19-3.03,10.49-2.5,14.29,1.01,2.5,2.31,4.59,5.95,7.99,5.8.98-.05,1.91-.43,2.89-.48.98-.05,2.11.4,2.33,1.36.16.7-.22,1.4-.62,2Z"/>
          <path class="cls-2" d="m143.61,214.01c-.1-.4-.56-.66-.95-.54-.38.09-.49.42-.65.73-.42.66-.34.52-.9,1.18-.8.92-1.61,1.47-2.2,1.92-.86.67-2.48,1.65-2.91,1.75-.72.25-1.48.32-2.22.46.07,0,.13-.02.2-.03-1.41.24-2.46-.02-3.16-.35-.98-.46-1.75-1.26-2.73-1.72-1.82-.96-4-.8-5.86-.05-.48.21-1.04.37-1.4.78-.53.64.28,1.56,1,1.14.67-.43.97-.52,2-.8.89-.18.76-.2,1.62-.2.49.03.79.04,1.6.34.06.03.13.06.18.08,1.03.46,1.83,1.3,2.85,1.78,1.31.65,2.83.78,4.25.51.78-.15,1.59-.21,2.32-.53,1.13-.43,2.12-1.13,3.09-1.84.79-.6,1.61-1.17,2.28-1.91.47-.52.93-1.06,1.31-1.65.17-.32.41-.67.31-1.04Z"/>
          <path class="cls-2" d="m150.63,257.28c-.48-.32-.96-.64-1.44-.97-1.3-.9-1.81-1.28-3.01-2.44-2.43-2.44-3.98-5.31-5.06-8.45-1.1-3.64-1.42-7.47-2.4-11.14-.56-2.1-1.25-4.17-2.08-6.18-.33-.77-.67-1.54-1.06-2.28-.19-.31-.29-.7-.58-.93-.64-.53-1.57.27-1.14,1,2.11,3.92,3.46,8.43,4.31,13.25.42,2.22.77,4.46,1.43,6.63,1.47,4.5,4.17,8.69,8.1,11.4.7.5,1.41.98,2.14,1.45.2.12.38.3.63.31.37.07.75-.2.84-.56.15-.53-.28-.85-.68-1.08Z"/>
          <path class="cls-2" d="m136.04,255.02c-.12-.46-.62-.58-.99-.78-.64-.31-1.3-.6-1.95-.9-1.51-.62-3.34-1.74-4.08-2.44-1.32-1.08-1.8-1.63-2.62-2.97-1.01-1.58-1.73-3.32-2.49-5.03-.73-1.49-1.7-2.86-2.7-4.18-.37-.48-.74-.95-1.11-1.42-.14-.16-.25-.38-.47-.43-.75-.34-1.44.67-.84,1.25,1.49,1.91,3.06,3.79,4.17,6.42.62,1.5,1.34,2.97,2.21,4.34.7,1.18,1.6,2.22,2.68,3.06.83.71,1.71,1.35,2.67,1.88,1.12.6,2.29,1.07,3.44,1.62.42.16.81.48,1.25.57.52.1,1-.47.84-.97Z"/>
          <path class="cls-2" d="m187.02,182.35c-2.61.51-4.98,2.15-6.4,4.4-.53.8-.82,1.74-1.26,2.59-.71,1.35-1.16,1.99-1.96,2.9-1.97,2.22-4.47,3.4-7.31,3.33-.96-.03-1.84-.42-2.98-.93-3.61-1.54-6.8-1.69-10.28.31-.81.48-1.58,1.04-2.32,1.63-.21.17-.41.35-.62.52-.16.15-.36.27-.42.49-.34.75.67,1.44,1.25.84,2.03-1.87,4.67-3.45,7.27-3.44,1.42.02,2.02.22,3.54.69,1.02.32,1.75.81,3.14,1.23,1.75.43,3.61.17,5.28-.45,2.85-1.04,5.09-3.32,6.53-5.95.45-.79.73-1.65,1.15-2.45.54-.95.74-1.17,1.29-1.79.99-1.04,2.31-1.77,3.4-2.16.27-.09.55-.17.83-.23.18-.04.38-.05.52-.19.67-.48.13-1.59-.67-1.35Z"/>
          <path class="cls-2" d="m231.52,181.22c-.35-.1-.68.12-1.02.19-.58.17-1.17.32-1.77.44-1.93.38-4.12.49-5.77-.64-.25-.14-1.62-1.63-2.48-2.13-1.58-.86-3.48-1.01-5.23-.67-2.49.49-4.86,1.61-6.86,3.16-.95.64.09,1.98.94,1.21,2.29-1.81,6.42-3.6,9.2-2.81,1.43.31,1.78.94,3.22,2.25,2.69,2.18,6.49,1.49,9.55.56.89-.14,1.1-1.25.21-1.56Z"/>
          <path class="cls-2" d="m248.61,226.15c-.15-3.14-.26-6.29-.78-9.39-.61-3.07-1.51-6.09-2.53-9.05-.77-2.18-1.79-4.25-2.83-6.31-1.58-3.18-2.74-5.93-3.69-9.62-.12-.5-.23-1.01-.31-1.52-.07-.27-.04-.58-.23-.79-.48-.67-1.59-.13-1.35.67.48,3.04,1.53,5.96,2.72,8.78.91,2.12,2.68,5.52,3.3,6.94.93,2.13,1.62,4.36,2.27,6.59.68,2.34,1.26,4.8,1.43,6.69.19,1.91.3,3.83.4,5.74.02.42.04.85.06,1.27,0,.2.08.4.22.54.46.48,1.34.13,1.32-.55Z"/>
          <path class="cls-2" d="m256.21,220.58c.18-.79.34-1.59.5-2.39.39-1.9.65-3.82.79-5.76.13-1.81.13-3.62.28-5.43.16-1.89.26-2.72.56-4.55.21-1.19.46-2.37.74-3.55.06-.42.33-.85.29-1.27-.09-.82-1.3-.9-1.51-.09-1.03,3.65-1.54,7.45-1.72,11.24-.1,4-.4,6.92-1.27,10.77-.09.42-.18.84-.29,1.26-.04.16-.1.32-.06.49.03.38.39.67.77.67.75,0,.8-.82.93-1.38Z"/>
          <path class="cls-2" d="m266.68,184.9c-.43-.72-1.25-.23-1.81.05-1.23.64-2.34,1.48-3.41,2.36-1.27,1.05-3,2.2-4.94,3.14-1.59.73-2.29,1.21-4.04,1.03-.31-.04-.14.02-.74-.13-.33-.1-.65-.21-.96-.33-.64-.29-1.14-.67-1.32-.82-.28-.23-.56-.47-.81-.73-.15-.16-.27-.38-.49-.45-.75-.35-1.44.67-.84,1.25,1.83,2.18,4.98,3.43,7.75,2.48,2.96-1.08,5.66-2.79,8.07-4.82.49-.4,1.45-1.09,2.48-1.63.44-.22.3-.15.51-.23.12-.04.26-.07.35-.17.32-.21.39-.67.2-1Z"/>
          <path class="cls-21" d="m277.99,196.46c-1.6,1.29-3.02,2.82-4.25,4.46-.21.42.24.92.69.78.2-.05.31-.22.43-.36.24-.29.48-.58.72-.86.98-1.16,2.04-2.25,3.23-3.19.53-.55-.27-1.35-.82-.82Z"/>
          <path class="cls-21" d="m272.71,203.62c-.12-.48-.82-.58-1.06-.14-1.47,2.57-2.93,5.15-4.31,7.77-.27.43.17,1,.66.85.44-.15.52-.69.75-1.04,1.2-2.26,2.46-4.49,3.73-6.71.13-.23.31-.47.22-.74Z"/>
          <path class="cls-21" d="m273.89,197.06c-1.42,1.4-2.61,3-3.78,4.6-.53.73-1.06,1.47-1.57,2.21-.14.25-.39.46-.43.75-.08.39.35.75.72.63.29-.08.4-.37.57-.6.31-.45.63-.9.95-1.35,1.2-1.67,1.95-2.74,3.23-4.21.29-.33.57-.66.88-.97.13-.14.31-.25.37-.44.26-.56-.51-1.08-.94-.63Z"/>
          <path class="cls-21" d="m113.81,252.68c-1.14-.67-2.33-1.23-3.54-1.77-.6-.26-1.21-.51-1.83-.72-.24-.06-.48-.21-.73-.17-.62.06-.67.99-.07,1.13,1.71.53,2.77,1.06,4.49,1.91.3.16.61.32.9.49.14.07.26.19.42.19.61.1.9-.77.36-1.07Z"/>
          <path class="cls-21" d="m123.07,259.41c-.05-.14-.13-.27-.27-.35-.64-.48-1.29-.96-1.93-1.44-1.15-.87-2.31-1.74-3.51-2.53-.38-.25-.77-.49-1.16-.73-.15-.08-.28-.21-.46-.21-.61-.1-.9.77-.36,1.07,1.89,1.1,3.63,2.44,5.37,3.75.43.32.86.64,1.29.96.12.09.24.2.4.2.39.08.75-.35.63-.73Z"/>
          <path class="cls-21" d="m120.53,254.36c-.18-.26-.49-.39-.73-.58-1.46-1.04-2.96-2.01-4.51-2.9-.92-.5-1.82-1.08-2.8-1.43-.61-.1-.9.77-.36,1.07,2.42,1.16,4.7,2.58,6.9,4.12.37.2.7.69,1.16.57.36-.09.54-.53.35-.85Z"/>
          <path class="cls-21" d="m199.31,185.61c-2.21-.58-4.57-.84-6.81-.26-.39.09-.78.19-1.17.3-.21.06-.45.12-.56.33-.27.43.17,1,.66.85.77-.23,1.54-.42,2.33-.56.99-.2,2.76-.07,3.88.14.38.06.76.15,1.13.25.16.03.32.11.48.07.62-.06.67-.99.07-1.13Z"/>
          <path class="cls-21" d="m188.46,186.87c-1.57.68-2.72,2.03-3.64,3.44-.22.35-.44.71-.63,1.08-.11.22-.27.44-.19.7.09.36.53.54.85.35.26-.16.33-.5.5-.75.33-.59.7-1.15,1.11-1.69.28-.36.6-.69.92-1.01.43-.39.45-.42,1.07-.81.24-.16.57-.21.76-.44.4-.48-.22-1.18-.75-.85Z"/>
          <path class="cls-21" d="m195.51,188.01c-2.21-.12-4.47.52-6.32,1.74-.39.27-.76.56-1.1.87-.18.16-.39.35-.38.61,0,.37.38.66.73.55.29-.1.47-.39.71-.57.38-.32.55-.45,1.18-.82,1.11-.67,2.57-1.08,3.61-1.18.37-.04.74-.08,1.12-.08.22-.02.46.08.67-.02.58-.22.4-1.12-.23-1.11Z"/>
          <path class="cls-21" d="m161.15,198.87c-.72.01-1.4.24-2.04.54-.76.34-1.48.78-2.14,1.29-.36.27-.71.55-1.05.85-.26.18-.51.5-.34.83.1.27.41.41.68.34.25-.08.41-.31.62-.46.67-.56.8-.66,1.41-1.08,1.03-.62,1.52-.91,2.54-1.12.03,0,.07,0,.1,0,.22-.01.47,0,.64-.18.37-.34.09-1.01-.41-.99Z"/>
          <path class="cls-21" d="m154.73,204.42c.01-.5-.65-.77-.99-.41-1.35,1.16-2.36,2.68-3.23,4.22-.2.36-.39.73-.57,1.11-.15.24-.25.57-.03.8.25.37.87.26,1.01-.16.24-.48.49-.96.75-1.44.88-1.48,1.45-2.33,2.57-3.43.21-.2.51-.37.5-.7Z"/>
          <path class="cls-21" d="m159.3,202.18c-1.35.94-2.46,2.16-3.54,3.38-.53.6-1.02,1.23-1.49,1.87-.18.29-.47.56-.53.9-.09.46.47.82.86.57.24-.15.33-.44.5-.65.47-.66.49-.68.94-1.24.97-1.17,2-2.3,3.15-3.3.45-.36.31-.26.7-.54.13-.08.23-.21.27-.35.14-.48-.43-.92-.85-.65Z"/>
        </g>
        <path class="cls-2" d="m143.06,200.03c-.46.15-.74.61-1.07.94-.54.61-1,1.29-1.34,2.04-.94,1.91-1.19,4.05-1.88,6.04-.26.74-.43,1.21-1.08,2.21-.09.18-1.25,1.38-1.66,1.57-.85.48-1.71.64-2.77.69-1.96.05-3.01-.38-5.18-.74-2.73-.46-5.62-.1-8.05,1.29-4.27,2.35-6.71,7.34-6.6,12.13-.05.69,0,.62-.32,1.58-.11.43-.46.83-.39,1.28.1.94,1.48,1.04,1.73.12.55-1.15.82-2.39.76-3.66.03-1.26.09-1.49.42-2.86.45-1.88,1.51-3.61,2.53-4.8.98-1.12,1.27-1.33,2.37-2.02,1.25-.7,1.58-.88,3.08-1.24.87-.28,3.28-.25,3.92-.11,1.47.22,2.91.65,4.4.77,1.96.17,4.13-.08,5.68-1.38.68-.55,1.29-1.2,1.77-1.93.55-.91.95-1.92,1.27-2.93.69-2.36.97-4.43,2.09-6.1.41-.57.29-.44.93-1.13.25-.24.52-.5.51-.88.01-.57-.58-1.01-1.12-.86Z"/>
        <path class="cls-2" d="m219.21,172.96c-1.04-.51-2.22-.65-3.36-.52-3.69.28-6.25,3.22-8.66,5.71-.61.57-.52.54-1.41,1.01-.22.1-.99.47-1.83.62-.55.2-2.93.17-3.33.05-1.65-.28-3.19-.98-4.8-1.4-1.61-.44-3.27-.64-4.93-.67-3.23-.1-6.47.6-9.32,2.14-1.84.97-3.44,2.34-4.89,3.81-1,1.03-1.94,2.12-3.01,3.09-.71.69-2.07,1.63-2.53,1.78-1.45.5-1.95.49-3.61.35-1.68-.15-3.07-.49-5.21-.53-.98.03-2.04.1-2.91.59-.76.55-.16,1.82.77,1.55,1.85-.71,4.09-.22,5.92-.01,2.35.38,4.89.45,6.92-.99,1.75-1.17,3.17-2.73,4.59-4.26,1.02-1.08,2.31-2.23,3-2.71,3.32-2.32,6.31-3.1,10.19-3.06,2.34.05,3.67.29,6.05,1.07,1.04.35,2.09.73,3.17.92,1.53.27,3.11.26,4.63-.08.97-.25,1.92-.64,2.77-1.18,1.38-1.01,2.4-2.42,3.68-3.55,2.02-1.93,4.21-2.77,6.24-2.5.18.03.35.07.52.12.09.02.26.08.37.13.44.21.94.49,1.37.11.63-.48.35-1.41-.4-1.61Z"/>
        <g>
          <path class="cls-2" d="m92.62,167.55c-.23-.41-.81-.57-1.22-.32-.19.13-.35.3-.41.53-.12.5-.23.99-.38,1.48-.1.34-.22.68-.36,1.01-.64,1.48-1.64,2.55-2.43,3.08-1.39.86-1.86.9-3.63.87-2.27,0-4.57-.19-6.81.3-2.46.61-4.71,2.09-6.15,4.19-1.27,1.67-1.89,3.79-1.92,5.87,0,.4.05.79.13,1.18.05.2.07.41.22.56.57.78,1.81.14,1.55-.77-.36-1.09.09-3.3.59-4.35.3-.66.7-1.27,1.15-1.85.06-.08.76-.93,1.38-1.43-.04.03-.05.04.05-.04.03-.02.05-.04.08-.06-.01.01-.03.02-.04.04.31-.24.64-.43.97-.63.38-.21.77-.41,1.17-.58,2.36-.94,4.36-.64,7.19-.66,1.39.06,2.84.02,4.1-.62,2.49-1.19,4.05-3.73,4.66-6.35.09-.47.37-1,.09-1.45Z"/>
          <path class="cls-2" d="m74.39,177.88s-.03.02-.05.04c.02-.02.05-.04.08-.06,0,0-.02.01-.03.02,0,0,0,0,0,0Z"/>
        </g>
        <path class="cls-2" d="m129.44,140.65c-.34-.56-1.05-.54-1.51-.12-.43.31-.84.66-1.21,1.05-1.76,1.76-3.17,4.19-4.36,5.57-.77.86-.82.89-1.61,1.39-.8.44-.79.43-1.85.72-.85.2-2.05.29-3.48.15-.07,0-.17-.02-.24-.03-2.01-.33-4.08-.53-6.09-.09-1.7.31-3.33,1.07-4.68,2.15-.77.67-1.42,1.48-1.95,2.35-.31.54-.58,1.09-.89,1.63-.19.3-.39.63-.27,1,.18.74,1.26.88,1.62.21.89-1.55,1.31-2.58,2.31-3.54.35-.48,2.11-1.44,2.44-1.56,1.13-.44,2.16-.6,2.77-.67,2.51-.27,3.77.34,6.27.38,2.32.02,4.73-.63,6.41-2.3,1.24-1.28,2.16-2.83,3.23-4.24,0,0,0,0,0,0,.65-.81,1.31-1.6,2.07-2.31.25-.37,1.51-.64,1-1.74Z"/>
        <path class="cls-2" d="m185.09,131.26c-.31-.18-.65-.11-.98-.03-.69.16-1.35.4-2,.69-1.37.57-2.62,1.38-3.96,2.01-.38.2-2.25.76-2.94.71-2.38.2-3.43-.99-6-2.42-1.23-.68-2.59-1.08-3.97-1.28-.93-.13-1.87-.26-2.8-.19-3.38.26-5.78,2.34-8.37,4.27-1.64,1.19-3.85,2.37-5.11,2.82-1.01.4-2.18.37-2.44.33-.45-.06-.89-.19-1.33-.3-.23-.06-.48-.03-.68.09-.66.36-.53,1.45.21,1.62,2.08.66,3.97.43,5.92-.52,2.1-.95,4.04-2.22,5.85-3.64,3.65-2.86,5.91-3.45,9.81-2.46,1.34.35,1.86.68,3.26,1.51,1.01.64,2.02,1.3,3.16,1.68,1.94.53,4.04.28,5.89-.49,2.45-1.06,4-2.35,6.29-2.77.74-.18.89-1.25.21-1.62Z"/>
      </g>
      <path class="cls-12" d="m225.73,93.32c.1.21.4.15.41-.08.12-1.98.53-3.95,1.2-5.82.5-1.39,1.17-2.77,2.25-3.78s2.64-1.6,4.07-1.22c1.49.4,2.57,1.77,2.99,3.26.42,1.48.29,3.06.06,4.59-1.21,7.91-5.04,15.15-8.78,22.41-.07.14-.26.16-.36.04-4.03-4.73-7.5-9.93-10.31-15.46-1.38-2.72-2.63-5.6-2.78-8.65-.1-2.05.66-4.57,3.07-4.54.88.01,1.72.38,2.36.98,2.45,2.3,4.35,5.13,5.82,8.26Z"/>
      <g>
        <path class="cls-20" d="m470.27,333.99c-3.97,5.94-9.29,10.64-15.2,14.66-5.98,4.06-12.58,7.43-19.03,10.66-15.02,7.53-30.78,15.23-47.58,15.03-23.71-4.37-47-15.51-65.29-32.2-7.65-6.98-14.42-14.89-20.74-23.1-25.66-33.35-44.27-72.8-49.28-114.58-1.88-15.66-1.85-31.55.1-47.2,1.31-10.59,3.7-21.52,10.4-29.82,4.54-5.63,10.74-9.65,16.92-13.4,12.61-7.66,25.62-14.67,38.96-20.97,2.56-1.21,5.12-2.39,7.71-3.55,14.39-6.45,26.69-1.71,36.88,2.12,10.19,3.83,19.41,9.88,27.92,16.66,38.62,30.75,63.16,76.07,79.25,122.74,9.12,27.81,14.23,58.07,6.31,86.17-1.66,5.89-3.91,11.68-7.32,16.77Z"/>
        <path class="cls-13" d="m470.27,333.99c-3.97,5.94-9.29,10.64-15.2,14.66-.34.14-.69.28-1.04.41-16.89,6.35-36.04.65-51.73-8.26-24.83-14.11-44.58-35.85-60.56-59.52-25.69-38.06-42.76-82.79-43.45-128.7-.23-15.58,1.56-31.7,9.21-45.28,3.04-5.4,7.17-10.31,12.03-14.23,2.56-1.21,5.12-2.39,7.71-3.55,14.39-6.45,26.69-1.71,36.88,2.12,10.19,3.83,19.41,9.88,27.92,16.66,38.62,30.75,63.16,76.07,79.25,122.74,9.12,27.81,14.23,58.07,6.31,86.17-1.66,5.89-3.91,11.68-7.32,16.77Z"/>
        <path class="cls-9" d="m450.43,325.46c-3.78,2.83-8.15,4.64-12.75,5.56-2.12.43-4.3.66-6.49.72-.51.02-1.01.02-1.52.02-4.66-.04-9.35-.86-13.75-2.33-.04-.02-.09-.03-.13-.04-.59-.2-1.17-.41-1.75-.62-10.71-4.03-19.9-11.38-28.28-19.21-6.33-5.92-12.33-12.2-17.95-18.8h0c-1.13-1.33-2.25-2.67-3.35-4.02-4.96-6.09-9.62-12.44-13.94-19-.27-.41-.54-.82-.81-1.23-4.68-7.19-8.96-14.63-12.83-22.28-.22-.43-.44-.87-.65-1.3-9.91-19.89-17.02-41.17-20.91-63.05-.89-5.01-1.61-10.11-2.04-15.22-.06-.72-.12-1.45-.17-2.17-.45-6.51-.39-13.03.4-19.43.08-.62.16-1.24.25-1.86.67-4.57,1.73-9.08,3.27-13.46.02-.05.04-.11.06-.16.16-.46.33-.93.51-1.38,1.54-4.04,3.55-7.93,6.35-11.2.25-.3.51-.59.78-.88,8.28-8.87,21.95-11.09,33.73-8.15,11.77,2.93,21.97,10.24,31.16,18.16,18.07,15.56,33.56,34.11,45.64,54.67,12.65,21.52,19.36,42.69,25.17,63.71,4.92,17.78,8.07,36.48,4.99,54.67-1.82,10.78-6.23,21.73-14.98,28.29Z"/>
        <path class="cls-18" d="m446.02,316.44c.32-.76.64-1.53.93-2.3,2.94-7.59,4.71-15.66,5.43-23.79.06-.65.11-1.3.15-1.95.07-1.08.13-2.17.17-3.25h0c.52-14.1-1.83-28.22-5.53-41.86-.6-2.22-1.24-4.43-1.91-6.63,0,0,0,0,0,0-1.18-3.86-2.47-7.69-3.86-11.48-2.29-6.22-4.85-12.34-7.68-18.33-.22-.47-.45-.94-.67-1.41-3.67-7.64-7.76-15.08-12.24-22.28-.26-.42-.53-.85-.8-1.27-3.67-5.82-7.6-11.48-11.75-16.96-.85-1.12-1.71-2.23-2.58-3.34-.31-.4-.62-.79-.94-1.19-2.13-2.66-4.33-5.28-6.6-7.83-3.37-3.78-6.9-7.41-10.61-10.83-5.4-4.97-11.18-9.5-17.41-13.38-6.72-4.19-14.01-7.6-21.59-9.93-1.33-.41-2.67-.78-4.02-1.12-2.98-.75-6-1.34-9.03-1.73-.78-.1-1.57-.19-2.35-.27-3.06-.3-6.14-.4-9.21-.29-2.8,3.27-4.81,7.16-6.35,11.2-.18.46-.35.92-.51,1.38-.02.05-.04.11-.06.16-1.54,4.39-2.6,8.89-3.27,13.46-.09.62-.18,1.24-.25,1.86-.79,6.4-.84,12.92-.4,19.43.05.73.1,1.45.17,2.17.13,1.53.28,3.05.46,4.58.18,1.56.39,3.12.61,4.68.29,2,.62,3.99.97,5.96,2.43,13.69,6.13,27.14,10.98,40.16.61,1.63,1.23,3.25,1.87,4.86,2.43,6.12,5.12,12.13,8.06,18.02.22.44.44.87.65,1.3,3.87,7.65,8.15,15.09,12.83,22.28.27.41.54.82.81,1.23,4.32,6.56,8.98,12.91,13.94,19,1.1,1.35,2.22,2.69,3.35,4.02h0c1.06,1.25,2.14,2.49,3.23,3.71.92,1.04,1.86,2.07,2.8,3.09,3.82,4.14,7.79,8.14,11.91,11.99,6.45,6.03,13.4,11.78,21.14,15.94,1.88,1.01,3.81,1.93,5.79,2.73.45.18.9.36,1.36.53.58.22,1.16.43,1.75.62.04.02.09.03.13.04,4.39,1.47,9.09,2.29,13.75,2.33.51,0,1.01,0,1.52-.02,2.19-.06,4.36-.3,6.49-.72.03-.03.05-.07.08-.1,3.35-4.48,6.09-9.35,8.27-14.49Z"/>
        <path class="cls-22" d="m365.27,188.09c-.06-.35-.33-.62-.49-.92-.02-.03-.03-.05-.05-.08t0,0c-.33-.52-.66-1.05-.99-1.57-1.02-1.61-2.03-3.22-3.06-4.83-1.05-1.64-2.11-3.28-3.21-4.89-1.43-2.09-3.01-4.08-4.5-6.12-.83-1.13-1.71-2.21-2.64-3.25-.14-.14-.26-.3-.39-.46,3.61-2.21,7.12-4.59,10.7-6.87.2-.13.4-.26.6-.39.44-.29.89-.58,1.34-.87.28-.21.64-.35.83-.65.43-.65-.41-1.45-1.05-.98-.51.34-1.02.67-1.53,1.01-.5.33-1.01.66-1.51.99-.05-.08-.11-.16-.15-.24-.34-.54-.68-1.09-1.01-1.63-2.67-4.35-5.49-8.62-8.63-12.64-1.88-2.31-3.71-4.68-5.77-6.83,2.71-1.75,5.45-3.46,8.26-5.05.62-.35,1.24-.7,1.87-1.04.45-.25.73-.4,1.06-.58.27-.14.57-.31,1.02-.55.18-.07.33-.21.41-.39.27-.57-.35-1.23-.94-.98-.37.2-.75.39-1.12.59-.97.52-1.94,1.05-2.89,1.59-1.05.6-2.09,1.21-3.13,1.83,0,0,0,0,0-.01-.02-.22-.17-.39-.26-.58-.32-.55-.66-1.09-1-1.62-2.34-3.63-4.88-7.14-7.67-10.43-1.23-1.42-2.51-2.8-3.85-4.12-.78-.1-1.57-.19-2.35-.27,1.93,1.9,3.36,3.33,5.07,5.33,2.32,2.73,4.44,5.62,6.45,8.58.56.84,1.11,1.69,1.65,2.54.18.3.36.6.54.9.06.15.17.27.3.36-3.43,2.09-6.79,4.29-10.12,6.53-1.9,1.29-3.78,2.61-5.63,3.96,0,0,0-.01-.01-.02-.33-.56-.69-1.09-1.05-1.62-3.47-5.07-7.45-9.78-11.58-14.33-.39-.44-.79-.88-1.18-1.32-.18.46-.35.92-.51,1.38-.02.05-.04.11-.06.16,3.87,4.29,8.57,9.73,12,14.78.36.52.72,1.05,1.05,1.59.05.08.1.17.14.25-2.44,1.78-4.86,3.59-7.29,5.38-.5.37-1,.75-1.49,1.14-.84-1.21-1.67-2.42-2.55-3.59-1.58-2.13-3.29-4.17-5.12-6.08-.09.62-.18,1.24-.25,1.86,1.44,1.56,2.87,3.3,4.29,5.23,1.55,2.09,2.96,4.27,4.53,6.35,4.2,5.67,8.52,11.24,12.48,17.08.26.37.51.74.78,1.1-.32.19-.63.37-.95.56-.83.48-1.66.96-2.49,1.44-1.2.69-2.03,1.17-2.93,1.64-.04.02-.08.04-.12.06-1.01.52-2,1.09-3.03,1.58.05-.11.07-.24.06-.36,0-.05,0-.1,0-.14-.03-.29-.26-.49-.42-.72-.36-.47-.72-.95-1.08-1.42h0c-.14-.18-.27-.36-.41-.53-1.29-1.66-2.67-3.23-4.05-4.81-.33-.37-.65-.74-.98-1.12-1.83-2.06-3.63-4.16-5.61-6.08-.16-.14-.31-.29-.47-.43.05.73.1,1.45.17,2.17,1.24,1.22,2.27,2.45,3.66,3.98.32.36.64.73.96,1.09,1.54,1.75,3.08,3.49,4.55,5.3.14.17.27.34.41.51.58.74,1.15,1.49,1.72,2.24.04.06.08.12.13.18.03.19.15.37.37.49-.06.12-.09.26-.07.4.15.83,1.16.9,1.79.54,1.53-.78,3.03-1.59,4.53-2.43,1.81-1,3.6-2.04,5.38-3.08.69-.4,1.38-.81,2.07-1.22,3.31-1.97,6.63-3.92,9.92-5.93.79.94,1.62,1.84,2.36,2.81,1.39,1.85,2.79,3.69,4.16,5.55,1.15,1.6,2.24,3.24,3.31,4.89,1.27,1.96,2.51,3.95,3.76,5.92.08.13.16.26.25.4,0,0,0,0,0,0,.37.58.73,1.16,1.1,1.74.25.41.53,1,1.11.82.36-.07.6-.44.56-.79Zm-28.41-16.01c-.13-.2-.3-.4-.43-.59-.53-.76-1.05-1.52-1.58-2.28-3.84-5.59-8.04-10.92-12.04-16.38-.18-.25-.36-.5-.54-.75.61-.48,1.22-.95,1.85-1.4,5.92-4.39,11.83-8.8,18.04-12.77.11-.07.22-.14.34-.22,1.22,1.23,2.77,3.14,4.16,4.82,3.58,4.32,6.76,8.98,9.71,13.75.44.7.87,1.41,1.31,2.12.14.18.25.42.39.64-2.48,1.61-4.97,3.21-7.46,4.83-4.56,2.79-9.14,5.54-13.75,8.24Z"/>
        <path class="cls-22" d="m367.8,290.76c-1.13-1.33-2.25-2.67-3.35-4.02-1.1-2.52-2.21-5.04-3.46-7.48-1.62-3.18-3.05-5.89-4.63-8.68-.9-1.63-1.94-3.18-2.82-4.83-1.01.66-2.02,1.34-3.04,2-.27-.41-.54-.82-.81-1.23,1.84-1.19,3.65-2.43,5.51-3.58,4.85-3.02,9.76-6.01,14.17-9.67-2.52-4.69-4.94-9.12-7.81-14.2-1.56-2.73-2.96-5.54-4.71-8.15-.02.01-.04.03-.05.04-1.51,1.16-3.09,2.22-4.64,3.31-4.63,3.18-9.16,6.54-14.05,9.3-.41.23-.82.46-1.24.68-.22-.43-.44-.87-.65-1.3.29-.16.53-.29,1.07-.59,3.78-2.12,7.32-4.65,10.88-7.1,3.03-2.13,6.13-4.15,9.03-6.46.64-.47,1.49.32,1.05.98-.05.11-.14.18-.23.25.26.38.51.76.75,1.15.97,1.53,1.81,3.13,2.69,4.72,2.11,3.82,4.82,8.56,6.55,11.81,2.07,3.79,4.16,7.58,5.98,11.49.44.93.87,1.87,1.29,2.81.25.54.49,1.09.73,1.63.05.12.06.24.04.37-.07.59-.88.85-1.26.39-.27-.33-.37-.78-.57-1.16-.37-.83-.75-1.66-1.13-2.49-.96-2.08-1.97-4.14-3.03-6.17-1.9,1.67-4.04,3.08-6.11,4.52-2.75,1.88-5.62,3.59-8.44,5.37-.25.15-.5.32-.75.48.78,1.5,2.27,3.78,3.29,5.68,1.87,3.4,3.69,6.82,5.39,10.31,1.5,3.25,2.91,6.54,4.34,9.82Z"/>
        <path class="cls-22" d="m415.91,329.43s-.09-.03-.13-.04c-.59-.2-1.17-.41-1.75-.62-.18-.42-.35-.83-.53-1.25-2.03-4.7-3.74-8.71-6.54-12.75-.54-.8.61-1.63,1.19-.86,2.98,4.28,5.02,9.11,7.06,13.88.23.55.46,1.1.7,1.64Z"/>
        <path class="cls-22" d="m446.02,316.44c-.14-.55-.27-1.1-.41-1.65-.59-2.36-1.37-4.67-2.12-6.98-1-3.18-2.42-6.99-3.82-9.52-1.78,1.93-3.68,3.73-5.58,5.54-2.58,2.5-5.17,4.99-7.99,7.21-.43.34-.86.68-1.3,1.02-.21.14-.39.34-.61.47.92,2.3,1.79,4.61,2.68,6.92,1.41,3.79,2.91,7.55,4.07,11.43.09.29.17.57.25.86-.51.02-1.01.02-1.52.02-.76-2.58-1.67-5.11-2.61-7.63-1.71-4.54-3.41-9.09-5.26-13.58-1.47-3.46-3.1-6.86-4.68-10.27-.48-1-.95-1.97-1.4-2.92h0c-1.41-2.95-2.76-5.7-4.41-8.43h0c-.53-.88-1.09-1.75-1.7-2.63-.55-.82.62-1.62,1.19-.86.2.28.39.57.58.85,1.69,2.56,3.13,5.28,4.49,8.03.28.57.56,1.14.84,1.72,1.94,4,3.82,8.04,5.65,12.1.44.99.86,1.98,1.27,2.98.02-.01.04-.03.06-.04.47-.36.93-.72,1.39-1.09,1.61-1.29,3.2-2.62,4.7-4.04.79-.76,1.75-1.67,2.78-2.65-.22-.19-.24-.5-.31-.77-.65-2.68-2.23-7.3-3.47-10.54-2.4-6.12-4.73-12.27-7.45-18.25-1.56-3.35-3.22-6.41-5.19-9.52-.78-1.24-1.61-2.48-2.5-3.76-.08-.11-.13-.23-.14-.35-.06-.55.58-1.06,1.12-.7.27.15.37.49.56.72.3.41.58.83.87,1.24.19.29.39.58.58.87h0c.12.19.25.38.37.58,1.77,2.76,3.36,5.63,4.83,8.55,1.96,4,3.61,8.15,5.25,12.29,2.94-2.32,5.31-4.93,7.89-7.83.44-.5.89-1,1.35-1.52.75-.8,1.83.34,1.02,1.07-.4.46-.8.91-1.21,1.37-2.54,2.86-5.15,5.67-8.13,8.08-.11.08-.23.17-.35.26.04.11.09.22.13.32,1.94,4.84,3.86,9.69,5.33,14.7.18.62.35,1.25.51,1.88.01.08.04.16.06.25,1.5-1.43,3.06-2.95,4.35-4.33,1.51-1.65,3.07-3.25,4.51-4.97,1.68-1.98,3.93-4.85,5.17-6.65.1-.15.2-.29.29-.42.42-.88,1.71-.29,1.34.6-.16.27-.33.53-.51.79-.78,1.14-1.64,2.22-2.48,3.32-1.77,2.29-3.64,4.49-5.62,6.59.05.1.11.21.17.31.37.67.71,1.35,1.04,2.04,1.22,2.55,2.11,5.24,2.99,7.93.74,2.22,1.45,4.45,2.05,6.71-.3.77-.61,1.54-.93,2.3Z"/>
        <path class="cls-22" d="m433.74,206.84c-.26.26-.51.52-.77.78-1.93,1.92-3.87,3.87-5.93,5.65-1.35,1.17-2.75,2.28-4.24,3.27-.03.02-.06.04-.09.06-.43.28-.86.56-1.29.83-.23.13-.44.33-.71.36-.05,0-.1,0-.15,0-.15.42-.72.67-1.13.48-.24-.1-.37-.33-.47-.56-.16-.38-.32-.76-.48-1.13-.63-1.42-1.25-2.85-1.9-4.26-.95-2.09-1.93-4.15-2.98-6.19-.48-.94-.97-1.85-1.48-2.76-.79-1.42-1.63-2.86-2.52-4.48-.45-.79-.9-1.59-1.36-2.38-1.86-3.23-3.79-6.42-5.85-9.51-.54-.81-1.08-1.6-1.64-2.4-.39-.5.09-1.27.71-1.16.01,0,.02,0,.03,0,.36.06.54.41.73.69,1.79,2.56,3.46,5.2,5.07,7.88h0c.81,1.36,1.61,2.72,2.4,4.09,1.64,2.92,3.33,5.81,4.9,8.77.07.12.13.25.2.38,1.48,2.83,2.81,5.73,4.11,8.65.28.62.55,1.24.82,1.86.12.27.24.55.35.83.09-.1.2-.19.32-.24.28-.18.57-.36.85-.54.06-.04.12-.08.18-.12.78-.5,1.54-1.03,2.28-1.6.74-.57,1.43-1.13,2.1-1.7,0,0,0,0,0,0-.08-.13-.11-.28-.13-.43,0-.05-.15-.59-.31-1.07-.47-1.41-1.01-2.79-1.58-4.16-1.21-2.87-2.44-5.74-3.77-8.55-1.88-3.87-3.77-7.4-5.66-10.79-1.91-3.34-4.09-6.51-6.22-9.71-1.98-2.99-3.95-6-6.17-8.82h0c-.41-.52-.83-1.04-1.26-1.54-.97,1.03-1.95,2.05-2.95,3.05-.33.34-.66.67-1,1-.31.26-.56.68-.99.74-.46.06-.89-.38-.81-.84.03-.19.14-.37.3-.49.02-.02.03-.03.04-.04,0,0,.02-.01.02-.02.65-.64,1.3-1.29,1.94-1.95,1.35-1.37,2.68-2.77,3.96-4.21,1.22-1.36,2.39-2.75,3.52-4.18.32.4.63.79.94,1.19-1.27,1.61-2.61,3.16-3.99,4.67,1.87,2.1,3.52,4.43,5.11,6.76,2.69,4.11,5.54,8.13,8.07,12.34.16.28.32.56.48.84.17-.13.35-.25.49-.4.86-.74,1.69-1.51,2.52-2.28.34-.34,1.02-.95,1.65-1.63.27.42.53.85.8,1.27-.14.14-.28.28-.41.42-1.04,1.02-2.11,2.01-3.2,2.97-.33.29-.66.58-1,.85-.04.03-.08.06-.13.1,1.69,3.03,3.28,6.11,4.84,9.21,1.82,3.76,3.49,7.6,5.03,11.49.38,1.04.8,2.07,1.07,3.14,2.06-1.85,3.91-3.76,6.02-5.89.23.47.45.94.67,1.41Z"/>
        <path class="cls-1" d="m406.89,325.5c-7.74-4.16-14.68-9.91-21.14-15.94-4.12-3.85-8.09-7.85-11.91-11.99-.94-1.02-1.88-2.05-2.8-3.09,1.99-16.26,2.73-35.95,1.86-56.72-.06-1.36-.12-2.73-.19-4.11-.77-14.96-2.38-30.4-4.96-45.46-.31-1.83-.64-3.65-.98-5.47-1.54-8.19-3.38-16.24-5.53-24-.14-.5-.28-.99-.42-1.49-.89-3.14-1.84-6.23-2.83-9.27-1.79-5.44-3.73-10.86-5.99-16.13-.19-.45-.39-.9-.59-1.35-2.01-4.55-4.27-8.98-6.88-13.2,1.35.34,2.69.72,4.02,1.12,7.58,2.33,14.87,5.74,21.59,9.93,6.23,3.89,12.02,8.41,17.41,13.38,3.12,7.53,6.6,17.02,9.74,27.06.16.53.33,1.06.49,1.59,1.33,4.31,2.59,8.71,3.72,13.09.31,1.18.61,2.37.9,3.55,1.03,4.2,1.93,8.34,2.66,12.33.4,2.21.75,4.37,1.04,6.47.24,1.75.44,3.46.59,5.11,1.29,14.18,2.81,28.51,3.78,42.83.1,1.52.2,3.05.29,4.57.55,9.36.83,18.7.62,28-.02.88-.04,1.76-.07,2.64h0c-.4,12.32-1.7,24.53-4.42,36.56Z"/>
        <path class="cls-20" d="m406.89,325.5c-7.74-4.16-14.68-9.91-21.14-15.94-4.12-3.85-8.09-7.85-11.91-11.99,2.31-19.3,3.35-38.76,2.88-58.14-.03-1.36-.07-2.72-.12-4.08-.53-15.29-2.02-30.52-4.56-45.57-.31-1.86-.64-3.71-.99-5.57-1.55-8.29-3.43-16.51-5.66-24.66-2.74-10.01-6.04-19.96-10.45-29.34-.21-.44-.42-.88-.63-1.33-1.74-3.59-3.65-7.1-5.76-10.48,7.58,2.33,14.87,5.74,21.59,9.93,6.23,3.89,12.02,8.41,17.41,13.38,3.12,7.53,6.6,17.02,9.74,27.06.16.53.33,1.06.49,1.59,1.33,4.31,2.59,8.71,3.72,13.09.31,1.18.61,2.37.9,3.55,1.03,4.2,1.93,8.34,2.66,12.33.4,2.21.75,4.37,1.04,6.47.24,1.75.44,3.46.59,5.11,1.29,14.18,2.81,28.51,3.78,42.83.1,1.52.2,3.05.29,4.57.55,9.36.83,18.7.62,28-.02.88-.04,1.76-.07,2.64h0c-.4,12.32-1.7,24.53-4.42,36.56Z"/>
        <path class="cls-5" d="m452.39,290.35c-1.19-1.04-2.38-2.07-3.58-3.1-.37-.32-.75-.64-1.12-.96-3.8-3.24-7.66-6.43-11.58-9.55-.39-.31-.77-.61-1.16-.92-5.98-4.72-12.09-9.28-18.34-13.59h0c-.19-.13-.37-.26-.56-.39-.85-.59-1.71-1.17-2.56-1.74-.91-.61-1.82-1.21-2.73-1.81-10.9-7.16-22.22-13.56-34.03-18.87-1.27-.57-2.55-1.13-3.83-1.68-7.41-3.16-15-5.88-22.79-8.09-7.21-2.04-14.54-3.63-21.94-4.75-.64-1.61-1.27-3.23-1.87-4.86-4.85-13.02-8.55-26.48-10.98-40.16-.35-1.98-.68-3.96-.97-5.96,2.71.25,5.4.63,8.08,1.12.73.13,1.47.27,2.2.42h0c1.53.31,3.06.64,4.58,1.01.7.16,1.4.33,2.1.51,2.49.62,4.96,1.29,7.42,1.98,7.99,2.23,15.93,4.65,23.78,7.36,0,0,0,0,0,0,.74.25,1.48.51,2.22.78t0,0c1.01.36,2.02.72,3.02,1.08,1.44.52,2.87,1.06,4.29,1.6,9.08,3.47,17.99,7.39,26.6,11.91,2.51,1.32,5,2.68,7.46,4.11,1.48.85,2.95,1.73,4.4,2.63,2.05,1.26,4.09,2.56,6.09,3.9.78.52,1.55,1.05,2.32,1.58.85.59,1.69,1.18,2.53,1.78.43.31.85.61,1.27.92,8.15,5.96,15.75,12.62,22.57,20.04,0,0,0,0,0,0,.67,2.2,1.31,4.41,1.91,6.63,3.69,13.64,6.04,27.76,5.53,41.86h0c-.04,1.09-.09,2.17-.17,3.26-.04.65-.09,1.3-.15,1.95Z"/>
        <path class="cls-19" d="m452.71,285.15c-11.81-9.92-24.03-19.37-36.86-27.9-1.79-1.19-3.58-2.36-5.39-3.51-4.97-3.17-10.03-6.19-15.2-9.05-6.08-3.36-12.31-6.5-18.67-9.34-1.29-.58-2.59-1.15-3.9-1.7-14.9-6.34-30.45-11.08-46.41-13.59-4.85-13.02-8.55-26.48-10.98-40.16-.35-1.98-.68-3.96-.97-5.96,2.71.25,5.4.63,8.08,1.12.73.13,1.47.27,2.2.42h0c1.53.31,3.06.64,4.58,1.01.7.16,1.4.33,2.1.51,2.49.62,4.96,1.29,7.42,1.98,7.99,2.23,15.93,4.65,23.78,7.36,0,0,0,0,0,0,.74.25,1.48.51,2.22.78t0,0c1.01.36,2.02.72,3.02,1.08,1.44.52,2.87,1.06,4.29,1.6,9.08,3.47,17.99,7.39,26.6,11.91,2.51,1.32,5,2.68,7.46,4.11,1.48.85,2.95,1.73,4.4,2.63,2.05,1.26,4.09,2.56,6.09,3.9.78.52,1.55,1.05,2.32,1.58.85.59,1.69,1.18,2.53,1.78.43.31.85.61,1.27.92,8.15,5.96,15.75,12.62,22.57,20.04,0,0,0,0,0,0,.67,2.2,1.31,4.41,1.91,6.63,3.69,13.64,6.04,27.76,5.53,41.86Z"/>
        <path class="cls-6" d="m380.93,200.43c-1.2.39-1.85,1.76-1.88,3.01-.02,1.26.49,2.46,1.08,3.57,1.03,1.92,2.58,3.84,4.74,4.12.76.1,1.59-.04,2.15-.56,1.04-.94.84-2.71.37-4.03-.58-1.61-1.67-3.54-2.55-4.48-.93-1-2.4-2.12-3.91-1.64Z"/>
        <path class="cls-6" d="m406.58,235.85c-1.03-.54-2.43-.59-3.37.1-.84.61-1.05,1.79-.97,2.82.2,2.67,1.87,5.12,4.11,6.59.63.41,1.32.77,2.06.86.74.1,1.56-.09,2.08-.62.79-.8.73-2.1.46-3.19-.61-2.43-1.72-5.18-4.36-6.57Z"/>
        <path class="cls-17" d="m381.58,202.21c7.02-5.3,11.84-6.86,20.04-7.62,8.2-.76,17.04,1.96,22.15,8.42,1.4,1.76,2.49,3.75,3.38,5.82,3.47,8.06,3.64,18-1.45,25.14-4.26,5.97-9.78,6.63-16.36,9.87-2.46,1.21-7.33-4.94-4.26-6.65,4.12-2.3,9.38-4.93,11.85-8.95,2.47-4.02,3.39-9.05,2.14-13.6-1.25-4.55-4.76-8.5-9.25-9.95-2.26-.73-4.68-.83-7.05-.71-4.01.21-7.98,1.07-11.72,2.52-2.31.9-3.94,1.7-5.5,2.37-2.48,1.06-5.97-5.15-3.97-6.66Z"/>
        <path class="cls-16" d="m291.17,149.02c-.47,0-.85-.38-.86-.85-.16-11.59,1.69-23.01,5.5-33.95.16-.45.65-.69,1.1-.53.45.16.69.65.53,1.1-3.74,10.75-5.56,21.98-5.4,33.36,0,.48-.37.87-.85.87,0,0,0,0-.01,0Z"/>
        <path class="cls-16" d="m294.04,190.09c-.4,0-.76-.28-.84-.69-2.37-11.36-3.51-23-3.39-34.6,0-.47.39-.85.86-.85h0c.48,0,.86.39.85.87-.12,11.48,1.01,22.99,3.35,34.23.1.47-.2.92-.67,1.02-.06.01-.12.02-.18.02Z"/>
        <path class="cls-16" d="m283.02,172.95c-.45,0-.82-.34-.86-.8-.81-10.61-1.14-26.53,1.85-42.17.09-.47.54-.77,1.01-.68.47.09.77.54.68,1.01-2.96,15.45-2.63,31.21-1.83,41.72.04.47-.32.89-.79.92-.02,0-.04,0-.07,0Z"/>
        <path class="cls-16" d="m316.74,253.95c-.32,0-.63-.18-.78-.49-8.53-17.86-15.61-36.58-21.03-55.62-.13-.46.13-.93.59-1.06.46-.13.93.14,1.06.59,5.4,18.95,12.44,37.57,20.93,55.35.21.43.02.94-.41,1.15-.12.06-.25.08-.37.08Z"/>
        <path class="cls-16" d="m352.78,309.96c-.24,0-.48-.1-.65-.3-12.83-14.92-23.55-31.52-31.85-49.36-.2-.43-.01-.94.42-1.14.43-.2.94-.01,1.14.42,8.24,17.69,18.87,34.17,31.6,48.96.31.36.27.9-.09,1.22-.16.14-.36.21-.56.21Z"/>
        <path class="cls-16" d="m324.75,288.27c-.28,0-.55-.14-.72-.39-11.85-17.96-19.61-36.59-24.42-49.04-.17-.44.05-.94.49-1.11.44-.17.94.05,1.11.49,4.78,12.37,12.49,30.89,24.25,48.71.26.4.15.93-.24,1.19-.15.1-.31.14-.47.14Z"/>
        <path class="cls-16" d="m392.62,346.47c-.15,0-.31-.04-.44-.12-11.68-7.06-23.46-17.49-33.15-29.38-.3-.37-.25-.91.12-1.21.37-.3.91-.25,1.21.12,9.57,11.74,21.19,22.03,32.71,28.99.41.25.54.78.29,1.18-.16.27-.45.42-.74.42Z"/>
        <path class="cls-16" d="m421.96,358.55c-.06,0-.12,0-.18-.02-6.89-1.49-15.3-4.75-22.49-8.72-.42-.23-.57-.75-.34-1.17.23-.42.75-.57,1.17-.34,7.05,3.89,15.29,7.08,22.02,8.54.47.1.76.56.66,1.02-.09.4-.44.68-.84.68Z"/>
        <path class="cls-16" d="m364,333.8c-.2,0-.4-.07-.57-.21-12.39-10.91-23.35-23.09-33.5-37.26-.28-.39-.19-.93.2-1.2.39-.28.92-.19,1.2.2,10.07,14.06,20.94,26.15,33.24,36.97.36.31.39.86.08,1.22-.17.19-.41.29-.65.29Z"/>
        <path class="cls-16" d="m406.88,361.34c-.1,0-.21-.02-.31-.06-10.04-3.88-29.28-14.87-36.59-21.7-.35-.32-.37-.87-.04-1.22.32-.35.87-.37,1.22-.04,7.18,6.71,26.13,17.53,36.03,21.36.44.17.67.67.49,1.11-.13.34-.46.55-.8.55Z"/>
        <path class="cls-16" d="m296.66,229.51c-.36,0-.69-.22-.81-.58-6.11-17.37-10.18-33.97-11.77-47.99-.05-.47.29-.9.76-.95.47-.05.9.29.95.76,1.57,13.9,5.61,30.37,11.68,47.62.16.45-.08.94-.53,1.1-.09.03-.19.05-.29.05Z"/>
        <path class="cls-16" d="m273.64,150.13c-.47,0-.85-.37-.86-.84-.2-7.82.64-15.63,2.5-23.23.11-.46.58-.74,1.04-.63.46.11.75.58.63,1.04-1.82,7.45-2.65,15.11-2.45,22.78.01.48-.36.87-.84.88,0,0-.02,0-.02,0Z"/>
        <path class="cls-16" d="m263.95,169.5c-.46,0-.84-.36-.86-.82-.5-9.93.29-19.73,2.26-28.35.11-.46.57-.75,1.03-.65.46.11.75.57.65,1.03-1.94,8.47-2.71,18.11-2.22,27.88.02.48-.34.88-.82.9-.01,0-.03,0-.04,0Z"/>
        <path class="cls-16" d="m276.14,194.36c-.41,0-.78-.3-.85-.72-2.1-12.4-3.02-25.06-2.75-37.63.01-.47.39-.84.86-.84,0,0,.01,0,.02,0,.48.01.85.4.84.88-.27,12.46.65,25.01,2.73,37.3.08.47-.24.91-.71.99-.05,0-.1.01-.14.01Z"/>
        <path class="cls-16" d="m270.19,222.95c-.39,0-.75-.27-.84-.67-3.6-15.42-5.75-31.26-6.39-47.08-.02-.48.35-.88.83-.9.48-.02.88.35.9.83.64,15.71,2.77,31.44,6.35,46.76.11.46-.18.93-.64,1.04-.07.02-.13.02-.2.02Z"/>
        <path class="cls-16" d="m301.47,269.68c-.33,0-.65-.19-.79-.51-9.5-21.49-20.02-46.38-24.67-69.89-.09-.47.21-.92.68-1.01.47-.09.92.21,1.01.68,4.62,23.34,15.1,48.13,24.56,69.53.19.44,0,.94-.44,1.14-.11.05-.23.07-.35.07Z"/>
        <path class="cls-16" d="m334.88,318.56c-.24,0-.49-.1-.66-.3-10.85-12.7-20.65-26.44-29.14-40.84-.24-.41-.11-.94.3-1.18.41-.24.94-.11,1.18.3,8.43,14.31,18.18,27.97,28.97,40.59.31.36.27.91-.1,1.22-.16.14-.36.21-.56.21Z"/>
        <path class="cls-16" d="m369.18,349.84c-.16,0-.32-.04-.46-.14-10.76-6.89-20.48-15.26-28.89-24.89-.31-.36-.28-.9.08-1.22.36-.31.9-.28,1.22.08,8.3,9.5,17.9,17.77,28.52,24.57.4.26.52.79.26,1.19-.16.26-.44.4-.73.4Z"/>
        <path class="cls-16" d="m311.04,308.81c-.26,0-.51-.11-.68-.33-3.94-5.02-7.61-10.33-10.9-15.8-.25-.41-.11-.94.29-1.18.41-.25.94-.11,1.18.29,3.25,5.41,6.88,10.66,10.78,15.62.29.37.23.92-.14,1.21-.16.12-.35.18-.53.18Z"/>
        <path class="cls-16" d="m344.41,345.1c-.2,0-.41-.07-.57-.22-10.44-9.27-20.18-19.48-28.94-30.35-.3-.37-.24-.91.13-1.21.37-.3.91-.24,1.21.13,8.71,10.79,18.38,20.93,28.75,30.14.36.32.39.86.07,1.22-.17.19-.41.29-.64.29Z"/>
        <path class="cls-16" d="m396.56,365.31c-.08,0-.17-.01-.25-.04-5.92-1.82-13.09-5.39-21.3-10.61-.4-.26-.52-.79-.26-1.19s.79-.52,1.19-.26c8.08,5.14,15.11,8.65,20.88,10.42.45.14.71.62.57,1.08-.11.37-.45.61-.82.61Z"/>
        <path class="cls-16" d="m373.89,363.59c-.12,0-.23-.02-.35-.07-7.05-3.11-13.76-7.02-19.95-11.62-.38-.28-.46-.82-.18-1.21.28-.38.82-.46,1.21-.18,6.08,4.52,12.68,8.37,19.62,11.43.44.19.63.7.44,1.14-.14.32-.46.51-.79.51Z"/>
        <path class="cls-16" d="m294.82,284.71c-.31,0-.61-.17-.77-.47-8.73-17-16.07-34.86-21.79-53.1-.14-.45.11-.94.56-1.08.45-.14.94.11,1.08.56,5.7,18.14,12.99,35.91,21.68,52.83.22.42.05.94-.37,1.16-.13.06-.26.1-.39.1Z"/>
        <path class="cls-9" d="m311.32,114.68c-.11,0-.22-.02-.32-.06-.44-.18-.65-.68-.47-1.12,2.66-6.54,6.96-12.36,12.43-16.82.37-.3.91-.25,1.21.12.3.37.25.91-.12,1.21-5.25,4.29-9.37,9.87-11.92,16.14-.14.33-.46.54-.8.54Z"/>
        <path class="cls-9" d="m304.03,151.71c-.46,0-.84-.36-.86-.82-.5-11.14,1.45-22.48,5.65-32.8.18-.44.68-.65,1.12-.47.44.18.65.68.47,1.12-4.11,10.1-6.02,21.19-5.53,32.08.02.48-.35.88-.82.9-.01,0-.03,0-.04,0Z"/>
        <path class="cls-9" d="m311.09,133.8s-.06,0-.1,0c-.47-.05-.81-.48-.76-.95,1.2-10.87,6.09-21.14,13.76-28.93.33-.34.88-.34,1.22,0,.34.33.34.88,0,1.22-7.41,7.51-12.12,17.42-13.28,27.91-.05.44-.42.77-.86.77Z"/>
        <path class="cls-9" d="m465.45,331.87c-.18,0-.36-.06-.52-.17-.38-.29-.45-.83-.17-1.21,5.42-7.16,7.9-16.41,10.08-24.57.12-.46.6-.73,1.06-.61.46.12.73.6.61,1.06-2.23,8.31-4.75,17.73-10.37,25.16-.17.22-.43.34-.69.34Z"/>
        <path class="cls-9" d="m442.47,345.09c-.47,0-.85-.38-.86-.85,0-.48.37-.87.85-.88,7.09-.14,14.06-3.06,19.11-8.04.34-.33.88-.33,1.22.01.33.34.33.88-.01,1.22-5.37,5.28-12.76,8.39-20.29,8.53,0,0-.01,0-.02,0Z"/>
        <path class="cls-9" d="m452.53,336.8c-.29,0-.58-.15-.74-.42-.24-.41-.11-.94.3-1.18,6.97-4.13,12.25-11.29,14.14-19.16.11-.46.58-.75,1.04-.64.46.11.75.58.64,1.04-2.02,8.44-7.47,15.82-14.94,20.24-.14.08-.29.12-.44.12Z"/>
        <path class="cls-16" d="m383.97,285.19s-.08,0-.13,0c-.47-.07-.8-.51-.73-.98,1.09-7.48,1.8-15.11,2.12-22.67.02-.48.42-.85.9-.82.48.02.84.42.82.9-.32,7.62-1.04,15.3-2.14,22.84-.06.43-.43.74-.85.74Z"/>
        <path class="cls-16" d="m392.28,274.73s-.07,0-.11,0c-.47-.06-.81-.49-.75-.96.66-5.16.85-10.41.57-15.61-.03-.48.34-.88.81-.91.48-.02.88.34.91.81.29,5.3.09,10.66-.58,15.92-.06.43-.43.75-.85.75Z"/>
        <path class="cls-16" d="m388.8,301.58s-.09,0-.14-.01c-.47-.08-.79-.52-.71-.99,1.09-6.79,1.93-13.71,2.51-20.56.04-.47.45-.83.93-.79.47.04.83.46.79.93-.58,6.9-1.43,13.86-2.52,20.69-.07.42-.43.73-.85.73Z"/>
        <path class="cls-16" d="m396.78,291.77s-.08,0-.11,0c-.47-.06-.8-.5-.74-.97,1.05-7.88,1.61-15.91,1.66-23.86,0-.47.39-.86.86-.86h0c.48,0,.86.39.86.87-.05,8.02-.62,16.12-1.68,24.08-.06.43-.43.75-.85.75Z"/>
        <path class="cls-16" d="m402.24,304.72c-.07,0-.14,0-.2-.02-.46-.11-.75-.58-.63-1.04,1.69-6.97,2.59-14.14,2.67-21.32,0-.47.39-.85.86-.85h0c.48,0,.86.4.85.87-.08,7.3-.99,14.61-2.71,21.7-.1.39-.45.66-.84.66Z"/>
        <path class="cls-16" d="m373.41,162.79c-.42,0-.79-.31-.85-.75-.84-6.2-2.16-12.38-3.92-18.38-.13-.46.13-.94.58-1.07.46-.13.94.13,1.07.58,1.78,6.08,3.12,12.35,3.97,18.64.06.47-.27.91-.74.97-.04,0-.08,0-.12,0Z"/>
        <path class="cls-16" d="m377.95,185.27c-.42,0-.79-.31-.85-.75-.82-5.98-1.97-11.98-3.42-17.83-.11-.46.17-.93.63-1.04.46-.11.93.17,1.04.63,1.47,5.92,2.63,11.98,3.45,18.02.06.47-.27.91-.74.97-.04,0-.08,0-.12,0Z"/>
        <path class="cls-16" d="m382.59,178.11c-.43,0-.8-.32-.85-.75-1.07-8.38-2.76-16.76-5.04-24.9-.13-.46.14-.93.6-1.06.46-.13.93.14,1.06.6,2.3,8.22,4.01,16.68,5.09,25.15.06.47-.27.9-.75.96-.04,0-.07,0-.11,0Z"/>
        <path class="cls-16" d="m387.46,163.53c-.41,0-.77-.29-.85-.71-.79-4.4-1.93-8.76-3.4-12.98-.16-.45.08-.94.53-1.1.45-.16.94.08,1.1.53,1.5,4.3,2.66,8.76,3.46,13.25.08.47-.23.92-.7,1-.05,0-.1.01-.15.01Z"/>
        <path class="cls-16" d="m392.06,186.38c-.44,0-.81-.33-.86-.78-.53-5.35-1.48-10.7-2.82-15.9-.12-.46.16-.93.62-1.05.46-.12.93.16,1.05.62,1.36,5.29,2.32,10.73,2.86,16.16.05.47-.3.9-.77.94-.03,0-.06,0-.09,0Z"/>
        <path class="cls-10" d="m364.52,198.28c-.1,0-.21-.02-.31-.06-6.1-2.39-12.44-4.26-18.86-5.55-.47-.09-.77-.55-.67-1.01.09-.47.55-.77,1.01-.67,6.52,1.31,12.96,3.21,19.15,5.63.44.17.66.67.49,1.12-.13.34-.46.55-.8.55Z"/>
        <path class="cls-10" d="m369.78,206.2c-.1,0-.2-.02-.3-.06-5.18-1.94-10.54-3.57-15.92-4.84-.46-.11-.75-.57-.64-1.04.11-.46.57-.75,1.04-.64,5.46,1.29,10.88,2.94,16.13,4.9.45.17.67.66.5,1.11-.13.35-.46.56-.81.56Z"/>
        <path class="cls-10" d="m347.3,199.91c-.09,0-.18-.01-.27-.04-5.17-1.7-10.51-2.97-15.9-3.76-.47-.07-.8-.51-.73-.98s.51-.8.98-.73c5.48.8,10.93,2.09,16.19,3.83.45.15.7.64.55,1.09-.12.36-.46.59-.82.59Z"/>
        <path class="cls-10" d="m384.13,226.8c-.1,0-.2-.02-.29-.05l-18.13-6.56c-.45-.16-.68-.66-.52-1.1.16-.45.66-.68,1.1-.52l18.13,6.56c.45.16.68.66.52,1.1-.13.35-.46.57-.81.57Z"/>
        <path class="cls-10" d="m360.6,219.14c-.09,0-.18-.01-.27-.04-4.97-1.61-10.08-2.99-15.19-4.1-.46-.1-.76-.56-.66-1.03.1-.47.56-.76,1.03-.66,5.16,1.12,10.33,2.52,15.35,4.15.45.15.7.63.55,1.09-.12.36-.46.6-.82.6Z"/>
        <path class="cls-10" d="m372.52,216.81c-.1,0-.2-.02-.3-.05-6.14-2.28-12.52-4.09-18.94-5.38-.47-.09-.77-.55-.67-1.01.09-.47.55-.77,1.01-.67,6.51,1.31,12.97,3.15,19.2,5.46.45.17.67.66.51,1.11-.13.35-.46.56-.81.56Z"/>
        <path class="cls-10" d="m441.11,263.4c-.19,0-.38-.06-.54-.19-5.15-4.12-10.67-7.83-16.42-11.05-.42-.23-.56-.76-.33-1.17.23-.42.76-.56,1.17-.33,5.84,3.26,11.44,7.03,16.66,11.21.37.3.43.84.13,1.21-.17.21-.42.32-.67.32Z"/>
        <path class="cls-10" d="m443.32,255.97c-.17,0-.35-.05-.5-.16-3-2.14-6.14-4.14-9.36-5.93-.42-.23-.56-.76-.33-1.17.23-.42.76-.56,1.17-.33,3.27,1.83,6.47,3.86,9.52,6.04.39.28.48.82.2,1.2-.17.24-.43.36-.7.36Z"/>
        <path class="cls-10" d="m429.68,247.7c-.16,0-.32-.04-.46-.13-2.47-1.57-5.02-3.07-7.59-4.47-.42-.23-.57-.75-.34-1.17.23-.42.75-.57,1.17-.34,2.6,1.42,5.19,2.94,7.69,4.53.4.26.52.79.27,1.19-.16.26-.44.4-.73.4Z"/>
        <path class="cls-10" d="m439.67,240.73c-.19,0-.38-.06-.53-.19-2.49-1.97-5.13-3.79-7.84-5.43-.41-.25-.54-.78-.29-1.18.25-.41.78-.54,1.18-.29,2.78,1.68,5.47,3.55,8.02,5.56.37.29.44.84.14,1.21-.17.22-.42.33-.68.33Z"/>
        <path class="cls-10" d="m410.02,221.04c-.14,0-.29-.04-.42-.11-3.94-2.21-8.08-4.14-12.31-5.72-.45-.17-.67-.66-.51-1.11.17-.45.66-.67,1.11-.51,4.32,1.61,8.54,3.57,12.55,5.83.41.23.56.76.33,1.17-.16.28-.45.44-.75.44Z"/>
        <path class="cls-10" d="m403.3,224.26c-.13,0-.26-.03-.38-.09-4.15-2.03-8.46-3.85-12.81-5.4-.45-.16-.68-.65-.52-1.1.16-.45.65-.68,1.1-.52,4.41,1.58,8.78,3.42,12.98,5.48.43.21.6.73.4,1.15-.15.31-.46.48-.77.48Z"/>
      </g>
      <path class="cls-3" d="m302.96,319.57c-.39-.37-.77-.75-1.15-1.14-1.02-1.08-1.97-2.22-2.88-3.39-1.98-2.67-5-7.55-7.29-11.02-2.07-3.16-3.86-6.49-5.8-9.72-3.03-4.99-6.07-9.99-8.72-15.2-3.22-6.16-6.47-13.34-8.86-19.06-1.82-4.43-2.94-6.76-4.54-11.07-.47-1.23-.96-2.45-1.39-3.69-.12-.34-.23-.69-.34-1.03-.07-.2-.09-.43-.24-.59-.52-.72-1.77-.18-1.51.75.61,2.05,1.45,4.02,2.19,6.02,1.37,3.66,2.62,6.32,3.92,9.51,3.1,7.48,6.49,14.84,10.28,22,2.48,4.7,5.27,9.23,8.02,13.77,1.36,2.28,2.65,4.6,4.03,6.87,1.14,1.88,2.37,3.7,3.56,5.55,1.83,2.74,3.5,5.6,5.52,8.21,1.08,1.37,2.21,2.73,3.46,3.95.61.54,1.29,1.63,2.13.87.53-.62.14-1.16-.39-1.58Z"/>
      <path class="cls-3" d="m256.71,140.21c-.27-.48-.97-.57-1.35-.17-.29.3-.3.76-.45,1.13-.18.6-.36,1.21-.52,1.81-1.54,5.08-2.27,10.35-2.81,15.62-.39,4.45-1.03,8.88-1.2,13.36-.19,3.03-.41,6.06-.19,9.09.02.38-.03.81.27,1.09.51.54,1.5.14,1.47-.61-.21-3.1-.06-6.2.16-9.3.13-2.95.37-5.89.74-8.82.54-5.44.9-9.81,1.94-14.97.4-1.87.94-3.7,1.44-5.54.17-.61.35-1.22.54-1.82.11-.28.14-.61-.02-.87Z"/>
    </g>
  </g>
</svg>