<?xml version="1.0" encoding="UTF-8"?>
<svg id="Calque_2" data-name="Calque 2" xmlns="http://www.w3.org/2000/svg" viewBox="0 0 297.52 149.39">
  <defs>
    <style>
      .cls-1 {
        fill: #df4c33;
      }

      .cls-2 {
        fill: #ffa187;
      }

      .cls-3 {
        fill: #ea7f61;
      }

      .cls-4 {
        fill: #f7aa4e;
      }

      .cls-5 {
        fill: none;
        opacity: .44;
      }

      .cls-6 {
        fill: #ffc6b9;
      }

      .cls-7 {
        fill: #ea953f;
      }

      .cls-8 {
        fill: #ffc782;
      }

      .cls-9 {
        fill: #fd7a56;
      }
    </style>
  </defs>
  <g id="Layer_1" data-name="Layer 1">
    <g id="hotdog">
      <path class="cls-7" d="m49.46,90.99S4.92,79.62.38,52.25c-2.37-14.3,6.97-26.73,10.02-30.46C39-13.18,107.9,3.67,214.66,29.79c25.16,6.15,48.96,13.04,55.2,31.27,7,20.45-11.53,44.43-13.28,44.71-18.38,2.93-190-8.42-207.11-14.78Z"/>
      <path class="cls-4" d="m29.15,77.69s-25.08-7.8-15.63-33.71c9.45-25.92,11.31-19.63,28.19-24.54,16.88-4.91,3.79-4.33,23.84-3.96,20.06.37,9.6-1.88,28.67-1.17,19.07.71,31.34,1.79,40.3,3.73,8.96,1.93,14.26,1.24,24.24,6.15,9.98,4.91,25.74,8.13,41.34,10.85,15.6,2.72,30.55,7.6,37.86,11.2,7.32,3.6,12.28,2.74,17.62,8.67,5.34,5.93,5.74,9.64,5.69,18.81-.05,9.17-10.26,31.23-11.86,34.66-1.6,3.43-220.27-30.67-220.27-30.67Z"/>
      <g>
        <path class="cls-2" d="m278.65,85.24c-6.3,8.48-20.21,7.86-34.27,6.68-30.19-2.53-45.28-3.8-61.88-8.56-66.47-19.1-135.14-17.75-147.48-35.97-.04-.06-.09-.13-.13-.19-.05-.07-.09-.14-.13-.21-4.69-7.53-3.74-14.23-3.74-14.23,0,0,.01-.09.05-.27.06-.31.19-.9.43-1.67.76-2.41,2.61-6.69,6.9-10.54,13.51-12.13,50.88-2.22,58.01-.36,53.35,13.87,118.48,19.87,166.89,36.5,4.72,1.62,15.15,5.36,17.91,13.98,1.58,4.93.44,10.82-2.56,14.85Z"/>
        <g class="cls-5">
          <path class="cls-6" d="m232.39,60.06c-7.08-3.92-13.32-5.25-14.77-5.57-23.21-5.01-46.09-11.92-69.44-16.09-48.94-8.74-74.1-13.93-74.93-10.67-.06.24.03.47.08.58,4.06,9.84,165.56,44.41,166.7,37.14.17-1.09-3.26-2.98-7.64-5.4Z"/>
        </g>
        <path class="cls-3" d="m57.68,36.46c-.37-.25-.72-.52-1.1-.74l-.55-.35c-.19-.11-.38-.21-.57-.32-.37-.22-.76-.4-1.14-.59-.39-.17-.78-.34-1.18-.48-.78-.31-1.6-.53-2.41-.71-.81-.2-1.64-.31-2.47-.38-.83-.06-1.66-.11-2.49-.08-.83.02-1.66.11-2.49.2-.83.1-1.65.24-2.47.43-.41.09-.81.2-1.21.31-.2.05-.4.11-.59.17-.19.06-.4.13-.55.18l.34-2.27c1.28,1.05,2.5,2.1,3.66,3.25.58.57,1.15,1.15,1.71,1.74.55.6,1.08,1.22,1.6,1.85.52.63,1.02,1.28,1.48,1.97.46.69.91,1.38,1.27,2.14.36.75.7,1.53.87,2.37.08.42.14.85.11,1.28-.03.43-.14.85-.33,1.22l-.14-.05c.26-.74.15-1.56-.1-2.3-.25-.75-.62-1.46-1.04-2.13-.85-1.35-1.87-2.57-2.95-3.75-1.08-1.17-2.22-2.28-3.4-3.36-1.18-1.07-2.39-2.11-3.64-3.1l-.2-.16.24-.09c1.68-.61,3.43-.95,5.19-1.14,1.76-.18,3.55-.18,5.31.09,1.75.25,3.48.76,5.07,1.55,1.6.77,3.03,1.86,4.29,3.1l-.11.1Z"/>
        <path class="cls-3" d="m34.17,47.69c1.24-.7,2.09-1.81,2.64-3.03.57-1.22.89-2.55,1.12-3.9.2-1.35.34-2.72.37-4.1.05-1.37.04-2.78-.06-4.12v-.05s0-.03,0-.03c0-.13,0-.17.02-.25l.03-.19c.02-.12.04-.24.07-.35.05-.23.12-.45.2-.66.16-.42.36-.82.59-1.19.46-.74,1.02-1.39,1.65-1.93.63-.55,1.31-1,2.01-1.4.7-.4,1.43-.73,2.17-1,1.48-.57,3-.91,4.53-1.15,1.53-.22,3.06-.34,4.59-.32v.11c-1.49.19-2.99.43-4.46.78-1.47.35-2.93.78-4.31,1.38-1.38.6-2.71,1.35-3.82,2.37-.55.51-1.04,1.08-1.43,1.72-.38.63-.67,1.36-.72,2.07h0c.09,1.42.08,2.84,0,4.26-.09,1.42-.26,2.84-.56,4.23-.31,1.39-.75,2.76-1.46,4-.36.62-.79,1.2-1.31,1.69-.52.49-1.13.89-1.8,1.15l-.04-.1Z"/>
        <path class="cls-3" d="m39.26,32.53s-.03.05-.05.07c-.03.05-.07.09-.1.13-.24.28-.51.53-.82.75-.65.47-1.44.77-2.29.89-1.34.19-2.79-.21-3.91-.98-.37-.26-.71-.56-1.02-.89.06-.31.19-.9.43-1.67.41.51.89.97,1.43,1.34.9.62,1.97,1.01,3.07,1.01.55,0,1.1-.06,1.63-.2.21-.05.41-.11.61-.18.32-.11.64-.25.95-.4l.07.13Z"/>
        <path class="cls-6" d="m41.93,38.13s5.53,6.88,3.84,9.09c-1.69,2.22-5.94-8.46-3.84-9.09Z"/>
        <path class="cls-6" d="m49.77,34.16s8.59,2.03,8.62,4.81c.03,2.78-9.88-3.03-8.62-4.81Z"/>
      </g>
      <path class="cls-8" d="m282.15,140.25c-9.79,8.91-22.72,12.05-90.3,4.71-65.1-7.07-88.09-13.78-98.23-16.95-25.39-7.94-49.08-15.59-60.68-28.16-3.57-3.86-5.99-8.18-6.97-13.12-2.98-14.92,8.54-28.73,10.02-30.46,17.57-20.49,44.97-14.48,202.63,12.98,24.68,4.3,49.56,8.61,56.82,26.29,1.22,2.97,1.88,6.16,2.05,9.45.65,12.59-5.83,26.62-15.33,35.26Z"/>
      <path class="cls-4" d="m282.15,140.25c-3.66,3.33-7.77,5.86-15.01,7.33-12.11,2.46-33,1.97-75.29-2.62-65.1-7.07-88.09-13.78-98.23-16.95-15.07-4.72-29.55-9.33-41.25-14.93-8.01-3.83-14.72-8.13-19.43-13.23,2.06-13.65,7.84-36.62,23.62-40.06,22.68-4.95,31.68,2.78,52.9,4.14,21.22,1.36,45,12.65,60.75,13.38s29.49-2.01,42.78,2.05c13.29,4.06,27.22,5.96,41.18,11.18,13.95,5.21,40.23,4.04,43.32,14.46.65,12.59-5.83,26.62-15.33,35.26Z"/>
      <path class="cls-7" d="m264.43,142.68c-6.89,5.83-15.2,6.68-21.71,6.7-10.71.04-26.29-1.77-50.88-4.43,0,0-61.13-6.6-93.64-15.57-.2-.06-2.06-.57-4.59-1.39-14.62-4.72-24.65-7.95-29.6-16.22-.51-.85-5.92-10.18-1.47-17.56,2.13-3.53,5.88-4.74,11.27-6.53,3.26-1.09,9.89-3.3,17.89-1.94,8.85,1.51,9.13,5.64,18.62,8.34,7.48,2.13,10.15-.37,19.44.99,9.1,1.34,16.58,3.81,25.2,6.52,13.95,4.39,28.04,5.13,47.63,8.98,11.17,2.2,27.29,3.07,50.43,7.47,9.28,1.77,17.37,3.54,19.12,9,1.77,5.53-3.76,12.3-7.69,15.63Z"/>
      <path class="cls-8" d="m86.91,109.31c1.51,2.25,1.76,4.72.57,5.52-1.19.8-3.38-.38-4.88-2.63-1.51-2.25-1.76-4.72-.57-5.52,1.19-.8,3.38.38,4.88,2.63Z"/>
      <path class="cls-8" d="m102.26,105.41c-.9,1.84-2.38,2.96-3.3,2.51-.92-.45-.93-2.31-.03-4.14s2.38-2.96,3.3-2.51c.92.45.93,2.31.03,4.14Z"/>
      <path class="cls-8" d="m195.43,121.74c.47,2.51.04,4.71-.97,4.89s-2.2-1.7-2.67-4.21c-.47-2.51-.04-4.71.97-4.89s2.2,1.7,2.67,4.21Z"/>
      <path class="cls-8" d="m225.08,136.24c.18,2.7-.83,4.97-2.26,5.06-1.43.09-2.73-2.02-2.91-4.72s.83-4.97,2.26-5.06,2.73,2.02,2.91,4.72Z"/>
      <path class="cls-8" d="m246.82,130.62c-1.2,2.43-3.21,3.88-4.49,3.25-1.29-.63-1.36-3.11-.16-5.54,1.2-2.43,3.21-3.88,4.49-3.25,1.29.63,1.36,3.11.16,5.54Z"/>
      <path class="cls-8" d="m114.69,125.48c-1.2,2.43-3.21,3.88-4.49,3.25s-1.36-3.11-.16-5.54c1.2-2.43,3.21-3.88,4.49-3.25s1.36,3.11.16,5.54Z"/>
      <path class="cls-8" d="m168.57,116.84c-1.4,1.06-2.93,1.4-3.42.75-.49-.64.25-2.02,1.65-3.08,1.4-1.06,2.93-1.4,3.42-.75.49.64-.25,2.02-1.65,3.08Z"/>
      <path class="cls-8" d="m126.65,105.55c.3,1.81-.3,3.42-1.35,3.59s-2.14-1.15-2.44-2.96c-.3-1.81.3-3.42,1.35-3.59s2.14,1.15,2.44,2.96Z"/>
      <path class="cls-8" d="m140.04,114.25c-.6,1.21-1.6,1.94-2.25,1.63-.64-.32-.68-1.56-.08-2.77.6-1.21,1.6-1.94,2.25-1.63.64.32.68,1.56.08,2.77Z"/>
      <path class="cls-8" d="m131.51,128.23c-.6,1.21-1.6,1.94-2.25,1.63-.64-.32-.68-1.56-.08-2.77.6-1.21,1.6-1.94,2.25-1.63.64.32.68,1.56.08,2.77Z"/>
      <path class="cls-8" d="m214.33,120.25c-.6,1.21-1.6,1.94-2.25,1.63-.64-.32-.68-1.56-.08-2.77.6-1.21,1.6-1.94,2.25-1.63.64.32.68,1.56.08,2.77Z"/>
      <path class="cls-8" d="m179.41,132.91c.09,1.35-.42,2.48-1.13,2.53-.71.05-1.37-1.01-1.46-2.36-.09-1.35.42-2.48,1.13-2.53.71-.05,1.37,1.01,1.46,2.36Z"/>
      <path class="cls-8" d="m209.06,133.73c.25,1.33-.12,2.52-.82,2.65-.7.13-1.48-.84-1.73-2.17-.25-1.33.12-2.52.82-2.65s1.48.84,1.73,2.17Z"/>
      <path class="cls-8" d="m230.87,125.2c-.34,1.31-1.17,2.23-1.87,2.05-.69-.18-.98-1.39-.65-2.7.34-1.31,1.17-2.23,1.87-2.05.69.18.98,1.39.65,2.7Z"/>
      <path class="cls-8" d="m252.57,139.07c-.6,1.21-1.6,1.94-2.25,1.63s-.68-1.56-.08-2.77c.6-1.21,1.6-1.94,2.25-1.63s.68,1.56.08,2.77Z"/>
      <path class="cls-8" d="m153.72,129.25c-.6,1.21-1.6,1.94-2.25,1.63-.64-.32-.68-1.56-.08-2.77.6-1.21,1.6-1.94,2.25-1.63.64.32.68,1.56.08,2.77Z"/>
      <path class="cls-1" d="m60.82,48.8c-.91-5.75-1.61-11.47-2.1-17.26-.24-2.89-.42-5.8-.49-8.72-.07-2.92-.05-5.86.17-8.85.12-1.49.29-3,.57-4.53.28-1.53.67-3.09,1.37-4.7.37-.81.83-1.64,1.51-2.45.18-.2.34-.4.57-.6.21-.19.41-.39.67-.56.25-.17.49-.35.79-.48.28-.14.57-.28.88-.37.15-.05.31-.1.46-.14.15-.04.31-.06.47-.08l.47-.06c.15-.01.3,0,.45-.01h.45c.15.01.28.04.43.05.28.04.57.07.82.15,1.06.25,1.9.67,2.68,1.11,1.54.9,2.82,2.02,3.92,3.18,1.11,1.17,2.06,2.39,2.95,3.64,1.77,2.5,3.23,5.09,4.6,7.7,2.71,5.23,4.99,10.57,7.19,15.9,2.19,5.33,4.27,10.68,6.48,15.9,1.11,2.6,2.24,5.18,3.48,7.64.62,1.23,1.26,2.43,1.94,3.55.68,1.11,1.42,2.16,2.14,2.94.35.36.71.65.93.77.04.01.1.06.12.06.01-.01.04.02.03,0-.02-.02-.02,0-.06-.01-.02,0-.03,0-.05,0,0,0-.02,0-.02.01,0,0-.02,0-.02,0-.03-.01-.07.03-.07.01,0-.01-.02.03,0,0,.01-.01.02-.02.03-.02.01,0,.03,0,.05-.04.04-.05.09-.08.15-.12.23-.24.56-.63.78-1.03.5-.8.86-1.87,1.12-3.03.26-1.16.4-2.43.48-3.73.15-2.61,0-5.36-.25-8.11-.26-2.76-.62-5.56-1.03-8.37-.8-5.63-1.8-11.29-2.36-17.21-.14-1.48-.24-2.99-.28-4.53-.03-1.54,0-3.12.19-4.78.06-.42.1-.83.19-1.27l.12-.65.17-.66c.1-.44.28-.91.43-1.36.09-.23.2-.47.3-.7.05-.12.1-.23.16-.35l.19-.36c.14-.24.25-.47.42-.71.16-.24.33-.47.5-.7.39-.46.8-.91,1.3-1.29.97-.78,2.18-1.36,3.32-1.58,1.14-.25,2.23-.28,3.19-.18.24.02.49.04.73.07l.68.12c.47.07.88.19,1.31.3,1.69.46,3.18,1.09,4.61,1.76.7.35,1.41.69,2.07,1.07.34.19.66.35,1.03.57.37.23.76.44,1.11.7,1.46.99,2.79,2.2,3.91,3.56,2.24,2.73,3.6,5.92,4.42,9,.83,3.11,1.19,6.18,1.39,9.18.38,6.01.08,11.81.13,17.4.03,2.79.13,5.53.51,8.06.38,2.52,1.09,4.85,2.23,6.28.57.72,1.2,1.23,2.03,1.62.82.4,1.8.66,2.86.73,1.05.08,2.16,0,3.25-.21,1.09-.22,2.14-.6,3.07-1.08.24-.11.44-.26.66-.38.2-.14.41-.27.59-.43.39-.3.75-.64,1.08-1.02.34-.38.65-.79.93-1.25.29-.45.55-.94.79-1.46.96-2.09,1.52-4.61,1.87-7.24.35-2.64.49-5.4.58-8.21.1-2.82.12-5.7.3-8.69.09-1.5.21-3.02.46-4.61.25-1.59.58-3.25,1.33-5.04.38-.89.87-1.82,1.6-2.73.72-.9,1.69-1.77,2.84-2.34.57-.3,1.16-.49,1.76-.66.3-.09.6-.12.9-.18.3-.05.6-.1.88-.1.29-.01.58-.02.86-.02.28.01.54.04.82.07l.41.04.38.07.76.15c1.92.5,3.53,1.28,4.96,2.16.72.44,1.4.9,2.05,1.38.33.24.63.47.94.71l.98.83c2.63,2.22,4.62,5.19,5.96,8.23,1.29,3.06,2.02,6.2,2.46,9.2.45,3.02.68,5.95.92,8.79.24,2.84.48,5.61.94,8.23.46,2.62,1.09,5.14,2.11,7.37l.38.84.43.8.21.4c.08.13.16.25.24.38l.48.76c.17.25.36.48.53.72.19.23.34.49.55.7.41.44.77.91,1.23,1.31,1.78,1.73,3.97,3.41,5.79,4.11.45.18.86.28,1.17.31.31.03.5,0,.62-.03.12-.05.22-.08.39-.25.17-.17.38-.47.58-.87.41-.8.74-1.97.98-3.18.23-1.23.4-2.54.51-3.89.23-2.7.29-5.51.35-8.36.05-2.85.1-5.75.26-8.72.18-2.97.41-5.98,1.25-9.2.44-1.6,1.01-3.3,2.21-5.01.6-.85,1.39-1.69,2.4-2.36,1-.67,2.19-1.1,3.35-1.27,1.16-.17,2.27-.09,3.26.11,1,.2,1.89.51,2.71.87.82.36,1.58.78,2.27,1.18.31.17.7.44,1.07.69.37.25.75.49,1.08.8,1.42,1.11,2.61,2.52,3.54,3.99.93,1.48,1.64,3.05,2.13,4.6,1.01,3.11,1.43,6.15,1.76,9.08.32,2.93.52,5.77.87,8.5.34,2.73.84,5.35,1.71,7.7.43,1.18.99,2.25,1.62,3.25l.5.73c.18.23.37.45.56.67.18.23.39.43.6.63.21.2.4.43.63.6,1.73,1.51,4.13,2.71,6.35,3.2,1.12.25,2.19.26,3.06.08.2-.08.43-.1.6-.2l.28-.12c.09-.05.18-.09.27-.15.35-.22.68-.51,1-.89.64-.74,1.18-1.79,1.61-2.94.43-1.16.75-2.43,1-3.74.5-2.63.74-5.4.89-8.21.15-2.81.21-5.65.34-8.57.07-1.47.14-2.93.39-4.54.06-.4.14-.82.26-1.27.13-.46.26-.93.61-1.55l.15-.24c.05-.08.11-.16.19-.26.07-.09.15-.18.23-.26.1-.1.21-.19.32-.28.1-.09.24-.17.39-.26.15-.08.29-.16.46-.21.33-.11.68-.18,1.01-.17.67.01,1.18.23,1.55.43.37.21.63.44.86.65.86.82.89,2.18.07,3.04-.79.83-2.1.89-2.96.14l-.07-.06s-.06-.04,0,0c.06.03.21.12.53.13.15,0,.32-.01.48-.08.08-.03.15-.05.21-.09.07-.04.13-.08.16-.11.04-.03.08-.07.12-.1.02-.02.04-.04.06-.06.02-.03.03-.04.03-.04,0,0,0,0,.01-.02,0,0-.08.22-.13.46-.05.24-.1.53-.14.84-.15,1.23-.18,2.64-.2,4.04-.03,2.81.02,5.71-.06,8.63-.08,2.92-.24,5.88-.72,8.91-.25,1.51-.59,3.04-1.1,4.59-.53,1.54-1.24,3.13-2.43,4.6-.59.73-1.32,1.43-2.17,1.99-.21.14-.44.27-.66.4-.23.12-.46.22-.69.33l-.35.16c-.12.05-.24.08-.36.12l-.72.23c-1.92.48-3.79.4-5.47.08-1.69-.33-3.26-.88-4.75-1.58-1.48-.71-2.9-1.56-4.22-2.66-1.29-1.1-2.5-2.35-3.43-3.75-.94-1.39-1.72-2.88-2.31-4.38-1.18-3.02-1.78-6.07-2.2-9.01-.43-2.95-.68-5.83-1.04-8.59-.35-2.76-.8-5.42-1.62-7.76-.39-1.18-.91-2.23-1.52-3.17-.61-.93-1.31-1.75-2.16-2.39-.19-.18-.43-.32-.66-.47-.23-.15-.42-.3-.74-.47-.55-.32-1.06-.58-1.55-.79-.99-.42-1.88-.56-2.39-.46-.26.05-.45.13-.64.26-.19.13-.4.34-.62.67-.45.64-.86,1.7-1.15,2.86-.58,2.35-.8,5.09-.92,7.84-.12,2.77-.12,5.6-.16,8.48-.04,2.88-.07,5.8-.3,8.82-.12,1.51-.28,3.05-.57,4.64-.15.8-.33,1.61-.57,2.44-.24.83-.55,1.69-.98,2.57-.44.88-1.01,1.8-1.84,2.67-.82.87-1.96,1.63-3.2,2.05-1.24.43-2.51.5-3.62.39-1.11-.12-2.11-.39-2.99-.73-1.78-.68-3.23-1.58-4.57-2.53-.67-.48-1.3-.97-1.91-1.48l-.45-.38c-.15-.13-.27-.23-.43-.38l-.91-.85c-.63-.55-1.16-1.2-1.72-1.81-.29-.3-.52-.65-.79-.98-.25-.33-.52-.66-.75-1l-.68-1.05c-.11-.18-.23-.35-.34-.53l-.3-.54-.59-1.09-.52-1.12c-1.37-2.99-2.13-6.09-2.66-9.11-.53-3.02-.79-5.98-1.04-8.85-.25-2.87-.48-5.66-.88-8.31-.39-2.66-1.02-5.15-1.96-7.37-.99-2.18-2.27-4.1-4.05-5.58-1.82-1.59-4.12-3.03-5.83-3.46l-.3-.06-.15-.03h-.13s-.26-.03-.26-.03c-.07,0-.14.01-.21,0-.08-.01-.13.01-.18.02-.05.02-.12,0-.16.02-.08.04-.18.05-.25.09-.14.07-.27.17-.45.39-.17.21-.37.55-.55.98-.37.86-.65,2.02-.83,3.27-.19,1.24-.31,2.58-.39,3.94-.17,2.73-.2,5.59-.31,8.5-.1,2.91-.25,5.89-.66,8.94-.42,3.04-1.06,6.2-2.49,9.34-.36.78-.77,1.56-1.26,2.32-.47.76-1.02,1.5-1.64,2.19-.61.7-1.3,1.35-2.05,1.93-.37.3-.76.56-1.15.82-.4.23-.8.49-1.2.69-1.62.84-3.3,1.42-5.02,1.77-1.72.34-3.5.47-5.31.32-1.8-.14-3.66-.58-5.41-1.44l-.65-.33c-.22-.12-.43-.25-.64-.38-.22-.13-.42-.27-.63-.42-.2-.15-.41-.29-.6-.45-.79-.63-1.48-1.36-2.09-2.13-.6-.77-1.09-1.58-1.52-2.4-.41-.82-.75-1.65-1.03-2.47-.55-1.64-.88-3.25-1.11-4.82-.45-3.14-.53-6.15-.54-9.09,0-5.87.3-11.55-.03-17-.16-2.71-.48-5.36-1.12-7.81-.63-2.44-1.62-4.64-3.02-6.36-.7-.86-1.51-1.6-2.42-2.23-.22-.17-.47-.3-.7-.45-.25-.15-.57-.32-.85-.48-.58-.34-1.16-.61-1.74-.91-1.16-.55-2.32-1.03-3.4-1.33-1.07-.3-2.08-.39-2.58-.26-.06.02-.12.03-.18.04-.04.03-.08.05-.13.06-.06,0-.07.05-.11.06-.02.01-.04.02-.06.02-.01.02-.03.03-.05.05-.08.04-.14.14-.23.21-.04.06-.08.12-.12.17-.05.05-.08.15-.13.22l-.07.11s-.04.09-.06.14l-.13.29c-.07.23-.16.43-.22.69l-.1.38-.08.41c-.06.27-.09.57-.14.86-.16,1.18-.2,2.48-.18,3.8.02,1.33.1,2.69.22,4.06.47,5.51,1.41,11.16,2.17,16.89.39,2.87.74,5.77.99,8.72.23,2.95.39,5.95.19,9.07-.1,1.56-.29,3.15-.66,4.78-.39,1.63-.93,3.32-1.96,4.96-.26.41-.53.81-.84,1.19-.28.38-.67.77-1.04,1.14-.22.19-.45.38-.68.56-.11.09-.24.18-.39.27l-.42.26c-.26.17-.63.31-.97.44-.33.14-.73.21-1.11.28l-.29.05h-.29c-.2.02-.39.02-.59.01-.39,0-.75-.09-1.12-.16-.36-.08-.66-.21-.98-.33-.31-.13-.56-.27-.84-.42-1.02-.61-1.74-1.29-2.37-1.95-1.21-1.34-2.09-2.68-2.89-4.02-.79-1.34-1.49-2.68-2.14-4.02-1.31-2.68-2.45-5.37-3.55-8.05-2.19-5.37-4.21-10.74-6.31-16.04-2.1-5.3-4.24-10.56-6.72-15.55-1.25-2.49-2.58-4.92-4.09-7.13-1.5-2.2-3.22-4.24-5.08-5.36-.46-.27-.92-.5-1.26-.57-.35-.09-.55-.08-.69-.04-.14.04-.33.14-.58.42-.25.28-.51.7-.75,1.19-.46,1.01-.82,2.24-1.07,3.53-.26,1.29-.44,2.63-.57,3.99-.26,2.73-.32,5.53-.3,8.34.03,2.81.14,5.64.31,8.46.35,5.65.91,11.34,1.67,16.93v.03c.16,1.18-.66,2.26-1.84,2.42-1.16.16-2.23-.64-2.41-1.8Z"/>
      <path class="cls-9" d="m130.95,17.88c.58,4.77.91,9.53,1.15,14.3.15,2.38.2,4.76.29,7.14l.15,7.14c.01,2.38.07,4.75.24,7.06.16,2.3.54,4.54,1.5,6.45.97,1.89,2.68,3.38,4.77,4.22,2.1.85,4.47,1.1,6.86,1.09l.02.15c-2.37.29-4.82.24-7.12-.49-1.14-.38-2.23-.93-3.18-1.67-.95-.74-1.76-1.67-2.36-2.71-1.21-2.11-1.63-4.53-1.88-6.9-.22-2.38-.28-4.77-.33-7.16l-.27-28.62h.15Z"/>
      <path class="cls-9" d="m182.56,40.18c.46,3.82.99,7.59,1.66,11.31.36,1.86.71,3.71,1.18,5.52.44,1.82.92,3.63,1.55,5.38,1.17,3.52,2.74,6.89,4.97,9.76,2.21,2.9,5.33,5,9.02,6.11l-.02.15c-1.9-.3-3.75-.91-5.43-1.85-.41-.25-.84-.47-1.23-.76l-1.16-.86-1.07-.97c-.35-.33-.66-.7-.99-1.05-1.27-1.45-2.34-3.06-3.25-4.75-.9-1.7-1.63-3.48-2.25-5.3-1.22-3.64-1.98-7.42-2.48-11.22-.48-3.8-.72-7.64-.65-11.47h.15Z"/>
      <path class="cls-9" d="m228.12,46.37c.43,3.31.85,6.57,1.36,9.8.29,1.61.54,3.21.89,4.8.32,1.59.69,3.16,1.15,4.69.42,1.55.93,3.06,1.54,4.52.59,1.47,1.32,2.86,2.14,4.19.86,1.3,1.86,2.51,3.06,3.52,1.19,1.03,2.59,1.83,4.15,2.45l-.03.15c-1.63-.34-3.19-1-4.56-1.95-1.37-.94-2.56-2.14-3.55-3.48-1.96-2.7-3.26-5.81-4.17-9-.91-3.19-1.43-6.48-1.78-9.77-.32-3.3-.46-6.61-.35-9.92h.15Z"/>
      <path class="cls-9" d="m84.35,26.52c1.62,3.37,3.07,6.77,4.48,10.19l4.19,10.23c.67,1.71,1.39,3.4,2.11,5.09.69,1.7,1.46,3.36,2.2,5.03.77,1.65,1.56,3.3,2.48,4.85.45.78.95,1.53,1.51,2.22.28.34.59.66.93.93.34.28.73.5,1.17.58v.15c-.49-.01-.95-.19-1.35-.43-.4-.25-.77-.54-1.11-.86-.67-.65-1.25-1.38-1.8-2.13-1.08-1.51-2.01-3.12-2.87-4.76-1.73-3.28-3.23-6.67-4.65-10.09-1.39-3.43-2.69-6.9-3.92-10.39-1.23-3.49-2.41-7-3.52-10.53l.14-.04Z"/>
    </g>
  </g>
</svg>