<?xml version="1.0" encoding="UTF-8"?>
<svg id="Calque_2" data-name="Calque 2" xmlns="http://www.w3.org/2000/svg" viewBox="0 0 333.73 225.2">
  <defs>
    <style>
      .cls-1 {
        fill: #479e7b;
      }

      .cls-2 {
        fill: #64b595;
      }

      .cls-3 {
        fill: #c67328;
      }

      .cls-4 {
        fill: #fbd155;
      }

      .cls-5 {
        fill: #ff7954;
      }

      .cls-6 {
        fill: #a8d4e5;
      }

      .cls-7 {
        fill: #77d0ac;
      }

      .cls-8 {
        fill: #f05142;
      }

      .cls-9 {
        fill: #f8da9c;
      }

      .cls-10 {
        opacity: .67;
      }

      .cls-10, .cls-11 {
        fill: none;
      }

      .cls-12 {
        fill: #feb124;
      }

      .cls-13 {
        fill: #fd9a8c;
      }

      .cls-14 {
        fill: #d8f2ff;
      }

      .cls-15 {
        fill: #76caa8;
      }

      .cls-16 {
        fill: #e58935;
      }

      .cls-17 {
        fill: #75c6a3;
      }

      .cls-18 {
        fill: #f0ba74;
      }

      .cls-11 {
        opacity: .36;
      }

      .cls-19 {
        fill: #ffe9ba;
      }
    </style>
  </defs>
  <g id="Layer_1" data-name="Layer 1">
    <g id="lasagna">
      <path class="cls-6" d="m322.29,173.49c-6.71,16.22-19.5,28.83-36.5,37.54-39.24,20.11-100.89,19.41-161.83-5.82C57.65,177.76,11.26,129.19,2.5,83.9c0-.02-.01-.03-.01-.06-2.17-11.23-2.02-22.25.71-32.71l.02-.06C20.85,8.47,106.07,3.28,193.55,39.49c80.98,33.52,135.52,90.76,129.18,132.88-.14.38-.3.75-.45,1.11Z"/>
      <path class="cls-14" d="m320.02,182.21c-5.49,13.27-17.56,22.92-34.23,28.81-20.39,7.21-47.67,8.78-78.19,4.5-24.51-3.43-51.1-10.64-77.9-21.74-51.96-21.51-93.02-52.77-114.11-83.55-6.1-8.9-10.54-17.76-13.08-26.33,0-.02-.01-.04-.02-.06-3.44-11.64-3.39-22.76.71-32.71l.02-.05C20.85,8.47,106.07,3.28,193.55,39.49c80.98,33.52,135.52,90.77,129.18,132.88-.49,3.39-1.4,6.67-2.71,9.84Z"/>
      <ellipse class="cls-6" cx="154.9" cy="125.58" rx="34.42" ry="103.54" transform="translate(-20.38 220.67) rotate(-67.51)"/>
      <g class="cls-10">
        <path class="cls-6" d="m207.59,215.51c-24.51-3.43-51.1-10.64-77.9-21.74-51.96-21.51-93.02-52.77-114.11-83.55,13.24-16.48,49.49-26.65,49.49-26.65,24.48,5.89,59.43,14.39,101.42,24.91,114.77,28.74,137.35,36.29,138.74,48.6.98,8.67-7.75,27-97.63,58.43Z"/>
      </g>
      <path class="cls-14" d="m220.35,212.09c-26.85-4.4-56.1-12.71-85.73-24.98-54.59-22.6-98.76-53.77-123.73-84.31,1.44,2.47,2.99,4.94,4.69,7.42,21.09,30.78,62.15,62.04,114.11,83.55,26.8,11.1,53.39,18.3,77.9,21.74,21.81,3.06,41.95,3.12,59.12.28-14.22.24-29.83-.98-46.36-3.7Z"/>
      <g>
        <g>
          <path class="cls-4" d="m305.2,157.47c-1.94.33-4.05.61-6.29.79-5.72.46-7.95-.04-20.05-.38-16.01-.45-14.22.39-18.52-.32-12.86-2.1-15.19-7.32-22.74-5.55-6.21,1.46-7.09,5.58-12.31,5.15-5.41-.44-5.83-4.98-12.15-6.18-5.68-1.08-6.41,2.4-13.54,1.58-5.22-.6-7.08-2.72-10.81-1.53-2.75.88-3.2,2.51-5.68,4.05-2.42,1.5-6.44,2.72-13.38,1.01-.57-.14-1.1-.41-1.55-.79-2.61-2.2-5.84-4.37-9.8-6.01-6.41-2.65-9.06-1.55-16.97-4.39-5.97-2.14-4.92-2.94-11.41-5.38-9.35-3.52-11.38-1.83-16.17-5.12-5.57-3.83-3.82-6.82-8.79-9.56-6.57-3.62-11.22.7-16.86-3.31-4.02-2.86-2.33-5.54-6.25-8.07-5.4-3.5-9.79.83-17.2-2.41-3.66-1.6-2.53-2.62-8.01-6.16-2.28-1.47-7.93-5.1-15.66-6.48-6.38-1.13-9.46.11-11.99-2.49-.02-.02-.04-.04-.06-.06-2.27-2.4-.34-6.35,2.96-6.14,47.25,3.06,94.51,6.13,141.76,9.19,0,0,0,0,.02,0,.74.12,26.1,4.07,40.64,10.41.32.14.64.28.95.42,30.24,13.57,60.49,27.14,90.73,40.71,3.31,1.48,2.7,6.36-.88,6.98Z"/>
          <path class="cls-12" d="m307.28,152.12s-.03.01-.05.01c-1.98.43-4.12.81-6.4,1.09-5.81.71-8.05.24-20.3.3-16.22.08-14.43.93-18.76.31-12.96-1.84-15.14-7.47-22.85-5.26-6.35,1.82-7.39,6.35-12.66,6.07-5.47-.29-5.74-5.24-12.09-6.32-5.72-.97-6.58,2.85-13.78,2.21-5.27-.47-7.08-2.72-10.9-1.28-2.82,1.07-3.33,2.86-5.9,4.63-2.5,1.72-6.62,3.2-13.59,1.58-.57-.13-1.1-.41-1.54-.81-2.57-2.31-5.77-4.57-9.72-6.22-6.41-2.67-9.13-1.38-17.04-4.19-5.97-2.13-4.89-3.03-11.38-5.48-9.35-3.52-11.47-1.59-16.21-5.02-5.51-3.99-3.62-7.32-8.57-10.14-6.53-3.72-11.4,1.17-16.97-3.02-3.97-2.98-2.16-5.97-6.04-8.61-5.35-3.64-9.96,1.25-17.35-2.02-3.65-1.62-2.47-2.78-7.9-6.45-2.26-1.52-7.85-5.3-15.64-6.52-6.43-1.01-9.6.46-12.07-2.3-.02-.02-.04-.04-.05-.06-.06-.07-.1-.14-.16-.21.55-3.03.5-3.89.27-3.96-.74-.23-5.36,7.5-2.59,10.68.02.02.03.04.05.06,2.47,2.76,5.64,1.29,12.07,2.3,7.79,1.23,13.38,5,15.64,6.52,5.43,3.67,4.25,4.83,7.9,6.45,7.4,3.27,12-1.62,17.35,2.02,3.88,2.63,2.07,5.62,6.04,8.61,5.57,4.19,10.45-.7,16.97,3.02,4.94,2.82,3.06,6.14,8.57,10.14,4.74,3.43,6.86,1.5,16.21,5.02,6.49,2.44,5.4,3.35,11.38,5.48,7.91,2.82,10.64,1.52,17.04,4.19,3.95,1.65,7.15,3.91,9.72,6.22.44.4.97.68,1.54.81,6.97,1.62,11.09.14,13.59-1.58,2.57-1.77,3.09-3.57,5.9-4.63,3.82-1.44,5.64.81,10.9,1.28,7.2.65,8.06-3.18,13.78-2.21,6.35,1.08,6.62,6.03,12.09,6.32,5.28.28,6.32-4.25,12.66-6.07,7.71-2.21,9.89,3.42,22.85,5.26,4.33.62,2.54-.23,18.76-.31,12.25-.06,14.49.41,20.3-.3,2.28-.28,4.42-.66,6.4-1.09,2.99-.66,4.06-4.38,2.52-6.52Z"/>
        </g>
        <path class="cls-16" d="m55.61,80.68s-6.96-2.13-6.87,3.08c.09,5.21.54,5.38.54,5.38,0,0-5.79-5.6-5.52,1.38.27,6.98,9.55,8.44,9.55,8.44,0,0,.29,5.32,5.68,5.8,5.39.48,7.16-1.44,7.16-1.44,0,0-4.21,5.45,5.8,7.8,10.01,2.36,10.52,1,10.52,1,0,0-.26,6.12,6.66,5.64l6.91-.48s4.59,11.07,9.02,7.58c4.43-3.49,9.64-3.58,9.64-3.58,0,0-2.86,6.16,2.97,5.79,5.83-.37,8.78-1.32,8.78-1.32,0,0-2.84,12.9,1.6,9.41,4.43-3.49,7.66-3.81,7.66-3.81,0,0-1.24,11.43,4.65,9.54,5.9-1.9,5.68-4.05,9,.84,3.32,4.89,8.51,8.93,10.4,3.96,1.89-4.97,6.16-8.01,7.49-3.36,1.34,4.65,11.78,11.21,12.94,5.44s1.72-4.52,1.72-4.52c0,0,9.09,6.05,11.09,2.15,2-3.9,1.72-4.52,1.72-4.52,0,0,10.04,9,11.37,2.77,1.33-6.22,1.89-4.97,1.89-4.97,0,0,6.81,9.32,11.76,4.47l4.95-4.85s2.5,9.75,10.85,4.13c0,0,7.73,5.53,10.59-.63,0,0,8.64,5.88,11.15.62,0,0,10.42,10.7,11.31,4.3,0,0,13.39,5.62,10.03-1.88,0,0,12,8.93,7.23-2.84,0,0,16.7,9.35,11.31-.98-5.39-10.33-20.8-7.92-20.8-7.92,0,0-212-64.63-220.78-52.44Z"/>
        <g>
          <path class="cls-3" d="m207.02,140.09c-3.01,1.81-10.21-4.64-10.21-4.64,0,0,.28.62-1.72,4.52-2,3.9-11.09-2.15-11.09-2.15,0,0-.56-1.25-1.72,4.52-.07.35-.18.66-.31.92.56.37,9.12,5.9,11.06,2.13,2-3.9,1.72-4.52,1.72-4.52,0,0,10.04,9,11.37,2.77.36-1.67.66-2.79.91-3.56Z"/>
          <path class="cls-3" d="m49.05,82.04c1.11.57,2.12,1.5,2.27,1.65-.07-.09-.32-.6-.45-3.2-.78.25-1.45.72-1.82,1.55Z"/>
          <path class="cls-3" d="m181.11,144.2c-3.06,1.89-10.65-3.39-11.78-7.31-1.34-4.65-5.6-1.61-7.49,3.36s-7.08.93-10.4-3.96c-3.32-4.89-3.1-2.73-9-.84s-4.65-9.54-4.65-9.54c0,0-3.23.32-7.66,3.81-4.43,3.49-1.6-9.41-1.6-9.41,0,0-2.95.95-8.78,1.32-5.83.37-2.97-5.79-2.97-5.79,0,0-5.21.09-9.64,3.58-4.43,3.49-9.02-7.58-9.02-7.58l-6.91.48c-6.91.48-6.66-5.64-6.66-5.64,0,0-.52,1.36-10.52-1-10.01-2.36-5.8-7.8-5.8-7.8,0,0-1.76,1.92-7.16,1.44-5.39-.48-5.68-5.8-5.68-5.8,0,0-7.4-1.17-9.17-6.39-1.34-.41-2.57.07-2.44,3.38.27,6.98,9.55,8.44,9.55,8.44,0,0,.29,5.32,5.68,5.8,5.39.48,7.16-1.44,7.16-1.44,0,0-4.21,5.45,5.8,7.8,10.01,2.36,10.52,1,10.52,1,0,0-.26,6.12,6.66,5.64l6.91-.48s4.59,11.07,9.02,7.58c4.43-3.49,9.64-3.58,9.64-3.58,0,0-2.86,6.16,2.97,5.79,5.83-.37,8.78-1.32,8.78-1.32,0,0-2.84,12.9,1.6,9.41,4.43-3.49,7.66-3.81,7.66-3.81,0,0-1.24,11.43,4.65,9.54,5.9-1.9,5.68-4.05,9,.84,3.32,4.89,8.51,8.93,10.4,3.96,1.89-4.97,6.16-8.01,7.49-3.36,1.34,4.65,11.78,11.21,12.94,5.44.36-1.77.65-2.88.9-3.56Z"/>
          <path class="cls-3" d="m297.19,141.03c-.14-.27-.29-.52-.44-.77-3.66-.8-8.81-3.68-8.81-3.68,2.07,5.1.99,6.31-.9,6.05,3.69,1.9,14.66,7.05,10.15-1.6Z"/>
          <path class="cls-3" d="m280.72,139.42c3.36,7.49-10.03,1.88-10.03,1.88-.88,6.4-11.31-4.3-11.31-4.3-2.52,5.25-11.15-.62-11.15-.62-2.86,6.16-10.59.63-10.59.63-8.35,5.62-10.85-4.13-10.85-4.13l-4.95,4.85c-4.95,4.85-11.76-4.47-11.76-4.47,0,0-.56-1.25-1.89,4.97-.04.18-.09.34-.14.5.5.66,6.97,9.09,11.72,4.43l4.95-4.85s2.5,9.75,10.85,4.13c0,0,7.73,5.53,10.59-.63,0,0,8.64,5.88,11.15.62,0,0,10.42,10.7,11.31,4.3,0,0,13.39,5.62,10.03-1.88,0,0,11.74,8.73,7.37-2.47-2.39-.79-5.31-2.96-5.31-2.96Z"/>
        </g>
        <g>
          <path class="cls-5" d="m288.32,148.54c-1.21,1.41-3.34,1.57-4.75.35-1.41-1.21-1.57-3.34-.35-4.75,1.21-1.41,3.34-1.57,4.75-.35,1.41,1.21,1.57,3.34.35,4.75Z"/>
          <path class="cls-8" d="m287.74,145.89c-.24.28-.78.2-1.21-.17-.43-.37-.58-.89-.34-1.17.24-.28.78-.2,1.21.17s.58.89.34,1.17Z"/>
          <path class="cls-8" d="m284.38,148.32c-1.41-1.21-1.57-3.34-.35-4.75.07-.08.15-.16.23-.24-.38.19-.74.46-1.04.81-1.21,1.41-1.06,3.54.35,4.75,1.32,1.14,3.28,1.07,4.52-.11-1.18.59-2.65.46-3.71-.46Z"/>
          <path class="cls-13" d="m288.28,147.22c-.08-.16-.31-.09-.76-.25-.35-.12-.46-.26-.88-.36-.11-.02-.22-.03-.34.01-.1.04-.23.15-.24.28-.03.35.89.72,1.34.79.02,0,.03,0,.03,0,.21.03.59.08.77-.14.06-.07.13-.22.08-.34Z"/>
          <path class="cls-13" d="m285.87,146.58c-.13.15-.42.12-.65-.08-.23-.2-.3-.48-.17-.63.13-.15.42-.12.65.08.23.2.3.48.17.63Z"/>
        </g>
        <g>
          <path class="cls-5" d="m261.08,148.01c-1.21,1.41-3.34,1.57-4.75.35s-1.57-3.34-.35-4.75c1.21-1.41,3.34-1.57,4.75-.35,1.41,1.21,1.57,3.34.35,4.75Z"/>
          <path class="cls-8" d="m260.5,145.36c-.24.28-.78.2-1.21-.17s-.58-.89-.34-1.17c.24-.28.78-.2,1.21.17s.58.89.34,1.17Z"/>
          <path class="cls-8" d="m257.14,147.79c-1.41-1.21-1.57-3.34-.35-4.75.07-.08.15-.16.23-.24-.38.19-.74.46-1.04.81-1.21,1.41-1.06,3.54.35,4.75,1.32,1.14,3.28,1.07,4.52-.11-1.18.59-2.65.46-3.71-.46Z"/>
          <path class="cls-13" d="m261.04,146.69c-.08-.16-.31-.09-.76-.25-.35-.12-.46-.26-.88-.36-.11-.02-.22-.03-.34.01-.1.04-.23.15-.24.28-.03.35.89.72,1.34.79.02,0,.03,0,.03,0,.21.03.59.08.77-.14.06-.07.13-.22.08-.34Z"/>
          <path class="cls-13" d="m258.63,146.06c-.13.15-.42.12-.65-.08-.23-.2-.3-.48-.17-.63.13-.15.42-.12.65.08s.3.48.17.63Z"/>
        </g>
        <g>
          <path class="cls-5" d="m220.08,136.03c-1.21,1.41-3.34,1.57-4.75.35-1.41-1.21-1.57-3.34-.35-4.75,1.21-1.41,3.34-1.57,4.75-.35s1.57,3.34.35,4.75Z"/>
          <path class="cls-8" d="m219.5,133.38c-.24.28-.78.2-1.21-.17s-.58-.89-.34-1.17c.24-.28.78-.2,1.21.17.43.37.58.89.34,1.17Z"/>
          <path class="cls-8" d="m216.14,135.81c-1.41-1.21-1.57-3.34-.35-4.75.07-.08.15-.16.23-.24-.38.19-.74.46-1.04.81-1.21,1.41-1.06,3.54.35,4.75,1.32,1.14,3.28,1.07,4.52-.11-1.18.59-2.65.46-3.71-.46Z"/>
          <path class="cls-13" d="m220.04,134.71c-.08-.16-.31-.09-.76-.25-.35-.12-.46-.26-.88-.36-.11-.02-.22-.03-.34.01-.1.04-.23.15-.24.28-.03.35.89.72,1.34.79.02,0,.03,0,.03,0,.21.03.59.08.77-.14.06-.07.13-.22.08-.34Z"/>
          <path class="cls-13" d="m217.63,134.08c-.13.15-.42.11-.65-.08-.23-.2-.3-.48-.17-.63.13-.15.42-.12.65.08s.3.48.17.63Z"/>
        </g>
        <g>
          <path class="cls-5" d="m204.47,143.03c-1.21,1.41-3.34,1.57-4.75.35-1.41-1.21-1.57-3.34-.35-4.75,1.21-1.41,3.34-1.57,4.75-.35,1.41,1.21,1.57,3.34.35,4.75Z"/>
          <path class="cls-8" d="m203.89,140.39c-.24.28-.78.2-1.21-.17s-.58-.89-.34-1.17c.24-.28.78-.2,1.21.17s.58.89.34,1.17Z"/>
          <path class="cls-8" d="m200.53,142.81c-1.41-1.21-1.57-3.34-.35-4.75.07-.08.15-.16.23-.24-.38.19-.74.46-1.04.81-1.21,1.41-1.06,3.54.35,4.75,1.32,1.14,3.28,1.07,4.52-.11-1.18.59-2.65.46-3.71-.46Z"/>
          <path class="cls-13" d="m204.43,141.72c-.08-.16-.31-.09-.76-.25-.35-.12-.46-.26-.88-.36-.11-.02-.22-.03-.34.01-.1.04-.23.15-.24.28-.03.35.89.72,1.34.79.02,0,.03,0,.03,0,.21.03.59.08.77-.14.06-.07.13-.22.08-.34Z"/>
          <path class="cls-13" d="m202.02,141.08c-.13.15-.42.12-.65-.08-.23-.2-.3-.48-.17-.63.13-.15.42-.12.65.08.23.2.3.48.17.63Z"/>
        </g>
        <g>
          <path class="cls-5" d="m164.51,139.21c-1.21,1.41-3.34,1.57-4.75.35-1.41-1.21-1.57-3.34-.35-4.75s3.34-1.57,4.75-.35c1.41,1.21,1.57,3.34.35,4.75Z"/>
          <path class="cls-8" d="m163.93,136.57c-.24.28-.78.2-1.21-.17-.43-.37-.58-.89-.34-1.17.24-.28.78-.2,1.21.17.43.37.58.89.34,1.17Z"/>
          <path class="cls-8" d="m160.57,138.99c-1.41-1.21-1.57-3.34-.35-4.75.07-.08.15-.16.23-.24-.38.19-.74.46-1.04.81-1.21,1.41-1.06,3.54.35,4.75,1.32,1.14,3.28,1.07,4.52-.11-1.18.59-2.65.46-3.71-.46Z"/>
          <path class="cls-13" d="m164.47,137.9c-.08-.16-.31-.09-.76-.25-.35-.12-.46-.26-.88-.36-.11-.02-.22-.03-.34.01-.1.04-.23.15-.24.28-.03.35.89.72,1.34.79.02,0,.03,0,.03,0,.21.03.59.08.77-.14.06-.07.13-.22.08-.34Z"/>
          <path class="cls-13" d="m162.06,137.26c-.13.15-.42.12-.65-.08-.23-.2-.3-.48-.17-.63.13-.15.42-.12.65.08s.3.48.17.63Z"/>
        </g>
        <g>
          <path class="cls-5" d="m107.25,116.9c-1.21,1.41-3.34,1.57-4.75.35-1.41-1.21-1.57-3.34-.35-4.75,1.21-1.41,3.34-1.57,4.75-.35,1.41,1.21,1.57,3.34.35,4.75Z"/>
          <path class="cls-8" d="m106.67,114.26c-.24.28-.78.2-1.21-.17-.43-.37-.58-.89-.34-1.17.24-.28.78-.2,1.21.17.43.37.58.89.34,1.17Z"/>
          <path class="cls-8" d="m103.31,116.68c-1.41-1.21-1.57-3.34-.35-4.75.07-.08.15-.16.23-.24-.38.19-.74.46-1.04.81-1.21,1.41-1.06,3.54.35,4.75,1.32,1.14,3.28,1.07,4.52-.11-1.18.59-2.65.46-3.71-.46Z"/>
          <path class="cls-13" d="m107.21,115.59c-.08-.16-.31-.09-.76-.25-.35-.12-.46-.26-.88-.36-.11-.02-.22-.03-.34.01-.1.04-.23.15-.24.28-.03.35.89.72,1.34.79.02,0,.03,0,.03,0,.21.03.59.08.77-.14.06-.07.13-.22.08-.34Z"/>
          <path class="cls-13" d="m104.8,114.95c-.13.15-.42.12-.65-.08s-.3-.48-.17-.63c.13-.15.42-.11.65.08.23.2.3.48.17.63Z"/>
        </g>
        <g>
          <path class="cls-5" d="m59.22,93.45c-1.21,1.41-3.34,1.57-4.75.35-1.41-1.21-1.57-3.34-.35-4.75,1.21-1.41,3.34-1.57,4.75-.35,1.41,1.21,1.57,3.34.35,4.75Z"/>
          <path class="cls-8" d="m58.65,90.8c-.24.28-.78.2-1.21-.17s-.58-.89-.34-1.17c.24-.28.78-.2,1.21.17.43.37.58.89.34,1.17Z"/>
          <path class="cls-8" d="m55.29,93.23c-1.41-1.21-1.57-3.34-.35-4.75.07-.08.15-.16.23-.24-.38.19-.74.46-1.04.81-1.21,1.41-1.06,3.54.35,4.75,1.32,1.14,3.28,1.07,4.52-.11-1.18.59-2.65.46-3.71-.46Z"/>
          <path class="cls-13" d="m59.19,92.13c-.08-.16-.31-.09-.76-.25-.35-.12-.46-.26-.88-.36-.11-.02-.22-.03-.34.01-.1.04-.23.15-.24.28-.03.35.89.72,1.34.79.02,0,.03,0,.03,0,.21.03.59.08.77-.14.06-.07.13-.22.08-.34Z"/>
          <path class="cls-13" d="m56.78,91.5c-.13.15-.42.12-.65-.08-.23-.2-.3-.48-.17-.63.13-.15.42-.12.65.08.23.2.3.48.17.63Z"/>
        </g>
        <g>
          <path class="cls-5" d="m83.41,104.72c-1.21,1.41-3.34,1.57-4.75.35-1.41-1.21-1.57-3.34-.35-4.75,1.21-1.41,3.34-1.57,4.75-.35s1.57,3.34.35,4.75Z"/>
          <path class="cls-8" d="m82.83,102.08c-.24.28-.78.2-1.21-.17s-.58-.89-.34-1.17c.24-.28.78-.2,1.21.17s.58.89.34,1.17Z"/>
          <path class="cls-8" d="m79.47,104.5c-1.41-1.21-1.57-3.34-.35-4.75.07-.08.15-.16.23-.24-.38.19-.74.46-1.04.81-1.21,1.41-1.06,3.54.35,4.75,1.32,1.14,3.28,1.07,4.52-.11-1.18.59-2.65.46-3.71-.46Z"/>
          <path class="cls-13" d="m83.37,103.41c-.08-.16-.31-.09-.76-.25-.35-.12-.46-.26-.88-.36-.11-.02-.22-.03-.34.01-.1.04-.23.15-.24.28-.03.35.89.72,1.34.79.02,0,.03,0,.03,0,.21.03.59.08.77-.14.06-.07.13-.22.08-.34Z"/>
          <path class="cls-13" d="m80.96,102.77c-.13.15-.42.11-.65-.08-.23-.2-.3-.48-.17-.63.13-.15.42-.12.65.08s.3.48.17.63Z"/>
        </g>
        <g class="cls-11">
          <path class="cls-18" d="m285.47,134.95s4.36,6.38,1.75,6.43c-2.61.04-5.91-6.52-1.75-6.43Z"/>
          <path class="cls-18" d="m277.55,138.22c1.99-.89,5.08,1.92,4.75,3.26-.06.26-.25.42-.37.52-1.45,1.23-5.42.06-5.7-1.69-.13-.82.54-1.74,1.31-2.09Z"/>
          <path class="cls-18" d="m264.98,142.52c1.46-.08,3.27,3.68,2.37,4.76-.04.05-.14.17-.31.22-1.15.33-3.72-2.95-2.91-4.4.16-.28.48-.55.85-.57Z"/>
          <path class="cls-18" d="m248.63,137.25c1.28-.7,4.53,1.94,4.17,3.29-.02.07-.06.21-.19.33-.9.79-4.62-1.09-4.5-2.74.02-.32.2-.7.52-.88Z"/>
          <path class="cls-18" d="m239.39,138.4c1.28-.7,4.53,1.94,4.17,3.29-.02.07-.06.21-.19.33-.9.79-4.62-1.09-4.5-2.74.02-.32.2-.7.52-.88Z"/>
          <path class="cls-18" d="m225.53,136.74c1.28-.7,4.53,1.94,4.17,3.29-.02.07-.06.21-.19.33-.9.79-4.62-1.09-4.5-2.74.02-.32.2-.7.52-.88Z"/>
          <path class="cls-18" d="m212.78,137.59c1.28-.7,4.53,1.94,4.17,3.29-.02.07-.06.21-.19.33-.9.79-4.62-1.09-4.5-2.74.02-.32.2-.7.52-.88Z"/>
          <path class="cls-18" d="m200.51,134.47c1.28-.7,4.53,1.94,4.17,3.29-.02.07-.06.21-.19.33-.9.79-4.62-1.09-4.5-2.74.02-.32.2-.7.52-.88Z"/>
          <path class="cls-18" d="m186.66,139.55c1.28-.7,4.53,1.94,4.17,3.29-.02.07-.06.21-.19.33-.9.79-4.62-1.09-4.5-2.74.02-.32.2-.7.52-.88Z"/>
          <path class="cls-18" d="m171.83,139.09c1.28-.7,4.53,1.94,4.17,3.29-.02.07-.06.21-.19.33-.9.79-4.62-1.09-4.5-2.74.02-.32.2-.7.52-.88Z"/>
          <path class="cls-18" d="m151.46,135.48c1.28-.7,4.53,1.94,4.17,3.29-.02.07-.06.21-.19.33-.9.79-4.62-1.09-4.5-2.74.02-.32.2-.7.52-.88Z"/>
          <path class="cls-18" d="m138.87,129.25c1.39.43,1.8,4.58.58,5.28-.06.03-.19.11-.37.09-1.2-.09-2.47-4.06-1.21-5.13.25-.21.64-.35.99-.24Z"/>
          <path class="cls-18" d="m130.13,124.23c1.23.78.51,4.9-.85,5.24-.07.02-.21.05-.38,0-1.13-.41-1.3-4.57.2-5.27.29-.14.71-.17,1.02.03Z"/>
          <path class="cls-18" d="m123.6,121.37c-.33,1.42-4.45,2.11-5.23.95-.04-.06-.12-.18-.12-.36,0-1.2,3.88-2.75,5.04-1.56.23.23.39.61.31.97Z"/>
          <path class="cls-18" d="m111.15,118.71c-.33,1.42-4.45,2.11-5.23.95-.04-.06-.12-.18-.12-.36,0-1.2,3.88-2.75,5.04-1.56.23.23.39.61.31.97Z"/>
          <path class="cls-18" d="m94.21,110.75c-.85,1.18-4.92.22-5.19-1.15-.01-.07-.04-.22.03-.38.47-1.1,4.64-1.03,5.25.51.12.3.13.72-.09,1.02Z"/>
          <path class="cls-18" d="m75.71,106.3c-.85,1.18-4.92.22-5.19-1.15-.01-.07-.04-.22.03-.38.47-1.1,4.64-1.03,5.25.51.12.3.13.72-.09,1.02Z"/>
          <path class="cls-18" d="m64.25,98.32c-.85,1.18-4.92.22-5.19-1.15-.01-.07-.04-.22.03-.38.47-1.1,4.64-1.03,5.25.51.12.3.13.72-.09,1.02Z"/>
          <path class="cls-18" d="m51.2,91.8c-.85,1.18-4.92.22-5.19-1.15-.01-.07-.04-.22.03-.38.47-1.1,4.64-1.03,5.25.51.12.3.13.72-.09,1.02Z"/>
          <path class="cls-18" d="m271.62,141.42c1.46-.08,3.27,3.68,2.37,4.75-.04.05-.14.17-.31.22-1.15.33-3.72-2.95-2.91-4.4.16-.28.48-.55.85-.57Z"/>
        </g>
        <path class="cls-9" d="m213.13,133.38c-1.12,5.91-1.68,10.86-2,14.56-.27,3.24-.34,5.37,1.1,6.84,2.25,2.29,6.41,1.18,6.85,1.05,4.59-1.3,6.32-5.96,6.49-6.56.71-2.54-.54-4.79-.08-7.57.82-4.87-1.68-14.62-10.66-19.59-3.16-1.75-6.39-2.31-9.4-1.83-3.47.55-4.05,2.59-12.62,12.09-5.46,6.05-7.79,8.15-7.36,11.18.34,2.39,2,2.52,2.52,5.62.48,2.82-.73,3.65-1.29,8.83-.36,3.37-.52,5.08.56,6.52,1.2,1.61,3.57,2.47,5.51,2.01,1.69-.4,3.27-1.85,5.36-7.28,3.51-9.14,1.92-12.58,4.56-17.42,1.37-2.5,4.14-5.87,10.46-8.44Z"/>
        <g>
          <path class="cls-4" d="m314.15,133.95c-1.94.33-4.05.61-6.29.79-5.72.46-7.95-.04-20.05-.38-16.01-.45-14.22.39-18.52-.32-12.86-2.1-15.19-7.32-22.74-5.55-6.21,1.46-7.09,5.58-12.31,5.15-5.41-.44-5.83-4.98-12.15-6.18-5.68-1.08-6.41,2.4-13.54,1.58-5.22-.6-7.08-2.72-10.81-1.53-2.75.88-3.2,2.51-5.68,4.05-2.42,1.5-6.44,2.72-13.38,1.01-.57-.14-1.1-.41-1.55-.79-2.61-2.2-5.84-4.37-9.8-6.01-6.41-2.65-9.06-1.55-16.97-4.39-5.97-2.14-4.92-2.94-11.41-5.38-9.35-3.52-11.38-1.83-16.17-5.12-5.57-3.83-3.82-6.82-8.79-9.56-6.57-3.62-11.22.7-16.86-3.31-4.02-2.86-2.33-5.54-6.25-8.07-5.4-3.5-9.79.83-17.2-2.41-3.66-1.6-2.53-2.62-8.01-6.16-2.28-1.47-7.93-5.1-15.66-6.48-6.38-1.13-9.46.11-11.99-2.49-.02-.02-.04-.04-.06-.06-2.27-2.4-.34-6.35,2.96-6.14,47.25,3.06,94.51,6.13,141.76,9.19,0,0,0,0,.02,0,.74.12,26.1,4.07,40.64,10.41.32.14.64.28.95.42,30.24,13.57,60.49,27.14,90.73,40.71,3.31,1.48,2.7,6.36-.88,6.98Z"/>
          <path class="cls-12" d="m316.23,128.61s-.03.01-.05.01c-1.98.43-4.12.81-6.4,1.09-5.81.71-8.05.24-20.3.3-16.22.08-14.43.93-18.76.31-12.96-1.84-15.14-7.47-22.85-5.26-6.35,1.82-7.39,6.35-12.66,6.07-5.47-.29-5.74-5.24-12.09-6.32-5.72-.97-6.58,2.85-13.78,2.21-5.27-.47-7.08-2.72-10.9-1.28-2.82,1.07-3.33,2.86-5.9,4.63-2.5,1.72-6.62,3.2-13.59,1.58-.57-.13-1.1-.41-1.54-.81-2.57-2.31-5.77-4.57-9.72-6.22-6.41-2.67-9.13-1.38-17.04-4.19-5.97-2.13-4.89-3.03-11.38-5.48-9.35-3.52-11.47-1.59-16.21-5.02-5.51-3.99-3.62-7.32-8.57-10.14-6.53-3.72-11.4,1.17-16.97-3.02-3.97-2.98-2.16-5.97-6.04-8.61-5.35-3.64-9.96,1.25-17.35-2.02-3.65-1.62-2.47-2.78-7.9-6.45-2.26-1.52-7.85-5.3-15.64-6.52-6.43-1.01-9.6.46-12.07-2.3-.02-.02-.04-.04-.05-.06-.06-.07-.1-.14-.16-.21.55-3.03.5-3.89.27-3.96-.74-.23-5.36,7.5-2.59,10.68.02.02.03.04.05.06,2.47,2.76,5.64,1.29,12.07,2.3,7.79,1.23,13.38,5,15.64,6.52,5.43,3.67,4.25,4.83,7.9,6.45,7.39,3.27,12-1.62,17.35,2.02,3.88,2.63,2.07,5.62,6.04,8.61,5.57,4.19,10.45-.7,16.97,3.02,4.94,2.82,3.06,6.14,8.57,10.14,4.74,3.43,6.86,1.5,16.21,5.02,6.49,2.44,5.4,3.35,11.38,5.48,7.91,2.82,10.64,1.52,17.04,4.19,3.95,1.65,7.15,3.91,9.72,6.22.44.4.97.68,1.54.81,6.97,1.62,11.09.14,13.59-1.58,2.57-1.77,3.09-3.57,5.9-4.63,3.82-1.44,5.64.81,10.9,1.28,7.2.65,8.06-3.18,13.78-2.21,6.35,1.08,6.62,6.03,12.09,6.32,5.28.28,6.32-4.25,12.66-6.07,7.71-2.21,9.89,3.42,22.85,5.26,4.33.62,2.54-.23,18.76-.31,12.25-.06,14.49.41,20.3-.3,2.28-.28,4.42-.66,6.4-1.09,2.99-.66,4.06-4.38,2.52-6.52Z"/>
        </g>
        <path class="cls-16" d="m64.56,57.16s-6.96-2.13-6.87,3.08c.09,5.21.54,5.38.54,5.38,0,0-5.79-5.6-5.52,1.38.27,6.98,9.55,8.44,9.55,8.44,0,0,.29,5.32,5.68,5.8s7.16-1.44,7.16-1.44c0,0-4.21,5.45,5.8,7.8s10.52,1,10.52,1c0,0-.26,6.11,6.66,5.64l6.91-.48s4.59,11.07,9.02,7.58c4.43-3.49,9.64-3.58,9.64-3.58,0,0-2.86,6.16,2.97,5.79,5.83-.37,8.78-1.32,8.78-1.32,0,0-2.84,12.9,1.6,9.41,4.43-3.49,7.66-3.81,7.66-3.81,0,0-1.24,11.43,4.65,9.54,5.9-1.9,5.68-4.05,9,.84,3.32,4.89,8.51,8.93,10.4,3.96s6.16-8.01,7.49-3.36c1.34,4.65,11.78,11.21,12.94,5.44,1.16-5.77,1.72-4.52,1.72-4.52,0,0,9.09,6.05,11.09,2.15,2-3.9,1.72-4.52,1.72-4.52,0,0,10.04,9,11.37,2.77,1.33-6.22,1.89-4.97,1.89-4.97,0,0,6.81,9.32,11.76,4.47l4.95-4.85s2.5,9.75,10.85,4.13c0,0,7.73,5.53,10.59-.63,0,0,8.64,5.88,11.15.62,0,0,10.42,10.7,11.31,4.3,0,0,13.39,5.62,10.03-1.88,0,0,12,8.93,7.23-2.84,0,0,16.7,9.35,11.31-.98-5.39-10.33-20.8-7.92-20.8-7.92,0,0-212-64.63-220.78-52.44Z"/>
        <g>
          <path class="cls-3" d="m215.97,116.58c-3.01,1.81-10.21-4.64-10.21-4.64,0,0,.28.62-1.72,4.52-2,3.9-11.09-2.15-11.09-2.15,0,0-.56-1.25-1.72,4.52-.07.35-.18.66-.31.92.56.37,9.12,5.9,11.06,2.13,2-3.9,1.72-4.52,1.72-4.52,0,0,10.04,9,11.37,2.77.36-1.67.66-2.79.91-3.56Z"/>
          <path class="cls-3" d="m58,58.53c1.11.57,2.12,1.5,2.27,1.65-.07-.09-.32-.6-.45-3.2-.78.25-1.45.73-1.82,1.55Z"/>
          <path class="cls-3" d="m190.06,120.69c-3.06,1.89-10.65-3.39-11.78-7.31-1.34-4.65-5.6-1.61-7.49,3.36s-7.08.93-10.4-3.96c-3.32-4.89-3.1-2.73-9-.84s-4.65-9.54-4.65-9.54c0,0-3.23.32-7.66,3.81-4.43,3.49-1.6-9.41-1.6-9.41,0,0-2.95.95-8.78,1.32s-2.97-5.79-2.97-5.79c0,0-5.21.09-9.64,3.58-4.43,3.49-9.02-7.58-9.02-7.58l-6.91.48c-6.91.48-6.66-5.64-6.66-5.64,0,0-.52,1.36-10.52-1-10.01-2.36-5.8-7.8-5.8-7.8,0,0-1.76,1.92-7.16,1.44-5.39-.48-5.68-5.8-5.68-5.8,0,0-7.4-1.17-9.17-6.39-1.34-.41-2.57.07-2.44,3.38.27,6.98,9.55,8.44,9.55,8.44,0,0,.29,5.32,5.68,5.8,5.39.48,7.16-1.44,7.16-1.44,0,0-4.21,5.45,5.8,7.8s10.52,1,10.52,1c0,0-.26,6.11,6.66,5.64l6.91-.48s4.59,11.07,9.02,7.58c4.43-3.49,9.64-3.58,9.64-3.58,0,0-2.86,6.16,2.97,5.79,5.83-.37,8.78-1.32,8.78-1.32,0,0-2.84,12.9,1.6,9.41,4.43-3.49,7.66-3.81,7.66-3.81,0,0-1.24,11.43,4.65,9.54,5.9-1.9,5.68-4.05,9,.84,3.32,4.89,8.51,8.93,10.4,3.96s6.16-8.01,7.49-3.36c1.34,4.65,11.78,11.21,12.94,5.44.36-1.77.65-2.88.9-3.56Z"/>
          <path class="cls-3" d="m306.14,117.52c-.14-.27-.29-.52-.44-.77-3.66-.8-8.81-3.68-8.81-3.68,2.07,5.1.99,6.31-.9,6.05,3.69,1.9,14.66,7.05,10.15-1.6Z"/>
          <path class="cls-3" d="m289.67,115.91c3.36,7.49-10.03,1.88-10.03,1.88-.88,6.4-11.31-4.3-11.31-4.3-2.52,5.25-11.15-.62-11.15-.62-2.86,6.16-10.59.63-10.59.63-8.35,5.62-10.85-4.13-10.85-4.13l-4.95,4.85c-4.95,4.85-11.76-4.47-11.76-4.47,0,0-.56-1.25-1.89,4.97-.04.18-.09.34-.14.5.5.66,6.97,9.09,11.72,4.43l4.95-4.85s2.5,9.75,10.85,4.13c0,0,7.73,5.53,10.59-.63,0,0,8.64,5.88,11.15.62,0,0,10.42,10.7,11.31,4.3,0,0,13.39,5.62,10.03-1.88,0,0,11.74,8.73,7.37-2.47-2.39-.79-5.31-2.96-5.31-2.96Z"/>
        </g>
        <g>
          <path class="cls-5" d="m297.27,125.02c-1.21,1.41-3.34,1.57-4.75.35-1.41-1.21-1.57-3.34-.35-4.75,1.21-1.41,3.34-1.57,4.75-.35s1.57,3.34.35,4.75Z"/>
          <path class="cls-8" d="m296.69,122.38c-.24.28-.78.2-1.21-.17-.43-.37-.58-.89-.34-1.17.24-.28.78-.2,1.21.17s.58.89.34,1.17Z"/>
          <path class="cls-8" d="m293.33,124.8c-1.41-1.21-1.57-3.34-.35-4.75.07-.08.15-.16.23-.24-.38.19-.74.46-1.04.81-1.21,1.41-1.06,3.54.35,4.75,1.32,1.14,3.28,1.07,4.52-.11-1.18.59-2.65.46-3.71-.46Z"/>
          <path class="cls-13" d="m297.23,123.71c-.08-.16-.31-.09-.76-.25-.35-.12-.46-.26-.88-.36-.11-.02-.22-.03-.34.01-.1.04-.23.15-.24.28-.03.35.89.72,1.34.79.02,0,.03,0,.03,0,.21.03.59.08.77-.14.06-.07.13-.22.08-.34Z"/>
          <path class="cls-13" d="m294.82,123.07c-.13.15-.42.12-.65-.08-.23-.2-.3-.48-.17-.63.13-.15.42-.12.65.08s.3.48.17.63Z"/>
        </g>
        <g>
          <path class="cls-5" d="m270.03,124.49c-1.21,1.41-3.34,1.57-4.75.35-1.41-1.21-1.57-3.34-.35-4.75,1.21-1.41,3.34-1.57,4.75-.35,1.41,1.21,1.57,3.34.35,4.75Z"/>
          <path class="cls-8" d="m269.45,121.85c-.24.28-.78.2-1.21-.17s-.58-.89-.34-1.17c.24-.28.78-.2,1.21.17s.58.89.34,1.17Z"/>
          <path class="cls-8" d="m266.09,124.27c-1.41-1.21-1.57-3.34-.35-4.75.07-.08.15-.16.23-.24-.38.19-.74.46-1.04.81-1.21,1.41-1.06,3.54.35,4.75,1.32,1.14,3.28,1.07,4.52-.11-1.18.59-2.65.46-3.71-.46Z"/>
          <path class="cls-13" d="m269.99,123.18c-.08-.16-.31-.09-.76-.25-.35-.12-.46-.26-.88-.36-.11-.02-.22-.03-.34.01-.1.04-.23.15-.24.28-.03.35.89.72,1.34.79.02,0,.03,0,.03,0,.21.03.59.08.77-.14.06-.07.13-.22.08-.34Z"/>
          <path class="cls-13" d="m267.58,122.54c-.13.15-.42.12-.65-.08-.23-.2-.3-.48-.17-.63.13-.15.42-.12.65.08.23.2.3.48.17.63Z"/>
        </g>
        <g>
          <path class="cls-5" d="m229.03,112.51c-1.21,1.41-3.34,1.57-4.75.35-1.41-1.21-1.57-3.34-.35-4.75,1.21-1.41,3.34-1.57,4.75-.35,1.41,1.21,1.57,3.34.35,4.75Z"/>
          <path class="cls-8" d="m228.45,109.87c-.24.28-.78.2-1.21-.17s-.58-.89-.34-1.17c.24-.28.78-.2,1.21.17s.58.89.34,1.17Z"/>
          <path class="cls-8" d="m225.09,112.29c-1.41-1.21-1.57-3.34-.35-4.75.07-.08.15-.16.23-.24-.38.19-.74.46-1.04.81-1.21,1.41-1.06,3.54.35,4.75,1.32,1.14,3.28,1.07,4.52-.11-1.18.59-2.65.46-3.71-.46Z"/>
          <path class="cls-13" d="m228.99,111.2c-.08-.16-.31-.09-.76-.25-.35-.12-.46-.26-.88-.36-.11-.02-.22-.03-.34.01-.1.04-.23.15-.24.28-.03.35.89.72,1.34.79.02,0,.03,0,.03,0,.21.03.59.08.77-.14.06-.07.13-.22.08-.34Z"/>
          <path class="cls-13" d="m226.58,110.56c-.13.15-.42.11-.65-.08-.23-.2-.3-.48-.17-.63.13-.15.42-.12.65.08.23.2.3.48.17.63Z"/>
        </g>
        <g>
          <path class="cls-5" d="m213.42,119.51c-1.21,1.41-3.34,1.57-4.75.35-1.41-1.21-1.57-3.34-.35-4.75s3.34-1.57,4.75-.35c1.41,1.21,1.57,3.34.35,4.75Z"/>
          <path class="cls-8" d="m212.84,116.87c-.24.28-.78.2-1.21-.17-.43-.37-.58-.89-.34-1.17.24-.28.78-.2,1.21.17s.58.89.34,1.17Z"/>
          <path class="cls-8" d="m209.48,119.29c-1.41-1.21-1.57-3.34-.35-4.75.07-.08.15-.16.23-.24-.38.19-.74.46-1.04.81-1.21,1.41-1.06,3.54.35,4.75,1.32,1.14,3.28,1.07,4.52-.11-1.18.59-2.65.46-3.71-.46Z"/>
          <path class="cls-13" d="m213.38,118.2c-.08-.16-.31-.09-.76-.25-.35-.12-.46-.26-.88-.36-.11-.02-.22-.03-.34.01-.1.04-.23.15-.24.28-.03.35.89.72,1.34.79.02,0,.03,0,.03,0,.21.03.59.08.77-.14.06-.07.13-.22.08-.34Z"/>
          <path class="cls-13" d="m210.97,117.56c-.13.15-.42.12-.65-.08-.23-.2-.3-.48-.17-.63.13-.15.42-.12.65.08s.3.48.17.63Z"/>
        </g>
        <g>
          <path class="cls-5" d="m173.46,115.69c-1.21,1.41-3.34,1.57-4.75.35-1.41-1.21-1.57-3.34-.35-4.75,1.21-1.41,3.34-1.57,4.75-.35,1.41,1.21,1.57,3.34.35,4.75Z"/>
          <path class="cls-8" d="m172.88,113.05c-.24.28-.78.2-1.21-.17s-.58-.89-.34-1.17c.24-.28.78-.2,1.21.17.43.37.58.89.34,1.17Z"/>
          <path class="cls-8" d="m169.52,115.47c-1.41-1.21-1.57-3.34-.35-4.75.07-.08.15-.16.23-.24-.38.19-.74.46-1.04.81-1.21,1.41-1.06,3.54.35,4.75,1.32,1.14,3.28,1.07,4.52-.11-1.18.59-2.65.46-3.71-.46Z"/>
          <path class="cls-13" d="m173.42,114.38c-.08-.16-.31-.09-.76-.25-.35-.12-.46-.26-.88-.36-.11-.02-.22-.03-.34.01-.1.04-.23.15-.24.28-.03.35.89.72,1.34.79.02,0,.03,0,.03,0,.21.03.59.08.77-.14.06-.07.13-.22.08-.34Z"/>
          <path class="cls-13" d="m171.01,113.74c-.13.15-.42.12-.65-.08-.23-.2-.3-.48-.17-.63.13-.15.42-.12.65.08.23.2.3.48.17.63Z"/>
        </g>
        <g>
          <path class="cls-5" d="m102.67,90.83c-1.21,1.41-3.34,1.57-4.75.35-1.41-1.21-1.57-3.34-.35-4.75,1.21-1.41,3.34-1.57,4.75-.35,1.41,1.21,1.57,3.34.35,4.75Z"/>
          <path class="cls-8" d="m102.09,88.18c-.24.28-.78.2-1.21-.17-.43-.37-.58-.89-.34-1.17.24-.28.78-.2,1.21.17s.58.89.34,1.17Z"/>
          <path class="cls-8" d="m98.73,90.61c-1.41-1.21-1.57-3.34-.35-4.75.07-.08.15-.16.23-.24-.38.19-.74.46-1.04.81-1.21,1.41-1.06,3.54.35,4.75,1.32,1.14,3.28,1.07,4.52-.11-1.18.59-2.65.46-3.71-.46Z"/>
          <path class="cls-13" d="m102.64,89.51c-.08-.16-.31-.09-.76-.25-.35-.12-.46-.26-.88-.36-.11-.02-.22-.03-.34.01-.1.04-.23.15-.24.28-.03.35.89.72,1.34.79.02,0,.03,0,.03,0,.21.03.59.08.77-.14.06-.07.13-.22.08-.34Z"/>
          <path class="cls-13" d="m100.23,88.88c-.13.15-.42.12-.65-.08s-.3-.48-.17-.63c.13-.15.42-.12.65.08.23.2.3.48.17.63Z"/>
        </g>
        <g>
          <path class="cls-5" d="m68.17,69.93c-1.21,1.41-3.34,1.57-4.75.35-1.41-1.21-1.57-3.34-.35-4.75,1.21-1.41,3.34-1.57,4.75-.35s1.57,3.34.35,4.75Z"/>
          <path class="cls-8" d="m67.59,67.29c-.24.28-.78.2-1.21-.17-.43-.37-.58-.89-.34-1.17.24-.28.78-.2,1.21.17s.58.89.34,1.17Z"/>
          <path class="cls-8" d="m64.23,69.71c-1.41-1.21-1.57-3.34-.35-4.75.07-.08.15-.16.23-.24-.38.19-.74.46-1.04.81-1.21,1.41-1.06,3.54.35,4.75,1.32,1.14,3.28,1.07,4.52-.11-1.18.59-2.65.46-3.71-.46Z"/>
          <path class="cls-13" d="m68.14,68.62c-.08-.16-.31-.09-.76-.25-.35-.12-.46-.26-.88-.36-.11-.02-.22-.03-.34.01-.1.04-.23.15-.24.28-.03.35.89.72,1.34.79.02,0,.03,0,.03,0,.21.03.59.08.77-.14.06-.07.13-.22.08-.34Z"/>
          <path class="cls-13" d="m65.73,67.98c-.13.15-.42.11-.65-.08-.23-.2-.3-.48-.17-.63.13-.15.42-.12.65.08.23.2.3.48.17.63Z"/>
        </g>
        <g>
          <path class="cls-5" d="m92.36,81.21c-1.21,1.41-3.34,1.57-4.75.35-1.41-1.21-1.57-3.34-.35-4.75,1.21-1.41,3.34-1.57,4.75-.35,1.41,1.21,1.57,3.34.35,4.75Z"/>
          <path class="cls-8" d="m91.78,78.56c-.24.28-.78.2-1.21-.17s-.58-.89-.34-1.17c.24-.28.78-.2,1.21.17s.58.89.34,1.17Z"/>
          <path class="cls-8" d="m88.42,80.99c-1.41-1.21-1.57-3.34-.35-4.75.07-.08.15-.16.23-.24-.38.19-.74.46-1.04.81-1.21,1.41-1.06,3.54.35,4.75,1.32,1.14,3.28,1.07,4.52-.11-1.18.59-2.65.46-3.71-.46Z"/>
          <path class="cls-13" d="m92.32,79.89c-.08-.16-.31-.09-.76-.25-.35-.12-.46-.26-.88-.36-.11-.02-.22-.03-.34.01-.1.04-.23.15-.24.28-.03.35.89.72,1.34.79.02,0,.03,0,.03,0,.21.03.59.08.77-.14.06-.07.13-.22.08-.34Z"/>
          <path class="cls-13" d="m89.91,79.26c-.13.15-.42.12-.65-.08-.23-.2-.3-.48-.17-.63.13-.15.42-.12.65.08.23.2.3.48.17.63Z"/>
        </g>
        <g class="cls-11">
          <path class="cls-18" d="m294.42,111.44s4.36,6.38,1.75,6.43c-2.61.04-5.91-6.52-1.75-6.43Z"/>
          <path class="cls-18" d="m286.5,114.7c1.99-.89,5.08,1.92,4.75,3.26-.06.26-.25.42-.37.52-1.45,1.23-5.42.06-5.7-1.69-.13-.82.54-1.74,1.31-2.09Z"/>
          <path class="cls-18" d="m273.93,119c1.46-.08,3.27,3.68,2.37,4.75-.04.05-.14.17-.31.22-1.15.33-3.72-2.95-2.91-4.4.16-.28.48-.55.85-.57Z"/>
          <path class="cls-18" d="m257.58,113.74c1.28-.7,4.53,1.94,4.17,3.29-.02.07-.06.21-.19.33-.9.79-4.62-1.09-4.5-2.74.02-.32.2-.7.52-.88Z"/>
          <path class="cls-18" d="m248.34,114.88c1.28-.7,4.53,1.94,4.17,3.29-.02.07-.06.21-.19.33-.9.79-4.62-1.09-4.5-2.74.02-.32.2-.7.52-.88Z"/>
          <path class="cls-18" d="m234.48,113.23c1.28-.7,4.53,1.94,4.17,3.29-.02.07-.06.21-.19.33-.9.79-4.62-1.09-4.5-2.74.02-.32.2-.7.52-.88Z"/>
          <path class="cls-18" d="m221.73,114.07c1.28-.7,4.53,1.94,4.17,3.29-.02.07-.06.21-.19.33-.9.79-4.62-1.09-4.5-2.74.02-.32.2-.7.52-.88Z"/>
          <path class="cls-18" d="m209.46,110.95c1.28-.7,4.53,1.94,4.17,3.29-.02.07-.06.21-.19.33-.9.79-4.62-1.09-4.5-2.74.02-.32.2-.7.52-.88Z"/>
          <path class="cls-18" d="m195.61,116.04c1.28-.7,4.53,1.94,4.17,3.29-.02.07-.06.21-.19.33-.9.79-4.62-1.09-4.5-2.74.02-.32.2-.7.52-.88Z"/>
          <path class="cls-18" d="m180.78,115.57c1.28-.7,4.53,1.94,4.17,3.29-.02.07-.06.21-.19.33-.9.79-4.62-1.09-4.5-2.74.02-.32.2-.7.52-.88Z"/>
          <path class="cls-18" d="m160.41,111.96c1.28-.7,4.53,1.94,4.17,3.29-.02.07-.06.21-.19.33-.9.79-4.62-1.09-4.5-2.74.02-.32.2-.7.52-.88Z"/>
          <path class="cls-18" d="m147.82,105.74c1.39.43,1.8,4.58.58,5.28-.06.03-.19.11-.37.09-1.2-.09-2.47-4.06-1.21-5.13.25-.21.64-.35.99-.24Z"/>
          <path class="cls-18" d="m139.08,100.71c1.23.78.51,4.9-.85,5.24-.07.02-.21.05-.38,0-1.13-.41-1.3-4.57.2-5.27.29-.14.71-.17,1.02.03Z"/>
          <path class="cls-18" d="m132.55,97.86c-.33,1.42-4.45,2.11-5.23.95-.04-.06-.12-.18-.12-.36,0-1.2,3.87-2.75,5.04-1.56.23.23.39.61.31.97Z"/>
          <path class="cls-18" d="m120.1,95.19c-.33,1.42-4.45,2.11-5.23.95-.04-.06-.12-.18-.12-.36,0-1.2,3.88-2.75,5.04-1.56.23.23.39.61.31.97Z"/>
          <path class="cls-18" d="m103.16,87.24c-.85,1.18-4.92.22-5.19-1.15-.01-.07-.04-.22.03-.38.47-1.1,4.64-1.03,5.25.51.12.3.13.72-.09,1.02Z"/>
          <path class="cls-18" d="m84.66,82.79c-.85,1.18-4.92.22-5.19-1.15-.01-.07-.04-.22.03-.38.47-1.1,4.64-1.03,5.25.51.12.3.13.72-.09,1.02Z"/>
          <path class="cls-18" d="m73.2,74.8c-.85,1.18-4.92.22-5.19-1.15-.01-.07-.04-.22.03-.38.47-1.1,4.64-1.03,5.25.51.12.3.13.72-.09,1.02Z"/>
          <path class="cls-18" d="m60.15,68.28c-.85,1.18-4.92.22-5.19-1.15-.01-.07-.04-.22.03-.38.47-1.1,4.64-1.03,5.25.51.12.3.13.72-.09,1.02Z"/>
          <path class="cls-18" d="m280.56,117.9c1.46-.08,3.27,3.68,2.37,4.75-.04.05-.14.17-.31.22-1.15.33-3.72-2.95-2.91-4.4.16-.28.48-.55.85-.57Z"/>
        </g>
        <path class="cls-9" d="m123.99,85.99c-1.12,5.91-1.68,10.86-2,14.56-.27,3.24-.34,5.37,1.1,6.84,2.25,2.29,6.41,1.18,6.85,1.05,4.59-1.3,6.32-5.96,6.49-6.56.71-2.54-.54-4.79-.08-7.57.82-4.87-1.68-14.62-10.66-19.59-3.16-1.75-6.39-2.31-9.4-1.83-3.47.55-4.05,2.59-12.62,12.09-5.46,6.05-7.79,8.15-7.36,11.18.34,2.39,2,2.52,2.52,5.62.48,2.82-.73,3.65-1.29,8.83-.36,3.37-.52,5.08.56,6.52,1.2,1.61,3.57,2.47,5.51,2.01,1.69-.4,3.27-1.85,5.36-7.28,3.51-9.14,1.92-12.58,4.56-17.42,1.37-2.5,4.14-5.87,10.46-8.44Z"/>
        <g>
          <g>
            <path class="cls-4" d="m321.9,113.6c-1.94.33-4.05.61-6.29.79-5.72.46-7.95-.04-20.05-.38-16.01-.45-14.22.39-18.52-.32-12.86-2.1-15.19-7.32-22.74-5.55-6.21,1.46-7.09,5.58-12.31,5.15-5.41-.44-5.83-4.98-12.15-6.18-5.68-1.08-6.41,2.4-13.54,1.58-5.22-.6-7.08-2.72-10.81-1.53-2.75.88-3.2,2.51-5.68,4.05-2.42,1.5-6.44,2.72-13.38,1.01-.57-.14-1.1-.41-1.55-.79-2.61-2.2-5.84-4.37-9.8-6.01-6.41-2.65-9.06-1.55-16.97-4.39-5.97-2.14-4.92-2.94-11.41-5.38-9.35-3.52-11.38-1.83-16.17-5.12-5.57-3.83-3.82-6.82-8.79-9.56-6.57-3.62-11.22.7-16.86-3.31-4.02-2.86-2.33-5.54-6.25-8.07-5.4-3.5-9.79.83-17.2-2.41-3.66-1.6-2.53-2.62-8.01-6.16-2.28-1.47-7.93-5.1-15.66-6.48-6.38-1.13-9.46.11-11.99-2.49-.02-.02-.04-.04-.06-.06-2.27-2.4-.34-6.35,2.96-6.14,47.25,3.06,94.51,6.13,141.76,9.19,0,0,0,0,.02,0,.74.12,26.1,4.07,40.64,10.41.32.14.64.28.95.42,30.24,13.57,60.49,27.14,90.73,40.71,3.31,1.48,2.7,6.36-.88,6.98Z"/>
            <path class="cls-12" d="m323.97,108.26s-.03.01-.05.01c-1.98.43-4.12.81-6.4,1.09-5.81.71-8.05.24-20.3.3-16.22.08-14.43.93-18.76.31-12.96-1.84-15.14-7.47-22.85-5.26-6.35,1.82-7.39,6.35-12.66,6.07-5.47-.29-5.74-5.24-12.09-6.32-5.72-.97-6.58,2.85-13.78,2.21-5.27-.47-7.08-2.72-10.9-1.28-2.82,1.07-3.33,2.86-5.9,4.63-2.5,1.72-6.62,3.2-13.59,1.58-.57-.13-1.1-.41-1.54-.81-2.57-2.31-5.77-4.57-9.72-6.22-6.41-2.67-9.13-1.38-17.04-4.19-5.97-2.13-4.89-3.03-11.38-5.48-9.35-3.52-11.47-1.59-16.21-5.02-5.51-3.99-3.62-7.32-8.57-10.14-6.53-3.72-11.4,1.17-16.97-3.02-3.97-2.98-2.16-5.97-6.04-8.61-5.35-3.64-9.96,1.25-17.35-2.02-3.65-1.62-2.47-2.78-7.9-6.45-2.26-1.52-7.85-5.3-15.64-6.52-6.43-1.01-9.6.46-12.07-2.3-.02-.02-.04-.04-.05-.06-.06-.07-.1-.14-.16-.21.55-3.03.5-3.89.27-3.96-.74-.23-5.36,7.5-2.59,10.68.02.02.03.04.05.06,2.47,2.76,5.64,1.29,12.07,2.3,7.79,1.23,13.38,5,15.64,6.52,5.43,3.67,4.25,4.83,7.9,6.45,7.4,3.27,12-1.62,17.35,2.02,3.88,2.63,2.07,5.62,6.04,8.61,5.57,4.19,10.45-.7,16.97,3.02,4.94,2.82,3.06,6.14,8.57,10.14,4.74,3.43,6.86,1.5,16.21,5.02,6.49,2.44,5.4,3.35,11.38,5.48,7.91,2.82,10.64,1.52,17.04,4.19,3.95,1.65,7.15,3.91,9.72,6.22.44.4.97.68,1.54.81,6.97,1.62,11.09.14,13.59-1.58,2.57-1.77,3.09-3.57,5.9-4.63,3.82-1.44,5.64.81,10.9,1.28,7.2.65,8.06-3.18,13.78-2.21,6.35,1.08,6.62,6.03,12.09,6.32,5.28.28,6.32-4.25,12.66-6.07,7.71-2.21,9.89,3.42,22.85,5.26,4.33.62,2.54-.23,18.76-.31,12.25-.06,14.49.41,20.3-.3,2.28-.28,4.42-.66,6.4-1.09,2.99-.66,4.06-4.38,2.52-6.52Z"/>
          </g>
          <path class="cls-16" d="m72.3,36.81s-6.96-2.13-6.87,3.08.54,5.38.54,5.38c0,0-5.79-5.6-5.52,1.38.27,6.98,9.55,8.44,9.55,8.44,0,0,.29,5.32,5.68,5.8,5.39.48,7.16-1.44,7.16-1.44,0,0-4.21,5.45,5.8,7.8,10.01,2.36,10.52,1,10.52,1,0,0-.26,6.12,6.66,5.64l6.91-.48s4.59,11.07,9.02,7.58c4.43-3.49,9.64-3.58,9.64-3.58,0,0-2.86,6.16,2.97,5.79,5.83-.37,8.78-1.32,8.78-1.32,0,0-2.84,12.9,1.6,9.41,4.43-3.49,7.66-3.81,7.66-3.81,0,0-1.24,11.43,4.65,9.54,5.9-1.9,5.68-4.05,9,.84,3.32,4.89,8.51,8.93,10.4,3.96,1.89-4.97,6.16-8.01,7.49-3.36,1.34,4.65,11.78,11.21,12.94,5.44,1.16-5.77,1.72-4.52,1.72-4.52,0,0,9.09,6.05,11.09,2.15,2-3.9,1.72-4.52,1.72-4.52,0,0,10.04,9,11.37,2.77,1.33-6.22,1.89-4.97,1.89-4.97,0,0,6.81,9.32,11.76,4.47l4.95-4.85s2.5,9.75,10.85,4.13c0,0,7.73,5.53,10.59-.63,0,0,8.64,5.88,11.15.62,0,0,10.42,10.7,11.31,4.3,0,0,13.39,5.62,10.03-1.88,0,0,12,8.93,7.23-2.84,0,0,16.7,9.35,11.31-.98-5.39-10.33-20.8-7.92-20.8-7.92,0,0-212-64.63-220.78-52.44Z"/>
          <g>
            <path class="cls-3" d="m223.71,96.23c-3.01,1.81-10.21-4.64-10.21-4.64,0,0,.28.62-1.72,4.52s-11.09-2.15-11.09-2.15c0,0-.56-1.25-1.72,4.52-.07.35-.18.66-.31.92.56.37,9.12,5.9,11.06,2.13,2-3.9,1.72-4.52,1.72-4.52,0,0,10.04,9,11.37,2.77.36-1.67.66-2.79.91-3.56Z"/>
            <path class="cls-3" d="m65.75,38.18c1.11.57,2.12,1.5,2.27,1.65-.07-.09-.32-.6-.45-3.2-.78.25-1.45.73-1.82,1.55Z"/>
            <path class="cls-3" d="m197.8,100.34c-3.06,1.89-10.65-3.39-11.78-7.31-1.34-4.65-5.6-1.61-7.49,3.36-1.89,4.97-7.08.93-10.4-3.96-3.32-4.89-3.1-2.73-9-.84-5.9,1.9-4.65-9.54-4.65-9.54,0,0-3.23.32-7.66,3.81-4.43,3.49-1.6-9.41-1.6-9.41,0,0-2.95.95-8.78,1.32-5.83.37-2.97-5.79-2.97-5.79,0,0-5.21.09-9.64,3.58-4.43,3.49-9.02-7.58-9.02-7.58l-6.91.48c-6.91.48-6.66-5.64-6.66-5.64,0,0-.52,1.36-10.52-1s-5.8-7.8-5.8-7.8c0,0-1.76,1.92-7.16,1.44-5.39-.48-5.68-5.8-5.68-5.8,0,0-7.4-1.17-9.17-6.39-1.34-.41-2.57.07-2.44,3.38.27,6.98,9.55,8.44,9.55,8.44,0,0,.29,5.32,5.68,5.8,5.39.48,7.16-1.44,7.16-1.44,0,0-4.21,5.45,5.8,7.8,10.01,2.36,10.52,1,10.52,1,0,0-.26,6.12,6.66,5.64l6.91-.48s4.59,11.07,9.02,7.58c4.43-3.49,9.64-3.58,9.64-3.58,0,0-2.86,6.16,2.97,5.79,5.83-.37,8.78-1.32,8.78-1.32,0,0-2.84,12.9,1.6,9.41,4.43-3.49,7.66-3.81,7.66-3.81,0,0-1.24,11.43,4.65,9.54,5.9-1.9,5.68-4.05,9,.84,3.32,4.89,8.51,8.93,10.4,3.96,1.89-4.97,6.16-8.01,7.49-3.36,1.34,4.65,11.78,11.21,12.94,5.44.36-1.77.65-2.88.9-3.56Z"/>
            <path class="cls-3" d="m313.88,97.17c-.14-.27-.29-.52-.44-.77-3.66-.8-8.81-3.68-8.81-3.68,2.07,5.1.99,6.31-.9,6.05,3.69,1.9,14.66,7.05,10.15-1.6Z"/>
            <path class="cls-3" d="m297.41,95.56c3.36,7.49-10.03,1.88-10.03,1.88-.88,6.4-11.31-4.3-11.31-4.3-2.52,5.25-11.15-.62-11.15-.62-2.86,6.16-10.59.63-10.59.63-8.35,5.62-10.85-4.13-10.85-4.13l-4.95,4.85c-4.95,4.85-11.76-4.47-11.76-4.47,0,0-.56-1.25-1.89,4.97-.04.18-.09.34-.14.5.5.66,6.97,9.09,11.72,4.43l4.95-4.85s2.5,9.75,10.85,4.13c0,0,7.73,5.53,10.59-.63,0,0,8.64,5.88,11.15.62,0,0,10.42,10.7,11.31,4.3,0,0,13.39,5.62,10.03-1.88,0,0,11.74,8.73,7.37-2.47-2.39-.79-5.31-2.96-5.31-2.96Z"/>
          </g>
          <g>
            <path class="cls-5" d="m305.01,104.67c-1.21,1.41-3.34,1.57-4.75.35-1.41-1.21-1.57-3.34-.35-4.75,1.21-1.41,3.34-1.57,4.75-.35,1.41,1.21,1.57,3.34.35,4.75Z"/>
            <path class="cls-8" d="m304.43,102.03c-.24.28-.78.2-1.21-.17-.43-.37-.58-.89-.34-1.17.24-.28.78-.2,1.21.17.43.37.58.89.34,1.17Z"/>
            <path class="cls-8" d="m301.07,104.45c-1.41-1.21-1.57-3.34-.35-4.75.07-.08.15-.16.23-.24-.38.19-.74.46-1.04.81-1.21,1.41-1.06,3.54.35,4.75,1.32,1.14,3.28,1.07,4.52-.11-1.18.59-2.65.46-3.71-.46Z"/>
            <path class="cls-13" d="m304.97,103.36c-.08-.16-.31-.09-.76-.25-.35-.12-.46-.26-.88-.36-.11-.02-.22-.03-.34.01-.1.04-.23.15-.24.28-.03.35.89.72,1.34.79.02,0,.03,0,.03,0,.21.03.59.08.77-.14.06-.07.13-.22.08-.34Z"/>
            <path class="cls-13" d="m302.56,102.72c-.13.15-.42.12-.65-.08-.23-.2-.3-.48-.17-.63.13-.15.42-.12.65.08.23.2.3.48.17.63Z"/>
          </g>
          <g>
            <path class="cls-5" d="m277.77,104.14c-1.21,1.41-3.34,1.57-4.75.35-1.41-1.21-1.57-3.34-.35-4.75,1.21-1.41,3.34-1.57,4.75-.35,1.41,1.21,1.57,3.34.35,4.75Z"/>
            <path class="cls-8" d="m277.19,101.5c-.24.28-.78.2-1.21-.17s-.58-.89-.34-1.17c.24-.28.78-.2,1.21.17s.58.89.34,1.17Z"/>
            <path class="cls-8" d="m273.83,103.92c-1.41-1.21-1.57-3.34-.35-4.75.07-.08.15-.16.23-.24-.38.19-.74.46-1.04.81-1.21,1.41-1.06,3.54.35,4.75,1.32,1.14,3.28,1.07,4.52-.11-1.18.59-2.65.46-3.71-.46Z"/>
            <path class="cls-13" d="m277.74,102.83c-.08-.16-.31-.09-.76-.25-.35-.12-.46-.26-.88-.36-.11-.02-.22-.03-.34.01-.1.04-.23.15-.24.28-.03.35.89.72,1.34.79.02,0,.03,0,.03,0,.21.03.59.08.77-.14.06-.07.13-.22.08-.34Z"/>
            <path class="cls-13" d="m275.33,102.19c-.13.15-.42.11-.65-.08-.23-.2-.3-.48-.17-.63.13-.15.42-.12.65.08.23.2.3.48.17.63Z"/>
          </g>
          <g>
            <path class="cls-5" d="m236.77,92.16c-1.21,1.41-3.34,1.57-4.75.35s-1.57-3.34-.35-4.75c1.21-1.41,3.34-1.57,4.75-.35,1.41,1.21,1.57,3.34.35,4.75Z"/>
            <path class="cls-8" d="m236.19,89.52c-.24.28-.78.2-1.21-.17s-.58-.89-.34-1.17c.24-.28.78-.2,1.21.17s.58.89.34,1.17Z"/>
            <path class="cls-8" d="m232.83,91.94c-1.41-1.21-1.57-3.34-.35-4.75.07-.08.15-.16.23-.24-.38.19-.74.46-1.04.81-1.21,1.41-1.06,3.54.35,4.75,1.32,1.14,3.28,1.07,4.52-.11-1.18.59-2.65.46-3.71-.46Z"/>
            <path class="cls-13" d="m236.74,90.85c-.08-.16-.31-.09-.76-.25-.35-.12-.46-.26-.88-.36-.11-.02-.22-.03-.34.01-.1.04-.23.15-.24.28-.03.35.89.72,1.34.79.02,0,.03,0,.03,0,.21.03.59.08.77-.14.06-.07.13-.22.08-.34Z"/>
            <path class="cls-13" d="m234.33,90.21c-.13.15-.42.12-.65-.08-.23-.2-.3-.48-.17-.63.13-.15.42-.11.65.08.23.2.3.48.17.63Z"/>
          </g>
          <g>
            <path class="cls-5" d="m221.17,99.16c-1.21,1.41-3.34,1.57-4.75.35-1.41-1.21-1.57-3.34-.35-4.75,1.21-1.41,3.34-1.57,4.75-.35,1.41,1.21,1.57,3.34.35,4.75Z"/>
            <path class="cls-8" d="m220.59,96.52c-.24.28-.78.2-1.21-.17s-.58-.89-.34-1.17c.24-.28.78-.2,1.21.17s.58.89.34,1.17Z"/>
            <path class="cls-8" d="m217.23,98.94c-1.41-1.21-1.57-3.34-.35-4.75.07-.08.15-.16.23-.24-.38.19-.74.46-1.04.81-1.21,1.41-1.06,3.54.35,4.75,1.32,1.14,3.28,1.07,4.52-.11-1.18.59-2.65.46-3.71-.46Z"/>
            <path class="cls-13" d="m221.13,97.85c-.08-.16-.31-.09-.76-.25-.35-.12-.46-.26-.88-.36-.11-.02-.22-.03-.34.01-.1.04-.23.15-.24.28-.03.35.89.72,1.34.79.02,0,.03,0,.03,0,.21.03.59.08.77-.14.06-.07.13-.22.08-.34Z"/>
            <path class="cls-13" d="m218.72,97.21c-.13.15-.42.12-.65-.08-.23-.2-.3-.48-.17-.63.13-.15.42-.12.65.08s.3.48.17.63Z"/>
          </g>
          <g>
            <path class="cls-5" d="m181.2,95.35c-1.21,1.41-3.34,1.57-4.75.35-1.41-1.21-1.57-3.34-.35-4.75,1.21-1.41,3.34-1.57,4.75-.35,1.41,1.21,1.57,3.34.35,4.75Z"/>
            <path class="cls-8" d="m180.62,92.7c-.24.28-.78.2-1.21-.17-.43-.37-.58-.89-.34-1.17.24-.28.78-.2,1.21.17.43.37.58.89.34,1.17Z"/>
            <path class="cls-8" d="m177.26,95.13c-1.41-1.21-1.57-3.34-.35-4.75.07-.08.15-.16.23-.24-.38.19-.74.46-1.04.81-1.21,1.41-1.06,3.54.35,4.75,1.32,1.14,3.28,1.07,4.52-.11-1.18.59-2.65.46-3.71-.46Z"/>
            <path class="cls-13" d="m181.16,94.03c-.08-.16-.31-.09-.76-.25-.35-.12-.46-.26-.88-.36-.11-.02-.22-.03-.34.01-.1.04-.23.15-.24.28-.03.35.89.72,1.34.79.02,0,.03,0,.03,0,.21.03.59.08.77-.14.06-.07.13-.22.08-.34Z"/>
            <path class="cls-13" d="m178.75,93.39c-.13.15-.42.12-.65-.08-.23-.2-.3-.48-.17-.63.13-.15.42-.12.65.08.23.2.3.48.17.63Z"/>
          </g>
          <g>
            <path class="cls-5" d="m123.94,73.04c-1.21,1.41-3.34,1.57-4.75.35-1.41-1.21-1.57-3.34-.35-4.75,1.21-1.41,3.34-1.57,4.75-.35,1.41,1.21,1.57,3.34.35,4.75Z"/>
            <path class="cls-8" d="m123.36,70.39c-.24.28-.78.2-1.21-.17-.43-.37-.58-.89-.34-1.17.24-.28.78-.2,1.21.17s.58.89.34,1.17Z"/>
            <path class="cls-8" d="m120,72.82c-1.41-1.21-1.57-3.34-.35-4.75.07-.08.15-.16.23-.24-.38.19-.74.46-1.04.81-1.21,1.41-1.06,3.54.35,4.75,1.32,1.14,3.28,1.07,4.52-.11-1.18.59-2.65.46-3.71-.46Z"/>
            <path class="cls-13" d="m123.91,71.72c-.08-.16-.31-.09-.76-.25-.35-.12-.46-.26-.88-.36-.11-.02-.22-.03-.34.01-.1.04-.23.15-.24.28-.03.35.89.72,1.34.79.02,0,.03,0,.03,0,.21.03.59.08.77-.14.06-.07.13-.22.08-.34Z"/>
            <path class="cls-13" d="m121.49,71.08c-.13.15-.42.12-.65-.08-.23-.2-.3-.48-.17-.63.13-.15.42-.12.65.08s.3.48.17.63Z"/>
          </g>
          <g>
            <path class="cls-5" d="m75.92,49.58c-1.21,1.41-3.34,1.57-4.75.35-1.41-1.21-1.57-3.34-.35-4.75s3.34-1.57,4.75-.35c1.41,1.21,1.57,3.34.35,4.75Z"/>
            <path class="cls-8" d="m75.34,46.94c-.24.28-.78.2-1.21-.17-.43-.37-.58-.89-.34-1.17.24-.28.78-.2,1.21.17s.58.89.34,1.17Z"/>
            <path class="cls-8" d="m71.98,49.36c-1.41-1.21-1.57-3.34-.35-4.75.07-.08.15-.16.23-.24-.38.19-.74.46-1.04.81-1.21,1.41-1.06,3.54.35,4.75,1.32,1.14,3.28,1.07,4.52-.11-1.18.59-2.65.46-3.71-.46Z"/>
            <path class="cls-13" d="m75.88,48.27c-.08-.16-.31-.09-.76-.25-.35-.12-.46-.26-.88-.36-.11-.02-.22-.03-.34.01-.1.04-.23.15-.24.28-.03.35.89.72,1.34.79.02,0,.03,0,.03,0,.21.03.59.08.77-.14.06-.07.13-.22.08-.34Z"/>
            <path class="cls-13" d="m73.47,47.63c-.13.15-.42.12-.65-.08-.23-.2-.3-.48-.17-.63.13-.15.42-.12.65.08s.3.48.17.63Z"/>
          </g>
          <g>
            <path class="cls-5" d="m100.1,60.86c-1.21,1.41-3.34,1.57-4.75.35-1.41-1.21-1.57-3.34-.35-4.75,1.21-1.41,3.34-1.57,4.75-.35,1.41,1.21,1.57,3.34.35,4.75Z"/>
            <path class="cls-8" d="m99.52,58.21c-.24.28-.78.2-1.21-.17s-.58-.89-.34-1.17c.24-.28.78-.2,1.21.17s.58.89.34,1.17Z"/>
            <path class="cls-8" d="m96.16,60.64c-1.41-1.21-1.57-3.34-.35-4.75.07-.08.15-.16.23-.24-.38.19-.74.46-1.04.81-1.21,1.41-1.06,3.54.35,4.75,1.32,1.14,3.28,1.07,4.52-.11-1.18.59-2.65.46-3.71-.46Z"/>
            <path class="cls-13" d="m100.07,59.54c-.08-.16-.31-.09-.76-.25-.35-.12-.46-.26-.88-.36-.11-.02-.22-.03-.34.01-.1.04-.23.15-.24.28-.03.35.89.72,1.34.79.02,0,.03,0,.03,0,.21.03.59.08.77-.14.06-.07.13-.22.08-.34Z"/>
            <path class="cls-13" d="m97.65,58.91c-.13.15-.42.12-.65-.08-.23-.2-.3-.48-.17-.63.13-.15.42-.12.65.08.23.2.3.48.17.63Z"/>
          </g>
          <g class="cls-11">
            <path class="cls-18" d="m302.17,91.09s4.36,6.38,1.75,6.43-5.91-6.52-1.75-6.43Z"/>
            <path class="cls-18" d="m294.25,94.35c1.99-.89,5.08,1.92,4.75,3.26-.06.26-.25.42-.37.52-1.45,1.23-5.42.06-5.7-1.69-.13-.82.54-1.74,1.31-2.09Z"/>
            <path class="cls-18" d="m281.68,98.65c1.46-.08,3.27,3.68,2.37,4.75-.04.05-.14.17-.31.22-1.15.33-3.72-2.95-2.91-4.4.16-.28.48-.55.85-.57Z"/>
            <path class="cls-18" d="m265.32,93.39c1.28-.7,4.53,1.94,4.17,3.29-.02.07-.06.21-.19.33-.9.79-4.62-1.09-4.5-2.74.02-.32.2-.7.52-.88Z"/>
            <path class="cls-18" d="m256.09,94.53c1.28-.7,4.53,1.94,4.17,3.29-.02.07-.06.21-.19.33-.9.79-4.62-1.09-4.5-2.74.02-.32.2-.7.52-.88Z"/>
            <path class="cls-18" d="m242.22,92.88c1.28-.7,4.53,1.94,4.17,3.29-.02.07-.06.21-.19.33-.9.79-4.62-1.09-4.5-2.74.02-.32.2-.7.52-.88Z"/>
            <path class="cls-18" d="m229.47,93.72c1.28-.7,4.53,1.94,4.17,3.29-.02.07-.06.21-.19.33-.9.79-4.62-1.09-4.5-2.74.02-.32.2-.7.52-.88Z"/>
            <path class="cls-18" d="m217.2,90.6c1.28-.7,4.53,1.94,4.17,3.29-.02.07-.06.21-.19.33-.9.79-4.62-1.09-4.5-2.74.02-.32.2-.7.52-.88Z"/>
            <path class="cls-18" d="m203.36,95.69c1.28-.69,4.53,1.94,4.17,3.29-.02.07-.06.21-.19.33-.9.79-4.62-1.09-4.5-2.74.02-.32.2-.7.52-.88Z"/>
            <path class="cls-18" d="m188.52,95.22c1.28-.7,4.53,1.94,4.17,3.29-.02.07-.06.21-.19.33-.9.79-4.62-1.09-4.5-2.74.02-.32.2-.7.52-.88Z"/>
            <path class="cls-18" d="m168.15,91.61c1.28-.7,4.53,1.94,4.17,3.29-.02.07-.06.21-.19.33-.9.79-4.62-1.09-4.5-2.74.02-.32.2-.7.52-.88Z"/>
            <path class="cls-18" d="m155.56,85.39c1.39.43,1.8,4.58.58,5.28-.06.03-.19.11-.37.09-1.2-.09-2.47-4.06-1.21-5.13.25-.21.64-.35.99-.24Z"/>
            <path class="cls-18" d="m146.82,80.36c1.23.78.51,4.9-.85,5.24-.07.02-.21.05-.38,0-1.13-.41-1.3-4.57.2-5.27.29-.14.71-.17,1.02.03Z"/>
            <path class="cls-18" d="m140.29,77.51c-.33,1.42-4.45,2.11-5.23.95-.04-.06-.12-.18-.12-.36,0-1.2,3.87-2.75,5.04-1.56.23.23.39.61.31.97Z"/>
            <path class="cls-18" d="m127.85,74.84c-.33,1.42-4.45,2.11-5.23.95-.04-.06-.12-.18-.12-.36,0-1.2,3.87-2.75,5.04-1.56.23.23.39.61.31.97Z"/>
            <path class="cls-18" d="m110.9,66.89c-.85,1.18-4.92.22-5.19-1.15-.01-.07-.04-.22.03-.38.47-1.1,4.64-1.03,5.25.51.12.3.13.72-.09,1.02Z"/>
            <path class="cls-18" d="m92.41,62.44c-.85,1.18-4.92.22-5.19-1.15-.01-.07-.04-.22.03-.38.47-1.1,4.64-1.03,5.25.51.12.3.13.72-.09,1.02Z"/>
            <path class="cls-18" d="m80.95,54.45c-.85,1.18-4.92.22-5.19-1.15-.01-.07-.04-.22.03-.38.47-1.1,4.64-1.03,5.25.51.12.3.13.72-.09,1.02Z"/>
            <path class="cls-18" d="m67.9,47.93c-.85,1.18-4.92.22-5.19-1.15-.01-.07-.04-.22.03-.38.47-1.1,4.64-1.03,5.25.51.12.3.13.72-.09,1.02Z"/>
            <path class="cls-18" d="m288.31,97.55c1.46-.08,3.27,3.68,2.37,4.75-.04.05-.14.17-.31.22-1.15.33-3.72-2.95-2.91-4.4.16-.28.48-.55.85-.57Z"/>
          </g>
          <path class="cls-9" d="m273.51,84.91c-1.12,5.91-1.68,10.86-2,14.56-.27,3.24-.34,5.37,1.1,6.84,2.25,2.29,6.41,1.18,6.85,1.05,4.59-1.3,6.32-5.96,6.49-6.56.71-2.54-.54-4.79-.08-7.57.82-4.87-1.68-14.62-10.66-19.59-3.16-1.75-6.39-2.31-9.4-1.83-3.47.55-4.05,2.59-12.62,12.09-5.46,6.05-7.79,8.15-7.36,11.18.34,2.39,2,2.52,2.52,5.62.48,2.82-.73,3.65-1.29,8.83-.36,3.37-.52,5.08.56,6.52,1.2,1.61,3.57,2.47,5.51,2.01,1.69-.4,3.27-1.85,5.36-7.28,3.51-9.14,1.92-12.58,4.56-17.42,1.37-2.5,4.14-5.87,10.46-8.44Z"/>
          <path class="cls-9" d="m97.17,35.4s-15.8,11.59-10.29,18.86c5.51,7.28-1.1,4.24-2.41,6.33-1.31,2.09-10.1,7.96-6.92,10.26,3.18,2.3-2.15,16.32,3.98,12.44,6.14-3.88.22-9.67,10.13-10.08,9.91-.41,10.02.67,9.09-6.42-.93-7.08-2.69-5.17,2.47-7.86,5.17-2.69,16.68-7.11,12.63-12.79s-18.69-10.74-18.69-10.74Z"/>
          <path class="cls-9" d="m171.01,71.27s-1.63,9.73-6.54,17.18c-4.91,7.45-7.1,5.06-6.52,13.05s-2.67,1.57-1.01,9.45c1.66,7.88,1.08-.11,7.66-3.81s14.06-2.93,12.4-10.81c-1.66-7.88,2.04-1.29,4.3-11.31s-10.3-13.76-10.3-13.76Z"/>
        </g>
        <g>
          <path class="cls-4" d="m330.68,90.54c-1.94.33-4.05.61-6.29.79-5.72.46-7.95-.04-20.05-.38-16.01-.45-14.22.39-18.52-.32-12.86-2.1-15.19-7.32-22.74-5.55-6.21,1.46-7.09,5.58-12.31,5.15-5.41-.44-5.83-4.98-12.15-6.18-5.68-1.08-6.41,2.4-13.54,1.58-5.22-.6-7.08-2.72-10.81-1.53-2.75.88-3.2,2.51-5.68,4.05-2.42,1.5-6.44,2.72-13.38,1.01-.57-.14-1.1-.41-1.55-.79-2.61-2.2-5.84-4.37-9.8-6.01-6.41-2.65-9.06-1.55-16.97-4.39-5.97-2.14-4.92-2.94-11.41-5.38-9.35-3.52-11.38-1.83-16.17-5.12-5.57-3.83-3.82-6.82-8.79-9.56-6.57-3.62-11.22.7-16.86-3.31-4.02-2.86-2.33-5.54-6.25-8.07-5.4-3.5-9.79.83-17.2-2.41-3.66-1.6-2.53-2.62-8.01-6.16-2.28-1.47-7.93-5.1-15.66-6.48-6.38-1.13-9.46.11-11.99-2.49-.02-.02-.04-.04-.06-.06-2.27-2.4-.34-6.35,2.96-6.14,47.25,3.06,94.51,6.13,141.76,9.19,0,0,0,0,.02,0,.74.12,26.1,4.07,40.64,10.41.32.14.64.28.95.42,30.24,13.57,60.49,27.14,90.73,40.71,3.31,1.48,2.7,6.36-.88,6.98Z"/>
          <path class="cls-12" d="m332.75,85.19s-.03.01-.05.01c-1.98.43-4.12.81-6.4,1.09-5.81.71-8.05.24-20.3.3-16.22.08-14.43.93-18.76.31-12.96-1.84-15.14-7.47-22.85-5.26-6.35,1.82-7.39,6.35-12.66,6.07-5.47-.29-5.74-5.24-12.09-6.32-5.72-.97-6.58,2.85-13.78,2.21-5.27-.47-7.08-2.72-10.9-1.28-2.82,1.07-3.33,2.86-5.9,4.63-2.5,1.72-6.62,3.2-13.59,1.58-.57-.13-1.1-.41-1.54-.81-2.57-2.31-5.77-4.57-9.72-6.22-6.41-2.67-9.13-1.38-17.04-4.19-5.97-2.13-4.89-3.03-11.38-5.48-9.35-3.52-11.47-1.59-16.21-5.02-5.51-3.99-3.62-7.32-8.57-10.14-6.53-3.72-11.4,1.17-16.97-3.02-3.97-2.98-2.16-5.97-6.04-8.6-5.35-3.64-9.96,1.25-17.35-2.02-3.65-1.62-2.47-2.78-7.9-6.45-2.26-1.52-7.85-5.3-15.64-6.52-6.43-1.01-9.6.46-12.07-2.3-.02-.02-.04-.04-.05-.06-.06-.07-.1-.14-.16-.21.55-3.03.5-3.89.27-3.96-.74-.23-5.36,7.5-2.59,10.68.02.02.03.04.05.06,2.47,2.76,5.64,1.29,12.07,2.3,7.79,1.23,13.38,5,15.64,6.52,5.43,3.67,4.25,4.83,7.9,6.45,7.4,3.27,12-1.62,17.35,2.02,3.88,2.63,2.07,5.62,6.04,8.6,5.57,4.19,10.45-.7,16.97,3.02,4.94,2.82,3.06,6.14,8.57,10.14,4.74,3.43,6.86,1.5,16.21,5.02,6.49,2.44,5.4,3.35,11.38,5.48,7.91,2.82,10.64,1.52,17.04,4.19,3.95,1.65,7.15,3.91,9.72,6.22.44.4.97.68,1.54.81,6.97,1.62,11.09.14,13.59-1.58,2.57-1.77,3.09-3.57,5.9-4.63,3.82-1.44,5.64.81,10.9,1.28,7.2.65,8.06-3.18,13.78-2.21,6.35,1.08,6.62,6.03,12.09,6.32,5.28.28,6.32-4.25,12.66-6.07,7.71-2.21,9.89,3.42,22.85,5.26,4.33.62,2.54-.23,18.76-.31,12.25-.06,14.49.41,20.3-.3,2.28-.28,4.42-.66,6.4-1.09,2.99-.66,4.06-4.38,2.52-6.52Z"/>
        </g>
        <path class="cls-9" d="m35.95,92.72s5.94-4.55,13.26-3.89c7.32.66,8.88-3.43,14.1-.59,5.23,2.84,22.92,13.83,14.69,11.12-8.22-2.7-6.44-6.28-11.02,1.34s-2.55,6.69-13.29,7.28c-10.74.59-10.71,2.73-15.74,3.79-5.03,1.06-17.47.58-19.22-4.76-1.75-5.35,12.55-2.03,14.78-4.58,2.23-2.55-3.67-6.93,2.43-9.71Z"/>
        <path class="cls-9" d="m140.75,40.6c-.19.5-1.96.29-3.96-.47-2-.76-3.46-1.78-3.27-2.28s1.96-.29,3.96.47c2,.76,3.46,1.78,3.27,2.28Z"/>
        <path class="cls-3" d="m176.95,44.8c-.14.37-.87.45-1.61.16-.75-.29-1.24-.82-1.1-1.19.14-.37.87-.45,1.61-.16.75.29,1.24.82,1.1,1.19Z"/>
        <path class="cls-3" d="m194.44,58.7c-.14.37-.87.45-1.61.16-.75-.29-1.24-.82-1.1-1.19s.87-.45,1.61-.16c.75.29,1.24.82,1.1,1.19Z"/>
        <path class="cls-3" d="m92.13,29.6c-.14.37-.87.45-1.61.16-.75-.29-1.24-.82-1.1-1.19.14-.37.87-.45,1.61-.16.75.29,1.24.82,1.1,1.19Z"/>
        <path class="cls-3" d="m107.55,38.06c-.14.37-.87.45-1.61.16-.75-.29-1.24-.82-1.1-1.19.14-.37.87-.45,1.61-.16.75.29,1.24.82,1.1,1.19Z"/>
        <path class="cls-3" d="m150.5,32.66c-.14.37-.87.45-1.61.16-.75-.29-1.24-.82-1.1-1.19.14-.37.87-.45,1.61-.16.75.29,1.24.82,1.1,1.19Z"/>
        <path class="cls-3" d="m157.49,52.4c-.14.37-.87.45-1.61.16-.75-.29-1.24-.82-1.1-1.19.14-.37.87-.45,1.61-.16.75.29,1.24.82,1.1,1.19Z"/>
        <path class="cls-3" d="m213.61,39.59c-.14.37-.87.45-1.61.16-.75-.29-1.24-.82-1.1-1.19.14-.37.87-.45,1.61-.16.75.29,1.24.82,1.1,1.19Z"/>
        <path class="cls-3" d="m232.53,74.23c-.14.37-.87.45-1.61.16-.75-.29-1.24-.82-1.1-1.19.14-.37.87-.45,1.61-.16.75.29,1.24.82,1.1,1.19Z"/>
        <path class="cls-3" d="m136.84,48.17c-.14.37-.87.45-1.61.16-.75-.29-1.24-.82-1.1-1.19.14-.37.87-.45,1.61-.16.75.29,1.24.82,1.1,1.19Z"/>
        <path class="cls-3" d="m255.44,79.33c-.14.37-.87.45-1.61.16-.75-.29-1.24-.82-1.1-1.19.14-.37.87-.45,1.61-.16.75.29,1.24.82,1.1,1.19Z"/>
        <path class="cls-3" d="m302.96,78.26c-.14.37-.87.45-1.61.16-.75-.29-1.24-.82-1.1-1.19.14-.37.87-.45,1.61-.16.75.29,1.24.82,1.1,1.19Z"/>
        <path class="cls-3" d="m282.98,76.35c-.14.37-.87.45-1.61.16-.75-.29-1.24-.82-1.1-1.19.14-.37.87-.45,1.61-.16.75.29,1.24.82,1.1,1.19Z"/>
        <path class="cls-3" d="m247.23,56.01c-.14.37-.87.45-1.61.16-.75-.29-1.24-.82-1.1-1.19.14-.37.87-.45,1.61-.16.75.29,1.24.82,1.1,1.19Z"/>
        <path class="cls-3" d="m221.69,55.09c-.14.37-.87.45-1.61.16-.75-.29-1.24-.82-1.1-1.19.14-.37.87-.45,1.61-.16.75.29,1.24.82,1.1,1.19Z"/>
        <path class="cls-3" d="m213.32,75.72c-.14.37-.87.45-1.61.16-.75-.29-1.24-.82-1.1-1.19s.87-.45,1.61-.16c.75.29,1.24.82,1.1,1.19Z"/>
        <path class="cls-3" d="m166.99,66.89c-.14.37-.87.45-1.61.16-.75-.29-1.24-.82-1.1-1.19.14-.37.87-.45,1.61-.16.75.29,1.24.82,1.1,1.19Z"/>
        <path class="cls-3" d="m268.89,61.67c-.14.37-.87.45-1.61.16-.75-.29-1.24-.82-1.1-1.19s.87-.45,1.61-.16c.75.29,1.24.82,1.1,1.19Z"/>
        <path class="cls-18" d="m252.17,71.61c-.19.5-1.96.29-3.96-.47-2-.76-3.46-1.78-3.27-2.28s1.96-.29,3.96.47,3.46,1.78,3.27,2.28Z"/>
        <path class="cls-18" d="m209.73,64.78c-.19.5-1.96.29-3.96-.47-2-.76-3.46-1.78-3.27-2.28s1.96-.29,3.96.47c2,.76,3.46,1.78,3.27,2.28Z"/>
        <path class="cls-18" d="m178.24,41.4c-.19.5-1.96.29-3.96-.47-2-.76-3.46-1.78-3.27-2.28s1.96-.29,3.96.47c2,.76,3.46,1.78,3.27,2.28Z"/>
        <path class="cls-18" d="m142.33,54.14c-.19.5-1.96.29-3.96-.47-2-.76-3.46-1.78-3.27-2.28.19-.5,1.96-.29,3.96.47,2,.76,3.46,1.78,3.27,2.28Z"/>
        <path class="cls-19" d="m234.16,48.19c-.19.5-1.96.29-3.96-.47-2-.76-3.46-1.78-3.27-2.28.19-.5,1.96-.29,3.96.47,2,.76,3.46,1.78,3.27,2.28Z"/>
        <path class="cls-19" d="m172.43,59.39c-.19.5-1.96.29-3.96-.47-2-.76-3.46-1.78-3.27-2.28.19-.5,1.96-.29,3.96.47s3.46,1.78,3.27,2.28Z"/>
        <path class="cls-19" d="m275.21,73.65c-.19.5-1.96.29-3.96-.47-2-.76-3.46-1.78-3.27-2.28s1.96-.29,3.96.47,3.46,1.78,3.27,2.28Z"/>
        <path class="cls-19" d="m203.6,42.77c-.19.5-1.96.29-3.96-.47s-3.46-1.78-3.27-2.28c.19-.5,1.96-.29,3.96.47,2,.76,3.46,1.78,3.27,2.28Z"/>
        <path class="cls-19" d="m196.81,76.95c-.19.5-1.96.29-3.96-.47s-3.46-1.78-3.27-2.28,1.96-.29,3.96.47,3.46,1.78,3.27,2.28Z"/>
        <path class="cls-19" d="m230.59,60.29c-.19.5-1.96.29-3.96-.47-2-.76-3.46-1.78-3.27-2.28.19-.5,1.96-.29,3.96.47,2,.76,3.46,1.78,3.27,2.28Z"/>
        <g>
          <path class="cls-2" d="m187.3,32.06c-1.61-7.85,5.66-13.92,6.82-14.89,1.85-1.55,3.95-4.22,12.63-5.01,19.28-1.77,19.59-3.63,19.59-3.63,0,0-4.33,8.25-6.45,16.94-1.83,7.51-10.49,18.03-19.59,17.53-5.55-.3-11.73-4.76-13-10.94Z"/>
          <g>
            <path class="cls-2" d="m188.84,42.76s4.66-18.89-8.78-25.69c-13.44-6.8-17.13-17.06-17.13-17.06,0,0-15.18,37.66,2.42,43.52,17.6,5.85,23.49-.76,23.49-.76Z"/>
            <path class="cls-1" d="m163.25,10.24c2.13,5.46,4.88,10.6,8.12,15.39,3.24,4.78,7.02,9.18,11.44,12.84,1.09.95,2.21,1.77,3.41,2.65,1.19.89,2.34,1.8,3.47,2.74,2.26,1.87,4.48,3.88,6.56,5.86,2.02,1.93,4.68,3.01,7.52,3.3,2.84.35,5.75-.08,8.61-.68-2.74,1.03-5.67,1.67-8.68,1.64-1.5-.04-3.02-.29-4.47-.8-1.45-.49-2.83-1.33-3.98-2.3-2.28-1.91-4.42-3.8-6.73-5.57-1.14-.9-2.28-1.8-3.45-2.64-1.16-.84-2.41-1.72-3.53-2.69-4.57-3.83-8.42-8.46-11.47-13.53-3.09-5.03-5.43-10.53-6.83-16.22Z"/>
            <path class="cls-1" d="m159.4,19.9c.79.53,1.55.98,2.39,1.3.83.33,1.66.58,2.52.8.85.21,1.72.36,2.6.49.86.14,1.78.2,2.6.26l-1.01.71c.26-.72.49-1.49.75-2.23l.72-2.26c.22-.76.47-1.51.66-2.28.23-.77.37-1.54.51-2.36h.12c.14,1.61-.11,3.23-.42,4.82-.32,1.59-.74,3.15-1.24,4.69l-.03.08h-.08c-.94-.02-1.86-.15-2.78-.31-.92-.17-1.82-.39-2.7-.69-.88-.31-1.74-.68-2.54-1.15-.79-.49-1.53-1.08-2.15-1.78l.09-.08Z"/>
            <path class="cls-1" d="m163.91,27.93l5.57,1.31c.93.19,1.83.45,2.75.63.91.22,1.83.42,2.74.61l-1.04.36c.5-.6.99-1.4,1.4-2.15.44-.76.78-1.58,1.1-2.4.31-.83.56-1.69.72-2.58.24-.89.23-1.8.31-2.76l.12-.02c.15.93.26,1.87.19,2.82-.04.94-.19,1.88-.45,2.79-.5,1.82-1.34,3.55-2.49,5.06l-.04.06-.07-.02c-1.87-.41-3.71-.92-5.53-1.51-1.81-.6-3.61-1.27-5.33-2.1l.05-.11Z"/>
            <path class="cls-1" d="m168.2,35.47c1.17.24,2.3.49,3.46.67,1.14.23,2.28.41,3.43.53,1.14.16,2.28.27,3.41.36,1.14.11,2.27.11,3.41.15l-.88.49c.12-.2.31-.68.41-1.07.11-.42.22-.85.29-1.3.14-.89.21-1.82.23-2.76.04-.94-.06-1.89-.11-2.86l-.12-1.46c-.07-.48-.11-.97-.15-1.47l.11-.03c.27.94.52,1.89.72,2.85.18.96.34,1.93.4,2.91.07.98.08,1.97-.04,2.95-.12.98-.31,1.95-.78,2.86l-.03.05h-.07c-2.36.01-4.71-.24-7.02-.71-2.31-.47-4.57-1.12-6.74-2.04l.05-.11Z"/>
            <path class="cls-15" d="m176.03,20.37c-.26,2.05-.87,3.66-1.35,3.6-.49-.06-.67-1.78-.41-3.83s.87-3.66,1.35-3.6.67,1.78.41,3.83Z"/>
            <path class="cls-15" d="m180.51,29.66c-.26,2.05-.87,3.66-1.35,3.6-.49-.06-.67-1.78-.41-3.83.26-2.05.87-3.66,1.35-3.6.49.06.67,1.77.41,3.83Z"/>
            <path class="cls-15" d="m170.52,14.9c-.26,2.05-.87,3.66-1.35,3.6-.49-.06-.67-1.78-.41-3.83.26-2.05.87-3.66,1.35-3.6.49.06.67,1.77.41,3.83Z"/>
          </g>
          <path class="cls-1" d="m189.38,39.47c1.56-2.3,3.34-4.41,5.22-6.44,1.87-2.03,3.87-3.95,5.96-5.76,2.12-1.78,4.29-3.51,6.64-4.99,2.34-1.48,4.82-2.82,7.47-3.65-2.29,1.57-4.44,3.22-6.57,4.9-.52.44-1.05.86-1.59,1.28l-1.56,1.31c-1.05.86-2.09,1.74-3.11,2.64-2.08,1.75-4.1,3.58-6.18,5.36-2.06,1.8-4.13,3.59-6.29,5.34Z"/>
          <path class="cls-1" d="m214.59,26.68c-.85.18-1.71.17-2.57.23-.85,0-1.7-.01-2.54-.08-1.69-.1-3.35-.34-5.01-.62l-.84-.14-.03-.83c-.03-.89-.04-1.73,0-2.59.06-.86.12-1.72.28-2.57.14-.85.35-1.7.64-2.53.34-.81.67-1.64,1.26-2.3l.11.05c-.37.74-.58,1.56-.75,2.37-.17.82-.26,1.65-.33,2.48-.13,1.66-.12,3.34-.03,5l-.1-.11c1.64.31,3.29.6,4.94.86,1.65.26,3.3.54,4.97.65v.12Z"/>
          <path class="cls-1" d="m210.04,30.85c-.85.18-1.71.17-2.57.23-.85,0-1.7-.01-2.54-.08-1.69-.1-3.35-.34-5.01-.62l-.84-.14-.03-.83c-.03-.89-.04-1.73,0-2.59.06-.86.12-1.72.28-2.57.14-.85.35-1.7.64-2.53.34-.81.67-1.64,1.26-2.3l.11.05c-.37.75-.58,1.56-.75,2.37-.17.82-.26,1.65-.33,2.48-.13,1.66-.12,3.34-.03,5l-.1-.11c1.64.31,3.29.6,4.94.86,1.65.26,3.3.54,4.97.65v.12Z"/>
          <path class="cls-1" d="m207.98,36.82c-1.17.09-2.33,0-3.49-.06-1.15-.09-2.29-.24-3.43-.4-1.13-.2-2.27-.36-3.39-.61-1.13-.22-2.24-.48-3.35-.77l-.66-.17-.12-.63c-.18-.91-.26-1.78-.31-2.67-.07-.89-.06-1.78,0-2.68.06-.89.17-1.79.42-2.67.26-.86.56-1.75,1.17-2.44l.1.06c-.41.75-.6,1.61-.72,2.45-.12.85-.14,1.72-.12,2.58.04,1.72.26,3.45.59,5.13l-.08-.08,6.69,1.52c2.23.48,4.47.99,6.73,1.32l-.02.12Z"/>
          <g>
            <path class="cls-2" d="m203.16,59.28c-10.23-6.15-13-11.72-13.72-14.63-.21-.85-.25-1.48-.25-1.82,0-.21.01-.32.01-.32,0,0,10.46-13.71,23.56-8.12,13.1,5.59,22.62,2.47,22.62,2.47,0,0-17.22,31.44-32.21,22.43Z"/>
            <path class="cls-1" d="m227.94,42.3c-2.41,1.09-4.97,1.89-7.56,2.58-2.6.67-5.26,1.19-7.95,1.53-2.69.35-5.43.51-8.18.49-2.75-.03-5.51-.27-8.25-.7-2.21-.36-4.42-.9-6.56-1.56-.21-.85-.25-1.48-.25-1.82l1.17.35c.64.19,1.29.34,1.94.52.65.15,1.31.29,1.96.44.66.12,1.31.25,1.97.35,2.64.45,5.3.68,7.98.77,2.67.11,5.34,0,8-.19,1.33-.1,2.66-.25,3.98-.41,1.32-.16,2.64-.36,3.95-.6,2.63-.46,5.24-1.02,7.8-1.75Z"/>
            <path class="cls-1" d="m223.51,50.44c-.89.17-1.82.09-2.73-.06-.9-.2-1.77-.54-2.59-.94-.81-.43-1.59-.91-2.31-1.47-.72-.57-1.4-1.13-2.04-1.85l-.49-.55.39-.59c.41-.64.83-1.22,1.31-1.8.46-.58.95-1.13,1.47-1.65.52-.53,1.08-1.02,1.68-1.46.62-.42,1.24-.84,1.95-1.08l.06.09c-1.19.79-2.17,1.86-3.08,2.96-.91,1.11-1.74,2.28-2.5,3.49v-.12c1.19,1.24,2.54,2.36,4.02,3.27.74.44,1.52.83,2.33,1.14.82.28,1.67.47,2.53.53v.11Z"/>
            <path class="cls-1" d="m215.01,51.74c-.91-.17-1.76-.51-2.64-.81-.85-.34-1.69-.72-2.5-1.14-1.63-.84-3.17-1.83-4.63-2.93l-.5-.38.12-.56c.22-.96.49-1.77.89-2.58.4-.8.88-1.56,1.46-2.24,1.12-1.39,2.69-2.39,4.32-2.87l.05.1c-.72.41-1.43.84-2.04,1.41-.63.54-1.18,1.17-1.66,1.85-.96,1.35-1.64,2.91-1.97,4.51l-.04-.1c1.44,1.08,2.92,2.1,4.44,3.05,1.53.94,3.09,1.83,4.72,2.59l-.04.1Z"/>
            <path class="cls-1" d="m207.03,52.93c-1.09-.3-2.11-.77-3.13-1.25-1.01-.5-1.97-1.09-2.9-1.72-.92-.65-1.83-1.32-2.66-2.1-.85-.75-1.64-1.57-2.38-2.43l-.37-.43.18-.49c.14-.38.25-.54.39-.78.14-.22.28-.42.43-.62.31-.39.65-.73,1-1.05.69-.65,1.47-1.18,2.27-1.63.79-.47,1.63-.82,2.48-1.14.86-.28,1.71-.55,2.6-.71l.04.1c-.81.33-1.62.68-2.4,1.08-.78.41-1.55.83-2.26,1.33-.73.49-1.41,1.04-2.03,1.66-.61.62-1.18,1.31-1.5,2.1l-.02-.1c1.47,1.63,3.06,3.16,4.8,4.51,1.73,1.35,3.58,2.58,5.53,3.58l-.05.1Z"/>
            <path class="cls-15" d="m212.91,39.01c-1.29,1.32-2.05,2.63-1.71,2.94.34.3,1.67-.52,2.95-1.84,1.29-1.32,2.05-2.63,1.71-2.94-.34-.3-1.67.52-2.95,1.84Z"/>
            <ellipse class="cls-15" cx="204.2" cy="41.59" rx="3.34" ry=".83" transform="translate(31.41 158.09) rotate(-45.5)"/>
            <path class="cls-15" d="m220.17,39.82c-1.29,1.32-2.05,2.63-1.71,2.94.34.3,1.67-.52,2.95-1.84,1.29-1.32,2.05-2.63,1.71-2.94-.34-.3-1.67.52-2.95,1.84Z"/>
          </g>
        </g>
        <g>
          <path class="cls-5" d="m187.05,43.08c3.36,3.24,3.34,8.73-.06,12.26s-8.88,3.77-12.25.53c-3.36-3.24-3.34-8.73.06-12.26s8.88-3.77,12.25-.53Z"/>
          <path class="cls-8" d="m186.02,52.39c-3.4,3.53-8.88,3.77-12.25.53-.59-.57-1.08-1.22-1.46-1.91.24,1.8,1.04,3.52,2.43,4.86,3.36,3.24,8.85,3,12.25-.53,2.8-2.91,3.31-7.14,1.53-10.35.34,2.57-.5,5.33-2.49,7.4Z"/>
          <path class="cls-13" d="m178.72,43.94c.12.09,4.76.54,6.7,1.6,1.94,1.06,3.57-.2.23-2-3.34-1.8-9.21-1.19-6.93.4Z"/>
          <path class="cls-13" d="m181,45.74c-.07-.1-.15-.22-.12-.32.15-.42,2.23-.23,3.62.86.09.07.59.46.52.6-.07.14-.65-.15-1.78-.39-1.21-.26-1.87-.22-2.24-.74Z"/>
          <path class="cls-7" d="m176.59,44.84s-3.07-2.96-4.45-3.07l1.01-1.05,3.84,3.7-.4.42Z"/>
          <path class="cls-17" d="m173.9,43.88s-2.33.44-2.13,2.59c.19,2.14-.51,3.59-.51,3.59,0,0,1.1-.24,1.81-1.52.71-1.28.88-2.9,1.64-3.15.76-.25-.19,1.28-.05,2.4.14,1.11.37,2.32-.21,2.74,0,0,1.62-.07,2.05-1.77.43-1.71-.33-3.08.33-3.59,0,0,.83-.5,1.84.79,1.01,1.3,2.63,1.23,2.63,1.23,0,0-.42-1.55-1.68-2.76-1.26-1.21-2.28-1.05-2.28-1.05,0,0,1.32-1.01,2.72-.48,1.4.53,2.67-1.51,2.67-1.51,0,0-1.34.67-2.4-.03-1.06-.7-3.13.73-3.13.73,0,0,1.95-2.03,3.67-2.01,1.71.02.98-1.02.98-1.02,0,0,.03.69-1.79.24s-5.13,3.7-5.13,3.7l-1.03.89Z"/>
        </g>
      </g>
    </g>
  </g>
</svg>