<?xml version="1.0" encoding="UTF-8"?>
<svg id="Calque_2" data-name="Calque 2" xmlns="http://www.w3.org/2000/svg" viewBox="0 0 259.88 205.48">
  <defs>
    <style>
      .cls-1 {
        fill: #a8d4e5;
      }

      .cls-2 {
        fill: #489776;
      }

      .cls-3 {
        fill: #f8fdff;
      }

      .cls-4 {
        fill: #ef9f48;
      }

      .cls-5 {
        fill: #f7aa4e;
      }

      .cls-6 {
        fill: #f8da9c;
      }

      .cls-7 {
        fill: #d8f2ff;
      }

      .cls-8 {
        fill: #5db991;
      }

      .cls-9 {
        fill: #f0ba74;
      }

      .cls-10 {
        fill: #5bce99;
      }

      .cls-11 {
        fill: none;
        opacity: .53;
      }

      .cls-12 {
        fill: #ffc782;
      }

      .cls-13 {
        fill: #fd7a56;
      }

      .cls-14 {
        fill: #ffe9ba;
      }
    </style>
  </defs>
  <g id="Layer_1" data-name="Layer 1">
    <g id="nachos">
      <g>
        <path class="cls-7" d="m244.97,147.25c-.27,9.87-5.74,19.02-15.15,26.86-11.51,9.6-28.93,17.24-49.93,21.91-16.86,3.75-36.02,5.58-56.3,4.96-39.31-1.2-73.93-11.32-95.39-25.99-6.21-4.24-11.32-8.86-15.12-13.76,0,0-.02-.02-.03-.04-5.16-6.65-7.91-13.81-7.71-21.22v-.04c.86-31.7,55.21-55.76,121.38-53.74,61.26,1.87,111.18,25.43,117.56,54.07.53,2.3.75,4.63.69,6.99Z"/>
        <ellipse class="cls-1" cx="123" cy="143.5" rx="23.67" ry="72.4" transform="translate(-24.23 262) rotate(-88.23)"/>
        <path class="cls-7" d="m187.36,190.72c-18.63,3.7-39.8,5.47-62.22,4.78-41.29-1.26-77.92-10.57-101.86-24.14,1.55,1.24,3.19,2.45,4.92,3.63,21.47,14.67,56.09,24.79,95.39,25.99,20.28.62,39.44-1.21,56.3-4.96,15.01-3.34,28.17-8.2,38.67-14.2-9.22,3.61-19.72,6.62-31.2,8.9Z"/>
        <path class="cls-3" d="m199.31,167.79c-6.19,2.29-10.43,3.19-17.7,7.04-4.03,2.14-6.74,3.99-6.75,6.31,0,2.61,3.4,4.58,4.26,5.07,10.72,6.16,26.84-4.1,32.86-7.93,4.17-2.66,13.38-8.52,12.33-13.06-.47-2.03-2.81-3.03-3.74-3.43-5.39-2.31-9.33,1.59-21.26,5.99Z"/>
      </g>
      <g>
        <path class="cls-4" d="m72.93,158.04c-1.42-.23-2.71-1.21-3.19-2.81-1.34-5.08-2.76-10.4-4.34-16.16-.67-2.45-1.28-4.67-2.23-7.27h0c-.22-.63-.47-1.27-.74-1.95-1.22-3.05-1.77-3.78-2.68-6.08-.98-2.46-2.16-6.18-2.67-11.17-.05-.17-.57-2.04.71-3.64.78-.97,2-1.59,3.4-1.49,6.97,1.15,12.43.99,16.19.62,4.03-.4,6.61-1.1,11.03-.51.69.09,1.29.2,8.17,1.56.32.06.65.13.98.19,1.55.31,3.11.61,4.5.89,1.44.1,2.73.97,3.35,2.28.62,1.31.49,2.85-.35,4.03-1.12,2.15-2.12,4.01-2.94,5.49-2.44,4.42-3.33,5.74-4.72,7.09-1.16,1.14-1.28.94-2.54,2.14-2.7,2.57-4.03,5.23-4.49,6.12-1.35,2.56-4.73,7.72-13.51,19.04-.88,1.25-2.41,1.89-3.92,1.64Z"/>
        <path class="cls-12" d="m92.94,118.17c-1.34-.31-2.33-1-2.2-1.53.12-.54,1.31-.72,2.65-.41,1.34.31,2.33,1,2.2,1.53-.12.54-1.31.72-2.65.41Z"/>
        <path class="cls-12" d="m84.32,122.99c-1.34-.31-2.33-1-2.2-1.53.12-.54,1.31-.72,2.65-.41,1.34.31,2.33,1,2.2,1.53-.12.54-1.31.72-2.65.41Z"/>
        <path class="cls-12" d="m70.29,141.41c-.97-.98-1.44-2.08-1.05-2.47.39-.39,1.49.09,2.46,1.07s1.44,2.08,1.05,2.47c-.39.39-1.49-.09-2.46-1.07Z"/>
        <path class="cls-12" d="m73.07,129.43c-.97-.98-1.44-2.08-1.05-2.47.39-.39,1.49.09,2.46,1.07s1.44,2.08,1.05,2.47c-.39.39-1.49-.09-2.46-1.07Z"/>
        <path class="cls-12" d="m66.93,114.11c-1.15-.75-1.84-1.74-1.54-2.2.3-.46,1.48-.23,2.63.53,1.15.75,1.84,1.74,1.54,2.2-.3.46-1.48.23-2.63-.53Z"/>
        <path class="cls-12" d="m86.52,134.02c-1.15-.75-1.84-1.74-1.54-2.2.3-.46,1.48-.23,2.63.53,1.15.75,1.84,1.74,1.54,2.2-.3.46-1.48.23-2.63-.53Z"/>
        <path class="cls-12" d="m82.33,114.68c-.72-.17-1.35-.08-1.41.18s.47.62,1.18.79c.72.17,1.35.08,1.41-.18.06-.27-.47-.62-1.18-.79Z"/>
        <path class="cls-12" d="m81.89,138.58c-.43-.59-.96-.95-1.18-.78-.22.16-.05.77.38,1.37.43.59.96.95,1.18.78.22-.16.05-.77-.38-1.37Z"/>
        <path class="cls-12" d="m65.87,120.88c-.43-.59-.96-.95-1.18-.78-.22.16-.05.77.38,1.37.43.59.96.95,1.18.78s.05-.77-.38-1.37Z"/>
        <path class="cls-12" d="m75.55,145.3c-.43-.59-.96-.95-1.18-.78-.22.16-.05.77.38,1.37.43.59.96.95,1.18.78s.05-.77-.38-1.37Z"/>
        <path class="cls-12" d="m91.18,124.93c-.72-.12-1.35,0-1.39.27-.05.27.5.59,1.23.72.72.12,1.35,0,1.39-.27.05-.27-.5-.59-1.23-.72Z"/>
        <path class="cls-12" d="m80.78,130.14c-.43-.59-.96-.95-1.18-.78-.22.16-.05.77.38,1.37.43.59.96.95,1.18.78s.05-.77-.38-1.37Z"/>
        <g class="cls-11">
          <path class="cls-12" d="m72.93,158.04c-1.42-.23-2.71-1.21-3.19-2.81-1.34-5.08-2.76-10.4-4.34-16.16-.67-2.45-1.28-4.67-2.23-7.27.3.39.73.97,1.2,1.69,1.88,2.88,5.27,9.35,6.27,15.33.09.56.28,1.84,1.06,2.11.75.26,1.72-.62,2.5-1.28,1.27-1.07,4.12-4.5,6.34-6.72,2.22-2.21,4.99-5.32,6.81-7.29,1.82-1.96,1.85-5.03,8.07-14.16,6.22-9.13,2.14-12.16,2.14-12.16,1.55.31,3.11.61,4.5.89,1.44.1,2.73.97,3.35,2.28.62,1.31.49,2.85-.35,4.03-1.12,2.15-2.12,4.01-2.94,5.49-2.44,4.42-3.33,5.74-4.72,7.09-1.16,1.14-1.28.94-2.54,2.14-2.7,2.57-4.03,5.23-4.49,6.12-1.35,2.56-4.73,7.72-13.51,19.04-.88,1.25-2.41,1.89-3.92,1.64Z"/>
        </g>
      </g>
      <path class="cls-9" d="m101.99,137.57l.02.83c.05,2.37,1.52,4.47,3.73,5.33,8.08,3.14,28.6,8.96,51.52-1.17,2.16-.95,3.53-3.12,3.47-5.48l-.07-3.21c-.07-3.35-2.94-5.96-6.29-5.72l-46.95,3.45c-3.11.23-5.5,2.85-5.43,5.97Z"/>
      <path class="cls-6" d="m201.16,80.69c-11.37,35.19-38.06,60.13-69.71,60.81-31.65.68-59.4-23.08-72.27-57.75l141.98-3.06Z"/>
      <path class="cls-9" d="m202.67,74.12c.05,2.15-.35,4.27-1.15,6.33-1.33,3.42-3.77,6.67-7.15,9.68-1.86,1.66-4,3.25-6.4,4.74-13.12,8.19-33.82,13.72-57.22,14.23-4.12.09-8.17.02-12.11-.21-12.27-.68-23.54-2.79-32.97-5.98-4.06-1.38-7.78-2.95-11.09-4.69h0c-3.64-1.92-6.78-4.03-9.34-6.31-.48-.42-.93-.85-1.37-1.29-4.06-4.04-6.37-8.56-6.47-13.37-.27-12.56,14.54-23.82,36.68-30,5.51-1.54,11.49-2.77,17.79-3.63,2.55-.35,5.16-.63,7.81-.85.07,0,.16-.01.23-.02,3.08-.25,6.22-.41,9.41-.48,13.16-.29,25.54,1.06,36.25,3.64,5.91,1.43,11.31,3.23,16.05,5.35,12.85,5.74,20.86,13.79,21.05,22.84Z"/>
      <path class="cls-14" d="m181.75,104.79s-12.16,22.33-21.29,23.33c-9.13,1,19.48-32.44,21.29-23.33Z"/>
      <path class="cls-14" d="m161.16,113.76s-6.66,14.25-12.69,15.55c-6.03,1.3,10.88-20.84,12.69-15.55Z"/>
      <path class="cls-6" d="m161.34,50.43c2.2-1.56,5.17-.65,7.08.03,6.45,2.3,18.49,8.29,17.56,11.25-.27.86-1.51,1.09-2.71,1.32-3.89.73-6.43-1.23-12.51-4.32-7.13-3.63-10.88-4.61-10.78-6.47.04-.87.9-1.48,1.36-1.81Z"/>
      <path class="cls-6" d="m156.3,47.75c-2.21-3.1-9.39-1.66-9.95.43-.17.61.26,1.2.58,1.66,2.18,3.07,8.22,3.69,9.7,1.49.68-1.02.37-2.6-.33-3.57Z"/>
      <g>
        <path class="cls-5" d="m259.87,136.48c.1,1.55-.59,3.15-2.11,4.05-4.86,2.65-9.95,5.45-15.46,8.53-2.34,1.3-4.46,2.49-6.89,4.13h0c-.58.39-1.18.81-1.81,1.26-2.82,2.03-3.44,2.79-5.57,4.31-2.28,1.63-5.79,3.78-10.76,5.54-.16.09-1.95,1.1-3.89.14-1.18-.58-2.09-1.72-2.33-3.21-.48-7.62-1.93-13.33-3.21-17.2-1.36-4.15-2.69-6.69-3.13-11.5-.07-.75-.1-1.41-.35-8.98-.01-.36-.02-.72-.03-1.08-.06-1.71-.11-3.43-.16-4.95-.24-1.54.34-3.11,1.53-4.08,1.19-.98,2.79-1.21,4.2-.62,2.46.65,4.59,1.25,6.3,1.75,5.09,1.49,6.64,2.11,8.35,3.23,1.43.95,1.26,1.12,2.78,2.16,3.26,2.22,6.29,2.96,7.31,3.23,2.93.79,8.99,3.09,22.62,9.57,1.49.63,2.5,2.08,2.6,3.73Z"/>
        <ellipse class="cls-12" cx="213.42" cy="125.16" rx="1.04" ry="2.69"/>
        <ellipse class="cls-12" cx="220.38" cy="133.06" rx="1.04" ry="2.69"/>
        <path class="cls-12" d="m243.54,143.34c-.77,1.26-1.79,2.02-2.27,1.71-.49-.32-.26-1.6.51-2.85.77-1.26,1.79-2.02,2.27-1.71.49.32.26,1.6-.51,2.85Z"/>
        <path class="cls-12" d="m230.66,143.34c-.77,1.26-1.79,2.02-2.27,1.71s-.26-1.6.51-2.85c.77-1.26,1.79-2.02,2.27-1.71s.26,1.6-.51,2.85Z"/>
        <path class="cls-12" d="m216.49,153.55c-.49,1.4-1.33,2.37-1.87,2.16-.54-.2-.58-1.5-.09-2.9.49-1.4,1.33-2.37,1.87-2.16.54.2.58,1.5.09,2.9Z"/>
        <path class="cls-12" d="m232.15,128.04c-.49,1.4-1.33,2.37-1.87,2.16-.54-.2-.58-1.5-.09-2.9.49-1.4,1.33-2.37,1.87-2.16s.58,1.5.09,2.9Z"/>
        <path class="cls-12" d="m213.42,137.19c0,.79.23,1.44.52,1.44s.52-.64.52-1.44-.23-1.44-.52-1.44-.52.64-.52,1.44Z"/>
        <path class="cls-12" d="m237.91,131.81c-.5.6-.74,1.24-.52,1.44.22.2.8-.13,1.31-.73.5-.6.74-1.24.52-1.44-.22-.2-.8.13-1.31.73Z"/>
        <path class="cls-12" d="m223.64,153.01c-.5.6-.74,1.24-.52,1.44.22.2.8-.13,1.31-.73.5-.6.74-1.24.52-1.44-.22-.2-.8.13-1.31.73Z"/>
        <path class="cls-12" d="m246.26,136.84c-.5.6-.74,1.24-.52,1.44.22.2.8-.13,1.31-.73s.74-1.24.52-1.44c-.22-.2-.8.13-1.31.73Z"/>
        <path class="cls-12" d="m221.77,125.37c.04.79.31,1.42.6,1.4.29-.02.48-.67.44-1.47-.04-.79-.31-1.42-.6-1.4s-.48.67-.44,1.47Z"/>
        <path class="cls-12" d="m229.56,135.04c-.5.6-.74,1.24-.52,1.44.22.2.8-.13,1.31-.73.5-.6.74-1.24.52-1.44-.22-.2-.8.13-1.31.73Z"/>
        <g class="cls-11">
          <path class="cls-12" d="m259.87,136.48c.1,1.55-.59,3.15-2.11,4.05-4.86,2.65-9.95,5.45-15.46,8.53-2.34,1.3-4.46,2.49-6.89,4.13.33-.42.82-1.01,1.44-1.68,2.49-2.68,8.29-7.84,14.15-10.35.55-.24,1.81-.75,1.9-1.63.08-.85-1.04-1.66-1.9-2.32-1.39-1.08-5.57-3.23-8.35-5.03-2.78-1.8-6.61-3.95-9.05-5.39s-5.57-.72-16.36-5.03c-10.79-4.31-12.91.72-12.91.72-.06-1.71-.11-3.43-.16-4.95-.24-1.54.34-3.11,1.53-4.08,1.19-.98,2.79-1.21,4.2-.62,2.46.65,4.59,1.25,6.3,1.75,5.09,1.49,6.64,2.11,8.35,3.23,1.43.95,1.26,1.12,2.78,2.16,3.26,2.22,6.29,2.96,7.31,3.23,2.93.79,8.99,3.09,22.62,9.57,1.49.63,2.5,2.08,2.6,3.73Z"/>
        </g>
      </g>
      <g>
        <path class="cls-5" d="m202.62,202.44c-1.48-.1-2.91-.97-3.56-2.58-1.88-5.09-3.87-10.42-6.06-16.19-.93-2.45-1.78-4.68-3.01-7.26h0c-.29-.62-.61-1.26-.96-1.93-1.56-3.02-2.19-3.72-3.36-5.99-1.25-2.43-2.83-6.14-3.85-11.22-.06-.17-.79-2.04.37-3.82.7-1.08,1.9-1.83,3.35-1.87,7.28.49,12.88-.21,16.71-.97,4.11-.81,6.69-1.79,11.3-1.61.72.03,1.35.08,8.55.79.34.03.68.07,1.03.1,1.62.16,3.26.32,4.71.47,1.5-.04,2.9.73,3.67,2.01.77,1.28.79,2.89.04,4.18-.94,2.33-1.79,4.33-2.48,5.94-2.07,4.79-2.86,6.23-4.15,7.76-1.09,1.28-1.22,1.09-2.4,2.45-2.53,2.91-3.62,5.78-4.01,6.74-1.13,2.77-4.1,8.4-12.01,20.92-.79,1.37-2.29,2.18-3.87,2.08Z"/>
        <path class="cls-12" d="m219.26,159.45c-1.41-.19-2.49-.8-2.42-1.36.07-.56,1.28-.87,2.69-.68,1.41.19,2.49.8,2.42,1.36-.08.56-1.28.87-2.69.68Z"/>
        <path class="cls-12" d="m210.87,165.26c-1.41-.19-2.49-.8-2.42-1.36.07-.56,1.28-.87,2.69-.68,1.41.19,2.49.8,2.42,1.36-.07.56-1.28.87-2.69.68Z"/>
        <path class="cls-12" d="m198.25,185.59c-1.09-.91-1.68-2-1.32-2.44.36-.44,1.55-.05,2.64.86,1.09.91,1.68,2,1.32,2.44-.36.44-1.55.05-2.64-.85Z"/>
        <path class="cls-12" d="m199.93,173c-1.09-.91-1.68-2-1.32-2.44.36-.44,1.55-.05,2.64.86,1.09.91,1.68,2,1.32,2.44-.36.44-1.55.05-2.64-.86Z"/>
        <path class="cls-12" d="m192.1,157.85c-1.26-.66-2.07-1.6-1.8-2.11.26-.5,1.5-.38,2.76.28,1.26.66,2.07,1.6,1.8,2.11-.26.5-1.5.38-2.76-.28Z"/>
        <path class="cls-12" d="m214.23,176.39c-1.26-.66-2.07-1.6-1.8-2.11.26-.5,1.5-.38,2.76.28,1.26.66,2.07,1.6,1.8,2.11s-1.5.38-2.76-.28Z"/>
        <path class="cls-12" d="m207.99,156.91c-.75-.1-1.39.05-1.43.33-.04.28.54.59,1.29.69s1.39-.05,1.43-.33c.04-.28-.54-.59-1.29-.69Z"/>
        <path class="cls-12" d="m209.91,181.54c-.5-.57-1.08-.88-1.29-.69-.21.19.02.8.52,1.37.5.57,1.08.88,1.29.69.21-.19-.02-.8-.52-1.37Z"/>
        <path class="cls-12" d="m191.68,164.92c-.5-.57-1.08-.88-1.29-.69-.21.19.02.8.52,1.37.5.57,1.08.88,1.29.69s-.02-.8-.52-1.37Z"/>
        <path class="cls-12" d="m204.05,189.08c-.5-.57-1.08-.88-1.29-.69s.02.8.52,1.37c.5.57,1.08.88,1.29.69.21-.19-.02-.8-.52-1.37Z"/>
        <path class="cls-12" d="m218.11,166.57c-.76-.06-1.39.13-1.41.41-.02.28.58.56,1.33.62.76.06,1.39-.13,1.41-.41.02-.28-.58-.56-1.33-.62Z"/>
        <path class="cls-12" d="m207.93,172.97c-.5-.57-1.08-.88-1.29-.69s.02.8.52,1.37c.5.57,1.08.88,1.29.69s-.02-.8-.52-1.37Z"/>
        <g class="cls-11">
          <path class="cls-12" d="m202.62,202.44c-1.48-.1-2.91-.97-3.56-2.58-1.88-5.09-3.87-10.42-6.06-16.19-.93-2.45-1.78-4.68-3.01-7.26.35.38.85.93,1.4,1.62,2.22,2.78,6.35,9.1,7.97,15.14.15.57.47,1.87,1.3,2.06.8.19,1.7-.81,2.45-1.57,1.2-1.23,3.79-5.04,5.85-7.53,2.06-2.5,4.6-5.97,6.28-8.17,1.68-2.2,1.41-5.35,6.89-15.36,5.49-10.01,1-12.72,1-12.72,1.62.16,3.26.32,4.71.47,1.5-.04,2.9.73,3.67,2.01.77,1.28.79,2.89.04,4.18-.94,2.33-1.79,4.33-2.48,5.94-2.07,4.79-2.86,6.23-4.15,7.76-1.09,1.28-1.22,1.09-2.4,2.45-2.53,2.91-3.62,5.78-4.01,6.74-1.13,2.77-4.1,8.4-12.01,20.92-.79,1.37-2.29,2.18-3.87,2.08Z"/>
        </g>
      </g>
      <g>
        <path class="cls-5" d="m164.65,198.99c-1.48-.1-2.91-.97-3.56-2.58-1.88-5.09-3.87-10.42-6.06-16.19-.93-2.45-1.78-4.68-3.01-7.26h0c-.29-.62-.61-1.26-.96-1.93-1.56-3.02-2.19-3.72-3.36-5.99-1.25-2.43-2.83-6.14-3.85-11.22-.06-.17-.79-2.04.37-3.82.7-1.08,1.9-1.83,3.35-1.87,7.28.49,12.88-.21,16.71-.97,4.11-.81,6.69-1.79,11.3-1.61.72.03,1.35.08,8.55.79.34.03.68.07,1.03.1,1.62.16,3.26.32,4.71.47,1.5-.04,2.9.73,3.67,2.01.77,1.28.79,2.89.04,4.18-.94,2.33-1.79,4.33-2.48,5.94-2.07,4.79-2.86,6.23-4.15,7.76-1.09,1.28-1.22,1.09-2.4,2.45-2.53,2.91-3.62,5.78-4.01,6.74-1.13,2.77-4.1,8.4-12.01,20.92-.79,1.37-2.29,2.18-3.87,2.08Z"/>
        <path class="cls-12" d="m181.28,156c-1.41-.19-2.49-.8-2.42-1.36.08-.56,1.28-.87,2.69-.68,1.41.19,2.49.8,2.42,1.36-.07.56-1.28.87-2.69.68Z"/>
        <path class="cls-12" d="m172.89,161.81c-1.41-.19-2.49-.8-2.42-1.36.08-.56,1.28-.87,2.69-.68,1.41.19,2.49.8,2.42,1.36-.08.56-1.28.87-2.69.68Z"/>
        <path class="cls-12" d="m160.28,182.14c-1.09-.91-1.68-2-1.32-2.44s1.55-.05,2.64.85c1.09.91,1.68,2,1.32,2.44-.36.44-1.55.05-2.64-.85Z"/>
        <path class="cls-12" d="m161.95,169.55c-1.09-.91-1.68-2-1.32-2.44.36-.44,1.55-.05,2.64.85,1.09.91,1.68,2,1.32,2.44-.36.44-1.55.05-2.64-.85Z"/>
        <path class="cls-12" d="m154.12,154.4c-1.26-.66-2.07-1.6-1.8-2.11.26-.5,1.5-.38,2.76.28s2.07,1.6,1.8,2.11-1.5.38-2.76-.28Z"/>
        <path class="cls-12" d="m176.25,172.93c-1.26-.66-2.07-1.6-1.8-2.11.26-.5,1.5-.38,2.76.28,1.26.66,2.07,1.6,1.8,2.11-.26.5-1.5.38-2.76-.28Z"/>
        <path class="cls-12" d="m170.02,153.46c-.75-.1-1.39.05-1.43.33-.04.28.54.59,1.29.69.75.1,1.39-.05,1.43-.33.04-.28-.54-.59-1.29-.69Z"/>
        <path class="cls-12" d="m171.93,178.09c-.5-.57-1.08-.88-1.29-.69-.21.19.02.8.52,1.37.5.57,1.08.88,1.29.69.21-.19-.02-.8-.52-1.37Z"/>
        <path class="cls-12" d="m153.7,161.46c-.5-.57-1.08-.88-1.29-.69s.02.8.52,1.37c.5.57,1.08.88,1.29.69s-.02-.8-.52-1.37Z"/>
        <path class="cls-12" d="m166.08,185.62c-.5-.57-1.08-.88-1.29-.69s.02.8.52,1.37c.5.57,1.08.88,1.29.69.21-.19-.02-.8-.52-1.37Z"/>
        <path class="cls-12" d="m180.13,163.12c-.76-.06-1.39.13-1.41.41-.02.28.58.56,1.33.62s1.39-.13,1.41-.41c.02-.28-.58-.56-1.33-.62Z"/>
        <path class="cls-12" d="m169.95,169.51c-.5-.57-1.08-.88-1.29-.69-.21.19.02.8.52,1.37.5.57,1.08.88,1.29.69s-.02-.8-.52-1.37Z"/>
        <g class="cls-11">
          <path class="cls-12" d="m164.65,198.99c-1.48-.1-2.91-.97-3.56-2.58-1.88-5.09-3.87-10.42-6.06-16.19-.93-2.45-1.78-4.68-3.01-7.26.35.38.85.93,1.4,1.62,2.22,2.78,6.35,9.1,7.97,15.14.15.57.47,1.87,1.3,2.06.8.19,1.7-.81,2.45-1.57,1.2-1.23,3.79-5.04,5.85-7.53,2.06-2.5,4.6-5.97,6.28-8.17,1.68-2.2,1.41-5.35,6.89-15.36,5.49-10.01,1-12.72,1-12.72,1.62.16,3.26.32,4.71.47,1.5-.04,2.9.73,3.67,2.01.77,1.28.79,2.89.04,4.18-.94,2.33-1.79,4.33-2.48,5.94-2.07,4.79-2.86,6.23-4.15,7.76-1.09,1.28-1.22,1.09-2.4,2.45-2.53,2.91-3.62,5.78-4.01,6.74-1.13,2.77-4.1,8.4-12.01,20.92-.79,1.37-2.29,2.18-3.87,2.08Z"/>
        </g>
      </g>
      <g>
        <path class="cls-5" d="m140.48,205.37c-1.44.34-3.07-.07-4.16-1.41-3.29-4.31-6.77-8.82-10.56-13.69-1.61-2.07-3.08-3.95-5.02-6.05h0c-.46-.51-.96-1.03-1.48-1.56-2.38-2.42-3.19-2.91-4.97-4.73-1.91-1.96-4.51-5.04-6.98-9.59-.11-.14-1.35-1.72-.77-3.76.36-1.24,1.28-2.31,2.65-2.77,7.1-1.67,12.25-3.99,15.69-5.85,3.69-1.98,5.86-3.68,10.32-4.87.69-.19,1.31-.33,8.41-1.76.33-.07.67-.14,1.01-.2,1.6-.32,3.21-.65,4.64-.94,1.42-.48,2.98-.16,4.1.84,1.12,1,1.6,2.53,1.27,3.99-.21,2.5-.43,4.67-.62,6.41-.57,5.19-.9,6.8-1.68,8.64-.66,1.55-.85,1.4-1.58,3.05-1.56,3.52-1.76,6.59-1.85,7.62-.27,2.98-1.44,9.24-5.32,23.53-.35,1.54-1.55,2.76-3.09,3.12Z"/>
        <path class="cls-12" d="m143.72,159.39c-1.4.24-2.62-.03-2.71-.59s.97-1.21,2.37-1.44c1.4-.24,2.62.03,2.71.59.09.56-.97,1.21-2.37,1.44Z"/>
        <path class="cls-12" d="m137.41,167.41c-1.4.24-2.62-.03-2.71-.59s.97-1.21,2.37-1.44c1.4-.24,2.62.03,2.71.59.09.56-.97,1.21-2.37,1.44Z"/>
        <path class="cls-12" d="m131.34,190.55c-1.31-.55-2.2-1.42-1.98-1.94.22-.53,1.46-.51,2.77.04s2.2,1.42,1.98,1.94c-.22.53-1.46.51-2.77-.04Z"/>
        <path class="cls-12" d="m129.24,178.03c-1.31-.55-2.2-1.42-1.98-1.94.22-.53,1.46-.51,2.77.04,1.31.55,2.2,1.42,1.98,1.94-.22.53-1.46.51-2.77-.04Z"/>
        <path class="cls-12" d="m117.29,165.86c-1.4-.26-2.45-.92-2.34-1.48s1.32-.8,2.72-.54c1.4.26,2.45.92,2.34,1.48-.1.56-1.32.8-2.72.54Z"/>
        <path class="cls-12" d="m143.9,177.05c-1.4-.26-2.45-.92-2.34-1.48.1-.56,1.32-.8,2.72-.54,1.4.26,2.45.92,2.34,1.48-.1.56-1.32.8-2.72.54Z"/>
        <path class="cls-12" d="m132.21,160.28c-.75.13-1.32.46-1.27.74.05.28.69.41,1.44.28.75-.13,1.32-.45,1.27-.74-.05-.28-.69-.41-1.44-.28Z"/>
        <path class="cls-12" d="m141.29,183.25c-.65-.4-1.29-.52-1.44-.28-.15.24.26.76.9,1.16.65.4,1.29.52,1.44.28.15-.24-.26-.76-.9-1.16Z"/>
        <path class="cls-12" d="m118.97,172.73c-.65-.4-1.29-.52-1.44-.28-.15.24.26.76.9,1.16.65.4,1.29.52,1.44.28.15-.24-.26-.76-.9-1.16Z"/>
        <path class="cls-12" d="m137.91,192.18c-.65-.4-1.29-.52-1.44-.28-.15.24.26.76.9,1.16.65.4,1.29.52,1.44.28.15-.24-.26-.76-.9-1.16Z"/>
        <path class="cls-12" d="m144.72,166.53c-.74.17-1.29.53-1.22.81s.71.36,1.45.2c.74-.17,1.29-.53,1.22-.81-.06-.28-.71-.36-1.45-.2Z"/>
        <path class="cls-12" d="m136.87,175.64c-.65-.4-1.29-.52-1.44-.28-.15.24.26.76.9,1.16.65.4,1.29.52,1.44.28.15-.24-.26-.76-.9-1.16Z"/>
        <g class="cls-11">
          <path class="cls-12" d="m140.48,205.37c-1.44.34-3.07-.07-4.16-1.41-3.29-4.31-6.77-8.82-10.56-13.69-1.61-2.07-3.08-3.95-5.02-6.05.45.26,1.08.63,1.82,1.14,2.94,2,8.75,6.83,12.07,12.13.31.5,1,1.65,1.85,1.59.82-.05,1.39-1.28,1.88-2.22.79-1.53,2.14-5.93,3.37-8.92,1.24-2.99,2.64-7.06,3.6-9.66s-.23-5.53,2.07-16.71c2.3-11.18-2.79-12.45-2.79-12.45,1.6-.32,3.21-.65,4.64-.94,1.42-.48,2.98-.16,4.1.84,1.12,1,1.6,2.53,1.27,3.99-.21,2.5-.43,4.67-.62,6.41-.57,5.19-.9,6.8-1.68,8.64-.66,1.55-.85,1.4-1.58,3.05-1.56,3.52-1.76,6.59-1.85,7.62-.27,2.98-1.44,9.24-5.32,23.53-.35,1.54-1.55,2.76-3.09,3.12Z"/>
        </g>
      </g>
      <g>
        <path class="cls-5" d="m82.41,205.14c-1.43-.39-2.66-1.52-2.99-3.22-.85-5.36-1.77-10.97-2.79-17.06-.43-2.59-.83-4.93-1.54-7.71h0c-.17-.67-.35-1.36-.56-2.08-.94-3.26-1.43-4.07-2.13-6.53-.75-2.63-1.58-6.57-1.59-11.76-.03-.18-.38-2.16,1.11-3.67.9-.92,2.22-1.43,3.65-1.18,7.04,1.9,12.68,2.3,16.58,2.31,4.19,0,6.91-.45,11.4.62.7.17,1.31.34,8.24,2.44.33.1.66.2.99.3,1.56.47,3.14.95,4.53,1.38,1.48.25,2.7,1.28,3.21,2.68.51,1.41.21,2.98-.77,4.11-1.38,2.1-2.6,3.9-3.59,5.34-2.97,4.3-4.02,5.56-5.58,6.8-1.31,1.05-1.41.83-2.84,1.94-3.05,2.36-4.68,4.96-5.25,5.83-1.65,2.49-5.66,7.44-15.85,18.18-1.04,1.2-2.67,1.69-4.2,1.28Z"/>
        <path class="cls-12" d="m107.11,166.22c-1.35-.46-2.29-1.27-2.11-1.81.18-.54,1.42-.6,2.77-.14,1.35.46,2.29,1.27,2.11,1.81-.18.54-1.42.6-2.77.14Z"/>
        <path class="cls-12" d="m97.74,170.28c-1.35-.46-2.29-1.27-2.11-1.81.18-.54,1.42-.6,2.77-.14s2.29,1.27,2.11,1.81c-.18.54-1.42.6-2.77.14Z"/>
        <path class="cls-12" d="m81.41,187.76c-.9-1.11-1.26-2.29-.82-2.65.44-.36,1.53.25,2.42,1.35.9,1.11,1.26,2.29.82,2.65-.44.36-1.53-.25-2.42-1.35Z"/>
        <path class="cls-12" d="m85.51,175.74c-.9-1.11-1.26-2.29-.82-2.65.44-.36,1.53.25,2.42,1.35.9,1.11,1.26,2.29.82,2.65-.44.36-1.53-.25-2.42-1.35Z"/>
        <path class="cls-12" d="m80.78,159.36c-1.11-.89-1.72-1.97-1.36-2.42s1.54-.08,2.65.81c1.11.89,1.72,1.97,1.36,2.42s-1.54.08-2.65-.81Z"/>
        <path class="cls-12" d="m98.87,181.84c-1.11-.89-1.72-1.97-1.36-2.42s1.54-.08,2.65.81c1.11.89,1.72,1.97,1.36,2.42-.36.44-1.54.08-2.65-.81Z"/>
        <path class="cls-12" d="m96.55,161.53c-.72-.24-1.37-.22-1.47.04-.09.27.42.69,1.13.93.72.24,1.37.22,1.47-.04.09-.27-.42-.69-1.13-.93Z"/>
        <path class="cls-12" d="m93.63,186.06c-.38-.66-.89-1.07-1.14-.93-.25.14-.14.79.25,1.45.38.66.89,1.07,1.14.93.25-.14.14-.79-.25-1.45Z"/>
        <path class="cls-12" d="m78.99,166.2c-.38-.66-.89-1.07-1.14-.93-.25.14-.14.79.25,1.45.38.66.89,1.07,1.14.93.25-.14.14-.79-.25-1.45Z"/>
        <path class="cls-12" d="m86.42,192.31c-.38-.66-.89-1.07-1.14-.93-.25.14-.14.79.25,1.45.38.66.89,1.07,1.14.93.25-.14.14-.79-.25-1.45Z"/>
        <path class="cls-12" d="m104.59,172.98c-.73-.2-1.39-.14-1.46.13-.08.27.46.66,1.19.86.73.2,1.39.14,1.46-.13.08-.27-.46-.66-1.19-.86Z"/>
        <path class="cls-12" d="m93.36,177.26c-.38-.66-.89-1.07-1.14-.93-.25.14-.14.79.25,1.45.38.66.89,1.07,1.14.93.25-.14.14-.79-.25-1.45Z"/>
        <g class="cls-11">
          <path class="cls-12" d="m82.41,205.14c-1.43-.39-2.66-1.52-2.99-3.22-.85-5.36-1.77-10.97-2.79-17.06-.43-2.59-.83-4.93-1.54-7.71.27.44.65,1.07,1.06,1.86,1.63,3.16,4.45,10.16,4.86,16.41.04.59.1,1.92.87,2.28.75.34,1.83-.46,2.7-1.06,1.42-.97,4.7-4.2,7.21-6.25s5.68-4.96,7.75-6.79c2.08-1.83,2.42-4.98,9.76-13.72,7.33-8.75,3.46-12.28,3.46-12.28,1.56.47,3.14.95,4.53,1.38,1.48.25,2.7,1.28,3.21,2.68.51,1.41.21,2.98-.77,4.11-1.38,2.1-2.6,3.9-3.59,5.34-2.97,4.3-4.02,5.56-5.58,6.8-1.31,1.05-1.41.83-2.84,1.94-3.05,2.36-4.68,4.96-5.25,5.83-1.65,2.49-5.66,7.44-15.85,18.18-1.04,1.2-2.67,1.69-4.2,1.28Z"/>
        </g>
      </g>
      <g>
        <path class="cls-5" d="m68.67,188.63c-1.36.6-3.03.49-4.35-.63-4.03-3.64-8.26-7.43-12.89-11.53-1.96-1.74-3.75-3.32-6.04-5.03h0c-.55-.41-1.13-.83-1.74-1.26-2.78-1.95-3.67-2.28-5.76-3.75-2.24-1.58-5.36-4.13-8.62-8.15-.13-.12-1.65-1.44-1.44-3.56.12-1.28.84-2.51,2.09-3.21,6.67-2.94,11.31-6.17,14.35-8.62,3.26-2.63,5.09-4.69,9.26-6.67.65-.31,1.23-.56,7.94-3.27.32-.13.64-.26.96-.39,1.51-.61,3.04-1.23,4.39-1.77,1.3-.73,2.91-.7,4.18.08,1.28.78,2.04,2.19,1.98,3.69.25,2.5.43,4.67.56,6.41.39,5.21.36,6.85-.07,8.8-.37,1.64-.58,1.53-.99,3.29-.89,3.75-.53,6.8-.43,7.83.28,2.97.27,9.35-.93,24.1-.06,1.58-1.02,3-2.47,3.64Z"/>
        <path class="cls-12" d="m63.46,142.84c-1.34.49-2.58.45-2.77-.08-.2-.53.73-1.36,2.07-1.85,1.34-.49,2.58-.45,2.77.08.2.53-.73,1.36-2.07,1.85Z"/>
        <path class="cls-12" d="m58.72,151.88c-1.34.49-2.58.45-2.77-.08-.2-.53.73-1.36,2.07-1.85,1.34-.49,2.58-.45,2.77.08.2.53-.73,1.36-2.07,1.85Z"/>
        <path class="cls-12" d="m56.99,175.74c-1.39-.3-2.42-.99-2.3-1.55.12-.56,1.34-.77,2.73-.47,1.39.3,2.42.99,2.3,1.55-.12.56-1.34.77-2.73.47Z"/>
        <path class="cls-12" d="m52.63,163.81c-1.39-.3-2.42-.99-2.3-1.55.12-.56,1.34-.77,2.73-.47s2.42.99,2.3,1.55c-.12.56-1.34.77-2.73.47Z"/>
        <path class="cls-12" d="m38.66,154.02c-1.42,0-2.58-.46-2.58-1.03,0-.57,1.15-1.03,2.57-1.03s2.58.46,2.58,1.03c0,.57-1.15,1.03-2.57,1.03Z"/>
        <path class="cls-12" d="m66.86,160.17c-1.42,0-2.58-.46-2.58-1.03s1.15-1.03,2.57-1.03c1.42,0,2.58.46,2.58,1.03,0,.57-1.15,1.03-2.57,1.03Z"/>
        <path class="cls-12" d="m52.3,145.82c-.71.26-1.21.69-1.11.96.1.27.75.27,1.47.01.71-.26,1.21-.69,1.11-.96-.1-.27-.75-.27-1.47-.01Z"/>
        <path class="cls-12" d="m65.43,166.74c-.71-.27-1.37-.28-1.47,0-.1.27.39.7,1.1.97.71.27,1.37.28,1.47,0,.1-.27-.39-.7-1.1-.97Z"/>
        <path class="cls-12" d="m41.57,160.47c-.71-.27-1.37-.28-1.47,0-.1.27.39.7,1.1.97.71.27,1.37.28,1.47,0,.1-.27-.39-.7-1.1-.97Z"/>
        <path class="cls-12" d="m63.74,176.13c-.71-.27-1.37-.28-1.47,0-.1.27.39.7,1.1.97s1.37.28,1.47,0-.39-.7-1.1-.97Z"/>
        <path class="cls-12" d="m65.74,149.68c-.7.3-1.17.76-1.06,1.02.11.26.77.23,1.46-.07.7-.3,1.17-.76,1.06-1.02-.11-.26-.77-.23-1.46.07Z"/>
        <path class="cls-12" d="m59.7,160.06c-.71-.27-1.37-.28-1.47,0s.39.7,1.1.97c.71.27,1.37.28,1.47,0,.1-.27-.39-.7-1.1-.97Z"/>
        <g class="cls-11">
          <path class="cls-12" d="m68.67,188.63c-1.36.6-3.03.49-4.35-.63-4.03-3.64-8.26-7.43-12.89-11.53-1.96-1.74-3.75-3.32-6.04-5.03.49.17,1.18.43,1.99.78,3.25,1.43,9.85,5.11,14.09,9.72.4.44,1.28,1.44,2.11,1.23.79-.2,1.13-1.51,1.44-2.52.5-1.64,1.02-6.22,1.69-9.39.67-3.17,1.31-7.42,1.77-10.15.47-2.73-1.24-5.4-1.02-16.81.22-11.41-5.02-11.73-5.02-11.73,1.51-.61,3.04-1.23,4.39-1.77,1.3-.73,2.91-.7,4.18.08,1.28.78,2.04,2.19,1.98,3.69.25,2.5.43,4.67.56,6.41.39,5.21.36,6.85-.07,8.8-.37,1.64-.58,1.53-.99,3.29-.89,3.75-.53,6.8-.43,7.83.28,2.97.27,9.35-.93,24.1-.06,1.58-1.02,3-2.47,3.64Z"/>
        </g>
      </g>
      <g>
        <path class="cls-5" d="m.46,156.68c-.68-1.32-.66-2.99.38-4.38,3.4-4.23,6.94-8.68,10.77-13.53,1.63-2.06,3.1-3.93,4.67-6.32h0c.38-.57.76-1.18,1.16-1.81,1.78-2.89,2.06-3.79,3.41-5.96,1.45-2.32,3.81-5.59,7.64-9.08.11-.14,1.34-1.73,3.47-1.65,1.29.05,2.55.69,3.33,1.91,3.32,6.49,6.81,10.94,9.43,13.83,2.81,3.11,4.97,4.81,7.2,8.86.35.63.63,1.2,3.72,7.74.14.31.29.62.44.93.7,1.48,1.4,2.96,2.02,4.28.81,1.26.87,2.86.16,4.18-.7,1.32-2.07,2.16-3.57,2.19-2.48.39-4.64.7-6.37.93-5.17.69-6.81.75-8.79.43-1.66-.27-1.56-.49-3.34-.8-3.8-.67-6.82-.13-7.84.03-2.95.45-9.32.81-24.12.47-1.58.03-3.05-.84-3.77-2.25Z"/>
        <path class="cls-12" d="m45.88,148.83c-.56-1.31-.6-2.55-.08-2.77.52-.23,1.4.65,1.97,1.95.56,1.31.6,2.55.08,2.77-.52.23-1.4-.65-1.97-1.95Z"/>
        <path class="cls-12" d="m36.58,144.62c-.56-1.31-.6-2.55-.08-2.77.52-.23,1.4.65,1.97,1.95.56,1.31.6,2.55.08,2.77-.52.23-1.4-.65-1.97-1.95Z"/>
        <path class="cls-12" d="m12.66,144.27c.22-1.41.85-2.47,1.41-2.39.56.09.84,1.3.62,2.7s-.85,2.47-1.41,2.39c-.56-.09-.84-1.3-.62-2.7Z"/>
        <path class="cls-12" d="m24.32,139.22c.22-1.41.85-2.47,1.41-2.39.56.09.84,1.3.62,2.7-.22,1.41-.85,2.47-1.41,2.39-.56-.09-.84-1.3-.62-2.7Z"/>
        <path class="cls-12" d="m33.28,124.72c-.08-1.42.31-2.6.88-2.63.57-.03,1.1,1.09,1.18,2.51.08,1.42-.31,2.6-.88,2.63-.57.03-1.1-1.09-1.18-2.51Z"/>
        <path class="cls-12" d="m28.77,153.22c-.08-1.42.31-2.6.88-2.63s1.1,1.09,1.18,2.51-.31,2.6-.88,2.63c-.57.03-1.1-1.09-1.18-2.51Z"/>
        <path class="cls-12" d="m42.26,137.86c-.3-.7-.76-1.17-1.02-1.06s-.23.77.07,1.47c.3.7.76,1.17,1.02,1.06s.23-.77-.07-1.47Z"/>
        <path class="cls-12" d="m22.13,152.17c.23-.72.2-1.38-.08-1.46-.27-.09-.68.43-.91,1.15-.23.72-.2,1.38.08,1.46.27.09.68-.43.91-1.15Z"/>
        <path class="cls-12" d="m27.01,127.99c.23-.72.2-1.38-.08-1.46-.27-.09-.68.43-.91,1.15-.23.72-.2,1.38.08,1.46.27.09.68-.43.91-1.15Z"/>
        <path class="cls-12" d="m12.66,151.03c.23-.72.2-1.38-.08-1.46s-.68.43-.91,1.15-.2,1.38.08,1.46c.27.09.68-.43.91-1.15Z"/>
        <path class="cls-12" d="m39.18,151.51c-.34-.68-.82-1.12-1.08-1s-.18.78.16,1.46c.34.68.82,1.12,1.08,1,.25-.13.18-.78-.16-1.46Z"/>
        <path class="cls-12" d="m28.46,146.07c.23-.72.2-1.38-.08-1.46-.27-.09-.68.43-.91,1.15-.23.72-.2,1.38.08,1.46.27.09.68-.43.91-1.15Z"/>
        <g class="cls-11">
          <path class="cls-12" d="m.46,156.68c-.68-1.32-.66-2.99.38-4.38,3.4-4.23,6.94-8.68,10.77-13.53,1.63-2.06,3.1-3.93,4.67-6.32-.14.5-.36,1.2-.67,2.04-1.24,3.33-4.54,10.13-8.89,14.62-.41.43-1.36,1.37-1.1,2.17.25.78,1.57,1.05,2.6,1.29,1.67.4,6.27.66,9.47,1.14,3.2.49,7.49.88,10.24,1.18,2.75.31,5.31-1.55,16.72-1.99,11.41-.44,11.42-5.69,11.42-5.69.7,1.48,1.4,2.96,2.02,4.28.81,1.26.87,2.86.16,4.18-.7,1.32-2.07,2.16-3.57,2.19-2.48.39-4.64.7-6.37.93-5.17.69-6.81.75-8.79.43-1.66-.27-1.56-.49-3.34-.8-3.8-.67-6.82-.13-7.84.03-2.95.45-9.32.81-24.12.47-1.58.03-3.05-.84-3.77-2.25Z"/>
        </g>
      </g>
      <g>
        <path class="cls-5" d="m42.04,78.36c1.45-.32,3.06.11,4.14,1.47,3.24,4.35,6.66,8.9,10.39,13.82,1.59,2.09,3.03,3.99,4.94,6.11h0c.45.51.94,1.04,1.46,1.58,2.35,2.45,3.15,2.95,4.91,4.8,1.89,1.98,4.45,5.09,6.86,9.68.11.14,1.33,1.74.72,3.77-.37,1.23-1.31,2.29-2.68,2.74-7.12,1.58-12.3,3.84-15.76,5.65-3.71,1.94-5.91,3.6-10.38,4.74-.7.18-1.32.31-8.43,1.66-.33.06-.67.13-1.01.19-1.6.3-3.22.61-4.66.88-1.42.46-2.99.12-4.09-.89-1.1-1.01-1.57-2.55-1.22-4,.24-2.5.49-4.66.7-6.4.63-5.18.98-6.79,1.79-8.62.68-1.54.86-1.39,1.61-3.03,1.6-3.5,1.84-6.57,1.95-7.6.3-2.97,1.56-9.22,5.61-23.46.37-1.54,1.58-2.74,3.13-3.08Z"/>
        <path class="cls-12" d="m38.22,124.3c1.41-.22,2.62.06,2.7.62.09.56-.98,1.19-2.39,1.41-1.41.22-2.62-.06-2.7-.62s.98-1.19,2.39-1.41Z"/>
        <path class="cls-12" d="m44.63,116.35c1.41-.22,2.62.06,2.7.62.09.56-.98,1.19-2.39,1.41s-2.62-.06-2.7-.62c-.09-.56.98-1.19,2.39-1.41Z"/>
        <path class="cls-12" d="m50.99,93.29c1.31.56,2.18,1.44,1.96,1.97s-1.47.49-2.77-.08c-1.31-.56-2.18-1.44-1.96-1.97.23-.52,1.47-.49,2.77.08Z"/>
        <path class="cls-12" d="m52.93,105.84c1.31.56,2.18,1.44,1.96,1.97-.23.52-1.47.49-2.77-.08-1.31-.56-2.18-1.44-1.96-1.97.23-.52,1.47-.49,2.77.08Z"/>
        <path class="cls-12" d="m64.72,118.16c1.4.28,2.44.95,2.33,1.51-.11.56-1.33.79-2.73.51-1.4-.28-2.44-.95-2.33-1.51.11-.56,1.33-.79,2.73-.51Z"/>
        <path class="cls-12" d="m38.26,106.63c1.4.28,2.44.95,2.33,1.51s-1.33.79-2.73.51c-1.4-.28-2.44-.95-2.33-1.51.11-.56,1.33-.79,2.73-.51Z"/>
        <path class="cls-12" d="m49.74,123.55c.75-.12,1.32-.44,1.28-.72-.04-.28-.69-.41-1.44-.3-.75.12-1.32.44-1.28.72.04.28.69.41,1.44.3Z"/>
        <path class="cls-12" d="m40.95,100.46c.64.4,1.29.54,1.44.3.15-.24-.25-.76-.89-1.17s-1.29-.54-1.44-.3c-.15.24.25.76.89,1.17Z"/>
        <path class="cls-12" d="m63.13,111.27c.64.4,1.29.54,1.44.3s-.25-.76-.89-1.17c-.64-.4-1.29-.54-1.44-.3-.15.24.25.76.89,1.17Z"/>
        <path class="cls-12" d="m44.44,91.58c.64.4,1.29.54,1.44.3.15-.24-.25-.76-.89-1.17-.64-.4-1.29-.54-1.44-.3-.15.24.25.76.89,1.17Z"/>
        <path class="cls-12" d="m37.31,117.14c.74-.16,1.29-.51,1.23-.79s-.71-.37-1.45-.21-1.29.51-1.23.79c.06.28.71.37,1.45.21Z"/>
        <path class="cls-12" d="m45.27,108.13c.64.4,1.29.54,1.44.3.15-.24-.25-.76-.89-1.17-.64-.4-1.29-.54-1.44-.3-.15.24.25.76.89,1.17Z"/>
        <g class="cls-11">
          <path class="cls-12" d="m42.04,78.36c1.45-.32,3.06.11,4.14,1.47,3.24,4.35,6.66,8.9,10.39,13.82,1.59,2.09,3.03,3.99,4.94,6.11-.44-.26-1.07-.65-1.8-1.16-2.91-2.04-8.66-6.94-11.92-12.28-.31-.5-.98-1.66-1.83-1.61-.82.04-1.41,1.26-1.9,2.19-.81,1.52-2.21,5.9-3.49,8.88-1.28,2.98-2.73,7.03-3.72,9.61-.99,2.59.16,5.53-2.28,16.68-2.44,11.15,2.63,12.48,2.63,12.48-1.6.3-3.22.61-4.66.88-1.42.46-2.99.12-4.09-.89-1.1-1.01-1.57-2.55-1.22-4,.24-2.5.49-4.66.7-6.4.63-5.18.98-6.79,1.79-8.62.68-1.54.86-1.39,1.61-3.03,1.6-3.5,1.84-6.57,1.95-7.6.3-2.97,1.56-9.22,5.61-23.46.37-1.54,1.58-2.74,3.13-3.08Z"/>
        </g>
      </g>
      <g>
        <path class="cls-5" d="m181.39,155.22c-1.26-.78-2.11-2.22-1.93-3.94.73-5.38,1.47-11.02,2.24-17.15.33-2.6.62-4.96.74-7.82h0c.03-.69.05-1.4.06-2.15.04-3.4-.19-4.31-.16-6.87.04-2.74.38-6.75,1.86-11.72.02-.18.26-2.17,2.12-3.2,1.13-.62,2.54-.73,3.83-.08,6.2,3.85,11.48,5.86,15.21,6.99,4.01,1.21,6.74,1.56,10.74,3.88.62.36,1.16.7,7.18,4.71.28.19.57.38.86.57,1.36.9,2.73,1.82,3.94,2.63,1.34.66,2.22,2,2.3,3.49.08,1.5-.66,2.92-1.92,3.71-1.92,1.61-3.61,2.99-4.98,4.08-4.08,3.26-5.45,4.16-7.31,4.91-1.56.62-1.59.39-3.27,1.04-3.6,1.38-5.91,3.4-6.71,4.07-2.3,1.91-7.56,5.5-20.42,12.84-1.34.85-3.05.85-4.39.02Z"/>
        <path class="cls-12" d="m216.24,125.06c-1.16-.83-1.83-1.87-1.5-2.34.33-.46,1.54-.17,2.69.66s1.83,1.87,1.5,2.34c-.33.46-1.54.17-2.69-.66Z"/>
        <path class="cls-12" d="m206.1,126.25c-1.16-.83-1.83-1.87-1.5-2.34s1.54-.17,2.69.66c1.16.83,1.83,1.87,1.5,2.34-.33.46-1.54.17-2.69-.66Z"/>
        <path class="cls-12" d="m185.43,138.29c-.54-1.32-.55-2.56-.02-2.77.53-.22,1.39.68,1.93,1.99.54,1.32.55,2.56.02,2.77-.53.22-1.39-.68-1.93-1.99Z"/>
        <path class="cls-12" d="m192.82,127.95c-.54-1.32-.55-2.56-.02-2.77.53-.22,1.39.68,1.93,1.99s.55,2.56.02,2.77c-.53.22-1.39-.68-1.93-1.99Z"/>
        <path class="cls-12" d="m193.01,110.9c-.8-1.17-1.07-2.39-.61-2.71.47-.32,1.5.37,2.31,1.54s1.07,2.39.61,2.71-1.5-.37-2.31-1.54Z"/>
        <path class="cls-12" d="m203.85,137.65c-.8-1.17-1.07-2.39-.61-2.71s1.5.37,2.31,1.54c.8,1.17,1.07,2.39.61,2.71-.47.32-1.5-.37-2.31-1.54Z"/>
        <path class="cls-12" d="m207.48,117.53c-.62-.44-1.25-.61-1.42-.38-.17.23.2.78.82,1.22.62.44,1.25.61,1.42.38.17-.23-.2-.78-.82-1.22Z"/>
        <path class="cls-12" d="m197.62,140.18c-.18-.74-.54-1.28-.82-1.22-.28.07-.36.72-.18,1.46.18.74.54,1.28.82,1.22.28-.07.36-.72.18-1.46Z"/>
        <path class="cls-12" d="m189.33,116.95c-.18-.74-.54-1.28-.82-1.22-.28.07-.36.72-.18,1.46.18.74.54,1.28.82,1.22.28-.07.36-.72.18-1.46Z"/>
        <path class="cls-12" d="m188.92,144.09c-.18-.74-.54-1.28-.82-1.22-.28.07-.36.72-.18,1.46.18.74.54,1.28.82,1.22.28-.07.36-.72.18-1.46Z"/>
        <path class="cls-12" d="m211.89,130.81c-.64-.4-1.28-.54-1.44-.3-.15.24.25.76.89,1.17.64.4,1.28.54,1.44.3.15-.24-.25-.76-.89-1.17Z"/>
        <path class="cls-12" d="m199.9,131.68c-.18-.74-.54-1.28-.82-1.22-.28.07-.36.72-.18,1.46.18.74.54,1.28.82,1.22.28-.07.36-.72.18-1.46Z"/>
        <g class="cls-11">
          <path class="cls-12" d="m181.39,155.22c-1.26-.78-2.11-2.22-1.93-3.94.73-5.38,1.47-11.02,2.24-17.15.33-2.6.62-4.96.74-7.82.13.5.31,1.22.48,2.09.65,3.49,1.34,11.01-.07,17.11-.13.58-.46,1.87.18,2.43.62.54,1.88.08,2.89-.24,1.64-.52,5.71-2.67,8.7-3.91s6.87-3.11,9.38-4.27c2.52-1.16,3.75-4.07,13.3-10.33,9.54-6.26,6.85-10.76,6.85-10.76,1.36.9,2.73,1.82,3.94,2.63,1.34.66,2.22,2,2.3,3.49.08,1.5-.66,2.92-1.92,3.71-1.92,1.61-3.61,2.99-4.98,4.08-4.08,3.26-5.45,4.16-7.31,4.91-1.56.62-1.59.39-3.27,1.04-3.6,1.38-5.91,3.4-6.71,4.07-2.3,1.91-7.56,5.5-20.42,12.84-1.34.85-3.05.85-4.39.02Z"/>
        </g>
      </g>
      <g>
        <path class="cls-5" d="m148.01,53.37c-1.26-.78-2.11-2.22-1.93-3.94.73-5.38,1.47-11.02,2.24-17.15.33-2.6.62-4.96.74-7.82h0c.03-.69.05-1.4.06-2.15.04-3.4-.19-4.31-.16-6.87.04-2.74.38-6.75,1.86-11.72.02-.18.26-2.17,2.12-3.2,1.13-.62,2.54-.73,3.83-.08,6.2,3.85,11.48,5.86,15.21,6.99,4.01,1.21,6.74,1.56,10.74,3.88.62.36,1.16.7,7.18,4.71.28.19.57.38.86.57,1.36.9,2.73,1.82,3.94,2.63,1.34.66,2.22,2,2.3,3.49.08,1.5-.66,2.92-1.92,3.71-1.92,1.61-3.61,2.99-4.98,4.08-4.08,3.26-5.45,4.16-7.31,4.91-1.56.62-1.59.39-3.27,1.04-3.6,1.38-5.91,3.4-6.71,4.07-2.3,1.91-7.56,5.5-20.42,12.84-1.34.85-3.05.85-4.39.02Z"/>
        <path class="cls-12" d="m182.87,23.21c-1.16-.83-1.83-1.87-1.5-2.34s1.54-.17,2.69.66c1.16.83,1.83,1.87,1.5,2.34-.33.46-1.54.17-2.69-.66Z"/>
        <path class="cls-12" d="m172.73,24.4c-1.16-.83-1.83-1.87-1.5-2.34.33-.46,1.54-.17,2.69.66s1.83,1.87,1.5,2.34c-.33.46-1.54.17-2.69-.66Z"/>
        <path class="cls-12" d="m152.05,36.44c-.54-1.32-.55-2.56-.02-2.77.53-.22,1.39.68,1.93,1.99.54,1.32.55,2.56.02,2.77-.53.22-1.39-.68-1.93-1.99Z"/>
        <path class="cls-12" d="m159.44,26.11c-.54-1.32-.55-2.56-.02-2.77.53-.22,1.39.68,1.93,1.99.54,1.32.55,2.56.02,2.77-.53.22-1.39-.68-1.93-1.99Z"/>
        <path class="cls-12" d="m159.63,9.05c-.8-1.17-1.07-2.39-.61-2.71.47-.32,1.5.37,2.31,1.54s1.07,2.39.61,2.71c-.47.32-1.5-.37-2.31-1.54Z"/>
        <path class="cls-12" d="m170.48,35.8c-.8-1.17-1.07-2.39-.61-2.71.47-.32,1.5.37,2.31,1.54.8,1.17,1.07,2.39.61,2.71-.47.32-1.5-.37-2.31-1.54Z"/>
        <path class="cls-12" d="m174.11,15.68c-.62-.44-1.25-.61-1.42-.38s.2.78.82,1.22,1.25.61,1.42.38-.2-.78-.82-1.22Z"/>
        <path class="cls-12" d="m164.24,38.33c-.18-.74-.54-1.28-.82-1.22-.28.07-.36.72-.18,1.46.18.74.54,1.28.82,1.22.28-.07.36-.72.18-1.46Z"/>
        <path class="cls-12" d="m155.95,15.1c-.18-.74-.54-1.28-.82-1.22-.28.07-.36.72-.18,1.46.18.74.54,1.28.82,1.22.28-.07.36-.72.18-1.46Z"/>
        <path class="cls-12" d="m155.54,42.24c-.18-.74-.54-1.28-.82-1.22-.28.07-.36.72-.18,1.46.18.74.54,1.28.82,1.22.28-.07.36-.72.18-1.46Z"/>
        <path class="cls-12" d="m178.51,28.96c-.64-.4-1.28-.54-1.44-.3-.15.24.25.76.89,1.17.64.4,1.28.54,1.44.3.15-.24-.25-.76-.89-1.17Z"/>
        <path class="cls-12" d="m166.52,29.83c-.18-.74-.54-1.28-.82-1.22-.28.07-.36.72-.18,1.46.18.74.54,1.28.82,1.22.28-.07.36-.72.18-1.46Z"/>
        <g class="cls-11">
          <path class="cls-12" d="m148.01,53.37c-1.26-.78-2.11-2.22-1.93-3.94.73-5.38,1.47-11.02,2.24-17.15.33-2.6.62-4.96.74-7.82.13.5.31,1.22.48,2.09.65,3.49,1.34,11.01-.07,17.11-.13.58-.46,1.87.18,2.43.62.54,1.88.08,2.89-.24,1.64-.52,5.71-2.67,8.7-3.91s6.87-3.11,9.38-4.27c2.52-1.16,3.75-4.07,13.3-10.33,9.54-6.26,6.85-10.76,6.85-10.76,1.36.9,2.73,1.82,3.94,2.63,1.34.66,2.22,2,2.3,3.49.08,1.5-.66,2.92-1.92,3.71-1.92,1.61-3.61,2.99-4.98,4.08-4.08,3.26-5.45,4.16-7.31,4.91-1.56.62-1.59.39-3.27,1.04-3.6,1.38-5.91,3.4-6.71,4.07-2.3,1.91-7.56,5.5-20.42,12.84-1.34.85-3.05.85-4.39.02Z"/>
        </g>
      </g>
      <g>
        <path class="cls-4" d="m81.63,150.27c-.12-1.43.52-2.92,1.96-3.77,4.6-2.52,9.42-5.19,14.64-8.11,2.22-1.24,4.22-2.37,6.52-3.92h0c.55-.37,1.12-.77,1.71-1.19,2.67-1.92,3.25-2.63,5.25-4.07,2.15-1.54,5.47-3.59,10.19-5.29.15-.09,1.84-1.05,3.71-.19,1.13.52,2.02,1.56,2.27,2.94.57,7.04,2.04,12.3,3.31,15.86,1.36,3.82,2.66,6.15,3.16,10.59.08.69.12,1.3.46,8.3.02.33.03.66.05,1,.08,1.58.16,3.17.22,4.58.25,1.42-.28,2.88-1.4,3.8-1.12.92-2.65,1.16-4,.64-2.36-.57-4.4-1.09-6.04-1.53-4.88-1.3-6.37-1.85-8.02-2.87-1.38-.86-1.22-1.01-2.69-1.95-3.15-2-6.05-2.64-7.02-2.88-2.81-.69-8.63-2.73-21.74-8.51-1.43-.56-2.42-1.88-2.54-3.41Z"/>
        <path class="cls-12" d="m125.15,160.06c-.02-1.38.41-2.5.96-2.51.55,0,1.01,1.1,1.04,2.48s-.41,2.5-.96,2.51c-.55,0-1.01-1.1-1.04-2.48Z"/>
        <path class="cls-12" d="m118.39,152.86c-.02-1.38.41-2.5.96-2.51.55,0,1.01,1.1,1.04,2.48s-.41,2.5-.96,2.51c-.55,0-1.01-1.1-1.04-2.48Z"/>
        <path class="cls-12" d="m97.13,143.69c.71-1.18,1.68-1.9,2.15-1.61.47.29.27,1.47-.44,2.65-.71,1.18-1.68,1.9-2.15,1.61-.47-.29-.27-1.47.44-2.65Z"/>
        <path class="cls-12" d="m109.43,143.49c.71-1.18,1.68-1.9,2.15-1.61.47.29.27,1.47-.44,2.65-.71,1.18-1.68,1.9-2.15,1.61-.47-.29-.27-1.47.44-2.65Z"/>
        <path class="cls-12" d="m122.81,133.84c.45-1.3,1.24-2.21,1.76-2.03s.58,1.38.12,2.68-1.24,2.21-1.76,2.03c-.52-.18-.58-1.38-.13-2.68Z"/>
        <path class="cls-12" d="m108.23,157.66c.45-1.3,1.24-2.21,1.76-2.03.52.18.58,1.38.12,2.68-.45,1.3-1.24,2.21-1.76,2.03-.52-.18-.58-1.38-.13-2.68Z"/>
        <path class="cls-12" d="m125.97,148.92c-.01-.73-.24-1.33-.52-1.32-.28,0-.49.6-.48,1.34.01.73.24,1.33.52,1.32.28,0,.49-.6.48-1.34Z"/>
        <path class="cls-12" d="m102.67,154.26c.47-.56.69-1.16.47-1.34-.21-.18-.76.13-1.24.7-.47.56-.69,1.16-.47,1.34.21.18.76-.13,1.24-.7Z"/>
        <path class="cls-12" d="m115.99,134.45c.47-.56.69-1.16.47-1.34-.21-.18-.76.13-1.24.7-.47.56-.69,1.16-.47,1.34s.76-.13,1.24-.7Z"/>
        <path class="cls-12" d="m94.63,149.73c.47-.56.69-1.16.47-1.34-.21-.18-.76.13-1.24.7-.47.56-.69,1.16-.47,1.34.21.18.76-.13,1.24-.7Z"/>
        <path class="cls-12" d="m118.17,159.98c-.05-.73-.32-1.31-.6-1.29-.27.02-.45.63-.4,1.36.05.73.32,1.31.6,1.29.27-.02.45-.63.4-1.36Z"/>
        <path class="cls-12" d="m110.6,151.15c.47-.56.69-1.16.47-1.34-.21-.18-.76.13-1.24.7-.47.56-.69,1.16-.47,1.34s.76-.13,1.24-.7Z"/>
        <g class="cls-11">
          <path class="cls-12" d="m81.63,150.27c-.12-1.43.52-2.92,1.96-3.77,4.6-2.52,9.42-5.19,14.64-8.11,2.22-1.24,4.22-2.37,6.52-3.92-.31.39-.76.94-1.35,1.57-2.34,2.52-7.8,7.37-13.36,9.79-.53.23-1.72.72-1.79,1.54-.07.79,1.02,1.52,1.85,2.12,1.34.98,5.36,2.91,8.05,4.53,2.68,1.62,6.37,3.56,8.72,4.85,2.35,1.29,5.33.58,15.69,4.41s12.32-.86,12.32-.86c.08,1.58.16,3.17.22,4.58.25,1.42-.28,2.88-1.4,3.8-1.12.92-2.65,1.16-4,.64-2.36-.57-4.4-1.09-6.04-1.53-4.88-1.3-6.37-1.85-8.02-2.87-1.38-.86-1.22-1.01-2.69-1.95-3.15-2-6.05-2.64-7.02-2.88-2.81-.69-8.63-2.73-21.74-8.51-1.43-.56-2.42-1.88-2.54-3.41Z"/>
        </g>
      </g>
      <path class="cls-8" d="m201.52,80.45c-1.33,3.42-3.77,6.67-7.15,9.68-1.86,1.66-4,3.25-6.4,4.74-13.12,8.19-33.82,13.72-57.22,14.23-4.12.09-8.17.02-12.11-.21-12.27-.68-23.54-2.79-32.97-5.98-4.06-1.38-7.78-2.95-11.09-4.69h0c-3.64-1.92-6.78-4.03-9.34-6.31-.48-.42-.93-.85-1.37-1.29-.16-1.63-.25-3.37-.25-5.09,0-5.33.94-10.66,4.16-13.39,2.08-1.77,6.42-3.54,9.82-4.46,4.96-1.35,6.73-.56,8.89-2.55,2.68-2.47,1.91-5.5,3.72-10.55.13-.35,1.46-3.94,3.87-7.32,1.78-2.49,4.14-4.87,7.06-5.79,2.46-.77,6.76.5,10.73,2.16,3.26,1.36,6.3,2.99,7.93,3.97-.09-.58-.15-1.29-.15-2.09,0-.27,0-.55.02-.84.03-.62.11-1.25.23-1.9.9-4.99,4.18-10.69,9.62-11.78,4.18-.85,8.56,1.25,11.48,5.24.27-.41,10.38-15.51,18.72,0,2.64,4.91,4.52,7.9,5.85,9.7,2.93,3.96,3.22,2.09,3.22,2.09,0,0,8.55,1.85,12.84,6.32,1.47,1.52,2.43,3.35,2.4,5.51-.02,1.2.43,1.99.48,2.24.82,4.66,9.54,6.93,13.87,12.14,1.42,1.71,2.47,3.86,3.15,6.21Z"/>
      <g>
        <path class="cls-14" d="m129.31,42.28h0s-.02,0-.02,0c0,0,.02,0,.03,0Z"/>
        <path class="cls-14" d="m202.58,72.8c-.49,6.61-5.89,12.79-14.7,17.88-13.13,7.57-33.84,12.71-57.24,13.22-22.49.49-42.68-3.41-56.15-9.93,0,0,0,0,0,0-9.98-4.83-16.26-11.09-17.06-18.07-.03.46-.05.91-.04,1.37.17,8.11,6.61,15.41,17.19,20.97,0,0,0,0,0,0,13.49,7.09,33.68,11.36,56.17,10.87,23.4-.5,44.1-6.04,57.22-14.23,9.37-5.85,14.87-13.06,14.7-20.75,0-.45-.04-.89-.09-1.33Z"/>
      </g>
      <path class="cls-2" d="m100.16,60.8c1.53-.95,3.16-1.73,4.89-2.3,1.72-.56,3.61-.95,5.57-.5.99.17,1.91.72,2.7,1.39.36.36.68.79.99,1.18l.74,1.11,2.96,4.44-1.96-.19h0c1.67-1.79,3.45-3.34,5.46-4.72,2-1.34,4.25-2.54,6.92-2.81,1.33-.11,2.76.1,4.01.73.6.3,1.23.75,1.66,1.12l1.35,1.12,5.39,4.5-2.05.57h0c.4-1.3.9-2.44,1.54-3.59.65-1.12,1.42-2.22,2.5-3.1,1.04-.9,2.53-1.47,3.97-1.35,1.43.14,2.66.78,3.69,1.54,1.03.76,1.9,1.68,2.72,2.6l2.38,2.75,2.34,2.79c.39.47.77.94,1.14,1.42.19.24.37.49.54.74.09.13.17.25.25.4.02.04.04.07.05.14,0,.02.03.08-.02.17-.11.11-.17.05-.2.05-.12-.04-.16-.09-.24-.14-.06-.04-.07-.12-.03-.18.04-.06.12-.07.17-.03h0c.05.04.13.08.16.09,0,.01,0-.03-.09.04-.04.06-.02.08-.02.06,0,0-.02-.04-.04-.07-.07-.11-.16-.23-.26-.35-.19-.23-.39-.46-.59-.68-.4-.45-.82-.89-1.23-1.32l-2.54-2.59c-1.74-1.68-3.35-3.56-5.27-4.78-.96-.61-2.01-1.01-3.01-1.03-.99.01-1.9.42-2.65,1.16-1.49,1.45-2.41,3.74-2.92,5.85h0c-.17.66-.85,1.05-1.5.88-.18-.05-.33-.13-.47-.24l-.08-.07-5.25-4.37-1.31-1.09c-.45-.38-.77-.59-1.2-.82-.82-.41-1.75-.55-2.72-.48-1.96.18-3.95,1.17-5.76,2.39-1.8,1.23-3.53,2.74-5.01,4.32h0s-.11.1-.11.1c-.47.45-1.21.44-1.66-.03-.08-.08-.14-.17-.19-.26l-2.52-4.7-.63-1.17c-.22-.32-.4-.63-.64-.92-.52-.51-1.11-.99-1.88-1.2-1.49-.51-3.26-.36-4.94.02-1.69.38-3.36,1-4.92,1.78h0c-.11.06-.23.01-.29-.09-.05-.1-.01-.22.08-.28Z"/>
      <path class="cls-2" d="m73.69,79.79c1.53-.95,3.16-1.73,4.89-2.3,1.72-.56,3.61-.95,5.57-.5.99.17,1.91.72,2.7,1.39.36.36.68.78.99,1.18l.74,1.11,2.96,4.44-1.96-.19h0c1.67-1.79,3.45-3.34,5.46-4.72,2-1.34,4.25-2.54,6.92-2.81,1.33-.11,2.76.1,4.01.73.6.3,1.23.75,1.66,1.12l1.35,1.12,5.39,4.5-2.05.57h0c.4-1.3.9-2.44,1.54-3.59.65-1.12,1.42-2.22,2.5-3.1,1.04-.9,2.53-1.47,3.97-1.35,1.43.14,2.66.78,3.69,1.54,1.03.76,1.9,1.68,2.72,2.6l2.38,2.75,2.34,2.79c.39.47.77.94,1.14,1.42.19.24.37.49.54.74.09.13.17.25.25.4.02.04.04.07.05.14,0,.02.03.08-.02.17-.11.11-.17.05-.2.05-.12-.04-.16-.09-.24-.14-.06-.04-.07-.12-.03-.18.04-.06.12-.07.17-.03h0c.05.04.13.08.16.09,0,.01,0-.03-.09.04-.04.06-.02.08-.02.06,0,0-.02-.04-.04-.07-.07-.11-.16-.23-.26-.35-.19-.23-.38-.46-.59-.68-.4-.45-.82-.89-1.23-1.32l-2.54-2.59c-1.74-1.68-3.35-3.56-5.27-4.78-.96-.61-2.01-1.01-3.01-1.03-.99.01-1.9.42-2.65,1.16-1.49,1.45-2.41,3.74-2.92,5.85h0c-.17.66-.85,1.05-1.5.88-.18-.05-.33-.13-.47-.24l-.08-.07-5.25-4.37-1.31-1.09c-.45-.38-.77-.59-1.2-.82-.82-.41-1.75-.55-2.72-.48-1.96.18-3.95,1.17-5.76,2.39-1.8,1.23-3.53,2.74-5.01,4.32h0s-.11.1-.11.1c-.47.45-1.21.44-1.66-.03-.08-.08-.14-.17-.19-.26l-2.52-4.7-.63-1.17c-.22-.32-.4-.63-.64-.92-.52-.51-1.11-.99-1.88-1.2-1.49-.51-3.26-.37-4.94.02-1.69.38-3.36,1-4.92,1.78h0c-.11.06-.23.01-.29-.09-.05-.1-.01-.22.08-.28Z"/>
      <path class="cls-2" d="m140.53,87.03c1.12-1.32,2.38-2.5,3.82-3.51,1.43-.98,3.09-1.86,5.04-1.89.96,0,1.98.25,2.82.78.42.25.83.59,1.14.88l.95.85,3.8,3.42-1.91.36c1-2.12,2.15-4.05,3.57-5.9,1.43-1.8,3.12-3.58,5.54-4.56,1.2-.46,2.62-.63,3.93-.32.32.09.65.16.95.29l.46.19.38.18,1.5.71,3,1.42,1.5.72.75.37c.27.14.46.22.82.42l-1.79,1.07h0c0-1.31.14-2.5.39-3.74.26-1.22.64-2.45,1.34-3.6.66-1.14,1.85-2.17,3.26-2.46,1.39-.27,2.71.05,3.86.52,1.15.47,2.18,1.14,3.16,1.81l2.88,2.02,2.86,2.06,1.41,1.07c.23.18.46.37.69.56.11.1.22.2.33.32.03.03.05.06.08.11.01.03.04.04.03.14-.04.14-.16.13-.17.13-.12-.01-.18-.04-.26-.08-.06-.02-.09-.1-.07-.16.02-.06.09-.09.16-.07h0c.06.02.14.05.16.04.02,0-.05-.02-.09.09,0,.06,0,.04,0,.04-.01-.01-.03-.04-.06-.06-.09-.09-.21-.18-.32-.27-.23-.17-.47-.34-.71-.5l-1.47-.95-2.99-1.84-3.02-1.8c-1-.58-2-1.12-3.05-1.46-1.04-.34-2.12-.47-3.03-.22-.9.27-1.59.94-2.04,1.85-.91,1.81-1.08,4.19-.95,6.31h0c0,.67-.54,1.21-1.21,1.21-.19,0-.38-.05-.54-.13l-.03-.02-1.39-.69-1.48-.72-2.98-1.42-1.49-.7-.37-.17-.31-.12c-.2-.1-.42-.13-.63-.2-.84-.2-1.71-.1-2.56.22-1.72.68-3.24,2.17-4.52,3.81-1.28,1.65-2.4,3.53-3.28,5.4l-.03.07c-.27.57-.95.82-1.52.55-.14-.06-.26-.16-.36-.26l-3.46-3.76-.86-.94c-.29-.31-.51-.54-.81-.76-.56-.44-1.25-.68-1.98-.75-1.48-.13-3.08.46-4.51,1.27-1.44.82-2.79,1.86-3.99,3.03h0c-.08.09-.21.08-.29,0-.07-.08-.08-.2,0-.28Z"/>
      <path class="cls-10" d="m158.79,43.85c-2.05-1.61-4.5-1.62-5.87-1.57-5.14.17-23.05,1.74-23.02,5.75.02,2.86,9.14,4.8,10.93,5.18,7.92,1.68,19.18,1.46,20.71-2.88.75-2.12-.9-5.02-2.76-6.48Z"/>
      <path class="cls-13" d="m149.46,96.66c0,.79-.64,1.44-1.44,1.44s-1.44-.64-1.44-1.44.64-1.44,1.44-1.44,1.44.64,1.44,1.44Z"/>
      <path class="cls-13" d="m97.67,96.08c0,.79-.64,1.44-1.44,1.44s-1.44-.64-1.44-1.44.64-1.44,1.44-1.44,1.44.64,1.44,1.44Z"/>
      <path class="cls-13" d="m97.1,69.04c0,1.11-.9,2.01-2.01,2.01s-2.01-.9-2.01-2.01.9-2.01,2.01-2.01,2.01.9,2.01,2.01Z"/>
      <path class="cls-13" d="m170.18,60.98c0,1.11-.9,2.01-2.01,2.01s-2.01-.9-2.01-2.01.9-2.01,2.01-2.01,2.01.9,2.01,2.01Z"/>
      <circle class="cls-13" cx="132.49" cy="75.37" r="3.16"/>
      <path class="cls-10" d="m151.19,63.57c0,1.27-1.8,2.3-4.03,2.3s-4.03-1.03-4.03-2.3,1.8-2.3,4.03-2.3,4.03,1.03,4.03,2.3Z"/>
      <path class="cls-10" d="m110.91,62.42c0,1.27-1.8,2.3-4.03,2.3s-4.03-1.03-4.03-2.3,1.8-2.3,4.03-2.3,4.03,1.03,4.03,2.3Z"/>
      <path class="cls-10" d="m172.48,83.71c0,1.27-1.8,2.3-4.03,2.3s-4.03-1.03-4.03-2.3,1.8-2.3,4.03-2.3,4.03,1.03,4.03,2.3Z"/>
      <ellipse class="cls-10" cx="184.56" cy="78.53" rx="4.03" ry="2.3"/>
      <path class="cls-10" d="m105.73,83.14c0,1.27-1.8,2.3-4.03,2.3s-4.03-1.03-4.03-2.3,1.8-2.3,4.03-2.3,4.03,1.03,4.03,2.3Z"/>
      <path class="cls-10" d="m85.01,80.84c0,1.27-1.8,2.3-4.03,2.3s-4.03-1.03-4.03-2.3,1.8-2.3,4.03-2.3,4.03,1.03,4.03,2.3Z"/>
    </g>
  </g>
</svg>