<svg xmlns="http://www.w3.org/2000/svg" xmlns:xlink="http://www.w3.org/1999/xlink" viewBox="0 0 99.12 80.8"><defs><style>.cls-1{fill:url(#linear-gradient);}.cls-2,.cls-39,.cls-71{opacity:0.34;}.cls-2{fill:url(#linear-gradient-2);}.cls-116,.cls-13,.cls-3{fill:#7f1e00;}.cls-3{opacity:0.15;}.cls-4{fill:url(#linear-gradient-3);}.cls-5{fill:url(#linear-gradient-4);}.cls-6{opacity:0.16;}.cls-7{fill:url(#linear-gradient-5);}.cls-8{fill:url(#linear-gradient-6);}.cls-9{fill:url(#linear-gradient-7);}.cls-10{fill:url(#linear-gradient-8);}.cls-11{fill:url(#linear-gradient-9);}.cls-12{opacity:0.12;}.cls-14{opacity:0.32;}.cls-15{fill:url(#linear-gradient-10);}.cls-16{fill:url(#linear-gradient-11);}.cls-17{fill:url(#linear-gradient-12);}.cls-18{fill:url(#linear-gradient-13);}.cls-19{fill:url(#linear-gradient-14);}.cls-20{fill:url(#linear-gradient-15);}.cls-21{fill:url(#linear-gradient-16);}.cls-22{fill:url(#linear-gradient-17);}.cls-23{fill:url(#linear-gradient-18);}.cls-24{fill:url(#linear-gradient-19);}.cls-25{fill:url(#linear-gradient-20);}.cls-26{fill:url(#linear-gradient-21);}.cls-27{fill:url(#linear-gradient-22);}.cls-28{fill:url(#linear-gradient-23);}.cls-29{fill:url(#linear-gradient-24);}.cls-30{fill:url(#linear-gradient-25);}.cls-31{fill:url(#linear-gradient-26);}.cls-32{fill:url(#linear-gradient-27);}.cls-33{fill:url(#linear-gradient-28);}.cls-34{fill:url(#linear-gradient-29);}.cls-35{fill:url(#linear-gradient-30);}.cls-36{fill:url(#linear-gradient-31);}.cls-37{fill:url(#linear-gradient-32);}.cls-38{fill:url(#linear-gradient-33);}.cls-39{fill:url(#linear-gradient-34);}.cls-40{fill:url(#linear-gradient-35);}.cls-41{fill:url(#linear-gradient-36);}.cls-42{fill:url(#linear-gradient-37);}.cls-43{fill:url(#linear-gradient-38);}.cls-44{fill:url(#linear-gradient-39);}.cls-45{fill:url(#linear-gradient-40);}.cls-46{fill:url(#linear-gradient-41);}.cls-47{fill:url(#linear-gradient-42);}.cls-48{fill:url(#linear-gradient-43);}.cls-49{fill:url(#linear-gradient-44);}.cls-50{fill:url(#linear-gradient-45);}.cls-51{fill:url(#linear-gradient-46);}.cls-52{fill:url(#linear-gradient-47);}.cls-53{fill:url(#linear-gradient-48);}.cls-54{fill:url(#linear-gradient-49);}.cls-55{fill:url(#linear-gradient-50);}.cls-56{fill:url(#linear-gradient-51);}.cls-57{fill:url(#linear-gradient-52);}.cls-58{fill:url(#linear-gradient-53);}.cls-59{fill:url(#linear-gradient-54);}.cls-60{fill:url(#linear-gradient-55);}.cls-61{fill:url(#linear-gradient-56);}.cls-62{fill:url(#linear-gradient-57);}.cls-63{fill:url(#linear-gradient-58);}.cls-64{fill:url(#linear-gradient-59);}.cls-65{fill:url(#linear-gradient-60);}.cls-66{fill:url(#linear-gradient-61);}.cls-67{fill:url(#linear-gradient-62);}.cls-68{fill:url(#linear-gradient-63);}.cls-69{fill:url(#linear-gradient-64);}.cls-70{fill:url(#linear-gradient-65);}.cls-71{fill:url(#linear-gradient-67);}.cls-72{fill:url(#linear-gradient-68);}.cls-73{fill:url(#linear-gradient-69);}.cls-74{fill:url(#linear-gradient-70);}.cls-75{fill:url(#linear-gradient-71);}.cls-76{fill:url(#linear-gradient-72);}.cls-77{fill:url(#linear-gradient-73);}.cls-78{fill:url(#linear-gradient-74);}.cls-79{fill:url(#linear-gradient-75);}.cls-80{fill:url(#linear-gradient-76);}.cls-81{fill:url(#linear-gradient-77);}.cls-82{fill:url(#linear-gradient-78);}.cls-83{fill:url(#linear-gradient-79);}.cls-84{fill:url(#linear-gradient-80);}.cls-85{fill:url(#linear-gradient-81);}.cls-86{fill:url(#linear-gradient-82);}.cls-87{fill:url(#linear-gradient-83);}.cls-88{fill:url(#linear-gradient-84);}.cls-89{fill:url(#linear-gradient-85);}.cls-90{fill:url(#linear-gradient-86);}.cls-91{fill:url(#linear-gradient-87);}.cls-92{fill:url(#linear-gradient-88);}.cls-93{fill:url(#linear-gradient-89);}.cls-94{fill:url(#linear-gradient-90);}.cls-95{fill:url(#linear-gradient-91);}.cls-96{fill:url(#linear-gradient-92);}.cls-97{fill:url(#linear-gradient-93);}.cls-98{fill:url(#linear-gradient-94);}.cls-99{fill:url(#linear-gradient-95);}.cls-100{fill:url(#linear-gradient-96);}.cls-101{fill:url(#linear-gradient-97);}.cls-102{fill:url(#linear-gradient-98);}.cls-103{fill:url(#linear-gradient-99);}.cls-104{fill:url(#linear-gradient-100);}.cls-105{fill:url(#linear-gradient-101);}.cls-106{fill:url(#linear-gradient-102);}.cls-107{fill:url(#linear-gradient-103);}.cls-108{fill:url(#linear-gradient-104);}.cls-109{fill:url(#linear-gradient-105);}.cls-110{fill:url(#linear-gradient-106);}.cls-111{fill:url(#linear-gradient-107);}.cls-112{fill:url(#linear-gradient-108);}.cls-113{fill:url(#linear-gradient-109);}.cls-114{fill:url(#linear-gradient-110);}.cls-115{fill:url(#linear-gradient-111);}.cls-116{opacity:0.21;}.cls-117{opacity:0.47;}.cls-118{fill:url(#linear-gradient-112);}.cls-119{fill:url(#linear-gradient-113);}</style><linearGradient id="linear-gradient" x1="44.31" y1="13.88" x2="19.21" y2="67.44" gradientTransform="translate(-1.85 -3.59) rotate(-1.11)" gradientUnits="userSpaceOnUse"><stop offset="0" stop-color="#fa0"/><stop offset="1" stop-color="#fe6d00"/></linearGradient><linearGradient id="linear-gradient-2" x1="41.18" y1="12.42" x2="16.08" y2="65.97" gradientTransform="translate(-1.85 -3.59) rotate(-1.11)" gradientUnits="userSpaceOnUse"><stop offset="0.01" stop-color="#fff4c5"/><stop offset="0.18" stop-color="#fdebb4" stop-opacity="0.85"/><stop offset="0.55" stop-color="#fad487" stop-opacity="0.47"/><stop offset="0.99" stop-color="#f5b851" stop-opacity="0"/></linearGradient><linearGradient id="linear-gradient-3" x1="49.47" y1="28.19" x2="28.98" y2="71.91" gradientTransform="translate(-1.85 -3.59) rotate(-1.11)" gradientUnits="userSpaceOnUse"><stop offset="0" stop-color="#fcd27c"/><stop offset="0.5" stop-color="#fcdc88"/><stop offset="1" stop-color="#fce18f"/></linearGradient><linearGradient id="linear-gradient-4" x1="49.48" y1="28.05" x2="28.83" y2="72.13" gradientTransform="translate(-1.85 -3.59) rotate(-1.11)" gradientUnits="userSpaceOnUse"><stop offset="0" stop-color="#fa0"/><stop offset="1" stop-color="#ff9d00"/></linearGradient><linearGradient id="linear-gradient-5" x1="46.3" y1="43.55" x2="33.59" y2="70.69" xlink:href="#linear-gradient"/><linearGradient id="linear-gradient-6" x1="46.8" y1="38.82" x2="34.29" y2="65.51" xlink:href="#linear-gradient"/><linearGradient id="linear-gradient-7" x1="30.43" y1="47.44" x2="26.17" y2="56.54" xlink:href="#linear-gradient"/><linearGradient id="linear-gradient-8" x1="52.46" y1="37.23" x2="45.66" y2="51.73" xlink:href="#linear-gradient"/><linearGradient id="linear-gradient-9" x1="47.27" y1="30.76" x2="36.28" y2="54.23" xlink:href="#linear-gradient"/><linearGradient id="linear-gradient-10" x1="5.33" y1="41.82" x2="4.59" y2="43.4" xlink:href="#linear-gradient-2"/><linearGradient id="linear-gradient-11" x1="12.32" y1="44.87" x2="11.53" y2="46.55" xlink:href="#linear-gradient-2"/><linearGradient id="linear-gradient-12" x1="11.88" y1="45.37" x2="11.87" y2="45.4" xlink:href="#linear-gradient-2"/><linearGradient id="linear-gradient-13" x1="8.28" y1="46.41" x2="6.88" y2="49.4" xlink:href="#linear-gradient-2"/><linearGradient id="linear-gradient-14" x1="11.52" y1="53.34" x2="10.86" y2="54.76" xlink:href="#linear-gradient-2"/><linearGradient id="linear-gradient-15" x1="13.76" y1="57.52" x2="13.28" y2="58.54" xlink:href="#linear-gradient-2"/><linearGradient id="linear-gradient-16" x1="17.15" y1="37.88" x2="16.45" y2="39.36" xlink:href="#linear-gradient-2"/><linearGradient id="linear-gradient-17" x1="12.5" y1="32.37" x2="11.79" y2="33.88" xlink:href="#linear-gradient-2"/><linearGradient id="linear-gradient-18" x1="9.97" y1="25.92" x2="8.78" y2="28.45" xlink:href="#linear-gradient-2"/><linearGradient id="linear-gradient-19" x1="7.02" y1="34.59" x2="5.81" y2="37.16" xlink:href="#linear-gradient-2"/><linearGradient id="linear-gradient-20" x1="19.31" y1="24.05" x2="17.38" y2="28.19" xlink:href="#linear-gradient-2"/><linearGradient id="linear-gradient-21" x1="26.13" y1="34.94" x2="24.78" y2="37.82" xlink:href="#linear-gradient-2"/><linearGradient id="linear-gradient-22" x1="27.68" y1="26.81" x2="26.59" y2="29.14" xlink:href="#linear-gradient-2"/><linearGradient id="linear-gradient-23" x1="29.94" y1="18.2" x2="28.21" y2="21.88" xlink:href="#linear-gradient-2"/><linearGradient id="linear-gradient-24" x1="35.88" y1="22.22" x2="34.97" y2="24.16" xlink:href="#linear-gradient-2"/><linearGradient id="linear-gradient-25" x1="35.17" y1="29.55" x2="34.18" y2="31.66" xlink:href="#linear-gradient-2"/><linearGradient id="linear-gradient-26" x1="41.34" y1="31.29" x2="40.76" y2="32.53" xlink:href="#linear-gradient-2"/><linearGradient id="linear-gradient-27" x1="43.96" y1="24.54" x2="43.44" y2="25.65" xlink:href="#linear-gradient-2"/><linearGradient id="linear-gradient-28" x1="41.5" y1="18.16" x2="40.88" y2="19.47" xlink:href="#linear-gradient-2"/><linearGradient id="linear-gradient-29" x1="50.05" y1="21.17" x2="49.18" y2="23.03" xlink:href="#linear-gradient-2"/><linearGradient id="linear-gradient-30" x1="50.43" y1="28.11" x2="49.82" y2="29.4" xlink:href="#linear-gradient-2"/><linearGradient id="linear-gradient-31" x1="56.35" y1="29.01" x2="55.58" y2="30.65" xlink:href="#linear-gradient-2"/><linearGradient id="linear-gradient-32" x1="55.98" y1="30.25" x2="55.97" y2="30.28" xlink:href="#linear-gradient-2"/><linearGradient id="linear-gradient-33" x1="-187" y1="41.43" x2="-205.08" y2="80.02" gradientTransform="matrix(-1, -0.02, -0.02, 1, -118.99, -3.59)" xlink:href="#linear-gradient"/><linearGradient id="linear-gradient-34" x1="-189.55" y1="40.24" x2="-205.88" y2="75.08" gradientTransform="matrix(-1, -0.02, -0.02, 1, -118.99, -3.59)" xlink:href="#linear-gradient-2"/><linearGradient id="linear-gradient-35" x1="-183.24" y1="53.64" x2="-197.36" y2="83.79" gradientTransform="matrix(-1, -0.02, -0.02, 1, -118.99, -3.59)" xlink:href="#linear-gradient-3"/><linearGradient id="linear-gradient-36" x1="-183.19" y1="53.52" x2="-197.43" y2="83.92" gradientTransform="matrix(-1, -0.02, -0.02, 1, -118.99, -3.59)" xlink:href="#linear-gradient-4"/><linearGradient id="linear-gradient-37" x1="-185.29" y1="64.93" x2="-193.79" y2="83.07" gradientTransform="matrix(-1, -0.02, -0.02, 1, -118.99, -3.59)" xlink:href="#linear-gradient"/><linearGradient id="linear-gradient-38" x1="-185" y1="61.12" x2="-193.5" y2="79.26" gradientTransform="matrix(-1, -0.02, -0.02, 1, -118.99, -3.59)" xlink:href="#linear-gradient"/><linearGradient id="linear-gradient-39" x1="-197.33" y1="67.31" x2="-199.89" y2="72.77" gradientTransform="matrix(-1, -0.02, -0.02, 1, -118.99, -3.59)" xlink:href="#linear-gradient"/><linearGradient id="linear-gradient-40" x1="-180.37" y1="60.14" x2="-185.37" y2="70.8" gradientTransform="matrix(-1, -0.02, -0.02, 1, -118.99, -3.59)" xlink:href="#linear-gradient"/><linearGradient id="linear-gradient-41" x1="-184.55" y1="55.48" x2="-192.33" y2="72.08" gradientTransform="matrix(-1, -0.02, -0.02, 1, -118.99, -3.59)" xlink:href="#linear-gradient"/><linearGradient id="linear-gradient-42" x1="-216.35" y1="59.11" x2="-216.91" y2="60.29" gradientTransform="matrix(-1, -0.02, -0.02, 1, -118.99, -3.59)" xlink:href="#linear-gradient-2"/><linearGradient id="linear-gradient-43" x1="-210.89" y1="62.32" x2="-211.57" y2="63.77" gradientTransform="matrix(-1, -0.02, -0.02, 1, -118.99, -3.59)" xlink:href="#linear-gradient-2"/><linearGradient id="linear-gradient-44" x1="-211.27" y1="62.79" x2="-211.28" y2="62.81" gradientTransform="matrix(-1, -0.02, -0.02, 1, -118.99, -3.59)" xlink:href="#linear-gradient-2"/><linearGradient id="linear-gradient-45" x1="-213.97" y1="62.83" x2="-215.07" y2="65.19" gradientTransform="matrix(-1, -0.02, -0.02, 1, -118.99, -3.59)" xlink:href="#linear-gradient-2"/><linearGradient id="linear-gradient-46" x1="-211.41" y1="68.63" x2="-211.91" y2="69.7" gradientTransform="matrix(-1, -0.02, -0.02, 1, -118.99, -3.59)" xlink:href="#linear-gradient-2"/><linearGradient id="linear-gradient-47" x1="-209.77" y1="72" x2="-210.13" y2="72.75" gradientTransform="matrix(-1, -0.02, -0.02, 1, -118.99, -3.59)" xlink:href="#linear-gradient-2"/><linearGradient id="linear-gradient-48" x1="-207.36" y1="58.03" x2="-207.91" y2="59.2" gradientTransform="matrix(-1, -0.02, -0.02, 1, -118.99, -3.59)" xlink:href="#linear-gradient-2"/><linearGradient id="linear-gradient-49" x1="-211.46" y1="52.64" x2="-212" y2="53.8" gradientTransform="matrix(-1, -0.02, -0.02, 1, -118.99, -3.59)" xlink:href="#linear-gradient-2"/><linearGradient id="linear-gradient-50" x1="-213.22" y1="47.68" x2="-214.01" y2="49.38" gradientTransform="matrix(-1, -0.02, -0.02, 1, -118.99, -3.59)" xlink:href="#linear-gradient-2"/><linearGradient id="linear-gradient-51" x1="-215.33" y1="53.7" x2="-216.27" y2="55.71" gradientTransform="matrix(-1, -0.02, -0.02, 1, -118.99, -3.59)" xlink:href="#linear-gradient-2"/><linearGradient id="linear-gradient-52" x1="-205.76" y1="47.77" x2="-207.2" y2="50.85" gradientTransform="matrix(-1, -0.02, -0.02, 1, -118.99, -3.59)" xlink:href="#linear-gradient-2"/><linearGradient id="linear-gradient-53" x1="-200.13" y1="57.13" x2="-201.33" y2="59.69" gradientTransform="matrix(-1, -0.02, -0.02, 1, -118.99, -3.59)" xlink:href="#linear-gradient-2"/><linearGradient id="linear-gradient-54" x1="-199.3" y1="50.72" x2="-200.14" y2="52.51" gradientTransform="matrix(-1, -0.02, -0.02, 1, -118.99, -3.59)" xlink:href="#linear-gradient-2"/><linearGradient id="linear-gradient-55" x1="-197.7" y1="44.41" x2="-198.93" y2="47.03" gradientTransform="matrix(-1, -0.02, -0.02, 1, -118.99, -3.59)" xlink:href="#linear-gradient-2"/><linearGradient id="linear-gradient-56" x1="-193.49" y1="47.04" x2="-194.19" y2="48.53" gradientTransform="matrix(-1, -0.02, -0.02, 1, -118.99, -3.59)" xlink:href="#linear-gradient-2"/><linearGradient id="linear-gradient-57" x1="-193.6" y1="53.1" x2="-194.44" y2="54.9" gradientTransform="matrix(-1, -0.02, -0.02, 1, -118.99, -3.59)" xlink:href="#linear-gradient-2"/><linearGradient id="linear-gradient-58" x1="-188.93" y1="54.87" x2="-189.39" y2="55.83" gradientTransform="matrix(-1, -0.02, -0.02, 1, -118.99, -3.59)" xlink:href="#linear-gradient-2"/><linearGradient id="linear-gradient-59" x1="-187.57" y1="48.93" x2="-187.97" y2="49.79" gradientTransform="matrix(-1, -0.02, -0.02, 1, -118.99, -3.59)" xlink:href="#linear-gradient-2"/><linearGradient id="linear-gradient-60" x1="-189.75" y1="43.75" x2="-190.17" y2="44.65" gradientTransform="matrix(-1, -0.02, -0.02, 1, -118.99, -3.59)" xlink:href="#linear-gradient-2"/><linearGradient id="linear-gradient-61" x1="-183.1" y1="46.79" x2="-183.96" y2="48.61" gradientTransform="matrix(-1, -0.02, -0.02, 1, -118.99, -3.59)" xlink:href="#linear-gradient-2"/><linearGradient id="linear-gradient-62" x1="-182.3" y1="52.96" x2="-182.88" y2="54.18" gradientTransform="matrix(-1, -0.02, -0.02, 1, -118.99, -3.59)" xlink:href="#linear-gradient-2"/><linearGradient id="linear-gradient-63" x1="-177.9" y1="54.13" x2="-178.53" y2="55.46" gradientTransform="matrix(-1, -0.02, -0.02, 1, -118.99, -3.59)" xlink:href="#linear-gradient-2"/><linearGradient id="linear-gradient-64" x1="-178.16" y1="55.14" x2="-178.17" y2="55.16" gradientTransform="matrix(-1, -0.02, -0.02, 1, -118.99, -3.59)" xlink:href="#linear-gradient-2"/><linearGradient id="linear-gradient-65" x1="53.93" y1="6.35" x2="85.66" y2="58.42" gradientTransform="matrix(1, 0, 0, 1, 0, 0)" xlink:href="#linear-gradient"/><linearGradient id="linear-gradient-67" x1="-131.94" y1="1.15" x2="-156.33" y2="53.2" gradientTransform="matrix(-1, -0.02, -0.02, 1, -66.86, -3.59)" xlink:href="#linear-gradient-2"/><linearGradient id="linear-gradient-68" x1="-162.27" y1="29.79" x2="-163.1" y2="31.57" gradientTransform="matrix(-1, -0.02, -0.02, 1, -66.86, -3.59)" xlink:href="#linear-gradient-2"/><linearGradient id="linear-gradient-69" x1="-155.82" y1="34.3" x2="-156.8" y2="36.39" gradientTransform="matrix(-1, -0.02, -0.02, 1, -66.86, -3.59)" xlink:href="#linear-gradient-2"/><linearGradient id="linear-gradient-70" x1="-156.37" y1="35" x2="-156.38" y2="35.02" gradientTransform="matrix(-1, -0.02, -0.02, 1, -66.86, -3.59)" xlink:href="#linear-gradient-2"/><linearGradient id="linear-gradient-71" x1="-158.89" y1="35.52" x2="-160.53" y2="39.03" gradientTransform="matrix(-1, -0.02, -0.02, 1, -66.86, -3.59)" xlink:href="#linear-gradient-2"/><linearGradient id="linear-gradient-72" x1="-155.9" y1="43.44" x2="-156.5" y2="44.7" gradientTransform="matrix(-1, -0.02, -0.02, 1, -66.86, -3.59)" xlink:href="#linear-gradient-2"/><linearGradient id="linear-gradient-73" x1="-154.07" y1="47.15" x2="-154.49" y2="48.05" gradientTransform="matrix(-1, -0.02, -0.02, 1, -66.86, -3.59)" xlink:href="#linear-gradient-2"/><linearGradient id="linear-gradient-74" x1="-152.69" y1="27.36" x2="-153.4" y2="28.86" gradientTransform="matrix(-1, -0.02, -0.02, 1, -66.86, -3.59)" xlink:href="#linear-gradient-2"/><linearGradient id="linear-gradient-75" x1="-157.39" y1="21.28" x2="-158.02" y2="22.63" gradientTransform="matrix(-1, -0.02, -0.02, 1, -66.86, -3.59)" xlink:href="#linear-gradient-2"/><linearGradient id="linear-gradient-76" x1="-159.96" y1="15.37" x2="-160.95" y2="17.48" gradientTransform="matrix(-1, -0.02, -0.02, 1, -66.86, -3.59)" xlink:href="#linear-gradient-2"/><linearGradient id="linear-gradient-77" x1="-161.48" y1="22.88" x2="-162.53" y2="25.12" gradientTransform="matrix(-1, -0.02, -0.02, 1, -66.86, -3.59)" xlink:href="#linear-gradient-2"/><linearGradient id="linear-gradient-78" x1="-152.69" y1="13.78" x2="-154.43" y2="17.48" gradientTransform="matrix(-1, -0.02, -0.02, 1, -66.86, -3.59)" xlink:href="#linear-gradient-2"/><linearGradient id="linear-gradient-79" x1="-145.31" y1="24.91" x2="-146.73" y2="27.94" gradientTransform="matrix(-1, -0.02, -0.02, 1, -66.86, -3.59)" xlink:href="#linear-gradient-2"/><linearGradient id="linear-gradient-80" x1="-145.78" y1="16.22" x2="-146.81" y2="18.43" gradientTransform="matrix(-1, -0.02, -0.02, 1, -66.86, -3.59)" xlink:href="#linear-gradient-2"/><linearGradient id="linear-gradient-81" x1="-145.94" y1="7.08" x2="-147.66" y2="10.76" gradientTransform="matrix(-1, -0.02, -0.02, 1, -66.86, -3.59)" xlink:href="#linear-gradient-2"/><linearGradient id="linear-gradient-82" x1="-140.04" y1="9.84" x2="-140.92" y2="11.73" gradientTransform="matrix(-1, -0.02, -0.02, 1, -66.86, -3.59)" xlink:href="#linear-gradient-2"/><linearGradient id="linear-gradient-83" x1="-138.81" y1="18.4" x2="-139.97" y2="20.88" gradientTransform="matrix(-1, -0.02, -0.02, 1, -66.86, -3.59)" xlink:href="#linear-gradient-2"/><linearGradient id="linear-gradient-84" x1="-133.38" y1="19.78" x2="-134.12" y2="21.37" gradientTransform="matrix(-1, -0.02, -0.02, 1, -66.86, -3.59)" xlink:href="#linear-gradient-2"/><linearGradient id="linear-gradient-85" x1="-133.04" y1="9.46" x2="-133.69" y2="10.83" gradientTransform="matrix(-1, -0.02, -0.02, 1, -66.86, -3.59)" xlink:href="#linear-gradient-2"/><linearGradient id="linear-gradient-86" x1="-135.78" y1="4.38" x2="-136.52" y2="5.94" gradientTransform="matrix(-1, -0.02, -0.02, 1, -66.86, -3.59)" xlink:href="#linear-gradient-2"/><linearGradient id="linear-gradient-87" x1="-127.96" y1="6.36" x2="-129.17" y2="8.94" gradientTransform="matrix(-1, -0.02, -0.02, 1, -66.86, -3.59)" xlink:href="#linear-gradient-2"/><linearGradient id="linear-gradient-88" x1="-125.83" y1="15.47" x2="-126.97" y2="17.91" gradientTransform="matrix(-1, -0.02, -0.02, 1, -66.86, -3.59)" xlink:href="#linear-gradient-2"/><linearGradient id="linear-gradient-89" x1="-120.22" y1="17.91" x2="-121.11" y2="19.82" gradientTransform="matrix(-1, -0.02, -0.02, 1, -66.86, -3.59)" xlink:href="#linear-gradient-2"/><linearGradient id="linear-gradient-90" x1="-120.44" y1="19.52" x2="-120.45" y2="19.54" gradientTransform="matrix(-1, -0.02, -0.02, 1, -66.86, -3.59)" xlink:href="#linear-gradient-2"/><linearGradient id="linear-gradient-91" x1="72.39" y1="34.66" x2="71.11" y2="37.4" gradientTransform="matrix(1, 0, 0, 1, 0, 0)" xlink:href="#linear-gradient-2"/><linearGradient id="linear-gradient-92" x1="71.53" y1="37" x2="71.51" y2="37.02" gradientTransform="matrix(1, 0, 0, 1, 0, 0)" xlink:href="#linear-gradient-2"/><linearGradient id="linear-gradient-93" x1="74.1" y1="31.61" x2="73.38" y2="33.14" gradientTransform="matrix(1, 0, 0, 1, 0, 0)" xlink:href="#linear-gradient-2"/><linearGradient id="linear-gradient-94" x1="81.25" y1="34.99" x2="80.5" y2="36.58" gradientTransform="matrix(1, 0, 0, 1, 0, 0)" xlink:href="#linear-gradient-2"/><linearGradient id="linear-gradient-95" x1="75.74" y1="44.16" x2="75.05" y2="45.63" gradientTransform="matrix(1, 0, 0, 1, 0, 0)" xlink:href="#linear-gradient-2"/><linearGradient id="linear-gradient-96" x1="66.91" y1="38.57" x2="66.22" y2="40.05" gradientTransform="matrix(1, 0, 0, 1, 0, 0)" xlink:href="#linear-gradient-2"/><linearGradient id="linear-gradient-97" x1="64.53" y1="30.02" x2="63.61" y2="32" gradientTransform="matrix(1, 0, 0, 1, 0, 0)" xlink:href="#linear-gradient-2"/><linearGradient id="linear-gradient-98" x1="62.61" y1="22.67" x2="61.65" y2="24.73" gradientTransform="matrix(1, 0, 0, 1, 0, 0)" xlink:href="#linear-gradient-2"/><linearGradient id="linear-gradient-99" x1="56.65" y1="27.15" x2="55.75" y2="29.05" gradientTransform="matrix(1, 0, 0, 1, 0, 0)" xlink:href="#linear-gradient-2"/><linearGradient id="linear-gradient-100" x1="50.12" y1="28.54" x2="49.08" y2="30.75" gradientTransform="matrix(1, 0, 0, 1, 0, 0)" xlink:href="#linear-gradient-2"/><linearGradient id="linear-gradient-101" x1="57.85" y1="34.9" x2="56.83" y2="37.05" gradientTransform="matrix(1, 0, 0, 1, 0, 0)" xlink:href="#linear-gradient-2"/><linearGradient id="linear-gradient-102" x1="46.47" y1="47.08" x2="46.46" y2="47.1" gradientTransform="matrix(1, 0, 0, 1, 0, 0)" xlink:href="#linear-gradient-2"/><linearGradient id="linear-gradient-103" x1="46.35" y1="46.79" x2="46.33" y2="46.82" gradientTransform="matrix(1, 0, 0, 1, 0, 0)" xlink:href="#linear-gradient-2"/><linearGradient id="linear-gradient-104" x1="46.68" y1="45.88" x2="45.73" y2="47.91" gradientTransform="matrix(1, 0, 0, 1, 0, 0)" xlink:href="#linear-gradient-2"/><linearGradient id="linear-gradient-105" x1="48.62" y1="49.14" x2="47.96" y2="50.55" gradientTransform="matrix(1, 0, 0, 1, 0, 0)" xlink:href="#linear-gradient-2"/><linearGradient id="linear-gradient-106" x1="54.53" y1="51.17" x2="54.07" y2="52.16" gradientTransform="matrix(1, 0, 0, 1, 0, 0)" xlink:href="#linear-gradient-2"/><linearGradient id="linear-gradient-107" x1="60.91" y1="48.7" x2="60.4" y2="49.8" gradientTransform="matrix(1, 0, 0, 1, 0, 0)" xlink:href="#linear-gradient-2"/><linearGradient id="linear-gradient-108" x1="50.11" y1="46.1" x2="49.6" y2="47.19" gradientTransform="matrix(1, 0, 0, 1, 0, 0)" xlink:href="#linear-gradient-2"/><linearGradient id="linear-gradient-109" x1="64.47" y1="53.89" x2="63.51" y2="55.94" gradientTransform="matrix(1, 0, 0, 1, 0, 0)" xlink:href="#linear-gradient-2"/><linearGradient id="linear-gradient-110" x1="69.25" y1="54.11" x2="68.8" y2="55.08" gradientTransform="matrix(1, 0, 0, 1, 0, 0)" xlink:href="#linear-gradient-2"/><linearGradient id="linear-gradient-111" x1="71.85" y1="58.28" x2="71.29" y2="59.48" gradientTransform="matrix(1, 0, 0, 1, 0, 0)" xlink:href="#linear-gradient-2"/><linearGradient id="linear-gradient-112" x1="59.72" y1="41.03" x2="57.62" y2="45.5" gradientTransform="matrix(1, 0, 0, 1, 0, 0)" xlink:href="#linear-gradient-2"/><linearGradient id="linear-gradient-113" x1="75.98" y1="51.2" x2="74.28" y2="54.82" gradientTransform="matrix(1, 0, 0, 1, 0, 0)" xlink:href="#linear-gradient-2"/></defs><g id="Слой_2" data-name="Слой 2"><g id="Layer_1" data-name="Layer 1"><path class="cls-1" d="M63.71,38.17a13.21,13.21,0,0,0-1.06-3.71,7.22,7.22,0,0,0-1.29-3.92A8,8,0,0,1,60,27.07a5.8,5.8,0,0,0-1.41-3.19c-.43-.44-.81-.58-.9-1.18a6.77,6.77,0,0,0-.4-1.94,6.56,6.56,0,0,0-2.57-2.68c-1.16-.75-2.41-1.26-3.19-2.45a9.07,9.07,0,0,0-2.42-3,3.53,3.53,0,0,0-2.85-.51A3.38,3.38,0,0,0,43,10c-.77.06-1.49.38-2.25.49a13,13,0,0,1-2.65,0c-2.69-.16-5.47-.35-7.74,1.14a5,5,0,0,0-3.73-.31,19.82,19.82,0,0,0-2.34,1,5.12,5.12,0,0,1-2.64.43,4.92,4.92,0,0,0-2.63.4,16.5,16.5,0,0,0-2.15,1.58c-1.23.87-2.85.74-4.18,1.39s-1.77,2.34-3.24,2.78a13.05,13.05,0,0,0-2.36.78,14.65,14.65,0,0,0-2.29,1.63C2,23.41-.67,26.65.72,30.39a1.42,1.42,0,0,0,.31.49A6.51,6.51,0,0,0,1.26,32a9.47,9.47,0,0,0-.74,7.78c.36,1,1,1.87,1.29,2.87a17.72,17.72,0,0,1,.51,2.51,5.29,5.29,0,0,0,2.49,4c.6.33,1.56.46,1.78,1.15a9.4,9.4,0,0,1,.06,1.51A6.26,6.26,0,0,0,7,53.19,7.3,7.3,0,0,0,10.57,57c.78.44,1.08,1.23,1.6,1.93A11.13,11.13,0,0,0,14.11,61a11.35,11.35,0,0,0,5.09,2.36h.15a1.27,1.27,0,0,0,1.63.18,111.67,111.67,0,0,1,10.71-6.07c3.89-1.84,8-2.71,12.06-3.91a36.11,36.11,0,0,0,10.64-5.49c3.14-2.24,6.55-4.51,8.94-7.57A1.43,1.43,0,0,0,63.52,39,1.14,1.14,0,0,0,63.71,38.17Z"/><path class="cls-2" d="M5.86,20.41c5-.29,9.07-3.65,13.65-5.41a29.16,29.16,0,0,1,7.42-2.07,23.59,23.59,0,0,1,3.85.18,4.61,4.61,0,0,0,2.06-.48,14.32,14.32,0,0,1,5.09-1.08,13.81,13.81,0,0,1,5.28.45c.81.3,1.36,1.22,2.15,1.26a5.92,5.92,0,0,1,3.09.9,9.23,9.23,0,0,1,2.16,2.16,31.31,31.31,0,0,0,2.2,2.26,27.3,27.3,0,0,1,2.46,2.9,17.91,17.91,0,0,0,2,2.56c.8.73,1.63,1.38,2.45,2.05a5,5,0,0,0-1.19-2.21c-.43-.44-.81-.58-.9-1.18a6.77,6.77,0,0,0-.4-1.94,6.56,6.56,0,0,0-2.57-2.68c-1.16-.75-2.41-1.26-3.19-2.45a9.07,9.07,0,0,0-2.42-3,3.53,3.53,0,0,0-2.85-.51A3.38,3.38,0,0,0,43,10c-.77.06-1.49.38-2.25.49a13,13,0,0,1-2.65,0c-2.69-.16-5.47-.35-7.74,1.14a5,5,0,0,0-3.73-.31,19.82,19.82,0,0,0-2.34,1,5.12,5.12,0,0,1-2.64.43,4.92,4.92,0,0,0-2.63.4,16.5,16.5,0,0,0-2.15,1.58c-1.23.87-2.85.74-4.18,1.39s-1.77,2.34-3.24,2.78a13.05,13.05,0,0,0-2.36.78,9.2,9.2,0,0,0-1.25.81Z"/><path class="cls-3" d="M22.36,59.35a42.51,42.51,0,0,1-3.65-5.09,23.65,23.65,0,0,0-2.86-4.21A42.57,42.57,0,0,0,12,46.73,23.14,23.14,0,0,1,5.9,38.91c-.69-1.44-1.7-2.66-2.5-4a3.68,3.68,0,0,1-.71-2.49,3.92,3.92,0,0,1,.36-1l.07-.15a12.43,12.43,0,0,1-2.5-2.95c-.09-.14-.17-.28-.25-.43a6,6,0,0,0,.35,2.53,1.42,1.42,0,0,0,.31.49A6.51,6.51,0,0,0,1.26,32a9.47,9.47,0,0,0-.74,7.78c.36,1,1,1.87,1.29,2.87a17.72,17.72,0,0,1,.51,2.51,5.29,5.29,0,0,0,2.49,4c.6.33,1.56.46,1.78,1.15a9.4,9.4,0,0,1,.06,1.51A6.26,6.26,0,0,0,7,53.19,7.3,7.3,0,0,0,10.57,57c.78.44,1.08,1.23,1.6,1.93A11.13,11.13,0,0,0,14.11,61a11.35,11.35,0,0,0,5.09,2.36h.15a1.27,1.27,0,0,0,1.63.18l3.24-2C23.61,60.83,23,60.1,22.36,59.35Z"/><path class="cls-4" d="M63.48,36.54c-.33-1.09-.67-2.17-1-3.26a13.9,13.9,0,0,0-1.15-3.36c-1.18-1.86-4.24-1-6-.7a75.48,75.48,0,0,0-13.62,3.59c-9.51,3.3-21.56,4.94-26.94,13.54-1.92,3.09-.43,9.56,1.61,13.51.81,1.58,1.85,3.55,3.69,4.09a4.35,4.35,0,0,0,2.57-.16c1.23-.36,2.45-.76,3.67-1.14a30.9,30.9,0,0,0,6.43-2.34c1.74-1,3.32-2.19,5.13-3.07,3.46-1.68,7.2-2.71,10.8-4.05a30.11,30.11,0,0,0,10-5.63,28.87,28.87,0,0,0,4.23-5C64.24,40.63,64.14,38.72,63.48,36.54Z"/><path class="cls-5" d="M64,36.75a15.49,15.49,0,0,0-1.47-5.55A4.85,4.85,0,0,0,61,29.26a4.08,4.08,0,0,0-2.5-.54c-4.27.14-8.43,1.56-12.51,2.71-4.26,1.19-8.52,2.37-12.75,3.62a59,59,0,0,0-10.78,4C19.39,40.7,16,43,14.55,46.26a7.8,7.8,0,0,0-.61,2.38s0,0,0,.08a23.39,23.39,0,0,0,3.76,13.62c.55,1.59,2.36,2,3.89,1.86a26,26,0,0,0,5.84-1.3,30.92,30.92,0,0,0,5.5-2.49c1.81-1,3.56-2.2,5.47-3.08,7.1-3.27,15.74-3.86,21.22-10a28,28,0,0,0,3.53-4.85A9.5,9.5,0,0,0,64,36.75Zm-.89,3c-.24,1.9-1.46,3.45-2.57,4.94a20,20,0,0,1-3.82,4.08,22.51,22.51,0,0,1-4.58,2.66C48.7,53,45.05,53.86,41.53,55.1a35.23,35.23,0,0,0-5.24,2.26c-1.68.91-3.28,2-5,2.88A28.06,28.06,0,0,1,26,62.38a23.92,23.92,0,0,1-2.66.63,10,10,0,0,1-2.88.28,2.29,2.29,0,0,1-1.67-.9.44.44,0,0,0-.07-.24c-.07-.09-.12-.19-.18-.28a.32.32,0,0,0-.09-.15,22.56,22.56,0,0,1-3.54-13.1v0c.32-3.41,3.48-5.93,6.17-7.62a41.52,41.52,0,0,1,9.8-4.22c3.76-1.19,7.58-2.23,11.38-3.3s7.83-2.37,11.82-3.21A29.12,29.12,0,0,1,57,29.76a8.21,8.21,0,0,1,2.84,0,3,3,0,0,1,1.81,1.76,11.51,11.51,0,0,1,1,2.66A15.35,15.35,0,0,1,63.09,39.76Z"/><g class="cls-6"><path class="cls-7" d="M57.33,44.65c-4.25,2.76-9.69,2.17-14.15,4.43a22.12,22.12,0,0,0-3.29,2.23,16.12,16.12,0,0,1-3.51,2.07c-2.48,1-5.06,1.67-7.29,3.23a17.52,17.52,0,0,1-3.9,2.29A28.08,28.08,0,0,1,20.68,60c-.59.11-.32,1,.26.89a18.78,18.78,0,0,0,7.64-2.81A19.54,19.54,0,0,1,32.08,56c1.22-.52,2.49-.92,3.73-1.39a16.61,16.61,0,0,0,3.58-1.78c1.14-.78,2.19-1.7,3.37-2.43a20.52,20.52,0,0,1,7.1-2.32c2.75-.54,5.56-1.07,8-2.63C58.31,45.12,57.83,44.32,57.33,44.65Z"/><path class="cls-8" d="M58.74,40.37c-2.4,1.87-5.7,1.08-8.49,1.64a20.77,20.77,0,0,0-6.6,2.87,69,69,0,0,1-6.31,3.71,15,15,0,0,1-3.45,1.18,28.86,28.86,0,0,0-4.42.9c-3,1.15-5.65,3.79-9.07,3.69-.6,0-.58.91,0,.93,3,.09,5.42-1.79,8-3.1A13.84,13.84,0,0,1,33,50.86a15.56,15.56,0,0,0,3.62-.94c4.61-1.84,8.31-5.58,13.15-6.85,3.1-.81,6.77.19,9.46-1.91C59.69,40.8,59.21,40,58.74,40.37Z"/><path class="cls-9" d="M34.47,45.53a38.71,38.71,0,0,0-6.94,1.65l-7.24,2.08a.46.46,0,0,0,.26.89l7-2a39.42,39.42,0,0,1,6.92-1.67C35.09,46.41,35.07,45.48,34.47,45.53Z"/><path class="cls-10" d="M58.12,35.79A33.77,33.77,0,0,1,52.94,37a29.36,29.36,0,0,0-5,1.9c-3.41,1.51-7,2.71-10.27,4.42-.54.27,0,1.07.48.79,3.25-1.67,6.74-2.85,10.08-4.33a28.32,28.32,0,0,1,5.11-1.91,32.72,32.72,0,0,0,5.08-1.14C58.93,36.46,58.68,35.57,58.12,35.79Z"/><path class="cls-11" d="M57.88,31.67c-4.7,1.51-9.4,3-14.17,4.29-2.35.63-4.71,1.18-7.09,1.68a30.44,30.44,0,0,0-6.67,2,50.81,50.81,0,0,0-6.74,4c-.5.33,0,1.13.49.79a58.72,58.72,0,0,1,5.88-3.58,26.94,26.94,0,0,1,6.67-2.21c4.73-1,9.39-2.22,14-3.63,2.64-.8,5.25-1.64,7.87-2.48A.46.46,0,0,0,57.88,31.67Z"/></g><g class="cls-12"><path class="cls-13" d="M3.78,39.68a.48.48,0,0,0-.32-.13h.07l-.12,0-.07,0-.07-.07-.07-.11,0-.11a.22.22,0,0,1,0-.08l0-.12,0,0a.5.5,0,0,0,0-.34A.46.46,0,0,0,3,38.44a.42.42,0,0,0-.36,0,.42.42,0,0,0-.27.22,1.09,1.09,0,0,0-.13.61,1.45,1.45,0,0,0,.19.61,1.35,1.35,0,0,0,.44.45,1.28,1.28,0,0,0,.6.19.51.51,0,0,0,.33-.15A.44.44,0,0,0,3.92,40,.47.47,0,0,0,3.78,39.68Z"/><path class="cls-13" d="M6.71,45.3a.6.6,0,0,1-.08-.08l0,0L6.51,45v0l0-.1v0a.22.22,0,0,1,0-.08v-.11l0-.21a.87.87,0,0,0-.11-.63.94.94,0,0,0-.5-.35h0l-.09,0h0l-.06-.05,0,0,0,0,0-.09v0l0-.07v0s0-.06,0-.09,0-.14,0,0a.46.46,0,1,0-.9-.23,1.5,1.5,0,0,0,.2,1.05,1.61,1.61,0,0,0,.33.36l.25.16.15.06s0,0,0,.06a1.87,1.87,0,0,0,0,.53,1.68,1.68,0,0,0,.52,1,.47.47,0,1,0,.65-.67Z"/><path class="cls-13" d="M10.86,51.15a1.64,1.64,0,0,1-.22-.14l0,0-.1-.08a1.54,1.54,0,0,1-.17-.19h0l0,0-.07-.11a2.39,2.39,0,0,1-.13-.21l0,0a1,1,0,0,1,0-.1A2.33,2.33,0,0,1,10,50s0-.06,0-.08h0a.22.22,0,0,0,0-.08.46.46,0,0,0-.47-.45.47.47,0,0,0-.46.47A2.7,2.7,0,0,0,10.4,52a.48.48,0,0,0,.64-.18A.47.47,0,0,0,10.86,51.15Z"/><path class="cls-13" d="M13.78,55.28a.49.49,0,0,0-.3-.12,2.12,2.12,0,0,1-.55-.14,2.18,2.18,0,0,1-.42-.24l-.24-.21a.46.46,0,1,0-.64.67,2.75,2.75,0,0,0,1.84.84.47.47,0,0,0,.33-.14.54.54,0,0,0,.13-.33A.48.48,0,0,0,13.78,55.28Z"/><path class="cls-13" d="M10,41.87h0Z"/><path class="cls-13" d="M11,42.36c-.2-.09-.41-.18-.61-.29l-.28-.16-.06,0h0a1.06,1.06,0,0,0-.12-.1l-.11-.11,0,0a1.83,1.83,0,0,1-.16-.26h0a.14.14,0,0,0,0-.06s0-.09,0-.14v0a.1.1,0,0,1,0,0v-.17A.47.47,0,0,0,9,40.45a.49.49,0,0,0-.46.48,1.9,1.9,0,0,0,.64,1.46,4.19,4.19,0,0,0,1.32.78.45.45,0,0,0,.36,0,.45.45,0,0,0,.27-.22A.46.46,0,0,0,11,42.36Z"/><path class="cls-13" d="M5.49,34l-.06,0-.06,0,0,0-.05,0s-.08-.09,0,0,0-.06,0-.06l-.05-.07v0l0-.08v0h0v-.16a1.38,1.38,0,0,0,0-.64A1.86,1.86,0,0,0,4.48,32l-.07-.07s0-.08,0,0a.43.43,0,0,1,0-.07h0s0,0,0,0v0h0a.45.45,0,0,0,.06-.55A.46.46,0,0,0,3.76,31a.92.92,0,0,0-.22,1.22,1.61,1.61,0,0,0,.36.42l.2.17.06.06a.08.08,0,0,0,0,0,.14.14,0,0,1,0,.06v.08a3.07,3.07,0,0,0,0,.34,1.4,1.4,0,0,0,.15.64,1.52,1.52,0,0,0,.94.78.49.49,0,0,0,.57-.34A.47.47,0,0,0,5.49,34Z"/><path class="cls-13" d="M7.2,22.56a.48.48,0,0,0-.63.18,2.55,2.55,0,0,0-.22,2.09.47.47,0,1,0,.89-.27l-.06-.22s0-.13,0-.05,0,0,0-.05,0-.15,0-.22,0-.13,0-.19v0s0-.06,0-.08l.06-.22a.24.24,0,0,0,0-.08v0c0-.07.07-.14.11-.2A.48.48,0,0,0,7.2,22.56Z"/><path class="cls-13" d="M11.18,30.3a.5.5,0,0,0-.32-.12h.07a.47.47,0,0,1-.16,0l-.12-.06L10.54,30l-.08-.13,0-.13a.66.66,0,0,1,0-.14.47.47,0,0,0-.14-.33.46.46,0,0,0-.33-.13.5.5,0,0,0-.33.14.86.86,0,0,1-.07.1.46.46,0,0,0-.06.23.79.79,0,0,0,0,.22,1.36,1.36,0,0,0,.06.29,1.65,1.65,0,0,0,.31.53,1.52,1.52,0,0,0,.4.32,1.41,1.41,0,0,0,.6.16A.47.47,0,0,0,11.2,31a.49.49,0,0,0,.13-.33A.48.48,0,0,0,11.18,30.3Z"/><path class="cls-13" d="M15.54,35.76l0,0-.2-.11-.17-.16-.12-.2a1.8,1.8,0,0,1-.06-.22.69.69,0,0,1,0-.2.45.45,0,0,0-.14-.33.48.48,0,0,0-.34-.13.47.47,0,0,0-.32.14.51.51,0,0,0-.13.33,1.82,1.82,0,0,0,1.31,1.8.47.47,0,0,0,.57-.33A.49.49,0,0,0,15.54,35.76Z"/><path class="cls-13" d="M16.79,24.52a.51.51,0,0,1-.32-.62c.07-.35.29-.66.33-1,.07-.65-.66-.83-.92-1.34a1.45,1.45,0,0,1,0-1.44c.31-.51-.51-1-.82-.45a2.38,2.38,0,0,0,.75,3.2l0,0a1.7,1.7,0,0,0-.09.24,3.11,3.11,0,0,0-.18.54,1.68,1.68,0,0,0,.1,1c.3.61,1.17.64,1.21,1.4a.47.47,0,0,0,.93,0A1.83,1.83,0,0,0,16.79,24.52Z"/><path class="cls-13" d="M24.31,34.16c.05,0,0,0,0,0a.48.48,0,0,1,0-.18,5.93,5.93,0,0,0-.07-.59,1.76,1.76,0,0,0-.75-1A1.5,1.5,0,0,1,23,30.58a.48.48,0,0,0-.18-.64.47.47,0,0,0-.63.18,2.46,2.46,0,0,0,.47,2.76c.16.16.35.28.51.44a.54.54,0,0,1,.18.37c.05.51.07,1,.53,1.28a.47.47,0,0,0,.64-.18A.47.47,0,0,0,24.31,34.16Z"/><path class="cls-13" d="M25.41,23.52v0l0-.15a2.21,2.21,0,0,1,.15-.5.47.47,0,0,0-.34-.57.48.48,0,0,0-.57.34,3.54,3.54,0,0,0,0,2.38.47.47,0,0,0,.89-.27c0-.08-.05-.16-.07-.25l0-.15v0a2.19,2.19,0,0,1,0-.51A2,2,0,0,1,25.41,23.52Z"/><path class="cls-13" d="M29.2,13.57a.46.46,0,0,0-.66,0l-.17.18a.38.38,0,0,1-.14.11,1.2,1.2,0,0,1-.38.18l-.14,0h0a1,1,0,0,1-.24,0,.68.68,0,0,1-.2,0L26.86,14a1.13,1.13,0,0,0-1,.66c-.21.37-.41.75-.61,1.12a.47.47,0,1,0,.81.46c.2-.37.39-.74.6-1.1a.41.41,0,0,1,.05-.09s.06-.09,0-.07l0,0h0a.65.65,0,0,1,.14,0l.32,0a2.24,2.24,0,0,0,2-.79A.47.47,0,0,0,29.2,13.57Z"/><path class="cls-13" d="M33.84,20l-.09-.09s0,0,0,0-.1-.14-.14-.21l-.06-.11,0-.06h0a1.34,1.34,0,0,1-.09-.26l0-.13v0a2.45,2.45,0,0,1,0-.27.66.66,0,0,1,0-.14v0h0a2.61,2.61,0,0,1,.06-.27.47.47,0,0,0-.33-.57.48.48,0,0,0-.57.34,2.57,2.57,0,0,0,.68,2.55.47.47,0,1,0,.65-.67Z"/><path class="cls-13" d="M33.48,19.48h0S33.51,19.53,33.48,19.48Z"/><path class="cls-13" d="M32.42,26.89a1.79,1.79,0,0,1-.26-.81h0s0-.1,0,0a0,0,0,0,1,0,0l.06-.06s.14-.13.07-.07l.18-.14a1.14,1.14,0,0,0,.47-.83.46.46,0,0,0-.92,0h0s0,0,0,0v0h0v0l0,0c0-.08,0,0-.07.06s0,0,0,0l-.07.05-.2.16a1.24,1.24,0,0,0-.42,1,3,3,0,0,0,.35,1.09l.51,1.12a.47.47,0,0,0,.64.15.48.48,0,0,0,.16-.64C32.73,27.58,32.57,27.24,32.42,26.89Z"/><path class="cls-13" d="M32.05,24.88h0Z"/><path class="cls-13" d="M41.76,27.24a4.22,4.22,0,0,1-.66-.36h0L41,26.81a.86.86,0,0,1-.14-.13,3.57,3.57,0,0,1-.28-.27,1.36,1.36,0,0,0-.76-.41A2.63,2.63,0,0,0,39,26a.47.47,0,0,0-.46.47.48.48,0,0,0,.48.46l.34,0h.27l.09,0,0,0h0l.07,0h0l.06.06a.8.8,0,0,1,.13.13,3.7,3.7,0,0,0,1.25.85.48.48,0,0,0,.63-.18A.45.45,0,0,0,41.76,27.24Z"/><path class="cls-13" d="M44.11,20.93a2.31,2.31,0,0,0-2.85-1.68.47.47,0,0,0,.26.9l.17,0H42l.33.08h0l.07,0a.8.8,0,0,1,.16.08l.12.08h0l.07.06.13.12,0,.06h0a.71.71,0,0,1,.1.14.3.3,0,0,1,0,.08h0s0,.1.05.14,0,.12,0,.18a.47.47,0,0,0,.58.32A.49.49,0,0,0,44.11,20.93Z"/><path class="cls-13" d="M51.26,24.11A4,4,0,0,0,48,22.29a.47.47,0,1,0,0,.93h.33l.39.08.18.06.1,0h0c.12.06.24.11.36.18a2.2,2.2,0,0,1,.32.21h0l.08.07A.86.86,0,0,1,50,24a3.7,3.7,0,0,1,.28.28l0,0h0l.07.08.12.18a.46.46,0,1,0,.79-.49Z"/><path class="cls-13" d="M51.68,18.77l-1.4-1.24c-.45-.4-.93-.78-1.35-1.2a1.24,1.24,0,0,1-.32-.54,1.37,1.37,0,0,0-.47-.71.81.81,0,0,0-1.24.43.49.49,0,0,0,.34.57.53.53,0,0,0,.43-.12c0,.1.08.21.13.32a2.94,2.94,0,0,0,.89,1.09L51,19.44a.48.48,0,0,0,.66,0A.47.47,0,0,0,51.68,18.77Z"/><path class="cls-13" d="M57.35,25.1A4.23,4.23,0,0,0,54.82,23a.46.46,0,0,0-.56.33.47.47,0,0,0,.33.57l.18.06.07,0h0l.33.17.3.18a.18.18,0,0,0,.07.05h0l.14.12a2,2,0,0,1,.26.24,1.59,1.59,0,0,0,.13.13l0,.07h0a2.53,2.53,0,0,1,.4.62.46.46,0,0,0,.64.15A.48.48,0,0,0,57.35,25.1Z"/><path class="cls-13" d="M41.9,13.9A4.5,4.5,0,0,0,40,12.82a2.28,2.28,0,0,0-2,.45.46.46,0,0,0,0,.65.48.48,0,0,0,.66,0s.09-.06.1-.07l.11-.05.18-.06.13,0a1.6,1.6,0,0,1,.38,0h.12l.19.05a3.67,3.67,0,0,1,1.36.82.47.47,0,1,0,.65-.67Z"/></g><g class="cls-14"><path class="cls-15" d="M4.42,39.06h0L4.33,39l-.08-.07-.1-.17A3.22,3.22,0,0,1,4,38.16a.41.41,0,0,0-.21-.27.46.46,0,0,0-.36,0,.48.48,0,0,0-.28.22s0,.07,0,.11a.53.53,0,0,0,0,.25,2.71,2.71,0,0,0,.3.91,1.29,1.29,0,0,0,.79.62.47.47,0,0,0,.57-.33A.49.49,0,0,0,4.42,39.06Z"/><path class="cls-16" d="M12,42.33l-.07,0-.15-.06a1.74,1.74,0,0,1-.26-.15L11.36,42h0l-.06,0-.23-.21L11,41.64l-.05-.06h0v0c-.05-.09-.12-.17-.18-.26l-.15-.27,0,0v0l-.06-.15a.46.46,0,0,0-.57-.31.48.48,0,0,0-.32.58,3.44,3.44,0,0,0,2.14,2.12.46.46,0,0,0,.56-.33A.47.47,0,0,0,12,42.33Z"/><path class="cls-17" d="M10.91,41.57c-.05-.07,0,0,0,0Z"/><path class="cls-18" d="M7.41,44.81a.43.43,0,0,1,0-.11l0-.1h0l0-.09h0v0a.84.84,0,0,0,.21-.35c.13-.55-.45-.78-.83-1a1.21,1.21,0,0,1-.38-.28.71.71,0,0,1-.1-.14s0,0,0,0a.48.48,0,0,1,0-.12A.45.45,0,0,0,6,42.09a.47.47,0,0,0-.46.47A1.32,1.32,0,0,0,6,43.64a3.06,3.06,0,0,0,.52.33l.16.09a1.34,1.34,0,0,0-.13.27,1.76,1.76,0,0,0-.1.6A1.69,1.69,0,0,0,7,46.09a.48.48,0,0,0,.66,0,.47.47,0,0,0,0-.66l-.08-.08v0l-.07-.11h0l0-.1V45a.15.15,0,0,1,0-.06.57.57,0,0,1,0-.13S7.41,44.82,7.41,44.81Z"/><path class="cls-19" d="M10.93,50.35h0a2.14,2.14,0,0,1-.23-.38,1.7,1.7,0,0,1-.1-.32.53.53,0,0,0-.22-.27.46.46,0,0,0-.63.18.5.5,0,0,0,0,.36A2.48,2.48,0,0,0,10.28,51a.53.53,0,0,0,.34.13.48.48,0,0,0,.45-.48A.47.47,0,0,0,10.93,50.35Z"/><path class="cls-20" d="M13.64,54.16a.47.47,0,0,0-.58-.31H13l0,0,0,0a.59.59,0,0,1,0-.08h0a.54.54,0,0,0-.19-.23.56.56,0,0,0-.36,0,.52.52,0,0,0-.28.22A.51.51,0,0,0,12,54a1.14,1.14,0,0,0,.24.41.34.34,0,0,0,.09.08,1.33,1.33,0,0,0,.19.14,1.07,1.07,0,0,0,.82.08.48.48,0,0,0,.28-.22A.5.5,0,0,0,13.64,54.16Z"/><path class="cls-21" d="M16.24,34.85l-.06-.07a1.32,1.32,0,0,1-.16-.25,1.28,1.28,0,0,1-.09-.32h0a.5.5,0,0,0-.14-.33.44.44,0,0,0-.33-.13.5.5,0,0,0-.33.14.46.46,0,0,0-.13.33,2,2,0,0,0,.61,1.31.41.41,0,0,0,.33.13.43.43,0,0,0,.32-.14.46.46,0,0,0,.13-.33A.52.52,0,0,0,16.24,34.85Z"/><path class="cls-22" d="M11.37,29.43l0,0a.6.6,0,0,1-.09-.15,1,1,0,0,1,0-.14.92.92,0,0,1,0-.16.09.09,0,0,0,0-.05.48.48,0,0,0,0-.35.45.45,0,0,0-.29-.21.43.43,0,0,0-.35.05.49.49,0,0,0-.21.28,1.45,1.45,0,0,0,.35,1.36.51.51,0,0,0,.34.13.43.43,0,0,0,.32-.14.46.46,0,0,0,.13-.33A.51.51,0,0,0,11.37,29.43Z"/><path class="cls-23" d="M8.45,22.06a.48.48,0,0,0-.64.18,3.77,3.77,0,0,0-.41,2.11.48.48,0,0,0,.48.46.46.46,0,0,0,.45-.47c0-.16,0-.31,0-.46s0-.15,0-.23v0s0-.08,0-.12a3.17,3.17,0,0,1,.12-.44s0-.07,0-.11h0v0l.1-.22A.46.46,0,0,0,8.45,22.06Z"/><path class="cls-24" d="M6,33H6l0,0,0,0H6a.05.05,0,0,1,0,0h0v-.06s0,0,0,0a.61.61,0,0,0,.07-.1A.63.63,0,0,0,5.94,32a1.07,1.07,0,0,0-.25-.16l-.09-.05-.06,0-.15-.13-.09-.09,0,0a1.65,1.65,0,0,1-.22-.36L5,31a.56.56,0,0,1,0-.12l0-.12s0-.14,0,0a.47.47,0,0,0-.47-.45c-.23,0-.5.21-.46.47a2.41,2.41,0,0,0,.43,1.12,2,2,0,0,0,.39.43l.22.17a1,1,0,0,0,0,.78A1.06,1.06,0,0,0,6,34a.49.49,0,0,0,.46-.48A.47.47,0,0,0,6,33Z"/><path class="cls-25" d="M17.85,24.05a.82.82,0,0,1-.06-.89A.89.89,0,0,0,17.3,22a.62.62,0,0,1-.28-.25,1.22,1.22,0,0,1-.09-.43,8.23,8.23,0,0,0,0-1.49.46.46,0,0,0-.58-.31.47.47,0,0,0-.31.57,13.26,13.26,0,0,1,0,1.41,1.62,1.62,0,0,0,.64,1.2,1.71,1.71,0,0,0,.23.13l.05,0h0a1.46,1.46,0,0,0-.07.19,1.87,1.87,0,0,0-.08.32,1.77,1.77,0,0,0,.43,1.38.47.47,0,0,0,.66,0A.48.48,0,0,0,17.85,24.05Z"/><path class="cls-26" d="M25.54,32.61c-.08-.38-.46-.54-.76-.75,0,0-.06,0,0,0l-.09-.08-.17-.14-.17-.17-.06-.06,0,0h0l-.12-.19,0-.08v0L24,30.87V30.7a.47.47,0,0,0-.48-.45.46.46,0,0,0-.45.47A2.18,2.18,0,0,0,24,32.4c.13.1.26.21.4.3a1.37,1.37,0,0,0,.2.13l.06,0V33a2.62,2.62,0,0,0,0,.28l0,.64a.46.46,0,0,0,.47.45.47.47,0,0,0,.46-.47l0-.6A2.74,2.74,0,0,0,25.54,32.61Z"/><path class="cls-27" d="M26.25,22.93a.48.48,0,0,0-.48-.46.47.47,0,0,0-.45.47,14,14,0,0,0,.06,1.83.47.47,0,0,0,.93,0A13.84,13.84,0,0,1,26.25,22.93Z"/><path class="cls-28" d="M29.48,14.5a.46.46,0,0,0-.63.18,1.31,1.31,0,0,1-.23.24.76.76,0,0,1-.19.12.39.39,0,0,1-.11.06h0a2.82,2.82,0,0,1-1,.19c-.39,0-.9-.06-1.19.27a1.57,1.57,0,0,0-.27.49c-.08.19-.16.38-.25.57a.5.5,0,0,0,.18.64.48.48,0,0,0,.64-.18c.08-.18.15-.36.23-.55s.07-.17.11-.25l0,0h.45c.2,0,.41,0,.61,0a2.51,2.51,0,0,0,1.88-1.06A.46.46,0,0,0,29.48,14.5Z"/><path class="cls-29" d="M34.5,19.46a1.83,1.83,0,0,1-.12-.89,1.7,1.7,0,0,1,0-.22.46.46,0,1,0-.9-.23,2.65,2.65,0,0,0,.08,1.6.52.52,0,0,0,.22.28.5.5,0,0,0,.36,0A.48.48,0,0,0,34.5,19.46Z"/><path class="cls-30" d="M34.17,27,34,26.79l0-.05h0l-.07-.09-.14-.21c0-.07-.07-.16-.11-.23l0-.05a1.17,1.17,0,0,0,0-.11c0-.08-.05-.16-.07-.25l0-.12a.07.07,0,0,0,0-.05,2.11,2.11,0,0,0,0-.26.47.47,0,0,0-.47-.46.47.47,0,0,0-.46.47,3.3,3.3,0,0,0,1,2.26.47.47,0,0,0,.65-.67Z"/><path class="cls-31" d="M41.23,27.82a2.09,2.09,0,0,0-1.12-.91,2.13,2.13,0,0,0-.71-.09l-.34,0a.45.45,0,0,1-.16,0h0l-.11,0a.48.48,0,0,0-.57.34.47.47,0,0,0,.34.56,1.94,1.94,0,0,0,.72.06,1.71,1.71,0,0,1,.32,0c.07,0,0,0,0,0h.06l.14,0,.11,0,.07,0,.11.06,0,0h0l.19.18,0,.05s0-.07,0,0a1,1,0,0,1,.08.14.47.47,0,0,0,.64.15A.46.46,0,0,0,41.23,27.82Z"/><path class="cls-32" d="M43.72,20.85a.59.59,0,0,0-.22-.27,3.56,3.56,0,0,0-2.16-.66.47.47,0,0,0-.46.47.48.48,0,0,0,.48.46h.39a2.68,2.68,0,0,1,.49.11l.11,0,.06,0c.05,0,0,0,0,0a.88.88,0,0,1,.22.1,2.34,2.34,0,0,1,.43.26.45.45,0,0,0,.36,0,.51.51,0,0,0,.28-.22A.5.5,0,0,0,43.72,20.85Z"/><path class="cls-33" d="M41,14.26a3.7,3.7,0,0,0-2.45-.52.55.55,0,0,0-.33.14.48.48,0,0,0-.13.33c0,.23.22.5.47.46a3.52,3.52,0,0,1,.56,0h.15s.19,0,.06,0a1.09,1.09,0,0,1,.26,0,2.46,2.46,0,0,1,.53.15l0,0,.14.06.26.15a.46.46,0,0,0,.63-.18A.47.47,0,0,0,41,14.26Z"/><path class="cls-34" d="M50,18.54A6.64,6.64,0,0,0,47,15.91a.47.47,0,0,0-.46.81,6.23,6.23,0,0,1,.8.44l.19.13.09.06,0,0,.35.29a5.52,5.52,0,0,1,.63.65s.06.08,0,0l.08.1.13.17.26.4a.46.46,0,0,0,.79-.48Z"/><path class="cls-35" d="M50.74,24.83A5.18,5.18,0,0,0,47.08,23a.47.47,0,0,0-.45.48.46.46,0,0,0,.47.45,2.32,2.32,0,0,1,.38.05,3,3,0,0,1,.45.1,3.9,3.9,0,0,1,.8.31A4.41,4.41,0,0,1,50.1,25.5a.46.46,0,0,0,.65,0A.48.48,0,0,0,50.74,24.83Z"/><path class="cls-36" d="M55.9,25.75a4.17,4.17,0,0,0-1.82-1.85.48.48,0,0,0-.64.18.47.47,0,0,0,.18.63l.26.15.13.08s.15.13,0,0c.15.13.3.24.44.38l.19.21h0l0,.06.09.12a2.62,2.62,0,0,1,.3.51.49.49,0,0,0,.28.21.5.5,0,0,0,.36-.06A.48.48,0,0,0,55.9,25.75Z"/><path class="cls-37" d="M54.68,25.56h0C54.73,25.65,54.7,25.59,54.68,25.56Z"/></g><path class="cls-38" d="M50.91,65a1.37,1.37,0,0,0,0,1.2c1.57,2.68,3.09,4.58,6,5.91A42.45,42.45,0,0,0,66,75.24c3.22.65,6.41,1,9.43,1.85a67.34,67.34,0,0,1,8.46,3.19A1,1,0,0,0,85.08,80s.06,0,.1,0a9.72,9.72,0,0,0,3.57-2.11,9,9,0,0,0,1.32-1.64,5.52,5.52,0,0,1,1.13-1.57,7.18,7.18,0,0,0,2.58-3.16,5,5,0,0,0,.24-1,5.09,5.09,0,0,1,.1-1.17c.21-.6.9-.76,1.35-1.1a5.31,5.31,0,0,0,2-3.27,16.27,16.27,0,0,1,.48-2c.24-.71.71-1.38.93-2.14a9,9,0,0,0-.42-5.71c.1-.3.11-.61.19-.9s.16-.24.19-.4c.58-3-.88-4.73-3.2-6.33a6.36,6.36,0,0,0-1.76-.86A8.79,8.79,0,0,0,92,46.35c-1.09-.14-1.69-1-2.73-1.29s-2.21,0-3.22-.44c-.6-.25-1.08-.61-1.7-.83a4.24,4.24,0,0,0-1.91-.11,4.33,4.33,0,0,1-1.9-.17,17.79,17.79,0,0,0-1.68-.59,4.11,4.11,0,0,0-2.55.09,11.15,11.15,0,0,0-5.23-1.23c-.61,0-1.22-.06-1.8-.11s-1-.26-1.61-.25a2.71,2.71,0,0,0-2.35,1.67,3.44,3.44,0,0,0-2.16.75,10.85,10.85,0,0,0-2,2.72A11.71,11.71,0,0,1,58.6,49a7.16,7.16,0,0,0-2,2.23,6.32,6.32,0,0,0-.44,1.56c-.14.5-.41.61-.72,1a6.3,6.3,0,0,0-1.23,2.45A7.72,7.72,0,0,1,53,58.74a6.09,6.09,0,0,0-1.09,2.74,13.87,13.87,0,0,0-1,2.78A1.16,1.16,0,0,0,50.91,65Z"/><path class="cls-39" d="M94.75,47c-3.66,0-7.09-1-10.59-1.89a40.09,40.09,0,0,0-5.4-1.1c-.94-.1-1.75,0-2.66,0a3.4,3.4,0,0,1-1.42-.43,12.61,12.61,0,0,0-3.44-1.07,6.67,6.67,0,0,0-3.65.27c-.59.24-1,.87-1.6,1A6.43,6.43,0,0,0,63.59,45a11.35,11.35,0,0,0-1.79,2c-.57.75-1.19,1.43-1.85,2.17s-1.41,1.75-2,2.53a16.73,16.73,0,0,1-1.64,2.14c-.64.63-1.22,1.09-1.88,1.65a4.93,4.93,0,0,1,1-1.72c.31-.36.58-.48.72-1a6.32,6.32,0,0,1,.44-1.56,7.16,7.16,0,0,1,2-2.23,11.71,11.71,0,0,0,2.57-2.45,10.85,10.85,0,0,1,2-2.72,3.44,3.44,0,0,1,2.16-.75,2.71,2.71,0,0,1,2.35-1.67c.58,0,1,.21,1.61.25s1.19.09,1.8.11A11.15,11.15,0,0,1,76.35,43a4.11,4.11,0,0,1,2.55-.09,17.79,17.79,0,0,1,1.68.59,4.33,4.33,0,0,0,1.9.17,4.24,4.24,0,0,1,1.91.11c.62.22,1.11.58,1.7.83,1,.41,2.19.18,3.22.44S91,46.22,92,46.35a9.68,9.68,0,0,1,1.77.25,7.66,7.66,0,0,1,1,.38S94.77,47,94.75,47Z"/><path class="cls-3" d="M82.64,77.48a38.44,38.44,0,0,0,2.46-3.87,20.78,20.78,0,0,1,2-3.29c.86-1,2-2,3-3A29.85,29.85,0,0,0,95,60.47c.6-1.16,1.3-2.1,1.93-3.21a2.59,2.59,0,0,0,.33-2.66l0-.11a9.4,9.4,0,0,0,1.63-2.28c.06-.12.1-.21.15-.33a5,5,0,0,1-.19,1.93c0,.14-.15.26-.19.39-.09.29-.09.6-.19.9a9,9,0,0,1,.42,5.71c-.22.76-.69,1.43-.93,2.14a16.27,16.27,0,0,0-.48,2,5.31,5.31,0,0,1-2,3.27c-.45.34-1.14.5-1.36,1.1A5.71,5.71,0,0,0,94,70.47a5,5,0,0,1-.24,1,7.18,7.18,0,0,1-2.58,3.16,5.52,5.52,0,0,0-1.13,1.57,9,9,0,0,1-1.32,1.64A9.72,9.72,0,0,1,85.18,80s-.07,0-.1,0a1,1,0,0,1-1.18.25c-.82-.35-1.66-.75-2.5-1.08C81.8,78.61,82.22,78.06,82.64,77.48Z"/><path class="cls-40" d="M51,67.79a9.37,9.37,0,0,0,2.61,4C56,73.73,59.09,74.48,62,75.23s6,1.31,8.79,2.23c1.49.47,2.7,1.15,4.12,1.66a26.73,26.73,0,0,0,5,1l2.78.46a3.61,3.61,0,0,0,1.88-.12c1.25-.47,2-2.21,2.47-3.17,1.14-2.4,2.52-7.79.83-9.47C83.17,63.16,73.51,62.06,67.26,60c-2.92-1-6.67-1.36-9.94-2.13-1.23-.29-3.23-.77-4.25.49a8.71,8.71,0,0,0-1,2.32c-.3.78-.61,1.57-.9,2.37A6.21,6.21,0,0,0,51,67.79Z"/><path class="cls-41" d="M50.86,67.69c.53,1.41.93,3,2.09,3.92,4.9,4,11.58,4.29,17.46,6,1.57.45,2.9,1.11,4.36,1.64a25.14,25.14,0,0,0,4.33,1.2,21.62,21.62,0,0,0,4.4.38,2.76,2.76,0,0,0,2.7-1.63,21,21,0,0,0,2.36-10.08s0,0,0,0a4.25,4.25,0,0,0-.51-1.58c-1.51-2.16-3.82-2.81-6.28-3.42-2.75-.69-5.37-1.54-8.06-2.42a76.25,76.25,0,0,0-9.57-2.43c-3.14-.57-5.88-1.49-9-1.73a2.92,2.92,0,0,0-1.81.39,3.49,3.49,0,0,0-1.18,1.35,13,13,0,0,0-1.34,4A8.46,8.46,0,0,0,50.86,67.69ZM52,61.28a7.93,7.93,0,0,1,.83-1.87,2.31,2.31,0,0,1,1.39-1.23,4.87,4.87,0,0,1,2,0,13.65,13.65,0,0,1,2,.41c2.84.81,5.81,1.22,8.7,1.87A63.88,63.88,0,0,1,75.42,63c2.49.92,4.89,1.43,7.46,2.12,2.29.6,4.3,1.56,5,4a0,0,0,0,0,0,0,19.93,19.93,0,0,1-2.18,9.61.54.54,0,0,0-.06.11,1.43,1.43,0,0,1-.12.21c0,.06,0,.13,0,.17a1.74,1.74,0,0,1-1.15.77,8.31,8.31,0,0,1-2.11.07c-.7,0-1.34-.09-2-.19a24.16,24.16,0,0,1-4.18-1c-1.36-.46-2.63-1-4-1.54a37.43,37.43,0,0,0-4.1-1.18c-2.89-.68-6-1.18-8.89-2a16.39,16.39,0,0,1-3.9-1.59,6.62,6.62,0,0,1-2.73-2.93,9.8,9.8,0,0,1-1.22-4.12A15.66,15.66,0,0,1,52,61.28Z"/><g class="cls-6"><path class="cls-42" d="M54.57,69.7c3.44,1.84,7.84,1.23,11.58,2.36a16.75,16.75,0,0,1,2.71,1.36,13.81,13.81,0,0,0,2.76,1.2,45.7,45.7,0,0,1,5.76,1.66,16.1,16.1,0,0,0,3.12,1.17,32.66,32.66,0,0,0,3.43.35c.44,0,.27.64-.16.62a16.81,16.81,0,0,1-5.89-1.19,20.68,20.68,0,0,0-2.82-1.12c-1-.25-2-.41-2.93-.67a13.65,13.65,0,0,1-2.79-1c-.93-.47-1.78-1.07-2.78-1.5a20.41,20.41,0,0,0-5.9-1.23c-2.22-.22-4.64-.13-6.51-1.34C53.76,70.12,54.16,69.48,54.57,69.7Z"/><path class="cls-43" d="M54.16,66c1.82,1.38,4.11.77,6.26,1.15a21,21,0,0,1,5.24,2c1.67.8,3.3,1.71,5,2.35a13,13,0,0,0,2.66.68c1.14.17,2.27.12,3.4.4,2.39.6,4.54,1.65,7.07,1.39.44,0,.45.54,0,.6-2.19.3-4.11-.49-6.17-1.13a16.91,16.91,0,0,0-3.6-.59,12.78,12.78,0,0,1-2.79-.5c-3.62-1.15-6.87-3.41-10.57-4.3-2.37-.56-5.06.36-7-1.31C53.39,66.39,53.8,65.71,54.16,66Z"/><path class="cls-44" d="M72.84,69.42c1.77.18,3.44.66,5.24.87s3.76.2,5.59.29c.44,0,.32.6-.2.59-1.57,0-3.82-.15-5.33-.32-2-.23-3.46-.64-5.29-.85C72.39,70,72.39,69.37,72.84,69.42Z"/><path class="cls-45" d="M55.08,62.38c1.2.38,2.44.44,3.69.8a30.37,30.37,0,0,1,3.62,1.53c2.59,1.11,5.42,1.92,8,3.14.42.2,0,.7-.36.52-2.54-1.08-5.34-1.92-7.87-3-1.26-.54-2.42-1.19-3.67-1.6S56,63.46,54.83,63C54.43,62.87,54.67,62.26,55.08,62.38Z"/><path class="cls-46" d="M55.45,59.55c3.39,1.12,6.73,2.15,10.26,3,1.74.4,3.68.74,5.43,1.16A17.82,17.82,0,0,1,76,65.5a23.77,23.77,0,0,0,5.14,2c.42.13.06.67-.36.56a14.41,14.41,0,0,1-4.54-1.6,15.68,15.68,0,0,0-4.86-2C67.91,63.63,64.19,63,60.77,62c-2-.59-3.68-1.2-5.55-1.83A.31.31,0,1,1,55.45,59.55Z"/></g><g class="cls-12"><path class="cls-13" d="M96.53,60.84a.64.64,0,0,1,.23-.12h0l.08,0,.06,0,0-.06a.26.26,0,0,0,0-.09s0,0,0-.08v-.06a.19.19,0,0,0,0-.08s0,.06,0,0a.47.47,0,0,1,0-.24.41.41,0,0,1,.17-.22.28.28,0,0,1,.25,0c.09,0,.14,0,.19.16a.89.89,0,0,1,.07.44,1,1,0,0,1-.14.45,1.2,1.2,0,0,1-.32.35,1,1,0,0,1-.44.2.27.27,0,0,1-.25-.08.28.28,0,0,1-.09-.23A.5.5,0,0,1,96.53,60.84Z"/><path class="cls-13" d="M94.15,65.92c.16.13.33.09.5-.09a1.78,1.78,0,0,0,.42-.82,1.61,1.61,0,0,0,0-.39c0-.08,0,0,0-.06s.06,0,.11-.07a2,2,0,0,0,.19-.16,1.52,1.52,0,0,0,.26-.3,1.36,1.36,0,0,0,.18-.8c0-.24-.23-.26-.41-.21a.44.44,0,0,0-.27.46c0-.06,0,0,0,0v.07s0,0,0,0a.11.11,0,0,1,0,0v0l0,.07,0,0,0,0,0,0h0l-.06,0h0a1,1,0,0,0-.39.33.88.88,0,0,0-.11.48c0,.11,0,.12,0,.16s0,0,0,0V65s0,.05,0,.07a.06.06,0,0,1,0,0s0,.06,0,.08v0s-.06.1-.07.13l0,0,0,.07C94.06,65.57,94,65.79,94.15,65.92Z"/><path class="cls-13" d="M90.91,70.4l.18-.13s0,0,0,0a.6.6,0,0,0,.08-.08,1,1,0,0,0,.13-.16h0l0,0,.05-.09s.08-.14.1-.17,0,0,0,0a.79.79,0,0,0,0-.09l0-.19a.15.15,0,0,0,0-.06h0s0,0,0-.06a.45.45,0,0,1,.36-.39c.18,0,.36.07.34.29a2.61,2.61,0,0,1-1,1.76.32.32,0,0,1-.47,0C90.68,70.71,90.82,70.48,90.91,70.4Z"/><path class="cls-13" d="M88.81,73.74a.5.5,0,0,1,.23-.12,2.08,2.08,0,0,0,.39-.15,1.73,1.73,0,0,0,.31-.22c.08-.07.08-.09.18-.18s.34-.19.47,0a.34.34,0,0,1,0,.48,2.5,2.5,0,0,1-1.33.79.24.24,0,0,1-.24-.07.24.24,0,0,1-.1-.23A.38.38,0,0,1,88.81,73.74Z"/><path class="cls-13" d="M91.72,63.33s0,0,0,0Z"/><path class="cls-13" d="M91,63.89c.15-.09.37-.25.48-.33s.17-.13.23-.17l.06,0s0,0,0,0h0l.1-.09.08-.1,0-.06a2.39,2.39,0,0,0,.13-.21s0,0,0,0l0,0,0-.11v0s0,0,0,0a1.13,1.13,0,0,0,0-.14c0-.11.19-.39.38-.4s.34.06.33.28a1.92,1.92,0,0,1-.54,1.21,5.56,5.56,0,0,1-1,.83.46.46,0,0,1-.29.1c-.1,0-.14,0-.21-.13A.43.43,0,0,1,91,63.89Z"/><path class="cls-13" d="M95.24,57.12a.28.28,0,0,0,.4.21,1.55,1.55,0,0,0,.67-.62,1.79,1.79,0,0,0,.13-.49c0-.13,0-.21,0-.26v-.08s0,0,0,0l0,0,0,0,.14-.14a1.4,1.4,0,0,0,.24-.33.75.75,0,0,0-.12-.93c-.15-.12-.33,0-.43.14a.42.42,0,0,0,0,.4v0h0v0h0s0,.06,0,0,0,0,0,0l0,.06a1.94,1.94,0,0,0-.43.58,1.24,1.24,0,0,0,0,.49v.06a.17.17,0,0,1,0,.08s0,0,0,0v0l0,.06v0l0,.05s0,.07,0,0,0,0,0,0l0,0,0,0a.05.05,0,0,1,0,0l0,0A.44.44,0,0,0,95.24,57.12Z"/><path class="cls-13" d="M94.08,48.47a.33.33,0,0,1,.44.09,1.72,1.72,0,0,1,.36,1.33.29.29,0,0,1-.35.24.35.35,0,0,1-.27-.34,1.08,1.08,0,0,1,0-.16v-.08a.78.78,0,0,0,0-.14.52.52,0,0,1,0-.11s0,0,0,0l0-.05a.84.84,0,0,0-.06-.14.09.09,0,0,0,0,0v0s0,0-.09-.13S93.92,48.55,94.08,48.47Z"/><path class="cls-13" d="M91.42,54.55a.59.59,0,0,1,.24-.15h0l.12-.06.1-.08.09-.1a.75.75,0,0,0,.07-.12.36.36,0,0,0,0-.11.45.45,0,0,0,0-.13.71.71,0,0,1,.13-.28.63.63,0,0,1,.27-.16.31.31,0,0,1,.24.05.21.21,0,0,1,.06.08.31.31,0,0,1,0,.17.5.5,0,0,1,0,.17,2.08,2.08,0,0,1-.07.26,2.33,2.33,0,0,1-.28.47,1.67,1.67,0,0,1-.33.32,1.74,1.74,0,0,1-.47.24.28.28,0,0,1-.26-.05.24.24,0,0,1-.08-.24A.55.55,0,0,1,91.42,54.55Z"/><path class="cls-13" d="M87.54,59.83l0,0,.17-.13c0-.05.1-.11.14-.17a1.08,1.08,0,0,0,.11-.18,1.46,1.46,0,0,0,.07-.19c0-.07,0-.09,0-.17a.58.58,0,0,1,.13-.29.62.62,0,0,1,.28-.17.26.26,0,0,1,.26,0,.25.25,0,0,1,.09.24,2.27,2.27,0,0,1-1.17,1.7c-.19.11-.39.08-.44-.13A.53.53,0,0,1,87.54,59.83Z"/><path class="cls-13" d="M86.79,51.31c.19-.15.29-.27.23-.51s-.28-.41-.29-.66c0-.48.47-.71.64-1.09a.92.92,0,0,0-.11-1c-.21-.34.28-.66.57-.37a1.27,1.27,0,0,1,.36,1.11,2.14,2.14,0,0,1-.7,1.15s0,0,0,0l.09.16a1.39,1.39,0,0,1,.16.36,1,1,0,0,1-.05.75c-.26.41-.88.79-1,1.24s-.72.69-.74.16A1.74,1.74,0,0,1,86.79,51.31Z"/><path class="cls-13" d="M80.44,60.3s0,0,0,0,0,0,0-.17,0-.34.09-.5a2.39,2.39,0,0,1,.64-1A1.63,1.63,0,0,0,81.7,57a.47.47,0,0,1,.17-.54c.16-.12.41-.16.49.06a2.5,2.5,0,0,1-.5,2.38c-.12.16-.32.32-.43.45a.59.59,0,0,0-.16.34,1.93,1.93,0,0,1-.49,1.17.3.3,0,0,1-.49,0C80.18,60.66,80.33,60.43,80.44,60.3Z"/><path class="cls-13" d="M80,51.58v0s0,0,0-.12-.07-.23-.1-.38a.4.4,0,0,1,.26-.44.33.33,0,0,1,.42.22,2.89,2.89,0,0,1,0,1.86.4.4,0,0,1-.45.29c-.2,0-.25-.3-.22-.43s.05-.14.07-.22a.74.74,0,0,0,0-.12s0,0,0,0a1.58,1.58,0,0,0,0-.38Z"/><path class="cls-13" d="M77.2,44.36a.35.35,0,0,1,.44,0l.14.13a.44.44,0,0,0,.11.08,1.23,1.23,0,0,0,.26.12l.1,0h.34l.26,0a.9.9,0,0,1,.74.41c.17.24.35.55.47.76a.3.3,0,0,1-.11.45.3.3,0,0,1-.45-.12c-.13-.18-.32-.52-.46-.74l0,0,0-.05s0,0,0,0,0,0,0,0a.33.33,0,0,0-.1,0c-.06,0-.15,0-.23,0a1.85,1.85,0,0,1-1.38-.58A.29.29,0,0,1,77.2,44.36Z"/><path class="cls-13" d="M74,48.79a.46.46,0,0,1,.07-.07l0,0,.1-.16,0-.09s0,0,0,0,0,0,0,0l.07-.2a.58.58,0,0,0,0-.1s0,0,0,0a1.36,1.36,0,0,0,0-.2.57.57,0,0,0,0-.12v0s0,0,0,0a1.72,1.72,0,0,0,0-.21c0-.11,0-.37.24-.37a.35.35,0,0,1,.38.29,2.13,2.13,0,0,1-.56,2,.28.28,0,0,1-.45,0A.42.42,0,0,1,74,48.79Z"/><path class="cls-13" d="M74.24,48.38h0S74.23,48.38,74.24,48.38Z"/><path class="cls-13" d="M74.65,54.61a2.53,2.53,0,0,0,.24-.7c0-.1,0,0,0,0h0s0-.06,0,0v0l0,0s0-.06-.06-.06l-.11-.11a1,1,0,0,1-.3-.68c0-.24.16-.34.36-.39s.3.28.3.33,0,0,0,0v0h0v0s0,0,0,0,0,0,0,.05l0,0,0,0,.14.14a1.09,1.09,0,0,1,.26.82,3.48,3.48,0,0,1-.32.94c-.13.29-.3.72-.42,1s-.31.27-.49.15-.18-.32-.08-.55S74.54,54.84,74.65,54.61Z"/><path class="cls-13" d="M75,52.87Z"/><path class="cls-13" d="M67.6,55.31a3.94,3.94,0,0,0,.53-.38h0l0,0,.12-.13.24-.27a1.54,1.54,0,0,1,.6-.4,1.7,1.7,0,0,1,.64,0c.22,0,.31.18.31.39a.49.49,0,0,1-.37.42,2.1,2.1,0,0,1-.28,0h-.21l-.07,0h0l0,0,0,0s0,0,0,0v0l0,0-.11.12a3.83,3.83,0,0,1-1,.83c-.18.1-.38.11-.47-.09A.48.48,0,0,1,67.6,55.31Z"/><path class="cls-13" d="M66.41,49.88c.37-1,1.17-2,2.36-1.89.23,0,.21.31.17.49a.53.53,0,0,1-.44.34l-.14,0s0,0,0,0h-.06l-.13,0H68.1a1.47,1.47,0,0,0-.25.12s0,0,0,0l-.06,0-.13.09-.1.09v0a.17.17,0,0,0-.06.06l-.11.12,0,.07s0,0,0,0-.07.11-.09.14a.59.59,0,0,0,0,.08s0,0,0,0l0,.13c0,.06,0,.07-.07.19s-.26.41-.47.35S66.33,50.09,66.41,49.88Z"/><path class="cls-13" d="M60.68,53.6a4.39,4.39,0,0,1,2.59-1.91c.21-.06.31.16.3.35a.64.64,0,0,1-.39.46l-.18,0,0,0H62.9l-.29.11-.14.07-.08,0h0s0,0,0,0l-.28.18-.25.2s0,0,0,0h0l-.07.07-.11.12-.23.26,0,0h0l-.06.09a1.27,1.27,0,0,0-.11.17c-.07.1-.31.31-.47.17A.37.37,0,0,1,60.68,53.6Z"/><path class="cls-13" d="M60.74,49.71c.15.15.34.08.5-.08l2-2.07a4.92,4.92,0,0,0,.77-1c0-.09,0-.23.13-.26s.18.1.32,0a.53.53,0,0,0,.28-.5c-.08-.5-.66-.32-.91-.13a1.52,1.52,0,0,0-.42.63,1.91,1.91,0,0,1-.28.49c-.37.42-.75.79-1.12,1.19s-.8.83-1.17,1.23A.41.41,0,0,0,60.74,49.71Z"/><path class="cls-13" d="M56.21,54.69a4.31,4.31,0,0,1,2-1.77c.19-.09.34,0,.38.23a.5.5,0,0,1-.26.46l-.14.07-.06,0h0l-.24.14L57.6,54l-.06,0h0a1.11,1.11,0,0,1-.11.11l-.19.19-.1.12s0,0-.06.06l0,0a4.8,4.8,0,0,0-.31.47.33.33,0,0,1-.46.13A.36.36,0,0,1,56.21,54.69Z"/><path class="cls-13" d="M68.52,44a3.33,3.33,0,0,1,1.34-.8,1.45,1.45,0,0,1,1.36.37.28.28,0,0,1,0,.42c-.13.12-.32,0-.43-.06l-.07-.06-.08-.05-.12,0-.09,0a.7.7,0,0,0-.25,0h0l-.06,0-.13,0a3.32,3.32,0,0,0-1,.59.37.37,0,0,1-.47,0A.26.26,0,0,1,68.52,44Z"/></g><g class="cls-14"><path class="cls-47" d="M96.07,60.44h0l.06,0,.06-.06a.4.4,0,0,0,.08-.15,4,4,0,0,0,.14-.45.36.36,0,0,1,.17-.23.39.39,0,0,1,.26-.06.31.31,0,0,1,.19.14c0,.05,0,0,0,.09a.37.37,0,0,1,0,.18,2.74,2.74,0,0,1-.25.71,1.24,1.24,0,0,1-.59.52.28.28,0,0,1-.41-.19A.4.4,0,0,1,96.07,60.44Z"/><path class="cls-48" d="M90.16,64.06l.06,0,.11-.08.21-.16.11-.09h0l0-.05.19-.2.08-.1,0-.06s0,0,0,0,0,0,0,0l.15-.21.12-.23,0,0s0,0,0,0l.06-.14c.05-.11.26-.36.45-.32s.31.17.23.38a4.34,4.34,0,0,1-1.74,2,.27.27,0,0,1-.43-.14C89.83,64.35,90,64.17,90.16,64.06Z"/><path class="cls-49" d="M91,63.28c0-.05,0,0,0,0Z"/><path class="cls-50" d="M93.65,65.14s0,0,0-.07a.19.19,0,0,0,0-.08h0v0a.33.33,0,0,0,0-.06s0,0,0,0,0,0,0,0-.14-.14-.14-.24c0-.41.36-.66.65-.86a1.36,1.36,0,0,0,.3-.25.55.55,0,0,0,.08-.13s0,0,0,0a.27.27,0,0,0,0-.09.46.46,0,0,1,.38-.41c.21,0,.31.06.33.31a1.4,1.4,0,0,1-.41.86c-.16.16-.3.24-.4.33s-.11,0-.13.1.06.09.08.2a1.48,1.48,0,0,1,0,.44,1.76,1.76,0,0,1-.41.93c-.18.19-.33.2-.5.08s-.09-.35,0-.49l.07-.08h0l0-.09h0l0-.08s0,0,0,0a.09.09,0,0,0,0,0,.31.31,0,0,1,0-.1Z"/><path class="cls-51" d="M90.87,69.81s0,0,0,0a2.2,2.2,0,0,0,.16-.31,1.84,1.84,0,0,0,.09-.25A.49.49,0,0,1,91.3,69a.46.46,0,0,1,.28-.08.26.26,0,0,1,.2.13.29.29,0,0,1,0,.26,2.39,2.39,0,0,1-.45.9.41.41,0,0,1-.25.15.32.32,0,0,1-.25-.06.3.3,0,0,1-.1-.22A.57.57,0,0,1,90.87,69.81Z"/><path class="cls-52" d="M88.9,72.91a.38.38,0,0,1,.16-.22.38.38,0,0,1,.26-.06h.07l0,0,0,0a.17.17,0,0,0,0-.06h0a.49.49,0,0,1,.14-.18.39.39,0,0,1,.26-.07.27.27,0,0,1,.2.14.33.33,0,0,1,0,.26A1,1,0,0,1,90,73c0,.07,0,0-.08.09l-.15.12a1,1,0,0,1-.57.14.3.3,0,0,1-.21-.14A.3.3,0,0,1,88.9,72.91Z"/><path class="cls-53" d="M87,59.28l.06-.09A2.32,2.32,0,0,0,87.2,59a2.15,2.15,0,0,0,.1-.27s0,0,0,0a.69.69,0,0,1,.13-.28.55.55,0,0,1,.28-.17.26.26,0,0,1,.26,0,.2.2,0,0,1,.09.23,2.41,2.41,0,0,1-.56,1.17.57.57,0,0,1-.28.18.29.29,0,0,1-.26,0,.23.23,0,0,1-.09-.23A.52.52,0,0,1,87,59.28Z"/><path class="cls-54" d="M91.29,53.91h0a.4.4,0,0,0,.07-.13.56.56,0,0,0,0-.12.49.49,0,0,0,0-.12v0a.43.43,0,0,1,.06-.28A.54.54,0,0,1,91.7,53,.36.36,0,0,1,92,53c.09,0,.13,0,.16.18a1.13,1.13,0,0,1,0,.57,1.87,1.87,0,0,1-.3.56.45.45,0,0,1-.28.17.27.27,0,0,1-.25-.05.26.26,0,0,1-.1-.23A.62.62,0,0,1,91.29,53.91Z"/><path class="cls-55" d="M93.15,48.25a.35.35,0,0,1,.48,0,2.78,2.78,0,0,1,.5,1.35.28.28,0,0,1-.25.31.37.37,0,0,1-.34-.28c0-.13,0-.22-.05-.3a.78.78,0,0,0,0-.14v0l0-.08a1.88,1.88,0,0,0-.14-.24l0-.07h0s0,0,0,0l-.12-.13A.28.28,0,0,1,93.15,48.25Z"/><path class="cls-56" d="M94.82,56.37c0,.2,0,.35.31.33a1,1,0,0,0,.69-.57,1.18,1.18,0,0,0,.05-.61c0-.08.09-.06.15-.14s.2-.23.27-.35a2.63,2.63,0,0,0,.31-.86.29.29,0,0,0-.29-.36c-.19,0-.29.2-.33.36,0-.06,0,0,0,0a.37.37,0,0,1,0,.09l0,.09,0,0a2.34,2.34,0,0,1-.15.27l0,0-.06.07-.11.11,0,0-.06,0c-.06.05-.1,0-.19.16a.56.56,0,0,0-.07.58l0,.08v0s0,0,0,0v0h0s0,0,0,0h0v0l0,0h0A.41.41,0,0,0,94.82,56.37Z"/><path class="cls-57" d="M85.91,51.15a.67.67,0,0,0,0-.66c-.17-.4,0-.69.36-.94.08-.07.17-.12.21-.22a.84.84,0,0,0,0-.31,5.1,5.1,0,0,1-.07-1,.4.4,0,0,1,.43-.29.31.31,0,0,1,.28.34c0,.35.09.62.08,1a1.27,1.27,0,0,1-.44.93,1.55,1.55,0,0,1-.17.13s0,0,0,0,0,0,0,0a.64.64,0,0,1,.06.12,1.77,1.77,0,0,1,.08.22,1.39,1.39,0,0,1-.3,1.05.42.42,0,0,1-.54.11C85.75,51.51,85.79,51.34,85.91,51.15Z"/><path class="cls-58" d="M79.58,59.08a1.75,1.75,0,0,1,.61-.7l0,0,.07-.07.14-.15.14-.16.05-.07,0,0h0l.11-.18s0,0,0-.08,0,0,0,0l0-.16s0,0,0,0a.89.89,0,0,0,0-.13c0-.12.19-.41.4-.42a.29.29,0,0,1,.33.34,2.63,2.63,0,0,1-.78,1.54c-.1.11-.25.24-.33.32s-.13.1-.17.15,0,0,0,0,0,0,0,.07v.25c0,.13,0,.35,0,.53a.5.5,0,0,1-.39.44c-.22,0-.32-.16-.32-.35s0-.34,0-.54A1.77,1.77,0,0,1,79.58,59.08Z"/><path class="cls-59" d="M79.39,51.16a.39.39,0,0,1,.36-.38.33.33,0,0,1,.34.34A11.53,11.53,0,0,1,80,52.55a.45.45,0,0,1-.38.4.32.32,0,0,1-.32-.36C79.35,52.12,79.38,51.64,79.39,51.16Z"/><path class="cls-60" d="M77,45c.15-.1.36,0,.44.12a1.56,1.56,0,0,0,.17.18.44.44,0,0,0,.13.09l.08,0s0,0,0,0h0a2.43,2.43,0,0,0,.73.16,1.29,1.29,0,0,1,.86.17,1,1,0,0,1,.2.34l.2.4a.33.33,0,0,1-.12.43.34.34,0,0,1-.45-.11,4.05,4.05,0,0,1-.18-.37c-.05-.08-.06-.13-.09-.18s0,0,0,0h-.33a3.46,3.46,0,0,1-.43,0,2,2,0,0,1-1.32-.8A.29.29,0,0,1,77,45Z"/><path class="cls-61" d="M73.53,48.33a1.09,1.09,0,0,0,.09-.33,1.25,1.25,0,0,0,0-.38,1.41,1.41,0,0,0,0-.2c0-.13,0-.37.23-.38a.36.36,0,0,1,.39.29,2.33,2.33,0,0,1-.11,1.25.36.36,0,0,1-.17.21.28.28,0,0,1-.27,0A.44.44,0,0,1,73.53,48.33Z"/><path class="cls-62" d="M73.31,55.27a.3.3,0,0,0,.48,0,3.52,3.52,0,0,0,.88-1.95.35.35,0,0,0-.31-.4c-.21,0-.35.24-.37.37s0,.17,0,.23a.35.35,0,0,1,0,.06s0,.06,0,.11,0,.15-.06.2a.76.76,0,0,0,0,.11l0,0s-.07.14-.1.2l-.11.18-.06.08s0,0,0,0l0,0-.15.17C73.26,54.82,73.17,55.12,73.31,55.27Z"/><path class="cls-63" d="M68,55.76a2.37,2.37,0,0,1,.91-.87,1.51,1.51,0,0,1,.54-.13,1.23,1.23,0,0,1,.26,0,.52.52,0,0,0,.14,0s0,0,0,0,0,0,.1,0a.33.33,0,0,1,.38.29.51.51,0,0,1-.28.5,1.46,1.46,0,0,1-.55.09,1.57,1.57,0,0,0-.25,0c-.09,0,0,0,0,0l0,0-.11,0-.08,0,0,0-.09.06,0,0h0l-.15.16,0,0s0-.07,0,0l-.09.14c-.07.1-.31.3-.48.15A.39.39,0,0,1,68,55.76Z"/><path class="cls-64" d="M66.72,49.76a.7.7,0,0,1,.19-.28,3.16,3.16,0,0,1,1.73-.88c.22,0,.3.19.29.39a.63.63,0,0,1-.38.46l-.21,0-.1,0h0a3,3,0,0,0-.37.16l-.09,0-.06,0s0,0,0,0l-.18.12-.34.29a.34.34,0,0,1-.28.08.21.21,0,0,1-.19-.16A.44.44,0,0,1,66.72,49.76Z"/><path class="cls-65" d="M69.15,44.17a2.17,2.17,0,0,1,1.72-.36.37.37,0,0,1,.22.12.31.31,0,0,1,.09.24.26.26,0,0,1-.29.23l-.37-.08h-.17a1.49,1.49,0,0,0-.17,0,2.09,2.09,0,0,0-.35.13l0,0-.1,0-.19.12c-.1.06-.37.1-.45-.06A.27.27,0,0,1,69.15,44.17Z"/><path class="cls-66" d="M62.14,48.72a8.84,8.84,0,0,1,2.44-2.62c.18-.12.38-.15.47,0a.44.44,0,0,1-.18.54c-.18.14-.45.33-.64.49l-.16.14-.07.06s0,0,0,.06a3.87,3.87,0,0,0-.29.29c-.13.15-.38.44-.52.63,0,0,0,0,0,0l-.07.09-.11.17c-.06.09-.15.25-.24.37s-.31.34-.48.21S62,48.93,62.14,48.72Z"/><path class="cls-67" d="M61,54.17a5.74,5.74,0,0,1,2.91-2c.22-.07.31.16.29.36a.6.6,0,0,1-.38.45,2.07,2.07,0,0,0-.32.09l-.36.15a4.64,4.64,0,0,0-.62.36,5.91,5.91,0,0,0-1.11,1.07.29.29,0,0,1-.47,0A.43.43,0,0,1,61,54.17Z"/><path class="cls-68" d="M57.2,55.16a4.58,4.58,0,0,1,1.44-1.56.29.29,0,0,1,.44.11.47.47,0,0,1-.16.51l-.2.14-.1.07s-.11.1,0,0l-.34.32-.15.18h0l0,.06a.43.43,0,0,0-.08.11c0,.07-.18.31-.24.4a.31.31,0,0,1-.22.17c-.1,0-.15,0-.26-.05A.39.39,0,0,1,57.2,55.16Z"/><path class="cls-69" d="M58.08,55s0,0,0,0S58.07,55,58.08,55Z"/></g><path class="cls-70" d="M97.8,23.31A11.57,11.57,0,0,1,97.87,31c-.33,1.07-1.06,2.36-1.43,3.41s-.59,2.17-.88,3.15A9.46,9.46,0,0,1,93,42.14c-.52.5-1.24.66-1.55,1.41A7,7,0,0,0,91.35,45a5.13,5.13,0,0,1-.3,1.27,7.5,7.5,0,0,1-2.91,3.36,6.07,6.07,0,0,0-1.32,1.68A11.57,11.57,0,0,1,85.4,53a8.26,8.26,0,0,1-1.76,3.31,3.53,3.53,0,0,1-1.06,2c-.31.31-.68.54-1,.82a2.5,2.5,0,0,0-.28.3c-.05.08,0,.08-.05.14a.66.66,0,0,0,0,.14c0,.07,0,.18,0,.27a3.62,3.62,0,0,1-.17.87L81,61a1.13,1.13,0,0,1-.12.18l-.09.14a2.28,2.28,0,0,1-.4.35,1.3,1.3,0,0,1-.33.17c-.06,0,0,0,0,0l-.2.07a11.74,11.74,0,0,1-2.21.29,3.38,3.38,0,0,1-4.44.48l-.08,0a0,0,0,0,0,0,0,7.23,7.23,0,0,1-.81.15,4.58,4.58,0,0,1-1.38-.08,2.71,2.71,0,0,1-1.58-1,8.44,8.44,0,0,1-4.42-1.6,3.16,3.16,0,0,0-1.31-.81c-.59-.12-1.21,0-1.9-.17a3.24,3.24,0,0,1-1.91-1.43c-.54,0-1-.2-1.57-.21a8,8,0,0,1-2.59-.42,14.32,14.32,0,0,1-2-1l-.39-.22a2.55,2.55,0,0,1-1.61.08,3.58,3.58,0,0,1-1.13-.59,3.78,3.78,0,0,1-.5-.48c-.32-.34-.61-.7-.92-1.06a5.72,5.72,0,0,1-1.75-.46,3.51,3.51,0,0,1-1.14-.92c-.08-.09-.09-.22-.18-.27a4.63,4.63,0,0,1-1.45-1.13,5.49,5.49,0,0,1-.39-.64c-.12-.2-.12-.36-.25-.56s-.37-.4-.5-.62c0-.05,0-.12-.08-.13a2.21,2.21,0,0,1-1.5-1.47,5.46,5.46,0,0,1-.17-1.63,1.43,1.43,0,0,0-.29-.86A3.65,3.65,0,0,1,41.12,42,4.79,4.79,0,0,1,42,40.67c.14-.17.43-.4.57-.59a8,8,0,0,1-.31-1.3,5.93,5.93,0,0,1,1.11-4,9.88,9.88,0,0,1,1.75-6.15c.28-.93.61-1.88.91-2.79.12-.39.24-.75.35-1.11a8.68,8.68,0,0,1,1-2.24c.15-.22.36-.29.48-.51a12.77,12.77,0,0,0,.91-2.31,11.55,11.55,0,0,1,1.79-3.47,5.06,5.06,0,0,0,1-1.44,12.49,12.49,0,0,1,.83-2.23,15.43,15.43,0,0,1,2.89-3.48A23.45,23.45,0,0,0,58.81,5.3a14.39,14.39,0,0,1,2.66-3.52,2.85,2.85,0,0,1,2.45-.48C64.77.36,65.46-.17,66.71.05a17,17,0,0,1,1.86.76,18,18,0,0,0,2.25.56A17.36,17.36,0,0,1,77.7,3.88,5.46,5.46,0,0,1,81,4.16a11.22,11.22,0,0,1,1.75,1.1,4.78,4.78,0,0,0,1.91.68,3.17,3.17,0,0,1,1.71.59,18.4,18.4,0,0,1,1.24,1.53c.79.79,1.86.78,2.73,1.41s1.23,1.89,2.21,2.4a15.41,15.41,0,0,1,1.71.77,8.41,8.41,0,0,1,.84.69l0,0c.15.14.23.21.36.35a5.36,5.36,0,0,1,.39.42c2,2.37,3.11,4.5,2.42,7.87,0,.18-.17.2-.24.42S97.88,23.06,97.8,23.31Z"/><path class="cls-70" d="M97.8,23.31A11.57,11.57,0,0,1,97.87,31c-.33,1.07-1.06,2.36-1.43,3.41s-.59,2.17-.88,3.15A9.46,9.46,0,0,1,93,42.14c-.52.5-1.24.66-1.55,1.41A7,7,0,0,0,91.35,45a5.13,5.13,0,0,1-.3,1.27,7.5,7.5,0,0,1-2.91,3.36,6.07,6.07,0,0,0-1.32,1.68A11.57,11.57,0,0,1,85.4,53a8.26,8.26,0,0,1-1.76,3.31,3.53,3.53,0,0,1-1.06,2c-.31.31-.68.54-1,.82a2.5,2.5,0,0,0-.28.3c-.05.08,0,.08-.05.14a.66.66,0,0,0,0,.14c0,.07,0,.18,0,.27a3.62,3.62,0,0,1-.17.87L81,61a1.13,1.13,0,0,1-.12.18l-.09.14a2.28,2.28,0,0,1-.4.35,1.3,1.3,0,0,1-.33.17c-.06,0,0,0,0,0l-.2.07a11.74,11.74,0,0,1-2.21.29,3.38,3.38,0,0,1-4.44.48l-.08,0a0,0,0,0,0,0,0,7.23,7.23,0,0,1-.81.15,4.58,4.58,0,0,1-1.38-.08,2.71,2.71,0,0,1-1.58-1,8.44,8.44,0,0,1-4.42-1.6,3.16,3.16,0,0,0-1.31-.81c-.59-.12-1.21,0-1.9-.17a3.24,3.24,0,0,1-1.91-1.43c-.54,0-1-.2-1.57-.21a8,8,0,0,1-2.59-.42,14.32,14.32,0,0,1-2-1l-.39-.22a2.55,2.55,0,0,1-1.61.08,3.58,3.58,0,0,1-1.13-.59,3.78,3.78,0,0,1-.5-.48c-.32-.34-.61-.7-.92-1.06a5.72,5.72,0,0,1-1.75-.46,3.51,3.51,0,0,1-1.14-.92c-.08-.09-.09-.22-.18-.27a4.63,4.63,0,0,1-1.45-1.13,5.49,5.49,0,0,1-.39-.64c-.12-.2-.12-.36-.25-.56s-.37-.4-.5-.62c0-.05,0-.12-.08-.13a2.21,2.21,0,0,1-1.5-1.47,5.46,5.46,0,0,1-.17-1.63,1.43,1.43,0,0,0-.29-.86A3.65,3.65,0,0,1,41.12,42,4.79,4.79,0,0,1,42,40.67c.14-.17.43-.4.57-.59a8,8,0,0,1-.31-1.3,5.93,5.93,0,0,1,1.11-4,9.88,9.88,0,0,1,1.75-6.15c.28-.93.61-1.88.91-2.79.12-.39.24-.75.35-1.11a8.68,8.68,0,0,1,1-2.24c.15-.22.36-.29.48-.51a12.77,12.77,0,0,0,.91-2.31,11.55,11.55,0,0,1,1.79-3.47,5.06,5.06,0,0,0,1-1.44,12.49,12.49,0,0,1,.83-2.23,15.43,15.43,0,0,1,2.89-3.48A23.45,23.45,0,0,0,58.81,5.3a14.39,14.39,0,0,1,2.66-3.52,2.85,2.85,0,0,1,2.45-.48C64.77.36,65.46-.17,66.71.05a17,17,0,0,1,1.86.76,18,18,0,0,0,2.25.56A17.36,17.36,0,0,1,77.7,3.88,5.46,5.46,0,0,1,81,4.16a11.22,11.22,0,0,1,1.75,1.1,4.78,4.78,0,0,0,1.91.68,3.17,3.17,0,0,1,1.71.59,18.4,18.4,0,0,1,1.24,1.53c.79.79,1.86.78,2.73,1.41s1.23,1.89,2.21,2.4a15.41,15.41,0,0,1,1.71.77,8.41,8.41,0,0,1,.84.69l0,0c.15.14.23.21.36.35a5.36,5.36,0,0,1,.39.42c2,2.37,3.11,4.5,2.42,7.87,0,.18-.17.2-.24.42S97.88,23.06,97.8,23.31Z"/><path class="cls-71" d="M95.08,13.35c-3.56-.9-6.32-2.92-9.39-5.13a17.25,17.25,0,0,0-5.16-2.63c-1-.3-2.3-.27-3.39-.47a5.36,5.36,0,0,1-1.82-.81,18.9,18.9,0,0,0-4.45-2,11.25,11.25,0,0,0-4.44-.64c-.76.08-1.17.7-1.9.74a3.74,3.74,0,0,0-2.68.71,17,17,0,0,0-2.36,2.74c-.8,1.06-1.72,2.2-2.65,3.33s-2.12,2.81-3,4a30.6,30.6,0,0,1-2.38,3.18c-.85.93-1.55,1.5-2.41,2.32a11.3,11.3,0,0,1,1.42-2.44,4.79,4.79,0,0,0,1-1.43,13,13,0,0,1,.82-2.24,15.75,15.75,0,0,1,2.9-3.48A23.45,23.45,0,0,0,58.81,5.3a14.17,14.17,0,0,1,2.67-3.52,2.82,2.82,0,0,1,2.44-.48C64.76.36,65.46-.18,66.71.05a17,17,0,0,1,1.86.76,17.78,17.78,0,0,0,2.26.56,17.63,17.63,0,0,1,6.88,2.51A5.43,5.43,0,0,1,81,4.16a12,12,0,0,1,1.75,1.09,4.65,4.65,0,0,0,1.91.69,3.09,3.09,0,0,1,1.71.59,18.25,18.25,0,0,1,1.24,1.52c.79.79,1.86.79,2.74,1.42s1.21,1.89,2.2,2.4a17.17,17.17,0,0,1,1.71.76,6,6,0,0,1,.88.73Z"/><g class="cls-12"><path class="cls-13" d="M95.21,31.1a.64.64,0,0,1,.26-.19c.08,0,0,0,0,0l.1-.05.07-.06.07-.09.07-.13a.56.56,0,0,0,0-.12s0-.07,0-.11,0-.09,0-.13,0,.12,0,0a.94.94,0,0,1,0-.37.69.69,0,0,1,.21-.31c.1-.06.19-.12.3-.06s.16.07.2.25a1.55,1.55,0,0,1,0,.65,2.52,2.52,0,0,1-.24.7,2.48,2.48,0,0,1-.42.57,1.09,1.09,0,0,1-.52.29c-.17,0-.19,0-.28-.12a.51.51,0,0,1-.06-.37A.9.9,0,0,1,95.21,31.1Z"/><path class="cls-13" d="M91.8,38.87c.2.18.35.14.56-.08a3.66,3.66,0,0,0,.54-1.15A3.42,3.42,0,0,0,93,37c0-.17,0,0,0-.12s.07,0,.14-.11a1.78,1.78,0,0,0,.24-.24,3.24,3.24,0,0,0,.34-.5,3.16,3.16,0,0,0,.3-1.18c0-.33-.18-.43-.43-.33s-.33.42-.37.7c0-.1,0,0,0,0a.43.43,0,0,1,0,.11v0a.32.32,0,0,0,0,.09v0l0,.09s0,.1,0,.07l0,.06,0,.06v0h0l-.07.06,0,0h0a1.35,1.35,0,0,0-.47.48,1.75,1.75,0,0,0-.19.7,2.14,2.14,0,0,0,0,.26v0s0,.07,0,.1,0,.07,0,.1a.13.13,0,0,1,0,.06l0,.11,0,0A1,1,0,0,1,92,38s0,0,0,.06,0,0-.09.13S91.6,38.69,91.8,38.87Z"/><path class="cls-13" d="M88,44.33c.1-.09.14-.09.19-.14l0,0,.09-.08.13-.15s0,0,0,0l0,0a.44.44,0,0,0,.06-.1,1.62,1.62,0,0,0,.1-.18l0,0,0-.1,0-.21,0-.08s0,0,0,0a.45.45,0,0,1,0-.11c0-.11.19-.4.37-.35s.38.18.34.43A2.7,2.7,0,0,1,88.38,45c-.17.13-.37,0-.48-.16A.51.51,0,0,1,88,44.33Z"/><path class="cls-13" d="M85.64,48a.44.44,0,0,1,.26-.11,1.63,1.63,0,0,0,.41-.1,1.45,1.45,0,0,0,.34-.2c.1-.07.1-.1.22-.19a.34.34,0,0,1,.49.06.45.45,0,0,1,0,.57,2.33,2.33,0,0,1-1.47.69.29.29,0,0,1-.24-.14.39.39,0,0,1-.1-.3A.4.4,0,0,1,85.64,48Z"/><path class="cls-13" d="M89.53,34.65s0,0,0,0Z"/><path class="cls-13" d="M88.64,35.36l.54-.4.26-.23a.31.31,0,0,0,.08-.07h0v0l.12-.13.1-.13.06-.09A2.09,2.09,0,0,0,90,34c0-.05,0,0,0,0s0,0,0-.07a.43.43,0,0,0,0-.16s0,0,0,0,0,0,0-.07a.85.85,0,0,1,0-.22c0-.15.23-.56.46-.53s.36.17.32.47a3.86,3.86,0,0,1-.75,1.77,5.75,5.75,0,0,1-1.23,1.1c-.12.09-.19.14-.32.09s-.16,0-.2-.24A.82.82,0,0,1,88.64,35.36Z"/><path class="cls-13" d="M94.09,25.69c.06.28.19.35.46.24a2.48,2.48,0,0,0,.78-.89,2,2,0,0,0,.17-.58c0-.17,0-.22,0-.3v-.09l0-.06,0,0,0-.06.16-.14a1,1,0,0,0,.27-.32.8.8,0,0,0-.13-1c-.15-.14-.36,0-.48.1s0,.34,0,.41,0,0,0,0,0,0,0,0v0h0l0,0v0l-.06.06a2.48,2.48,0,0,0-.51.67,1.36,1.36,0,0,0-.07.57c0,.13,0,0,0,.08a.34.34,0,0,0,0,.09v0h0a.25.25,0,0,1,0,.07v0s0,0,0,0l0,.07,0,.05,0,.05,0,.05s0,0-.05,0l0,0,0,0A.61.61,0,0,0,94.09,25.69Z"/><path class="cls-13" d="M93.93,15.21c.18-.06.38-.05.45.18a2.8,2.8,0,0,1,0,1.81.35.35,0,0,1-.44.26c-.19,0-.22-.34-.2-.46a1.19,1.19,0,0,1,.06-.21c0-.06,0-.1,0-.07s0,0,0,0a1.11,1.11,0,0,0,0-.19.76.76,0,0,0,0-.15v0a.25.25,0,0,0,0-.08,1,1,0,0,0,0-.17l0-.08s0,0,0,0,0-.07-.06-.2S93.76,15.28,93.93,15.21Z"/><path class="cls-13" d="M90,22.41a.59.59,0,0,1,.27-.16h0a1.39,1.39,0,0,0,.13-.06.35.35,0,0,0,.1-.08.52.52,0,0,0,.1-.11.57.57,0,0,0,.08-.13.35.35,0,0,0,0-.13,1.57,1.57,0,0,0,0-.16.65.65,0,0,1,.15-.3.52.52,0,0,1,.28-.15.3.3,0,0,1,.24.1.24.24,0,0,1,0,.1.36.36,0,0,1,0,.21.56.56,0,0,1,0,.21,1.15,1.15,0,0,1-.09.29,2.43,2.43,0,0,1-.3.51,2.51,2.51,0,0,1-.37.36,1.77,1.77,0,0,1-.49.22A.26.26,0,0,1,90,23a.37.37,0,0,1-.07-.31A.68.68,0,0,1,90,22.41Z"/><path class="cls-13" d="M85.6,28.57a.15.15,0,0,0,.06,0l.17-.14a1,1,0,0,0,.16-.19,1.27,1.27,0,0,0,.13-.22,1.84,1.84,0,0,0,.09-.25c0-.09,0-.13,0-.23a.76.76,0,0,1,.16-.34.44.44,0,0,1,.3-.17.23.23,0,0,1,.26.11.43.43,0,0,1,.06.34,2.89,2.89,0,0,1-1.35,2c-.22.13-.4,0-.43-.28A.71.71,0,0,1,85.6,28.57Z"/><path class="cls-13" d="M86.21,17.21a.78.78,0,0,0,.35-.62,7.65,7.65,0,0,1-.1-.95c.1-.57.6-.85.86-1.28A1.85,1.85,0,0,0,87.5,13c-.07-.47.38-.88.61-.39a2.18,2.18,0,0,1,0,1.57,3.27,3.27,0,0,1-.94,1.37s0,0,0,0a.72.72,0,0,1,0,.23,3,3,0,0,1,.06.53,2.07,2.07,0,0,1-.23.94c-.33.44-1,.89-1.16,1.39s-.81.79-.75.09A2.45,2.45,0,0,1,86.21,17.21Z"/><path class="cls-13" d="M78.3,27.67c.08-.1,0,0,0-.07s0-.08.06-.22a6,6,0,0,1,.13-.6,3.57,3.57,0,0,1,.77-1.11A2.49,2.49,0,0,0,80,23.75a.78.78,0,0,1,.26-.68c.19-.14.45-.14.49.15a4,4,0,0,1-.8,2.93,5.65,5.65,0,0,1-.49.49,1.07,1.07,0,0,0-.2.42,2.62,2.62,0,0,1-.63,1.39c-.18.17-.39.1-.5-.13S78.21,27.78,78.3,27.67Z"/><path class="cls-13" d="M79.48,16.24c0-.08,0,0,0-.07s0-.06,0-.19,0-.33,0-.53.2-.53.42-.53.36.09.35.38a6,6,0,0,1-.58,2.5.45.45,0,0,1-.54.31c-.22-.08-.19-.44-.13-.58s.09-.2.12-.29a1.58,1.58,0,0,0,.07-.16.34.34,0,0,0,0-.08,4,4,0,0,0,.15-.49C79.45,16.4,79.46,16.31,79.48,16.24Z"/><path class="cls-13" d="M78.53,5.82c.16-.16.45,0,.55.09a2.33,2.33,0,0,1,.15.21.89.89,0,0,0,.13.14,1.37,1.37,0,0,0,.3.21l.13.06h0l.21,0h.18a1.71,1.71,0,0,1,.32,0,1.05,1.05,0,0,1,.76.69c.15.35.3.77.4,1.08s0,.47-.17.59-.4.05-.53-.23-.26-.74-.39-1.05a.34.34,0,0,0,0-.08s0-.07,0-.07,0,0,0,0h0l-.13,0a1.17,1.17,0,0,1-.27,0,2.34,2.34,0,0,1-1.65-1A.45.45,0,0,1,78.53,5.82Z"/><path class="cls-13" d="M73.26,11.12a.62.62,0,0,1,.12-.12l.07-.06.16-.17a.52.52,0,0,1,.08-.11l0-.05s0,0,0,0a2.18,2.18,0,0,0,.12-.22,1.12,1.12,0,0,0,.05-.13s0,0,0-.05A1.83,1.83,0,0,0,74,10s0-.11,0-.14V9.73c0-.09,0-.15,0-.32s.17-.47.39-.42.43.17.42.47A3.32,3.32,0,0,1,73.68,12c-.19.18-.42.06-.55-.15A.72.72,0,0,1,73.26,11.12Z"/><path class="cls-13" d="M73.71,10.61h0Z"/><path class="cls-13" d="M72.8,19.56a5.5,5.5,0,0,0,.4-1c.06-.24,0,0,0-.06s0,0,0,0v-.07s0,0,0,0a.16.16,0,0,0,0-.08l0-.11A1.45,1.45,0,0,1,73,18,1.86,1.86,0,0,1,72.83,17a.5.5,0,0,1,.49-.47c.24,0,.27.38.27.5s0,.06,0,.06,0,0,0,.05,0,0,0,0h0v0s0,.05,0,0,0,.07,0,.09l0,0s0,0,0,.08a1.08,1.08,0,0,1,.12.22,2,2,0,0,1,.1,1.23,6.15,6.15,0,0,1-.53,1.33c-.2.4-.46,1-.64,1.29s-.36.42-.57.19-.13-.53,0-.84S72.64,19.86,72.8,19.56Z"/><path class="cls-13" d="M73.59,17.08Z"/><path class="cls-13" d="M65,19a7.18,7.18,0,0,0,.67-.54h0s0,0,0,0l.08-.08a1.59,1.59,0,0,1,.16-.19c.09-.1.17-.23.31-.39s.46-.47.72-.47a1.34,1.34,0,0,1,.7.14c.25.13.28.46.25.74s-.29.58-.46.59-.21-.08-.31-.09l-.16,0h-.08l-.08,0h0l0,0-.06,0h0l0,0-.06.08s-.09.12-.14.17a5.34,5.34,0,0,1-1.28,1.19c-.24.14-.44,0-.49-.3A1.09,1.09,0,0,1,65,19Z"/><path class="cls-13" d="M64.8,9.26c.58-1.43,1.3-2.37,2.65-1.54.27.16.21.4.19.67s-.36.3-.47.24-.1-.08-.15-.12h0l-.07,0-.12-.05-.06,0h0a1,1,0,0,0-.24,0h0l-.07,0-.14.06-.12.09s0,0,0,0L66,8.66l-.13.15-.06.07,0,0a1.42,1.42,0,0,0-.11.18s0,.08-.06.11l0,0-.08.19c0,.09,0,.14-.11.29s-.32.54-.55.34A.68.68,0,0,1,64.8,9.26Z"/><path class="cls-13" d="M56.74,16a10,10,0,0,1,3.85-3.59c.3-.14.34.26.29.54a1.58,1.58,0,0,1-.57.78l-.25.11-.08,0-.08,0a4.11,4.11,0,0,0-.39.24l-.2.14-.12.09,0,0,0,0c-.09.08-.28.24-.39.35l-.37.37,0,.05v0l-.11.12-.19.23-.34.45c-.06.09,0,0,0,.06s0,0,0,0,0,.07-.1.15-.09.17-.18.31-.44.56-.64.3A.68.68,0,0,1,56.74,16Z"/><path class="cls-13" d="M57.78,9.76c.2.25.42,0,.63-.2.88-1,1.86-2.21,2.75-3.22a8.26,8.26,0,0,0,1-1.37c.08-.13.06-.27.19-.34s.25,0,.39-.08.39-.28.33-.56c-.14-.62-.74-.35-1-.1a2.19,2.19,0,0,0-.56.82,3.32,3.32,0,0,1-.4.64c-.49.58-1,1.11-1.5,1.71S58.46,8.36,58,9C57.76,9.2,57.58,9.51,57.78,9.76Z"/><path class="cls-13" d="M51.19,17.6a7.45,7.45,0,0,1,2.63-2.55c.23-.13.37.1.38.36a1.09,1.09,0,0,1-.39.69c-.14.09-.14.07-.2.11l-.09.05,0,0-.31.21-.29.23-.08.07s0,0,0,0,0,0,0,0l-.15.14-.25.27-.14.15-.07.09,0,.05c-.09.1-.31.46-.42.63s-.37.36-.52.14A.6.6,0,0,1,51.19,17.6Z"/><path class="cls-13" d="M67.35,3.35A3,3,0,0,1,69,2.83a2.49,2.49,0,0,1,1.66.83.33.33,0,0,1-.05.51c-.17.12-.45,0-.54-.14s0-.06-.1-.1a.7.7,0,0,0-.1-.08l-.14-.09-.12,0a1.8,1.8,0,0,0-.28-.09h-.14a.4.4,0,0,0-.16,0A2.7,2.7,0,0,0,67.83,4a.43.43,0,0,1-.53-.1A.32.32,0,0,1,67.35,3.35Z"/><path class="cls-13" d="M79.79,35.56c.23-.41.49-.77.74-1.17a.52.52,0,0,0,0-.63.33.33,0,0,0-.54,0c-.24.34-.44.69-.67,1a1.72,1.72,0,0,0-.3.55,1,1,0,0,0,.07.7,5.64,5.64,0,0,1,.38.93v.12a1,1,0,0,1,0,.14.17.17,0,0,0,0,.07h0a.38.38,0,0,0-.43.32.45.45,0,0,0,.28.54.82.82,0,0,0,.91-.52,1.66,1.66,0,0,0,0-1.24,4.37,4.37,0,0,0-.27-.6c0-.12-.08-.15-.08-.18S79.77,35.58,79.79,35.56Z"/><path class="cls-13" d="M73.27,30.69a.33.33,0,0,0-.53,0,2.8,2.8,0,0,0-.82,1.4,2,2,0,0,0,.1,1,6.43,6.43,0,0,0-.68.47,2,2,0,0,0-.61,1.13,1.92,1.92,0,0,0,0,.34c0,.07,0,.06,0,.1s-.07,0-.13,0a1.12,1.12,0,0,0-.24.1,1.41,1.41,0,0,0-.62,1c0,.25,0,.49.27.54s.39,0,.48-.32.17-.4.54-.48a.86.86,0,0,0,.48-1c-.07-.43.12-.56.39-.79a9.28,9.28,0,0,0,.93-.69.54.54,0,0,0,0-.64c-.44-.61.08-1.16.45-1.58A.47.47,0,0,0,73.27,30.69Z"/><path class="cls-13" d="M64.4,28.5c-.08-.24-.3-.45-.52-.36a2.2,2.2,0,0,0-1.38,1.41,3.26,3.26,0,0,0,.08,2.32.43.43,0,0,0,.6.23.49.49,0,0,0,.12-.64c0,.08,0,0,0,0l0-.11s0-.17-.06-.21v0a.31.31,0,0,0,0-.09s0-.18,0-.23v-.15s0-.14,0-.19,0-.17.05-.22a.24.24,0,0,1,0-.09s0,0,0-.05a3.54,3.54,0,0,1,.16-.34c0-.05,0,0,0-.05l.05-.06a1,1,0,0,1,.12-.16l.07-.08h0l.14-.11.15-.09,0,0,.09,0A.48.48,0,0,0,64.4,28.5Z"/><path class="cls-13" d="M63.15,21.78a3.18,3.18,0,0,0-1.62.15,1.77,1.77,0,0,0-1,1.17.53.53,0,0,0,.31.62.39.39,0,0,0,.51-.29l0-.05s0,0,0,0,.06-.1.07-.13l0,0v0l.09-.1,0,0s0,0,0,0,0,0,0,0l.11-.08.11-.07,0,0h0l.28-.08.16,0h.12c.24,0,.48,0,.71,0a.42.42,0,0,0,.4-.47A.51.51,0,0,0,63.15,21.78Z"/><path class="cls-13" d="M56.54,26.25c-.1-.26-.3-.48-.55-.4a2.76,2.76,0,0,0-2,2.59.51.51,0,0,0,.45.54c.23,0,.4-.15.42-.44,0,0,0,0,0-.05s0,.05,0,0a.84.84,0,0,1,0-.1,1.15,1.15,0,0,1,0-.16,1.33,1.33,0,0,0,0-.19A.19.19,0,0,1,55,28v0a2.28,2.28,0,0,1,.13-.28,1.14,1.14,0,0,1,.09-.16l0-.06s0,0,0,0a2.25,2.25,0,0,1,.21-.24l.13-.11h0s0,0,.07-.05A2.29,2.29,0,0,1,56,26.9c.07,0,0,0,.08,0h0l.17-.05A.46.46,0,0,0,56.54,26.25Z"/><path class="cls-13" d="M49.53,28.08c.07,0,0,0,0,0Z"/><path class="cls-13" d="M49.84,27.42c-.05-.17-.25-.44-.46-.31a4.12,4.12,0,0,0-1.79,2.41.49.49,0,0,0,.28.61c.22.06.39-.11.47-.36a.83.83,0,0,1,0-.15v0l0-.08c0-.05.09-.24.12-.3l.08-.15s0-.05,0-.07,0,0,0,0a2.94,2.94,0,0,1,.17-.26,2.59,2.59,0,0,1,.19-.23l.06-.07.11-.1a1.63,1.63,0,0,1,.22-.17l.12-.09s0,0,0,0h0a.17.17,0,0,0,.07,0s.18-.11.21-.23A.51.51,0,0,0,49.84,27.42Z"/><path class="cls-13" d="M57.06,37c-.07-.3-.19-.66-.24-1,0-.08,0-.18,0-.25l0-.12s0,0,0-.07,0-.29,0-.49-.21-.5-.44-.5a.41.41,0,0,0-.43.45,8.67,8.67,0,0,0,.39,2.16.46.46,0,0,0,.54.36A.44.44,0,0,0,57.06,37Z"/><path class="cls-13" d="M66,39a.58.58,0,0,0,0-.33.41.41,0,0,0-.18-.26.36.36,0,0,0-.3,0,.49.49,0,0,0-.25.2A2.43,2.43,0,0,0,65,39.61a.45.45,0,0,0,.11.31.38.38,0,0,0,.28.14.46.46,0,0,0,.29-.13.5.5,0,0,0,.12-.31,1.06,1.06,0,0,1,0-.26,1.32,1.32,0,0,1,.08-.3Z"/><path class="cls-13" d="M74.75,44.8s.08-.15.11-.21c.15-.29.4-.7.53-1a.45.45,0,0,0-.13-.61c-.2-.12-.39-.09-.54.17s-.35.64-.52.93a2.57,2.57,0,0,0-.24.5,1,1,0,0,0,0,.53,2.21,2.21,0,0,0,.26.64s.06.11.07.14l0,.07h0s0,0,0,0a.48.48,0,0,0,.14.59.36.36,0,0,0,.53-.16c.23-.55,0-1-.26-1.45,0,0,0-.05,0-.06v-.07h0v0A.25.25,0,0,0,74.75,44.8Z"/><path class="cls-13" d="M47.57,50.24A2.19,2.19,0,0,1,47,49a.7.7,0,0,0-.42-.68c-.23-.14-.37-.14-.53-.31a2.66,2.66,0,0,1-.6-2.19c.08-.58-.5-.93-.69-.28a3.77,3.77,0,0,0,.18,2.17,2.83,2.83,0,0,0,.5.86,2.45,2.45,0,0,0,.41.33.85.85,0,0,0,.25.13s0,0,0,0a3.14,3.14,0,0,0,.2.83,2.92,2.92,0,0,0,.66.93A.41.41,0,0,0,47.57,50.24Z"/><path class="cls-13" d="M55.25,52.84a1.89,1.89,0,0,1-.36-.06l-.17-.05s-.09,0,0,0l0,0-.32-.15-.15-.08s0,0,0,0h0l-.08-.06-.26-.21-.07-.07,0,0s0,0,0,0a.88.88,0,0,1-.11-.13l-.18-.27,0-.06,0,0-.08-.18c-.07-.14-.38-.36-.58-.26s-.4.29-.28.56a3.46,3.46,0,0,0,2.62,2,.44.44,0,0,0,.35-.06.36.36,0,0,0,.19-.29A.53.53,0,0,0,55.25,52.84Z"/><path class="cls-13" d="M65.09,57c.09,0,0,0,0,0h0s0,0,0,0l-.06,0,0,0-.13-.15-.06-.09,0,0c-.19-.31-.34-.61-.56-.91a1.4,1.4,0,0,0-.83-.58c-.12,0-.24,0-.31-.05s-.06,0-.06,0,0,0-.06-.07l0-.08s0,0,0-.09,0-.2-.08-.36-.26-.38-.46-.29a.48.48,0,0,0-.24.56,1.44,1.44,0,0,0,.87,1.24c.13,0,.28,0,.35.06l.08,0,0,0,.06,0,.07.07.15.19h0s0,0,0,0l.07.12.14.24c.07.12.19.34.3.49a1.36,1.36,0,0,0,.92.61c.21,0,.36-.21.36-.45A.44.44,0,0,0,65.09,57Z"/><path class="cls-13" d="M70.78,54.08a4,4,0,0,0-2.54-1.52c-.21,0-.38.2-.37.45a.45.45,0,0,0,.38.44h0l.08,0,.14,0a1.49,1.49,0,0,1,.3.09l.16.06.1.05.27.15a2.94,2.94,0,0,1,.26.17l.13.11.05,0,0,0a5.8,5.8,0,0,1,.47.52.34.34,0,0,0,.54,0A.48.48,0,0,0,70.78,54.08Z"/><path class="cls-13" d="M71,59.14a.49.49,0,0,0-.19-.26l-.4-.28a.25.25,0,0,0-.16-.06.19.19,0,0,0-.15,0,.22.22,0,0,0-.13.08.23.23,0,0,0-.1.13.56.56,0,0,0,0,.34.5.5,0,0,0,.18.27l.41.28c.08.06.09,0,.15.06a.25.25,0,0,0,.15,0,.39.39,0,0,0,.14-.08.42.42,0,0,0,.1-.14A.62.62,0,0,0,71,59.14Z"/><path class="cls-13" d="M61.66,48.81a2.57,2.57,0,0,0-.34-.54,2,2,0,0,0-.91-.64c-.28-.09-.44,0-.5.31a.48.48,0,0,0,.32.55s0,0,0,0a1.39,1.39,0,0,1,.28.16,1.73,1.73,0,0,1,.24.23,2.75,2.75,0,0,1,.17.29,2.28,2.28,0,0,1,.11.35c0,.07,0-.12,0-.06a.61.61,0,0,0,.15.3.47.47,0,0,0,.29.12.3.3,0,0,0,.27-.14.36.36,0,0,0,.09-.33A2.6,2.6,0,0,0,61.66,48.81Z"/><path class="cls-13" d="M50.91,45.09a7,7,0,0,0-.72-.27,3.72,3.72,0,0,0-.73-.14c-.18,0-.22.06-.33.15a.55.55,0,0,0-.14.35.54.54,0,0,0,.11.33.58.58,0,0,0,.1.08.61.61,0,0,0,.21.06h-.07a4.88,4.88,0,0,1,1,.25l.12,0c.08,0,.23.09.34,0s.2-.07.28-.25S51.14,45.19,50.91,45.09Z"/></g><g class="cls-14"><path class="cls-72" d="M94.72,30.48l0,0a.27.27,0,0,0,.08-.07.35.35,0,0,0,.08-.11A1.16,1.16,0,0,0,95,30a5.52,5.52,0,0,0,.2-.65.7.7,0,0,1,.22-.34.32.32,0,0,1,.3-.08.27.27,0,0,1,.2.19.4.4,0,0,1,0,.15.66.66,0,0,1,0,.27,5.67,5.67,0,0,1-.38,1.07,2,2,0,0,1-.74.81c-.28.14-.38,0-.44-.29A.85.85,0,0,1,94.72,30.48Z"/><path class="cls-73" d="M87.81,35.43l.07,0,.13-.09.22-.18.12-.12h0l.06-.07.21-.24.1-.14.06-.08s0,0,0,0,0,0,0,0,.13-.21.17-.29.13-.25.16-.31,0,0,0-.08l0,0a1.68,1.68,0,0,1,.09-.22c.06-.13.29-.5.51-.39a.43.43,0,0,1,.18.61,5.86,5.86,0,0,1-2.09,2.7c-.22.14-.4,0-.42-.31A.76.76,0,0,1,87.81,35.43Z"/><path class="cls-74" d="M88.81,34.43s0,0,0,0S88.79,34.46,88.81,34.43Z"/><path class="cls-75" d="M91.35,37.67s0-.08,0-.12,0-.08,0-.1v0l0-.09s0,0,0,0,0,0,0-.05a.85.85,0,0,1-.11-.36A1.93,1.93,0,0,1,92,35.65a3.2,3.2,0,0,0,.37-.37,1.07,1.07,0,0,0,.11-.2c0-.07,0,0,0-.07s0,0,0-.19.21-.58.46-.53.32.16.31.52a2.9,2.9,0,0,1-.55,1.25c-.2.23-.37.35-.49.48s-.13,0-.17.17,0,.16,0,.33a2.86,2.86,0,0,1,0,.65A3.21,3.21,0,0,1,91.57,39c-.23.3-.35.27-.57.11s0-.57,0-.68a.87.87,0,0,1,.1-.14l0,0,.06-.12v0l0-.11a.24.24,0,0,1,0-.08s0-.05,0-.08a.59.59,0,0,0,0-.13Z"/><path class="cls-76" d="M88,43.58s0,0,0,0a1.92,1.92,0,0,0,.18-.32A2.29,2.29,0,0,0,88.3,43a.4.4,0,0,1,.18-.24.35.35,0,0,1,.49.16.51.51,0,0,1,0,.32,2.77,2.77,0,0,1-.5,1,.31.31,0,0,1-.26.11.34.34,0,0,1-.25-.13.45.45,0,0,1-.1-.3A.64.64,0,0,1,88,43.58Z"/><path class="cls-77" d="M85.79,47a.41.41,0,0,1,.18-.24.38.38,0,0,1,.27,0h.09l0,0,0,0,0-.06h0c0-.08.08-.15.16-.19a.31.31,0,0,1,.28,0,.41.41,0,0,1,.21.2.53.53,0,0,1,0,.33,1,1,0,0,1-.18.33.31.31,0,0,1-.1.1.76.76,0,0,1-.18.13.91.91,0,0,1-.59,0,.38.38,0,0,1-.22-.21A.45.45,0,0,1,85.79,47Z"/><path class="cls-78" d="M85.1,27.7l.09-.11c0-.07.11-.18.16-.28s.09-.25.12-.33,0,0,0-.05a.84.84,0,0,1,.16-.33.54.54,0,0,1,.3-.17.28.28,0,0,1,.26.11.39.39,0,0,1,.06.33,3.73,3.73,0,0,1-.68,1.45.46.46,0,0,1-.3.18.25.25,0,0,1-.26-.11.5.5,0,0,1-.07-.34A.93.93,0,0,1,85.1,27.7Z"/><path class="cls-79" d="M90,21.59h0a.75.75,0,0,0,.09-.15.58.58,0,0,0,0-.14.8.8,0,0,0,0-.15s0,0,0-.07a.58.58,0,0,1,.09-.32c.07-.09.15-.2.25-.22s.2-.06.28,0a.33.33,0,0,1,.14.28,2,2,0,0,1-.1.66,2.36,2.36,0,0,1-.34.61.44.44,0,0,1-.3.18.22.22,0,0,1-.25-.1.37.37,0,0,1-.07-.31A.7.7,0,0,1,90,21.59Z"/><path class="cls-80" d="M93,14.75c.18-.07.38-.06.45.16a3.91,3.91,0,0,1,.16,1.86.41.41,0,0,1-.37.39c-.19,0-.31-.23-.3-.39s0-.3,0-.4V16.1A.57.57,0,0,0,93,16a2.11,2.11,0,0,0,0-.35c0-.06,0-.07,0-.11s0,0,0,0,0,0,0,0,0-.09-.06-.22S92.86,14.81,93,14.75Z"/><path class="cls-81" d="M93.6,24.8c0,.25.08.4.37.36a1.35,1.35,0,0,0,.78-.69,1.86,1.86,0,0,0,.08-.71c0-.2.1-.07.19-.22s.21-.21.33-.41a2.26,2.26,0,0,0,.35-.84c0-.28-.13-.34-.32-.4s-.34.24-.38.34,0,0,0,.08,0,.06,0,.1a.42.42,0,0,1,0,.1l0,.07a2,2,0,0,1-.17.27l0,0L94.6,23l-.11.11-.06.05s0,0-.09.06a.66.66,0,0,0-.21.19A.72.72,0,0,0,94,24l0,.09,0,0v0s0,0,0,0,0,0,0,0l0,0h0s0,0,0,0l0,0-.05,0C93.87,24.38,93.56,24.56,93.6,24.8Z"/><path class="cls-82" d="M85.45,16.78a1.42,1.42,0,0,0,.18-.85,1.24,1.24,0,0,1,.55-1.14.81.81,0,0,0,.26-.26,1.42,1.42,0,0,0,.14-.41,8.91,8.91,0,0,1,.23-1.37c.07-.21.26-.39.46-.27s.23.22.15.56-.09.84-.18,1.26a2.29,2.29,0,0,1-.64,1.12l-.19.13,0,0s0,0,0,0,0,.1,0,.18a2.72,2.72,0,0,1,0,.3,2.59,2.59,0,0,1-.55,1.33c-.16.18-.39.24-.52,0S85.29,17,85.45,16.78Z"/><path class="cls-83" d="M77.52,26a2.14,2.14,0,0,1,.72-.81s0,0,0,0,0,0,.09-.08l.16-.15.16-.18.06-.09,0,0,0,0,.12-.2a.9.9,0,0,0,0-.09s0,0,0-.05l.08-.2c0-.05,0,0,0-.05a.6.6,0,0,1,0-.18c.05-.14.25-.49.47-.45s.34.2.29.48a4,4,0,0,1-1,1.82c-.12.14-.28.26-.37.35l-.2.16c0,.05,0,0-.06.06s0,0,0,.1,0,.16,0,.32a6.34,6.34,0,0,1-.07.65c0,.22-.21.49-.44.49s-.33-.2-.32-.45,0-.41,0-.66A2.8,2.8,0,0,1,77.52,26Z"/><path class="cls-84" d="M79,15.54c.07-.26.27-.48.51-.43s.3.25.24.52c-.14.63-.33,1.3-.53,1.92-.08.25-.26.48-.5.45s-.33-.24-.25-.51C78.6,16.86,78.79,16.19,79,15.54Z"/><path class="cls-85" d="M78.17,6.63c.19-.09.44.09.53.24a2.32,2.32,0,0,0,.18.28A2.09,2.09,0,0,0,79,7.3l.1.07h0a3.77,3.77,0,0,0,.92.34c.33.08.71,0,1,.37a1.11,1.11,0,0,1,.18.49,2.46,2.46,0,0,1,.14.58.64.64,0,0,1-.3.61.37.37,0,0,1-.5-.2A5.46,5.46,0,0,1,80.47,9a2.71,2.71,0,0,0,0-.27c0-.08,0,0,0-.06s-.08,0-.16,0L80,8.61a2.85,2.85,0,0,1-.51-.12,2.68,2.68,0,0,1-1.53-1.31A.42.42,0,0,1,78.17,6.63Z"/><path class="cls-86" d="M72.85,10.33A3.09,3.09,0,0,0,73,9.94a2.83,2.83,0,0,0,.1-.47c0-.15,0-.12,0-.3s.18-.48.4-.44a.46.46,0,0,1,.42.48,3.32,3.32,0,0,1-.4,1.62.4.4,0,0,1-.25.24A.27.27,0,0,1,73,11,.75.75,0,0,1,72.85,10.33Z"/><path class="cls-87" d="M71.2,20.29c.14.24.35.28.53.05a7,7,0,0,0,1.35-2.69.51.51,0,0,0-.25-.65c-.24-.13-.43.28-.48.44s-.06.26-.09.35,0,0,0,.1a1.66,1.66,0,0,1-.06.16c0,.07-.08.2-.1.27l-.07.15,0,.07-.14.25c0,.08-.12.18-.15.24a1.23,1.23,0,0,0-.08.12h0a.37.37,0,0,0-.06.08,2.42,2.42,0,0,0-.2.24A.94.94,0,0,0,71.2,20.29Z"/><path class="cls-88" d="M65.28,19.88a3,3,0,0,1,1.15-1.27,1,1,0,0,1,.59-.07.88.88,0,0,1,.3.07h.18c.08,0,0,0,.14,0a.55.55,0,0,1,.34.56,1,1,0,0,1-.38.73,1.09,1.09,0,0,1-.61,0c-.16,0-.18,0-.29,0s0,0,0,0h-.06l-.12,0-.09,0-.07,0-.11.08,0,.05s0,0,0,0a2,2,0,0,0-.19.22c0,.05,0,.07-.06.08s.07-.11,0,0,0,.1-.13.24-.38.44-.55.15A1,1,0,0,1,65.28,19.88Z"/><path class="cls-89" d="M65.15,9.15a1,1,0,0,1,.27-.39,1.84,1.84,0,0,1,1.9-.36c.24.08.27.45.25.7a.53.53,0,0,1-.43.45c-.15,0-.16-.06-.24-.07s-.05,0-.1,0,0,0,0,0a1.15,1.15,0,0,0-.37,0l-.12.05-.08,0c-.05,0,.07,0,0,0a.92.92,0,0,0-.21.13c-.1.06-.3.23-.41.31a.24.24,0,0,1-.32,0,.39.39,0,0,1-.16-.34A1.06,1.06,0,0,1,65.15,9.15Z"/><path class="cls-90" d="M68.05,3.74a3.37,3.37,0,0,1,2.1.16.46.46,0,0,1,.26.2c.07.11.12.15.08.32a.33.33,0,0,1-.42.22c-.14-.06-.35-.13-.45-.16l-.16,0-.08,0-.21,0a2.88,2.88,0,0,0-.41,0h-.19c-.08,0-.12,0-.24,0s-.42,0-.47-.24S67.83,3.81,68.05,3.74Z"/><path class="cls-91" d="M59.73,8.06A15.58,15.58,0,0,1,63,4.36c.23-.19.4-.08.51.14s0,.35-.19.47a8.15,8.15,0,0,0-.75.65,3.06,3.06,0,0,1-.24.22.46.46,0,0,1-.1.1L62.1,6c-.09.1-.21.22-.38.42s-.53.65-.72.93c0,0,0,0,0,.06a1,1,0,0,1-.1.14,2.16,2.16,0,0,1-.17.26c-.08.13-.21.37-.33.55s-.41.55-.64.37S59.55,8.34,59.73,8.06Z"/><path class="cls-92" d="M57,16.86a12.25,12.25,0,0,1,4.24-3.73c.31-.15.34.29.27.58a1.36,1.36,0,0,1-.57.78A5,5,0,0,0,60,15a7.66,7.66,0,0,0-.87.69,16.78,16.78,0,0,0-1.69,1.95c-.19.25-.47.44-.64.12A.85.85,0,0,1,57,16.86Z"/><path class="cls-93" d="M52.2,18.36a8.52,8.52,0,0,1,2-2.25c.21-.17.41-.12.5.16a1,1,0,0,1-.31.81,2.45,2.45,0,0,1-.29.22l-.14.12s-.14.14-.07,0c-.13.14-.37.37-.47.49l-.23.27c-.06.07,0,0,0,0l0,.07a1.36,1.36,0,0,0-.11.14c-.07.09-.24.38-.32.5s-.14.21-.27.21-.18.08-.27-.11A.66.66,0,0,1,52.2,18.36Z"/><path class="cls-94" d="M53.18,18.26s0,0,0,0S53.16,18.28,53.18,18.26Z"/><path class="cls-95" d="M72.72,34.92c-.12-.21-.34-.31-.53-.16a2,2,0,0,0-.7,1.31,1.5,1.5,0,0,0-.75.48.49.49,0,0,0,0,.64.36.36,0,0,0,.55,0l.08-.09,0,0,.08-.06h0l0,0h0s0,0,0,0l.18,0s0,0,.06,0,0,0,.13,0,.39-.27.36-.43a.47.47,0,0,1,0-.2.32.32,0,0,1,0-.1v0a1.1,1.1,0,0,1,0-.16.64.64,0,0,1,0-.07h0s0-.12.07-.15l0-.07h0l.1-.12,0,0,0,0A.52.52,0,0,0,72.72,34.92Z"/><polygon class="cls-96" points="71.53 37.01 71.51 37.02 71.53 37 71.53 37 71.53 37.01"/><path class="cls-97" d="M74.34,31.76a.35.35,0,0,0-.27-.13,1.74,1.74,0,0,0-.34.05,1,1,0,0,0-.21.09.58.58,0,0,0-.17.14.53.53,0,0,0-.12.17s0,0,0,.06a.88.88,0,0,0,0,.15s0,0,0,.06,0,.12,0,.17a.41.41,0,0,0,0,.11.74.74,0,0,0,0,.12,1,1,0,0,0,.14.28.38.38,0,0,0,.11.11,1,1,0,0,0,.14.08.29.29,0,0,0,.16,0,.53.53,0,0,0,.14-.06A.57.57,0,0,0,74,32.9a1,1,0,0,0,0-.32s0,0,.05,0h0a.24.24,0,0,0,.15,0,.33.33,0,0,0,.12-.1.52.52,0,0,0,.1-.31A.55.55,0,0,0,74.34,31.76Z"/><path class="cls-98" d="M81.2,36l0,0,0-.08,0-.1v-.1a.37.37,0,0,1,0-.09.49.49,0,0,1,0-.1.54.54,0,0,0,0-.34.49.49,0,0,0-.18-.26.35.35,0,0,0-.29,0,.19.19,0,0,0-.11,0,.37.37,0,0,0-.13.16,1.28,1.28,0,0,0-.13.36,1.35,1.35,0,0,0,0,.4,1.64,1.64,0,0,0,0,.25.78.78,0,0,0,.09.24,1.07,1.07,0,0,0,.2.32.44.44,0,0,0,.28.14.35.35,0,0,0,.27-.13.62.62,0,0,0,.11-.32A.55.55,0,0,0,81.2,36Z"/><path class="cls-99" d="M76,44.45a.51.51,0,0,0-.17-.26.27.27,0,0,0-.11,0,.37.37,0,0,0-.21,0,1,1,0,0,0-.34.22,1.68,1.68,0,0,0-.21.36.39.39,0,0,0,0,.13.82.82,0,0,0,0,.23,1.18,1.18,0,0,0,.1.42.5.5,0,0,0,.11.13.22.22,0,0,0,.14.08.38.38,0,0,0,.29-.05.51.51,0,0,0,.19-.26.59.59,0,0,0,0-.33c0-.06,0,0,0,0h0s0,0,0,0h0s0,0,0,0a.45.45,0,0,0,.22-.2A.57.57,0,0,0,76,44.45Z"/><path class="cls-100" d="M66.89,38.6a.34.34,0,0,0-.27-.13.37.37,0,0,0-.27.13c-.06,0,0,0-.08.1a.71.71,0,0,0-.06.22c0,.22-.07.58-.08.77a.37.37,0,0,0,.1.33.35.35,0,0,0,.28.13.4.4,0,0,0,.28-.12c0-.06,0-.05.07-.1a.71.71,0,0,0,.06-.22c0-.23.06-.59.08-.78A.41.41,0,0,0,66.89,38.6Z"/><path class="cls-101" d="M64.66,30.19c-.1-.16-.35-.36-.56-.2a1.66,1.66,0,0,0-.5.68,2.27,2.27,0,0,0-.12.91.58.58,0,0,0,.15.37.41.41,0,0,0,.31.17.35.35,0,0,0,.28-.13.45.45,0,0,0,.1-.33c0-.1,0-.16,0-.24a1,1,0,0,1,0-.2.49.49,0,0,1,.08-.18,1,1,0,0,1,.11-.15s0,0,0,0,.16-.15.16-.28A.52.52,0,0,0,64.66,30.19Z"/><path class="cls-102" d="M63.4,23.28a.43.43,0,0,0-.5-.38,10.88,10.88,0,0,0-1.87.71.51.51,0,0,0-.14.65.46.46,0,0,0,.57.23l.43-.18.07,0,.1,0,.21-.08c.26-.11.6-.2.85-.29A.47.47,0,0,0,63.4,23.28Z"/><path class="cls-103" d="M57,27.43a.56.56,0,0,0-.26-.25l-.13,0a.43.43,0,0,0-.22,0,1.82,1.82,0,0,0-1,1.21.54.54,0,0,0,.06.39.57.57,0,0,0,.27.26.4.4,0,0,0,.34,0,.43.43,0,0,0,.19-.26l0-.11a1.1,1.1,0,0,1,.14-.26.85.85,0,0,1,.19-.19l.22-.13a.41.41,0,0,0,.19-.27A.56.56,0,0,0,57,27.43Z"/><path class="cls-104" d="M50.42,28.91a.53.53,0,0,0-.2-.31.32.32,0,0,0-.31-.06,1.28,1.28,0,0,0-.75.73A2,2,0,0,0,49,30.49a.41.41,0,0,0,.19.3.26.26,0,0,0,.31,0,.58.58,0,0,0,.25-.58h0a1.2,1.2,0,0,1,0-.19l0-.16.06-.15.09-.12.11-.08.1,0a.43.43,0,0,0,.23-.23A.62.62,0,0,0,50.42,28.91Z"/><path class="cls-105" d="M57.9,36.74c-.07-.48-.15-1-.21-1.44,0-.06,0-.08,0-.17a.6.6,0,0,0-.13-.34.52.52,0,0,0-.31-.16.41.41,0,0,0-.31.12.39.39,0,0,0-.13.32c.08.64.15,1.26.28,1.89a.44.44,0,0,0,.54.34A.48.48,0,0,0,57.9,36.74Z"/><path class="cls-106" d="M46.46,47.08Z"/><path class="cls-107" d="M46.34,46.82c0-.07,0,0,0,0S46.34,46.82,46.34,46.82Z"/><path class="cls-108" d="M46.68,47.33l-.07,0-.08-.1-.09-.12s0,0,0,0l0,0,0-.07a.59.59,0,0,1-.06-.14v0s0,0,0,0a.21.21,0,0,1,0-.08,1,1,0,0,1,0-.26c0-.08.07-.32,0-.35s0,.05,0,0,0-.26,0-.35-.06-.2-.23-.21a.42.42,0,0,0-.51.36,3.14,3.14,0,0,0,.09,1.25,2,2,0,0,0,.58.91c.24.18.45,0,.59-.17A.47.47,0,0,0,46.68,47.33Z"/><path class="cls-109" d="M49,50.21a.63.63,0,0,0-.12-.18s0,.07,0,0-.21-.23-.23-.35-.05-.44-.14-.44,0,.09,0,.07,0-.12-.05-.16,0-.09-.11-.15A.59.59,0,0,0,48,48.9a.49.49,0,0,0-.3.14.39.39,0,0,0-.11.32,1.31,1.31,0,0,0,.09.38,1.47,1.47,0,0,0,.14.33,2.64,2.64,0,0,0,.41.58.46.46,0,0,0,.34.13.41.41,0,0,0,.31-.14.37.37,0,0,0,.11-.3A.39.39,0,0,0,49,50.21Z"/><path class="cls-110" d="M55.29,51.74a.57.57,0,0,0-.29-.2.84.84,0,0,1-.26-.07,1.09,1.09,0,0,1-.34-.17c-.08-.08-.24-.3-.31-.28s0,0,0,0-.19-.15-.28-.17a.48.48,0,0,0-.35.06.4.4,0,0,0-.19.28.41.41,0,0,0,.07.34,3.23,3.23,0,0,0,.7.59,2.84,2.84,0,0,0,.78.28.42.42,0,0,0,.36,0,.35.35,0,0,0,.2-.28A.42.42,0,0,0,55.29,51.74Z"/><path class="cls-111" d="M61.68,49.56A2.79,2.79,0,0,0,60,48.34a.4.4,0,0,0-.49.33.48.48,0,0,0,.32.53,2.27,2.27,0,0,1,.34.11,2.22,2.22,0,0,1,.39.23,2.18,2.18,0,0,1,.34.34A1.32,1.32,0,0,1,61,50c.09.12.38.29.55.13A.45.45,0,0,0,61.68,49.56Z"/><path class="cls-112" d="M50.81,46.43A4.24,4.24,0,0,0,49.12,46a.42.42,0,0,0-.31.15.58.58,0,0,0-.14.34.51.51,0,0,0,.12.33.52.52,0,0,0,.29.13c.06,0,0,0,.05,0a4.7,4.7,0,0,1,.9.21l.34.14a.49.49,0,0,0,.61-.2A.48.48,0,0,0,50.81,46.43Z"/><path class="cls-113" d="M65,55.7c.06,0,0,0,0,0h0l0,0v-.05a.36.36,0,0,1,0-.1h0a1.59,1.59,0,0,1,0-.22,1.37,1.37,0,0,0-.07-.55.75.75,0,0,0-.41-.36,3.31,3.31,0,0,0-.4-.1l-.21-.06-.1,0-.06,0-.05,0,0,0,0,0,0-.05,0,0h0s0,0,0,0v0s0,.06,0-.05-.06-.5-.28-.51-.39,0-.44.34a1.28,1.28,0,0,0,.36,1.08,2.1,2.1,0,0,0,.9.41.54.54,0,0,1,.15,0s0,0,0,.06,0,.13,0,.2a1.48,1.48,0,0,0,.47,1,.32.32,0,0,0,.5-.17A.52.52,0,0,0,65,55.7Z"/><path class="cls-114" d="M69.8,54.62a2,2,0,0,0-.56-.51,2.25,2.25,0,0,0-.78-.26.33.33,0,0,0-.27.14.64.64,0,0,0-.11.31.51.51,0,0,0,.12.31.59.59,0,0,0,.08.08.47.47,0,0,0,.19.06h0a1.52,1.52,0,0,1,.36.12,1.57,1.57,0,0,1,.3.2,2,2,0,0,1,.2.21.37.37,0,0,0,.27.13.35.35,0,0,0,.27-.14.39.39,0,0,0,.11-.32A.48.48,0,0,0,69.8,54.62Z"/><path class="cls-115" d="M72.75,59.21a18,18,0,0,0-2-1.43.34.34,0,0,0-.51.16.48.48,0,0,0,.14.61c.68.44,1.33.92,2,1.43a.35.35,0,0,0,.52-.17A.5.5,0,0,0,72.75,59.21Z"/></g><path class="cls-116" d="M97.8,23.31A11.57,11.57,0,0,1,97.87,31c-.33,1.07-1.06,2.36-1.43,3.41s-.59,2.17-.88,3.15A9.46,9.46,0,0,1,93,42.14c-.52.5-1.24.66-1.55,1.41A7,7,0,0,0,91.35,45a5.13,5.13,0,0,1-.3,1.27,7.5,7.5,0,0,1-2.91,3.36,6.07,6.07,0,0,0-1.32,1.68A11.57,11.57,0,0,1,85.4,53a8.26,8.26,0,0,1-1.76,3.31,3.53,3.53,0,0,1-1.06,2c-.31.31-.68.54-1,.82a2.5,2.5,0,0,0-.28.3c-.05.08,0,.08-.05.14a.66.66,0,0,0,0,.14c0,.07,0,.18,0,.27a3.62,3.62,0,0,1-.17.87L81,61a1.13,1.13,0,0,1-.12.18.5.5,0,0,1-.1.13,1.65,1.65,0,0,1-.71.51c-.07,0,0,0,0,0h0l-.2.07a11.63,11.63,0,0,1-2.21.29,3.38,3.38,0,0,1-4.44.48,1.18,1.18,0,0,1,.52-1c.18-.12.37-.21.55-.35l.12-.09s.13-.15.16-.18l0,0s0,0,0,0a1.94,1.94,0,0,0,0-.2,6.12,6.12,0,0,1,.28-.79,3.16,3.16,0,0,1,.93-1.14c0-.05.12-.07.15-.12s0,0,0-.07-.05-.32-.06-.47a2.48,2.48,0,0,1,.21-1.08,2.35,2.35,0,0,1,.53-.7l.25-.22.11-.11L77.1,56l.08-.14a1.11,1.11,0,0,0,.09-.19l.07-.21c0-.07,0-.09,0-.15s0-.16,0-.23a1,1,0,0,0,0-.17c0-.06,0-.14,0-.2a1.56,1.56,0,0,1,.45-1.4,5.48,5.48,0,0,0,.38-2,4.81,4.81,0,0,0-.38-1.42c0-.16-.15-.38-.19-.49s-.06-.09-.07-.12,0,0,0,0c.26-.52.79-.84,1.09-1.32a3.06,3.06,0,0,0,.42-1.49A5.87,5.87,0,0,0,81,44.64a3.48,3.48,0,0,0,.36-2.52,7,7,0,0,0,3.42-3.75,11.47,11.47,0,0,0,1.62-3.06c.27-.52.68-.65,1.15-.88a3.79,3.79,0,0,0,1.68-1.36,5.4,5.4,0,0,0,.67-2.44,3.87,3.87,0,0,1,.68-1.95,6.83,6.83,0,0,0,1-2.81,3.58,3.58,0,0,0,1.18-2.33,11.41,11.41,0,0,1,.5-2.91,18.35,18.35,0,0,0,1.94-3.89,6.72,6.72,0,0,0-.1-3.39c.12.13.23.21.35.35a5.36,5.36,0,0,1,.39.42c2,2.37,3.11,4.5,2.42,7.87,0,.18-.17.2-.24.42S97.88,23.06,97.8,23.31Z"/><polygon class="cls-13" points="74.53 61.06 74.52 61.06 74.52 61.06 74.53 61.06 74.53 61.06"/><path class="cls-13" d="M74.48,61.11l0,0V61Z"/><g class="cls-117"><path class="cls-118" d="M71.23,48.72a4.34,4.34,0,0,0-2.81-2,2.84,2.84,0,0,0-.44-.06c-.08,0-.11,0-.13,0-.15-.2-.17-.52-.29-.72a2.43,2.43,0,0,0-1.22-1c-.47-.21-.78-.18-1.15-.58s-.56-.93-1.1-1.2A3.62,3.62,0,0,0,61.42,43a4.36,4.36,0,0,0-4.32-1.36,3.54,3.54,0,0,0-2.16-1.79,2.9,2.9,0,0,0-2.33.49,4.18,4.18,0,0,0-3.17-1.53c-.48,0-.5.05-.8-.28a2.4,2.4,0,0,0-.92-.76,2,2,0,0,0-2.09.26c-.89.79-.33,2.34.78,1.87.57-.23.71,0,1.1.51a1.5,1.5,0,0,0,1.46.66,2.46,2.46,0,0,1,2.66,1.41c.42.75,1.18.52,1.65,0,.9-1,1.85-.56,2.31.67a1,1,0,0,0,1.21.69c1.18-.34,2.53-.74,3.35.62.29.46.63.84,1.16.65.81-.28,1.67-.67,2.32.11a4.82,4.82,0,0,0,2.08,1.48c.35.15.38.26.57.67a2,2,0,0,0,.9,1.08c.45.19.95.14,1.41.29a3.08,3.08,0,0,1,1.2,1C70.47,50.48,71.86,49.88,71.23,48.72Z"/><path class="cls-119" d="M76.5,53.78a5.21,5.21,0,0,0-.2-.53c0-.13,0,0,0-.11s0-.11,0-.25A2.43,2.43,0,0,0,76,51.64a2.7,2.7,0,0,0-.62-.69,1.78,1.78,0,0,0-.83-.3.77.77,0,0,0-.62.28,1.06,1.06,0,0,0-.25.69,1.08,1.08,0,0,0,.23.67.75.75,0,0,0,.18.16.63.63,0,0,0,.24.11l.11,0s0,0,0,0l0,0a.07.07,0,0,1,0,.06s0,0,0,0,0,.12,0,.26a1.87,1.87,0,0,0,.05.6,3.74,3.74,0,0,0,.25.68v0c0,.48.17.9.62,1a.86.86,0,0,0,1-.67A1.93,1.93,0,0,0,76.5,53.78Z"/></g></g></g></svg>