<?xml version="1.0" encoding="UTF-8"?>
<svg id="Calque_2" data-name="Calque 2" xmlns="http://www.w3.org/2000/svg" viewBox="0 0 350.95 168.26">
  <defs>
    <style>
      .cls-1 {
        fill: #479e7b;
      }

      .cls-2 {
        fill: #64b595;
      }

      .cls-3 {
        fill: #fff;
      }

      .cls-4 {
        fill: #fbd155;
      }

      .cls-5 {
        fill: #ff7954;
      }

      .cls-6 {
        fill: #77d0ac;
      }

      .cls-7 {
        fill: #f05142;
      }

      .cls-8 {
        fill: #f2ebe3;
      }

      .cls-9 {
        fill: #e6d3c1;
      }

      .cls-10 {
        fill: #fd9a8c;
      }

      .cls-11 {
        fill: #76caa8;
      }

      .cls-12 {
        fill: #75c6a3;
      }

      .cls-13 {
        fill: #fdb228;
      }

      .cls-14 {
        fill: #e0d3bd;
      }
    </style>
  </defs>
  <g id="Layer_1" data-name="Layer 1">
    <g id="pasta_2" data-name="pasta 2">
      <path class="cls-8" d="m350.66,126.68c-5.5,33.03-88.25,46.76-184.81,30.65C69.29,141.23-4.52,101.4.98,68.37c2.01-12.07,14.33-21.56,33.86-27.96,33.93-11.12,89.66-12.92,150.95-2.7,65.36,10.9,120.28,32.67,147.26,55.84,12.89,11.06,19.39,22.45,17.6,33.13Z"/>
      <path class="cls-9" d="m166.06,157.37C70.48,141.44-2.8,102.25,1.07,69.42c-.34,1.03-.6,2.07-.78,3.14-5.51,33.03,68.3,72.86,164.86,88.96,96.56,16.1,179.3,2.37,184.81-30.66.06-.34.09-.67.13-1.01-10.09,30.75-90.59,43.1-184.03,27.52Z"/>
      <path class="cls-3" d="m256.13,74.37s47.68,18.27,52.56,40.58c4.88,22.31,28.16,21.89,16.59-6.69-11.57-28.58-101.08-58.98-69.15-33.88Z"/>
      <path class="cls-3" d="m101.15,119.74s-47.34-19.13-51.82-41.52c-4.47-22.39-27.76-22.4-16.71,6.39,11.05,28.79,99.99,60.81,68.53,35.13Z"/>
      <path class="cls-9" d="m331.62,102.14c-7.17,37.05-78.7,55.96-160.64,42.29C88.46,130.65,26.64,89.03,32.91,51.45c.13-.76.28-1.51.47-2.26,33.77-10.15,89.39-11.32,150.68-1.1,65.36,10.9,120.4,31.94,147.56,54.04Z"/>
      <path class="cls-14" d="m216.4,133.29c-13.5.97-29.54.04-46.09-2.72-19.98-3.33-38.39-8.94-51.82-15.79-14.34-7.31-21.28-15.07-20.05-22.42,1.22-7.35,10.3-12.43,26.24-14.7,14.92-2.12,34.16-1.46,54.14,1.88,19.98,3.33,38.39,8.94,51.82,15.79,14.34,7.31,21.28,15.07,20.05,22.42h0c-1.23,7.35-10.3,12.43-26.24,14.7-2.56.36-5.25.65-8.05.85Zm-83.35-52.25c-2.71.19-5.3.47-7.78.82-13.33,1.9-21.8,6.08-22.65,11.2-.85,5.12,5.8,11.82,17.79,17.94,13.06,6.66,31.02,12.12,50.59,15.39,19.57,3.26,38.34,3.92,52.85,1.86,13.33-1.9,21.8-6.08,22.65-11.2h0c.85-5.12-5.8-11.82-17.8-17.94-13.06-6.66-31.02-12.12-50.59-15.39-16.23-2.71-31.91-3.62-45.07-2.68Z"/>
      <path class="cls-13" d="m286.59,114.12h0c-.49.28-.98.56-1.48.83-15.17,8.28-37.87,14.69-62.83,16.94-3.17.3-6.37.51-9.61.65-.99.05-1.99.09-2.98.11-2.18.08-4.37.11-6.57.11-8.73,0-17.56-.53-26.3-1.7-14.95-2-29.55-5.85-43.15-10.86-1.57-.58-3.14-1.17-4.67-1.78-20.28-8-38.08-18.51-51.17-29.19-1.06-.87-2.08-1.73-3.08-2.58-1.6-1.4-3.12-2.8-4.56-4.18-1.03-1-2.01-1.99-2.95-2.98-9.24-9.76-13.91-19.06-12.23-26.07,2.16-9,14.95-15.04,33.05-22.96,1.07-.47,2.16-.95,3.26-1.43.3-.13.59-.26.88-.38,6.23-2.66,9.61-3.5,16.61-5.6,1.75-.53,3.74-1.13,6.05-1.86,4.72-1.5,10.82-3.54,19.16-6.52,1.27-.45,2.43-.87,3.51-1.26,2.31-.83,4.2-1.53,5.84-2.12,5.5-2.01,7.97-2.84,12.44-3.73,1.03-.2,3.15-.6,6.49-.92,5.72-.55,15.03-.85,28.5.49,5.57.55,10.3,1.02,14.45,1.53,2.16.26,4.15.54,6.04.85,6.44,1.02,11.54,2.38,16.83,4.74,9.69,4.31,15.02,9.63,23.68,19.5,1.17,1.34,2.4,2.77,3.72,4.27,1.82,2.11,3.81,4.4,5.99,6.88,7.77,8.84,14.2,15.78,19.53,21.31.85.88,1.67,1.72,2.45,2.52,17.26,17.72,21.41,19.41,20.84,25.4-.66,7.02-7.21,13.97-17.72,19.99Z"/>
      <path class="cls-4" d="m303.38,84.21c-1.02,1.08-2.06,2.15-3.11,3.22-1.06,1.04-2.14,2.07-3.23,3.09-2.18,2.04-4.41,4.03-6.67,5.97-4.59,3.83-9.36,7.45-14.34,10.79-2.48,1.67-4.99,3.33-7.59,4.81-2.59,1.5-5.15,3.07-7.82,4.44-1.32.72-2.66,1.39-3.99,2.09l-4.06,1.94c-2.69,1.33-5.46,2.48-8.22,3.67-11.1,4.58-22.65,8.03-34.39,10.37-5.87,1.18-11.8,2-17.75,2.61-2.98.26-5.96.44-8.93.6l-4.47.16h-4.47s0-.01,0-.01c-.07,0-.13-.06-.13-.13,0-.07.05-.13.12-.13,11.84-.76,23.61-2.5,35.17-5.12,1.45-.31,2.88-.7,4.32-1.05,1.44-.35,2.88-.71,4.3-1.12l4.28-1.2,4.24-1.32,2.12-.66,2.1-.73,4.2-1.46,4.15-1.59c1.38-.54,2.77-1.05,4.13-1.65,10.96-4.52,21.53-9.97,31.58-16.27,10.03-6.33,19.5-13.54,28.29-21.49.05-.05.14-.04.19,0,.05.05.05.13,0,.18h0Z"/>
      <path class="cls-4" d="m187.82,137.24l8.8-1.38c2.92-.5,5.83-1.03,8.72-1.64,1.45-.26,2.89-.58,4.34-.88,1.44-.29,2.89-.6,4.32-.95,1.43-.35,2.87-.64,4.3-.99l4.28-1.07c5.67-1.57,11.35-3.06,16.89-5.01,2.8-.87,5.54-1.92,8.31-2.88,2.73-1.08,5.48-2.08,8.17-3.25,2.7-1.13,5.42-2.22,8.07-3.48l3.99-1.84c1.31-.66,2.61-1.33,3.93-1.96,2.66-1.24,5.21-2.68,7.81-4.06,2.59-1.38,5.13-2.85,7.67-4.33,5.05-3,10.03-6.16,14.89-9.51,2.45-1.64,4.88-3.34,7.26-5.09l3.56-2.66c1.2-.88,2.38-1.77,3.57-2.68h0c.06-.06.15-.04.2.02.05.06.04.14-.02.19-8.78,8-18.24,15.26-28.26,21.64-10.04,6.35-20.62,11.86-31.59,16.43-1.36.6-2.76,1.11-4.14,1.64l-4.17,1.58-4.21,1.45-2.11.72-2.13.66-4.26,1.31-4.3,1.18c-1.43.41-2.87.76-4.31,1.11-1.45.34-2.88.72-4.33,1.03-11.6,2.58-23.39,4.27-35.24,4.99-.08,0-.15-.06-.15-.13,0-.07.05-.14.12-.15h.01Z"/>
      <path class="cls-4" d="m299.17,77.24c-.99,1.06-1.99,2.12-3,3.16-1.03,1.03-2.07,2.04-3.12,3.04-2.11,2.01-4.26,3.97-6.45,5.89-4.44,3.78-9.06,7.36-13.89,10.66-2.41,1.66-4.83,3.29-7.36,4.77-2.52,1.48-5,3.05-7.59,4.41-1.28.71-2.58,1.38-3.87,2.07-1.3.67-2.63,1.28-3.94,1.93-2.62,1.31-5.3,2.48-7.99,3.65-10.78,4.58-22.03,8.03-33.47,10.4-5.72,1.19-11.5,2.03-17.3,2.65-2.9.27-5.81.46-8.71.63l-4.36.17h-4.36s0,0,0,0c-.07,0-.13-.06-.13-.13,0-.07.05-.12.12-.13,11.55-.79,23.02-2.55,34.28-5.18,1.41-.32,2.8-.7,4.21-1.05,1.4-.35,2.8-.71,4.19-1.13l4.17-1.2,4.13-1.32c1.38-.43,2.75-.9,4.11-1.39l4.08-1.46,4.03-1.59c1.35-.53,2.69-1.05,4.01-1.65,10.65-4.5,20.91-9.92,30.65-16.16,9.72-6.27,18.89-13.39,27.4-21.23.05-.05.13-.05.18,0,.05.05.05.13,0,.18h0Z"/>
      <path class="cls-4" d="m288.58,71.01c-1.15,1.16-2.31,2.3-3.49,3.44-1.2,1.11-2.41,2.21-3.63,3.3-2.45,2.17-4.94,4.29-7.48,6.36-5.16,4.04-10.53,7.82-16.04,11.39-2.76,1.78-5.54,3.53-8.45,5.07-2.87,1.6-5.74,3.21-8.7,4.65-1.47.75-2.94,1.47-4.43,2.18l-4.5,2.01c-2.98,1.39-6.06,2.56-9.1,3.8-12.29,4.68-25.01,8.28-37.94,10.54-6.47,1.13-12.97,1.97-19.49,2.57-3.27.25-6.54.4-9.8.53l-4.9.12-4.9-.06h0c-.08,0-.14-.07-.14-.15,0-.08.06-.14.14-.14,12.99-.71,25.92-2.41,38.65-5.06,6.35-1.37,12.68-2.88,18.9-4.77,3.13-.87,6.2-1.94,9.3-2.93,1.54-.51,3.06-1.09,4.59-1.64,1.52-.57,3.07-1.07,4.57-1.7,12.13-4.67,23.87-10.36,35.06-16.97,11.17-6.66,21.76-14.29,31.61-22.78.06-.05.15-.05.2.01.05.06.05.14,0,.19h0Z"/>
      <path class="cls-4" d="m211.59,133.94c-1.63-.05-3.26-.12-4.9-.2-1.63-.11-3.26-.25-4.89-.4-3.26-.3-6.51-.68-9.76-1.13-6.47-1.01-12.9-2.35-19.27-3.95-3.18-.81-6.37-1.64-9.48-2.71-3.13-1.01-6.27-2-9.34-3.18-1.55-.56-3.08-1.15-4.61-1.75l-4.55-1.92c-3.05-1.23-6-2.69-9-4.06-11.81-5.79-23.12-12.62-33.6-20.53-5.24-3.95-10.29-8.14-15.18-12.48-2.41-2.22-4.75-4.5-7.08-6.8l-3.43-3.5-3.3-3.62h0c-.05-.07-.05-.16,0-.21.06-.05.14-.05.2,0,9.38,9.01,19.45,17.3,30.08,24.79,5.34,3.71,10.76,7.3,16.39,10.56,2.77,1.7,5.65,3.21,8.49,4.79,1.42.78,2.89,1.49,4.33,2.24,1.46.72,2.88,1.51,4.36,2.18,11.69,5.68,23.86,10.37,36.33,14.04,12.49,3.62,25.29,6.14,38.22,7.54.08,0,.14.08.13.16,0,.08-.07.13-.15.13h-.01Z"/>
      <path class="cls-4" d="m203.16,136.12c-1.63-.05-3.26-.12-4.9-.2-1.63-.11-3.26-.25-4.89-.4-3.26-.3-6.51-.68-9.76-1.13-6.47-1.01-12.9-2.35-19.27-3.95-3.18-.81-6.37-1.64-9.48-2.71-3.13-1.01-6.27-2-9.34-3.18-1.55-.56-3.08-1.15-4.61-1.75l-4.55-1.92c-3.05-1.23-6-2.69-9-4.06-11.81-5.79-23.12-12.62-33.6-20.53-5.24-3.95-10.29-8.14-15.18-12.48-2.41-2.22-4.75-4.5-7.08-6.8l-3.43-3.5-3.3-3.62h0c-.05-.07-.05-.16,0-.21.06-.05.14-.05.2,0,9.38,9.01,19.45,17.3,30.08,24.79,5.34,3.71,10.76,7.3,16.39,10.56,2.77,1.7,5.65,3.21,8.49,4.79,1.42.78,2.89,1.49,4.33,2.24,1.46.72,2.88,1.51,4.36,2.18,11.69,5.68,23.86,10.37,36.33,14.04,12.49,3.62,25.29,6.14,38.22,7.54.08,0,.14.08.13.16,0,.08-.07.13-.15.13h-.01Z"/>
      <path class="cls-4" d="m220.45,129.15c-1.63-.05-3.26-.12-4.9-.2-1.63-.11-3.26-.25-4.89-.4-3.26-.3-6.51-.68-9.76-1.13-6.47-1.01-12.9-2.35-19.27-3.95-3.18-.81-6.37-1.64-9.48-2.71-3.13-1.01-6.27-2-9.34-3.18-1.55-.56-3.08-1.15-4.61-1.75l-4.55-1.92c-3.05-1.23-6-2.69-9-4.06-11.81-5.79-23.12-12.62-33.6-20.53-5.24-3.95-10.29-8.14-15.18-12.48-2.41-2.22-4.75-4.5-7.08-6.8l-3.43-3.5-3.3-3.62h0c-.05-.07-.05-.16,0-.21.06-.05.14-.05.2,0,9.38,9.01,19.45,17.3,30.08,24.79,5.34,3.71,10.76,7.3,16.39,10.56,2.77,1.7,5.65,3.21,8.49,4.79,1.42.78,2.89,1.49,4.33,2.24,1.46.72,2.88,1.51,4.36,2.18,11.69,5.68,23.86,10.37,36.33,14.04,12.49,3.62,25.29,6.14,38.22,7.54.08,0,.14.08.13.16,0,.07-.07.13-.15.13h-.01Z"/>
      <path class="cls-4" d="m230.18,124.51c-1.63-.05-3.26-.12-4.9-.2-1.63-.11-3.26-.25-4.89-.4-3.26-.3-6.51-.68-9.76-1.13-6.47-1.01-12.9-2.35-19.27-3.95-3.18-.81-6.37-1.64-9.48-2.71-3.13-1.01-6.27-2-9.34-3.18-1.55-.56-3.08-1.15-4.61-1.75l-4.55-1.92c-3.05-1.23-6-2.69-9-4.06-11.81-5.79-23.12-12.62-33.6-20.53-5.24-3.95-10.29-8.14-15.18-12.48-2.41-2.22-4.75-4.5-7.08-6.8l-3.43-3.5-3.3-3.62h0c-.05-.07-.05-.16,0-.21.06-.05.14-.05.2,0,9.38,9.01,19.45,17.3,30.08,24.79,5.34,3.71,10.76,7.3,16.39,10.56,2.77,1.7,5.65,3.21,8.49,4.79,1.42.78,2.89,1.49,4.33,2.24,1.46.72,2.88,1.51,4.36,2.18,11.69,5.68,23.86,10.37,36.33,14.04,12.49,3.62,25.29,6.14,38.22,7.54.08,0,.14.08.13.16,0,.08-.07.13-.15.13h-.01Z"/>
      <path class="cls-4" d="m233.23,122.33c-1.63-.05-3.26-.12-4.9-.2-1.63-.11-3.26-.25-4.89-.4-3.26-.3-6.51-.68-9.76-1.13-6.47-1.01-12.9-2.35-19.27-3.95-3.18-.81-6.37-1.64-9.48-2.71-3.13-1.01-6.27-2-9.34-3.18-1.55-.56-3.08-1.15-4.61-1.75l-4.55-1.92c-3.05-1.23-6-2.69-9-4.06-11.81-5.79-23.12-12.62-33.6-20.53-5.24-3.95-10.29-8.14-15.18-12.48-2.41-2.22-4.75-4.5-7.08-6.8l-3.43-3.5-3.3-3.62h0c-.05-.07-.05-.16,0-.21.06-.05.14-.05.2,0,9.38,9.01,19.45,17.3,30.08,24.79,5.34,3.71,10.76,7.3,16.39,10.56,2.77,1.7,5.65,3.21,8.49,4.79,1.42.78,2.89,1.49,4.33,2.24,1.46.72,2.88,1.51,4.36,2.18,11.69,5.68,23.86,10.37,36.33,14.04,12.49,3.62,25.29,6.14,38.22,7.54.08,0,.14.08.13.16,0,.08-.07.13-.15.13h-.01Z"/>
      <path class="cls-4" d="m237.73,116.81c-1.63-.05-3.26-.12-4.9-.2-1.63-.11-3.26-.25-4.89-.4-3.26-.3-6.51-.68-9.76-1.13-6.47-1.01-12.9-2.35-19.27-3.95-3.18-.81-6.37-1.64-9.48-2.71-3.13-1.01-6.27-2-9.34-3.18-1.55-.56-3.08-1.15-4.61-1.75l-4.55-1.92c-3.05-1.23-6-2.69-9-4.06-11.81-5.79-23.12-12.62-33.6-20.53-5.24-3.95-10.29-8.14-15.18-12.48-2.41-2.22-4.75-4.5-7.08-6.8l-3.43-3.5-3.3-3.62h0c-.05-.07-.05-.16,0-.21.06-.05.14-.05.2,0,9.38,9.01,19.45,17.3,30.08,24.79,5.34,3.71,10.76,7.3,16.39,10.56,2.77,1.7,5.65,3.21,8.49,4.79,1.42.78,2.89,1.49,4.33,2.24,1.46.72,2.88,1.51,4.36,2.18,11.69,5.68,23.86,10.37,36.33,14.04,12.49,3.62,25.29,6.14,38.22,7.54.08,0,.14.08.13.16,0,.08-.07.13-.15.13h-.01Z"/>
      <path class="cls-4" d="m248.19,113.18c-1.63-.05-3.26-.12-4.9-.2-1.63-.11-3.26-.25-4.89-.4-3.26-.3-6.51-.68-9.76-1.13-6.47-1.01-12.9-2.35-19.27-3.95-3.18-.81-6.37-1.64-9.48-2.71-3.13-1.01-6.27-2-9.34-3.18-1.55-.56-3.08-1.15-4.61-1.75l-4.55-1.92c-3.05-1.23-6-2.69-9-4.06-11.81-5.79-23.12-12.62-33.6-20.53-5.24-3.95-10.29-8.14-15.18-12.48-2.41-2.22-4.75-4.5-7.08-6.8l-3.43-3.5-3.3-3.62h0c-.05-.07-.05-.16,0-.21.06-.05.14-.05.2,0,9.38,9.01,19.45,17.3,30.08,24.79,5.34,3.71,10.76,7.3,16.39,10.56,2.77,1.7,5.65,3.21,8.49,4.79,1.42.78,2.89,1.49,4.33,2.24,1.46.72,2.88,1.51,4.36,2.18,11.69,5.68,23.86,10.37,36.33,14.04,12.49,3.62,25.29,6.14,38.22,7.54.08,0,.14.08.13.16,0,.08-.07.13-.15.13h-.01Z"/>
      <path class="cls-4" d="m257.77,109.41c-1.63-.05-3.26-.12-4.9-.2-1.63-.11-3.26-.25-4.89-.4-3.26-.3-6.51-.68-9.76-1.13-6.47-1.01-12.9-2.35-19.27-3.95-3.18-.81-6.37-1.64-9.48-2.71-3.13-1.01-6.27-2-9.34-3.18-1.55-.56-3.08-1.15-4.61-1.75l-4.55-1.92c-3.05-1.23-6-2.69-9-4.06-11.81-5.79-23.12-12.62-33.6-20.53-5.24-3.95-10.29-8.14-15.18-12.48-2.41-2.22-4.75-4.5-7.08-6.8l-3.43-3.5-3.3-3.62h0c-.05-.07-.05-.16,0-.21.06-.05.14-.05.2,0,9.38,9.01,19.45,17.3,30.08,24.79,5.34,3.71,10.76,7.3,16.39,10.56,2.77,1.7,5.65,3.21,8.49,4.79,1.42.78,2.89,1.49,4.33,2.24,1.46.72,2.88,1.51,4.36,2.18,11.69,5.68,23.86,10.37,36.33,14.04,12.49,3.62,25.29,6.14,38.22,7.54.08,0,.14.08.13.16,0,.08-.07.13-.15.13h-.01Z"/>
      <path class="cls-4" d="m295.55,72.17c-1.11,1.19-2.23,2.38-3.37,3.55-1.16,1.15-2.33,2.29-3.51,3.41-2.37,2.25-4.79,4.45-7.25,6.6-5.01,4.2-10.23,8.17-15.61,11.92-2.69,1.87-5.41,3.72-8.25,5.36-2.83,1.66-5.61,3.42-8.52,4.94-1.44.79-2.9,1.55-4.35,2.32-1.46.74-2.95,1.44-4.43,2.16-2.94,1.47-5.96,2.77-8.97,4.09-12.11,5.11-24.73,9.01-37.58,11.6-6.43,1.26-12.91,2.26-19.41,2.99-1.63.13-3.26.29-4.89.4l-4.89.3-4.89.19h-4.89s0,0,0,0c-.08,0-.15-.06-.15-.15,0-.08.06-.14.14-.15,12.96-.88,25.83-2.85,38.48-5.79,1.58-.36,3.15-.79,4.72-1.18,1.58-.39,3.15-.8,4.7-1.26l4.68-1.34,4.64-1.48,2.32-.74,2.29-.82,4.59-1.63,4.53-1.78c1.51-.59,3.02-1.18,4.5-1.85,11.96-5.04,23.48-11.11,34.42-18.1,10.92-7.02,21.22-15,30.78-23.79.06-.05.15-.05.21,0,.05.06.05.14,0,.2h0Z"/>
      <path class="cls-4" d="m52.89,62.41c6.37-9.99,15.49-18.35,26.23-23.95,2.68-1.42,5.49-2.61,8.37-3.6,2.87-1.01,5.84-1.78,8.84-2.36,3-.6,6.06-.85,9.12-.97l8.75-.21c5.72-.3,11.39-1.09,17.02-2.29,5.64-1.14,11.18-2.87,16.86-4.47,5.65-1.64,11.47-3.21,17.47-3.82,6-.53,12.09-.15,17.77,1.55h.01c.08.03.12.11.1.18-.02.07-.09.11-.17.1-5.76-1.14-11.7-1.24-17.49-.33-5.8.88-11.42,2.67-17.01,4.47-5.59,1.82-11.19,3.64-16.94,4.95-5.74,1.33-11.59,2.17-17.48,2.53l-8.82.14c-2.92.08-5.85.32-8.73.84-5.78.95-11.39,2.81-16.68,5.32-5.28,2.54-10.24,5.74-14.77,9.46-4.52,3.73-8.72,7.9-12.21,12.61-.05.06-.14.08-.2.03-.06-.05-.07-.13-.03-.19Z"/>
      <path class="cls-4" d="m60.73,63.72c6.37-9.99,15.49-18.35,26.23-23.95,2.68-1.42,5.49-2.61,8.37-3.6,2.87-1.01,5.84-1.78,8.84-2.36,3-.6,6.06-.85,9.12-.97l8.75-.21c5.72-.3,11.39-1.09,17.02-2.29,5.64-1.14,11.18-2.87,16.86-4.47,5.65-1.64,11.47-3.21,17.47-3.82,6-.53,12.09-.15,17.77,1.55h.01c.08.03.12.11.1.18-.02.07-.09.11-.17.1-5.76-1.14-11.7-1.24-17.49-.33-5.8.88-11.42,2.67-17.01,4.47-5.59,1.82-11.19,3.64-16.94,4.95-5.74,1.33-11.59,2.17-17.48,2.53l-8.82.14c-2.92.08-5.85.32-8.73.84-5.78.95-11.39,2.81-16.68,5.32-5.28,2.54-10.24,5.74-14.77,9.46-4.52,3.73-8.72,7.9-12.21,12.61-.05.06-.14.08-.2.03-.06-.05-.08-.13-.04-.19Z"/>
      <path class="cls-4" d="m56.09,53.99c6.37-9.99,15.49-18.35,26.23-23.95,2.68-1.42,5.49-2.61,8.37-3.6,2.87-1.01,5.84-1.78,8.84-2.36,3-.6,6.06-.85,9.12-.97l8.75-.21c5.72-.3,11.39-1.09,17.02-2.29,5.64-1.14,11.18-2.87,16.86-4.47,5.65-1.64,11.47-3.21,17.47-3.82,6-.53,12.09-.15,17.77,1.55h.01c.08.03.12.11.1.18-.02.07-.09.11-.17.1-5.76-1.14-11.7-1.24-17.49-.33-5.8.88-11.42,2.67-17.01,4.47-5.59,1.82-11.19,3.64-16.94,4.95-5.74,1.33-11.59,2.17-17.48,2.53l-8.82.14c-2.92.08-5.85.32-8.73.84-5.78.95-11.39,2.81-16.68,5.32-5.28,2.54-10.24,5.74-14.77,9.46-4.52,3.73-8.72,7.9-12.21,12.61-.05.06-.14.08-.2.03-.06-.05-.07-.13-.03-.19Z"/>
      <path class="cls-4" d="m55.07,60.09c6.37-9.99,15.49-18.35,26.23-23.95,2.68-1.42,5.49-2.61,8.37-3.6,2.87-1.01,5.84-1.78,8.84-2.36,3-.6,6.06-.85,9.12-.97l8.75-.21c5.72-.3,11.39-1.09,17.02-2.29,5.64-1.14,11.18-2.87,16.86-4.47,5.65-1.64,11.47-3.21,17.47-3.82,6-.53,12.09-.15,17.77,1.55h.01c.08.03.12.11.1.18-.02.07-.09.11-.17.1-5.76-1.14-11.7-1.24-17.49-.33-5.8.88-11.42,2.67-17.01,4.47-5.59,1.82-11.19,3.64-16.94,4.95-5.74,1.33-11.59,2.17-17.48,2.53l-8.82.14c-2.92.08-5.85.32-8.73.84-5.78.95-11.39,2.81-16.68,5.32-5.28,2.54-10.24,5.74-14.77,9.46-4.52,3.73-8.72,7.9-12.21,12.61-.05.06-.14.08-.2.03-.06-.05-.07-.13-.03-.19Z"/>
      <path class="cls-4" d="m60.74,47.6c6.37-9.99,15.49-18.35,26.23-23.95,2.68-1.42,5.49-2.61,8.37-3.6,2.87-1.01,5.84-1.78,8.84-2.36,3-.6,6.06-.85,9.12-.97l8.75-.21c5.72-.3,11.39-1.09,17.02-2.29,5.64-1.14,11.18-2.87,16.86-4.47,5.65-1.64,11.47-3.21,17.47-3.82,6-.53,12.09-.15,17.77,1.55h.01c.08.03.12.11.1.18-.02.07-.09.11-.17.1-5.76-1.14-11.7-1.24-17.49-.33-5.8.88-11.42,2.67-17.01,4.47-5.59,1.82-11.19,3.64-16.94,4.95-5.74,1.33-11.59,2.17-17.48,2.53l-8.82.14c-2.92.08-5.85.32-8.73.84-5.78.95-11.39,2.81-16.68,5.32-5.28,2.54-10.24,5.74-14.77,9.46-4.52,3.73-8.72,7.9-12.21,12.61-.05.06-.14.08-.2.03-.06-.05-.08-.13-.03-.19Z"/>
      <path class="cls-4" d="m66.69,65.61c6.37-9.99,15.49-18.35,26.23-23.95,2.68-1.42,5.49-2.61,8.37-3.6,2.87-1.01,5.84-1.78,8.84-2.36,3-.6,6.06-.85,9.12-.97l8.75-.21c5.72-.3,11.39-1.09,17.02-2.29,5.64-1.14,11.18-2.87,16.86-4.47,5.65-1.64,11.47-3.21,17.47-3.82,6-.53,12.09-.15,17.77,1.55h.01c.08.03.12.11.1.18-.02.07-.09.11-.17.1-5.76-1.14-11.7-1.24-17.49-.33-5.8.88-11.42,2.67-17.01,4.47-5.59,1.82-11.19,3.64-16.94,4.95-5.74,1.33-11.59,2.17-17.48,2.53l-8.82.14c-2.92.08-5.85.32-8.73.84-5.78.95-11.39,2.81-16.68,5.32-5.28,2.54-10.24,5.74-14.77,9.46-4.52,3.73-8.72,7.9-12.21,12.61-.05.06-.14.08-.2.03-.06-.05-.07-.13-.03-.19Z"/>
      <path class="cls-4" d="m59.43,71.56c6.37-9.99,15.49-18.35,26.23-23.95,2.68-1.42,5.49-2.61,8.37-3.6,2.87-1.01,5.84-1.78,8.84-2.36,3-.6,6.06-.85,9.12-.97l8.75-.21c5.72-.3,11.39-1.09,17.02-2.29,5.64-1.14,11.18-2.87,16.86-4.47,5.65-1.64,11.47-3.21,17.47-3.82,6-.53,12.09-.15,17.77,1.55h.01c.08.03.12.11.1.18-.02.07-.09.11-.17.1-5.76-1.14-11.7-1.24-17.49-.33-5.8.88-11.42,2.67-17.01,4.47-5.59,1.82-11.19,3.64-16.94,4.95-5.74,1.33-11.59,2.17-17.48,2.53l-8.82.14c-2.92.08-5.85.32-8.73.84-5.78.95-11.39,2.81-16.68,5.32-5.28,2.54-10.24,5.74-14.77,9.46-4.52,3.73-8.72,7.9-12.21,12.61-.05.06-.14.08-.2.03-.06-.05-.07-.13-.04-.19Z"/>
      <path class="cls-4" d="m61.6,74.61c6.37-9.99,15.49-18.35,26.23-23.95,2.68-1.42,5.49-2.61,8.37-3.6,2.87-1.01,5.84-1.78,8.84-2.36,3-.6,6.06-.85,9.12-.97l8.75-.21c5.72-.3,11.39-1.09,17.02-2.29,5.64-1.14,11.18-2.87,16.86-4.47,5.65-1.64,11.47-3.21,17.47-3.82,6-.53,12.09-.15,17.77,1.55h.01c.08.03.12.11.1.18-.02.07-.09.11-.17.1-5.76-1.14-11.7-1.24-17.49-.33-5.8.88-11.42,2.67-17.01,4.47-5.59,1.82-11.19,3.64-16.94,4.95-5.74,1.33-11.59,2.17-17.48,2.53l-8.82.14c-2.92.08-5.85.32-8.73.84-5.78.95-11.39,2.81-16.68,5.32-5.28,2.54-10.24,5.74-14.77,9.46-4.52,3.73-8.72,7.9-12.21,12.61-.05.06-.14.08-.2.03-.06-.05-.07-.13-.03-.19Z"/>
      <path class="cls-4" d="m64.36,79.55c6.37-9.99,15.49-18.35,26.23-23.95,2.68-1.42,5.49-2.61,8.37-3.6,2.87-1.01,5.84-1.78,8.84-2.36,3-.6,6.06-.85,9.12-.97l8.75-.21c5.72-.3,11.39-1.09,17.02-2.29,5.64-1.14,11.18-2.87,16.86-4.47,5.65-1.64,11.47-3.21,17.47-3.82,6-.53,12.09-.15,17.77,1.55h.01c.08.03.12.11.1.18-.02.07-.09.11-.17.1-5.76-1.14-11.7-1.24-17.49-.33-5.8.88-11.42,2.67-17.01,4.47-5.59,1.82-11.19,3.64-16.94,4.95-5.74,1.33-11.59,2.17-17.48,2.53l-8.82.14c-2.92.08-5.85.32-8.73.84-5.78.95-11.39,2.81-16.68,5.32-5.28,2.54-10.24,5.74-14.77,9.46-4.52,3.73-8.72,7.9-12.21,12.61-.05.06-.14.08-.2.03-.06-.05-.08-.13-.04-.19Z"/>
      <path class="cls-4" d="m133.26,38.14c11.64,6.84,23.44,13.41,35.48,19.46,11.97,6.18,24.17,11.92,36.6,16.99,3.13,1.22,6.24,2.48,9.37,3.67,3.15,1.15,6.28,2.35,9.44,3.46,3.18,1.02,6.35,2.11,9.55,3.08,3.23.88,6.41,1.8,9.67,2.65,6.58,1.67,13.14,3.39,19.68,5.58,1.63.55,3.27,1.14,4.9,1.81.82.34,1.64.7,2.47,1.11.83.42,1.67.87,2.58,1.55.46.37.95.74,1.5,1.57.13.18.27.49.38.77.11.34.2.68.21,1.13.04.86-.35,1.74-.77,2.23-.82.95-1.5,1.2-2.06,1.46-.57.24-1.08.39-1.57.52-1.97.48-3.68.61-5.57.69h-.16s-.18-.01-.18-.01c-13.08-1.46-26.03-4.07-38.65-7.77-12.59-3.78-24.92-8.49-36.62-14.46-1.48-.7-2.91-1.52-4.36-2.28-1.44-.78-2.91-1.52-4.33-2.34-2.83-1.65-5.71-3.23-8.47-4.99-5.6-3.4-11.02-7.1-16.3-10.96-5.25-3.9-10.31-8.06-15.23-12.34-2.46-2.14-4.87-4.35-7.24-6.58l-3.49-3.42-3.43-3.49c-.06-.06-.06-.15,0-.2.05-.06.15-.06.2,0,9.38,9.02,19.44,17.32,30.06,24.82,5.34,3.71,10.76,7.31,16.38,10.58,2.77,1.7,5.65,3.21,8.49,4.8,1.42.78,2.89,1.49,4.33,2.24,1.45.72,2.88,1.52,4.36,2.18,11.71,5.65,23.9,10.3,36.37,13.94,12.5,3.58,25.3,6.07,38.23,7.43h-.04c1.66-.08,3.35-.24,4.96-.62.77-.2,1.64-.46,2.1-.98.45-.49-.2-1.21-.82-1.67-1.31-.97-2.87-1.66-4.4-2.32-1.55-.65-3.13-1.23-4.72-1.78-6.38-2.18-12.9-3.94-19.43-5.64-13.11-3.35-25.84-8.02-38.26-13.33-12.42-5.33-24.56-11.3-36.45-17.72-11.87-6.45-23.56-13.24-34.91-20.58-.07-.04-.09-.13-.04-.2.04-.06.13-.08.19-.05h0Z"/>
      <path class="cls-4" d="m146.04,25.95c11.64,6.84,23.44,13.41,35.48,19.46,11.97,6.18,24.17,11.92,36.6,16.99,3.13,1.22,6.24,2.48,9.37,3.67,3.15,1.15,6.28,2.35,9.44,3.46,3.18,1.02,6.35,2.11,9.55,3.08,3.23.88,6.41,1.8,9.67,2.65,6.58,1.67,13.14,3.39,19.68,5.58,1.63.55,3.27,1.14,4.9,1.81.82.34,1.64.7,2.47,1.11.83.42,1.67.87,2.58,1.55.46.37.95.74,1.5,1.57.13.18.27.49.38.77.11.34.2.68.21,1.13.04.86-.35,1.74-.77,2.23-.82.95-1.5,1.2-2.06,1.46-.57.24-1.08.39-1.57.52-1.97.48-3.68.61-5.57.69h-.16s-.18-.01-.18-.01c-13.08-1.46-26.03-4.07-38.65-7.77-12.59-3.78-24.92-8.49-36.62-14.46-1.48-.7-2.91-1.52-4.36-2.28-1.44-.78-2.91-1.52-4.33-2.34-2.83-1.65-5.71-3.23-8.47-4.99-5.6-3.4-11.02-7.1-16.3-10.96-5.25-3.9-10.31-8.06-15.23-12.34-2.46-2.14-4.87-4.35-7.24-6.58l-3.49-3.42-3.43-3.49c-.06-.06-.06-.15,0-.2.05-.06.15-.06.2,0,9.38,9.02,19.44,17.32,30.06,24.82,5.34,3.71,10.76,7.31,16.38,10.58,2.77,1.7,5.65,3.21,8.49,4.8,1.42.78,2.89,1.49,4.33,2.24,1.45.72,2.88,1.52,4.36,2.18,11.71,5.65,23.89,10.3,36.37,13.94,12.5,3.58,25.3,6.07,38.23,7.43h-.04c1.66-.08,3.35-.24,4.96-.62.77-.2,1.64-.46,2.1-.98.45-.49-.2-1.21-.82-1.67-1.31-.97-2.87-1.66-4.4-2.32-1.55-.65-3.13-1.23-4.72-1.78-6.38-2.18-12.9-3.94-19.43-5.64-13.11-3.35-25.84-8.02-38.26-13.33-12.42-5.33-24.56-11.3-36.45-17.72-11.87-6.45-23.56-13.24-34.91-20.58-.07-.04-.09-.13-.04-.2.04-.06.13-.08.19-.05h0Z"/>
      <path class="cls-4" d="m154.17,20.14c11.64,6.84,23.44,13.41,35.48,19.46,11.97,6.18,24.17,11.92,36.6,16.99,3.13,1.22,6.24,2.48,9.37,3.67,3.15,1.15,6.28,2.35,9.44,3.46,3.18,1.02,6.35,2.11,9.55,3.08,3.23.88,6.41,1.8,9.67,2.65,6.58,1.67,13.14,3.39,19.68,5.58,1.63.55,3.27,1.14,4.9,1.81.82.34,1.64.7,2.47,1.11.83.42,1.67.87,2.58,1.55.46.37.95.74,1.5,1.57.13.18.27.49.38.77.11.34.2.68.21,1.13.04.86-.35,1.74-.77,2.23-.82.95-1.5,1.2-2.05,1.46-.57.24-1.08.39-1.57.52-1.97.48-3.68.61-5.57.7h-.16s-.18-.01-.18-.01c-13.08-1.46-26.03-4.07-38.65-7.77-12.59-3.78-24.92-8.49-36.62-14.46-1.48-.7-2.91-1.52-4.36-2.28-1.44-.78-2.91-1.52-4.33-2.34-2.83-1.65-5.71-3.23-8.47-4.99-5.6-3.4-11.02-7.1-16.3-10.96-5.25-3.9-10.31-8.06-15.23-12.34-2.46-2.14-4.87-4.35-7.24-6.58l-3.49-3.42-3.43-3.49c-.06-.06-.06-.15,0-.2.05-.06.15-.06.2,0,9.38,9.02,19.44,17.32,30.06,24.82,5.34,3.71,10.76,7.31,16.38,10.58,2.77,1.7,5.65,3.21,8.49,4.8,1.42.78,2.89,1.49,4.33,2.24,1.45.72,2.88,1.52,4.36,2.18,11.71,5.65,23.89,10.3,36.37,13.94,12.5,3.58,25.3,6.07,38.23,7.43h-.04c1.66-.08,3.35-.24,4.96-.62.77-.2,1.64-.46,2.1-.98.45-.49-.2-1.21-.82-1.67-1.31-.97-2.87-1.66-4.4-2.32-1.55-.65-3.13-1.23-4.72-1.78-6.38-2.18-12.9-3.94-19.43-5.64-13.11-3.35-25.84-8.02-38.26-13.33-12.42-5.33-24.56-11.3-36.45-17.72-11.87-6.45-23.56-13.24-34.91-20.58-.07-.04-.09-.13-.04-.2.04-.06.13-.08.19-.05h0Z"/>
      <path class="cls-4" d="m140.81,17.86c9.74,8.63,19.92,16.73,30.72,23.88,10.73,7.23,21.96,13.71,33.68,19.13,11.74,5.36,23.79,10,36.18,13.52,12.4,3.49,25.09,5.9,37.89,7.18h-.35c1.49-.09,3.16-.26,4.47-.57.32-.08.63-.17.84-.26.22-.06.31-.22.04.08-.15.16-.37.63-.35,1.06.01.23.04.37.09.5.02.08.09.19.09.2.09.11-.06-.08-.27-.23-.44-.34-1.08-.72-1.75-1.06-.68-.35-1.4-.67-2.13-.99-1.48-.63-3.02-1.2-4.58-1.75-6.25-2.17-12.75-3.96-19.24-5.68-3.27-.9-6.56-1.88-9.84-2.82-3.25-1.03-6.46-2.17-9.7-3.25-3.2-1.16-6.36-2.41-9.55-3.62-3.15-1.29-6.25-2.68-9.37-4.02-12.4-5.56-24.48-11.74-36.29-18.36-5.86-3.4-11.69-6.84-17.41-10.44-2.88-1.78-5.72-3.61-8.56-5.45-2.82-1.87-5.62-3.77-8.38-5.72-.07-.04-.08-.13-.04-.2.04-.06.13-.08.2-.04,11.35,7.31,23.05,14.08,34.92,20.5,11.89,6.39,24.03,12.34,36.45,17.64,12.42,5.29,25.13,9.92,38.22,13.24,6.54,1.69,13.07,3.44,19.48,5.62,1.6.55,3.19,1.13,4.76,1.78,1.56.67,3.13,1.35,4.53,2.39.34.27.69.56.95.97.13.2.24.45.24.73,0,.28-.11.56-.27.77-.7.75-1.58.94-2.4,1.18-1.68.4-3.37.56-5.08.64h-.02s-.02,0-.02,0c-12.96-1.39-25.79-3.91-38.31-7.52-12.5-3.67-24.7-8.35-36.42-14.04-1.48-.67-2.91-1.47-4.36-2.2-1.44-.75-2.91-1.47-4.33-2.26-2.84-1.6-5.72-3.12-8.49-4.83-5.63-3.28-11.05-6.9-16.39-10.62-10.62-7.53-20.68-15.86-30.05-24.9-.06-.06-.06-.15,0-.2.05-.06.14-.06.2,0h0Z"/>
      <path class="cls-4" d="m128.03,21.15c11.64,6.84,23.44,13.41,35.48,19.46,11.97,6.18,24.17,11.92,36.6,16.99,3.13,1.22,6.24,2.48,9.37,3.67,3.15,1.15,6.28,2.35,9.44,3.46,3.18,1.02,6.35,2.11,9.55,3.08,3.23.88,6.41,1.8,9.67,2.65,6.58,1.67,13.14,3.39,19.68,5.58,1.63.55,3.27,1.14,4.9,1.81.82.34,1.64.7,2.47,1.11.83.42,1.67.87,2.58,1.55.46.37.95.74,1.5,1.57.13.18.27.49.38.77.11.34.2.68.21,1.13.04.86-.35,1.74-.77,2.23-.82.95-1.5,1.2-2.06,1.46-.57.24-1.08.39-1.57.52-1.97.48-3.68.61-5.57.7h-.16s-.18-.01-.18-.01c-13.08-1.46-26.03-4.07-38.65-7.77-12.59-3.78-24.92-8.49-36.62-14.46-1.48-.7-2.91-1.52-4.36-2.28-1.44-.78-2.91-1.52-4.33-2.34-2.83-1.65-5.71-3.23-8.47-4.99-5.6-3.4-11.02-7.1-16.3-10.96-5.25-3.9-10.31-8.06-15.23-12.34-2.46-2.14-4.87-4.35-7.24-6.58l-3.49-3.42-3.43-3.49c-.06-.06-.06-.15,0-.2.05-.06.15-.06.2,0,9.38,9.02,19.44,17.32,30.06,24.82,5.34,3.71,10.76,7.31,16.38,10.58,2.77,1.7,5.65,3.21,8.49,4.8,1.42.78,2.89,1.49,4.33,2.24,1.45.72,2.88,1.52,4.36,2.18,11.71,5.65,23.9,10.3,36.37,13.94,12.5,3.58,25.3,6.07,38.23,7.43h-.04c1.66-.08,3.35-.24,4.96-.62.77-.2,1.64-.46,2.1-.98.45-.49-.2-1.21-.82-1.67-1.31-.97-2.87-1.66-4.4-2.32-1.55-.65-3.13-1.23-4.72-1.78-6.38-2.18-12.9-3.94-19.43-5.64-13.11-3.35-25.84-8.02-38.26-13.33-12.42-5.33-24.56-11.3-36.45-17.72-11.87-6.45-23.56-13.24-34.91-20.58-.07-.04-.09-.13-.04-.2.04-.06.13-.08.19-.05h0Z"/>
      <path class="cls-4" d="m159.4,15.64c11.64,6.84,23.44,13.41,35.48,19.46,11.97,6.18,24.17,11.92,36.6,16.99,3.13,1.22,6.24,2.48,9.37,3.67,3.15,1.15,6.28,2.35,9.44,3.46,3.18,1.02,6.35,2.11,9.55,3.08,3.23.88,6.41,1.8,9.67,2.65,6.58,1.67,13.14,3.39,19.68,5.58,1.63.55,3.27,1.14,4.9,1.81.82.34,1.64.7,2.47,1.11.83.42,1.67.87,2.58,1.55.46.37.95.74,1.5,1.57.13.18.27.49.38.77.11.34.2.68.21,1.13.04.86-.35,1.74-.77,2.23-.82.95-1.5,1.2-2.05,1.46-.57.24-1.08.39-1.57.52-1.97.48-3.68.61-5.57.7h-.16s-.18-.01-.18-.01c-13.08-1.46-26.03-4.07-38.65-7.77-12.59-3.78-24.92-8.49-36.62-14.46-1.48-.7-2.91-1.52-4.36-2.28-1.44-.78-2.91-1.52-4.33-2.34-2.83-1.65-5.71-3.23-8.47-4.99-5.6-3.4-11.02-7.1-16.3-10.96-5.25-3.9-10.31-8.06-15.23-12.34-2.46-2.14-4.87-4.35-7.24-6.58l-3.49-3.42-3.43-3.49c-.06-.06-.06-.15,0-.2.05-.06.15-.06.2,0,9.38,9.02,19.44,17.32,30.06,24.82,5.34,3.71,10.76,7.31,16.38,10.58,2.77,1.7,5.65,3.21,8.49,4.8,1.42.78,2.89,1.49,4.33,2.24,1.45.72,2.88,1.52,4.36,2.18,11.71,5.65,23.89,10.3,36.37,13.94,12.5,3.58,25.3,6.07,38.23,7.43h-.04c1.66-.08,3.35-.24,4.96-.62.77-.2,1.64-.46,2.1-.98.45-.49-.2-1.21-.82-1.67-1.31-.97-2.87-1.66-4.4-2.32-1.55-.65-3.13-1.23-4.72-1.78-6.38-2.18-12.9-3.94-19.43-5.64-13.11-3.35-25.84-8.01-38.26-13.33-12.42-5.33-24.56-11.3-36.45-17.72-11.87-6.45-23.56-13.24-34.91-20.58-.07-.04-.09-.13-.04-.2.04-.06.13-.08.19-.05h0Z"/>
      <path class="cls-4" d="m125.99,42.26c9.74,8.63,19.92,16.73,30.72,23.88,10.73,7.23,21.96,13.71,33.68,19.13,11.74,5.36,23.79,10,36.18,13.52,12.4,3.49,25.09,5.9,37.89,7.18h-.35c1.49-.09,3.16-.26,4.47-.57.32-.08.63-.17.84-.26.22-.06.31-.22.04.08-.15.16-.37.63-.35,1.06.01.23.04.37.09.5.02.08.09.19.09.2.09.11-.06-.08-.27-.23-.44-.34-1.08-.72-1.75-1.06-.68-.35-1.4-.67-2.13-.99-1.48-.63-3.02-1.2-4.58-1.75-6.25-2.17-12.75-3.96-19.24-5.68-3.27-.9-6.56-1.88-9.84-2.82-3.25-1.03-6.46-2.17-9.7-3.25-3.2-1.16-6.36-2.41-9.55-3.62-3.15-1.29-6.25-2.68-9.37-4.02-12.4-5.55-24.48-11.74-36.29-18.36-5.86-3.4-11.69-6.84-17.42-10.44-2.88-1.78-5.72-3.61-8.56-5.45-2.82-1.87-5.62-3.77-8.38-5.72-.07-.04-.08-.13-.04-.2.04-.06.13-.08.2-.04,11.35,7.31,23.05,14.08,34.92,20.5,11.89,6.39,24.03,12.34,36.45,17.64,12.42,5.29,25.13,9.92,38.22,13.24,6.54,1.69,13.07,3.44,19.48,5.62,1.6.55,3.19,1.13,4.76,1.78,1.56.67,3.13,1.35,4.53,2.39.34.27.69.56.95.97.13.2.24.45.24.73,0,.28-.11.56-.27.77-.7.75-1.58.94-2.4,1.18-1.68.4-3.37.56-5.08.64h-.02s-.02,0-.02,0c-12.96-1.39-25.79-3.91-38.31-7.52-12.5-3.67-24.7-8.35-36.42-14.04-1.48-.67-2.91-1.47-4.36-2.2-1.44-.75-2.91-1.47-4.33-2.26-2.84-1.6-5.72-3.12-8.49-4.83-5.63-3.28-11.05-6.9-16.39-10.62-10.62-7.53-20.68-15.86-30.05-24.9-.06-.06-.06-.15,0-.2.05-.06.14-.06.2,0h0Z"/>
      <path class="cls-4" d="m121.06,52.22c11.64,6.84,23.44,13.41,35.48,19.46,11.97,6.18,24.17,11.92,36.6,16.99,3.13,1.22,6.24,2.48,9.37,3.67,3.15,1.15,6.28,2.35,9.44,3.46,3.18,1.02,6.35,2.11,9.55,3.08,3.23.88,6.41,1.8,9.67,2.65,6.58,1.67,13.14,3.39,19.68,5.58,1.63.55,3.27,1.14,4.9,1.81.82.34,1.64.7,2.47,1.11.83.42,1.67.87,2.58,1.55.46.37.95.74,1.5,1.57.13.18.27.49.38.77.11.34.2.68.21,1.13.04.86-.35,1.74-.77,2.23-.82.95-1.5,1.2-2.06,1.46-.57.24-1.08.39-1.57.52-1.97.48-3.68.61-5.57.69h-.16s-.18-.01-.18-.01c-13.08-1.46-26.03-4.07-38.65-7.77-12.59-3.78-24.92-8.49-36.62-14.46-1.48-.7-2.91-1.52-4.36-2.28-1.44-.78-2.91-1.52-4.33-2.34-2.83-1.65-5.71-3.23-8.47-4.99-5.6-3.4-11.02-7.1-16.3-10.96-5.25-3.9-10.31-8.06-15.23-12.34-2.46-2.14-4.87-4.35-7.24-6.58l-3.49-3.42-3.43-3.49c-.06-.06-.06-.15,0-.2.05-.06.15-.06.2,0,9.38,9.02,19.44,17.32,30.06,24.82,5.34,3.71,10.76,7.31,16.38,10.58,2.77,1.7,5.65,3.21,8.49,4.8,1.42.78,2.89,1.49,4.33,2.24,1.45.72,2.88,1.52,4.36,2.18,11.71,5.65,23.89,10.3,36.37,13.94,12.5,3.58,25.3,6.07,38.23,7.43h-.04c1.66-.08,3.35-.24,4.96-.62.77-.2,1.64-.46,2.1-.98.45-.49-.2-1.21-.82-1.67-1.31-.97-2.87-1.66-4.4-2.32-1.55-.65-3.13-1.23-4.72-1.78-6.38-2.18-12.9-3.94-19.43-5.64-13.11-3.35-25.84-8.02-38.26-13.33-12.42-5.33-24.56-11.3-36.45-17.72-11.87-6.45-23.56-13.24-34.91-20.58-.07-.04-.09-.13-.04-.2.04-.06.13-.08.19-.05h0Z"/>
      <path class="cls-4" d="m107.99,55.42c11.64,6.84,23.44,13.41,35.48,19.46,11.97,6.18,24.17,11.92,36.6,16.99,3.13,1.22,6.24,2.48,9.37,3.67,3.15,1.15,6.28,2.35,9.44,3.46,3.18,1.02,6.35,2.11,9.55,3.08,3.23.88,6.41,1.8,9.67,2.65,6.58,1.67,13.14,3.39,19.68,5.58,1.63.55,3.27,1.14,4.9,1.81.82.34,1.64.7,2.47,1.11.83.42,1.67.87,2.58,1.55.46.37.95.74,1.5,1.57.13.18.27.49.38.77.11.34.2.68.21,1.13.04.86-.35,1.74-.77,2.23-.82.95-1.5,1.2-2.06,1.46-.57.24-1.08.39-1.57.52-1.97.48-3.68.61-5.57.7h-.16s-.18-.01-.18-.01c-13.08-1.46-26.03-4.07-38.65-7.77-12.59-3.78-24.92-8.49-36.62-14.46-1.48-.7-2.91-1.52-4.36-2.28-1.44-.78-2.91-1.52-4.33-2.34-2.83-1.65-5.71-3.23-8.47-4.99-5.6-3.4-11.02-7.1-16.3-10.96-5.25-3.9-10.31-8.06-15.23-12.34-2.46-2.14-4.87-4.35-7.24-6.58l-3.49-3.42-3.43-3.49c-.06-.06-.06-.15,0-.2.05-.06.15-.06.2,0,9.38,9.02,19.44,17.32,30.06,24.82,5.34,3.71,10.76,7.31,16.38,10.58,2.77,1.7,5.65,3.21,8.49,4.8,1.42.78,2.89,1.49,4.33,2.24,1.45.72,2.88,1.52,4.36,2.18,11.71,5.65,23.89,10.3,36.37,13.94,12.5,3.58,25.3,6.07,38.23,7.43h-.04c1.66-.08,3.35-.24,4.96-.62.77-.2,1.64-.46,2.1-.98.45-.49-.2-1.21-.82-1.67-1.31-.97-2.87-1.66-4.4-2.32-1.55-.65-3.13-1.23-4.72-1.78-6.38-2.18-12.9-3.94-19.43-5.64-13.11-3.35-25.84-8.02-38.26-13.33-12.42-5.33-24.56-11.3-36.45-17.72-11.87-6.45-23.56-13.24-34.91-20.58-.07-.04-.09-.13-.04-.2.04-.06.13-.08.19-.05h0Z"/>
      <path class="cls-4" d="m94.62,65.72c11.64,6.84,23.44,13.41,35.48,19.46,11.97,6.18,24.17,11.92,36.6,16.99,3.13,1.22,6.24,2.48,9.37,3.67,3.15,1.15,6.28,2.35,9.44,3.46,3.18,1.02,6.35,2.11,9.55,3.08,3.23.88,6.41,1.8,9.67,2.65,6.58,1.67,13.14,3.39,19.68,5.58,1.63.55,3.27,1.14,4.9,1.81.82.34,1.64.7,2.47,1.11.83.42,1.67.87,2.58,1.55.46.37.95.74,1.5,1.57.13.18.27.49.38.77.11.34.2.68.21,1.13.04.86-.35,1.74-.77,2.23-.82.95-1.5,1.2-2.06,1.46-.57.24-1.08.39-1.57.52-1.97.48-3.68.61-5.57.69h-.16s-.18-.01-.18-.01c-13.08-1.46-26.03-4.07-38.65-7.77-12.59-3.78-24.92-8.49-36.62-14.46-1.48-.7-2.91-1.52-4.36-2.28-1.44-.78-2.91-1.52-4.33-2.34-2.83-1.65-5.71-3.23-8.47-4.99-5.6-3.4-11.02-7.1-16.3-10.96-5.25-3.9-10.31-8.06-15.23-12.34-2.46-2.14-4.87-4.35-7.24-6.58l-3.49-3.42-3.43-3.49c-.06-.06-.06-.15,0-.2.05-.06.15-.06.2,0,9.38,9.02,19.44,17.32,30.06,24.82,5.34,3.71,10.76,7.31,16.38,10.58,2.77,1.7,5.65,3.21,8.49,4.8,1.42.78,2.89,1.49,4.33,2.24,1.46.72,2.88,1.52,4.36,2.18,11.71,5.65,23.89,10.3,36.37,13.94,12.5,3.58,25.3,6.07,38.23,7.43h-.04c1.66-.08,3.35-.24,4.96-.62.77-.2,1.64-.46,2.1-.98.45-.49-.2-1.21-.82-1.67-1.31-.97-2.87-1.66-4.4-2.32-1.55-.65-3.13-1.23-4.72-1.78-6.38-2.18-12.9-3.94-19.43-5.64-13.11-3.35-25.84-8.02-38.26-13.33-12.42-5.33-24.56-11.3-36.45-17.72-11.87-6.45-23.56-13.24-34.91-20.58-.07-.04-.09-.13-.04-.2.04-.06.13-.08.19-.05h0Z"/>
      <path class="cls-4" d="m84.17,69.35c11.64,6.84,23.44,13.41,35.48,19.46,11.97,6.18,24.17,11.92,36.6,16.99,3.13,1.22,6.24,2.48,9.37,3.67,3.15,1.15,6.28,2.35,9.44,3.46,3.18,1.02,6.35,2.11,9.55,3.08,3.23.88,6.41,1.8,9.67,2.65,6.58,1.67,13.14,3.39,19.68,5.58,1.63.55,3.27,1.14,4.9,1.81.82.34,1.64.7,2.47,1.11.83.42,1.67.87,2.58,1.55.46.37.95.74,1.5,1.57.13.18.27.49.38.77.11.34.2.68.21,1.13.04.86-.35,1.74-.77,2.23-.82.95-1.5,1.2-2.05,1.46-.57.24-1.08.39-1.57.52-1.97.48-3.68.61-5.57.69h-.16s-.18-.01-.18-.01c-13.08-1.46-26.03-4.07-38.65-7.77-12.59-3.78-24.92-8.49-36.62-14.46-1.48-.7-2.91-1.52-4.36-2.28-1.44-.78-2.91-1.52-4.33-2.34-2.83-1.65-5.71-3.23-8.47-4.99-5.6-3.4-11.02-7.1-16.3-10.96-5.25-3.9-10.31-8.06-15.23-12.34-2.46-2.14-4.87-4.35-7.24-6.58l-3.49-3.42-3.43-3.49c-.06-.06-.06-.15,0-.2.05-.06.15-.06.2,0,9.38,9.02,19.44,17.32,30.06,24.82,5.34,3.71,10.76,7.31,16.38,10.58,2.77,1.7,5.65,3.21,8.49,4.8,1.42.78,2.89,1.49,4.33,2.24,1.46.72,2.88,1.52,4.36,2.18,11.71,5.65,23.89,10.3,36.37,13.94,12.5,3.58,25.3,6.07,38.23,7.43h-.04c1.66-.08,3.35-.24,4.96-.62.77-.2,1.64-.46,2.1-.98.45-.49-.2-1.21-.82-1.67-1.31-.97-2.87-1.66-4.4-2.32-1.55-.65-3.13-1.23-4.72-1.78-6.38-2.18-12.9-3.94-19.43-5.64-13.11-3.35-25.84-8.02-38.26-13.33-12.42-5.33-24.56-11.3-36.45-17.72-11.87-6.45-23.56-13.24-34.91-20.58-.07-.04-.09-.13-.04-.2.04-.06.13-.08.19-.05h0Z"/>
      <path class="cls-4" d="m177.27,9.68c4.46-3.03,9.18-5.51,14.21-7.53,1.26-.51,2.54-.99,3.89-1.37.68-.19,1.37-.38,2.11-.52.76-.14,1.49-.28,2.54-.25.53.05,1.16.04,2.14.64.23.14.52.4.73.66.23.3.43.63.54.98.13.37.16.66.18.98.01.3-.02.51-.05.77-.17.86-.44,1.3-.68,1.74-.24.43-.5.74-.76,1.1-1.05,1.33-2.17,2.28-3.31,3.17-4.64,3.34-9.52,5.58-14.54,7.49-5.01,1.89-10.15,3.41-15.46,4.29h-.02c-.08.02-.15-.04-.16-.11-.01-.07.03-.13.09-.16,4.94-1.84,9.83-3.86,14.62-6.07,2.39-1.11,4.76-2.27,7.08-3.53,2.31-1.26,4.58-2.61,6.67-4.19,1.04-.79,2.05-1.63,2.86-2.63.39-.5.79-1.04.91-1.59.04-.27,0-.48-.21-.61-.21-.14-.52-.2-.82-.22-1.26-.07-2.57.22-3.84.52-1.28.31-2.54.68-3.8,1.08-5.02,1.62-9.93,3.57-14.79,5.64-.07.03-.16,0-.19-.08-.03-.06,0-.14.05-.17h.02Z"/>
      <path class="cls-4" d="m184.24,16.21c4.46-3.03,9.18-5.51,14.21-7.53,1.26-.51,2.54-.99,3.89-1.37.68-.19,1.37-.38,2.11-.52.76-.14,1.49-.28,2.54-.25.53.05,1.16.04,2.14.64.23.14.52.4.73.66.23.3.43.63.54.98.13.37.16.66.18.98.01.3-.02.51-.05.77-.17.86-.44,1.3-.68,1.74-.24.43-.5.74-.76,1.1-1.05,1.33-2.17,2.28-3.31,3.17-4.64,3.34-9.52,5.58-14.54,7.49-5.01,1.89-10.15,3.41-15.46,4.29h-.02c-.08.02-.15-.04-.16-.11-.01-.07.03-.13.09-.16,4.94-1.84,9.83-3.86,14.62-6.07,2.39-1.11,4.76-2.27,7.08-3.53,2.31-1.26,4.58-2.61,6.67-4.19,1.04-.79,2.05-1.63,2.86-2.63.39-.5.79-1.04.91-1.59.04-.27,0-.48-.21-.61-.21-.14-.52-.2-.82-.22-1.26-.07-2.57.22-3.84.52-1.28.31-2.54.68-3.8,1.08-5.02,1.62-9.93,3.57-14.79,5.64-.07.03-.16,0-.19-.08-.03-.06,0-.14.05-.17h.02Z"/>
      <path class="cls-4" d="m190.34,17.23c4.46-3.03,9.18-5.51,14.21-7.53,1.26-.51,2.54-.99,3.89-1.37.68-.19,1.37-.38,2.11-.52.76-.14,1.49-.28,2.54-.25.53.05,1.16.04,2.14.64.23.14.52.4.73.66.23.3.43.63.54.98.13.37.16.66.18.98.01.3-.02.51-.05.77-.17.86-.44,1.3-.68,1.74-.24.43-.5.74-.76,1.1-1.05,1.33-2.17,2.28-3.31,3.17-4.64,3.34-9.52,5.58-14.54,7.49-5.01,1.89-10.15,3.41-15.46,4.29h-.02c-.08.02-.15-.04-.16-.11-.01-.07.03-.13.09-.16,4.94-1.84,9.83-3.86,14.62-6.07,2.39-1.11,4.76-2.27,7.08-3.53,2.31-1.26,4.58-2.61,6.67-4.19,1.04-.79,2.05-1.63,2.86-2.63.39-.5.79-1.04.91-1.59.04-.27,0-.48-.21-.61-.21-.14-.52-.2-.82-.22-1.26-.07-2.57.22-3.84.52-1.28.31-2.54.68-3.8,1.08-5.02,1.62-9.93,3.57-14.79,5.64-.07.03-.16,0-.19-.08-.03-.06,0-.14.05-.17h.02Z"/>
      <path class="cls-4" d="m198.83,17.14c4.75-3.38,9.8-6.17,15.19-8.45,1.35-.58,2.73-1.12,4.19-1.55.73-.22,1.48-.43,2.29-.6.82-.16,1.64-.32,2.83-.26l.49.06c.18.03.39.08.58.13.24.08.45.16.7.29.28.16.51.29.8.57.27.24.52.57.72.93.18.34.31.75.36,1.08.05.32.06.68.04.91-.02.27-.06.52-.11.7-.2.8-.47,1.29-.72,1.73-.25.45-.52.79-.8,1.18-1.1,1.43-2.29,2.48-3.5,3.47-4.93,3.72-10.15,6.26-15.54,8.43-5.38,2.16-10.89,3.9-16.62,4.95h-.03c-.08.02-.17-.04-.18-.12-.01-.07.03-.15.1-.17,5.3-2.09,10.54-4.38,15.66-6.88,2.56-1.25,5.09-2.56,7.56-3.98,2.47-1.42,4.89-2.93,7.1-4.69,1.11-.87,2.18-1.81,3.04-2.9.4-.55.84-1.13,1-1.74.08-.3.06-.57-.12-.72-.17-.17-.5-.26-.82-.29-1.34-.1-2.76.25-4.13.58-1.37.35-2.73.78-4.08,1.23-5.39,1.84-10.66,4.06-15.86,6.4-.08.04-.17,0-.21-.08-.03-.07,0-.15.05-.19l.02-.02Z"/>
      <path class="cls-4" d="m203.77,19.75c4.75-3.38,9.8-6.17,15.19-8.45,1.35-.58,2.73-1.12,4.19-1.55.73-.22,1.48-.43,2.29-.6.82-.16,1.64-.32,2.83-.26l.49.06c.18.03.39.08.58.13.24.08.45.16.7.29.28.16.51.29.8.57.27.24.52.57.72.93.18.34.31.75.36,1.08.05.32.06.68.04.91-.02.27-.06.52-.11.7-.2.8-.47,1.29-.72,1.73-.25.45-.52.79-.8,1.18-1.1,1.43-2.29,2.48-3.5,3.47-4.93,3.72-10.15,6.26-15.54,8.43-5.38,2.16-10.89,3.9-16.62,4.95h-.03c-.08.02-.17-.04-.18-.12-.01-.07.03-.15.1-.17,5.3-2.09,10.54-4.38,15.66-6.88,2.56-1.25,5.09-2.56,7.56-3.98,2.47-1.42,4.89-2.93,7.1-4.69,1.11-.87,2.18-1.81,3.04-2.9.4-.55.84-1.13,1-1.74.08-.3.06-.57-.12-.72-.17-.17-.5-.26-.82-.29-1.34-.1-2.76.25-4.13.58-1.37.35-2.73.77-4.08,1.23-5.39,1.84-10.66,4.06-15.86,6.4-.08.04-.17,0-.21-.08-.03-.07,0-.15.05-.19l.02-.02Z"/>
      <path class="cls-4" d="m206.88,21.5c5.31-3.2,10.88-5.77,16.75-7.82,1.47-.52,2.96-1,4.52-1.38.78-.19,1.57-.37,2.4-.52.84-.15,1.69-.27,2.73-.28.54.01,1.1.02,1.93.28.22.08.42.14.69.3.13.07.25.13.38.23.15.11.29.22.43.35.27.24.58.63.77,1.01.21.42.33.85.36,1.24.05.44.01.7-.02,1.04-.05.3-.11.5-.19.75-.14.4-.31.74-.46,1.01-.32.56-.63.94-.95,1.34-1.3,1.54-2.66,2.54-4.03,3.5-5.54,3.54-11.27,5.78-17.15,7.69-5.87,1.88-11.84,3.34-17.99,4.08h-.03c-.09.01-.17-.05-.18-.14,0-.08.04-.15.11-.17,5.78-1.85,11.51-3.89,17.15-6.14,2.82-1.13,5.61-2.32,8.35-3.62,2.73-1.3,5.44-2.7,7.93-4.38,1.24-.84,2.46-1.74,3.43-2.85.24-.28.48-.56.65-.87.18-.3.32-.63.29-.89-.01-.5-.9-.67-1.58-.69-1.47-.04-2.98.24-4.45.53-1.48.3-2.95.67-4.42,1.06-5.85,1.6-11.61,3.57-17.31,5.66-.08.03-.18-.01-.21-.1-.03-.07,0-.15.07-.19h.02Z"/>
      <path class="cls-4" d="m215.45,23.82c5.31-3.2,10.88-5.77,16.75-7.82,1.47-.52,2.96-1,4.52-1.38.78-.19,1.57-.37,2.4-.52.84-.15,1.69-.27,2.73-.28.54.01,1.1.02,1.93.28.22.08.42.14.69.3.13.07.25.13.38.23.15.11.29.22.43.35.27.24.58.63.77,1.01.21.42.33.85.36,1.24.05.44.01.7-.02,1.04-.05.3-.11.5-.19.75-.14.4-.31.74-.46,1.01-.32.56-.63.94-.95,1.34-1.3,1.54-2.66,2.54-4.03,3.5-5.54,3.54-11.27,5.78-17.15,7.69-5.87,1.88-11.84,3.34-17.99,4.08h-.03c-.09.01-.17-.05-.18-.14,0-.08.04-.15.11-.17,5.78-1.85,11.51-3.88,17.15-6.14,2.82-1.13,5.61-2.32,8.35-3.62,2.73-1.3,5.44-2.7,7.93-4.38,1.24-.84,2.46-1.74,3.43-2.85.24-.28.48-.56.65-.87.18-.3.32-.63.29-.89-.01-.5-.9-.67-1.58-.69-1.47-.04-2.98.24-4.45.53-1.48.3-2.95.67-4.42,1.06-5.85,1.6-11.61,3.57-17.31,5.66-.08.03-.18-.01-.21-.1-.03-.07,0-.15.07-.19h.02Z"/>
      <path class="cls-4" d="m219.22,28.03c5.31-3.2,10.88-5.77,16.75-7.82,1.47-.52,2.96-1,4.52-1.38.78-.19,1.57-.37,2.4-.52.84-.15,1.69-.27,2.73-.28.54.01,1.1.02,1.93.28.22.08.42.14.69.3.13.07.25.13.38.23.15.11.29.22.43.35.27.24.58.63.77,1.01.21.42.33.85.36,1.24.05.44.01.7-.02,1.04-.05.3-.11.5-.19.75-.14.4-.31.74-.46,1.01-.32.56-.63.94-.95,1.34-1.3,1.54-2.66,2.54-4.03,3.5-5.54,3.54-11.27,5.78-17.15,7.69-5.87,1.88-11.84,3.34-17.99,4.08h-.03c-.09.01-.17-.05-.18-.14,0-.08.04-.15.11-.17,5.78-1.85,11.51-3.89,17.15-6.14,2.82-1.13,5.61-2.32,8.35-3.62,2.73-1.3,5.44-2.7,7.93-4.38,1.24-.84,2.46-1.74,3.43-2.85.24-.28.48-.56.65-.87.18-.3.32-.63.29-.89-.01-.5-.9-.67-1.58-.69-1.47-.04-2.98.24-4.45.53-1.48.3-2.95.67-4.42,1.06-5.85,1.6-11.61,3.57-17.31,5.66-.08.03-.18-.01-.21-.1-.03-.07,0-.15.07-.19h.02Z"/>
      <path class="cls-4" d="m222.27,36.6c5.31-3.2,10.88-5.77,16.75-7.82,1.47-.52,2.96-1,4.52-1.38.78-.19,1.57-.37,2.4-.52.84-.15,1.69-.27,2.73-.28.54.01,1.1.02,1.93.28.22.08.42.14.69.3.13.07.25.13.38.23.15.11.29.22.43.35.27.24.58.63.77,1.01.21.42.33.85.36,1.24.05.44.01.7-.02,1.04-.05.3-.11.5-.19.75-.14.4-.31.74-.46,1.01-.32.56-.63.94-.95,1.34-1.3,1.54-2.66,2.54-4.03,3.5-5.54,3.54-11.27,5.78-17.15,7.69-5.87,1.88-11.84,3.34-17.99,4.08h-.03c-.09.01-.17-.05-.18-.14,0-.08.04-.15.11-.17,5.78-1.85,11.51-3.89,17.15-6.14,2.82-1.13,5.61-2.32,8.35-3.62,2.73-1.3,5.44-2.7,7.93-4.38,1.24-.84,2.46-1.74,3.43-2.85.24-.28.48-.56.65-.87.18-.3.32-.63.29-.89-.01-.5-.9-.67-1.58-.69-1.47-.04-2.98.24-4.45.53-1.48.3-2.95.67-4.42,1.06-5.85,1.6-11.61,3.57-17.31,5.66-.08.03-.18-.01-.21-.1-.03-.07,0-.15.07-.19h.02Z"/>
      <path class="cls-4" d="m230.84,38.93c5.31-3.2,10.88-5.77,16.75-7.82,1.47-.52,2.96-1,4.52-1.38.78-.19,1.57-.37,2.4-.52.84-.15,1.69-.27,2.73-.28.54.01,1.1.02,1.93.28.22.08.42.14.69.3.13.07.25.13.38.23.15.11.29.22.43.35.27.24.58.63.77,1.01.21.42.33.85.36,1.24.05.44.01.7-.02,1.04-.05.3-.11.5-.19.75-.14.4-.31.74-.46,1.01-.32.56-.63.94-.95,1.34-1.3,1.54-2.66,2.54-4.03,3.5-5.54,3.54-11.27,5.78-17.15,7.69-5.87,1.88-11.84,3.34-17.99,4.08h-.03c-.09.01-.17-.05-.18-.14,0-.08.04-.15.11-.17,5.78-1.85,11.51-3.88,17.15-6.14,2.82-1.13,5.61-2.32,8.35-3.62,2.73-1.3,5.44-2.7,7.93-4.38,1.24-.84,2.46-1.74,3.43-2.85.24-.28.48-.56.65-.87.18-.3.32-.63.29-.89-.01-.5-.9-.67-1.58-.69-1.47-.04-2.98.24-4.45.53-1.48.3-2.95.67-4.42,1.06-5.85,1.6-11.61,3.57-17.31,5.66-.08.03-.18-.01-.21-.1-.03-.07,0-.15.07-.19h.02Z"/>
      <path class="cls-4" d="m243.04,46.34c5.31-3.2,10.88-5.77,16.75-7.82,1.47-.52,2.96-1.01,4.52-1.38.78-.19,1.57-.37,2.4-.52.84-.15,1.69-.27,2.73-.28.54.01,1.1.02,1.93.28.22.08.42.14.69.3.13.07.25.13.38.23.15.11.29.22.43.35.27.24.58.63.77,1.01.21.42.33.85.36,1.24.05.44.01.7-.02,1.04-.05.3-.11.5-.19.75-.14.4-.31.74-.46,1.01-.32.56-.63.94-.95,1.34-1.3,1.54-2.66,2.54-4.03,3.5-5.54,3.54-11.27,5.78-17.15,7.69-5.87,1.88-11.84,3.34-17.99,4.08h-.03c-.09.01-.17-.05-.18-.14,0-.08.04-.15.11-.17,5.78-1.85,11.51-3.88,17.15-6.14,2.82-1.13,5.61-2.32,8.35-3.62,2.73-1.3,5.44-2.7,7.93-4.38,1.24-.84,2.46-1.74,3.43-2.85.24-.28.48-.56.65-.87.18-.3.32-.63.29-.89-.01-.5-.9-.67-1.58-.69-1.47-.04-2.98.24-4.45.53-1.48.3-2.95.67-4.42,1.06-5.85,1.6-11.61,3.57-17.31,5.66-.08.03-.18-.01-.21-.1-.03-.07,0-.15.07-.19h.02Z"/>
      <path class="cls-4" d="m248.55,50.84c5.31-3.2,10.88-5.77,16.75-7.82,1.47-.52,2.96-1,4.52-1.38.78-.19,1.57-.37,2.4-.52.84-.15,1.69-.27,2.73-.28.54.01,1.1.02,1.93.28.22.08.42.14.69.3.13.07.25.13.38.23.15.11.29.22.43.35.27.24.58.63.77,1.01.21.42.33.85.36,1.24.05.44.01.7-.02,1.04-.05.3-.11.5-.19.75-.14.4-.31.74-.46,1.01-.32.56-.63.94-.95,1.34-1.3,1.54-2.66,2.54-4.03,3.5-5.54,3.54-11.27,5.78-17.15,7.69-5.87,1.88-11.84,3.34-17.99,4.08h-.03c-.09.01-.17-.05-.18-.14,0-.08.04-.15.11-.17,5.78-1.85,11.51-3.89,17.15-6.14,2.82-1.13,5.61-2.32,8.35-3.62,2.73-1.3,5.44-2.7,7.93-4.38,1.24-.84,2.46-1.74,3.43-2.85.24-.28.48-.56.65-.87.18-.3.32-.63.29-.89-.01-.5-.9-.67-1.58-.69-1.47-.04-2.98.24-4.45.53-1.48.3-2.95.67-4.42,1.06-5.85,1.6-11.61,3.57-17.31,5.66-.08.03-.18-.01-.21-.1-.03-.07,0-.15.07-.19h.02Z"/>
      <path class="cls-4" d="m256.83,54.91c5.31-3.2,10.88-5.77,16.75-7.82,1.47-.52,2.96-1,4.52-1.38.78-.19,1.57-.37,2.4-.52.84-.15,1.69-.27,2.73-.28.54.01,1.1.02,1.93.28.22.08.42.14.69.3.13.07.25.13.38.23.15.11.29.22.43.35.27.24.58.63.77,1.01.21.42.33.85.36,1.24.05.44.01.7-.02,1.04-.05.3-.11.5-.19.75-.14.4-.31.74-.46,1.01-.32.56-.63.94-.95,1.34-1.3,1.54-2.66,2.54-4.03,3.5-5.54,3.54-11.27,5.78-17.15,7.69-5.87,1.88-11.84,3.34-17.99,4.08h-.03c-.09.01-.17-.05-.18-.14,0-.08.04-.15.11-.17,5.78-1.85,11.51-3.89,17.15-6.14,2.82-1.13,5.61-2.32,8.35-3.62,2.73-1.3,5.44-2.7,7.93-4.38,1.24-.84,2.46-1.74,3.43-2.85.24-.28.48-.56.65-.87.18-.3.32-.63.29-.89-.01-.5-.9-.67-1.58-.69-1.47-.04-2.98.24-4.45.53-1.48.3-2.95.67-4.42,1.06-5.85,1.6-11.61,3.57-17.31,5.66-.08.03-.18-.01-.21-.1-.03-.07,0-.15.07-.19h.02Z"/>
      <path class="cls-4" d="m261.91,56.65c5.31-3.2,10.88-5.77,16.75-7.82,1.47-.52,2.96-1,4.52-1.38.78-.19,1.57-.37,2.4-.52.84-.15,1.69-.27,2.73-.28.54.01,1.1.02,1.93.28.22.08.42.14.69.3.13.07.25.13.38.23.15.11.29.22.43.35.27.24.58.63.77,1.01.21.42.33.85.37,1.24.05.44.01.7-.02,1.04-.05.3-.11.5-.19.75-.14.4-.31.74-.46,1.01-.32.56-.63.94-.95,1.34-1.3,1.54-2.66,2.54-4.03,3.5-5.54,3.54-11.27,5.78-17.15,7.69-5.87,1.88-11.84,3.34-17.99,4.08h-.03c-.09.01-.17-.05-.18-.14,0-.08.04-.15.11-.17,5.78-1.85,11.51-3.89,17.15-6.14,2.82-1.13,5.61-2.32,8.35-3.62,2.73-1.3,5.44-2.7,7.93-4.38,1.24-.84,2.46-1.74,3.43-2.85.24-.28.48-.56.65-.87.18-.3.32-.63.29-.89-.01-.5-.9-.67-1.58-.69-1.47-.04-2.98.24-4.45.53-1.48.3-2.95.67-4.42,1.06-5.85,1.6-11.61,3.57-17.31,5.66-.08.03-.18-.01-.21-.1-.03-.07,0-.15.07-.19h.02Z"/>
      <g>
        <ellipse class="cls-5" cx="217.99" cy="86.68" rx="10.62" ry="11.15" transform="translate(25.83 221.25) rotate(-56.69)"/>
        <path class="cls-7" d="m215.58,93.69c-5.15-3.38-6.71-10.1-3.49-15,.57-.87,1.25-1.62,2.02-2.25-2.17.71-4.11,2.1-5.44,4.12-3.22,4.9-1.66,11.62,3.49,15,4.24,2.79,9.58,2.44,13.14-.5-3.1,1.01-6.69.62-9.72-1.37Z"/>
        <path class="cls-10" d="m224.32,82.71c-.08.17.43,6.01-.43,8.65-.86,2.64,1.07,4.37,2.52-.18,1.45-4.54-.66-11.65-2.09-8.47Z"/>
        <path class="cls-10" d="m222.63,85.95c.11-.11.23-.24.36-.22.55.09.8,2.7-.22,4.67-.07.13-.43.83-.61.78-.19-.05.03-.84.07-2.28.04-1.55-.16-2.36.4-2.94Z"/>
        <path class="cls-6" d="m222.73,80.29s2.94-4.48,2.76-6.2l1.53,1-3.68,5.6-.61-.4Z"/>
        <path class="cls-12" d="m223.28,76.75s-1.08-2.77-3.69-2.04c-2.6.73-4.55.2-4.55.2,0,0,.56,1.3,2.29,1.88s3.78.42,4.27,1.3c.48.88-1.63.06-2.97.49-1.34.43-2.77,1-3.43.38,0,0,.46,1.99,2.66,2.13,2.21.14,3.73-1.12,4.51-.42,0,0,.81.91-.55,2.45-1.37,1.54-.91,3.53-.91,3.53,0,0,1.81-.88,3.02-2.71,1.21-1.84.78-3.06.78-3.06,0,0,1.55,1.4,1.22,3.25-.33,1.85,2.48,2.94,2.48,2.94,0,0-1.13-1.5-.52-2.97.62-1.47-1.63-3.7-1.63-3.7,0,0,2.96,1.94,3.33,4.07.37,2.12,1.48.97,1.48.97,0,0-.84.2-.7-2.15.13-2.35-5.76-5.48-5.76-5.48l-1.33-1.07Z"/>
      </g>
      <g>
        <path class="cls-5" d="m105.92,68.96c-3.22,4.9-10.01,6.14-15.16,2.75-5.15-3.38-6.71-10.1-3.49-15,3.22-4.9,10.01-6.14,15.16-2.75,5.15,3.38,6.71,10.1,3.49,15Z"/>
        <path class="cls-7" d="m94.18,69.84c-5.15-3.38-6.71-10.1-3.49-15,.57-.87,1.25-1.62,2.02-2.25-2.17.71-4.11,2.1-5.44,4.12-3.22,4.9-1.66,11.62,3.49,15,4.24,2.79,9.58,2.44,13.14-.5-3.1,1.01-6.69.62-9.72-1.37Z"/>
        <path class="cls-10" d="m102.93,58.87c-.08.17.43,6.01-.43,8.65-.86,2.64,1.07,4.37,2.52-.18,1.45-4.54-.66-11.66-2.09-8.47Z"/>
        <path class="cls-10" d="m101.23,62.11c.11-.11.23-.24.36-.22.55.09.8,2.7-.22,4.67-.07.13-.43.83-.61.78-.19-.05.03-.84.07-2.28.04-1.55-.16-2.36.4-2.94Z"/>
        <path class="cls-6" d="m101.33,56.44s2.94-4.48,2.76-6.2l1.53,1-3.68,5.6-.61-.4Z"/>
        <path class="cls-12" d="m101.88,52.9s-1.08-2.77-3.69-2.04c-2.6.73-4.55.2-4.55.2,0,0,.56,1.3,2.29,1.88,1.74.58,3.78.42,4.27,1.3.48.88-1.63.06-2.97.49-1.34.43-2.77,1-3.43.38,0,0,.46,1.99,2.66,2.13s3.73-1.12,4.51-.42c0,0,.81.91-.55,2.45-1.37,1.54-.91,3.53-.91,3.53,0,0,1.81-.88,3.02-2.71,1.21-1.84.78-3.06.78-3.06,0,0,1.55,1.4,1.22,3.25-.33,1.85,2.48,2.94,2.48,2.94,0,0-1.13-1.5-.52-2.97.62-1.47-1.63-3.7-1.63-3.7,0,0,2.96,1.95,3.33,4.07.37,2.12,1.48.97,1.48.97,0,0-.84.2-.7-2.15s-5.76-5.48-5.76-5.48l-1.33-1.07Z"/>
      </g>
      <g>
        <path class="cls-2" d="m199.08,35.53c-11.69-4.17-15.65-9.28-16.99-12.11-.39-.82-.56-1.45-.63-1.81-.05-.22-.05-.33-.05-.33,0,0,7.85-16.12,22.35-13.11,14.5,3.02,23.56-2.11,23.56-2.11,0,0-11.11,35.58-28.24,29.47Z"/>
        <path class="cls-1" d="m220.87,13.14c-2.24,1.6-4.68,2.94-7.18,4.18-2.51,1.22-5.12,2.29-7.8,3.19-2.67.91-5.43,1.63-8.24,2.18-2.81.53-5.67.86-8.55.98-2.33.08-4.69-.01-7.01-.25-.39-.82-.56-1.45-.63-1.81l1.27.12c.69.06,1.39.09,2.08.13.69.02,1.39.03,2.09.04.69-.01,1.39-.02,2.08-.04,2.78-.08,5.55-.39,8.29-.85,2.75-.43,5.44-1.1,8.12-1.83,1.34-.37,2.66-.8,3.97-1.24,1.32-.43,2.62-.91,3.91-1.42,2.59-1,5.13-2.12,7.6-3.38Z"/>
        <path class="cls-1" d="m218.02,22.35c-.87.36-1.84.47-2.8.49-.96-.02-1.91-.18-2.84-.43-.91-.27-1.81-.6-2.66-1.02-.85-.43-1.66-.87-2.46-1.47l-.61-.46.27-.69c.29-.74.6-1.42.96-2.1.35-.68.73-1.34,1.16-1.98.42-.64.89-1.26,1.42-1.83.55-.55,1.09-1.12,1.77-1.5l.08.08c-1.05,1.05-1.83,2.34-2.53,3.65-.7,1.32-1.3,2.68-1.83,4.07l-.04-.12c1.48,1.01,3.09,1.88,4.78,2.5.85.3,1.72.54,2.61.68.89.12,1.8.14,2.69.02l.02.11Z"/>
        <path class="cls-1" d="m209.62,25.42c-.97,0-1.9-.16-2.85-.28-.94-.17-1.87-.38-2.78-.65-1.83-.52-3.61-1.22-5.32-2.04l-.58-.28v-.59c.04-1.03.15-1.91.4-2.82.24-.9.57-1.77,1.03-2.58.86-1.65,2.25-2.99,3.82-3.81l.07.09c-.65.56-1.29,1.15-1.79,1.86-.53.68-.97,1.43-1.31,2.22-.7,1.57-1.08,3.3-1.09,5.01l-.06-.1c1.69.8,3.4,1.54,5.15,2.2,1.75.65,3.53,1.24,5.35,1.67l-.02.11Z"/>
        <path class="cls-1" d="m201.73,28.26c-1.17-.08-2.31-.35-3.45-.63-1.13-.31-2.23-.7-3.31-1.16-1.07-.48-2.14-.97-3.14-1.59-1.02-.59-1.99-1.26-2.92-1.99l-.47-.36.08-.53c.06-.41.15-.6.24-.88.09-.25.2-.49.31-.72.24-.46.51-.88.8-1.28.57-.81,1.25-1.5,1.98-2.13.71-.64,1.49-1.18,2.29-1.67.82-.46,1.63-.91,2.5-1.26l.06.09c-.76.5-1.51,1.03-2.23,1.59-.71.58-1.4,1.17-2.04,1.82-.64.65-1.23,1.35-1.73,2.1-.49.75-.94,1.58-1.1,2.44l-.04-.1c1.83,1.36,3.77,2.6,5.82,3.61,2.04,1.02,4.17,1.89,6.37,2.52l-.03.11Z"/>
        <path class="cls-11" d="m204.87,12.87c-1.04,1.61-1.55,3.11-1.14,3.35.41.24,1.59-.87,2.63-2.48,1.04-1.61,1.55-3.11,1.14-3.35-.41-.24-1.59.87-2.63,2.48Z"/>
        <path class="cls-11" d="m195.78,16.85c-1.04,1.61-1.55,3.11-1.14,3.35.41.24,1.59-.87,2.63-2.48,1.04-1.61,1.55-3.11,1.14-3.35-.41-.24-1.59.87-2.63,2.48Z"/>
        <path class="cls-11" d="m212.44,12.2c-1.04,1.61-1.55,3.11-1.14,3.35.41.24,1.59-.87,2.63-2.48,1.04-1.61,1.55-3.11,1.14-3.35-.41-.24-1.59.87-2.63,2.48Z"/>
      </g>
      <g>
        <ellipse class="cls-5" cx="182.55" cy="28.8" rx="16.99" ry="16.18" transform="translate(25.25 125.81) rotate(-40.63)"/>
        <path class="cls-7" d="m191.78,35.28c-7.12,6.11-17.61,5.56-23.43-1.22-1.03-1.2-1.84-2.51-2.44-3.9.12,3.48,1.35,6.9,3.74,9.69,5.82,6.78,16.31,7.33,23.43,1.22,5.86-5.03,7.61-13,4.8-19.44.17,4.96-1.92,10.05-6.1,13.65Z"/>
        <path class="cls-10" d="m179.41,17.86c.22.19,8.97,1.9,12.47,4.28,3.5,2.37,6.84.28.81-3.76-6.03-4.04-17.33-3.95-13.28-.51Z"/>
        <path class="cls-10" d="m183.44,21.7c-.12-.21-.25-.44-.17-.62.36-.77,4.29-.03,6.73,2.29.17.16,1.03.98.88,1.23-.16.26-1.21-.4-3.31-1.07-2.25-.72-3.52-.75-4.14-1.83Z"/>
        <path class="cls-6" d="m175.19,19.18s-5.31-6.19-7.91-6.66l2.11-1.81,6.64,7.74-.85.73Z"/>
        <path class="cls-12" d="m170.24,16.88s-4.51.42-4.54,4.53-1.62,6.74-1.62,6.74c0,0,2.14-.26,3.72-2.56,1.58-2.3,2.21-5.36,3.7-5.69,1.49-.33-.6,2.41-.53,4.55.07,2.15.29,4.48-.89,5.17,0,0,3.11.17,4.23-3,1.13-3.17-.06-5.94,1.29-6.78,0,0,1.68-.81,3.36,1.84,1.68,2.65,4.79,2.82,4.79,2.82,0,0-.52-3.02-2.7-5.56-2.18-2.54-4.15-2.42-4.15-2.42,0,0,2.7-1.69,5.26-.42s5.35-2.39,5.35-2.39c0,0-2.67,1.03-4.57-.49-1.9-1.52-6.1.83-6.1.83,0,0,4.09-3.51,7.36-3.16,3.26.35,2.05-1.76,2.05-1.76,0,0-.06,1.31-3.45.12s-10.44,6.12-10.44,6.12l-2.13,1.5Z"/>
      </g>
      <path class="cls-5" d="m108.77,23.05c1.75-.53,3.74-1.13,6.05-1.86-4.7,10.11-9.44,20.2-14.43,30.21-3.15,6.31-6.38,12.57-9.86,18.74-1.73,3.09-3.54,6.13-5.46,9.14-1.92,3-3.95,5.95-6.25,8.77-.34.4-.67.8-1.02,1.2-.85.99-1.77,1.94-2.77,2.85-.71.63-1.46,1.26-2.29,1.8-.81.54-1.63,1.06-2.74,1.48-.56.18-1.19.38-2.08.33-.44-.02-.96-.15-1.44-.41-.48-.26-.87-.65-1.14-1.04-.52-.79-.64-1.47-.74-2.07-.08-.6-.08-1.14-.05-1.66.11-2.04.54-3.81.99-5.57.5-1.86,1.06-3.67,1.67-5.46.53-1.59,1.1-3.16,1.68-4.72,1.24-3.31,2.56-6.59,3.91-9.84,4.85-11.62,10.05-23.05,15.22-34.47,1.07-.47,2.16-.95,3.26-1.43.3-.13.59-.26.88-.38-5.44,12.53-11,24.99-16.09,37.61-1.3,3.25-2.56,6.5-3.74,9.77-.77,2.14-1.51,4.29-2.17,6.44-.35,1.14-.68,2.28-.96,3.42-.4,1.63-.76,3.3-.81,4.78-.01.36,0,.71.04.97,0,.04,0,.07.02.11.07-.02.14-.04.22-.07.53-.2,1.22-.61,1.86-1.05.63-.43,1.23-.93,1.82-1.48.83-.77,1.61-1.61,2.37-2.51.33-.38.66-.77.97-1.16,4.22-5.32,7.73-11.38,11.12-17.44,3.36-6.1,6.53-12.33,9.59-18.62,4.26-8.72,8.34-17.53,12.36-26.38Z"/>
      <path class="cls-5" d="m155.77,7.55c1.03-.2,3.15-.6,6.49-.92-2.25,10.06-4.23,20.2-6.14,30.36-2.6,13.78-5.01,27.61-7.66,41.44-1.34,6.91-2.72,13.83-4.38,20.75-.84,3.46-1.74,6.91-2.88,10.39-.58,1.73-1.21,3.48-2.06,5.26-.44.89-.92,1.8-1.63,2.76-.4.49-.77.98-1.43,1.5-.15.12-.34.25-.54.38-.19.12-.38.24-.64.35-.45.2-.83.31-1.26.39-.06,0-.12.02-.18.03-1.02.18-2.41-.1-3.31-.75-.5-.33-.88-.7-1.17-1.06-.25-.31-.45-.61-.62-.9-.7-1.26-.96-2.31-1.2-3.33-.43-2.02-.56-3.88-.65-5.74-.16-3.68-.02-7.26.18-10.82.41-7.11,1.17-14.13,1.99-21.14,2.54-21.14,5.89-42.12,8.83-63.09,2.31-.83,4.2-1.53,5.84-2.12-2.92,22.04-6.34,43.93-8.86,65.89-.79,6.94-1.49,13.89-1.88,20.8-.19,3.44-.3,6.9-.16,10.23.08,1.65.22,3.31.53,4.72.04.19.09.38.14.56.23-.36.45-.79.66-1.24.66-1.39,1.24-2.94,1.76-4.54,1.05-3.2,1.92-6.55,2.72-9.92,1.61-6.74,2.97-13.6,4.28-20.47,4.4-23.17,8.19-46.54,13.24-69.75Z"/>
      <path class="cls-5" d="m251.77,33.75c1.17,1.34,2.4,2.77,3.72,4.27-1.72,7.15-3.48,14.3-5.32,21.44-3.54,13.63-7.29,27.23-11.97,40.6-2.36,6.68-4.95,13.31-8.18,19.76-1.63,3.21-3.42,6.39-5.62,9.41-.66.9-1.37,1.8-2.13,2.67-.49.57-1.02,1.13-1.58,1.67-1.4,1.36-3.02,2.65-4.99,3.56l-1.46.62c-.54.16-1.08.31-1.63.45-.61.08-1.2.18-1.84.19-.67-.06-1.31-.02-2-.25-.33-.1-.67-.2-1-.31-.3-.16-.62-.33-.92-.49l-.45-.26-.39-.32c-.25-.21-.5-.43-.74-.65-.42-.46-.82-.94-1.15-1.43-.28-.49-.61-.98-.83-1.46-.07-.15-.14-.29-.2-.44-.82-1.8-1.22-3.56-1.55-5.29-.35-1.87-.55-3.7-.68-5.52-.5-7.27-.18-14.35.2-21.42.83-14.1,2.16-28.07,3.1-42.04.93-13.97,1.65-27.93,1.36-41.82-.06-2.68-.16-5.35-.31-8.02,2.16.26,4.15.54,6.04.85.12,2.35.19,4.71.24,7.05.27,14.19-.45,28.3-1.48,42.35-1.03,14.04-2.42,28.04-3.31,41.96-.41,6.95-.75,13.93-.32,20.69.11,1.68.28,3.34.58,4.92.27,1.59.67,3.12,1.26,4.33.14.32.32.55.46.83.17.23.33.43.5.63.09.07.17.14.24.21l.11.12.13.05s0,0,.02.01c.07.04.15.08.22.14.09.02.17.04.26.07.54.18,1.47.08,2.51-.32.24-.09.5-.19.75-.32,2.46-1.13,4.73-3.56,6.66-6.18,1.96-2.65,3.65-5.6,5.2-8.64,3.1-6.09,5.67-12.56,8.03-19.09,4.71-13.09,8.56-26.57,12.19-40.09,2.17-8.13,4.24-16.29,6.27-24.48Z"/>
      <path class="cls-5" d="m322.9,92.52c-.27-1.6-.54-3.19-.92-4.74-.19-.78-.39-1.55-.7-2.26-.16-.35-.34-.69-.59-.95-.25-.26-.58-.36-.91-.23-.65.24-1.17.9-1.65,1.49-.48.62-.92,1.29-1.35,1.96-.86,1.35-1.68,2.74-2.49,4.12-3.23,5.57-6.49,11.14-9.97,16.54-1.73,2.71-3.5,5.37-5.32,8-.9,1.33-1.83,2.63-2.75,3.93-.93,1.29-1.84,2.64-2.98,3.81-.56.59-1.16,1.14-1.85,1.59-.68.45-1.47.79-2.32.83-.85.03-1.69-.32-2.31-.89-.63-.55-1.11-1.25-1.5-1.96-.78-1.46-1.29-3.02-1.71-4.6-.34-1.29-.61-2.58-.85-3.9-.05-.3-.1-.6-.16-.9-1.05-6.46-1.45-13-1.75-19.54-.28-6.55-.39-13.1-.42-19.65,0-1.77-.01-3.54-.01-5.31.67.8,1.32,1.57,1.95,2.3-.02.97-.03,1.94-.04,2.91-.05,6.53-.05,13.07.14,19.58.21,6.51.51,13.02,1.45,19.36.02.15.05.29.07.43h0c.22,1.44.48,2.86.83,4.24.37,1.52.84,3.01,1.51,4.3.66,1.28,1.63,2.35,2.82,2.32,1.19-.03,2.42-.96,3.45-2.02,1.06-1.06,1.96-2.35,2.92-3.63.94-1.28,1.87-2.56,2.79-3.86,1.85-2.58,3.65-5.22,5.43-7.87,3.56-5.3,6.92-10.78,10.25-16.27.84-1.37,1.69-2.75,2.58-4.08.44-.66.9-1.33,1.4-1.95.51-.59,1.03-1.26,1.78-1.53.18-.06.39-.06.58-.01.19.06.36.18.48.32.27.29.45.65.61,1.02.3.74.49,1.52.67,2.31.35,1.58.6,3.17.83,4.78Z"/>
    </g>
  </g>
</svg>