<?xml version="1.0" encoding="UTF-8"?>
<svg xmlns="http://www.w3.org/2000/svg" viewBox="0 0 479.43 389.1">
  <defs>
    <style>
      .cls-1, .cls-2, .cls-3, .cls-4, .cls-5, .cls-6, .cls-7, .cls-8, .cls-9 {
        fill: #231f20;
      }

      .cls-1, .cls-2, .cls-4, .cls-7 {
        mix-blend-mode: multiply;
      }

      .cls-1, .cls-3, .cls-6, .cls-10, .cls-11, .cls-12 {
        opacity: .1;
      }

      .cls-13, .cls-14, .cls-15, .cls-16, .cls-17, .cls-18, .cls-11 {
        fill: none;
      }

      .cls-13, .cls-15, .cls-19, .cls-20, .cls-10 {
        mix-blend-mode: soft-light;
      }

      .cls-21 {
        fill: #4f3127;
      }

      .cls-22 {
        fill: #00782a;
      }

      .cls-23, .cls-19, .cls-20, .cls-10, .cls-24, .cls-12 {
        fill: #fff;
      }

      .cls-25 {
        fill: #fae9bd;
      }

      .cls-2 {
        opacity: .05;
      }

      .cls-26 {
        fill: #afbaba;
      }

      .cls-27 {
        fill: #c78f60;
      }

      .cls-4 {
        opacity: .15;
      }

      .cls-14, .cls-19 {
        opacity: .4;
      }

      .cls-15 {
        opacity: .8;
      }

      .cls-28 {
        fill: #cddddd;
      }

      .cls-29 {
        fill: #007600;
      }

      .cls-16 {
        isolation: isolate;
      }

      .cls-30 {
        fill: #faffc4;
      }

      .cls-5, .cls-7, .cls-8, .cls-20, .cls-24 {
        opacity: .2;
      }

      .cls-17 {
        opacity: .6;
      }

      .cls-6, .cls-8, .cls-24, .cls-12 {
        mix-blend-mode: overlay;
      }

      .cls-18 {
        opacity: .5;
      }

      .cls-31 {
        fill: #c02213;
      }

      .cls-32 {
        fill: #8bb713;
      }

      .cls-33 {
        fill: #005600;
      }

      .cls-34 {
        fill: #323233;
      }

      .cls-35 {
        fill: #6d4237;
      }

      .cls-36 {
        fill: #9d7047;
      }

      .cls-37 {
        fill: #9bd61a;
      }

      .cls-38 {
        fill: #0b842d;
      }
    </style>
  </defs>
  <g class="cls-16">
    <g id="Calque_2" data-name="Calque 2">
      <g id="Layer_1" data-name="Layer 1">
        <g id="Pho_bo" data-name="Pho bo">
          <path class="cls-28" d="m420.81,298.8s-.16.4-.5,1.15c-1.11,2.42-4.11,8.47-9.81,16.63-7.69,11.01-20.28,25.83-39.73,40.64-19.28,14.69-42.03,24.07-65.98,27.8-18.8,2.92-39.72,4.11-64.76,4.07-27.23-.03-49.59-2.16-70.18-6.55-23.98-5.11-46.53-15.61-65.58-31.05-12.02-9.75-21.15-19.35-27.96-27.74-5.49-6.78-9.48-12.79-12.25-17.48-3-5.08-4.58-8.61-5.12-9.88,0-.02,0-.02-.02-.03-.14-.33-.21-.51-.21-.51l180.47-2.34h.97s180.67,5.29,180.67,5.29Z"/>
          <path class="cls-4" d="m240.14,293.51h-.97s-119.21,1.89-163.86,2.59c-.08-.15-.16-.31-.24-.46l-16.37.21s.07.19.21.51c0,0,0,0,0,0h-.21c.07,0,.15,0,.22.03,0,0,0,0,0,0,.54,1.27,2.11,4.78,5.11,9.86,0,0,0,.02,0,.02.24.41.5.83.76,1.26,0,.01.01.02.02.03.32.52.65,1.06,1,1.61.03.05.06.1.1.15.33.53.68,1.07,1.04,1.62.05.08.11.16.16.25.35.54.72,1.09,1.1,1.65.07.1.14.2.2.3.38.56.77,1.13,1.18,1.71.07.1.14.19.2.29.42.6.86,1.21,1.31,1.84.03.04.06.09.09.13,1.53,2.11,3.21,4.32,5.08,6.63,0,0,.02.01.02.02,6.8,8.4,15.92,17.98,27.94,27.72,19.05,15.45,41.59,25.94,65.58,31.05,20.6,4.39,42.95,6.52,70.18,6.55,25.05.03,45.97-1.15,64.77-4.07,10.8-1.68,21.34-4.52,31.44-8.47-5.63,1.56-11.37,2.81-17.17,3.71-18.8,2.92-39.72,4.1-64.77,4.07-27.23-.03-49.58-2.16-70.18-6.55-23.99-5.11-46.53-15.6-65.58-31.05-1.74-1.41-3.41-2.81-5.03-4.21,20.99,8.01,39.85,12.61,63.49,16.53,17.82,2.95,40.21,5.16,58.28,5.46,38.83.65,66.82-1.19,103.85-12.95,9.76-3.1,29.87-11.18,39.31-15.14,8.15-3.42,22.38-12.1,32.07-19.84,5.7-8.16,8.7-14.21,9.81-16.63l-180.17-6.44Z"/>
          <g>
            <path class="cls-22" d="m371.54,169.92c-.08,2.38-1.42,4.59-3.71,6.08-.66.43-1.41.82-1.8,1.41-.39.59-.26,1.47.57,1.92-.61.28-1.23.58-1.61,1.03-.22.26-.48.71-.65,1.03-.12.22.04.49.36.62.32.13.68.29.72.38.23.41-.16.82-.59,1.05-.31.16-.64.55-.9.89-.23.31.06.75.58.87.46.1.97.18,1.25.11.38-.1.62-.23,1.06-.2.35.03.71.23.84.48.23.44-.05.83-.38,1.13-.47.43-1.13,1.1-1.5,1.6-.2.27-.43.75-.6,1.11-.13.29.12.63.55.76.48.14,1.07.28,1.47.19.36-.08.61-.2,1.04-.06.28.09.49.28.55.5.18.63-.5,1.04-.51,1.61,0,.24.28.47.51.61.16.1.38.11.51.03.18-.11.41-.26.52-.33.43-.27,1.24.15,1.42.6.18.45,0,.88.04,1.33.02.25.17.53.41.73.24.21.66.2.8-.02.18-.27.49-.56.9-.8.44-.25.81-.1,1.25-.35s.65-.49.63-1.07c.58.74,1.8,1.05,2.43,1.17.24.05.47-.02.58-.17.15-.21.34-.55.4-.9.09-.59-.2-1.21-.49-1.8.41.28,1.04.19,1.56.3.33.07.96.27,1.12.08.17-.21.21-.5.21-.72.04-1.42-.81-2.86-1.39-4.28-.58-1.43-.87-3.02.18-4.11.28-.29.72-.56,1.33-.38.31.09.57.27.73.48.36.46.31.95.29,1.43-.02.4-.02.82.26,1.2.21.29.57.53.77.83.26.38.22.8.17,1.19-.23,2.01-.47,4.02-.7,6.02-.05.4.08.68.43,1.12.18.22.5.5.73.68.15.12.39.14.52.04.14-.1.31-.24.42-.37.24-.28.43-.56.44-.88.54.92.88,1.88,1.01,2.82.03.23.34.43.65.41.63-.04,1.15-.45,1-.93.76.15,1.17.76,1.55,1.28.26.35.64.72.94.99.27.24.7.33,1.04.22.48-.16,1.13-.42,1.44-.72,1.1-1.04,1.68-2.24,1.03-3.64-.34-.72-.9-1.41-1.26-2.12-.36-.72-.51-1.53-.01-2.11l.53.4c.85.75.95,1.13,1.15,1.77.48,1.51.97,3.02,1.45,4.53.13.4.4.78.81,1.09.29.22.58.39.88.52.3.13.65.08.82-.1.24-.24.36-.42.58-.88.25-.52.21-.75-.07-1.18-.2-.32-.19-.66.04-.92.23-.27.13-.34.6-.09.32.17.7.52.84.78.83,1.45,2.5,2.4,4.41,3.21.29.12.81.3,1.17.41.23.07.46,0,.52-.15.1-.28.24-.69.29-.93.33-1.58.07-3.09-1.34-4.54-.16-.17-.22-.37-.12-.54.17-.31.7-.21,1.07-.05.5.23.7.39,1.42.57.26.06.6.07.89.07.31,0,.5-.2.42-.43-.06-.16-.13-.34-.21-.47-.91-1.34-2.54-2.47-4.18-3.45-.33-.19-.6-.44-.76-.71-.69-1.12.87-1.59,2.13-1.39,1.05.17,1.84.52,3,.57.25.01.56-.03.82-.07.31-.05.44-.29.3-.52-.1-.15-.21-.31-.31-.41-.88-.9-2.38-1.66-3.73-2.34-.45-.22-.99-.57-.83-.9.07-.15.33-.29.56-.38.21-.09.26-.3.11-.47-.11-.13-.26-.28-.42-.39-.41-.27-.79-.4-1.28-.42-4.38-.14-9.05-.59-12.91-2.54-.52-.26-1.04-.57-1.23-1.01-.1-.22-.07-.45.09-.61.35-.34,1.05-.28,1.63-.24,2.06.15,2.79.41,5.42,1.65.78.37,2.6.26,3.25.29.27.01.49-.12.52-.31.05-.34.09-.88-.07-1.36.66.37,2.01.77,2.79.89.51.08,1-.05,1.28-.15.14-.05.23-.16.23-.28,0-.23.14-.55.33-.71.37-.32.8-.41,1.34-.38.42.02.9-.16,1.23-.31.27-.13.34-.4.16-.64-.19-.25-.48-.56-.84-.71-.47-.19-.99-.38-1.45-.55-.48-.18-.97-.5-1.05-.87-.02-.08,0-.19.05-.3.08-.21-.1-.46-.41-.55-.42-.13-.96-.27-1.3-.31-1.55-.16-2.97-.34-4.52-.14-.14-.29.14-.67.49-.79.15-.05.37-.1.57-.15.3-.07.47-.15.38-.38-.14-.36-.18-.75-.86-1.25-1.1-.61-2.07-.72-3.16-.62-1.09.1-1.89.29-2.68.77-.45.28-.91.61-1.64.48-.42-.08-.74-.39-.63-.67.13-.33.71-.43,1.13-.59.25-.09.5-.26.7-.41.24-.19.19-.51-.11-.71-.49-.33-1.2-.79-1.6-.92-1.82-.6-4.67-.72-5.58.65-.26-.17-.55-.51-.62-.79-.04-.16-.19-.31-.4-.38-.41-.13-.81-.13-1.25.01-.57.2-.92.61-1.17,1.03-.25.42-.44.87-.82,1.23-.96.94-2.92,1.08-4.68.84-1.76-.24-3.48-.61-5.24-.79Z"/>
            <path class="cls-38" d="m399.26,191.52c-10.06-5.7-19.23-12.92-27.57-20.92-.37-.35.18-.94.55-.57,8.14,8.16,17.11,15.56,27.02,21.49h0Z"/>
            <path class="cls-38" d="m376.48,174.64c-2.99,3.6-4.44,8.42-2.74,12.95-.85-2.17-1.27-4.59-.81-6.95.43-2.36,1.58-4.51,2.91-6.47.3-.44.97.04.64.47h0Z"/>
            <path class="cls-38" d="m378.12,175.68c5.67-2.18,12.02-2.11,17.92-1.1-5.85-.74-12.13-.55-17.59,1.82-.48.23-.82-.51-.33-.72h0Z"/>
            <path class="cls-38" d="m402.26,186.48c-4.4-1.63-9.32-1.57-13.82-2.03,4.51-.07,9.45.54,13.82,2.03h0Z"/>
            <path class="cls-38" d="m388.84,194.16c-1.89-3.32-2.7-7.37-2.41-11.18.02-.12.22-.1.2.03-.35,3.77.39,7.82,2.21,11.15h0Z"/>
            <path class="cls-1" d="m371.94,174.84c6.64-1.81,10.53-1.31,18.14.32,3.91,1.23,5.96,2.39,6.56,4.33.71.32,1.01.41,1.35.46.86.14,1.81.06,2.45.09.27.01.49-.12.52-.31.05-.34.09-.88-.07-1.36.66.37,2.01.77,2.79.89.51.08,1-.05,1.28-.15.14-.05.23-.16.23-.28,0-.23.14-.55.33-.71.37-.32.8-.41,1.34-.38.42.02.9-.16,1.23-.31.27-.13.34-.4.16-.64-.19-.25-.48-.56-.84-.71-.47-.19-.99-.38-1.45-.55-.48-.18-.97-.5-1.05-.87-.02-.08,0-.19.05-.3.08-.21-.1-.46-.41-.55-.42-.13-.96-.27-1.3-.31-1.55-.16-2.97-.34-4.52-.14-.14-.29.14-.67.49-.79.15-.05.37-.1.57-.15.3-.07.47-.15.38-.38-.14-.36-.18-.75-.86-1.25-1.1-.61-2.07-.72-3.16-.62-1.09.1-1.89.29-2.68.77-.45.28-.91.61-1.64.48-.42-.08-.74-.39-.63-.67.13-.33.71-.43,1.13-.59.25-.09.5-.26.7-.41.24-.19.19-.51-.11-.71-.49-.33-1.2-.79-1.6-.92-1.82-.6-4.67-.72-5.58.65-.26-.17-.55-.51-.62-.79-.04-.16-.19-.31-.4-.38-.41-.13-.81-.13-1.25.01-.57.2-.92.61-1.17,1.03-.25.42-.44.87-.82,1.23-.96.94-2.92,1.08-4.68.84-1.76-.24-3.48-.61-5.24-.79-.07,2.3-1.33,4.43-3.46,5.91,1.31-.05,2.61-.63,3.87-.99Z"/>
            <path class="cls-10" d="m400.83,186.09c.46.94-.06,1.87.14,2.83.32,1.58.92,2.06.69,3.29-.03.18-1.42.78-1.55.92-.27.3-.91.32-1.43.14-.51-.17-.92-.5-1.28-.82-1.35-1.21-2.46-2.67-4.3-3.45-.44-.19-.94-.33-1.41-.29-1.15.11-1.32,1.18-1.39,2.03-.05.61-.16,1.22-.53,1.72s-1.06.9-1.9.93c-1.12.03-2.27-.61-2.84-1.38-.57-.77-.65-1.63-.53-2.43s.4-1.56.5-2.36c.21-1.59-.33-3.31-1.51-4.83-.4-.52-.9-1.09-.73-1.61.16-.49.89-.73,1.61-.71.72.02,1.44.26,2.13.49,2.95.98,5.9,1.95,8.84,2.93,2.22.74,4.3.81,5.48,2.6Z"/>
            <path class="cls-10" d="m375.76,183.87c-.07.7.17,1.44.5,2.16.24.53.54,1.06.67,1.6s.1,1.11-.28,1.52c-.61.67-1.96.82-2.56,1.49-.23.25-.33.56-.52.83-.2.27-.54.5-.99.49-.66-.02-1.16-.55-1.41-1.02-.9-1.72-.37-3.51-1.03-5.26-.38-1.01-1.16-1.99-1.37-3.01-.25-1.19.29-2.29.81-3.33.35-.7.72-1.41,1.43-1.92s1.85-.77,2.9-.44c.88.28,1.5.9,2.05,1.49.55.58,1.1,1.16,1.65,1.74.2.22.41.44.48.69.19.68-.66.98-1.21,1.32-.66.41-1.06.97-1.13,1.64Z"/>
          </g>
          <g>
            <path class="cls-22" d="m377.86,160.99c.32-2.15-.58-4.34-2.49-6.03-.55-.49-1.19-.95-1.46-1.54-.27-.59,0-1.36.86-1.63-.53-.35-1.06-.71-1.35-1.17-.16-.27-.33-.71-.44-1.03-.07-.21.12-.43.44-.5.33-.07.69-.16.74-.23.28-.33-.01-.76-.38-1.03-.26-.19-.51-.6-.7-.94-.17-.32.18-.67.69-.69.45-.02.94-.01,1.19.09.34.15.55.3.97.34.33.03.71-.1.87-.3.29-.36.09-.75-.17-1.08-.37-.46-.88-1.16-1.14-1.67-.14-.28-.29-.74-.38-1.09-.08-.28.21-.55.64-.6.47-.06,1.06-.08,1.41.06.32.13.54.27.97.22.28-.04.51-.18.6-.36.28-.54-.3-1.01-.21-1.52.04-.22.34-.38.58-.47.17-.06.37-.04.48.06.15.13.35.3.43.37.36.31,1.19.06,1.43-.32.24-.37.14-.79.26-1.19.06-.22.25-.45.51-.6.26-.15.66-.07.75.14.12.27.37.58.72.85.37.29.75.21,1.11.51.36.3.53.54.42,1.06.67-.57,1.87-.67,2.48-.68.24,0,.44.09.51.24.1.22.23.55.23.87,0,.54-.39,1.05-.76,1.55.43-.18,1.01-.01,1.52-.03.32-.01.95-.1,1.06.1.12.22.11.48.08.68-.2,1.28-1.23,2.44-2.02,3.64s-1.32,2.58-.51,3.72c.22.31.58.61,1.19.55.31-.03.58-.16.77-.32.42-.36.45-.81.51-1.24.04-.36.12-.74.44-1.04.25-.23.62-.39.86-.63.31-.3.34-.69.36-1.04.11-1.84.22-3.68.34-5.52.02-.37.19-.6.59-.94.21-.17.55-.37.8-.5.16-.09.39-.07.5.04.12.11.25.26.33.39.18.29.31.57.27.86.66-.74,1.14-1.55,1.42-2.38.07-.2.39-.34.68-.27.58.13,1.01.58.79.99.74-.02,1.23-.5,1.67-.91.3-.27.72-.55,1.05-.75.29-.17.72-.19,1.01-.04.42.22,1,.56,1.24.87.87,1.1,1.21,2.27.37,3.43-.44.6-1.08,1.12-1.54,1.71-.46.59-.73,1.3-.36,1.89l.57-.28c.92-.55,1.08-.87,1.38-1.42.71-1.28,1.41-2.56,2.12-3.84.19-.34.51-.64.95-.85.31-.15.61-.26.91-.33.3-.07.62.03.76.21.18.26.27.44.4.88.15.5.08.71-.26,1.05-.24.25-.28.56-.12.83.17.28.07.32.55.17.33-.1.74-.36.92-.57,1.02-1.18,2.75-1.78,4.68-2.2.3-.07.81-.14,1.17-.19.23-.03.44.07.46.22.05.26.11.65.12.88.04,1.47-.45,2.79-2.01,3.87-.18.12-.27.3-.21.46.11.31.62.3,1,.2.51-.13.72-.24,1.43-.29.26-.02.58.03.85.07.29.05.43.26.32.45-.08.14-.18.29-.28.39-1.08,1.07-2.8,1.83-4.5,2.46-.34.12-.63.3-.84.52-.84.9.56,1.57,1.78,1.58,1.01,0,1.82-.18,2.91-.05.23.03.52.11.76.19.28.09.37.33.19.51-.11.12-.25.24-.36.32-.98.67-2.51,1.13-3.9,1.53-.46.13-1.03.36-.93.68.05.14.27.31.46.43.18.11.19.31.03.44-.13.1-.29.21-.46.29-.43.18-.81.24-1.27.18-4.14-.55-8.61-.86-12.57.3-.53.16-1.07.35-1.33.72-.13.18-.14.39-.01.56.27.36.94.41,1.5.46,1.96.18,2.7.06,5.37-.65.79-.21,2.49.17,3.1.24.26.03.44.18.44.36,0,.31-.06.8-.29,1.21.68-.23,2.02-.38,2.77-.37.49,0,.93.2,1.18.34.13.07.19.18.17.29-.03.21.04.51.19.69.3.34.69.49,1.19.55.4.04.82.28,1.1.47.23.16.25.41.04.6-.22.2-.54.43-.91.51-.47.1-1,.19-1.45.27-.48.09-1,.3-1.14.62-.03.07-.03.17,0,.28.04.2-.17.4-.48.43-.41.05-.95.1-1.27.08-1.49-.09-2.85-.15-4.28-.57-.18.24.02.62.33.78.13.07.33.15.51.22.27.11.42.21.3.4-.19.3-.3.64-1.02.99-1.14.38-2.06.33-3.07.07-1.01-.25-1.73-.55-2.39-1.11-.38-.32-.76-.69-1.46-.68-.41,0-.76.24-.7.51.06.32.6.5.96.7.22.12.43.31.59.48.2.2.09.48-.22.62-.51.22-1.26.52-1.66.58-1.81.26-4.52-.07-5.14-1.44-.27.11-.6.38-.72.61-.07.14-.23.25-.44.28-.41.06-.79,0-1.17-.2-.5-.26-.76-.68-.93-1.1-.17-.42-.27-.85-.56-1.23-.75-1-2.57-1.42-4.26-1.47s-3.37.02-5.06-.1Z"/>
            <path class="cls-38" d="m407.53,145.84c-10.27,3.76-19.96,9.01-29.03,15.1-.31.22-.66-.28-.33-.49,9.2-5.94,19-11.03,29.36-14.61h0Z"/>
            <path class="cls-38" d="m382.69,157.8c-2.07-3.83-2.41-8.68.17-12.35-2.37,3.76-1.85,8.39.36,12.08.2.34-.36.63-.53.27h0Z"/>
            <path class="cls-38" d="m385.35,156.18c4.82,2.97,10.71,4.16,16.34,4.38-4.3.04-8.63-.67-12.71-2.06-1.36-.48-2.7-1.05-3.95-1.83-.14-.09-.18-.27-.1-.41.09-.14.28-.18.42-.09h0Z"/>
            <path class="cls-38" d="m409.51,150.82c-4.36.66-9.11.47-13.34-.3,4.3.26,8.93,1.1,13.34.3h0Z"/>
            <path class="cls-38" d="m398.15,141.87c-2.24,2.67-3.63,6.21-3.92,9.67,0,.13-.2.14-.2,0,.36-3.5,1.81-7.02,4.12-9.68h0Z"/>
            <path class="cls-1" d="m379.06,156.63c5.94,2.65,9.69,2.8,17.12,2.5,3.89-.51,6.01-1.23,6.89-2.89.73-.18,1.02-.21,1.35-.21.83,0,1.71.23,2.32.3.26.03.44.18.44.36,0,.31-.06.8-.29,1.21.68-.23,2.02-.38,2.77-.37.49,0,.93.2,1.18.34.13.07.19.18.17.29-.03.21.04.51.19.69.3.34.69.49,1.19.55.4.04.82.28,1.1.47.23.16.25.41.04.6-.22.2-.54.43-.91.51-.47.1-1,.19-1.45.27-.48.09-1,.3-1.14.62-.03.07-.03.17,0,.28.04.2-.17.4-.48.43-.41.05-.95.1-1.27.08-1.49-.09-2.85-.15-4.28-.57-.18.24.02.62.33.78.13.07.33.15.51.22.27.11.42.21.3.4-.19.3-.3.64-1.02.99-1.14.38-2.06.33-3.07.07-1.01-.25-1.73-.55-2.39-1.11-.38-.32-.76-.69-1.46-.68-.41,0-.76.24-.7.51.06.32.6.5.96.7.22.12.43.31.59.48.2.2.09.48-.22.62-.51.22-1.26.52-1.66.58-1.81.26-4.52-.07-5.14-1.44-.27.11-.6.38-.72.61-.07.14-.23.25-.44.28-.41.06-.79,0-1.17-.2-.5-.26-.76-.68-.93-1.1-.17-.42-.27-.85-.56-1.23-.75-1-2.57-1.42-4.26-1.47s-3.37.02-5.06-.1c.31-2.07-.52-4.18-2.28-5.84,1.23.25,2.35.97,3.47,1.48Z"/>
            <path class="cls-10" d="m408.1,150.96c.59-.78.26-1.69.6-2.52.56-1.37,1.2-1.71,1.2-2.85,0-.16-1.21-.92-1.31-1.06-.21-.31-.81-.43-1.32-.35-.51.08-.94.3-1.34.54-1.47.88-2.75,2.02-4.62,2.44-.45.1-.94.15-1.37.05-1.07-.27-1.05-1.26-.97-2.03.06-.55.05-1.12-.22-1.63-.27-.51-.84-.97-1.63-1.12-1.05-.2-2.24.2-2.9.8-.66.6-.88,1.37-.9,2.1-.03.73.12,1.46.08,2.19-.07,1.46-.86,2.93-2.23,4.11-.47.4-1.03.84-.96,1.34.07.46.72.79,1.4.88s1.4-.01,2.09-.11c2.94-.42,5.87-.85,8.81-1.27,2.21-.32,4.18-.07,5.59-1.49Z"/>
            <path class="cls-10" d="m384.14,149.11c.05-.64.4-1.27.83-1.86.32-.44.68-.87.9-1.34.22-.47.28-.98-.01-1.41-.46-.69-1.71-1.03-2.16-1.73-.17-.26-.21-.56-.35-.83s-.42-.54-.85-.59c-.62-.08-1.18.31-1.49.7-1.13,1.4-.93,3.1-1.84,4.56-.53.85-1.42,1.61-1.79,2.49-.43,1.03-.11,2.1.21,3.12.21.68.44,1.38,1.02,1.94.58.57,1.62.98,2.66.84.88-.12,1.56-.58,2.18-1.02.61-.44,1.23-.87,1.84-1.31.23-.16.46-.33.57-.54.29-.58-.45-.98-.92-1.37-.55-.47-.83-1.03-.79-1.64Z"/>
          </g>
          <g>
            <path class="cls-22" d="m361.94,158.95c-.41-2.41.34-4.92,2.08-6.93.5-.58,1.1-1.14,1.32-1.82.22-.68-.07-1.53-.9-1.79.49-.42.98-.86,1.23-1.4.14-.31.28-.82.37-1.19.06-.24-.14-.48-.45-.54-.32-.06-.66-.14-.72-.22-.28-.36-.03-.85.32-1.18.24-.23.46-.7.62-1.1.15-.37-.2-.74-.7-.74-.43,0-.9.04-1.13.17-.32.18-.51.37-.91.44-.31.05-.68-.07-.85-.29-.29-.39-.13-.84.11-1.22.33-.54.79-1.36,1.01-1.94.12-.32.24-.85.31-1.25.06-.32-.23-.61-.64-.64-.46-.04-1.01-.03-1.35.14-.3.16-.5.34-.92.3-.27-.02-.5-.17-.59-.37-.29-.59.24-1.15.13-1.73-.05-.25-.35-.41-.58-.5-.16-.06-.36-.03-.46.09-.13.15-.32.36-.39.44-.33.37-1.14.13-1.39-.28s-.18-.89-.31-1.32c-.07-.24-.26-.49-.51-.64-.26-.15-.63-.05-.71.2-.1.31-.32.67-.64,1-.34.35-.71.28-1.04.64-.33.35-.48.64-.35,1.21-.67-.61-1.82-.64-2.41-.62-.23,0-.42.13-.48.3-.09.25-.2.63-.17,1,.03.61.43,1.17.81,1.7-.42-.18-.96.04-1.46.05-.31,0-.91-.05-1.01.18-.11.25-.08.54-.04.77.25,1.43,1.3,2.68,2.11,3.98.81,1.3,1.39,2.83.67,4.16-.19.36-.53.72-1.11.68-.29-.02-.56-.14-.75-.32-.42-.38-.47-.88-.55-1.36-.06-.4-.15-.83-.47-1.15-.25-.24-.62-.41-.85-.66-.31-.33-.36-.75-.4-1.16-.2-2.07-.4-4.13-.59-6.2-.04-.41-.21-.67-.61-1.02-.21-.18-.55-.39-.79-.52-.16-.09-.37-.05-.47.07-.11.14-.23.31-.3.46-.16.34-.27.66-.21.98-.67-.8-1.17-1.68-1.47-2.6-.07-.23-.39-.36-.66-.26-.55.18-.94.71-.71,1.16-.71.03-1.2-.5-1.64-.93-.3-.29-.72-.58-1.04-.78-.29-.18-.7-.17-.97.02-.4.27-.93.68-1.14,1.05-.77,1.29-1.04,2.62-.18,3.88.45.65,1.08,1.2,1.56,1.84.47.64.76,1.42.44,2.11l-.56-.28c-.91-.56-1.07-.92-1.39-1.52-.74-1.4-1.48-2.8-2.22-4.21-.19-.37-.52-.69-.95-.91-.3-.15-.59-.26-.89-.32-.29-.06-.6.07-.71.28-.16.3-.24.51-.34,1.02-.12.58-.04.8.3,1.17.25.27.3.62.15.93-.15.33-.05.37-.52.23-.32-.1-.73-.36-.91-.59-1.03-1.27-2.72-1.84-4.59-2.21-.29-.06-.78-.11-1.13-.15-.22-.02-.42.1-.43.27-.03.3-.07.74-.07,1,.03,1.66.56,3.11,2.12,4.25.18.13.27.32.22.51-.09.35-.58.37-.94.29-.49-.12-.7-.23-1.38-.25-.25,0-.56.06-.81.13-.27.08-.4.31-.29.52.08.15.18.31.28.42,1.08,1.14,2.77,1.9,4.43,2.51.33.12.62.3.83.54.84.97-.46,1.8-1.62,1.88-.97.07-1.75-.1-2.79.11-.22.05-.49.15-.72.26-.26.12-.34.39-.16.59.12.13.25.26.36.34.97.7,2.46,1.13,3.81,1.5.45.12,1,.35.92.71-.04.16-.24.36-.42.51-.17.14-.17.36,0,.5.13.11.29.22.46.3.42.18.79.22,1.23.13,3.94-.86,8.2-1.47,12.05-.39.51.14,1.04.33,1.31.73.13.2.16.43.04.63-.24.42-.88.52-1.41.61-1.87.31-2.58.22-5.17-.42-.77-.19-2.38.33-2.96.45-.25.05-.42.23-.4.43.02.35.09.9.34,1.35-.66-.22-1.95-.31-2.67-.26-.47.04-.88.28-1.11.45-.12.08-.17.21-.15.33.04.23-.01.58-.15.78-.27.4-.63.59-1.12.69-.38.07-.77.36-1.03.59-.22.19-.22.48-.01.68.22.21.54.45.9.52.46.09.97.16,1.4.22.46.07.97.28,1.12.63.03.08.03.2.02.31-.03.23.19.44.48.46.4.03.91.06,1.22.02,1.42-.19,2.72-.33,4.07-.89.19.26.01.7-.28.9-.12.08-.31.19-.48.28-.25.13-.39.26-.26.47.2.33.32.71,1.02,1.05,1.11.37,1.99.25,2.94-.09s1.63-.72,2.24-1.38c.35-.38.69-.82,1.37-.85.39-.02.74.23.7.53-.05.36-.55.6-.89.84-.21.15-.4.37-.54.57-.18.24-.07.55.24.69.5.22,1.23.52,1.62.56,1.74.19,4.32-.34,4.85-1.92.27.11.59.39.72.65.07.15.23.27.44.29.39.04.75-.05,1.11-.3.47-.33.7-.82.84-1.29.14-.48.22-.97.48-1.42.67-1.17,2.39-1.74,4.01-1.9s3.23-.18,4.84-.4Z"/>
            <path class="cls-38" d="m332.8,143.61c10.27,3.48,19.91,8.67,28.9,14.72.43.28-.02.95-.44.66-8.81-6.24-18.29-11.65-28.45-15.37h0Z"/>
            <path class="cls-38" d="m356.53,155.37c1.95-4.33,2.31-9.39-.14-13.62,1.23,2.03,2.08,4.37,2.15,6.8.1,2.43-.48,4.83-1.27,7.11-.07.21-.3.32-.5.24-.22-.07-.32-.32-.24-.53h0Z"/>
            <path class="cls-38" d="m354.96,154.55c-4.56,3.43-10.26,4.95-15.85,5.31,5.45-.59,11.1-2.4,15.33-5.91.39-.37.94.27.52.6h0Z"/>
            <path class="cls-38" d="m331.15,149.34c4.25.49,8.48-.38,12.62-1.29.11-.02.21.04.24.15.02.11-.05.22-.16.24-4.17.78-8.46,1.52-12.7.9h0Z"/>
            <path class="cls-38" d="m341.58,138.6c1.93,2.2,3.04,5.01,3.93,7.76.28.94.51,1.89.59,2.89,0,.11-.07.2-.18.21-.11,0-.2-.07-.21-.18-.41-3.78-1.79-7.66-4.13-10.68h0Z"/>
            <path class="cls-1" d="m360.58,154.12c-5.56,3.32-9.14,3.71-16.27,3.8-3.74-.35-5.81-1.04-6.74-2.85-.7-.16-.98-.18-1.3-.16-.8.06-1.63.36-2.21.47-.25.05-.42.23-.4.43.02.35.09.9.34,1.35-.66-.22-1.95-.31-2.67-.26-.47.04-.88.28-1.11.45-.12.08-.17.21-.15.33.04.23-.01.58-.15.78-.27.4-.63.59-1.12.69-.38.07-.77.36-1.03.59-.22.19-.22.48-.01.68.22.21.54.45.9.52.46.09.97.16,1.4.22.46.07.97.28,1.12.63.03.08.03.2.02.31-.03.23.19.44.48.46.4.03.91.06,1.22.02,1.42-.19,2.72-.33,4.07-.89.19.26.01.7-.28.9-.12.08-.31.19-.48.28-.25.13-.39.26-.26.47.2.33.32.71,1.02,1.05,1.11.37,1.99.25,2.94-.09s1.63-.72,2.24-1.38c.35-.38.69-.82,1.37-.85.39-.02.74.23.7.53-.05.36-.55.6-.89.84-.21.15-.4.37-.54.57-.18.24-.07.55.24.69.5.22,1.23.52,1.62.56,1.74.19,4.32-.34,4.85-1.92.27.11.59.39.72.65.07.15.23.27.44.29.39.04.75-.05,1.11-.3.47-.33.7-.82.84-1.29.14-.48.22-.97.48-1.42.67-1.17,2.39-1.74,4.01-1.9s3.23-.18,4.84-.4c-.4-2.32.29-4.74,1.9-6.71-1.16.35-2.2,1.23-3.25,1.87Z"/>
            <path class="cls-10" d="m332.51,149.41c-.6-.84-.33-1.89-.69-2.81-.6-1.51-1.23-1.85-1.29-3.14,0-.18,1.11-1.1,1.2-1.27.19-.36.75-.53,1.24-.47.49.06.92.29,1.31.53,1.45.91,2.73,2.11,4.54,2.48.43.09.91.12,1.32-.03,1.01-.37.94-1.48.83-2.35-.08-.62-.11-1.25.13-1.85.23-.59.76-1.14,1.51-1.36.99-.29,2.15.09,2.82.73.66.64.91,1.49.97,2.32.06.82-.04,1.65.03,2.48.14,1.64.97,3.25,2.33,4.5.47.43,1.03.89.98,1.45-.05.52-.65.94-1.29,1.08-.65.14-1.34.07-2,0-2.83-.31-5.66-.62-8.49-.93-2.13-.23-4.01.17-5.42-1.36Z"/>
            <path class="cls-10" d="m355.35,145.94c-.08-.72-.45-1.41-.88-2.05-.33-.48-.7-.94-.93-1.45-.23-.51-.31-1.09-.06-1.59.41-.81,1.59-1.26,1.98-2.08.15-.31.18-.64.3-.95.12-.31.38-.63.78-.71.59-.13,1.15.29,1.46.7,1.16,1.51,1.04,3.43,1.99,5.03.55.93,1.44,1.73,1.84,2.7.46,1.13.21,2.36-.05,3.53-.17.78-.35,1.58-.88,2.25-.53.67-1.5,1.2-2.5,1.1-.84-.08-1.52-.57-2.13-1.03-.61-.46-1.22-.91-1.83-1.37-.23-.17-.46-.35-.57-.58-.31-.64.39-1.13.81-1.6.51-.56.75-1.21.67-1.9Z"/>
          </g>
          <path class="cls-26" d="m239.76,359.05c-62.6,0-121.69-14.69-166.38-41.36-22.46-13.4-40.22-29.18-52.77-46.9C6.99,251.59.09,231.01.09,209.63s6.9-41.96,20.51-61.15c12.56-17.72,30.31-33.5,52.77-46.9,44.69-26.67,103.78-41.36,166.38-41.36s121.69,14.69,166.38,41.36c22.46,13.4,40.22,29.18,52.77,46.9,13.61,19.2,20.51,39.77,20.51,61.15s-6.9,41.96-20.51,61.15c-12.56,17.72-30.31,33.5-52.77,46.9-44.69,26.67-103.78,41.36-166.38,41.36Z"/>
          <path class="cls-7" d="m411.69,311.35c-44.69,26.67-103.78,41.36-166.38,41.36s-121.69-14.69-166.38-41.36c-22.46-13.4-40.22-29.18-52.77-46.9-13.61-19.2-20.51-39.77-20.51-61.15s6.9-41.96,20.51-61.15c1.9-2.68,3.93-5.31,6.07-7.9-4.26,4.59-8.14,9.34-11.62,14.24C6.99,167.68.09,188.25.09,209.63s6.9,41.96,20.51,61.15c12.56,17.72,30.31,33.5,52.77,46.9,44.69,26.67,103.78,41.36,166.38,41.36s121.69-14.69,166.38-41.36c19.06-11.38,34.72-24.47,46.71-39-11.14,12.02-24.91,22.96-41.16,32.66Z"/>
          <path class="cls-28" d="m463.57,209.64c0,2.65-.13,5.28-.39,7.89-6.84,70.09-104.25,125.67-223.42,125.67S30.82,291.87,17.55,225.68c-1.05-5.26-1.6-10.61-1.6-16.04,0-73.77,100.2-133.56,223.81-133.56s223.81,59.79,223.81,133.56Z"/>
          <path class="cls-2" d="m124.46,119.9c28.43-33.4,71.57-37.63,114.54-41.55,3.19-.29,6.59-1.46,10.21-2.15-3.14-.08-6.29-.13-9.46-.13-123.61,0-223.81,59.79-223.81,133.56,0,5.43.55,10.78,1.6,16.04,5.25,26.16,23.18,49.99,50,69.26-1.13-3.16-2.12-6.39-2.91-9.72-15.06-64.2,23.37-116.96,59.83-165.31Z"/>
          <path class="cls-27" d="m459.3,232.08c-7.84,28.76-31.06,54.42-64.46,73.9-.03.02-.06.04-.09.06-1.13.67-2.29,1.32-3.46,1.97-.09.05-.18.1-.28.15-1.28.72-2.59,1.43-3.91,2.12-.66.35-1.32.7-1.99,1.05-2.16,1.13-4.37,2.22-6.6,3.3-1.2.57-2.42,1.14-3.64,1.7-.06.02-.11.05-.17.08-1.28.59-2.58,1.17-3.88,1.74-.06.02-.13.05-.19.08-.71.31-1.43.62-2.15.93-.72.31-1.44.61-2.16.91-.72.3-1.43.59-2.16.89-1.22.49-2.44.98-3.67,1.46-.54.21-1.09.42-1.63.63-3.58,1.37-7.23,2.68-10.95,3.92-1.24.42-2.5.83-3.76,1.24-.71.23-1.43.46-2.16.68-.68.21-1.37.43-2.06.63-1.21.37-2.43.73-3.65,1.09-.72.21-1.44.42-2.17.63-.8.23-1.61.45-2.43.67-.21.06-.44.12-.66.18-1.4.38-2.82.75-4.24,1.12-2.61.67-5.25,1.31-7.91,1.93-.69.16-1.38.32-2.07.47-1.72.38-3.46.75-5.2,1.12-.81.17-1.62.33-2.44.49-2.56.52-5.15,1-7.76,1.45-4.42.78-8.9,1.47-13.44,2.08-.81.11-1.62.21-2.43.32-.63.09-1.26.17-1.89.24-.68.09-1.37.17-2.05.25-.48.06-.97.11-1.45.17-.9.1-1.81.2-2.71.29-.9.1-1.8.19-2.69.28-2,.2-4,.37-6.02.53-1.3.11-2.6.21-3.91.29-1.13.09-2.27.16-3.4.23-.79.05-1.59.1-2.39.13-.4.02-.81.05-1.21.06-.82.05-1.63.09-2.45.12-.61.03-1.21.06-1.81.08-.74.03-1.47.06-2.2.08-.86.03-1.72.06-2.58.08-3.44.1-6.9.14-10.37.14-1.63,0-3.24,0-4.85-.03-.94,0-1.86-.02-2.79-.05-.25,0-.48,0-.73-.02-.59,0-1.18-.02-1.77-.04h-.03c-1.44-.04-2.88-.09-4.3-.14-1.32-.05-2.65-.1-3.96-.17-.53-.02-1.06-.05-1.59-.08-.07,0-.13,0-.2,0-1.16-.06-2.31-.13-3.47-.21-.2,0-.39-.02-.59-.04-1.14-.06-2.27-.14-3.4-.23-.04,0-.08,0-.11,0-.71-.05-1.43-.1-2.13-.17-.9-.06-1.8-.14-2.69-.22-.69-.06-1.39-.12-2.08-.19-.94-.08-1.89-.17-2.82-.27-.59-.06-1.19-.12-1.78-.18-2.18-.23-4.34-.48-6.5-.75-.79-.1-1.58-.19-2.36-.3-1.22-.15-2.43-.32-3.64-.49-.06,0-.13-.02-.19-.02-1.43-.21-2.85-.41-4.27-.63-1.16-.18-2.33-.36-3.49-.56-.52-.08-1.05-.17-1.56-.25-.05,0-.09-.02-.13-.02-1.11-.19-2.21-.38-3.31-.58-.27-.05-.54-.1-.81-.14-1.3-.24-2.6-.48-3.89-.74-1.2-.24-2.41-.48-3.61-.73-.59-.12-1.17-.24-1.77-.36-2.44-.52-4.87-1.05-7.27-1.62-.49-.11-.98-.23-1.47-.35-.78-.18-1.55-.37-2.31-.57-.23-.05-.45-.1-.67-.17-.55-.13-1.09-.27-1.62-.41-3.88-.99-7.7-2.04-11.47-3.16-1.24-.37-2.49-.75-3.72-1.13-1-.31-2-.63-2.99-.95-.55-.17-1.11-.36-1.66-.54-.78-.26-1.57-.52-2.35-.79-.54-.17-1.08-.36-1.62-.55-.78-.27-1.58-.55-2.35-.82-.68-.24-1.35-.48-2.02-.73-2.37-.86-4.71-1.75-7.02-2.66-1.1-.43-2.19-.87-3.27-1.32-1.2-.49-2.4-1-3.59-1.51-.04-.02-.08-.03-.13-.06-1.21-.52-2.43-1.05-3.62-1.59-.03,0-.06-.02-.08-.03-1.18-.53-2.35-1.06-3.51-1.6-1.18-.55-2.36-1.11-3.53-1.68-.43-.21-.85-.41-1.27-.62-.74-.36-1.47-.73-2.2-1.1-.57-.29-1.15-.58-1.71-.87-.56-.29-1.13-.59-1.7-.89-.57-.29-1.13-.59-1.69-.9-.55-.29-1.11-.59-1.66-.9-1.66-.91-3.3-1.83-4.91-2.77-.54-.31-1.07-.63-1.6-.94-7.98-4.74-15.38-9.84-22.1-15.26-.45-.36-.9-.72-1.34-1.09-2.37-1.95-4.65-3.94-6.84-5.96-.27-.25-.53-.49-.78-.74-.35-.32-.69-.64-1.02-.97-.32-.31-.65-.62-.97-.93-.52-.5-1.01-1-1.51-1.5-.41-.4-.82-.82-1.21-1.23-5.38-5.52-10.11-11.29-14.14-17.28-.24-.36-.48-.72-.71-1.08-.28-.42-.55-.85-.82-1.28-.27-.43-.54-.86-.8-1.28-.56-.9-1.09-1.8-1.62-2.7-1.22-2.13-2.35-4.28-3.4-6.45-.09-.17-.17-.33-.24-.51-.19-.37-.36-.75-.54-1.13-.16-.34-.31-.68-.46-1.03-3.89-9.01-5.31-18.88-3.8-28.61,1.37-8.81,4.41-15.58,9.07-23.18,8.94-14.61,20.3-27.72,33.4-38.74,17.96-15.11,39.28-25.35,61.11-33.36.88-.33,1.77-.65,2.66-.97,0,0,0,.02-.01.02,33.65-12.07,73.03-19.04,115.15-19.04,106.87,0,196.24,44.69,218.49,104.46,3.19,8.57,3.6,17.92,1.19,26.75Z"/>
          <path class="cls-31" d="m93.43,163.54c-2.26.93-4.28,2.38-6.14,4.17,0,0-16.66,18.04-1.24,40.08s36.45,4.65,48.66,6.4c12.2,1.75,20.38,5.14,20.38,5.14,0,0-4.84-10.71-20.24-11.88-15.4-1.17-27.43,7.09-35.97-5.98-8.54-13.07-4.83-25.24-1.87-31.91,2.96-6.66-3.57-6.02-3.57-6.02Z"/>
          <path class="cls-3" d="m134.85,207.45c-5.16-.39-9.95.28-14.35.85-.51,1.02-1.14,1.87-1.97,2.42-7.93,4.76-16.64,3.17-23.78-1.59-9.31-6.02-12.19-15.45-14.91-25.15-1.02,6.67-.03,14.91,6.2,23.81,15.42,22.04,36.46,4.65,48.66,6.4,12.2,1.75,20.38,5.14,20.38,5.14,0,0-4.84-10.71-20.24-11.88Z"/>
          <path class="cls-31" d="m300.02,107.31c-20.85-6.51-30.7,12.13-38.83,21.94-.46.55-.15,1.39.56,1.51,2.27.39,4.21.27,8.13-1.75,1.95-1.01,3.76-2.29,5.36-3.79,5.13-4.81,10.17-7.96,18.48-5.08,14.75,5.12,19.25,17.03,20.99,24.11,1.73,7.08,6.51,2.58,6.51,2.58,1.27-2.39,2.06-4.75,2.32-7.05,0,0,2.16-24.47-23.52-32.48Z"/>
          <path class="cls-3" d="m313.51,133.04c-7.35-16.18-24.3-17.97-37.91-13.13-1.98.7-4.21.1-5.53-1.53-.1-.12-.16-.21-.16-.24-3.29,3.86-6.09,7.94-8.72,11.11-.46.56-.15,1.41.57,1.53,2.26.39,4.2.27,8.12-1.75,1.96-1.01,3.76-2.29,5.37-3.79,5.13-4.81,10.17-7.96,18.48-5.07,14.75,5.12,19.25,17.03,20.99,24.11,1.73,7.08,6.51,2.58,6.51,2.58.39-.73.73-1.46,1.02-2.18-3.7-2.82-6.22-7.22-8.74-11.62Z"/>
          <path class="cls-36" d="m63.36,194.42c3.6-3.81,9.97-1.12,9.7,4.11-.4,7.8-.03,17.5,3.44,23.08,6.48,10.41,15.38,16.62,15.11,22.83-.27,6.21-15.65,26.98-34,19.43-18.35-7.55-23.74-16.46-15.11-36.7,5.49-12.87,13.6-25.08,20.85-32.75Z"/>
          <path class="cls-3" d="m79.69,259.06c-12.68,5.55-27.74-1.59-30.12-14.27-3.72-20.08,5.13-40.17,21.96-50.42-2.06-2.12-5.74-2.51-8.17.05-7.26,7.67-15.36,19.89-20.85,32.75-8.63,20.24-3.24,29.14,15.11,36.7,10.94,4.5,20.82-1.06,27.08-7.61-1.61,1.06-3.26,2.03-5,2.8Z"/>
          <path class="cls-29" d="m191.34,217.78c-1.04-1.97-2.91-3.49-5.06-4.11-2.15-.61-4.54-.31-6.47.81-2.36,1.38-3.96,3.87-6.42,5.07-2,.97-4.3.98-6.52,1.02-2.22.04-4.55.18-6.44,1.35-3.25,2.02-2.68,6.54-1.48,9.62,1.31,3.35,3.94,6.17,7.18,7.74,4.44,2.14,9.83,1.98,14.31-.06,4.49-2.04,8.06-5.84,10.21-10.28,1.69-3.49,2.49-7.75.68-11.17Zm-11.05,17.52c-.49,1.05-1.83,1.48-2.97,1.24-1.13-.23-2.09-.98-2.93-1.77-1.38-1.29-2.58-2.47-4.49-2.86-1.25-.26-2.61-.12-3.83-.53-2.58-.86-2.74-4.67-.19-5.82,1.65-.74,3.54.05,5.21.73s3.73,1.23,5.16.12c1.54-1.19,1.48-3.65,2.92-4.96.87-.79,2.23-.99,3.29-.48s1.75,1.7,1.67,2.87c-.19,2.75-3.92,4.21-4.12,6.96-.11,1.52.93,3.11.29,4.49Z"/>
          <path class="cls-5" d="m167.96,234.83c-4.01-1.2-7.22-4.2-5.83-9.06,0-2.23.7-3.76,1.86-5.01-1.26.17-2.47.49-3.54,1.16-3.25,2.02-2.68,6.54-1.48,9.62,1.31,3.35,3.94,6.17,7.18,7.74,4.44,2.14,9.83,1.98,14.31-.06.85-.39,1.66-.86,2.44-1.36-4.47.91-8.34,1.01-11.93-1.6-.9-.65-1.93-1.12-3-1.44Z"/>
          <g>
            <g class="cls-14">
              <path class="cls-25" d="m203.87,293.38c-.56.08-1.1.15-1.64.22-7.13.85-13.29.51-18.82-1.06-7.14-2.02-13.12-6.17-16.84-11.67-4.46-6.61-5.37-14.96-2.37-21.78,3.48-7.9,11.91-12.68,20.06-11.38,3.46.56,5.81,3.81,5.26,7.27-.55,3.46-3.81,5.81-7.27,5.26-2.38-.38-5.33,1.43-6.44,3.96-1.23,2.78-.72,6.63,1.27,9.57,2.04,3.03,5.52,5.36,9.78,6.56,3.89,1.1,8.42,1.32,13.86.67,5.6-.67,15.85-2.88,21.5-10.17,2.42-3.12,3.99-7.13,5.66-11.37,1.65-4.21,3.36-8.57,6.09-12.65,5.42-8.12,14.06-13.72,23.68-15.36,9.67-1.65,19.63.77,27.44,6.63,2.8,2.1,3.37,6.07,1.27,8.88-2.1,2.8-6.08,3.37-8.88,1.27-4.96-3.72-11.59-5.32-17.7-4.27-6.12,1.04-11.82,4.75-15.27,9.91-1.97,2.95-3.36,6.49-4.83,10.24-1.92,4.89-3.9,9.94-7.43,14.5-7.59,9.79-19.31,13.46-28.38,14.78Z"/>
            </g>
            <g class="cls-11">
              <path class="cls-9" d="m279.27,243.96c-4.96-3.72-11.59-5.32-17.7-4.27-6.12,1.04-11.82,4.75-15.27,9.91-1.74,2.61-3.03,5.68-4.32,8.95.76-1.67,1.58-3.25,2.54-4.69,3.45-5.16,9.16-8.86,15.27-9.91,6.11-1.04,12.73.55,17.7,4.27,2.8,2.1,6.77,1.53,8.88-1.27.83-1.1,1.23-2.38,1.26-3.66-2.19,2.26-5.77,2.6-8.35.66Z"/>
              <path class="cls-9" d="m182.25,260.23c3.46.55,6.71-1.8,7.27-5.26.05-.29.07-.57.07-.86-1.39,1.43-3.43,2.19-5.55,1.85-2.38-.38-5.33,1.43-6.44,3.96-.34.76-.53,1.61-.61,2.49,1.41-1.54,3.5-2.48,5.27-2.19Z"/>
              <path class="cls-9" d="m229.66,255.2c.2-.51.4-1.03.61-1.55-.87,1.94-1.64,3.89-2.39,5.81-.16.4-.32.8-.47,1.2.79-1.74,1.52-3.58,2.26-5.47Z"/>
              <path class="cls-9" d="m234.03,274.34c-7.59,9.79-19.31,13.46-28.38,14.78-.56.08-1.1.15-1.64.22-7.13.85-13.29.51-18.82-1.06-7.14-2.02-13.12-6.17-16.84-11.67-3.92-5.8-5.09-12.94-3.29-19.21-.31.55-.6,1.11-.86,1.69-3,6.82-2.1,15.17,2.37,21.78,3.72,5.51,9.7,9.65,16.84,11.67,5.53,1.56,11.68,1.91,18.82,1.06.54-.06,1.08-.14,1.64-.22,9.07-1.32,20.8-4.99,28.38-14.78,3.15-4.07,5.07-8.53,6.81-12.92-1.33,2.97-2.9,5.9-5.03,8.66Z"/>
            </g>
          </g>
          <g>
            <g class="cls-14">
              <path class="cls-25" d="m260.57,277.04c-1.48,0-2.97-.52-4.17-1.57-2.63-2.31-2.9-6.31-.59-8.95,9.83-11.22,25.17-17.53,40.06-16.44,3.45.25,6.73.86,9.9,1.45,1.95.36,3.79.7,5.62.95,5.1.7,8.84.46,11.78-.75,2.81-1.17,4.94-3.64,5.05-5.88.09-1.76-.8-3.92-1.84-6.42-.78-1.87-1.66-4-2.23-6.3-1.92-7.78.19-16.33,5.51-22.31,5.32-5.99,13.56-9.09,21.51-8.1,3.47.43,5.94,3.6,5.51,7.08-.43,3.48-3.59,5.94-7.08,5.51-3.8-.48-7.91,1.07-10.46,3.94-2.55,2.87-3.6,7.13-2.68,10.85.34,1.37.97,2.88,1.63,4.48,1.42,3.43,3.03,7.31,2.79,11.94-.37,7.21-5.42,13.85-12.86,16.94-5.11,2.12-10.95,2.63-18.37,1.6-2.12-.29-4.19-.68-6.19-1.05-2.97-.55-5.77-1.07-8.52-1.27-10.99-.8-22.34,3.86-29.6,12.15-1.25,1.43-3.01,2.16-4.77,2.16Z"/>
            </g>
            <g class="cls-11">
              <path class="cls-9" d="m326.38,239.42c.93,2.25,1.75,4.22,1.83,5.88,1.39-1.23,2.31-2.77,2.39-4.22.09-1.76-.8-3.92-1.84-6.42-.78-1.87-1.66-4-2.23-6.3-1.19-4.83-.83-9.95.89-14.57-3.63,5.66-4.89,12.77-3.27,19.33.57,2.3,1.45,4.43,2.23,6.3Z"/>
              <path class="cls-9" d="m330.4,258.69c-5.11,2.12-10.95,2.63-18.37,1.6-2.12-.29-4.19-.68-6.19-1.05-2.97-.55-5.77-1.07-8.52-1.27-10.99-.8-22.34,3.86-29.6,12.15-1.25,1.43-3.01,2.16-4.77,2.16-1.48,0-2.97-.52-4.18-1.57-1.51-1.32-2.24-3.21-2.15-5.07-.27.29-.55.58-.82.88-2.31,2.63-2.04,6.64.59,8.95,1.2,1.05,2.69,1.57,4.18,1.57,1.76,0,3.52-.73,4.77-2.16,7.26-8.29,18.61-12.95,29.6-12.15,2.75.2,5.55.72,8.52,1.27,2,.37,4.07.75,6.19,1.05,7.43,1.03,13.26.52,18.37-1.6,5.85-2.43,10.21-7.06,11.99-12.44-2.26,3.29-5.58,6.01-9.62,7.69Z"/>
              <path class="cls-9" d="m351.98,210.54c-3.8-.48-7.91,1.07-10.46,3.94-1.26,1.42-2.16,3.18-2.63,5.05.08-.1.16-.2.25-.3,2.55-2.87,6.65-4.41,10.46-3.94,3.48.44,6.64-2.03,7.08-5.51.02-.2.04-.39.04-.59-1.29,1.03-2.97,1.56-4.74,1.34Z"/>
            </g>
          </g>
          <g>
            <g class="cls-14">
              <path class="cls-25" d="m258.2,336.99c-2.54,0-4.94-1.54-5.92-4.05-1.26-3.27.36-6.94,3.63-8.2,7.34-2.84,14.49-6.34,21.24-10.41,4.02-2.42,8.29-5.41,9.49-9.18,1.45-4.56-2.2-10.08-6.51-12.37-4.73-2.52-11.21-3.04-19.26-1.55-8.66,1.6-16.93,4.79-25.69,8.17-1.82.7-3.64,1.4-5.46,2.09-10.92,4.11-22.72,7.91-35.07,7.91h-.11c-14.4-.03-27.52-5.78-35.11-15.4-2.17-2.75-1.7-6.74,1.05-8.91,2.75-2.17,6.74-1.7,8.91,1.05,5.21,6.6,14.62,10.55,25.18,10.57h.09c10.32,0,20.8-3.41,30.6-7.1,1.79-.68,3.58-1.36,5.37-2.05,8.91-3.43,18.13-6.99,27.94-8.8,10.95-2.03,20.21-1.08,27.53,2.83,10.4,5.54,15.83,17.32,12.63,27.4-2.47,7.79-8.98,12.56-15.03,16.2-7.37,4.44-15.18,8.27-23.21,11.38-.75.29-1.53.43-2.29.43Z"/>
            </g>
            <g class="cls-11">
              <path class="cls-9" d="m280.12,292.77c3.95,2.11,7.33,6.92,6.76,11.21,1.36-1.33,2.42-2.79,2.92-4.38,1.45-4.56-2.2-10.08-6.51-12.37-4.73-2.52-11.21-3.04-19.26-1.55-8.66,1.6-16.93,4.79-25.69,8.17-1.82.7-3.64,1.4-5.46,2.09-10.92,4.11-22.72,7.91-35.07,7.91h-.11c-14.4-.03-27.52-5.78-35.11-15.4-.91-1.15-1.34-2.51-1.36-3.87-.26.15-.52.32-.76.51-2.75,2.17-3.22,6.16-1.05,8.91,7.59,9.62,20.71,15.37,35.11,15.4h.11c12.34,0,24.15-3.8,35.07-7.91,1.82-.69,3.64-1.39,5.46-2.09,8.76-3.38,17.03-6.56,25.69-8.17,8.05-1.49,14.53-.97,19.26,1.55Z"/>
              <path class="cls-9" d="m286.86,319.64c-7.37,4.44-15.18,8.27-23.21,11.38-.75.29-1.53.43-2.29.43-2.54,0-4.94-1.54-5.92-4.05-.28-.73-.41-1.48-.42-2.23-2.67,1.53-3.89,4.82-2.75,7.77.97,2.51,3.37,4.06,5.92,4.05.76,0,1.53-.14,2.29-.43,8.03-3.1,15.83-6.93,23.21-11.38,5.71-3.44,11.84-7.9,14.58-14.96-3.11,4.02-7.36,6.97-11.41,9.41Z"/>
            </g>
          </g>
          <g>
            <g class="cls-17">
              <path class="cls-25" d="m210.54,331.65c-7.96,0-16.67-1.24-25.3-4.8-4.03-1.66-7.77-3.72-11.38-5.71-4.75-2.61-9.23-5.08-13.93-6.44-11.36-3.28-24.27-.12-35.66,2.68-3.4.84-6.83-1.25-7.67-4.65-.83-3.4,1.25-6.83,4.65-7.67,12.29-3.01,27.6-6.76,42.2-2.54,6.06,1.75,11.38,4.68,16.53,7.51,3.46,1.9,6.73,3.7,10.1,5.09,13.53,5.57,27.66,4.07,37.13,1.82,10.97-2.6,22.19-7.48,36.39-15.84,3.02-1.78,6.9-.77,8.68,2.25,1.78,3.02.77,6.9-2.25,8.68-15.34,9.03-27.64,14.35-39.9,17.26-5.43,1.29-12.18,2.36-19.58,2.36Z"/>
            </g>
            <path class="cls-3" d="m272.4,307.28c-15.34,9.03-27.64,14.35-39.9,17.26-5.43,1.29-12.18,2.36-19.58,2.36-7.96,0-16.67-1.24-25.3-4.8-4.03-1.66-7.77-3.72-11.38-5.71-4.75-2.61-9.23-5.08-13.93-6.44-11.36-3.28-24.27-.12-35.66,2.68-3.4.84-6.83-1.25-7.67-4.65-.14-.57-.19-1.14-.17-1.7-1.87,1.49-2.81,3.98-2.2,6.46.83,3.4,4.26,5.48,7.67,4.65,11.39-2.79,24.3-5.96,35.66-2.68,4.71,1.36,9.19,3.83,13.93,6.44,3.61,1.99,7.35,4.05,11.38,5.71,8.63,3.56,17.34,4.8,25.3,4.8,7.39,0,14.14-1.07,19.58-2.36,12.25-2.9,24.56-8.22,39.9-17.26,1.95-1.15,3.05-3.17,3.12-5.27-.23.19-.47.36-.74.52Z"/>
          </g>
          <g>
            <g class="cls-14">
              <path class="cls-25" d="m293.41,233.24c-2.42,0-4.73-1.39-5.78-3.74-1.44-3.19-.02-6.95,3.17-8.39l7.92-3.57c1.89-.85,4.47-2.02,5.28-3.32.97-1.58.29-4.75-.43-8.1-1.03-4.79-2.31-10.76.51-16.49,4.28-8.68,14.66-10.25,19.65-11.01,3.47-.52,6.69,1.86,7.22,5.32.52,3.46-1.86,6.69-5.32,7.22-4.11.62-8.97,1.65-10.18,4.08-.87,1.76-.2,4.89.52,8.21,1.1,5.13,2.48,11.52-1.18,17.44-2.85,4.61-7.66,6.78-10.85,8.22l-7.92,3.57c-.85.38-1.73.56-2.6.56Z"/>
            </g>
            <g class="cls-11">
              <path class="cls-9" d="m315.9,203.12c.74,4.35.93,9.22-1.9,13.81-2.85,4.61-7.66,6.78-10.85,8.22l-7.92,3.57c-.85.38-1.73.56-2.6.56-2.22,0-4.34-1.19-5.49-3.2-.15,1.13,0,2.31.5,3.43,1.06,2.35,3.37,3.74,5.78,3.74.87,0,1.76-.18,2.6-.56l7.92-3.57c3.19-1.44,8.01-3.61,10.85-8.22,3.66-5.92,2.28-12.31,1.18-17.44-.02-.11-.05-.22-.07-.34Z"/>
              <path class="cls-9" d="m330.95,183.96c-.12-.8-.39-1.55-.78-2.21-.35,2.74-2.47,5.03-5.34,5.47-4.11.62-8.97,1.65-10.18,4.08-.87,1.76-.2,4.89.52,8.21.04.18.08.36.12.54-.32-1.95-.4-3.65.16-4.79,1.2-2.43,6.07-3.46,10.18-4.08,3.46-.52,5.84-3.76,5.32-7.22Z"/>
            </g>
          </g>
          <g>
            <path class="cls-21" d="m140.46,224.02c7.44,2.45,12.48,8.31,12.24,14.24-.24,5.94-5.21,12.3-12.29,15.27-7.09,2.97-14.51,3.21-22.56,2.17-3.52-.46-8.61-1.75-11.21-3.53-3.15-2.15-4.4-5.4-4.85-8.53-.53-3.73-.07-7.64,2.33-10.97,1.65-2.29,4.28-4.19,7.49-5.31,2.56-.9,4.78-1.66,7.36-2.51,6.92-2.29,14.06-3.28,21.51-.83Z"/>
            <path class="cls-8" d="m120.22,253.94c-5.55-1.73-11.1-3.46-13.47-7.49-4.4-6.85-.82-14.06,5.58-19.34-.24.08-.48.17-.73.25-3.21,1.12-5.84,3.02-7.49,5.31-2.4,3.32-2.86,7.23-2.33,10.97.45,3.13,1.7,6.37,4.85,8.53,2.6,1.78,7.7,3.07,11.21,3.53,8.05,1.05,15.48.8,22.56-2.17,2.88-1.2,5.39-2.97,7.4-5.04-7.86,4.8-16.81,8.19-27.58,5.44Z"/>
            <path class="cls-35" d="m122.53,252.88c6.85.67,14.19-1,18.91-4.68,4.72-3.68,6.46-9.35,3.86-14.01-1.28-2.28-3.52-4.27-6.34-5.62-6.49-3.11-15.62-2.5-21.84.89-5.55,3.02-9.06,8.11-9.19,13.21-.13,5.24,8.53,9.61,14.61,10.2Z"/>
            <path class="cls-6" d="m120.68,243.22c1.62,1.74,4.59,2.76,7.46,2.57s5.54-1.58,6.71-3.5c.76-1.25.9-2.71.27-4-.91-1.88-3.5-3.25-6.24-3.32-5.48-.13-11.81,4.39-8.21,8.24Z"/>
            <path class="cls-6" d="m145.3,234.19c-1.28-2.28-3.52-4.27-6.34-5.62-6.49-3.11-15.62-2.5-21.84.89-5.54,3.02-9.06,8.11-9.19,13.21-.13,5.24,8.53,9.61,14.61,10.2,6.85.67,14.19-1,18.91-4.68,4.72-3.68,6.46-9.35,3.86-14.01Zm-5.01,13.32c-4.33,3.38-11.07,4.91-17.37,4.3-5.59-.55-13.55-4.56-13.42-9.37.12-4.69,3.35-9.37,8.44-12.14,5.72-3.11,14.11-3.68,20.07-.82,2.59,1.25,4.65,3.07,5.83,5.16,2.39,4.28.79,9.49-3.54,12.87Z"/>
            <path class="cls-21" d="m121.8,242.76c1.36,1.45,3.84,2.31,6.24,2.15,2.41-.16,4.64-1.32,5.62-2.92.64-1.05.75-2.27.23-3.35-.77-1.57-2.93-2.72-5.22-2.77-4.58-.11-9.88,3.67-6.87,6.9Z"/>
            <path class="cls-8" d="m128.84,243.5c-2.4.16-4.89-.7-6.24-2.15-.84-.89-1.03-1.83-.78-2.72-1.06,1.24-1.31,2.73-.01,4.12,1.36,1.45,3.84,2.31,6.24,2.15,2.4-.16,4.64-1.32,5.62-2.92.17-.27.3-.56.39-.85-1.11,1.31-3.09,2.23-5.21,2.37Z"/>
            <g class="cls-15">
              <path class="cls-23" d="m124.69,224.83c8.56-1.58,19.54.29,23.84,8.73-1.03-1.33-2.04-2.63-3.36-3.68-5.7-4.56-13.42-5.35-20.49-5.05h0Z"/>
            </g>
            <path class="cls-24" d="m121.01,234.39c-1.02-.57-1.27-1.69-.77-2.55.56-.95,1.83-1.57,3.14-1.98,3.9-1.22,8.6-.95,12.26.62s6.25,4.36,7.04,7.4c.54,2.1.24,4.33-1.05,6.25-1.29,1.92-3.61,3.49-6.41,4.15-.65.15-1.33.26-2,.17-.67-.09-1.31-.41-1.52-.88-.22-.48.07-1.02.52-1.41s1.05-.67,1.6-.98c1.85-1.05,3.21-2.58,3.64-4.26.59-2.34-.78-4.88-3.4-6.31-1.97-1.07-4.57-1.47-6.98-1.15-1.84.25-4.28,1.95-6.08.94Z"/>
          </g>
          <g>
            <path class="cls-21" d="m220.03,115.81c-8.79,1.92-16.26,8.32-18.51,15.85-.85,2.83-.98,5.87.21,8.53,1.64,3.64,5.53,6.13,9.58,7.89,5.11,2.23,10.82,3.64,16.66,3.55,5.84-.08,11.82-1.73,16.4-5.01,4.58-3.28,7.63-8.26,7.54-13.26-.12-6.56-5.6-10.12-11.03-13.73-5.77-3.83-13.48-5.44-20.85-3.83Z"/>
            <g>
              <path class="cls-8" d="m205.93,140.17c-5.01-7.21-.09-14.43,5.28-20.68-4.68,3.01-8.26,7.36-9.69,12.17-.85,2.83-.98,5.87.21,8.53,1.64,3.64,5.53,6.13,9.58,7.89,5.11,2.23,10.82,3.64,16.66,3.55,5.84-.08,11.82-1.73,16.4-5.01,2.34-1.67,4.27-3.79,5.6-6.13-2.94,3.03-7.07,5.25-11.82,6.69-12.27,3.79-26.09,2.34-32.22-7.01Z"/>
              <path class="cls-21" d="m240.88,119.63c-5.77-3.83-13.48-5.44-20.85-3.83-3.17.69-6.17,1.98-8.81,3.68-5.37,6.26-10.3,13.47-5.28,20.68,6.13,9.35,19.95,10.8,32.22,7.01,4.75-1.44,8.88-3.66,11.82-6.69,1.27-2.24,1.98-4.68,1.94-7.13-.12-6.56-5.6-10.12-11.03-13.73Z"/>
              <path class="cls-35" d="m217.04,124.97c-3.55,2.17-6.25,5.51-6.85,9.16-.6,3.64,1.1,7.51,4.6,9.47,3.05,1.71,7.01,1.85,10.72,1.42,5.11-.59,10.38-2.34,13.65-5.85,3.63-3.9,3.78-11.44-.98-14.46-5.84-3.7-15.04-3.47-21.13.26Z"/>
              <path class="cls-6" d="m238.17,124.7c-5.84-3.7-15.04-3.47-21.13.26-3.55,2.17-6.25,5.51-6.85,9.16-.6,3.64,1.1,7.51,4.6,9.47,3.05,1.71,7.01,1.85,10.72,1.42,5.11-.59,10.38-2.34,13.65-5.85,3.63-3.9,3.78-11.44-.98-14.46Zm.38,14.2c-3.12,3.36-8.14,5.02-13.03,5.59-3.54.41-7.32.28-10.23-1.35-3.34-1.87-4.96-5.56-4.39-9.04.57-3.48,3.15-6.66,6.54-8.74,5.82-3.56,14.59-3.79,20.17-.25,4.55,2.88,4.4,10.08.94,13.8Z"/>
              <path class="cls-6" d="m228.18,128.48c-2.73-.51-5.98.52-7.63,2.41s-1.55,4.49.22,6.1c1.16,1.06,2.96,1.68,4.83,1.67,1.88,0,3.8-.62,5.19-1.67,1.36-1.02,2.2-2.44,2.24-3.84.05-1.79-1.27-3.49-3.31-4.25l-1.55-.42Z"/>
              <path class="cls-21" d="m227.88,129.24c-2.32-.43-5.07.44-6.47,2.04-1.4,1.6-1.32,3.81.18,5.17.98.9,2.51,1.42,4.1,1.42,1.59,0,3.22-.53,4.4-1.41,1.16-.87,1.87-2.07,1.9-3.26.04-1.52-1.08-2.95-2.81-3.61l-1.31-.35Z"/>
              <path class="cls-8" d="m230.69,135.02c-1.18.89-2.81,1.41-4.4,1.41-1.59,0-3.12-.52-4.1-1.42-.96-.87-1.33-2.08-1.12-3.26-1.02,1.54-.84,3.47.52,4.71.98.9,2.51,1.42,4.1,1.42,1.59,0,3.22-.53,4.4-1.41,1-.75,1.67-1.75,1.85-2.78-.32.49-.74.95-1.25,1.33Z"/>
              <g class="cls-15">
                <path class="cls-23" d="m223.46,119.05c7.65-.91,16.9.82,21.38,7.7.6.97,1.06,2.01,1.41,3.08-3.93-8.56-14.21-10.72-22.79-10.78h0Z"/>
              </g>
              <path class="cls-24" d="m218.73,129.63c-.71-.27-1.88-.72-1.85-1.72.02-.68.87-1.79,1.75-2.32.66-.4,3.43-1.62,4.21-1.76,3.12-.57,3.84-.57,6.42-.34,2.62.23,5.05,1.1,7.03,2.53,2.37,1.7,3.57,4.5,3.09,7.19-.48,2.69-2.63,5.18-5.51,6.39-.77.32-1.77.53-2.36.04-.48-.4-.44-1.11-.13-1.65s.84-.96,1.27-1.44c1.48-1.59,1.94-3.81,1.2-5.67-.74-1.86-2.68-3.28-4.94-3.65-1.89-.31-3.85.1-5.63.76-1.3.48-3.14,2.17-4.57,1.63Z"/>
            </g>
          </g>
          <g>
            <path class="cls-32" d="m371.03,215.6c-27.2,15.58-37.27,49.14-22.48,74.96.52.9,1.06,1.78,1.62,2.64l92.52-65.49c-16.4-20.66-46.87-26.31-71.66-12.11Z"/>
            <path class="cls-30" d="m372.53,218.21c-25.66,14.7-35.2,46.46-21.26,70.8.47.81.95,1.61,1.46,2.39l87.42-61.88c-15.5-19.39-44.27-24.68-67.61-11.31Z"/>
            <path class="cls-37" d="m393.06,255.57l.41.15c1.37.64,3.21.58,4.26-.54,1.21-1.29.91-3.29.53-4.98-1.07-4.76-2.05-8.12-3.12-12.88-1.47-4.36-2.07-7.27-4.33-13.63-1.72-3.22-1.85-5.54-5.41-6.53-3.33-.93-8.74,1.16-11.87,2.71-3.14,1.55-5.11,3.22-7.78,5.48-1.89,1.6-4.56,5.67-4.59,8.11-.02,2.03.82,5.28,2.58,6.3,12,6.95,18.38,12.39,29.34,15.8Z"/>
            <path class="cls-2" d="m379.88,222.82c3.45-1.13,7.24-1.18,10.54.15-1.39-2.84-1.76-4.88-5.04-5.8-3.33-.93-8.74,1.16-11.87,2.71s-5.11,3.22-7.78,5.48c-1.89,1.6-4.56,5.67-4.59,8.11-.02,1.85.68,4.7,2.13,5.96-1.22-8.26,9.47-14.19,16.61-16.61Z"/>
            <path class="cls-37" d="m434.31,229.09c-1.82-2.22-3.69-4.47-6.14-5.99s-5.63-2.19-8.33-1.05c-2.89,1.22-4.61,4.16-6.03,6.94-1.87,3.62-3.61,7.31-5.24,11.04-.99,2.28-6.58,12.07-5.04,15.4l33.04-23.39c-.7-1.02-1.49-1.99-2.27-2.94Z"/>
            <path class="cls-37" d="m364.45,270.52c-2.28.68-4.63,1.46-6.32,3.13-1.59,1.57-2.39,3.77-2.71,5.95-.45,3.06,0,6.22,1.21,9.04l34.93-24.72c-9.91,2.43-17.58,3.77-27.11,6.61Z"/>
            <path class="cls-37" d="m402.57,252.73c1.12-1.93,1.92-4.78,2.49-6.02,1.62-3.51,3.24-7.02,4.86-10.53,1.52-3.29,3.04-6.58,4.56-9.87.91-1.97,1.84-4.06,1.61-6.19-.32-2.93-2.85-5.2-5.65-6.16-2.81-.96-5.87-.84-8.86-.72-2.28.09-4.6.2-6.73,1.03-2.13.84-4.06,2.57-4.48,4.78-.3,1.58.18,3.17.65,4.69,2.98,9.57,6.14,19.09,8.97,28.71.35,1.17,1.96,1.35,2.58.27Z"/>
            <path class="cls-2" d="m410.44,213.96c-2.81-.96-5.87-.84-8.86-.72-2.28.09-4.6.2-6.73,1.03-2.13.84-4.06,2.57-4.48,4.78-.3,1.58.18,3.17.65,4.69.02.05.03.1.05.15,4.03-5.19,13.04-6.56,18.46-4.77,2.95.98,4.32,2.61,5.9,4.99.49-1.3.82-2.65.67-4-.32-2.93-2.85-5.2-5.65-6.16Z"/>
            <path class="cls-37" d="m358.59,270.81c1.94.07,3.88-.31,5.8-.7,8.33-1.68,16.62-3.55,24.87-5.62,1.8-.45,5.41-2.11,5.77-4.44.32-2.04-2.38-4.09-3.89-4.8-5.49-2.57-10.77-5.21-15.87-8.19-2.77-1.62-5.55-3.21-8.36-4.77-1.36-.76-2.76-1.52-4.3-1.8-4.23-.76-8.44,2.43-10.27,6.33-1.83,3.89-1.85,8.32-1.83,12.58.02,3.41.21,7.23,2.73,9.5,1.43,1.28,3.4,1.84,5.35,1.91Z"/>
            <path class="cls-2" d="m434.31,229.09c-1.82-2.22-3.69-4.47-6.14-5.99-2.45-1.52-5.63-2.19-8.33-1.05-1.27.54-2.32,1.41-3.21,2.45,7.03-.3,12.9,4.19,16.15,10.22l3.8-2.69c-.7-1.02-1.49-1.99-2.27-2.94Z"/>
            <path class="cls-2" d="m360.57,275.82c-.15-1.55.12-2.9.72-4.21-1.17.5-2.26,1.14-3.16,2.03-1.59,1.57-2.39,3.77-2.71,5.95-.45,3.06,0,6.22,1.21,9.04l5.75-4.07c-.95-2.88-1.53-5.84-1.81-8.74Z"/>
            <path class="cls-2" d="m362.27,240.44c-4.11-.53-8.15,2.59-9.94,6.38-1.83,3.89-1.85,8.32-1.83,12.58.02,3.41.21,7.23,2.73,9.5,1.43,1.28,3.4,1.84,5.35,1.91.77.03,1.53-.02,2.3-.1-8.39-7.83-7.01-22.31,1.38-30.26Z"/>
            <path class="cls-24" d="m403.25,248.17c.84-1.85.97-4.25,1.54-6.2,1.2-4.11,2.81-8.11,4.83-11.92.98-1.85,2.09-3.83,1.78-5.87-.25-1.66-1.45-3.07-2.95-3.83-1.5-.76-3.26-.93-4.96-.75-2.66.28-5.23,1.42-7.24,3.19-.75.66-1.44,1.44-1.68,2.4-.35,1.35.26,2.72.81,3.98,2.4,5.5,3.95,11.39,4.57,17.38.1.98.24,2.19,1.3,2.59.94.35,1.63-.14,2-.96Z"/>
            <path class="cls-24" d="m384.67,247.76c-2.43-1.75-4.76-3.68-7.47-4.96-1.56-.74-3.22-1.25-4.79-1.98-1.57-.72-3.07-1.7-4.03-3.12-.68-1.02-1.04-2.34-.58-3.49.47-1.18,2.17-2.86,3.22-3.6,4.08-2.87,4.92-3.51,8.96-4.54,2.33-.6,3.88-.23,4.81-.09,1.68.26,2.96,2.02,3.72,3.51,1.58,3.1,2.53,6.48,3.46,9.83,1.01,3.6,2.31,7.23,3.05,10.9.3,1.49-.66,2.45-2.24,2.11-1.01-.22-1.96-1.1-2.9-1.52-1.86-.83-3.57-1.86-5.21-3.04Z"/>
            <path class="cls-24" d="m426.37,231c-.84-1.03-1.74-2.05-2.92-2.69-1.58-.86-3.68-.89-5.14.2-1.14.85-1.74,2.2-2.31,3.49-3.08,6.99-6.56,13.81-10.42,20.43-.26.45-.48,1.12-.04,1.38.06.03.12.05.18.07l24.64-17.44c-1.23-1.88-2.57-3.69-3.99-5.43Z"/>
            <path class="cls-24" d="m369.38,272.38c-1.28.32-2.63.68-3.53,1.65-.7.75-1.02,1.78-1.06,2.79-.04,1.01.17,2,.43,2.97.2.77.43,1.53.69,2.28l19.24-13.62c-5.26,1.31-10.51,2.63-15.77,3.94Z"/>
            <path class="cls-24" d="m362.69,266.88c1.26-.32,2.51-1.02,3.75-1.44,1.46-.49,2.94-.93,4.43-1.31,2.95-.75,5.95-1.28,8.97-1.59,2.38-.24,4.81-.35,7.04-1.23.65-.26,1.3-.59,1.75-1.13.46-.53.69-1.29.44-1.93-.35-.88-1.4-1.2-2.32-1.45-5.47-1.49-10.6-4.12-14.96-7.68-1.32-1.08-2.59-2.25-4.11-3.03-1.53-.78-3.4-1.11-4.99-.43-1.26.54-2.2,1.64-2.92,2.8-1.13,1.83-1.84,3.9-2.05,6.01-.22,2.17.07,4.34.36,6.49.2,1.45.41,2.94,1.2,4.16.66,1.03,2.1,2.07,3.43,1.73Z"/>
          </g>
          <path class="cls-7" d="m400.69,250.34c-15.84,11.52-42.14,19.76-58.12,5.14-2.08,11.78-.3,24.13,5.97,35.08.52.9,1.06,1.78,1.62,2.64l6.46-4.57,20.94-14.82.69-.49,6.89-4.88,33.04-23.39,10.25-7.26,1.93-1.36,2.42-1.71,1.34-.95.57-.4c-11.76,3.99-23.28,9.07-34,16.97Z"/>
          <g>
            <path class="cls-22" d="m353.79,169.53c-.59-1.88-.3-3.97.8-5.76.32-.52.71-1.03.8-1.6s-.22-1.22-.89-1.33c.32-.39.65-.79.78-1.25.07-.27.12-.68.15-.99.02-.2-.16-.37-.4-.38-.25-.01-.52-.04-.58-.09-.26-.26-.12-.68.11-.98.16-.21.27-.61.35-.95.07-.31-.24-.57-.61-.51-.33.05-.68.13-.85.26-.22.18-.34.35-.64.45-.23.08-.53.02-.68-.14-.27-.28-.19-.66-.05-.99.19-.46.45-1.17.55-1.66.06-.27.08-.7.1-1.03,0-.26-.25-.46-.56-.44-.35.02-.78.08-1.01.26-.21.16-.34.32-.67.34-.21,0-.4-.08-.49-.23-.29-.44.05-.95-.1-1.39-.06-.19-.31-.29-.5-.34-.13-.03-.28.02-.34.12-.09.14-.2.32-.25.4-.21.33-.85.23-1.09-.07-.24-.3-.24-.69-.38-1.02-.08-.19-.26-.36-.46-.46-.22-.09-.49.03-.52.24-.04.26-.17.57-.38.87-.22.32-.51.3-.72.62-.21.32-.3.56-.13,1.01-.58-.41-1.46-.32-1.91-.23-.17.03-.3.15-.33.29-.04.21-.08.53-.02.81.1.48.46.88.81,1.27-.34-.1-.73.14-1.1.2-.24.04-.7.06-.75.25-.05.21,0,.44.05.62.35,1.11,1.29,2,2.06,2.95.76.95,1.38,2.11.98,3.25-.11.31-.32.63-.77.67-.23.02-.44-.05-.61-.17-.36-.26-.46-.65-.57-1.03-.09-.32-.21-.64-.49-.86-.22-.17-.52-.26-.73-.43-.27-.23-.36-.56-.43-.88-.38-1.63-.77-3.26-1.15-4.88-.08-.33-.23-.51-.58-.75-.18-.12-.46-.25-.66-.33-.13-.05-.29,0-.35.11-.06.12-.14.27-.18.4-.08.29-.13.56-.05.8-.6-.56-1.08-1.21-1.42-1.92-.08-.17-.34-.24-.54-.14-.4.2-.63.67-.41,1-.54.1-.97-.27-1.36-.56-.26-.2-.61-.38-.88-.51-.24-.11-.55-.06-.74.12-.27.26-.63.65-.75.96-.44,1.11-.5,2.21.3,3.12.41.47.96.84,1.39,1.3.43.46.74,1.05.57,1.64l-.46-.16c-.76-.35-.92-.62-1.23-1.06-.72-1.04-1.44-2.08-2.17-3.12-.19-.27-.47-.5-.83-.62-.25-.09-.48-.14-.71-.16-.23-.01-.45.12-.51.3-.09.26-.12.43-.15.85-.03.47.06.64.36.9.22.19.3.46.22.73-.08.28,0,.3-.37.24-.26-.04-.6-.21-.76-.37-.93-.9-2.28-1.18-3.75-1.27-.23-.01-.61,0-.88,0-.17,0-.31.13-.3.27,0,.24.03.6.06.8.21,1.32.78,2.42,2.1,3.16.15.08.24.23.23.38-.03.29-.4.36-.69.33-.39-.04-.56-.11-1.08-.05-.19.02-.42.11-.6.19-.2.09-.27.29-.16.45.08.11.18.23.26.3.95.79,2.33,1.22,3.66,1.52.27.06.51.17.69.34.75.68-.15,1.48-1.03,1.67-.73.16-1.35.11-2.12.39-.16.06-.36.18-.52.28-.19.12-.21.35-.06.49.1.09.22.18.32.23.82.45,2,.63,3.07.78.35.05.8.17.78.47,0,.14-.14.32-.26.45-.11.13-.09.3.05.4.11.07.24.15.38.19.34.1.63.09.95-.03,2.9-1.11,6.09-2.06,9.14-1.61.41.06.83.15,1.08.44.12.14.17.33.1.5-.14.36-.61.51-1.01.64-1.39.45-1.94.45-3.99.22-.61-.07-1.77.52-2.2.68-.18.07-.29.23-.26.38.05.28.17.71.41,1.04-.53-.1-1.52-.04-2.06.08-.35.08-.64.32-.8.48-.08.08-.11.19-.08.28.06.18.06.47-.02.64-.16.35-.42.54-.77.67-.28.1-.55.37-.72.59-.14.18-.11.41.07.54.19.14.46.3.74.32.36.02.75.02,1.1.03.36,0,.77.12.92.38.03.06.05.15.05.25,0,.19.19.33.42.32.31-.02.7-.05.93-.12,1.06-.3,2.03-.56,3-1.15.17.19.09.56-.11.75-.09.08-.21.18-.33.27-.18.13-.27.25-.15.4.19.24.32.53.9.73.89.17,1.55-.02,2.23-.39.69-.38,1.16-.75,1.55-1.35.22-.34.44-.73.94-.83.3-.06.59.1.59.35,0,.29-.35.53-.58.77-.14.14-.26.34-.35.51-.11.21.01.45.26.52.41.12,1,.28,1.3.27,1.35-.04,3.26-.74,3.48-2.06.22.06.5.25.62.44.07.11.21.19.37.18.31-.01.57-.12.81-.36.32-.31.44-.73.49-1.12.05-.4.06-.8.2-1.19.38-1,1.62-1.65,2.84-1.95,1.22-.3,2.44-.49,3.64-.84Z"/>
            <path class="cls-38" d="m329.85,160.43c8.28,1.65,16.23,4.74,23.74,8.56.19.1.27.34.17.53-.1.19-.34.27-.53.17-7.36-4.03-15.18-7.36-23.38-9.26h0Z"/>
            <path class="cls-38" d="m349.18,167.24c1.02-3.67.77-7.7-1.56-10.85,1.19,1.5,2.11,3.26,2.46,5.19.36,1.93.21,3.91-.12,5.82-.04.22-.24.36-.46.32-.23-.04-.37-.27-.32-.49h0Z"/>
            <path class="cls-38" d="m348.06,166.87c-3.08,3.19-7.3,4.99-11.56,5.85,4.08-1.07,8.22-3.14,10.96-6.36.33-.42.97.13.6.52h0Z"/>
            <path class="cls-38" d="m329.24,165.18c3.3-.08,6.42-1.25,9.46-2.43.1-.04.22.01.26.11.04.1-.01.22-.12.26-3.09,1.06-6.3,2.11-9.6,2.05h0Z"/>
            <path class="cls-38" d="m335.97,155.48c2.25,2.14,3.84,5.03,4.7,8.01.02.11-.04.21-.15.24-.11.02-.21-.04-.24-.15-.71-2.93-2.18-5.9-4.31-8.09h0Z"/>
            <path class="cls-1" d="m352.21,165.81c-3.86,3.25-6.55,3.95-11.97,4.79-2.89.13-4.55-.2-5.46-1.55-.55-.05-.77-.04-1.01.02-.6.13-1.2.46-1.63.62-.18.07-.29.23-.26.38.05.28.17.71.41,1.04-.53-.1-1.52-.04-2.06.08-.35.08-.64.32-.8.48-.08.08-.11.19-.08.28.06.18.06.47-.02.64-.16.35-.42.54-.77.67-.28.1-.55.37-.72.59-.14.18-.11.41.07.54.19.14.46.3.74.32.36.02.75.02,1.1.03.36,0,.77.12.92.38.03.06.05.15.05.25,0,.19.19.33.42.32.31-.02.7-.05.93-.12,1.06-.3,2.03-.56,3-1.15.17.19.09.56-.11.75-.09.08-.21.18-.33.27-.18.13-.27.25-.15.4.19.24.32.53.9.73.89.17,1.55-.02,2.23-.39.69-.38,1.16-.75,1.55-1.35.22-.34.44-.73.94-.83.3-.06.59.1.59.35,0,.29-.35.53-.58.77-.14.14-.26.34-.35.51-.11.21.01.45.26.52.41.12,1,.28,1.3.27,1.35-.04,3.26-.74,3.48-2.06.22.06.5.25.62.44.07.11.21.19.37.18.31-.01.57-.12.81-.36.32-.31.44-.73.49-1.12.05-.4.06-.8.2-1.19.38-1,1.62-1.65,2.84-1.95,1.22-.3,2.44-.49,3.64-.84-.57-1.81-.32-3.81.69-5.56-.85.41-1.54,1.22-2.27,1.85Z"/>
            <path class="cls-10" d="m330.28,165.09c-.55-.61-.46-1.47-.85-2.17-.63-1.14-1.15-1.35-1.34-2.37-.03-.15.72-1,.77-1.15.1-.31.51-.5.9-.51.38,0,.73.13,1.06.28,1.21.57,2.32,1.39,3.74,1.49.34.02.71,0,1-.16.73-.4.55-1.28.36-1.96-.13-.48-.22-.99-.11-1.49.11-.5.45-1,.99-1.25.72-.34,1.65-.16,2.23.28s.86,1.09,1,1.74c.14.65.16,1.32.3,1.97.29,1.3,1.1,2.49,2.29,3.34.4.29.89.6.91,1.05.02.42-.39.82-.86,1-.48.18-1.01.2-1.53.21-2.19.06-4.39.12-6.58.18-1.65.04-3.04.56-4.29-.5Z"/>
            <path class="cls-10" d="m347.3,159.85c-.14-.57-.5-1.08-.9-1.54-.3-.35-.64-.68-.87-1.06s-.36-.83-.22-1.26c.22-.69,1.07-1.18,1.28-1.87.08-.26.06-.53.12-.79s.22-.54.51-.65c.44-.17.91.1,1.2.4,1.05,1.08,1.18,2.63,2.08,3.8.52.68,1.29,1.22,1.7,1.96.48.85.42,1.86.36,2.82-.04.64-.09,1.3-.42,1.89-.33.59-1.01,1.12-1.78,1.15-.65.03-1.22-.29-1.74-.59-.52-.3-1.03-.6-1.55-.9-.19-.11-.39-.23-.5-.4-.31-.48.17-.95.44-1.37.32-.5.43-1.05.3-1.59Z"/>
          </g>
          <g>
            <path class="cls-22" d="m363,168.47c.41-2.49-.34-5.1-2.06-7.19-.5-.6-1.09-1.18-1.31-1.89s.07-1.59.89-1.86c-.48-.44-.97-.89-1.22-1.45-.14-.32-.28-.85-.37-1.23-.06-.25.14-.5.44-.56.31-.06.66-.15.72-.22.28-.37.03-.89-.31-1.23-.24-.24-.46-.73-.62-1.14-.14-.38.2-.77.69-.76.43,0,.89.04,1.12.18.31.19.5.39.9.46.31.05.68-.08.84-.3.29-.41.12-.87-.11-1.27-.33-.56-.78-1.4-1-2.02-.12-.33-.23-.88-.31-1.29-.06-.33.23-.63.64-.67.45-.04,1-.03,1.33.15.3.17.5.35.91.31.27-.03.49-.18.59-.39.29-.62-.23-1.2-.13-1.79.05-.25.34-.42.58-.52.16-.07.35-.03.46.09.13.16.31.37.39.46.33.38,1.13.14,1.37-.29s.18-.92.3-1.37c.07-.25.26-.51.51-.67.26-.16.63-.05.71.21.1.32.32.7.64,1.04.34.36.7.29,1.03.66.33.37.48.66.34,1.26.66-.63,1.8-.67,2.39-.64.22.01.41.14.47.31.09.26.19.65.17,1.03-.03.63-.42,1.21-.8,1.76.42-.19.95.04,1.44.05.31,0,.9-.05,1,.18.11.26.08.56.04.8-.25,1.48-1.29,2.78-2.09,4.12-.8,1.34-1.38,2.94-.67,4.31.19.37.52.75,1.1.71.29-.02.56-.15.75-.33.41-.4.47-.92.54-1.41.06-.42.15-.86.47-1.19.25-.25.61-.42.85-.68.3-.34.35-.78.39-1.2.2-2.14.39-4.28.59-6.43.04-.43.21-.69.61-1.06.21-.19.54-.4.78-.54.15-.09.37-.06.47.08.1.14.23.32.3.48.15.35.27.69.21,1.01.66-.82,1.16-1.74,1.46-2.7.07-.23.38-.37.66-.27.54.19.93.74.7,1.2.7.03,1.19-.51,1.63-.96.3-.3.71-.6,1.03-.81.28-.19.69-.18.96.02.39.28.92.71,1.13,1.08.77,1.34,1.03,2.72.18,4.02-.44.67-1.07,1.25-1.54,1.91-.47.66-.76,1.47-.44,2.19l.55-.29c.9-.58,1.06-.95,1.38-1.57.73-1.45,1.46-2.91,2.19-4.36.19-.38.51-.72.94-.94.3-.16.59-.27.88-.33.29-.06.59.07.71.29.16.31.24.53.34,1.05.12.6.04.83-.3,1.21-.24.28-.3.64-.15.96.15.34.05.38.51.24.32-.1.72-.38.9-.61,1.02-1.32,2.69-1.91,4.54-2.29.29-.06.77-.12,1.12-.15.22-.02.41.11.43.28.03.31.07.77.07,1.03-.03,1.72-.56,3.23-2.1,4.4-.18.13-.27.33-.22.53.09.37.57.39.93.3.49-.12.69-.24,1.37-.25.25,0,.55.07.8.14.27.08.4.33.29.54-.08.16-.18.32-.28.43-1.07,1.18-2.74,1.97-4.39,2.6-.33.13-.61.31-.82.56-.84,1,.45,1.86,1.61,1.95.96.07,1.73-.11,2.76.11.22.05.49.16.71.27.26.12.33.41.16.61-.11.13-.25.27-.36.36-.96.73-2.44,1.17-3.77,1.55-.44.13-.99.36-.91.74.04.17.24.38.42.53.17.14.17.37,0,.52-.13.11-.28.23-.45.31-.42.18-.78.23-1.21.13-3.9-.89-8.12-1.52-11.93-.41-.51.15-1.03.34-1.29.76-.13.2-.15.45-.04.66.24.43.87.54,1.4.63,1.85.32,2.55.23,5.12-.44.76-.2,2.35.35,2.93.47.24.05.41.24.4.44-.02.36-.09.93-.34,1.4.65-.23,1.93-.32,2.64-.27.46.04.87.29,1.1.46.12.09.17.22.15.35-.04.24.01.6.15.81.27.42.63.62,1.1.71.38.07.76.37,1.02.62.21.2.22.5.01.7-.22.22-.54.47-.89.54-.45.09-.96.16-1.39.23-.46.07-.96.29-1.11.65-.03.08-.03.2-.02.32.03.24-.18.45-.48.48-.39.03-.9.06-1.21.02-1.41-.2-2.69-.34-4.03-.92-.19.27,0,.73.28.93.12.09.3.19.47.29.25.14.39.27.26.49-.2.34-.31.73-1.01,1.09-1.1.38-1.97.26-2.91-.1-.94-.36-1.61-.74-2.22-1.43-.35-.4-.69-.85-1.35-.88-.39-.02-.73.23-.69.55.05.37.54.62.88.87.2.16.39.39.54.59.18.25.07.57-.24.71-.5.23-1.22.54-1.6.58-1.73.2-4.28-.35-4.8-1.99-.26.12-.59.4-.71.67-.07.16-.23.28-.43.3-.39.04-.75-.05-1.1-.31-.47-.34-.69-.85-.83-1.34-.14-.5-.22-1.01-.47-1.47-.66-1.21-2.36-1.81-3.97-1.97s-3.2-.18-4.79-.42Z"/>
            <path class="cls-38" d="m391.84,152.56c-10.11,3.87-19.48,9.48-28.15,15.91-.4.31-.89-.33-.48-.63,8.86-6.24,18.4-11.64,28.63-15.28h0Z"/>
            <path class="cls-38" d="m367.61,165.03c-1.72-4.66-1.82-10.1.88-14.4-2.43,4.41-2.06,9.62-.13,14.13.2.49-.57.78-.74.27h0Z"/>
            <path class="cls-38" d="m370.42,163.37c4.12,3.6,9.76,5.43,15.17,6.03-2.79-.11-5.55-.7-8.22-1.55-2.65-.88-5.27-2.04-7.48-3.89-.41-.34.15-.97.53-.59h0Z"/>
            <path class="cls-38" d="m393.48,158.5c-4.2.64-8.46-.13-12.58-.94-.11-.02-.18-.13-.16-.23.02-.11.13-.18.23-.16,4.09.93,8.29,1.84,12.5,1.33h0Z"/>
            <path class="cls-38" d="m383.15,147.36c-2.33,3.17-3.68,7.17-4.08,11.07,0,.26-.41.24-.4-.02.53-3.94,2.02-7.91,4.48-11.05h0Z"/>
            <path class="cls-1" d="m364.34,163.45c5.5,3.45,9.05,3.85,16.1,3.94,3.71-.36,5.75-1.08,6.67-2.96.7-.17.97-.19,1.29-.16.79.06,1.61.37,2.19.49.24.05.41.24.4.44-.02.36-.09.93-.34,1.4.65-.23,1.93-.32,2.64-.27.46.04.87.29,1.1.46.12.09.17.22.15.35-.04.24.01.6.15.81.27.42.63.62,1.1.71.38.07.76.37,1.02.62.21.2.22.5.01.7-.22.22-.54.47-.89.54-.45.09-.96.16-1.39.23-.46.07-.96.29-1.11.65-.03.08-.03.2-.02.32.03.24-.18.45-.48.48-.39.03-.9.06-1.21.02-1.41-.2-2.69-.34-4.03-.92-.19.27,0,.73.28.93.12.09.3.19.47.29.25.14.39.27.26.49-.2.34-.31.73-1.01,1.09-1.1.38-1.97.26-2.91-.1-.94-.36-1.61-.74-2.22-1.43-.35-.4-.69-.85-1.35-.88-.39-.02-.73.23-.69.55.05.37.54.62.88.87.2.16.39.39.54.59.18.25.07.57-.24.71-.5.23-1.22.54-1.6.58-1.73.2-4.28-.35-4.8-1.99-.26.12-.59.4-.71.67-.07.16-.23.28-.43.3-.39.04-.75-.05-1.1-.31-.47-.34-.69-.85-.83-1.34-.14-.5-.22-1.01-.47-1.47-.66-1.21-2.36-1.81-3.97-1.97-1.61-.17-3.2-.18-4.79-.42.39-2.4-.29-4.91-1.88-6.96,1.15.36,2.18,1.27,3.22,1.94Z"/>
            <path class="cls-10" d="m392.13,158.57c.59-.87.32-1.96.69-2.91.6-1.57,1.22-1.92,1.27-3.26,0-.19-1.1-1.14-1.19-1.32-.18-.37-.74-.55-1.23-.49-.49.06-.91.3-1.29.55-1.44.94-2.71,2.19-4.49,2.57-.43.09-.9.12-1.3-.03-1-.38-.93-1.54-.82-2.43.08-.64.1-1.3-.13-1.92-.23-.62-.75-1.19-1.49-1.41-.98-.3-2.13.09-2.79.76-.66.67-.9,1.55-.96,2.4-.06.85.04,1.71-.03,2.57-.14,1.7-.96,3.36-2.31,4.66-.46.44-1.02.92-.97,1.51.04.54.64.97,1.28,1.12.64.15,1.32.07,1.98,0,2.8-.32,5.6-.64,8.41-.96,2.11-.24,3.97.17,5.37-1.4Z"/>
            <path class="cls-10" d="m369.52,154.97c.08-.75.44-1.46.87-2.12.32-.5.69-.98.92-1.51.23-.53.31-1.13.06-1.65-.41-.84-1.57-1.31-1.97-2.15-.15-.32-.18-.66-.3-.99-.12-.32-.37-.65-.77-.74-.59-.13-1.14.3-1.45.72-1.14,1.57-1.03,3.56-1.97,5.22-.54.96-1.42,1.79-1.82,2.8-.46,1.17-.21,2.44.05,3.66.17.81.35,1.63.88,2.33.52.7,1.48,1.24,2.48,1.14.84-.09,1.5-.59,2.11-1.06.6-.47,1.21-.95,1.81-1.42.22-.18.45-.36.56-.6.31-.66-.38-1.17-.8-1.66-.5-.58-.74-1.25-.67-1.97Z"/>
          </g>
          <g>
            <path class="cls-22" d="m354.41,176.38c-.48,1.89-1.85,3.49-3.78,4.39-.56.26-1.17.48-1.56.9s-.45,1.14.08,1.6c-.49.15-1,.31-1.36.62-.21.18-.47.51-.66.75-.12.16-.06.4.15.54.21.15.44.32.46.39.09.36-.26.63-.61.76-.25.09-.57.36-.81.6-.23.22-.09.61.27.77.32.14.67.26.89.24.29-.03.49-.11.81-.03.25.06.48.28.53.49.09.38-.18.66-.48.86-.42.28-1.02.73-1.37,1.09-.19.19-.45.54-.63.81-.15.21-.03.52.26.68.32.17.73.35,1.03.33.27-.02.48-.08.77.08.19.11.31.29.32.46.02.53-.55.77-.65,1.22-.05.19.12.41.27.55.1.1.25.14.37.08.15-.07.35-.16.43-.2.36-.16.88.27.93.65s-.16.7-.2,1.07c-.03.2.03.45.17.64.14.2.45.24.59.09.18-.19.45-.39.8-.52.36-.15.61.02.97-.13.36-.15.56-.31.65-.77.29.66,1.13,1.06,1.57,1.24.17.07.35.04.45-.06.15-.15.35-.4.45-.67.17-.46.07-.99-.04-1.5.25.27.72.28,1.09.44.23.1.65.34.8.2.16-.15.24-.37.28-.55.28-1.13-.08-2.38-.26-3.59s-.1-2.52.85-3.26c.26-.2.62-.36,1.04-.14.21.11.37.29.45.48.18.41.06.8-.04,1.17-.09.32-.16.65-.02.99.1.26.32.5.41.76.12.34.02.67-.08.97-.52,1.57-1.05,3.15-1.57,4.72-.11.32-.06.55.12.94.09.2.28.46.41.64.09.11.26.16.37.1.12-.06.27-.15.37-.24.22-.2.41-.4.47-.65.23.8.31,1.61.24,2.38-.02.19.17.39.4.41.46.05.92-.22.9-.62.53.21.72.75.91,1.21.13.31.34.66.51.91.15.22.46.35.72.3.38-.07.9-.2,1.18-.39.99-.69,1.62-1.58,1.39-2.78-.12-.62-.41-1.23-.54-1.85-.14-.62-.1-1.29.36-1.68l.32.39c.49.71.49,1.02.53,1.56.09,1.27.18,2.53.26,3.8.02.33.16.67.4.97.17.21.35.38.55.52.2.14.46.15.62.03.22-.17.34-.29.58-.63.27-.38.29-.57.16-.95-.09-.28-.02-.55.19-.73.22-.19.15-.25.45,0,.2.17.41.5.48.73.35,1.26,1.4,2.23,2.65,3.11.19.14.54.34.78.48.15.09.34.06.41-.06.12-.21.29-.52.37-.71.52-1.22.6-2.46-.18-3.79-.09-.15-.09-.32,0-.44.18-.23.55-.08.79.1.32.24.44.4.93.63.18.08.43.13.64.17.22.03.4-.1.38-.29-.01-.14-.03-.29-.07-.4-.42-1.19-1.42-2.29-2.44-3.27-.2-.2-.36-.42-.43-.66-.31-.98.92-1.16,1.8-.84.73.27,1.25.64,2.08.83.18.04.41.05.61.05.23,0,.38-.18.31-.38-.04-.13-.1-.27-.16-.37-.48-.83-1.44-1.62-2.31-2.33-.29-.23-.62-.58-.44-.82.08-.11.29-.19.47-.24.17-.05.24-.21.16-.36-.06-.12-.14-.26-.24-.36-.25-.27-.51-.42-.86-.49-3.17-.66-6.49-1.6-8.97-3.63-.33-.27-.66-.58-.72-.96-.03-.19.02-.37.18-.48.31-.23.81-.09,1.23.01,1.47.38,1.96.68,3.66,1.99.5.39,1.85.53,2.32.63.2.04.38-.03.44-.18.1-.26.22-.69.19-1.1.41.38,1.33.86,1.87,1.06.35.13.74.08.96.04.11-.02.2-.1.22-.19.05-.18.2-.42.36-.53.33-.21.66-.23,1.04-.14.3.07.68-.01.95-.1.22-.07.32-.28.23-.49-.09-.23-.25-.51-.49-.67-.31-.21-.66-.43-.96-.62-.32-.2-.62-.52-.62-.82,0-.07.04-.15.09-.23.1-.16,0-.38-.2-.49-.28-.15-.65-.34-.89-.41-1.1-.32-2.1-.64-3.27-.68-.05-.25.22-.52.5-.57.12-.02.29-.04.44-.05.23-.02.37-.06.35-.26-.04-.3,0-.62-.41-1.1-.7-.63-1.38-.83-2.19-.89-.81-.06-1.43,0-2.09.28-.38.16-.77.37-1.28.18-.29-.11-.47-.4-.34-.61.15-.25.6-.26.92-.33.2-.04.41-.14.58-.24.21-.12.23-.38.04-.58-.3-.32-.74-.78-1.01-.93-1.22-.71-3.28-1.16-4.18-.18-.16-.17-.31-.48-.32-.71,0-.13-.08-.27-.23-.35-.28-.16-.57-.21-.91-.14-.45.09-.77.37-1.03.67-.26.3-.48.64-.81.88-.87.63-2.32.5-3.56.09-1.24-.41-2.43-.92-3.68-1.28Z"/>
            <path class="cls-38" d="m370.81,197.08c-6.43-5.86-11.84-12.78-16.5-20.12-.28-.43.4-.86.67-.42,4.42,7.44,9.6,14.5,15.83,20.54h0Z"/>
            <path class="cls-38" d="m357.26,180.81c-2.85,2.51-4.76,6.06-4.37,9.94-.26-1.88-.14-3.87.59-5.68.71-1.82,1.91-3.4,3.22-4.82.15-.16.4-.17.56-.02.17.16.17.43,0,.58h0Z"/>
            <path class="cls-38" d="m358.1,181.74c4.48-1,9.14-.18,13.35,1.41-4.17-1.32-8.91-1.86-13.13-.65-.51.16-.74-.63-.22-.76h0Z"/>
            <path class="cls-38" d="m373.88,193.43c-2.97-1.73-6.35-2.46-9.69-3.13-.11-.02-.18-.13-.16-.23.02-.11.13-.18.24-.15,3.31.8,6.7,1.67,9.6,3.52h0Z"/>
            <path class="cls-38" d="m362.75,197.88c-.85-2.99-.73-6.28.1-9.27.04-.1.15-.16.25-.12.1.04.16.15.12.25-.94,2.89-1.19,6.17-.47,9.14h0Z"/>
            <path class="cls-1" d="m353.83,180.36c5.16-.62,7.91.27,13.17,2.52,2.64,1.47,3.92,2.65,4.02,4.28.46.35.66.45.9.54.6.22,1.31.27,1.77.37.2.04.38-.03.44-.18.1-.26.22-.69.19-1.1.41.38,1.33.86,1.87,1.06.35.13.74.08.96.04.11-.02.2-.1.22-.19.05-.18.2-.42.36-.53.33-.21.66-.23,1.04-.14.3.07.68-.01.95-.1.22-.07.32-.28.23-.49-.09-.23-.25-.51-.49-.67-.31-.21-.66-.43-.96-.62-.32-.2-.62-.52-.62-.82,0-.07.04-.15.09-.23.1-.16,0-.38-.2-.49-.28-.15-.65-.34-.89-.41-1.1-.32-2.1-.64-3.27-.68-.05-.25.22-.52.5-.57.12-.02.29-.04.44-.05.23-.02.37-.06.35-.26-.04-.3,0-.62-.41-1.1-.7-.63-1.38-.83-2.19-.89-.81-.06-1.43,0-2.09.28-.38.16-.77.37-1.28.18-.29-.11-.47-.4-.34-.61.15-.25.6-.26.92-.33.2-.04.41-.14.58-.24.21-.12.23-.38.04-.58-.3-.32-.74-.78-1.01-.93-1.22-.71-3.28-1.16-4.18-.18-.16-.17-.31-.48-.32-.71,0-.13-.08-.27-.23-.35-.28-.16-.57-.21-.91-.14-.45.09-.77.37-1.03.67-.26.3-.48.64-.81.88-.87.63-2.32.5-3.56.09s-2.43-.92-3.68-1.28c-.46,1.82-1.75,3.37-3.57,4.29.97.12,2.02-.18,2.99-.31Z"/>
            <path class="cls-10" d="m372.91,192.93c.17.81-.37,1.49-.4,2.28-.05,1.3.3,1.76-.07,2.72-.05.14-1.17.44-1.29.54-.25.2-.72.14-1.06-.06-.34-.2-.58-.51-.79-.81-.77-1.14-1.32-2.43-2.53-3.29-.29-.21-.63-.38-.97-.41-.86-.06-1.17.78-1.37,1.45-.14.48-.33.95-.69,1.31-.36.36-.93.59-1.55.5-.82-.11-1.55-.77-1.83-1.45-.28-.69-.18-1.39.04-2.01.22-.62.56-1.19.78-1.82.43-1.24.34-2.69-.25-4.05-.2-.47-.47-.99-.25-1.38.2-.37.78-.47,1.3-.37.52.11,1,.38,1.47.65,1.98,1.15,3.95,2.29,5.93,3.44,1.49.86,2.99,1.18,3.54,2.76Z"/>
            <path class="cls-10" d="m355.03,188.04c-.18.55-.13,1.17-.02,1.78.08.46.2.92.21,1.36,0,.45-.12.9-.47,1.18-.56.46-1.57.41-2.13.87-.21.17-.34.41-.53.6s-.48.34-.8.27c-.48-.1-.75-.58-.85-.99-.36-1.48.35-2.85.17-4.33-.1-.86-.49-1.73-.47-2.57.03-.98.61-1.79,1.18-2.56.38-.51.77-1.04,1.38-1.36.61-.32,1.49-.39,2.19.01.59.34.93.91,1.23,1.44.3.53.6,1.06.9,1.6.11.2.22.4.23.61.02.57-.65.7-1.11.91-.55.24-.94.64-1.11,1.17Z"/>
          </g>
          <g>
            <path class="cls-22" d="m351.37,145.82c.34-1.92,1.6-3.6,3.46-4.64.54-.3,1.14-.56,1.49-1.01s.37-1.17-.19-1.59c.48-.18.98-.38,1.31-.71.19-.2.44-.54.6-.79.11-.17.03-.4-.19-.53-.22-.13-.46-.29-.49-.36-.12-.35.21-.65.56-.8.24-.11.54-.4.77-.66.21-.24.05-.61-.32-.75-.33-.12-.69-.22-.9-.18-.29.05-.48.14-.81.08-.25-.05-.5-.24-.56-.45-.12-.38.13-.67.42-.89.4-.31.96-.8,1.29-1.18.18-.21.41-.57.58-.85.13-.22,0-.52-.31-.66-.33-.15-.76-.3-1.06-.26-.27.04-.47.12-.77-.03-.2-.09-.33-.27-.35-.44-.06-.53.49-.8.57-1.26.03-.2-.15-.4-.3-.53-.11-.09-.26-.12-.37-.06-.14.08-.34.18-.42.23-.35.19-.89-.21-.97-.59-.08-.37.11-.71.13-1.08.01-.2-.06-.44-.21-.62-.15-.19-.46-.21-.59-.05-.16.21-.43.42-.76.58-.35.17-.61.02-.96.19-.35.18-.54.35-.59.82-.34-.64-1.2-.98-1.65-1.12-.17-.05-.35-.02-.44.1-.14.16-.32.42-.4.7-.14.47,0,.99.15,1.5-.27-.25-.74-.23-1.11-.36-.24-.08-.68-.29-.81-.14-.15.16-.21.39-.24.57-.2,1.14.25,2.37.51,3.57.26,1.2.28,2.51-.63,3.31-.24.22-.59.4-1.03.21-.22-.1-.38-.26-.48-.45-.21-.4-.12-.79-.04-1.17.06-.32.11-.66-.05-.99-.12-.25-.35-.47-.47-.73-.14-.33-.06-.66.02-.98.41-1.61.83-3.21,1.24-4.82.08-.32.02-.56-.18-.93-.11-.2-.31-.44-.45-.61-.09-.11-.27-.14-.38-.07-.12.07-.26.17-.35.27-.21.21-.39.42-.43.68-.29-.78-.42-1.58-.4-2.36,0-.19-.2-.37-.43-.38-.46-.01-.9.28-.85.68-.54-.17-.77-.7-.99-1.15-.15-.3-.39-.63-.58-.87-.17-.21-.48-.32-.74-.25-.37.1-.89.26-1.15.47-.94.76-1.5,1.69-1.19,2.87.16.61.49,1.2.67,1.81.18.61.19,1.28-.24,1.71l-.34-.36c-.53-.67-.56-.98-.64-1.52-.18-1.26-.35-2.51-.53-3.77-.05-.33-.2-.66-.47-.94-.19-.2-.38-.36-.58-.48-.2-.12-.47-.11-.62.02-.21.18-.32.32-.54.67-.25.4-.25.59-.09.96.11.27.06.55-.14.74-.2.21-.14.26-.45.03-.22-.16-.45-.47-.53-.69-.43-1.24-1.55-2.13-2.86-2.92-.2-.12-.56-.3-.81-.42-.16-.08-.34-.04-.4.09-.11.22-.26.54-.32.73-.43,1.26-.42,2.49.44,3.77.1.15.11.32.03.44-.17.24-.54.12-.79-.04-.34-.22-.47-.37-.97-.56-.19-.07-.44-.1-.64-.12-.23-.02-.39.13-.36.31.02.14.05.29.1.39.5,1.15,1.57,2.19,2.66,3.1.22.18.39.4.48.63.37.96-.83,1.22-1.74.97-.75-.21-1.29-.56-2.14-.68-.18-.03-.41-.02-.61,0-.23.02-.36.2-.28.4.05.13.12.26.18.36.54.79,1.55,1.52,2.46,2.17.3.21.66.54.5.79-.07.11-.28.21-.46.27-.17.06-.22.22-.14.37.07.12.15.25.26.35.27.25.53.38.89.43,3.2.43,6.59,1.14,9.2,3,.35.25.7.53.79.91.04.18,0,.37-.14.49-.3.25-.8.15-1.23.07-1.5-.28-2-.54-3.79-1.74-.53-.35-1.88-.4-2.35-.47-.2-.03-.38.06-.42.21-.08.27-.17.7-.11,1.11-.44-.35-1.39-.77-1.94-.92-.36-.1-.74-.03-.96.03-.11.03-.19.11-.21.21-.03.19-.17.43-.33.55-.31.23-.64.27-1.03.21-.31-.05-.68.06-.94.16-.22.09-.3.3-.19.5.11.22.29.49.53.64.32.19.69.38,1,.55.33.18.66.48.67.78,0,.07-.03.16-.07.24-.08.17.02.38.24.48.29.13.67.29.92.35,1.12.25,2.14.5,3.31.45.07.25-.18.53-.46.6-.12.03-.28.06-.43.08-.23.03-.37.09-.33.28.06.3.05.62.49,1.07.74.58,1.43.73,2.25.74.81,0,1.42-.09,2.07-.43.37-.19.75-.42,1.26-.27.3.09.49.37.38.59-.13.26-.58.3-.9.39-.2.06-.4.17-.56.28-.2.13-.2.39,0,.58.32.3.79.73,1.07.86,1.26.62,3.35.93,4.18-.12.17.16.34.45.36.68.01.13.1.27.25.34.29.14.58.17.92.08.44-.12.75-.42.98-.74.24-.32.43-.67.75-.94.82-.69,2.28-.66,3.54-.33,1.27.32,2.49.75,3.76,1.02Z"/>
            <path class="cls-38" d="m333.57,126.31c6.82,5.4,12.7,11.93,17.86,18.92.31.41-.34.89-.64.47-4.92-7.12-10.58-13.79-17.22-19.39h0Z"/>
            <path class="cls-38" d="m348.21,141.59c2.67-2.7,4.33-6.37,3.67-10.22.39,1.86.4,3.85-.19,5.71-.58,1.86-1.67,3.53-2.88,5.03-.14.17-.39.2-.56.06-.18-.14-.2-.41-.04-.58h0Z"/>
            <path class="cls-38" d="m347.31,140.73c-4.4,1.31-9.1.81-13.41-.48,4.25,1.02,9.02,1.24,13.14-.26.5-.19.78.57.27.75h0Z"/>
            <path class="cls-38" d="m330.76,130.16c3.08,1.52,6.51,2.01,9.88,2.45.11.01.19.11.17.22-.01.11-.12.19-.23.17-3.36-.57-6.8-1.21-9.82-2.84h0Z"/>
            <path class="cls-38" d="m341.56,124.95c1.06,2.92,1.17,6.22.54,9.25-.03.11-.14.17-.24.14-.11-.03-.17-.14-.14-.24.74-2.94.76-6.24-.16-9.15h0Z"/>
            <path class="cls-1" d="m351.67,141.81c-5.1.98-7.91.28-13.31-1.6-2.73-1.29-4.1-2.37-4.31-3.99-.49-.31-.69-.4-.94-.47-.62-.17-1.33-.18-1.8-.25-.2-.03-.38.06-.42.21-.08.27-.18.7-.11,1.11-.44-.35-1.39-.77-1.94-.92-.36-.1-.74-.03-.96.03-.11.03-.19.11-.21.21-.03.19-.17.43-.33.55-.31.23-.64.27-1.03.21-.31-.05-.68.06-.94.16-.22.09-.3.3-.19.5.11.22.29.49.53.64.32.19.69.38,1,.55.33.18.66.48.67.78,0,.07-.03.16-.07.24-.08.17.02.38.24.48.29.13.67.29.92.35,1.12.25,2.14.5,3.31.45.07.25-.18.53-.46.6-.12.03-.28.06-.43.08-.23.03-.37.09-.33.28.06.3.05.62.49,1.07.74.58,1.43.73,2.25.74.81,0,1.42-.09,2.07-.43.37-.19.75-.42,1.26-.27.3.09.49.37.38.59-.13.26-.58.3-.9.39-.2.06-.4.17-.56.28-.2.13-.2.39,0,.58.32.3.79.73,1.07.86,1.26.62,3.35.93,4.18-.12.17.16.34.45.36.68.01.13.1.27.25.34.29.14.58.17.92.08.44-.12.75-.42.98-.74.24-.32.43-.67.75-.94.82-.69,2.28-.66,3.54-.33,1.27.32,2.49.75,3.76,1.02.33-1.85,1.51-3.48,3.26-4.52-.97-.06-2,.32-2.96.52Z"/>
            <path class="cls-10" d="m331.76,130.59c-.22-.8.27-1.51.24-2.3-.04-1.3-.43-1.73-.11-2.71.04-.14,1.14-.52,1.25-.63.24-.22.71-.19,1.07-.01.36.18.61.47.84.76.85,1.08,1.49,2.34,2.75,3.11.3.18.65.34,1,.34.86,0,1.12-.86,1.26-1.54.11-.49.26-.97.6-1.35.34-.38.89-.65,1.51-.61.83.06,1.6.66,1.93,1.32s.28,1.37.1,2c-.18.64-.48,1.23-.65,1.87-.34,1.27-.15,2.7.53,4.02.24.45.53.95.34,1.36-.18.38-.74.53-1.27.45-.53-.07-1.03-.31-1.51-.55-2.05-1.01-4.1-2.01-6.15-3.02-1.55-.76-3.07-.97-3.72-2.5Z"/>
            <path class="cls-10" d="m349.95,134.23c.14-.56.05-1.18-.11-1.78-.12-.45-.27-.9-.3-1.35-.03-.45.06-.9.39-1.21.53-.5,1.54-.52,2.06-1.02.2-.19.31-.43.48-.63.18-.2.46-.37.78-.32.48.07.79.53.91.93.46,1.45-.15,2.86.13,4.33.16.85.61,1.69.65,2.53.04.98-.49,1.83-1,2.64-.34.54-.7,1.09-1.28,1.45-.58.36-1.46.49-2.19.14-.61-.29-.99-.84-1.33-1.36-.33-.51-.67-1.02-1-1.53-.12-.19-.25-.39-.27-.59-.06-.56.6-.74,1.05-.98.54-.28.89-.7,1.03-1.24Z"/>
          </g>
          <path class="cls-36" d="m434.58,180.24c1.62,1.19,3.57,1.95,4.79,3.61,1.77,2.39,1.41,6.02-.09,8.62-1.5,2.6-3.91,4.41-6.27,6.11-3.13,2.26-6.35,4.51-9.98,5.55-3.92,1.12-8.1.77-12.03-.33-3.93-1.1-7.64-2.91-11.34-4.71-1.56-.76-3.15-1.55-4.34-2.87-1.18-1.31-1.88-3.04-2.4-4.78-1.19-3.91-1.66-8.17-.72-12.16s3.43-7.67,6.94-9.27c3.35-1.52,7.18-1.06,10.71-.12s7.08,1.71,10.61,2.58c8.52,2.08,12.62,6.69,14.12,7.79Z"/>
          <path class="cls-3" d="m439.37,183.85c-1.22-1.65-3.17-2.42-4.79-3.61-.87-.64-2.64-2.47-5.64-4.3,2.82,5.98,3.21,13.01-2.09,16.54-12.15,8.32-25.86,4.24-34.86-5.15.21,1.39.52,2.76.93,4.09.53,1.74,1.22,3.47,2.4,4.78,1.19,1.32,2.79,2.11,4.34,2.87,3.7,1.8,7.41,3.62,11.34,4.71,3.93,1.1,8.11,1.46,12.03.33,3.64-1.04,6.86-3.29,9.98-5.55,2.36-1.71,4.77-3.51,6.27-6.11,1.5-2.6,1.86-6.22.09-8.62Z"/>
          <path class="cls-10" d="m60.57,209.67c-.2.29-.41.59-.6.88-3.78,5.6-6.39,11.99-7.6,18.63-.89,4.88-1.43,10.47-.13,15.31,1.53,5.7,5.91,10.55,11.41,12.69,5.5,2.15,11.97,1.57,17.04-1.46,4.39-2.63,7.81-7.54,7.15-12.61-.46-3.54-2.76-6.56-5.33-9.04-3.8-3.68-7.61-6.65-10.1-11.47-2.49-4.84-3.16-9.9-3.2-15.25-.01-1.63.48-7.39-2.74-4.53-2.23,1.98-4.19,4.39-5.9,6.85Z"/>
          <path class="cls-3" d="m64.28,220.14c.1,4.87.2,9.76,1.1,14.55s1.88,10.94,4.96,14.71c1.41,1.73,3.07,2.91,5.26,3.34,1.19.23,3.33-.94,4.45-1.4,2.87-1.19,4.47-4.51,4.31-7.61-.16-3.11-1.79-5.97-3.83-8.31-2.05-2.34-4.52-4.26-6.8-6.38-2.28-2.12-4.42-4.51-5.53-7.41-1.35-3.53-1.05-7.38-1.22-11.08-.03-.63.13-2.18-.3-2.68-.62-.72-.96.69-1.15,1.18-.64,1.64-.96,3.39-1.12,5.14-.18,1.98-.16,3.97-.12,5.96Z"/>
          <g>
            <path class="cls-36" d="m305.91,146.46c2.09,1.42,4.6,2.33,6.18,4.31,2.28,2.86,1.82,7.19-.11,10.29s-5.04,5.26-8.08,7.3c-4.03,2.7-8.19,5.39-12.87,6.63-5.05,1.34-10.45.92-15.51-.4-5.06-1.31-9.86-3.48-14.62-5.63-2.01-.91-4.06-1.85-5.6-3.43-1.53-1.57-2.42-3.64-3.1-5.71-1.53-4.67-2.14-9.76-.92-14.53,1.21-4.77,4.42-9.16,8.95-11.07,4.32-1.82,9.26-1.26,13.8-.14,4.55,1.12,9.01,2.77,13.68,3.08,2.33.15,4.73-.09,6.94-.85,1.1-.38,2.1-.9,3.09-1.51,1.07-.67,1.36-1.29,1.88-.13.4.89.22,2.45.49,3.46.29,1.09.7,2.14,1.22,3.14,1.08,2.06,2.64,3.88,4.57,5.2Z"/>
            <path class="cls-3" d="m312.09,150.76c-1.58-1.97-4.09-2.89-6.18-4.31-1.93-1.31-3.49-3.13-4.57-5.2-.52-1-.93-2.05-1.22-3.14-.06-.21-.09-.46-.12-.71-.05,7.3,2.95,14.85-1.51,20.43-13.26,16.21-37.48,10.49-47.83-6.31.1,2.8.66,5.61,1.53,8.28.68,2.08,1.57,4.15,3.1,5.71,1.54,1.58,3.59,2.52,5.6,3.43,4.77,2.15,9.56,4.32,14.62,5.63,5.06,1.31,10.46,1.74,15.51.4,4.69-1.25,8.84-3.93,12.87-6.63,3.04-2.04,6.15-4.19,8.08-7.3s2.39-7.43.11-10.29Z"/>
            <path class="cls-10" d="m259.46,156.64c2.45,2.46,5.65,4.07,8.98,5.04,5.92,1.72,12.54,1.41,17.97-1.5,5.43-2.91,9.47-8.58,9.78-14.74.12-2.3-.5-4.96-2.56-5.99-1.59-.8-3.49-.35-5.24-.03-4.9.91-10,.74-14.83-.5-4.35-1.12-9.47-3.08-13.79-.67-3.31,1.85-4.76,7.31-4.27,10.74.41,2.9,1.91,5.59,3.96,7.65Z"/>
            <path class="cls-3" d="m261.53,141.19c1.23-.87,2.85-1.03,4.34-.83,1.49.21,2.92.76,4.35,1.21,5.42,1.72,11.25,2.17,16.87,1.29,1.12-.18,2.28-.4,3.37-.11,1.1.29,2.11,1.28,1.99,2.4-.08.8-.72,1.46-1.44,1.8s-1.55.43-2.35.51c-4.82.48-9.66.97-14.5.74-3.43-.16-6.87-.69-10.12-1.8-.94-.32-3.28-.83-3.89-1.67-.81-1.11.47-2.92,1.37-3.55Z"/>
          </g>
          <path class="cls-10" d="m395.89,186.84c-1.84-2.83-1.56-6.87.66-9.41,2.32-2.65,6.14-3.44,9.66-3.34,5.08.14,9.98,1.78,14.8,3.4,1.99.67,4.1,1.43,5.32,3.13,1.98,2.76.55,6.93-2.22,8.9s-6.4,2.23-9.79,2.06c-5.49-.28-14.91.67-18.43-4.73Z"/>
          <path class="cls-3" d="m399.14,180.09c1.24-1.46,3.19-2.11,5.08-2.47,4.9-.93,10.08-.3,14.6,1.77.59.27,1.26.7,1.27,1.35,0,.54-.47.97-.99,1.12s-1.06.06-1.6,0c-4.23-.48-8.62.51-12.24,2.76-1.74,1.08-4.07,2.43-6.04.91-1.65-1.28-1.36-3.95-.1-5.43Z"/>
          <g>
            <path class="cls-29" d="m157.58,273.3s-28.06-25.09-61.52-13.49c-33.46,11.6-24.55,35.89-24.55,35.89,0,0,24.01,11.25,51,3.78,26.99-7.48,35.08-26.17,35.08-26.17Z"/>
            <path class="cls-3" d="m87.28,289.37c-11.43-5.41-8.7-16.76-1.87-24.69-20.72,12.42-13.9,31.02-13.9,31.02,0,0,24.01,11.25,51,3.78,7.23-2,13.09-4.81,17.81-7.85-17.65,4.98-36.04,6.25-53.04-2.25Z"/>
            <g>
              <path class="cls-33" d="m80.15,290.53c20.36-12.56,44.84-18.22,68.67-17.19,0,0,4.8.24,4.8.24.44.02.77.39.75.83-.02.46-.44.81-.9.75l-4.73-.34c-23.65-1.52-48.08,3.63-68.58,15.7h0Z"/>
              <path class="cls-33" d="m109.69,269.65c6.63,2.52,13.67,4.25,20.79,4.21.51,0,.52.79,0,.79-7.18-.23-14.21-2.23-20.79-5.01h0Z"/>
              <path class="cls-33" d="m138.31,274.54c-5.57,2.34-11.42,4.96-15.53,9.55,1.89-2.45,4.45-4.29,7.04-5.94,2.62-1.65,5.35-3.08,8.19-4.34.49-.21.8.55.3.73h0Z"/>
              <path class="cls-33" d="m112.18,277.89c-5.97,2.91-12.42,6.85-14.89,13.35,1.02-3.33,3.36-6.06,5.93-8.32,2.62-2.28,5.53-4.17,8.63-5.75.48-.23.82.51.33.72h0Z"/>
              <path class="cls-33" d="m84.6,277.53c6.54-1.51,13.96-1.8,19.9,1.8.45.26.02.96-.42.67-5.67-3.73-13.01-3.69-19.48-2.47h0Z"/>
            </g>
            <path class="cls-12" d="m97.65,286.43c-3.54-.79-7.32-2.05-9.3-5.09-2.11-3.25-1.42-7.79.97-10.84,2.39-3.05,6.15-4.76,9.95-5.49,5.95-1.14,12.08-.12,18.06.89,9.26,1.57,18.52,3.15,27.78,4.72,1.84.31,3.9.77,4.88,2.37.78,1.28.58,2.98-.15,4.28s-1.92,2.29-3.13,3.18c-10.55,7.7-24,8.29-36.61,7.66-4.19-.21-8.36-.77-12.45-1.68Z"/>
          </g>
          <g>
            <path class="cls-22" d="m291.06,193.35c-.79-2.79-4.31-4.02-7.12-3.32-3.38.84-5.04,3.94-7.97,5.18-3.77,1.59-8.37,2.17-12.35,3.2-3.15.82-6.49,1.75-8.64,4.18-2.33,2.63-2.74,6.46-2.38,9.96.43,4.15,2.02,8.51,5.55,10.72,2.44,1.53,5.44,1.81,8.31,2.05,3.66.31,7.38.62,11-.06,3.62-.67,7.18-2.46,9.2-5.53,1.85-2.82,2.21-6.34,2.27-9.71.06-3.37-.11-6.81.88-10.03.67-2.19,1.87-4.44,1.25-6.65Zm-9.16,24.51c-.39,1.32-1.38,2.45-2.63,3.01-2,.91-5.6.39-4.56-2.61.27-.78.8-1.43,1.17-2.16.47-.93.68-2.14-.3-2.87-.53-.4-1.24-.46-1.86-.26-1.34.44-2.05,1.65-2.72,2.81-.55.96-1.16,1.96-2.13,2.5-1.07.59-2.41.49-3.54.03s-2.1-1.23-3.04-2c-1.78-1.44-3.73-3.16-3.27-5.69.18-.98.73-1.88,1.47-2.55,1.77-1.6,4.16-1.91,6.44-1.93,1.84-.01,3.7.15,5.52-.12,2.45-.36,4.7-1.45,6.83-2.75.74-.45,1.65.22,1.42,1.05-.49,1.74-.56,3.6-.19,5.36.58,2.74,2.18,5.47,1.38,8.15Z"/>
            <path class="cls-5" d="m257.02,215.54c-2.42-4.83-2.07-9.66-.71-14.14-.47.36-.93.74-1.33,1.2-2.33,2.63-2.74,6.46-2.38,9.96.43,4.15,2.02,8.51,5.55,10.72,2.44,1.53,5.44,1.81,8.31,2.05,3.66.31,7.38.62,11-.06,3.62-.67,7.18-2.46,9.2-5.53.87-1.33,1.41-2.82,1.74-4.37-2.67,1.97-5.14,4.4-7.61,6.51-7.13,5.55-18.23,1.59-23.78-6.34Z"/>
            <path class="cls-20" d="m261.13,204.88c-.81-.21-1.44-.96-1.51-1.79-.1-1.18.89-2.23,2-2.65,1.11-.41,2.34-.35,3.52-.36,6.25-.01,12.48-2,17.58-5.62,1.26-.89,2.76-1.93,4.2-1.4,1.71.63,1.98,2.93,1.79,4.74-.2,2.04-.59,4.06-1.17,6.03-.21.71-.45,1.43-.93,1.98s-1.29.89-1.98.63c-1.54-.57-1.01-2.96-1.96-4.3-.58-.82-1.69-1.13-2.7-1.04s-1.95.5-2.89.86c-2.77,1.06-5.71,1.68-8.67,1.84-1.3.07-3.14-.37-4.38-.04-1.07.29-1.6,1.43-2.91,1.1Z"/>
          </g>
          <path class="cls-20" d="m174.6,224.96c1.19-.54,1.81-2.42,2.82-3.23,1.01-.82,2.11-1.6,3.38-1.9,1.27-.29,2.76,0,3.54,1.04.68.9.71,2.1.83,3.22.12,1.12.45,2.36,1.43,2.91,1.1.61,2.58-.01,3.27-1.07.69-1.06.75-2.4.63-3.66-.14-1.5-.52-3.01-1.33-4.28-.81-1.27-2.09-2.29-3.58-2.57-1.46-.27-2.96.19-4.27.88-1.31.69-2.48,1.62-3.74,2.4-1.56.96-3.03,2.46-4.8,2.92-.92.24-2.03-.19-3.04-.28-.5-.04-2.63.17-2.97.49-1.13,1.07,1.85,2.04,2.55,2.28,1.58.56,3.75,1.55,5.28.85Z"/>
          <path class="cls-27" d="m346.91,297.33s35.81-43.45,104.65-71.6"/>
          <path class="cls-31" d="m414.16,255.13c-8.09,13.16-6.26,27.63-21.79,29.24-2.74.28-5.29.24-7.64-.06-1.9-.24-3.81-.32-5.71-.17-4.93.39-10.04.31-14.29,2.19-1.35.6-1.7,2.36-.67,3.42,5.38,5.52,14.28,10.78,28.06,8.92,26.66-3.61,20.84-30.27,27.98-40.32,7.14-10.05,13.9-15.76,13.9-15.76,0,0-11.74-.61-19.83,12.55Z"/>
          <path class="cls-3" d="m372.16,287.59c-.87-1.09-1.02-2.06-.7-2.9-2.37.27-4.66.72-6.74,1.64-1.35.6-1.7,2.36-.67,3.42,5.38,5.52,14.28,10.78,28.06,8.92,17.67-2.4,21.07-14.91,23.43-26.01-2.58,2.62-4.63,6-6.13,9.39-5.55,12.68-27.74,18.23-37.25,5.55Z"/>
          <g class="cls-17">
            <path class="cls-25" d="m183.22,252.65c-5.23-.43-10.14,3.02-12.06,7.71-1.85,4.68-.91,10.15,1.74,14.34,3.69,5.71,10.06,9.46,16.57,11.18,10.1,2.76,21.49.22,29.64-6.25,17.58-13.92,14.1-41.9,42.59-44.11,7.3-.38,14.46,1.78,20.56,5.34.13.07.02.28-.11.21-6.43-2.85-13.46-4.43-20.31-3.7-26.07,2.64-23.78,31.01-41.96,43.3-14.12,9.83-38.35,10.83-48.77-4.87-3.97-6.22-3.98-15.51,1.98-20.5,2.72-2.41,6.59-3.68,10.16-2.9.15.03.1.25-.04.23h0Z"/>
          </g>
          <g class="cls-17">
            <path class="cls-25" d="m325.53,183.15c-4.81,1.73-9.9,2.93-13.71,6.36-3.07,2.44-4.6,6.22-3.13,10.02,1.64,4.99,4.16,10.75,1.78,16.05-3.08,5.91-11.77,8.8-18.02,8.06-.13-.02-.13-.23,0-.24,4.99-.7,9.95-2.93,13.66-6.19,4.04-3.51,3.02-8.77,2.46-13.62-.27-2.52-1.28-5.1-1.19-7.86.09-2.73,1.2-5.47,3.05-7.59,3.74-4.13,9.75-5.13,15.04-5.23.13,0,.17.19.04.23h0Z"/>
          </g>
          <g class="cls-17">
            <path class="cls-25" d="m260.83,269.5c9.61-10.92,24.93-16.72,39.38-14.78,5.71.69,11.27,2.33,17.02,2.42,6.57.19,14.49-2.52,16.85-9.11,1.07-4.07-1.05-7.81-2.17-11.88-.7-2.75-1.72-5.41-2.38-8.31-3.95-12.57,10.17-25.07,21.5-20.43.14.03.09.25-.05.23-4.12-.46-8.62-.36-12.03,2.09-3.35,2.45-5.93,5.75-7.18,9.73-.88,2.39-.48,5.1.2,7.78,1.42,5.58,3.52,10.81,4.56,16.7,1.12,6.51-4.81,11.83-10.6,13.23-5.7,1.66-11.61.6-17.31-.27-5.66-.98-11.37-1.33-16.95-.52-8.4,1-16.55,3.79-23.74,8.26-2.4,1.51-4.7,3.19-6.92,5.01-.1.1-.27-.07-.17-.17h0Z"/>
          </g>
          <g class="cls-17">
            <path class="cls-25" d="m166.38,291.13c18.53,15.93,44.6,8.19,65.25,1.07,14.46-4.94,29.87-11.36,45.42-7.79,7.8,1.84,15.43,7.68,16.64,16.1,1.18,10.31-4.99,14.26-13.21,18.26-6.84,3.55-13.7,7.07-20.64,10.45-.13.07-.24-.14-.11-.21,6.56-4.06,13.2-7.98,19.85-11.87,7.1-3.9,12.82-7.22,11.59-16.26-1.11-7.28-7.79-12.51-14.69-14.3-14.99-3.58-30.5,1.17-44.59,6.35-14.3,5.52-29.49,11.83-45.2,8.94-7.69-1.31-15.23-4.7-20.48-10.57-.1-.1.06-.27.17-.17h0Z"/>
          </g>
          <g>
            <g class="cls-14">
              <path class="cls-25" d="m335.15,312.27c-3.24,0-6.47-.25-9.64-.77-4.3-.69-10.56-2.16-15.23-6.91-5.49-5.59-6.4-14.42-2.07-20.1,2.12-2.78,6.1-3.32,8.89-1.19,2.78,2.13,3.32,6.1,1.19,8.89-.41.53-.1,2.36,1.04,3.52,1.54,1.57,4.22,2.64,8.2,3.28,6.64,1.07,13.58.72,20.08-1.01,3.38-.9,6.86,1.11,7.76,4.5.9,3.38-1.11,6.86-4.5,7.76-5.09,1.35-10.41,2.04-15.71,2.04Z"/>
            </g>
            <path class="cls-3" d="m353.24,303.89c-5.09,1.35-10.41,2.04-15.71,2.04-3.24,0-6.47-.25-9.64-.77-4.3-.69-10.56-2.16-15.23-6.91-3.61-3.68-5.23-8.75-4.69-13.4-4.04,5.69-3.07,14.26,2.31,19.75,4.67,4.75,10.93,6.22,15.23,6.91,3.18.51,6.41.77,9.64.77,5.3,0,10.61-.68,15.71-2.04,3.27-.87,5.25-4.14,4.57-7.41-.64.48-1.37.85-2.19,1.07Z"/>
            <g class="cls-17">
              <path class="cls-25" d="m314.33,287.05c-2.91,7.94,2.44,15.86,10.53,16.82,7.88,1.57,15.8,1.09,23.7.48-3.46,2.15-7.86,2.93-11.97,3.12-6.28.21-12.18-2.11-17.69-4.88-1.82-.91-3.77-1.9-5.19-3.63-2.79-3.53-2.54-9.02.43-12.04.09-.09.25.01.2.13h0Z"/>
            </g>
          </g>
          <g class="cls-17">
            <path class="cls-25" d="m122.82,312.19c13.98-7.67,31.81-8.22,46.16-1.15,8.44,4.14,16.36,9.64,25.68,11.6,25.14,5.41,49.16-6.16,71.78-15.96.12-.06.24.15.11.21-10.91,6.29-22.17,12.22-34.4,15.93-12.18,3.56-25.52,4.71-37.82,1.08-6.17-1.76-11.74-4.87-17.33-7.74-17.61-9.58-35.93-10.13-54.19-3.97h0Z"/>
          </g>
          <g>
            <path class="cls-34" d="m0,65.59c.16-4.56,1.66-12.4,9.95-12.41,1.52,0,2.99.57,4.12,1.59l150.12,134.9-11.35,6.98L2.26,70.6c-1.48-1.24-2.32-3.08-2.25-5.01Z"/>
            <path class="cls-9" d="m154.43,193.47L4.97,68.38c-2.35-1.97-3.59-4.99-3.22-8.03.14-1.16.39-2.41.79-3.62C.68,59.3.14,62.78.02,65.34c-.1,2.06.78,4.04,2.36,5.37l150.47,125.94,11.35-6.98-1.45-1.3-8.31,5.11Z"/>
            <g class="cls-18">
              <path class="cls-23" d="m10.13,58.53c48.73,41.26,97.3,83.77,144.62,126.63C106.02,143.91,57.46,101.39,10.13,58.53h0Z"/>
            </g>
          </g>
          <g>
            <path class="cls-34" d="m79.42,11.72c.46-4.83,2.7-13.18,12.92-11.5,1.55.26,2.93,1.17,3.83,2.46l130.2,184.91-10.64,2.52L80.99,17.08c-1.19-1.52-1.75-3.44-1.57-5.36Z"/>
            <path class="cls-9" d="m219.7,187.72L85.39,15.27c-1.54-1.98-2.23-4.49-1.88-6.97.36-2.54,1.23-5.69,3.33-7.91-5.43,1.52-6.97,7.2-7.39,11-.23,2.11.4,4.23,1.7,5.9l134.58,172.8,10.64-2.52-.87-1.23-5.81,1.37Z"/>
            <g class="cls-18">
              <path class="cls-23" d="m91.62,4.84c41.46,56.16,86.84,119.51,126.59,176.86C176.75,125.59,131.41,62.19,91.62,4.84h0Z"/>
            </g>
          </g>
          <path class="cls-20" d="m274.75,115.48c-.12-.94.76-1.68,1.57-2.19,8.21-5.12,19.03-5.78,27.8-1.69,8.77,4.09,15.22,12.81,16.56,22.39.15,1.06.06,2.44-.94,2.8-.57.21-1.23-.04-1.67-.46-.44-.42-.72-.98-.99-1.53-1.9-3.85-4.1-7.59-7.07-10.7-3.67-3.84-8.45-6.59-13.61-7.84-3.27-.79-6.67-.97-10.01-.55-1.56.2-3.21.89-4.77.91-.49,0-.96-.16-1.45-.18-.8-.03-1.55.23-2.33.36-1.07.18-2.92.07-3.1-1.34Z"/>
          <path class="cls-20" d="m379.7,285.84c-.12-.03-.25-.05-.37-.08-.6-.14-1.23-.29-1.83-.15-1.68.38-1.26,2.46-.31,3.36.68.64,1.58.97,2.47,1.27,5.17,1.74,10.84,2.78,16.04,1.15,5.5-1.73,9.75-6.24,12.62-11.25,2.87-5,4.61-10.56,6.78-15.9,2.17-5.34,4.91-10.64,9.29-14.4.61-.52,1.31-1.25,1-1.99-.21-.51-.85-.72-1.39-.62-.54.1-1,.45-1.43.79-4.83,3.86-8.59,9.04-10.76,14.83-1.21,3.23-1.93,6.61-3.06,9.87s-2.72,6.46-5.31,8.73c-2.8,2.45-5.83,3.92-9.47,4.59-3.93.72-7.98.8-11.93.22-.78-.11-1.56-.26-2.33-.42Z"/>
          <path class="cls-20" d="m89.33,168.4c-1.36,1.34-2.24,3.09-2.92,4.88-2.91,7.67-2.43,16.55,1.27,23.87s12.29,16.21,23.92,14.48c.73-1.63-6.36-2.67-7.88-3.63-6.89-4.34-9.65-10.14-11.4-16.83-1.43-5.46-1.32-11.42.39-16.8.59-1.84,1.6-3.53,1.86-5.47.53-3.99-3.35-2.37-5.26-.5Z"/>
          <path class="cls-4" d="m394.84,305.98s-.06.04-.09.06c-1.14.67-2.29,1.32-3.46,1.97-.09.05-.18.1-.28.15-1.28.72-2.59,1.43-3.91,2.12-.66.35-1.32.7-1.99,1.05-2.16,1.13-4.37,2.22-6.6,3.3-1.2.57-2.42,1.14-3.64,1.7-.06.02-.11.05-.17.08-1.28.59-2.58,1.17-3.88,1.74-.06.02-.13.05-.19.08-.71.31-1.43.62-2.15.93-.72.31-1.44.61-2.16.91-.72.3-1.43.59-2.16.89-1.22.49-2.44.98-3.67,1.46-.54.21-1.09.42-1.63.63-3.58,1.37-7.23,2.68-10.95,3.92-1.24.42-2.5.83-3.76,1.24-.71.23-1.43.46-2.16.68-.68.21-1.37.43-2.06.63-1.21.37-2.43.73-3.65,1.09-.72.21-1.44.42-2.17.63-.8.23-1.61.45-2.43.67-.21.06-.44.12-.66.18-1.4.38-2.82.75-4.24,1.12-2.61.67-5.25,1.31-7.91,1.93-.69.16-1.38.32-2.07.47-1.72.38-3.46.75-5.2,1.12-.81.17-1.62.33-2.44.49-2.57.51-5.15.99-7.76,1.45-4.42.78-8.9,1.47-13.44,2.08-.81.11-1.62.21-2.43.32-.63.09-1.26.17-1.89.24-.68.09-1.37.17-2.05.25-.48.06-.97.11-1.45.17-.9.1-1.81.2-2.71.29-.9.1-1.8.19-2.69.28-2,.2-4,.37-6.02.53-1.3.11-2.6.21-3.91.29-1.13.09-2.27.16-3.4.23-.79.05-1.59.1-2.39.13-.4.02-.81.05-1.21.06-.82.05-1.63.09-2.45.12-.61.03-1.21.06-1.81.08-.74.03-1.47.06-2.2.08-.86.03-1.72.06-2.58.08-3.44.1-6.9.14-10.37.14-1.63,0-3.24,0-4.85-.03-.94,0-1.86-.02-2.79-.05-.25,0-.48,0-.73-.02-.59,0-1.18-.02-1.77-.04h-.03c-1.44-.04-2.88-.09-4.3-.14-1.32-.05-2.65-.1-3.96-.17-.53-.02-1.06-.05-1.59-.08-.07,0-.13,0-.2,0-1.16-.06-2.31-.13-3.47-.21-.2,0-.39-.02-.59-.04-1.14-.06-2.27-.14-3.4-.23-.04,0-.08,0-.11,0-.71-.05-1.43-.1-2.13-.17-.9-.06-1.8-.14-2.69-.22-.69-.06-1.39-.12-2.08-.19-.94-.08-1.89-.17-2.82-.27-.59-.06-1.19-.12-1.78-.18-2.18-.23-4.34-.48-6.5-.75-.79-.1-1.58-.19-2.36-.3-1.22-.15-2.43-.32-3.64-.49-.06,0-.13-.02-.19-.02-1.43-.21-2.85-.41-4.27-.63-1.16-.18-2.33-.36-3.49-.56-.52-.08-1.05-.17-1.56-.25-.05,0-.09-.02-.13-.02-1.11-.19-2.21-.38-3.31-.58-.27-.05-.54-.1-.81-.14-1.3-.24-2.6-.48-3.89-.74-1.2-.24-2.41-.48-3.61-.73-.59-.12-1.17-.24-1.77-.36-2.44-.52-4.87-1.05-7.27-1.62-.49-.11-.98-.23-1.47-.35-.78-.18-1.55-.37-2.31-.57-.23-.05-.45-.1-.67-.17-.55-.13-1.09-.27-1.62-.41-3.88-.99-7.7-2.04-11.47-3.16-1.24-.37-2.49-.75-3.72-1.13-1-.31-2-.63-2.99-.95-.55-.17-1.11-.36-1.66-.54-.78-.26-1.57-.52-2.35-.79-.54-.17-1.08-.36-1.62-.55-.78-.27-1.58-.55-2.35-.82-.68-.24-1.35-.48-2.02-.73-2.37-.86-4.71-1.75-7.02-2.66-1.1-.43-2.19-.87-3.27-1.32-1.2-.49-2.4-1-3.59-1.51-.04-.02-.08-.03-.13-.06-1.21-.52-2.43-1.05-3.62-1.59-.03,0-.06-.02-.08-.03-1.18-.53-2.35-1.06-3.51-1.6-1.18-.55-2.36-1.11-3.53-1.68-.43-.21-.85-.41-1.27-.62-.74-.36-1.47-.73-2.2-1.1-.57-.29-1.15-.58-1.71-.87-.56-.29-1.13-.59-1.7-.89-.57-.29-1.13-.59-1.69-.9-.55-.29-1.11-.59-1.66-.9-1.66-.91-3.3-1.83-4.91-2.77-.54-.31-1.07-.63-1.6-.94-7.98-4.74-15.38-9.84-22.1-15.26-.45-.36-.9-.72-1.34-1.09-2.37-1.95-4.65-3.94-6.84-5.96-.27-.25-.53-.49-.78-.74-.35-.32-.69-.64-1.02-.97-.32-.31-.65-.62-.97-.93-.52-.5-1.01-1-1.51-1.5-.41-.4-.82-.82-1.21-1.23-5.38-5.52-10.11-11.29-14.14-17.28-.24-.36-.48-.72-.71-1.08-.28-.42-.55-.85-.82-1.28-.27-.43-.54-.86-.8-1.28-.56-.9-1.09-1.8-1.62-2.7-1.22-2.12-2.36-4.28-3.4-6.45-.09-.17-.17-.33-.24-.51-.19-.37-.36-.75-.54-1.13-.16-.34-.31-.68-.46-1.03-5.14-11.57-5.8-24.55-1.89-36.58.11-.34.23-.69.35-1.03.17-.47.33-.94.51-1.42.15-.41.31-.82.46-1.23l.12-.31c.17-.43.34-.86.52-1.28.48-1.18.98-2.36,1.52-3.53.17-.39.35-.78.54-1.17.57-1.21,1.17-2.42,1.8-3.61.17-.33.35-.66.52-.99.21-.38.41-.76.63-1.14.28-.51.56-1.01.85-1.51.38-.67.78-1.32,1.17-1.98.36-.59.73-1.18,1.1-1.77.34-.55.69-1.09,1.04-1.62.39-.59.78-1.17,1.17-1.74.18-.27.37-.54.56-.81.27-.4.55-.79.83-1.18.39-.55.78-1.09,1.19-1.62.43-.58.86-1.14,1.3-1.71.44-.57.89-1.13,1.34-1.7.35-.44.71-.87,1.06-1.31.19-.24.39-.47.59-.71.38-.45.76-.9,1.14-1.34.48-.55.96-1.11,1.45-1.66,1.52-1.71,3.11-3.4,4.75-5.05.4-.41.8-.82,1.2-1.21,1.17-1.17,2.37-2.31,3.6-3.45.55-.5,1.09-1,1.65-1.5.58-.52,1.16-1.03,1.74-1.55h0c.59-.52,1.17-1.02,1.77-1.52.62-.52,1.24-1.04,1.87-1.55,1.2-.99,2.43-1.97,3.67-2.93.59-.45,1.18-.91,1.78-1.36.69-.52,1.38-1.03,2.08-1.55,1.2-.88,2.43-1.75,3.66-2.62,2.17-1.51,4.4-3,6.68-4.45.67-.42,1.34-.84,2.01-1.26.6-.37,1.2-.75,1.81-1.12.85-.51,1.7-1.01,2.56-1.52.74-.43,1.48-.86,2.23-1.28.08-.05.15-.09.23-.13.67-.38,1.35-.76,2.03-1.14.76-.42,1.52-.84,2.29-1.25.74-.4,1.47-.79,2.22-1.18.13-.06.25-.13.38-.21.69-.35,1.37-.71,2.07-1.06.78-.4,1.58-.8,2.37-1.2,2.12-1.05,4.26-2.07,6.44-3.08.38-.17.75-.35,1.13-.52.74-.33,1.47-.66,2.21-.99.83-.36,1.67-.73,2.51-1.09.84-.36,1.69-.72,2.54-1.08.86-.36,1.7-.71,2.57-1.05,2.58-1.05,5.19-2.06,7.85-3.04.88-.33,1.77-.65,2.66-.97-10.99,18.97-13.84,42.22-9.91,64.68,5.55,26.95,19.81,49.93,41.21,67.37,37.25,29.33,78.47,42.01,124.44,50.73,21.4,3.96,42.01,3.17,63.41,5.55,17.3,2.47,34.12.6,51.21-2.22Z"/>
          <path class="cls-27" d="m121.65,205.9s9.98-16.19,38.85-18.35c28.87-2.16,42.36,16.66,42.36,16.66"/>
          <path class="cls-27" d="m201.16,196.64c9.9-10.6,18.31-12.1,34.1-10.79"/>
          <g>
            <path class="cls-36" d="m209.14,187.06c1.62,1.19,3.57,1.95,4.79,3.61,1.77,2.39,1.41,6.02-.09,8.62-1.5,2.6-3.91,4.41-6.27,6.11-3.13,2.26-6.35,4.51-9.98,5.55-3.92,1.12-8.1.77-12.03-.33-3.93-1.1-7.64-2.91-11.34-4.71-1.56-.76-3.15-1.55-4.34-2.87-1.18-1.31-1.87-3.04-2.4-4.78-1.19-3.91-1.66-8.17-.72-12.16s3.43-7.67,6.94-9.27c3.35-1.52,7.18-1.06,10.71-.12,3.53.94,7.08,1.71,10.61,2.58,8.52,2.08,12.62,6.69,14.12,7.79Z"/>
            <path class="cls-3" d="m179.22,205.06c-10.05-6.7-10.47-20.19-3.19-28.99-.8.16-1.58.4-2.33.74-3.51,1.6-6,5.28-6.94,9.27-.94,3.99-.47,8.25.72,12.16.53,1.74,1.22,3.47,2.4,4.78,1.19,1.32,2.79,2.11,4.34,2.87,3.7,1.8,7.41,3.62,11.34,4.71,3.93,1.1,8.11,1.46,12.03.33,3.64-1.04,6.86-3.29,9.98-5.55,2.36-1.71,4.77-3.51,6.27-6.11.25-.44.47-.91.66-1.4-7.95,10.43-23.15,14.2-35.28,7.18Z"/>
            <path class="cls-10" d="m175.19,189.58c-.02-2.63.86-5.42,2.98-6.98,2.05-1.51,4.81-1.56,7.35-1.31,7.07.71,13.93,3.39,19.61,7.68,1.63,1.23,3.21,2.64,4.16,4.45.96,1.81,1.21,4.1.21,5.89-1.3,2.33-4.22,3.15-6.85,3.56-10.34,1.63-27.36,1.15-27.45-13.29Z"/>
            <path class="cls-3" d="m184.27,190.42c-.63-.61-1.1-1.38-1.39-2.2-.51-1.48.57-3.06,2.14-3.05,6.66.06,13.29,2.36,18.52,6.48,1.72,1.35,3.41,3.2,3.26,5.38-.11,1.62-1.39,3.1-2.98,3.44-1.59.35-3.36-.46-4.14-1.89-.3-.55-.46-1.17-.69-1.76-2.78-6.98-10.45-2.27-14.72-6.41Z"/>
          </g>
          <g>
            <g>
              <g class="cls-14">
                <path class="cls-25" d="m203.89,267.12c-1.3,0-2.6-.12-3.88-.38-3.44-.68-5.67-4.02-4.99-7.45.68-3.44,4.02-5.67,7.45-4.99,3.43.68,7.77-1.28,10.53-4.77,2.68-3.39,4.35-8.14,5.11-14.53.36-3.05.5-6.15.64-9.43.14-3.11.28-6.32.62-9.56,1.06-9.88,4.59-23.62,15.42-32.96,11.98-10.33,30.4-11.72,43.8-3.31,2.97,1.86,3.86,5.78,2,8.74-1.86,2.97-5.78,3.86-8.74,2-8.66-5.44-21.03-4.5-28.77,2.17-6,5.18-9.94,13.95-11.09,24.71-.3,2.85-.43,5.72-.57,8.77-.15,3.36-.3,6.84-.71,10.36-1.03,8.79-3.57,15.64-7.76,20.92-4.87,6.14-12.03,9.71-19.05,9.71Z"/>
              </g>
              <path class="cls-3" d="m280.59,182.15c-1.86,2.97-5.78,3.86-8.74,2-8.66-5.44-21.03-4.5-28.77,2.17-6,5.18-9.94,13.95-11.09,24.71-.3,2.85-.43,5.72-.56,8.77-.15,3.36-.3,6.84-.71,10.36-1.03,8.79-3.57,15.64-7.76,20.92-4.87,6.14-12.03,9.71-19.05,9.71-1.31,0-2.6-.12-3.88-.38-1.87-.37-3.37-1.52-4.26-3.05-.34.59-.6,1.24-.73,1.94-.68,3.44,1.55,6.77,4.99,7.45,1.28.25,2.58.38,3.88.38,7.02,0,14.18-3.57,19.05-9.71,4.19-5.28,6.73-12.13,7.76-20.92.41-3.52.57-6.99.71-10.36.13-3.04.26-5.92.56-8.77,1.15-10.76,5.09-19.53,11.09-24.71,7.74-6.68,20.11-7.61,28.77-2.17,2.97,1.86,6.88.97,8.74-2,1.29-2.06,1.25-4.58.12-6.55-.04.07-.07.14-.12.21Z"/>
            </g>
            <g class="cls-17">
              <path class="cls-25" d="m204.61,256.5c11.38-1.44,16.15-11.37,16.83-21.78.46-5.17,1.05-10.41,1.97-15.53.85-5.15,1.81-10.28,3.06-15.36,1.18-5.12,2.94-10.31,6.14-14.61,6.13-8.92,17.24-14.31,28.03-12.89,5.33.65,10.35,2.61,14.84,5.27.13.07.02.27-.11.21-4.82-1.95-9.82-3.39-14.88-3.62-12.76-.74-24.8,7.31-30,18.82-3.12,7.03-5.28,14.64-6.32,22.29-.72,5.16-.67,10.3-.76,15.54-.14,5.33-1.55,10.86-4.8,15.18-3.29,4.38-8.72,7.03-14.02,6.72-.15,0-.14-.24,0-.24h0Z"/>
            </g>
          </g>
          <path class="cls-20" d="m137.71,151.02c11.79-20.43,35.01-29.25,56.96-33.83,72.81-15.19,151.23,1.86,213.46,46.41,15.46,11.06,30.55,24.61,37.42,43.18,5.41,14.63,4.85,32.16-3.35,45.03-5.86,9.2-14.99,15.36-24.32,20.2-37.89,19.61-82.29,20.89-123.79,12.22-41.5-8.68-80.83-26.7-119.8-44.61-15.02-6.9-32.33-14.8-37.65-32.79-5.59-18.94-9.26-37.9,1.08-55.81Z"/>
          <g class="cls-17">
            <path class="cls-23" d="m287.63,124.95c57.56,9.88,171.94,50.45,139.9,127.35-1.84,4.43-4.24,8.58-6.72,12.64.54-1.17,1.84-3.7,2.36-4.81.43-.95,1.65-3.9,2.11-4.91l1.23-3.33c27.27-74.9-84.17-112.05-138.88-126.95h0Z"/>
          </g>
          <g class="cls-13">
            <path class="cls-23" d="m249.97,67.78c78.01,1.43,193.14,29.88,217.28,114.89,1.51,5.62,2.57,11.32,3.26,17.06-3.4-16.88-10.17-33.07-20.36-46.96-41.77-57.37-132.93-78.09-200.19-84.99h0Z"/>
          </g>
          <g class="cls-13">
            <path class="cls-23" d="m44.9,132.32c-25.54,29.28-42.77,71.2-27.78,109.31,18.4,46.41,73.38,75.5,117.19,94.14.12.05.18.19.13.31-.05.12-.19.18-.31.13-21.44-8.35-42.5-17.99-62.1-30.27-4.78-3.01-9.81-6.44-14.32-9.8-23.24-17.2-44-40.64-49.64-69.86-4.63-23.29,2.19-47.66,14.49-67.48,6.11-9.92,13.44-19.05,22.02-26.82.1-.09.25-.08.34.02.09.1.08.24,0,.33h0Z"/>
          </g>
          <path class="cls-19" d="m175.43,94.15c1.68-1.12,3.57-1.88,5.53-2.35,73.42-17.93,153.15-8.03,218.31,30.25,18.05,10.61,38.6,31.19,50,51.39,1.08,1.91-1.5,3.76-2.98,2.13-42.49-46.79-76.84-57.25-122.7-69.61-41.37-11.15-87.84-14.91-129.91-6.82-5.89,1.13-12.63,2-18.49,3.24-6.19,1.31-5.6-4.35.24-8.23Z"/>
        </g>
      </g>
    </g>
  </g>
</svg>