<?xml version="1.0" encoding="UTF-8"?>
<svg id="Calque_2" data-name="Calque 2" xmlns="http://www.w3.org/2000/svg" viewBox="0 0 418.26 178.23">
  <defs>
    <style>
      .cls-1 {
        fill: #479e7b;
      }

      .cls-2 {
        fill: #64b595;
      }

      .cls-3 {
        fill: #ee523a;
      }

      .cls-4 {
        fill: #fbd155;
      }

      .cls-5 {
        fill: #fee881;
      }

      .cls-6 {
        fill: #ff7954;
      }

      .cls-7 {
        fill: #4199a7;
      }

      .cls-8 {
        opacity: .37;
      }

      .cls-8, .cls-9 {
        fill: none;
      }

      .cls-10 {
        fill: #77d0ac;
      }

      .cls-11 {
        fill: #fff2bd;
      }

      .cls-12 {
        fill: #f05142;
      }

      .cls-13 {
        fill: #ffa187;
      }

      .cls-9 {
        opacity: .56;
      }

      .cls-14 {
        fill: #62bbc9;
      }

      .cls-15 {
        fill: #ffc7b7;
      }

      .cls-16 {
        fill: #fd9a8c;
      }

      .cls-17 {
        fill: #76caa8;
      }

      .cls-18 {
        fill: #75c6a3;
      }

      .cls-19 {
        fill: #fff7ea;
      }

      .cls-20 {
        fill: #ede6da;
      }

      .cls-21 {
        fill: #fdb228;
      }

      .cls-22 {
        fill: #358797;
      }

      .cls-23 {
        fill: #f3947b;
      }
    </style>
  </defs>
  <g id="Layer_1" data-name="Layer 1">
    <g id="pizza_2" data-name="pizza 2">
      <path class="cls-5" d="m413.59,41.48c4.99,20.75-18.8,41.06-23.13,44.76-15.03,12.83-21.79,8.68-43.34,25.45-12.24,9.52-11.48,11.96-20.58,16.79-11.54,6.12-16.13,3.99-39.59,10.07-17.95,4.65-17.78,6.55-30.05,8.84-15.62,2.91-19.23.45-36.35,1.51-25.57,1.57-26.3,7.59-59.47,11.46-16.23,1.89-24.57,2.79-35.29.69-14.64-2.87-17.17-7.68-30.28-8.21-13.82-.56-16.31,4.57-30.37,4.02-11.04-.43-18.96-3.97-27.11-7.6-18.01-8.03-32.06-14.3-36.61-28.37-5.23-16.19,5.04-33.68,13.24-42.24,2.68-2.8,10.29-7.37,25.52-16.52,12.8-7.69,19.2-11.53,24.8-13.94,11.43-4.9,13.66-3.66,31.82-9.18,16.23-4.94,15.19-6.16,33.13-11.88,11.64-3.71,13.21-3.16,34.87-9.16,9.1-2.52,9.75-2.84,19.68-5.62,13.18-3.7,27.66-7.51,33.7-8.93,20.72-4.87,40.59-3.73,80.33-1.43,7.33.42,17.77,1.67,38.66,4.16,11.77,1.4,16.53,2.22,22.9,4.75,9.08,3.6,9.59,6.16,17.46,8.24,9.57,2.53,12.16-.37,18.69,1.9,8.89,3.09,15.44,12.43,17.38,20.47Z"/>
      <path class="cls-3" d="m27.96,94.62s23.2-20.55,31.84-22.56,31.59-15.24,40.23-17.25c8.64-2.01,2.32-12.41,29.26-14.05,26.94-1.64,38.19-14.8,55.26-14.14s31.69-.76,45.42-3.29c13.72-2.53,28.14-10.49,37.18-7.97,9.04,2.52,30.28,1.55,43.78,3.69,13.51,2.14,26.79-2.26,39.17,3.44,12.38,5.7,34.49,8.48,36.67,17.87,2.18,9.39,6.68,17.58-.94,23.96-7.62,6.39-21.42,14.2-32.13,21.31-10.71,7.1-19.75,15.8-35.22,22.02-15.47,6.23-45.16,7.18-57.65,9.42-12.49,2.24-19.75,4.58-39.5,9.17-19.75,4.58-22.04,14.35-45.06,10.46-23.02-3.89-12.53-6.33-42.73-1.95-30.21,4.37-47.67,10.4-59.11,3.16-11.44-7.24-17.5-2.53-31.66-13.1-14.16-10.56-30.42-13.38-14.81-30.2Z"/>
      <g class="cls-8">
        <path class="cls-4" d="m46.18,93.07s20.85-18.47,28.61-20.27,28.39-13.7,36.15-15.5c7.77-1.8,2.09-11.15,26.3-12.62,24.21-1.47,34.32-13.3,49.66-12.71,15.33.59,28.48-.68,40.82-2.95,12.33-2.27,25.29-9.42,33.41-7.16s27.21,1.39,39.35,3.31c12.14,1.92,24.08-2.03,35.21,3.09,11.13,5.12,31,7.62,32.95,16.06,1.96,8.44,6,15.79-.85,21.53-6.85,5.74-19.25,12.77-28.88,19.15s-17.75,14.19-31.65,19.79c-13.9,5.6-40.59,6.46-51.81,8.47-11.22,2.01-17.75,4.12-35.5,8.24-17.75,4.12-19.8,12.89-40.49,9.4-20.69-3.5-11.26-5.69-38.4-1.76-27.15,3.93-42.84,9.35-53.12,2.84-10.28-6.51-15.73-2.28-28.45-11.77-12.72-9.49-27.34-12.03-13.31-27.14Z"/>
      </g>
      <g>
        <path class="cls-13" d="m137.72,105.62c-.72,3.87-4.9,6.48-10.35,8.46-1.65.6-3.41,1.15-5.23,1.65-2.99.83-6.12,1.55-9.13,2.24-.38.09-.76.17-1.14.26-1.47.34-2.96.67-4.46.99-.22.05-.44.09-.65.14-2.06.42-4.13.8-6.18,1.07-7.39.98-14.43.57-19.24-3.95-1.49-1.4-2.61-3.66-4.87-8.18-5.73-11.49-8.59-17.23-7.01-21.94,1.21-3.59,4.47-5.82,10.16-7.79,1.12-.39,2.32-.76,3.63-1.14.72-.21,1.47-.42,2.25-.62,1.11-.29,2.27-.59,3.49-.89,2.68-.67,5.65-1.36,8.92-2.12.5-.12.98-.23,1.45-.34,2.28-.53,4.27-.98,6.05-1.31,4.88-.93,8.09-1.02,10.98.37,4.42,2.11,4.59,5.06,13.52,18.91,6.64,10.31,8.31,11.43,7.8,14.19Z"/>
        <path class="cls-15" d="m107.2,118c.06.42.13.83.21,1.22-.22.05-.44.09-.65.14-2.06.42-4.13.8-6.18,1.07-2.76-3.8-.94-3.57-3.43-3.38s-.51-3.94-1.5-7.79c-.99-3.85-1.18-3.52-3.16-4.59-1.98-1.06-1.11-1.81-2.24-5.05-1.13-3.24-2.13-4.49-5.54-6.44-3.41-1.94-1.92-3.38.04-6.35,1.96-2.97-4.62-6.9-4.62-6.9l-.5-1.36c1.12-.39,2.32-.76,3.63-1.14.72-.21,1.47-.42,2.25-.62.41,1.15.75,1.89,3.64,3.99,4.71,3.42,5.01,3.65,5.38,8.2.37,4.55,1.08,2.97,4.11,5.56s1.89,1.94,2.86,6.95c.96,5.01.61,4.5,1.99,7.69,1.38,3.2,3.16,4.59,3.72,8.81Z"/>
        <path class="cls-23" d="m127.37,114.08c-1.65.6-3.41,1.15-5.23,1.65-.83-1.02-1.62-2.04-2.27-2.9-2.71-3.55-.9-3.36-3.39-3.15-2.49.21-.46-3.71-1.41-7.33s-1.14-3.31-3.1-4.29-1.09-1.69-2.18-4.74c-1.09-3.05-2.08-4.22-5.46-6.01-3.38-1.79-1.88-3.17.11-6,1.99-2.83-4.54-6.46-4.54-6.46l-.52-1.38c2.28-.53,4.27-.98,6.05-1.31.37.92.9,1.66,3.47,3.4,4.66,3.18,4.96,3.39,5.28,7.68.32,4.29,1.04,2.79,4.04,5.2,3,2.41,1.87,1.81,2.78,6.53.91,4.72.56,4.24,1.9,7.24,1.34,3,3.1,4.29,3.62,8.27.17,1.34.52,2.52.87,3.61Z"/>
      </g>
      <g>
        <path class="cls-13" d="m292.27,42c.67-3.2,4.19-5.3,8.75-6.85,1.38-.47,2.86-.89,4.37-1.28,2.5-.64,5.11-1.18,7.63-1.7.32-.07.64-.13.96-.2,1.23-.25,2.47-.51,3.73-.74.18-.04.36-.07.55-.1,1.72-.31,3.45-.59,5.15-.78,6.16-.68,12.01-.22,15.92,3.62,1.21,1.19,2.11,3.08,3.9,6.88,4.56,9.65,6.84,14.47,5.44,18.36-1.07,2.97-3.82,4.76-8.58,6.3-.93.3-1.94.59-3.04.88-.6.16-1.23.32-1.88.48-.92.22-1.9.45-2.92.68-2.24.51-4.72,1.03-7.46,1.61-.41.09-.82.17-1.21.26-1.9.4-3.57.74-5.05.98-4.07.68-6.74.7-9.12-.5-3.63-1.83-3.73-4.28-10.9-15.96-5.34-8.69-6.71-9.65-6.23-11.93Z"/>
        <path class="cls-15" d="m317.86,32.25c-.04-.35-.09-.69-.15-1.02.18-.04.36-.07.55-.1,1.72-.31,3.45-.59,5.15-.78,2.22,3.2.72,2.98,2.8,2.87,2.08-.12.35,3.29,1.11,6.5.76,3.22.92,2.95,2.55,3.87s.89,1.52,1.77,4.24c.88,2.72,1.69,3.77,4.49,5.45,2.8,1.67,1.53,2.84-.15,5.28s3.72,5.82,3.72,5.82l.39,1.14c-.93.3-1.94.59-3.04.88-.6.16-1.23.32-1.88.48-.32-.96-.59-1.58-2.96-3.38-3.85-2.93-4.1-3.12-4.32-6.91-.23-3.78-.84-2.48-3.32-4.69-2.47-2.21-1.54-1.65-2.25-5.83-.71-4.18-.43-3.75-1.52-6.43-1.09-2.68-2.55-3.87-2.94-7.38Z"/>
        <path class="cls-23" d="m301.02,35.15c1.38-.47,2.86-.89,4.37-1.28.67.86,1.31,1.72,1.84,2.45,2.19,3,.69,2.81,2.76,2.68,2.07-.13.32,3.09,1.05,6.12.73,3.03.89,2.77,2.51,3.62,1.61.85.87,1.43,1.73,3.98.86,2.55,1.65,3.54,4.43,5.09,2.78,1.55,1.5,2.67-.2,4.98-1.7,2.32,3.66,5.45,3.66,5.45l.41,1.16c-1.9.4-3.57.74-5.05.98-.29-.77-.72-1.39-2.82-2.89-3.82-2.72-4.06-2.91-4.25-6.47-.19-3.57-.82-2.34-3.27-4.39-2.45-2.06-1.52-1.54-2.19-5.47-.67-3.94-.39-3.53-1.45-6.05s-2.51-3.62-2.86-6.94c-.12-1.12-.39-2.11-.66-3.02Z"/>
      </g>
      <g>
        <path class="cls-13" d="m210.52,114.42c-1.32,3.04-4.94,4.3-9.38,4.78-1.34.15-2.76.22-4.21.25-2.38.05-4.85-.02-7.22-.09-.3,0-.6-.02-.9-.03-1.16-.03-2.33-.08-3.51-.13-.17,0-.34-.02-.51-.03-1.61-.09-3.22-.22-4.79-.43-5.67-.76-10.81-2.59-13.46-7.33-.82-1.47-1.2-3.57-1.95-7.77-1.92-10.68-2.88-16.02-.76-19.56,1.62-2.7,4.49-3.85,9.1-4.27.9-.08,1.88-.14,2.92-.17.58-.02,1.17-.03,1.8-.04.88,0,1.8,0,2.77,0,2.12.02,4.46.08,7.04.15.39,0,.77.02,1.14.03,1.8.05,3.36.1,4.75.2,3.8.27,6.2.88,8.06,2.63,2.85,2.68,2.38,5.14,6.19,18.45,2.84,9.91,3.85,11.18,2.91,13.35Z"/>
        <path class="cls-15" d="m185.4,118.14c-.04.36-.07.71-.09,1.05-.17,0-.34-.02-.51-.03-1.61-.09-3.22-.22-4.79-.43-1.28-3.71.02-3.14-1.86-3.51-1.89-.37.42-3.36.46-6.73.04-3.38-.17-3.15-1.42-4.45-1.25-1.29-.46-1.72-.64-4.63-.18-2.91-.67-4.16-2.81-6.48-2.14-2.32-.74-3.19,1.31-5.23,2.05-2.03-2.03-6.67-2.03-6.67l-.09-1.23c.9-.08,1.88-.14,2.92-.17.58-.02,1.17-.03,1.8-.04.07,1.03.18,1.72,1.89,4.06,2.8,3.82,2.97,4.07,2.33,7.89-.64,3.82.2,2.67,1.92,5.45,1.72,2.78,1.01,2,.71,6.33-.3,4.33-.45,3.84-.08,6.76.37,2.93,1.42,4.45.98,8.04Z"/>
        <path class="cls-23" d="m201.14,119.19c-1.34.15-2.76.22-4.21.25-.41-1.01-.79-2.02-1.1-2.87-1.29-3.5.01-2.96-1.88-3.32-1.89-.36.41-3.16.44-6.34.03-3.19-.18-2.97-1.43-4.2-1.25-1.22-.46-1.62-.66-4.37s-.69-3.92-2.83-6.11c-2.14-2.2-.75-3.01,1.29-4.92,2.04-1.91-2.05-6.29-2.05-6.29l-.11-1.25c1.8.05,3.36.1,4.75.2.09.83.33,1.56,1.88,3.54,2.81,3.61,2.99,3.85,2.36,7.45-.63,3.6.21,2.52,1.94,5.14,1.73,2.62,1.02,1.89.74,5.97-.28,4.08-.44,3.61-.05,6.37.38,2.76,1.43,4.2,1.01,7.58-.14,1.14-.13,2.19-.08,3.16Z"/>
      </g>
      <g>
        <path class="cls-13" d="m259.81,55.63c3.07-1.23,6.54.42,10.03,3.2,1.06.84,2.12,1.78,3.17,2.78,1.73,1.64,3.43,3.42,5.07,5.14.21.22.41.43.62.65.8.84,1.6,1.69,2.4,2.56.12.13.23.25.35.38,1.08,1.2,2.14,2.42,3.1,3.68,3.5,4.53,5.86,9.44,4.41,14.68-.45,1.62-1.66,3.38-4.07,6.9-6.14,8.94-9.21,13.42-13.21,14.44-3.05.78-5.9-.42-9.47-3.37-.7-.58-1.43-1.22-2.19-1.93-.42-.39-.86-.8-1.3-1.24-.63-.61-1.28-1.26-1.96-1.95-1.49-1.51-3.11-3.19-4.9-5.06-.27-.28-.54-.56-.79-.83-1.24-1.3-2.32-2.44-3.23-3.48-2.51-2.87-3.79-4.98-3.88-7.54-.14-3.91,1.92-5.33,8.57-17.47,4.95-9.04,5.12-10.66,7.32-11.54Z"/>
        <path class="cls-15" d="m280.29,70.65c.28-.22.55-.45.8-.68.12.13.23.25.35.38,1.08,1.2,2.14,2.42,3.1,3.68-1.7,3.54-2.22,2.21-1.14,3.81,1.08,1.59-2.66,2.09-5.06,4.46-2.41,2.38-2.1,2.36-2.12,4.16s-.89,1.55-2.81,3.74c-1.92,2.2-2.45,3.43-2.56,6.58-.11,3.15-1.72,2.79-4.61,2.79-2.89,0-3.25,6.17-3.25,6.17l-.8.94c-.7-.58-1.43-1.22-2.19-1.93-.42-.39-.86-.8-1.3-1.24.67-.78,1.08-1.35,1.51-4.22.7-4.68.75-4.99,3.9-7.25,3.15-2.27,1.74-2.04,2.47-5.23.73-3.19.69-2.13,3.95-5,3.26-2.87,3.02-2.41,4.81-4.75,1.79-2.34,2.12-4.16,4.96-6.41Z"/>
        <path class="cls-23" d="m269.84,58.83c1.06.84,2.12,1.78,3.17,2.78-.42,1.01-.86,1.99-1.23,2.81-1.55,3.4-2.09,2.09-1,3.68,1.09,1.58-2.51,1.96-4.77,4.2s-1.96,2.24-1.93,3.99c.03,1.75-.81,1.48-2.61,3.57-1.79,2.09-2.27,3.27-2.28,6.34-.02,3.07-1.58,2.67-4.38,2.59-2.8-.08-2.96,5.92-2.96,5.92l-.8.96c-1.24-1.3-2.32-2.44-3.23-3.48.52-.66.86-1.34,1.15-3.84.54-4.54.58-4.84,3.56-6.95,2.98-2.12,1.62-1.94,2.23-5.02.61-3.08.6-2.06,3.67-4.76,3.07-2.7,2.85-2.26,4.52-4.49,1.67-2.23,1.93-3.99,4.61-6.1.9-.71,1.63-1.47,2.28-2.19Z"/>
      </g>
      <g>
        <path class="cls-13" d="m142.66,55.63c.57-2.06,4-4.23,8.49-6.34,1.36-.64,2.81-1.28,4.31-1.9,2.46-1.03,5.05-2.04,7.53-3.01.31-.12.63-.24.94-.37,1.21-.47,2.44-.95,3.68-1.42.18-.07.36-.14.54-.2,1.7-.64,3.41-1.25,5.1-1.81,6.1-2.02,11.93-3.29,15.94-2.06,1.24.38,2.19,1.26,4.09,3.03,4.83,4.49,7.24,6.73,5.97,9.39-.97,2.03-3.65,3.81-8.34,5.97-.92.42-1.92.86-2.99,1.32-.6.25-1.21.51-1.86.78-.91.38-1.87.76-2.88,1.17-2.21.89-4.66,1.85-7.36,2.91-.41.16-.81.32-1.2.47-1.88.74-3.53,1.37-4.99,1.91-4.03,1.47-6.68,2.19-9.09,2.11-3.67-.13-3.84-1.54-11.33-6.54-5.57-3.72-6.96-3.92-6.56-5.4Z"/>
        <path class="cls-15" d="m167.8,43.15c-.05-.2-.11-.38-.18-.56.18-.07.36-.14.54-.2,1.7-.64,3.41-1.25,5.1-1.81,2.31,1.3.81,1.57,2.87.95,2.06-.61.45,1.84,1.3,3.54.85,1.7,1.01,1.5,2.65,1.61,1.64.11.93.66,1.89,2.03.96,1.37,1.8,1.78,4.63,2.03s1.61,1.27.01,3.15c-1.6,1.88,3.87,2.45,3.87,2.45l.42.57c-.92.42-1.92.86-2.99,1.32-.6.25-1.21.51-1.86.78-.35-.48-.64-.78-3.04-1.21-3.92-.71-4.17-.76-4.51-2.93-.34-2.17-.91-1.24-3.44-1.89-2.53-.65-1.58-.57-2.42-2.84-.84-2.28-.54-2.1-1.7-3.39-1.16-1.3-2.65-1.61-3.15-3.58Z"/>
        <path class="cls-23" d="m151.15,49.29c1.36-.64,2.81-1.28,4.31-1.9.7.33,1.36.67,1.9.96,2.27,1.19.77,1.47,2.83.85,2.06-.62.41,1.74,1.23,3.33.81,1.59.97,1.4,2.6,1.48,1.63.08.91.61,1.84,1.89.93,1.28,1.75,1.65,4.56,1.84,2.81.18,1.58,1.18-.04,2.99-1.62,1.81,3.8,2.25,3.8,2.25l.44.57c-1.88.74-3.53,1.37-4.99,1.91-.31-.38-.76-.63-2.89-.96-3.88-.6-4.13-.65-4.42-2.7-.3-2.05-.88-1.16-3.38-1.73-2.5-.57-1.56-.51-2.35-2.65-.79-2.14-.5-1.98-1.63-3.19s-2.6-1.48-3.06-3.34c-.15-.63-.45-1.14-.75-1.6Z"/>
      </g>
      <g>
        <path class="cls-13" d="m218.83,53.73c1.54,1.49,5.6,1.59,10.54,1.11,1.5-.14,3.07-.34,4.68-.57,2.65-.37,5.38-.82,8.02-1.26.33-.05.67-.11,1-.17,1.28-.21,2.59-.43,3.89-.66.19-.03.38-.07.57-.1,1.79-.32,3.57-.66,5.31-1.04,6.28-1.38,11.94-3.27,14.76-6.38.87-.96,1.24-2.2,1.97-4.69,1.86-6.32,2.78-9.49.34-11.12-1.87-1.25-5.09-1.41-10.22-.87-1.01.11-2.09.24-3.25.39-.64.09-1.31.18-2,.28-.98.14-2,.3-3.07.47-2.35.37-4.95.79-7.82,1.26-.43.07-.86.14-1.27.21-1.99.33-3.73.62-5.27.91-4.21.79-6.86,1.53-8.89,2.83-3.09,1.98-2.51,3.29-6.4,11.41-2.89,6.04-3.98,6.93-2.88,7.99Z"/>
        <path class="cls-15" d="m246.82,51.62c.06.19.1.39.13.58.19-.03.38-.07.57-.1,1.79-.32,3.57-.66,5.31-1.04,1.32-2.3-.11-1.76,1.98-2.28s-.56-1.82-.69-3.71c-.13-1.89.1-1.8,1.46-2.74s.46-1.04.59-2.71c.13-1.67.64-2.45,2.95-4.11s.74-1.92-1.6-2.72c-2.33-.8,2.08-4.09,2.08-4.09l.07-.71c-1.01.11-2.09.24-3.25.39-.64.09-1.31.18-2,.28-.05.59-.15.99-2,2.6-3.01,2.61-3.19,2.79-2.38,4.83.82,2.04-.15,1.54-1.99,3.38-1.84,1.85-1.07,1.3-.63,3.68.44,2.38.6,2.08.27,3.79-.34,1.71-1.46,2.74-.88,4.68Z"/>
        <path class="cls-23" d="m229.36,54.85c1.5-.14,3.07-.34,4.68-.57.43-.64.82-1.27,1.15-1.8,1.34-2.18-.09-1.66,2-2.18,2.09-.52-.54-1.71-.65-3.49-.11-1.79.12-1.7,1.48-2.6,1.36-.9.47-.99.62-2.57.14-1.57.66-2.32,2.99-3.91,2.32-1.59.75-1.82-1.57-2.55-2.32-.73,2.12-3.88,2.12-3.88l.09-.72c-1.99.33-3.73.62-5.27.91-.08.48-.33.93-2,2.31-3.03,2.5-3.22,2.66-2.42,4.58.79,1.92-.17,1.45-2.02,3.22-1.86,1.76-1.08,1.23-.66,3.48.42,2.24.58,1.96.23,3.57-.36,1.61-1.48,2.6-.92,4.43.19.62.2,1.21.18,1.76Z"/>
      </g>
      <g>
        <path class="cls-19" d="m320.54,73.67c-.51-.79-1.12-1.49-1.79-2.11-.17-.15-.35-.29-.53-.44-.18-.15-.35-.29-.54-.41l-.41-.28-.15-.11c-.19-.12-.39-.23-.58-.35-.38-.24-.79-.43-1.18-.64-.4-.2-.81-.37-1.22-.55-1.65-.67-3.35-1.13-5.06-1.48-1.71-.35-3.45-.57-5.18-.71-1.73-.14-3.47-.19-5.2-.17-1.73,0-3.46.1-5.18.22-3.44.26-6.86.75-10.25,1.39-1.69.33-3.37.7-5.05,1.12-1.67.43-3.33.91-4.96,1.45-3.27,1.09-6.49,2.35-9.55,3.95-3.05,1.6-6,3.47-8.48,5.91-1.23,1.23-2.34,2.6-3.13,4.19-.08.17-.16.34-.23.51-.27.64-.48,1.31-.62,2.01-.15.88-.16,1.79-.02,2.67.17.88.49,1.73.93,2.52.46.77,1.03,1.48,1.66,2.1,1.29,1.23,2.83,2.16,4.42,2.9,1.6.73,3.27,1.27,4.97,1.7,1.7.43,3.42.74,5.16.95,1.73.21,3.48.34,5.23.39,1.75.05,3.5.04,5.24-.05,1.75-.09,3.49-.24,5.23-.44,1.73-.21,3.46-.48,5.18-.78,1.72-.33,3.43-.7,5.13-1.13,1.7-.44,3.38-.92,5.05-1.46,1.67-.55,3.31-1.17,4.93-1.85,1.62-.68,3.21-1.42,4.77-2.25,1.55-.84,3.06-1.76,4.5-2.78,1.44-1.03,2.83-2.15,4.07-3.44,1.24-1.3,2.35-2.76,3.14-4.44.38-.84.66-1.74.81-2.67.13-.93.11-1.89-.06-2.82-.21-.92-.57-1.8-1.05-2.6Zm-3.15,5.06c-.11.56-.31,1.13-.57,1.69-.56,1.13-1.42,2.23-2.44,3.24-2.07,2.04-4.7,3.78-7.5,5.25-2.8,1.5-5.81,2.72-8.89,3.77-1.54.52-3.11.99-4.69,1.41-1.59.42-3.18.78-4.8,1.11-1.61.32-3.23.6-4.85.82-1.63.22-3.25.39-4.88.5-3.26.21-6.53.25-9.71-.06-3.17-.31-6.31-.9-9.06-2.03-1.36-.57-2.61-1.28-3.6-2.16-.49-.44-.9-.92-1.24-1.43-.32-.52-.55-1.07-.69-1.64-.11-.58-.13-1.18-.06-1.79.02-.16.06-.32.09-.48.1-.45.25-.91.45-1.36.55-1.22,1.41-2.41,2.44-3.49,1.04-1.09,2.24-2.09,3.52-3.02,1.28-.92,2.65-1.78,4.08-2.55,1.43-.78,2.9-1.49,4.42-2.14,1.51-.64,3.05-1.25,4.63-1.78,1.57-.53,3.17-1,4.77-1.43,1.61-.42,3.23-.79,4.87-1.11,1.64-.31,3.29-.57,4.94-.77,1.65-.19,3.31-.32,4.96-.4,3.31-.12,6.61-.01,9.8.45,3.18.45,6.29,1.22,8.95,2.48,1.32.63,2.5,1.4,3.42,2.28.45.45.82.92,1.12,1.42.06.1.11.21.16.32h0c.19.41.32.82.4,1.24.08.54.07,1.09-.01,1.65Z"/>
        <path class="cls-20" d="m317.27,70.42c.1,1.77.06,3.48-.18,5.04-.02.12-.05.25-.08.37-.05-.11-.1-.21-.16-.32-.3-.49-.67-.97-1.12-1.42-.91-.89-2.09-1.66-3.42-2.28-2.66-1.26-5.77-2.03-8.95-2.48-3.19-.46-6.49-.57-9.8-.45-1.66.08-3.31.21-4.96.4-1.65.2-3.3.47-4.94.77-1.64.33-3.26.7-4.87,1.11-1.61.43-3.2.9-4.77,1.43-1.57.53-3.11,1.13-4.63,1.78-1.51.65-2.99,1.36-4.42,2.14-1.42.77-2.79,1.63-4.08,2.55-1.28.93-2.48,1.93-3.52,3.02-1.03,1.09-1.89,2.27-2.44,3.49-.2.45-.35.91-.45,1.36-1.02-.48-1.88-1.09-2.62-1.79.07-.17.15-.34.23-.51.79-1.58,1.9-2.96,3.13-4.19,2.48-2.44,5.43-4.31,8.48-5.91,3.06-1.6,6.28-2.87,9.55-3.95,1.64-.53,3.29-1.01,4.96-1.45,1.67-.42,3.36-.79,5.05-1.12,3.39-.64,6.8-1.12,10.25-1.39,1.72-.12,3.45-.21,5.18-.22,1.73-.02,3.47.03,5.2.17,1.73.14,3.46.37,5.18.71,1.71.35,3.42.81,5.06,1.48.41.18.82.35,1.22.55.4.21.8.4,1.18.64.19.12.39.23.58.35l.15.11Z"/>
      </g>
      <g>
        <path class="cls-19" d="m223.73,94.15c-.51-.79-1.12-1.49-1.79-2.11-.17-.15-.35-.29-.53-.44-.17-.15-.35-.29-.54-.41l-.41-.28-.15-.11c-.19-.12-.39-.23-.58-.35-.38-.24-.78-.43-1.18-.64-.4-.2-.81-.37-1.22-.55-1.65-.67-3.35-1.13-5.06-1.48-1.71-.35-3.45-.57-5.18-.71-1.73-.14-3.47-.19-5.2-.17-1.73,0-3.46.1-5.18.22-3.44.26-6.86.75-10.25,1.39-1.69.33-3.37.7-5.05,1.12-1.67.43-3.32.91-4.96,1.45-3.27,1.09-6.49,2.35-9.55,3.95-3.05,1.6-6,3.47-8.48,5.91-1.23,1.23-2.34,2.6-3.13,4.19-.08.17-.16.34-.23.51-.27.64-.48,1.31-.62,2.01-.15.88-.16,1.79-.02,2.68.17.88.49,1.73.93,2.52.46.77,1.03,1.48,1.66,2.1,1.29,1.23,2.83,2.16,4.42,2.9,1.6.73,3.27,1.27,4.97,1.7,1.7.43,3.42.74,5.16.95,1.73.21,3.48.34,5.23.39,1.75.05,3.5.04,5.24-.05,1.75-.09,3.49-.24,5.23-.44,1.73-.21,3.46-.48,5.18-.78,1.72-.33,3.43-.7,5.13-1.13,1.7-.44,3.38-.92,5.05-1.46,1.67-.55,3.31-1.17,4.93-1.85,1.62-.68,3.21-1.42,4.77-2.25,1.55-.84,3.06-1.76,4.5-2.78,1.44-1.03,2.83-2.15,4.07-3.44,1.24-1.3,2.35-2.76,3.14-4.44.38-.84.66-1.74.81-2.67.13-.93.11-1.89-.06-2.82-.21-.92-.57-1.8-1.05-2.6Zm-3.15,5.06c-.11.56-.31,1.13-.57,1.69-.56,1.13-1.42,2.23-2.44,3.24-2.07,2.04-4.7,3.78-7.5,5.25-2.8,1.5-5.81,2.72-8.89,3.77-1.54.52-3.11.99-4.69,1.41-1.59.42-3.18.78-4.8,1.11-1.61.32-3.23.6-4.85.82-1.63.22-3.25.39-4.88.5-3.26.21-6.53.25-9.71-.06-3.17-.31-6.31-.9-9.06-2.03-1.36-.57-2.61-1.28-3.6-2.16-.49-.44-.9-.92-1.24-1.43-.32-.52-.55-1.07-.69-1.64-.11-.58-.13-1.18-.06-1.79.02-.16.06-.32.09-.48.1-.45.25-.91.45-1.36.55-1.22,1.41-2.41,2.44-3.49,1.04-1.09,2.24-2.09,3.52-3.02,1.28-.92,2.65-1.78,4.08-2.55,1.43-.78,2.9-1.49,4.42-2.14,1.51-.64,3.05-1.25,4.63-1.78,1.57-.53,3.17-1,4.77-1.43,1.61-.42,3.23-.79,4.87-1.12,1.64-.31,3.29-.57,4.94-.77,1.65-.19,3.31-.32,4.96-.4,3.31-.12,6.61-.01,9.8.45,3.18.45,6.29,1.22,8.95,2.48,1.32.62,2.5,1.4,3.42,2.28.45.45.82.92,1.12,1.42.06.1.11.21.16.32h0c.19.41.32.82.4,1.24.08.54.07,1.09-.01,1.65Z"/>
        <path class="cls-20" d="m220.46,90.9c.1,1.77.06,3.48-.18,5.04-.02.12-.05.25-.08.37-.05-.11-.1-.21-.16-.32-.3-.49-.67-.97-1.12-1.42-.91-.89-2.09-1.66-3.42-2.28-2.66-1.26-5.77-2.03-8.95-2.48-3.19-.46-6.49-.57-9.8-.45-1.66.08-3.31.21-4.96.4-1.65.2-3.3.47-4.94.77-1.64.33-3.26.7-4.87,1.12-1.61.43-3.2.9-4.77,1.43-1.57.53-3.11,1.13-4.63,1.78-1.51.65-2.99,1.36-4.42,2.14-1.42.77-2.79,1.63-4.08,2.55-1.28.93-2.48,1.93-3.52,3.02-1.03,1.09-1.89,2.27-2.44,3.49-.2.45-.35.91-.45,1.36-1.02-.48-1.88-1.09-2.62-1.79.07-.17.15-.34.23-.51.79-1.58,1.9-2.96,3.13-4.19,2.48-2.44,5.43-4.31,8.48-5.91,3.06-1.6,6.28-2.87,9.55-3.95,1.64-.53,3.29-1.01,4.96-1.45,1.67-.42,3.36-.79,5.05-1.12,3.39-.64,6.8-1.12,10.25-1.39,1.72-.12,3.45-.21,5.18-.22,1.73-.02,3.47.03,5.2.17,1.73.14,3.46.37,5.18.71,1.71.35,3.42.81,5.06,1.48.41.18.82.35,1.22.55.4.21.8.4,1.18.64.19.12.39.23.58.35l.15.11Z"/>
      </g>
      <g>
        <path class="cls-19" d="m266.83,86.46c-.51-.79-1.12-1.49-1.79-2.11-.17-.15-.35-.29-.53-.44-.17-.15-.35-.29-.54-.41l-.41-.28-.15-.11c-.19-.12-.39-.23-.58-.35-.38-.24-.78-.43-1.18-.64-.4-.2-.81-.37-1.22-.55-1.65-.67-3.35-1.13-5.06-1.48-1.71-.35-3.45-.57-5.18-.71-1.73-.14-3.47-.19-5.2-.17-1.73,0-3.46.1-5.18.22-3.44.26-6.86.75-10.25,1.39-1.69.33-3.37.7-5.05,1.12-1.67.43-3.32.91-4.96,1.45-3.27,1.09-6.49,2.35-9.55,3.95-3.05,1.6-6,3.47-8.48,5.91-1.23,1.23-2.34,2.6-3.13,4.19-.08.17-.16.34-.23.51-.27.64-.48,1.31-.62,2.01-.15.88-.16,1.79-.02,2.68.17.88.49,1.73.93,2.52.46.77,1.03,1.48,1.66,2.1,1.29,1.23,2.83,2.16,4.42,2.9,1.6.73,3.27,1.27,4.97,1.7,1.7.43,3.42.74,5.16.95,1.73.21,3.48.34,5.23.39,1.75.05,3.5.04,5.24-.05,1.75-.09,3.49-.24,5.23-.44,1.73-.21,3.46-.48,5.18-.78,1.72-.33,3.43-.7,5.13-1.13,1.7-.44,3.38-.92,5.05-1.46,1.67-.55,3.31-1.17,4.93-1.85,1.62-.68,3.21-1.42,4.77-2.25,1.55-.84,3.06-1.76,4.5-2.78,1.44-1.03,2.83-2.15,4.07-3.44,1.24-1.3,2.35-2.76,3.14-4.44.38-.84.66-1.74.81-2.67.13-.93.11-1.89-.06-2.82-.21-.92-.57-1.8-1.05-2.6Zm-3.15,5.06c-.11.56-.31,1.13-.57,1.69-.56,1.13-1.42,2.23-2.44,3.24-2.07,2.04-4.7,3.78-7.5,5.25-2.8,1.5-5.81,2.72-8.89,3.77-1.54.52-3.11.99-4.69,1.41-1.59.42-3.18.78-4.8,1.11-1.61.32-3.23.6-4.85.82-1.63.22-3.25.39-4.88.5-3.26.21-6.53.25-9.71-.06-3.17-.31-6.31-.9-9.06-2.03-1.36-.57-2.61-1.28-3.6-2.16-.49-.44-.9-.92-1.24-1.43-.32-.52-.55-1.07-.69-1.64-.11-.58-.13-1.18-.06-1.79.02-.16.06-.32.09-.48.1-.45.25-.91.45-1.36.55-1.22,1.41-2.41,2.44-3.49,1.04-1.09,2.24-2.09,3.52-3.02,1.28-.92,2.65-1.78,4.08-2.55,1.43-.78,2.9-1.49,4.42-2.14,1.51-.64,3.05-1.25,4.63-1.78,1.57-.53,3.17-1,4.77-1.43,1.61-.42,3.23-.79,4.87-1.11,1.64-.31,3.29-.57,4.94-.77,1.65-.19,3.31-.32,4.96-.4,3.31-.12,6.61-.01,9.8.45,3.18.45,6.29,1.22,8.95,2.48,1.32.63,2.5,1.4,3.42,2.28.45.45.82.92,1.12,1.42.06.1.11.21.16.32h0c.19.41.32.82.4,1.24.08.54.07,1.09-.01,1.65Z"/>
        <path class="cls-20" d="m263.56,83.21c.1,1.77.06,3.48-.18,5.04-.02.12-.05.25-.08.37-.05-.11-.1-.21-.16-.32-.3-.49-.67-.97-1.12-1.42-.91-.89-2.09-1.66-3.42-2.28-2.66-1.26-5.77-2.03-8.95-2.48-3.19-.46-6.49-.57-9.8-.45-1.66.08-3.31.21-4.96.4-1.65.2-3.3.47-4.94.77-1.64.33-3.26.69-4.87,1.11-1.61.43-3.2.9-4.77,1.43-1.57.53-3.11,1.13-4.63,1.78-1.51.65-2.99,1.36-4.42,2.14-1.42.77-2.79,1.63-4.08,2.55-1.28.93-2.48,1.93-3.52,3.02-1.03,1.09-1.89,2.27-2.44,3.49-.2.45-.35.91-.45,1.36-1.02-.48-1.88-1.09-2.62-1.79.07-.17.15-.34.23-.51.79-1.58,1.9-2.96,3.13-4.19,2.48-2.44,5.43-4.31,8.48-5.91,3.06-1.6,6.28-2.87,9.55-3.95,1.64-.53,3.29-1.01,4.96-1.45,1.67-.42,3.36-.79,5.05-1.12,3.39-.64,6.8-1.12,10.25-1.39,1.72-.12,3.45-.21,5.18-.22,1.73-.02,3.47.03,5.2.17,1.73.14,3.46.37,5.18.71,1.71.35,3.42.81,5.06,1.48.41.18.82.35,1.22.55.4.21.8.4,1.18.64.19.12.39.23.58.35l.15.11Z"/>
      </g>
      <g>
        <path class="cls-19" d="m336.23,50.49c-.51-.79-1.12-1.49-1.79-2.11-.17-.15-.35-.29-.53-.44-.18-.15-.35-.29-.54-.41l-.41-.28-.15-.11c-.19-.12-.39-.23-.58-.35-.38-.24-.79-.43-1.18-.64-.4-.2-.81-.37-1.22-.55-1.65-.67-3.35-1.13-5.06-1.48-1.71-.35-3.45-.57-5.18-.71-1.73-.14-3.47-.19-5.2-.17-1.73,0-3.46.1-5.18.22-3.44.26-6.86.75-10.25,1.39-1.69.33-3.37.7-5.05,1.12-1.67.43-3.33.91-4.96,1.45-3.27,1.09-6.49,2.35-9.55,3.95-3.05,1.6-6,3.47-8.48,5.91-1.23,1.23-2.34,2.6-3.13,4.19-.08.17-.16.34-.23.51-.27.64-.48,1.31-.62,2.01-.15.88-.16,1.79-.02,2.68.17.88.49,1.73.93,2.52.46.77,1.03,1.48,1.66,2.1,1.29,1.23,2.83,2.16,4.42,2.9,1.6.73,3.27,1.27,4.97,1.7,1.7.43,3.42.74,5.16.95,1.73.21,3.48.34,5.23.39,1.75.05,3.5.04,5.24-.05,1.75-.09,3.49-.24,5.23-.44,1.73-.21,3.46-.48,5.18-.78,1.72-.33,3.43-.7,5.13-1.13,1.7-.44,3.38-.92,5.05-1.46,1.67-.55,3.31-1.17,4.93-1.85,1.62-.68,3.21-1.42,4.77-2.25,1.55-.84,3.06-1.76,4.5-2.78,1.44-1.03,2.83-2.15,4.07-3.44,1.24-1.3,2.35-2.76,3.14-4.44.38-.84.66-1.74.81-2.67.13-.93.11-1.89-.06-2.82-.21-.92-.57-1.8-1.05-2.6Zm-3.15,5.06c-.11.56-.31,1.13-.57,1.69-.56,1.13-1.42,2.23-2.44,3.24-2.07,2.04-4.7,3.78-7.5,5.25-2.8,1.5-5.81,2.72-8.89,3.77-1.54.52-3.11.99-4.69,1.41-1.59.42-3.18.78-4.8,1.11-1.61.32-3.23.6-4.85.82-1.63.22-3.25.39-4.88.5-3.26.21-6.53.25-9.71-.06-3.17-.31-6.31-.9-9.06-2.03-1.36-.57-2.61-1.28-3.6-2.16-.49-.44-.9-.92-1.24-1.43-.32-.52-.55-1.07-.69-1.64-.11-.58-.13-1.18-.06-1.79.02-.16.06-.32.09-.48.1-.45.25-.91.45-1.36.55-1.22,1.41-2.41,2.44-3.49,1.04-1.09,2.24-2.09,3.52-3.02,1.28-.92,2.65-1.78,4.08-2.55,1.43-.78,2.9-1.49,4.42-2.14,1.51-.64,3.05-1.25,4.63-1.78,1.57-.53,3.17-1,4.77-1.43,1.61-.42,3.23-.79,4.87-1.12,1.64-.31,3.29-.57,4.94-.77,1.65-.19,3.31-.32,4.96-.4,3.31-.12,6.61-.01,9.8.45,3.18.45,6.29,1.22,8.95,2.48,1.32.63,2.5,1.4,3.42,2.28.45.45.82.92,1.12,1.42.06.1.11.21.16.32h0c.19.41.32.82.4,1.24.08.54.07,1.09-.01,1.65Z"/>
        <path class="cls-20" d="m332.96,47.25c.1,1.77.06,3.48-.18,5.04-.02.12-.05.25-.08.37-.05-.11-.1-.21-.16-.32-.3-.49-.67-.97-1.12-1.42-.91-.89-2.09-1.66-3.42-2.28-2.66-1.26-5.77-2.03-8.95-2.48-3.19-.46-6.49-.57-9.8-.45-1.66.08-3.31.21-4.96.4-1.65.2-3.3.47-4.94.77-1.64.33-3.26.7-4.87,1.12-1.61.43-3.2.9-4.77,1.43-1.57.53-3.11,1.13-4.63,1.78-1.51.65-2.99,1.36-4.42,2.14-1.42.77-2.79,1.63-4.08,2.55-1.28.93-2.48,1.93-3.52,3.02-1.03,1.09-1.89,2.27-2.44,3.49-.2.45-.35.91-.45,1.36-1.02-.48-1.88-1.09-2.62-1.79.07-.17.15-.34.23-.51.79-1.58,1.9-2.96,3.13-4.19,2.48-2.44,5.43-4.31,8.48-5.91,3.06-1.6,6.28-2.87,9.55-3.95,1.64-.53,3.3-1.01,4.96-1.45,1.67-.42,3.36-.79,5.05-1.12,3.39-.64,6.8-1.12,10.25-1.39,1.72-.12,3.45-.21,5.18-.22,1.73-.02,3.47.03,5.2.17,1.73.14,3.46.37,5.18.71,1.71.35,3.42.81,5.06,1.48.41.18.82.35,1.22.55.4.21.8.4,1.18.64.19.12.39.23.58.35l.15.11Z"/>
      </g>
      <g>
        <path class="cls-19" d="m272.95,35.81c-.51-.79-1.12-1.49-1.79-2.11-.17-.15-.35-.29-.53-.44-.17-.15-.35-.29-.54-.41l-.41-.28-.15-.11c-.19-.12-.39-.23-.58-.35-.38-.24-.79-.43-1.18-.64-.4-.2-.81-.37-1.22-.55-1.65-.67-3.35-1.13-5.06-1.48-1.71-.35-3.45-.57-5.18-.71-1.73-.14-3.47-.19-5.2-.17-1.73,0-3.46.1-5.18.22-3.44.26-6.86.75-10.25,1.39-1.69.33-3.37.7-5.05,1.12-1.67.43-3.32.91-4.96,1.45-3.27,1.09-6.49,2.35-9.55,3.95-3.05,1.6-6,3.47-8.48,5.91-1.23,1.23-2.34,2.6-3.13,4.19-.08.17-.16.34-.23.51-.27.64-.48,1.31-.62,2.01-.15.88-.16,1.79-.02,2.67.17.88.49,1.73.93,2.52.46.77,1.03,1.48,1.66,2.1,1.29,1.23,2.83,2.16,4.42,2.9,1.6.73,3.27,1.27,4.97,1.7,1.7.43,3.42.74,5.16.95,1.73.21,3.48.34,5.23.39,1.75.05,3.5.04,5.24-.05,1.75-.09,3.49-.24,5.23-.44,1.73-.21,3.46-.48,5.18-.78,1.72-.33,3.43-.7,5.13-1.13,1.7-.44,3.38-.92,5.05-1.46,1.67-.55,3.31-1.17,4.93-1.85,1.62-.68,3.21-1.42,4.77-2.25,1.55-.84,3.06-1.76,4.5-2.78,1.44-1.03,2.83-2.15,4.07-3.44,1.24-1.3,2.35-2.76,3.14-4.44.38-.84.66-1.74.81-2.67.13-.93.11-1.89-.06-2.82-.21-.92-.57-1.8-1.05-2.6Zm-3.15,5.06c-.12.56-.31,1.13-.57,1.69-.56,1.13-1.42,2.23-2.44,3.24-2.07,2.04-4.7,3.78-7.5,5.25-2.8,1.5-5.81,2.72-8.89,3.77-1.54.52-3.11.99-4.69,1.41-1.59.42-3.18.78-4.8,1.11-1.61.32-3.23.6-4.85.82-1.63.22-3.25.39-4.88.5-3.26.21-6.53.25-9.71-.06-3.17-.31-6.31-.9-9.06-2.03-1.36-.57-2.61-1.28-3.6-2.16-.49-.44-.9-.92-1.24-1.43-.32-.52-.55-1.07-.69-1.64-.11-.58-.13-1.18-.06-1.79.02-.16.06-.32.09-.48.1-.45.25-.91.45-1.36.55-1.22,1.41-2.41,2.44-3.49,1.04-1.09,2.24-2.09,3.52-3.02,1.28-.92,2.65-1.78,4.08-2.55,1.43-.78,2.9-1.49,4.42-2.14,1.51-.64,3.05-1.25,4.63-1.78,1.57-.53,3.17-1,4.77-1.43,1.61-.42,3.23-.79,4.87-1.12,1.64-.31,3.29-.57,4.94-.77,1.65-.19,3.31-.32,4.96-.4,3.31-.12,6.61-.01,9.8.45,3.18.45,6.29,1.22,8.95,2.48,1.32.63,2.5,1.4,3.42,2.28.45.45.82.92,1.12,1.42.06.1.11.21.16.32h0c.19.41.32.82.4,1.24.08.54.07,1.09-.01,1.65Z"/>
        <path class="cls-20" d="m269.68,32.57c.1,1.77.06,3.48-.18,5.04-.02.12-.05.25-.08.37-.05-.11-.1-.21-.16-.32-.3-.49-.67-.97-1.12-1.42-.91-.89-2.09-1.66-3.42-2.28-2.66-1.26-5.77-2.03-8.95-2.48-3.19-.46-6.49-.57-9.8-.45-1.66.08-3.31.21-4.96.4-1.65.2-3.3.47-4.94.77-1.64.33-3.26.7-4.87,1.12-1.61.43-3.2.9-4.77,1.43-1.57.53-3.11,1.13-4.63,1.78-1.51.65-2.99,1.36-4.42,2.14-1.42.77-2.79,1.63-4.08,2.55-1.28.93-2.48,1.93-3.52,3.02-1.03,1.09-1.89,2.27-2.44,3.49-.2.45-.35.91-.45,1.36-1.02-.48-1.88-1.09-2.62-1.79.07-.17.15-.34.23-.51.79-1.58,1.9-2.96,3.13-4.19,2.48-2.44,5.43-4.31,8.48-5.91,3.06-1.6,6.28-2.87,9.55-3.95,1.64-.53,3.29-1.01,4.96-1.45,1.67-.42,3.36-.79,5.05-1.12,3.39-.64,6.8-1.12,10.25-1.39,1.72-.12,3.45-.21,5.18-.22,1.73-.02,3.47.03,5.2.17,1.73.14,3.46.37,5.18.71,1.71.35,3.42.81,5.06,1.48.41.18.82.35,1.22.55.4.21.8.4,1.18.64.19.12.39.23.58.35l.15.11Z"/>
      </g>
      <g>
        <path class="cls-19" d="m197.81,51.51c-.51-.79-1.12-1.49-1.79-2.11-.17-.15-.35-.29-.53-.44-.17-.15-.35-.29-.54-.41l-.41-.28-.15-.11c-.19-.12-.39-.23-.58-.35-.38-.24-.79-.43-1.18-.64-.4-.2-.81-.37-1.22-.55-1.65-.67-3.35-1.13-5.06-1.48-1.71-.35-3.45-.57-5.18-.71-1.73-.14-3.47-.19-5.2-.17-1.73,0-3.46.1-5.18.22-3.44.26-6.86.75-10.25,1.39-1.69.33-3.37.7-5.05,1.12-1.67.43-3.32.91-4.96,1.45-3.27,1.09-6.49,2.35-9.55,3.95-3.05,1.6-6,3.47-8.48,5.91-1.23,1.23-2.34,2.6-3.13,4.19-.08.17-.16.34-.23.51-.27.64-.48,1.31-.62,2.01-.15.88-.16,1.79-.02,2.67.17.88.49,1.73.93,2.52.46.77,1.03,1.48,1.66,2.1,1.29,1.23,2.83,2.16,4.42,2.9,1.6.73,3.27,1.27,4.97,1.7,1.7.43,3.42.74,5.16.95,1.73.21,3.48.34,5.23.39,1.75.05,3.5.04,5.24-.05,1.75-.09,3.49-.24,5.23-.44,1.73-.21,3.46-.48,5.18-.78,1.72-.33,3.43-.7,5.13-1.13,1.7-.44,3.38-.92,5.05-1.46,1.67-.55,3.31-1.17,4.93-1.85,1.62-.68,3.21-1.42,4.77-2.25,1.55-.84,3.06-1.76,4.5-2.78,1.44-1.03,2.83-2.15,4.07-3.44,1.24-1.3,2.35-2.76,3.14-4.44.38-.84.66-1.74.81-2.67.13-.93.11-1.89-.06-2.82-.21-.92-.57-1.8-1.05-2.6Zm-3.15,5.06c-.11.56-.31,1.13-.57,1.69-.56,1.13-1.42,2.23-2.44,3.24-2.07,2.04-4.7,3.78-7.5,5.25-2.8,1.5-5.81,2.72-8.89,3.77-1.54.52-3.11.99-4.69,1.41-1.59.42-3.18.78-4.8,1.11-1.61.32-3.23.6-4.85.82-1.63.22-3.25.39-4.88.5-3.26.21-6.53.25-9.71-.06-3.17-.31-6.31-.9-9.06-2.03-1.36-.57-2.61-1.28-3.6-2.16-.49-.44-.9-.92-1.24-1.43-.32-.52-.55-1.07-.69-1.64-.11-.58-.13-1.18-.06-1.79.02-.16.06-.32.09-.48.1-.45.25-.91.45-1.36.55-1.22,1.41-2.41,2.44-3.49,1.04-1.09,2.24-2.09,3.52-3.02,1.28-.92,2.65-1.78,4.08-2.55,1.43-.78,2.9-1.49,4.42-2.14,1.51-.64,3.05-1.25,4.63-1.78,1.57-.53,3.17-1,4.77-1.43,1.61-.42,3.23-.79,4.87-1.11,1.64-.31,3.29-.57,4.94-.77,1.65-.19,3.31-.32,4.96-.4,3.31-.12,6.61-.01,9.8.45,3.18.45,6.29,1.22,8.95,2.48,1.32.63,2.5,1.4,3.42,2.28.45.45.82.92,1.12,1.42.06.1.11.21.16.32h0c.19.41.32.82.4,1.24.08.54.07,1.09-.01,1.65Z"/>
        <path class="cls-20" d="m194.54,48.26c.1,1.77.06,3.48-.18,5.04-.02.12-.05.25-.08.37-.05-.11-.1-.21-.16-.32-.3-.49-.67-.97-1.12-1.42-.91-.89-2.09-1.66-3.42-2.28-2.66-1.26-5.77-2.03-8.95-2.48-3.19-.46-6.49-.57-9.8-.45-1.66.08-3.31.21-4.96.4-1.65.2-3.3.47-4.94.77-1.64.33-3.26.69-4.87,1.11-1.61.43-3.2.9-4.77,1.43-1.57.53-3.11,1.13-4.63,1.78-1.51.65-2.99,1.36-4.42,2.14-1.42.77-2.79,1.63-4.08,2.55-1.28.93-2.48,1.93-3.52,3.02-1.03,1.09-1.89,2.27-2.44,3.49-.2.45-.35.91-.45,1.36-1.02-.48-1.88-1.09-2.62-1.79.07-.17.15-.34.23-.51.79-1.58,1.9-2.96,3.13-4.19,2.48-2.44,5.43-4.31,8.48-5.91,3.06-1.6,6.28-2.87,9.55-3.95,1.64-.53,3.29-1.01,4.96-1.45,1.67-.42,3.36-.79,5.05-1.12,3.39-.64,6.8-1.12,10.25-1.39,1.72-.12,3.45-.21,5.18-.22,1.73-.02,3.47.03,5.2.17,1.73.14,3.46.37,5.18.71,1.71.35,3.42.81,5.06,1.48.41.18.82.35,1.22.55.4.21.8.4,1.18.64.19.12.39.23.58.35l.15.11Z"/>
      </g>
      <g>
        <path class="cls-19" d="m160.63,102.64c-.51-.79-1.12-1.49-1.79-2.11-.17-.15-.35-.29-.53-.44-.17-.15-.35-.29-.54-.41l-.41-.28-.15-.11c-.19-.12-.39-.23-.58-.35-.38-.24-.79-.43-1.18-.64-.4-.2-.81-.37-1.22-.55-1.65-.67-3.35-1.13-5.06-1.48-1.71-.35-3.45-.57-5.18-.71-1.73-.14-3.47-.19-5.2-.17-1.73,0-3.46.1-5.18.22-3.44.26-6.86.75-10.25,1.39-1.69.33-3.37.7-5.05,1.12-1.67.43-3.32.91-4.96,1.45-3.27,1.09-6.49,2.35-9.55,3.95-3.05,1.6-6,3.47-8.48,5.91-1.23,1.23-2.34,2.6-3.13,4.19-.08.17-.16.34-.23.51-.27.64-.48,1.31-.62,2.01-.15.88-.16,1.79-.02,2.67.17.88.49,1.73.93,2.52.46.77,1.03,1.48,1.66,2.1,1.29,1.23,2.83,2.16,4.42,2.9,1.6.73,3.27,1.27,4.97,1.7,1.7.43,3.42.74,5.16.95,1.73.21,3.48.34,5.23.39,1.75.05,3.5.04,5.24-.05,1.75-.09,3.49-.24,5.23-.44,1.73-.21,3.46-.48,5.18-.78,1.72-.33,3.43-.7,5.13-1.13,1.7-.44,3.38-.92,5.05-1.46,1.67-.55,3.31-1.17,4.93-1.85,1.62-.68,3.21-1.42,4.77-2.25,1.55-.84,3.06-1.76,4.5-2.78,1.44-1.03,2.83-2.15,4.07-3.44,1.24-1.3,2.35-2.76,3.14-4.44.38-.84.66-1.74.81-2.67.13-.93.11-1.89-.06-2.82-.21-.92-.57-1.8-1.05-2.6Zm-3.15,5.06c-.11.56-.31,1.13-.57,1.69-.56,1.13-1.42,2.23-2.44,3.24-2.07,2.04-4.7,3.78-7.5,5.25-2.8,1.5-5.81,2.72-8.89,3.77-1.54.52-3.11.99-4.69,1.41-1.59.42-3.18.78-4.8,1.11-1.61.32-3.23.6-4.85.82-1.63.22-3.25.39-4.88.5-3.26.21-6.53.25-9.71-.06-3.17-.31-6.31-.9-9.06-2.03-1.36-.57-2.61-1.28-3.6-2.16-.49-.44-.9-.92-1.24-1.43-.32-.52-.55-1.07-.69-1.64-.11-.58-.13-1.18-.06-1.79.02-.16.06-.32.09-.48.1-.45.25-.91.45-1.36.55-1.22,1.41-2.41,2.44-3.49,1.04-1.09,2.24-2.09,3.52-3.02,1.28-.92,2.65-1.78,4.08-2.55,1.43-.78,2.9-1.49,4.42-2.14,1.51-.64,3.05-1.25,4.63-1.78,1.57-.53,3.17-1,4.77-1.43,1.61-.42,3.23-.79,4.87-1.11,1.64-.31,3.29-.57,4.94-.77,1.65-.19,3.31-.32,4.96-.4,3.31-.12,6.61-.01,9.8.45,3.18.45,6.29,1.22,8.95,2.48,1.32.63,2.5,1.4,3.42,2.28.45.45.82.92,1.12,1.42.06.1.11.21.16.32h0c.19.41.32.82.4,1.24.08.54.07,1.09-.01,1.65Z"/>
        <path class="cls-20" d="m157.37,99.39c.1,1.77.06,3.48-.18,5.04-.02.12-.05.25-.08.37-.05-.11-.1-.21-.16-.32-.3-.49-.67-.97-1.12-1.42-.91-.89-2.09-1.66-3.42-2.28-2.66-1.26-5.77-2.03-8.95-2.48-3.19-.46-6.49-.57-9.8-.45-1.66.08-3.31.21-4.96.4-1.65.2-3.3.47-4.94.77-1.64.33-3.26.69-4.87,1.11-1.61.43-3.2.9-4.77,1.43-1.57.53-3.11,1.13-4.63,1.78-1.51.65-2.99,1.36-4.42,2.14-1.42.77-2.79,1.63-4.08,2.55-1.28.93-2.48,1.93-3.52,3.02-1.03,1.09-1.89,2.27-2.44,3.49-.2.45-.35.91-.45,1.36-1.02-.48-1.88-1.09-2.62-1.79.07-.17.15-.34.23-.51.79-1.58,1.9-2.96,3.13-4.19,2.48-2.44,5.43-4.31,8.48-5.91,3.06-1.6,6.28-2.87,9.55-3.95,1.64-.53,3.29-1.01,4.96-1.45,1.67-.42,3.36-.79,5.05-1.12,3.39-.64,6.8-1.12,10.25-1.39,1.72-.12,3.45-.21,5.18-.22,1.73-.02,3.47.03,5.2.17,1.73.14,3.46.37,5.18.71,1.71.35,3.42.81,5.06,1.48.41.18.82.35,1.22.55.4.21.8.4,1.18.64.19.12.39.23.58.35l.15.11Z"/>
      </g>
      <g>
        <path class="cls-19" d="m154.76,68.96c-.51-.79-1.12-1.49-1.79-2.11-.17-.15-.35-.29-.53-.44-.18-.15-.35-.29-.54-.41l-.41-.28-.15-.11c-.19-.12-.39-.23-.58-.35-.38-.24-.79-.43-1.18-.64-.4-.2-.81-.37-1.22-.55-1.65-.67-3.35-1.13-5.06-1.48-1.71-.35-3.45-.57-5.18-.71-1.73-.14-3.47-.19-5.2-.17-1.73,0-3.46.1-5.18.22-3.44.26-6.86.75-10.25,1.39-1.69.33-3.37.7-5.05,1.12-1.67.43-3.32.91-4.96,1.45-3.27,1.09-6.49,2.35-9.55,3.95-3.05,1.6-6,3.47-8.48,5.91-1.23,1.23-2.34,2.6-3.13,4.19-.08.17-.16.34-.23.51-.27.64-.48,1.31-.62,2.01-.15.88-.16,1.79-.02,2.68.17.88.49,1.73.93,2.52.46.77,1.03,1.48,1.66,2.1,1.29,1.23,2.83,2.16,4.42,2.9,1.6.73,3.27,1.27,4.97,1.7,1.7.43,3.42.74,5.16.95,1.73.21,3.48.34,5.23.39,1.75.05,3.5.04,5.24-.05,1.75-.09,3.49-.24,5.23-.44,1.73-.21,3.46-.48,5.18-.78,1.72-.33,3.43-.7,5.13-1.13,1.7-.44,3.38-.92,5.05-1.46,1.67-.55,3.31-1.17,4.93-1.85,1.62-.68,3.21-1.42,4.77-2.25,1.55-.84,3.06-1.76,4.5-2.78,1.44-1.03,2.83-2.15,4.07-3.44,1.24-1.3,2.35-2.76,3.14-4.44.38-.84.66-1.74.81-2.67.13-.93.11-1.89-.06-2.82-.21-.92-.57-1.8-1.05-2.6Zm-3.15,5.06c-.11.56-.31,1.13-.57,1.69-.56,1.13-1.42,2.23-2.44,3.24-2.07,2.04-4.7,3.78-7.5,5.25-2.8,1.5-5.81,2.72-8.89,3.77-1.54.52-3.11.99-4.69,1.41-1.59.42-3.18.78-4.8,1.11-1.61.32-3.23.6-4.85.82-1.63.22-3.25.39-4.88.5-3.26.21-6.53.25-9.71-.06-3.17-.31-6.31-.9-9.06-2.03-1.36-.57-2.61-1.28-3.6-2.16-.49-.44-.9-.92-1.24-1.43-.32-.52-.55-1.07-.69-1.64-.11-.58-.13-1.18-.06-1.79.02-.16.06-.32.09-.48.1-.45.25-.91.45-1.36.55-1.22,1.41-2.41,2.44-3.49,1.04-1.09,2.24-2.09,3.52-3.02,1.28-.92,2.65-1.78,4.08-2.55,1.43-.78,2.9-1.49,4.42-2.14,1.51-.64,3.05-1.25,4.63-1.78,1.57-.53,3.17-1,4.77-1.43,1.61-.42,3.23-.79,4.87-1.11,1.64-.31,3.29-.57,4.94-.77,1.65-.19,3.31-.32,4.96-.4,3.31-.12,6.61-.01,9.8.45,3.18.45,6.29,1.22,8.95,2.48,1.32.63,2.5,1.4,3.42,2.28.45.45.82.92,1.12,1.42.06.1.11.21.16.32h0c.19.41.32.82.4,1.24.08.54.07,1.09-.01,1.65Z"/>
        <path class="cls-20" d="m151.49,65.71c.1,1.77.06,3.48-.18,5.04-.02.12-.05.25-.08.37-.05-.11-.1-.21-.16-.32-.3-.49-.67-.97-1.12-1.42-.91-.89-2.09-1.66-3.42-2.28-2.66-1.26-5.77-2.03-8.95-2.48-3.19-.46-6.49-.57-9.8-.45-1.66.08-3.31.21-4.96.4-1.65.2-3.3.47-4.94.77-1.64.33-3.26.7-4.87,1.11-1.61.43-3.2.9-4.77,1.43-1.57.53-3.11,1.13-4.63,1.78-1.51.65-2.99,1.36-4.42,2.14-1.42.77-2.79,1.63-4.08,2.55-1.28.93-2.48,1.93-3.52,3.02-1.03,1.09-1.89,2.27-2.44,3.49-.2.45-.35.91-.45,1.36-1.02-.48-1.88-1.09-2.62-1.79.07-.17.15-.34.23-.51.79-1.58,1.9-2.96,3.13-4.19,2.48-2.44,5.43-4.31,8.48-5.91,3.06-1.6,6.28-2.87,9.55-3.95,1.64-.53,3.29-1.01,4.96-1.45,1.67-.42,3.36-.79,5.05-1.12,3.39-.64,6.8-1.12,10.25-1.39,1.72-.12,3.45-.21,5.18-.22,1.73-.02,3.47.03,5.2.17,1.73.14,3.46.37,5.18.71,1.71.35,3.42.81,5.06,1.48.41.18.82.35,1.22.55.4.21.8.4,1.18.64.19.12.39.23.58.35l.15.11Z"/>
      </g>
      <g>
        <path class="cls-19" d="m132.52,86.68c-.51-.79-1.12-1.49-1.79-2.11-.17-.15-.35-.29-.53-.44-.17-.15-.35-.29-.54-.41l-.41-.28-.15-.11c-.19-.12-.39-.23-.58-.35-.38-.24-.79-.43-1.18-.64-.4-.2-.81-.37-1.22-.55-1.65-.67-3.35-1.13-5.06-1.48-1.71-.35-3.45-.57-5.18-.71-1.73-.14-3.47-.19-5.2-.17-1.73,0-3.46.1-5.18.22-3.44.26-6.86.75-10.25,1.39-1.69.33-3.37.7-5.05,1.12-1.67.43-3.32.91-4.96,1.45-3.27,1.09-6.49,2.35-9.55,3.95-3.05,1.6-6,3.47-8.48,5.91-1.23,1.23-2.34,2.6-3.13,4.19-.08.17-.16.34-.23.51-.27.64-.48,1.31-.62,2.01-.15.88-.16,1.79-.02,2.68.17.88.49,1.73.93,2.52.46.77,1.03,1.48,1.66,2.1,1.29,1.23,2.83,2.16,4.42,2.9,1.6.73,3.27,1.27,4.97,1.7,1.7.43,3.42.74,5.16.95,1.73.21,3.48.34,5.23.39,1.75.05,3.5.04,5.24-.05,1.75-.09,3.49-.24,5.23-.44,1.73-.21,3.46-.48,5.18-.78,1.72-.33,3.43-.7,5.13-1.13,1.7-.44,3.38-.92,5.05-1.46,1.67-.55,3.31-1.17,4.93-1.85,1.62-.68,3.21-1.42,4.77-2.25,1.55-.84,3.06-1.76,4.5-2.78,1.44-1.03,2.83-2.15,4.07-3.44,1.24-1.3,2.35-2.76,3.14-4.44.38-.84.66-1.74.81-2.67.13-.93.11-1.89-.06-2.82-.21-.92-.57-1.8-1.05-2.6Zm-3.15,5.06c-.11.56-.31,1.13-.57,1.69-.56,1.13-1.42,2.23-2.44,3.24-2.07,2.04-4.7,3.78-7.5,5.25-2.8,1.5-5.81,2.72-8.89,3.77-1.54.52-3.11.99-4.69,1.41-1.59.42-3.18.78-4.8,1.11-1.61.32-3.23.6-4.85.82-1.63.22-3.25.39-4.88.5-3.26.21-6.53.25-9.71-.06-3.17-.31-6.31-.9-9.06-2.03-1.36-.57-2.61-1.28-3.6-2.16-.49-.44-.9-.92-1.24-1.43-.32-.52-.55-1.07-.69-1.64-.11-.58-.13-1.18-.06-1.79.02-.16.06-.32.09-.48.1-.45.25-.91.45-1.36.55-1.22,1.41-2.41,2.44-3.49,1.04-1.09,2.24-2.09,3.52-3.02,1.28-.92,2.65-1.78,4.08-2.55,1.43-.78,2.9-1.49,4.42-2.14,1.51-.64,3.05-1.25,4.63-1.78,1.57-.53,3.17-1,4.77-1.43,1.61-.42,3.23-.79,4.87-1.12,1.64-.31,3.29-.57,4.94-.77,1.65-.19,3.31-.32,4.96-.4,3.31-.12,6.61-.01,9.8.45,3.18.45,6.29,1.22,8.95,2.48,1.32.63,2.5,1.4,3.42,2.28.45.45.82.92,1.12,1.42.06.1.11.21.16.32h0c.19.41.32.82.4,1.24.08.54.07,1.09-.01,1.65Z"/>
        <path class="cls-20" d="m129.25,83.43c.1,1.77.06,3.48-.18,5.04-.02.12-.05.25-.08.37-.05-.11-.1-.21-.16-.32-.3-.49-.67-.97-1.12-1.42-.91-.89-2.09-1.66-3.42-2.28-2.66-1.26-5.77-2.03-8.95-2.48-3.19-.46-6.49-.57-9.8-.45-1.66.08-3.31.21-4.96.4-1.65.2-3.3.47-4.94.77-1.64.33-3.26.7-4.87,1.12-1.61.43-3.2.9-4.77,1.43-1.57.53-3.11,1.13-4.63,1.78-1.51.65-2.99,1.36-4.42,2.14-1.42.77-2.79,1.63-4.08,2.55-1.28.93-2.48,1.93-3.52,3.02-1.03,1.09-1.89,2.27-2.44,3.49-.2.45-.35.91-.45,1.36-1.02-.48-1.88-1.09-2.62-1.79.07-.17.15-.34.23-.51.79-1.58,1.9-2.96,3.13-4.19,2.48-2.44,5.43-4.31,8.48-5.91,3.06-1.6,6.28-2.87,9.55-3.95,1.64-.53,3.29-1.01,4.96-1.45,1.67-.42,3.36-.79,5.05-1.12,3.39-.64,6.8-1.12,10.25-1.39,1.72-.12,3.45-.21,5.18-.22,1.73-.02,3.47.03,5.2.17,1.73.14,3.46.37,5.18.71,1.71.35,3.42.81,5.06,1.48.41.18.82.35,1.22.55.4.21.8.4,1.18.64.19.12.39.23.58.35l.15.11Z"/>
      </g>
      <g>
        <path class="cls-19" d="m228.94,38.79c-.51-.79-1.12-1.49-1.79-2.11-.17-.15-.35-.29-.53-.44-.17-.15-.35-.29-.54-.41l-.41-.28-.15-.11c-.19-.12-.39-.23-.58-.35-.38-.24-.78-.43-1.18-.64-.4-.2-.81-.37-1.22-.55-1.65-.67-3.35-1.13-5.06-1.48-1.71-.35-3.45-.57-5.18-.71-1.73-.14-3.47-.19-5.2-.17-1.73,0-3.46.1-5.18.22-3.44.26-6.86.75-10.25,1.39-1.69.33-3.37.7-5.05,1.12-1.67.43-3.32.91-4.96,1.45-3.27,1.09-6.49,2.35-9.55,3.95-3.05,1.6-6,3.47-8.48,5.91-1.23,1.23-2.34,2.6-3.13,4.19-.08.17-.16.34-.23.51-.27.64-.48,1.31-.62,2.01-.15.88-.16,1.79-.02,2.68.17.88.49,1.73.93,2.52.46.77,1.03,1.48,1.66,2.1,1.29,1.23,2.83,2.16,4.42,2.9,1.6.73,3.27,1.27,4.97,1.7,1.7.43,3.42.74,5.16.95,1.73.21,3.48.34,5.23.39,1.75.05,3.5.04,5.24-.05,1.75-.09,3.49-.24,5.23-.44,1.73-.21,3.46-.48,5.18-.78,1.72-.33,3.43-.7,5.13-1.13,1.7-.44,3.38-.92,5.05-1.46,1.67-.55,3.31-1.17,4.93-1.85,1.62-.68,3.21-1.42,4.77-2.25,1.55-.84,3.06-1.76,4.5-2.78,1.44-1.03,2.83-2.15,4.07-3.44,1.24-1.3,2.35-2.76,3.14-4.44.38-.84.66-1.74.81-2.67.13-.93.11-1.89-.06-2.82-.21-.92-.57-1.8-1.05-2.6Zm-3.15,5.06c-.11.56-.31,1.13-.57,1.69-.56,1.13-1.42,2.23-2.44,3.24-2.07,2.04-4.7,3.78-7.5,5.25-2.8,1.5-5.81,2.72-8.89,3.77-1.54.52-3.11.99-4.69,1.41-1.59.42-3.18.78-4.8,1.11-1.61.32-3.23.6-4.85.82-1.63.22-3.25.39-4.88.5-3.26.21-6.53.25-9.71-.06-3.17-.31-6.31-.9-9.06-2.03-1.36-.57-2.61-1.28-3.6-2.16-.49-.44-.9-.92-1.24-1.43-.32-.52-.55-1.07-.69-1.64-.11-.58-.13-1.18-.06-1.79.02-.16.06-.32.09-.48.1-.45.25-.91.45-1.36.55-1.22,1.41-2.41,2.44-3.49,1.04-1.09,2.24-2.09,3.52-3.02,1.28-.92,2.65-1.78,4.08-2.55,1.43-.78,2.9-1.49,4.42-2.14,1.51-.64,3.05-1.25,4.63-1.78,1.57-.53,3.17-1,4.77-1.43,1.61-.42,3.23-.79,4.87-1.11,1.64-.31,3.29-.57,4.94-.77,1.65-.19,3.31-.32,4.96-.4,3.31-.12,6.61-.01,9.8.45,3.18.45,6.29,1.22,8.95,2.48,1.32.63,2.5,1.4,3.42,2.28.45.45.82.92,1.12,1.42.06.1.11.21.16.32h0c.19.41.32.82.4,1.24.08.54.07,1.09-.01,1.65Z"/>
        <path class="cls-20" d="m225.68,35.55c.1,1.77.06,3.48-.18,5.04-.02.12-.05.25-.08.37-.05-.11-.1-.21-.16-.32-.3-.49-.67-.97-1.12-1.42-.91-.89-2.09-1.66-3.42-2.28-2.66-1.26-5.77-2.03-8.95-2.48-3.19-.46-6.49-.57-9.8-.45-1.66.08-3.31.21-4.96.4-1.65.2-3.3.47-4.94.77-1.64.33-3.26.69-4.87,1.11-1.61.43-3.2.9-4.77,1.43-1.57.53-3.11,1.13-4.63,1.78-1.51.65-2.99,1.36-4.42,2.14-1.42.77-2.79,1.63-4.08,2.55-1.28.93-2.48,1.93-3.52,3.02-1.03,1.09-1.89,2.27-2.44,3.49-.2.45-.35.91-.45,1.36-1.02-.48-1.88-1.09-2.62-1.79.07-.17.15-.34.23-.51.79-1.58,1.9-2.96,3.13-4.19,2.48-2.44,5.43-4.31,8.48-5.91,3.06-1.6,6.28-2.87,9.55-3.95,1.64-.53,3.29-1.01,4.96-1.45,1.67-.42,3.36-.79,5.05-1.12,3.39-.64,6.8-1.12,10.25-1.39,1.72-.12,3.45-.21,5.18-.22,1.73-.02,3.47.03,5.2.17,1.73.14,3.46.37,5.18.71,1.71.35,3.42.81,5.06,1.48.41.18.82.35,1.22.55.4.21.8.4,1.18.64.19.12.39.23.58.35l.15.11Z"/>
      </g>
      <g>
        <path class="cls-19" d="m313.89,32.81c-.51-.79-1.12-1.49-1.79-2.11-.17-.15-.35-.29-.53-.44-.17-.15-.35-.29-.54-.41l-.41-.28-.15-.11c-.19-.12-.39-.23-.58-.35-.38-.24-.79-.43-1.18-.64-.4-.2-.81-.37-1.22-.55-1.65-.67-3.35-1.13-5.06-1.48-1.71-.35-3.45-.57-5.18-.71-1.73-.14-3.47-.19-5.2-.17-1.73,0-3.46.1-5.18.22-3.44.26-6.86.75-10.25,1.39-1.69.33-3.37.7-5.05,1.12-1.67.43-3.32.91-4.96,1.45-3.27,1.09-6.49,2.35-9.55,3.95-3.05,1.6-6,3.47-8.48,5.91-1.23,1.23-2.34,2.6-3.13,4.19-.08.17-.16.34-.23.51-.27.64-.48,1.31-.62,2.01-.15.88-.16,1.79-.02,2.68.17.88.49,1.73.93,2.52.46.77,1.03,1.48,1.66,2.1,1.29,1.23,2.83,2.16,4.42,2.9,1.6.73,3.27,1.27,4.97,1.7,1.7.43,3.42.74,5.16.95,1.73.21,3.48.34,5.23.39,1.75.05,3.5.04,5.24-.05,1.75-.09,3.49-.24,5.23-.44,1.73-.21,3.46-.48,5.18-.78,1.72-.33,3.43-.7,5.13-1.13,1.7-.44,3.38-.92,5.05-1.46,1.67-.55,3.31-1.17,4.93-1.85,1.62-.68,3.21-1.42,4.77-2.25,1.55-.84,3.06-1.76,4.5-2.78,1.44-1.03,2.83-2.15,4.07-3.44,1.24-1.3,2.35-2.76,3.14-4.44.38-.84.66-1.74.81-2.67.13-.93.11-1.89-.06-2.82-.21-.92-.57-1.8-1.05-2.6Zm-3.15,5.06c-.11.56-.31,1.13-.57,1.69-.56,1.13-1.42,2.23-2.44,3.24-2.07,2.04-4.7,3.78-7.5,5.25-2.8,1.5-5.81,2.72-8.89,3.77-1.54.52-3.11.99-4.69,1.41-1.59.42-3.18.78-4.8,1.11-1.61.32-3.23.6-4.85.82-1.63.22-3.25.39-4.88.5-3.26.21-6.53.25-9.71-.06-3.17-.31-6.31-.9-9.06-2.03-1.36-.57-2.61-1.28-3.6-2.16-.49-.44-.9-.92-1.24-1.43-.32-.52-.55-1.07-.69-1.64-.11-.58-.13-1.18-.06-1.79.02-.16.06-.32.09-.48.1-.45.25-.91.45-1.36.55-1.22,1.41-2.41,2.44-3.49,1.04-1.09,2.24-2.09,3.52-3.02,1.28-.92,2.65-1.78,4.08-2.55,1.43-.78,2.9-1.49,4.42-2.14,1.51-.64,3.05-1.25,4.63-1.78,1.57-.53,3.17-1,4.77-1.43,1.61-.42,3.23-.79,4.87-1.11,1.64-.31,3.29-.57,4.94-.77,1.65-.19,3.31-.32,4.96-.4,3.31-.12,6.61-.01,9.8.45,3.18.45,6.29,1.22,8.95,2.48,1.32.63,2.5,1.4,3.42,2.28.45.45.82.92,1.12,1.42.06.1.11.21.16.32h0c.19.41.32.82.4,1.24.08.54.07,1.09-.01,1.65Z"/>
        <path class="cls-20" d="m310.63,29.56c.1,1.77.06,3.48-.18,5.04-.02.12-.05.25-.08.37-.05-.11-.1-.21-.16-.32-.3-.49-.67-.97-1.12-1.42-.91-.89-2.09-1.66-3.42-2.28-2.66-1.26-5.77-2.03-8.95-2.48-3.19-.46-6.49-.57-9.8-.45-1.66.08-3.31.21-4.96.4-1.65.2-3.3.47-4.94.77-1.64.33-3.26.69-4.87,1.11-1.61.43-3.2.9-4.77,1.43-1.57.53-3.11,1.13-4.63,1.78-1.51.65-2.99,1.36-4.42,2.14-1.42.77-2.79,1.63-4.08,2.55-1.28.93-2.48,1.93-3.52,3.02-1.03,1.09-1.89,2.27-2.44,3.49-.2.45-.35.91-.45,1.36-1.02-.48-1.88-1.09-2.62-1.79.07-.17.15-.34.23-.51.79-1.58,1.9-2.96,3.13-4.19,2.48-2.44,5.43-4.31,8.48-5.91,3.06-1.6,6.28-2.87,9.55-3.95,1.64-.53,3.29-1.01,4.96-1.45,1.67-.42,3.36-.79,5.05-1.12,3.39-.64,6.8-1.12,10.25-1.39,1.72-.12,3.45-.21,5.18-.22,1.73-.02,3.47.03,5.2.17,1.73.14,3.46.37,5.18.71,1.71.35,3.42.81,5.06,1.48.41.18.82.35,1.22.55.4.21.8.4,1.18.64.19.12.39.23.58.35l.15.11Z"/>
      </g>
      <g>
        <path class="cls-2" d="m266.24,70.89c-10.3.13-14.87-2.7-16.72-4.51-.54-.53-.86-.97-1.01-1.23-.1-.15-.14-.24-.14-.24,0,0,1.45-14.82,13.61-16.66,12.15-1.84,17.73-8.45,17.73-8.45,0,0,1.64,30.9-13.46,31.1Z"/>
        <path class="cls-1" d="m276.72,47.17c-1.28,1.89-2.79,3.64-4.38,5.33-1.6,1.67-3.32,3.26-5.14,4.74-1.82,1.48-3.76,2.84-5.78,4.08-2.03,1.22-4.17,2.31-6.37,3.23-1.79.74-3.65,1.34-5.53,1.83-.54-.53-.86-.97-1.01-1.23l1.02-.27c.56-.15,1.1-.33,1.66-.5.55-.18,1.09-.38,1.64-.57.54-.21,1.08-.41,1.61-.64,2.14-.87,4.2-1.91,6.2-3.06,2.01-1.13,3.92-2.43,5.79-3.77.93-.68,1.84-1.39,2.73-2.11.9-.72,1.78-1.47,2.63-2.23,1.73-1.53,3.38-3.13,4.94-4.83Z"/>
        <path class="cls-1" d="m277.17,55.16c-.58.53-1.29.9-2.04,1.19-.76.23-1.54.39-2.33.49-.79.06-1.58.06-2.36-.03-.79-.09-1.54-.2-2.34-.43l-.61-.18v-.61c.03-.66.07-1.28.16-1.91.07-.63.18-1.26.35-1.88.16-.62.31-1.24.56-1.84.27-.59.53-1.18.94-1.68l.08.04c-.51,1.12-.75,2.35-.91,3.57-.16,1.22-.24,2.46-.25,3.7l-.06-.09c1.45.36,2.95.57,4.44.57,1.49-.02,3.01-.27,4.33-.99l.05.08Z"/>
        <path class="cls-1" d="m271.52,59.98c-.75.29-1.53.43-2.3.6-.78.12-1.56.21-2.35.29-1.58.13-3.16.1-4.73-.05l-.54-.05-.16-.47c-.28-.81-.45-1.52-.52-2.3-.07-.77-.07-1.55.07-2.31.12-.76.31-1.51.63-2.2.32-.69.74-1.33,1.23-1.87l.08.05c-.34.63-.67,1.27-.86,1.96-.21.68-.34,1.39-.38,2.11-.09,1.42.11,2.88.6,4.21l-.08-.06c3.09.27,6.21.33,9.29-.02v.09Z"/>
        <path class="cls-1" d="m266.2,64.47c-.94.27-1.9.4-2.87.5-.97.06-1.94.08-2.91.06-.97-.06-1.95-.14-2.91-.33-.96-.16-1.92-.41-2.85-.7l-.48-.15-.08-.43c-.1-.59-.07-.96-.03-1.4.05-.42.14-.83.25-1.23.21-.8.55-1.53.94-2.22.38-.69.8-1.36,1.29-1.97.51-.6,1.01-1.18,1.58-1.7l.07.06c-.45.61-.88,1.24-1.28,1.88-.38.65-.76,1.31-1.06,2.01-.31.69-.57,1.4-.74,2.14-.17.73-.27,1.5-.15,2.22l-.06-.06c1.82.53,3.68.93,5.57,1.13,1.89.21,3.8.27,5.69.12v.09Z"/>
        <path class="cls-17" d="m264.19,51.58c-.35,1.55-.31,2.87.08,2.93.39.07.99-1.14,1.33-2.69.35-1.55.31-2.87-.08-2.93-.39-.07-.99,1.14-1.33,2.69Z"/>
        <path class="cls-17" d="m258.27,57.31c-.35,1.55-.31,2.87.08,2.93.39.07.99-1.14,1.33-2.69.35-1.55.31-2.87-.08-2.93-.39-.07-.99,1.14-1.33,2.69Z"/>
        <path class="cls-17" d="m269.89,48.88c-.35,1.55-.31,2.87.08,2.93s.99-1.14,1.33-2.69c.35-1.55.31-2.87-.08-2.93-.39-.07-.99,1.14-1.33,2.69Z"/>
      </g>
      <g>
        <path class="cls-2" d="m154.13,99.2c9.61-3.7,12.8-8.03,13.85-10.4.31-.69.44-1.22.49-1.51.03-.18.04-.28.04-.28,0,0-6.85-13.22-18.82-10.42-11.97,2.8-19.6-1.26-19.6-1.26,0,0,9.96,29.3,24.05,23.87Z"/>
        <path class="cls-1" d="m135.58,81.08c1.89,1.28,3.95,2.35,6.05,3.32,2.11.96,4.29,1.8,6.54,2.49,2.24.7,4.54,1.24,6.88,1.64,2.34.38,4.72.59,7.12.63,1.94.02,3.89-.11,5.81-.35.31-.69.44-1.22.49-1.51l-1.05.13c-.57.07-1.15.1-1.73.15-.58.03-1.15.05-1.73.08-.58,0-1.15.01-1.73,0-2.31-.01-4.61-.21-6.9-.53-2.29-.3-4.54-.8-6.77-1.35-1.12-.28-2.22-.61-3.32-.94-1.1-.33-2.19-.7-3.27-1.1-2.17-.78-4.3-1.65-6.38-2.65Z"/>
        <path class="cls-1" d="m138.15,88.57c.77-.1,1.48-.23,2.17-.46.69-.21,1.36-.48,2-.81.65-.31,1.27-.66,1.9-1.02.62-.36,1.24-.77,1.79-1.15l-.26.96c-.44-1.1-.93-2.22-1.39-3.34-.24-.56-.52-1.1-.79-1.64-.26-.56-.57-1.07-.92-1.61l.06-.07c.92.86,1.6,1.91,2.23,2.98.62,1.08,1.17,2.19,1.65,3.34l.03.06-.05.04c-1.22.9-2.56,1.62-3.97,2.17-1.41.53-2.94.85-4.45.65v-.09Z"/>
        <path class="cls-1" d="m145.15,90.94l2.1-1.05c.7-.32,1.4-.65,2.08-1.01.68-.36,1.38-.66,2.06-1.02.69-.32,1.37-.68,2.06-1.01l-.46.74c0-.59-.11-1.29-.23-1.94-.13-.66-.33-1.3-.55-1.94-.22-.64-.54-1.25-.9-1.84-.32-.63-.8-1.14-1.25-1.73l.06-.07c.56.45,1.12.93,1.56,1.51.46.56.86,1.17,1.17,1.83.64,1.3,1.01,2.73,1.07,4.19v.05s-.05.03-.05.03c-2.78,1.39-5.68,2.57-8.69,3.36l-.02-.09Z"/>
        <path class="cls-1" d="m151.75,93.14c.85-.45,1.69-.89,2.51-1.36.83-.44,1.64-.91,2.43-1.42.8-.47,1.57-.99,2.35-1.5.77-.51,1.5-1.08,2.24-1.63l-.3.75c-.03-.16-.16-.54-.3-.81-.14-.3-.3-.61-.49-.9-.38-.58-.81-1.16-1.3-1.71-.47-.56-1.03-1.05-1.55-1.59-.54-.53-1.12-1.01-1.68-1.54l.05-.08c.65.4,1.29.81,1.9,1.26.61.46,1.21.93,1.75,1.47.56.52,1.07,1.09,1.51,1.72.44.63.83,1.29,1.01,2.07v.05s-.03.03-.03.03c-1.49,1.2-3.11,2.23-4.8,3.11-1.69.88-3.45,1.63-5.28,2.19l-.03-.09Z"/>
        <path class="cls-17" d="m148.85,80.52c.9,1.31,1.35,2.55,1.02,2.75-.34.21-1.34-.69-2.24-2-.9-1.31-1.35-2.55-1.02-2.75.34-.21,1.34.69,2.24,2Z"/>
        <path class="cls-17" d="m156.48,83.64c.9,1.31,1.35,2.55,1.02,2.75-.34.21-1.34-.69-2.24-2-.9-1.31-1.35-2.55-1.02-2.75.34-.21,1.34.69,2.24,2Z"/>
        <path class="cls-17" d="m142.56,80.12c.9,1.31,1.35,2.55,1.02,2.75-.34.21-1.34-.69-2.24-2-.9-1.31-1.35-2.55-1.02-2.75.34-.21,1.34.69,2.24,2Z"/>
      </g>
      <g>
        <path class="cls-2" d="m200.94,59.81c-4.04-4.28-1.84-10.88-1.49-11.93.56-1.68.84-4.16,5.95-8.01,11.35-8.55,10.83-9.83,10.83-9.83,0,0,.48,6.82,2.52,13.07,1.76,5.4.41,15.31-5.46,18.51-3.58,1.95-9.17,1.56-12.34-1.81Z"/>
        <path class="cls-1" d="m205.1,63.64c.08-2.04.39-4.05.77-6.03.39-1.99.89-3.96,1.5-5.9.64-1.93,1.32-3.85,2.22-5.68.89-1.83,1.92-3.62,3.25-5.17-.82,1.86-1.53,3.72-2.21,5.6-.67,1.88-1.28,3.78-1.88,5.68-.62,1.9-1.18,3.82-1.79,5.74-.59,1.92-1.19,3.84-1.86,5.76Z"/>
        <path class="cls-1" d="m215.9,45.91c-.46.44-1,.77-1.51,1.13-.53.33-1.07.65-1.62.93-1.09.59-2.22,1.08-3.37,1.55l-.58.23-.34-.51c-.72-1.06-1.35-2.14-1.82-3.33-.24-.59-.44-1.2-.57-1.83-.1-.64-.21-1.28-.1-1.92h.09c.14,1.21.65,2.35,1.2,3.44.56,1.09,1.21,2.13,1.92,3.13l-.1-.03c1.14-.44,2.28-.9,3.42-1.37,1.13-.48,2.27-.94,3.35-1.51l.04.08Z"/>
        <path class="cls-1" d="m214.68,50.27c-.46.44-1,.77-1.51,1.13-.53.33-1.07.65-1.62.93-1.09.59-2.22,1.08-3.37,1.55l-.58.23-.34-.51c-.72-1.06-1.35-2.14-1.82-3.33-.24-.59-.44-1.2-.57-1.83-.1-.64-.21-1.28-.1-1.92h.09c.14,1.21.65,2.35,1.2,3.44.56,1.09,1.21,2.13,1.92,3.13l-.1-.03c1.14-.44,2.28-.9,3.42-1.37,1.13-.48,2.27-.94,3.35-1.51l.04.08Z"/>
        <path class="cls-1" d="m215.69,54.79c-.7.51-1.45.91-2.2,1.3l-2.3,1.08c-1.56.64-3.13,1.25-4.74,1.74l-.48.15-.32-.34c-.46-.5-.85-1.01-1.23-1.55-.39-.52-.72-1.1-1.02-1.68-.3-.58-.61-1.17-.78-1.82-.17-.64-.32-1.31-.21-1.97h.09c.03.63.25,1.23.5,1.81.26.58.57,1.13.92,1.65.69,1.06,1.49,2.05,2.35,2.98l-.08-.02,4.76-1.63c1.58-.56,3.17-1.11,4.71-1.77l.04.08Z"/>
      </g>
      <g>
        <path class="cls-2" d="m229.77,79.82c5.86-.53,9.69,5.28,10.3,6.2.98,1.48,2.75,3.23,2.62,9.63-.3,14.21,1.03,14.59,1.03,14.59,0,0-5.66-3.84-11.83-6.1-5.33-1.96-12.29-9.14-11.18-15.74.68-4.02,4.44-8.17,9.05-8.58Z"/>
        <path class="cls-1" d="m224.19,80.73c1.55,1.33,2.94,2.8,4.27,4.34,1.33,1.53,2.56,3.15,3.71,4.82,1.12,1.69,2.21,3.42,3.09,5.26.89,1.83,1.66,3.75,2.05,5.75-.96-1.8-1.98-3.51-3.03-5.2-1.06-1.69-2.18-3.34-3.3-4.99-1.11-1.66-2.27-3.29-3.4-4.95-1.14-1.65-2.28-3.31-3.37-5.03Z"/>
        <path class="cls-1" d="m231.45,100.17c-.06-.64.01-1.26.04-1.89.07-.62.15-1.24.27-1.85.21-1.22.53-2.41.87-3.6l.17-.6.61.04c1.28.09,2.52.27,3.74.63.61.17,1.21.39,1.79.68.56.31,1.14.62,1.57,1.11l-.05.07c-1.04-.64-2.25-.95-3.45-1.19-1.2-.23-2.43-.37-3.65-.43l.09-.06c-.36,1.17-.71,2.35-1.04,3.53-.32,1.18-.66,2.37-.88,3.57h-.09Z"/>
        <path class="cls-1" d="m228.77,96.52c-.06-.64.01-1.26.04-1.89.07-.62.15-1.24.27-1.85.21-1.22.53-2.41.87-3.6l.17-.6.61.04c1.28.09,2.52.27,3.74.63.61.17,1.21.39,1.79.68.56.31,1.14.62,1.57,1.11l-.05.07c-1.04-.64-2.25-.95-3.45-1.19-1.2-.23-2.43-.37-3.65-.43l.09-.06c-.36,1.17-.71,2.35-1.04,3.53-.32,1.18-.66,2.37-.88,3.57h-.09Z"/>
        <path class="cls-1" d="m224.59,94.52c.03-.86.19-1.7.34-2.54l.57-2.47c.46-1.62.95-3.23,1.56-4.8l.18-.47.47-.04c.68-.05,1.32-.04,1.97,0,.65.02,1.31.12,1.95.23.64.13,1.3.25,1.92.51.61.26,1.23.56,1.68,1.05l-.05.07c-.51-.36-1.12-.57-1.73-.72-.61-.16-1.24-.24-1.87-.3-1.26-.11-2.53-.1-3.79,0l.07-.05-1.66,4.75c-.54,1.59-1.09,3.18-1.52,4.8l-.08-.02Z"/>
      </g>
      <g>
        <path class="cls-6" d="m194.73,60.36c6.12,3.39,8.2,11.36,4.64,17.79-3.56,6.43-11.42,8.89-17.54,5.5s-8.2-11.36-4.64-17.79c3.56-6.43,11.42-8.89,17.54-5.5Z"/>
        <path class="cls-12" d="m196.83,74.25c-3.56,6.43-11.42,8.89-17.54,5.5-1.08-.6-2.04-1.35-2.86-2.2,1.04,2.52,2.87,4.7,5.4,6.1,6.12,3.39,13.98.93,17.54-5.5,2.93-5.29,2.04-11.62-1.78-15.59,1.48,3.6,1.34,7.91-.76,11.69Z"/>
        <path class="cls-16" d="m182.98,64.83c.21.08,7.11-1.05,10.33-.26,3.22.79,5.1-1.66-.43-2.99-5.54-1.32-13.81,1.83-9.9,3.25Z"/>
        <path class="cls-16" d="m186.99,66.55c-.15-.12-.31-.25-.29-.41.05-.67,3.14-1.19,5.57-.16.17.07,1.03.44.98.66-.05.23-1,.04-2.72.12-1.85.09-2.79.41-3.54-.21Z"/>
        <path class="cls-10" d="m180.24,66.95s-5.59-3.1-7.63-2.73l1.06-1.91,6.99,3.88-.42.76Z"/>
        <path class="cls-18" d="m175.98,66.61s-3.2,1.54-2.09,4.57c1.11,3.03.65,5.39.65,5.39,0,0,1.5-.78,2.03-2.9.53-2.12.16-4.54,1.16-5.19,1-.65.21,1.93.85,3.49s1.43,3.21.76,4.04c0,0,2.33-.72,2.29-3.36-.04-2.64-1.66-4.34-.9-5.33,0,0,1.01-1.05,2.97.44,1.96,1.49,4.29.77,4.29.77,0,0-1.21-2.08-3.5-3.35-2.29-1.27-3.71-.65-3.71-.65,0,0,1.52-1.97,3.75-1.75,2.23.23,3.28-3.21,3.28-3.21,0,0-1.68,1.48-3.49.88-1.81-.6-4.26,2.27-4.26,2.27,0,0,2.05-3.7,4.54-4.33,2.49-.63,1.02-1.85,1.02-1.85,0,0,.31.98-2.5,1.03-2.81.05-6,7.35-6,7.35l-1.16,1.68Z"/>
      </g>
      <g>
        <ellipse class="cls-6" cx="215.15" cy="66.67" rx="12.68" ry="13.31" transform="translate(68.78 237.87) rotate(-66.69)"/>
        <path class="cls-12" d="m213.76,75.4c-6.75-2.91-9.98-10.48-7.21-16.91.49-1.14,1.14-2.16,1.9-3.06-2.41,1.28-4.39,3.32-5.53,5.97-2.77,6.43.46,14,7.21,16.91,5.56,2.39,11.77.88,15.34-3.31-3.44,1.83-7.74,2.11-11.71.4Z"/>
        <path class="cls-16" d="m221.76,60.69c-.06.22,1.75,6.97,1.28,10.25-.46,3.28,2.16,4.91,2.93-.73.77-5.64-3.19-13.56-4.21-9.53Z"/>
        <path class="cls-16" d="m220.45,64.85c.11-.16.22-.33.38-.33.67-.01,1.49,3.01.71,5.53-.05.17-.33,1.07-.56,1.04-.23-.02-.14-.99-.39-2.7-.27-1.83-.68-2.73-.14-3.54Z"/>
        <path class="cls-10" d="m219.38,58.17s2.53-5.87,1.96-7.86l2,.86-3.16,7.34-.8-.35Z"/>
        <path class="cls-18" d="m219.3,53.9s-1.85-3.03-4.75-1.63c-2.9,1.4-5.3,1.18-5.3,1.18,0,0,.92,1.42,3.09,1.74,2.16.32,4.53-.29,5.28.64.75.93-1.9.41-3.39,1.19-1.49.79-3.05,1.74-3.95,1.15,0,0,.95,2.25,3.57,1.95,2.62-.3,4.16-2.08,5.22-1.42,0,0,1.15.9-.14,3-1.29,2.1-.34,4.34-.34,4.34,0,0,1.95-1.4,2.99-3.81,1.04-2.41.28-3.76.28-3.76,0,0,2.12,1.32,2.11,3.56,0,2.24,3.52,2.95,3.52,2.95,0,0-1.64-1.52-1.23-3.38.42-1.86-2.68-4.01-2.68-4.01,0,0,3.88,1.67,4.76,4.09s1.94.84,1.94.84c0,0-.94.41-1.27-2.38-.33-2.79-7.9-5.24-7.9-5.24l-1.79-.98Z"/>
      </g>
      <g>
        <path class="cls-7" d="m75.25,107.35c7.31-2.67,11.4-9.87,9.13-16.07-2.27-6.2-10.04-9.06-17.35-6.39-7.31,2.67-11.4,9.87-9.13,16.07,2.27,6.2,10.04,9.06,17.35,6.39Z"/>
        <path class="cls-22" d="m66.22,102.46c1.44-.53,2.04-2.48,1.35-4.36s-2.41-2.98-3.85-2.46c-1.44.53-2.04,2.48-1.35,4.36s2.41,2.98,3.85,2.46Z"/>
        <path class="cls-22" d="m80.89,93.46c-2.27-6.2-10.04-9.06-17.35-6.39-.44.16-.86.34-1.27.53,1.36-1.12,2.96-2.05,4.76-2.71,7.31-2.67,15.08.19,17.35,6.39,2.13,5.83-1.36,12.54-7.86,15.55,4.18-3.44,6.08-8.68,4.37-13.36Z"/>
        <path class="cls-14" d="m70.35,105.79c-.49-.45.17-1.19.3-2.89.1-1.34-.23-1.88.11-3.44.08-.4.23-.81.6-1.15.32-.29.95-.64,1.46-.53,1.37.3,1.24,3.86.78,5.49-.02.06-.03.11-.03.12-.23.74-.65,2.13-1.81,2.52-.38.13-1.05.22-1.4-.11Z"/>
        <path class="cls-14" d="m71.91,96.74c.78-.29,1.12-1.33.76-2.32-.36-1-1.3-1.57-2.08-1.29-.78.29-1.12,1.33-.76,2.32.36,1,1.3,1.57,2.08,1.29Z"/>
      </g>
      <g>
        <path class="cls-7" d="m310.12,71.27c7.31-2.67,11.4-9.87,9.13-16.07-2.27-6.2-10.03-9.06-17.35-6.39-7.31,2.67-11.4,9.87-9.13,16.07,2.27,6.2,10.04,9.06,17.35,6.39Z"/>
        <path class="cls-22" d="m301.09,66.38c1.44-.53,2.04-2.48,1.35-4.36-.69-1.88-2.41-2.98-3.85-2.46-1.44.53-2.04,2.48-1.35,4.36s2.41,2.98,3.85,2.46Z"/>
        <path class="cls-22" d="m315.76,57.38c-2.27-6.2-10.04-9.06-17.35-6.39-.44.16-.86.34-1.27.53,1.36-1.12,2.96-2.05,4.76-2.71,7.31-2.67,15.08.19,17.35,6.39,2.13,5.83-1.36,12.54-7.86,15.55,4.18-3.44,6.08-8.68,4.37-13.36Z"/>
        <path class="cls-14" d="m305.22,69.71c-.49-.45.17-1.19.3-2.89.1-1.34-.23-1.88.11-3.44.08-.4.23-.81.6-1.15.32-.29.95-.64,1.46-.53,1.37.3,1.24,3.86.78,5.49-.02.06-.03.11-.03.12-.23.74-.65,2.13-1.81,2.52-.38.13-1.05.22-1.4-.11Z"/>
        <path class="cls-14" d="m306.78,60.66c.78-.29,1.12-1.33.76-2.32-.36-1-1.3-1.57-2.08-1.29-.78.29-1.12,1.33-.76,2.32.36,1,1.3,1.57,2.08,1.29Z"/>
      </g>
      <g>
        <path class="cls-7" d="m138.96,60.88c7.31-2.67,11.4-9.87,9.13-16.07-2.27-6.2-10.04-9.06-17.35-6.39-7.31,2.67-11.4,9.87-9.13,16.07,2.27,6.2,10.03,9.06,17.35,6.39Z"/>
        <path class="cls-22" d="m129.94,55.99c1.44-.53,2.04-2.48,1.35-4.36s-2.41-2.98-3.85-2.46c-1.44.53-2.04,2.48-1.35,4.36.69,1.88,2.41,2.98,3.85,2.46Z"/>
        <path class="cls-22" d="m144.61,46.99c-2.27-6.2-10.04-9.06-17.35-6.39-.44.16-.86.34-1.27.53,1.36-1.12,2.96-2.05,4.76-2.71,7.31-2.67,15.08.19,17.35,6.39,2.13,5.83-1.36,12.54-7.86,15.55,4.18-3.44,6.08-8.68,4.37-13.36Z"/>
        <path class="cls-14" d="m134.07,59.32c-.49-.45.17-1.19.3-2.89.1-1.34-.23-1.88.11-3.44.08-.4.23-.81.6-1.15.32-.29.95-.64,1.46-.53,1.37.3,1.24,3.85.78,5.49-.02.06-.03.11-.03.12-.23.74-.65,2.13-1.81,2.52-.38.13-1.05.22-1.4-.11Z"/>
        <path class="cls-14" d="m135.62,50.27c.78-.29,1.12-1.33.76-2.32-.36-1-1.3-1.57-2.08-1.29-.78.29-1.12,1.33-.76,2.32.36,1,1.3,1.57,2.08,1.29Z"/>
      </g>
      <g>
        <path class="cls-7" d="m184.33,131.52c7.31-2.67,11.4-9.87,9.13-16.07-2.27-6.2-10.03-9.06-17.35-6.39-7.31,2.67-11.4,9.87-9.13,16.07,2.27,6.2,10.04,9.06,17.35,6.39Z"/>
        <path class="cls-22" d="m175.3,126.64c1.44-.53,2.04-2.48,1.35-4.36-.69-1.88-2.41-2.98-3.85-2.46-1.44.53-2.04,2.48-1.35,4.36s2.41,2.98,3.85,2.46Z"/>
        <path class="cls-22" d="m189.97,117.64c-2.27-6.2-10.04-9.06-17.35-6.39-.44.16-.86.34-1.27.53,1.36-1.12,2.96-2.05,4.76-2.71,7.31-2.67,15.08.19,17.35,6.39,2.13,5.83-1.36,12.54-7.86,15.55,4.18-3.44,6.08-8.68,4.37-13.36Z"/>
        <path class="cls-14" d="m179.43,129.97c-.49-.45.17-1.19.3-2.89.1-1.34-.23-1.88.11-3.44.08-.4.23-.81.6-1.15.32-.29.95-.64,1.46-.53,1.37.3,1.24,3.85.78,5.49-.02.06-.03.11-.03.12-.23.74-.65,2.13-1.81,2.52-.38.13-1.05.22-1.4-.11Z"/>
        <path class="cls-14" d="m180.99,120.92c.78-.29,1.12-1.33.76-2.32-.36-1-1.3-1.57-2.08-1.29-.78.29-1.12,1.33-.76,2.32.36,1,1.3,1.57,2.08,1.29Z"/>
      </g>
      <g>
        <path class="cls-7" d="m265.06,40.25c7.31-2.67,11.4-9.87,9.13-16.07-2.27-6.2-10.04-9.06-17.35-6.39-7.31,2.67-11.4,9.87-9.13,16.07,2.27,6.2,10.03,9.06,17.35,6.39Z"/>
        <path class="cls-22" d="m256.04,35.37c1.44-.53,2.04-2.48,1.35-4.36-.69-1.88-2.41-2.98-3.85-2.46s-2.04,2.48-1.35,4.36,2.41,2.98,3.85,2.46Z"/>
        <path class="cls-22" d="m270.7,26.36c-2.27-6.2-10.04-9.06-17.35-6.39-.44.16-.86.34-1.27.53,1.36-1.12,2.96-2.05,4.76-2.71,7.31-2.67,15.08.19,17.35,6.39,2.13,5.83-1.36,12.54-7.86,15.55,4.18-3.44,6.08-8.68,4.37-13.36Z"/>
        <path class="cls-14" d="m260.17,38.7c-.49-.45.17-1.19.3-2.89.1-1.34-.23-1.88.11-3.44.08-.4.23-.81.6-1.15.32-.29.95-.64,1.46-.53,1.37.3,1.24,3.85.78,5.49-.02.06-.03.11-.03.12-.23.74-.65,2.13-1.81,2.52-.38.13-1.05.22-1.4-.11Z"/>
        <path class="cls-14" d="m261.72,29.65c.78-.29,1.12-1.33.76-2.32s-1.3-1.57-2.08-1.29c-.78.29-1.12,1.33-.76,2.32.36,1,1.3,1.57,2.08,1.29Z"/>
      </g>
      <g>
        <path class="cls-11" d="m127.02,160.95c-14.45-2.83-16.95-7.58-29.9-8.11-.84-.03-1.63-.05-2.39-.04.26,0,.52.01.78.02,13.12.53,15.64,5.34,30.28,8.21,8.53,1.67,15.55,1.44,26.24.33-10.06,1.02-16.84,1.19-25.02-.41Z"/>
        <path class="cls-11" d="m286.12,138.75c-17.14,4.44-17.54,6.34-28.52,8.51,11.57-2.23,11.76-4.15,29.35-8.71,1.36-.35,2.65-.67,3.89-.97-1.49.35-3.05.74-4.72,1.17Z"/>
        <path class="cls-11" d="m413.59,41.48c-1.93-8.04-8.49-17.38-17.38-20.47-6.52-2.27-9.11.63-18.69-1.9-7.87-2.08-8.39-4.64-17.46-8.24-6.37-2.53-11.13-3.35-22.9-4.75-20.89-2.49-31.33-3.73-38.66-4.16-39.74-2.3-59.62-3.45-80.33,1.43-6.04,1.42-20.51,5.24-33.7,8.93-9.93,2.78-10.58,3.1-19.68,5.62-21.67,6-23.24,5.45-34.87,9.16-17.94,5.72-16.9,6.94-33.13,11.88-18.16,5.52-20.39,4.28-31.82,9.18-5.6,2.4-12,6.25-24.8,13.94-15.23,9.15-22.84,13.72-25.52,16.52C6.46,87.19-3.81,104.69,1.42,120.88c4.55,14.07,18.6,20.33,36.61,28.37,8.15,3.64,16.07,7.17,27.11,7.6,1.41.06,2.7.05,3.91,0-.62,0-1.25-.01-1.91-.04-10.9-.43-18.72-3.92-26.77-7.5-17.78-7.93-31.65-14.12-36.14-28.01-5.17-15.98,4.97-33.26,13.07-41.7,2.65-2.76,10.16-7.28,25.19-16.31,12.64-7.59,18.95-11.39,24.48-13.76,11.29-4.84,13.49-3.61,31.41-9.06,16.03-4.87,15-6.08,32.71-11.73,11.49-3.66,13.04-3.12,34.43-9.04,8.99-2.49,9.63-2.8,19.43-5.55,13.01-3.65,27.3-7.42,33.27-8.82,20.45-4.81,40.07-3.68,79.31-1.41,7.23.42,17.54,1.65,38.17,4.1,11.62,1.38,16.32,2.19,22.61,4.69,8.96,3.56,9.47,6.08,17.24,8.13,9.45,2.5,12.01-.37,18.45,1.87,8.78,3.05,15.25,12.27,17.16,20.21,4.93,20.48-18.56,40.54-22.84,44.19-14.84,12.67-21.51,8.57-42.79,25.12-12.08,9.4-11.33,11.8-20.32,16.57-3.95,2.1-7.08,3.21-10.44,4.03,3.88-.85,7.31-1.98,11.78-4.35,9.11-4.83,8.35-7.27,20.58-16.79,21.56-16.77,28.31-12.61,43.34-25.45,4.33-3.7,28.12-24.01,23.13-44.76Z"/>
      </g>
      <path class="cls-21" d="m414.34,40.6c-2.1,19.03-19.36,35.33-22.98,38.74-14.89,14.07-21.81,9.25-43.2,27.58-12.15,10.41-11.32,13.16-20.41,18.38-11.52,6.61-16.2,4.11-39.75,10.41-18.02,4.82-17.81,6.95-30.15,9.25-15.72,2.92-19.41.08-36.68.87-25.79,1.19-26.39,7.93-59.81,11.52-16.35,1.76-24.75,2.58-35.62-.02-14.85-3.55-17.51-9.01-30.77-9.9-13.97-.94-16.37,4.76-30.58,3.83-11.16-.73-19.24-4.88-27.55-9.14-16.19-8.3-29.24-15-35.47-27.35-.29,4.59.14,9.3,1.57,13.93,4.91,15.89,19.24,23.24,37.61,32.66,8.31,4.26,16.39,8.41,27.55,9.14,14.21.94,16.61-4.76,30.58-3.83,13.26.89,15.92,6.35,30.77,9.9,10.87,2.6,19.27,1.77,35.62.02,33.41-3.59,34.02-10.33,59.81-11.52,17.27-.79,20.96,2.05,36.68-.87,12.35-2.29,12.13-4.43,30.15-9.25,23.56-6.3,28.23-3.8,39.75-10.41,9.09-5.22,8.27-7.97,20.41-18.38,21.39-18.33,28.31-13.52,43.2-27.58,4.29-4.05,27.87-26.31,22.36-49.71-.63-2.69-1.69-5.52-3.09-8.27Z"/>
      <path class="cls-4" d="m237.98,4.78c.34,1.79-2.54,3.85-6.44,4.6-3.9.75-7.34-.09-7.69-1.88-.34-1.79,2.54-3.85,6.44-4.6,3.9-.75,7.34.09,7.69,1.88Z"/>
      <path class="cls-4" d="m363.32,91.17c.34,1.79-2.54,3.85-6.44,4.6-3.9.75-7.34-.09-7.69-1.88s2.54-3.85,6.44-4.6c3.9-.75,7.35.09,7.69,1.88Z"/>
      <path class="cls-21" d="m399.5,63.43c.34,1.79-2.54,3.85-6.44,4.6-3.9.75-7.35-.09-7.69-1.88-.34-1.79,2.54-3.85,6.44-4.6,3.9-.75,7.35.09,7.69,1.88Z"/>
      <path class="cls-21" d="m307.5,118.41c.34,1.79-2.54,3.85-6.44,4.6s-7.35-.09-7.69-1.88c-.34-1.79,2.54-3.85,6.44-4.6,3.9-.75,7.35.09,7.69,1.88Z"/>
      <path class="cls-21" d="m211.58,13.53c.34,1.79-2.54,3.85-6.44,4.6-3.9.75-7.34-.09-7.69-1.88-.34-1.79,2.54-3.85,6.44-4.6,3.9-.75,7.35.09,7.69,1.88Z"/>
      <path class="cls-4" d="m270.97,128.5c.34,1.79-2.54,3.85-6.44,4.6-3.9.75-7.34-.09-7.69-1.88-.34-1.79,2.54-3.85,6.44-4.6s7.34.09,7.69,1.88Z"/>
      <ellipse class="cls-4" cx="140.9" cy="30.2" rx="9.59" ry="2.7" transform="translate(-3.17 27.19) rotate(-10.9)"/>
      <g class="cls-9">
        <path class="cls-21" d="m244.11,134.89c.28,1.46-3.71,3.46-8.91,4.46s-9.65.63-9.93-.84c-.28-1.46,3.71-3.46,8.91-4.46,5.2-1,9.65-.63,9.93.84Z"/>
      </g>
      <g class="cls-9">
        <path class="cls-21" d="m169.2,151.76c.28,1.46-3.71,3.46-8.91,4.46-5.2,1-9.65.63-9.93-.84-.28-1.46,3.71-3.46,8.91-4.46,5.2-1,9.65-.63,9.93.84Z"/>
      </g>
      <path class="cls-4" d="m132.35,141.15c.28,1.46-3.71,3.46-8.91,4.46-5.2,1-9.65.63-9.93-.83-.28-1.46,3.71-3.46,8.91-4.46,5.2-1,9.65-.63,9.93.84Z"/>
      <path class="cls-21" d="m95.99,50.85c.4,1.43-3.4,3.76-8.51,5.19s-9.56,1.43-9.97,0c-.4-1.43,3.4-3.76,8.51-5.19,5.1-1.43,9.56-1.43,9.97,0Z"/>
      <path class="cls-4" d="m313.4,6.53c.4,1.43-3.4,3.76-8.51,5.19-5.1,1.43-9.56,1.43-9.97,0-.4-1.43,3.4-3.76,8.51-5.19s9.56-1.43,9.97,0Z"/>
      <path class="cls-21" d="m48.45,68.75c.49,1.75-1.25,3.77-3.88,4.51-2.64.74-5.17-.08-5.67-1.83-.49-1.75,1.25-3.77,3.88-4.51,2.64-.74,5.17.08,5.67,1.83Z"/>
      <path class="cls-4" d="m27.06,84.47c.49,1.75-1.25,3.77-3.88,4.51-2.64.74-5.17-.08-5.67-1.83-.49-1.75,1.25-3.77,3.88-4.51,2.64-.74,5.17.08,5.67,1.83Z"/>
      <path class="cls-21" d="m397.67,27.13c.49,1.75-1.25,3.77-3.88,4.51-2.64.74-5.17-.08-5.67-1.83s1.25-3.77,3.88-4.51c2.64-.74,5.17.08,5.67,1.83Z"/>
      <path class="cls-21" d="m42.95,132.1c.49,1.75-1.25,3.77-3.88,4.51-2.64.74-5.17-.08-5.67-1.83-.49-1.75,1.25-3.77,3.88-4.51,2.64-.74,5.17.08,5.67,1.83Z"/>
      <path class="cls-21" d="m280.19,10.06c.49,1.75-1.25,3.77-3.88,4.51s-5.17-.08-5.67-1.83c-.49-1.75,1.25-3.77,3.88-4.51,2.64-.74,5.17.08,5.67,1.83Z"/>
    </g>
  </g>
</svg>