<?xml version="1.0" encoding="UTF-8"?>
<svg id="Calque_2" data-name="Calque 2" xmlns="http://www.w3.org/2000/svg" viewBox="0 0 433.5 454.28">
  <defs>
    <style>
      .cls-1 {
        fill: #fff;
      }

      .cls-2 {
        fill: #2a918a;
      }

      .cls-3 {
        fill: #8a2521;
      }

      .cls-4 {
        fill: #89b06b;
      }

      .cls-5 {
        fill: #ffedd1;
      }

      .cls-6 {
        fill: #fff5e0;
      }

      .cls-7 {
        fill: #77d4cd;
      }

      .cls-8 {
        fill: #a84b28;
      }

      .cls-9 {
        fill: #eb9d50;
      }

      .cls-10 {
        fill: #b84a46;
      }

      .cls-11 {
        fill: #d68229;
      }

      .cls-12 {
        fill: #fc7262;
      }

      .cls-13 {
        fill: #43b5ad;
      }

      .cls-14 {
        fill: #e8d1b0;
      }

      .cls-15 {
        fill: #f5a638;
      }

      .cls-16 {
        fill: #fdc24a;
      }

      .cls-17 {
        fill: #f3b03b;
      }

      .cls-18 {
        fill: #b55924;
      }

      .cls-19 {
        fill: #ffd4a8;
      }

      .cls-20 {
        fill: #ffe1a8;
      }

      .cls-21 {
        fill: #638549;
      }

      .cls-22 {
        fill: #304a1d;
      }

      .cls-23 {
        fill: #8a2622;
      }

      .cls-24 {
        fill: #ffdfab;
      }

      .cls-25 {
        fill: #a35422;
      }

      .cls-26 {
        fill: #8a3f13;
      }

      .cls-27 {
        fill: #f5bd56;
      }
    </style>
  </defs>
  <g id="Layer_1" data-name="Layer 1">
    <g>
      <path class="cls-17" d="m337.17,390.74c0,1.94,0,3.89-.03,5.83-.07,6.42-.28,12.85-.62,19.26-.04.77-.08,1.55-.13,2.32-.02.29-.03.59-.05.88-.19,2.95-.52,5.95-1.89,8.55-2,3.81-5.9,6.2-9.72,8.18-14.71,7.64-30.88,12.12-47.21,14.93-42.2,7.25-86.25,3.45-126.58-10.92-5.78-2.06-11.5-4.34-17.06-6.93-2.73-1.27-5.53-2.7-7.26-5.16-1.49-2.11-2.01-4.73-2.42-7.27-.02-.12-.04-.23-.05-.35-.16-1.03-.31-2.06-.45-3.09-1.02-7.68-1.34-15.46-.94-23.2.04-.81.09-1.62.15-2.42,33.18,14.77,69.03,16.11,103.75,15.86,17.39-.13,34.8-.59,52.06-2.71,10.06-1.23,20.05-3.02,29.91-5.35,9.66-2.29,19.2-5.1,28.55-8.42Z"/>
      <path class="cls-13" d="m431.15,243.46h0c-.93,6.84-2.14,13.63-3.62,20.37-3.49,15.9-8.5,31.47-14.97,46.41-7.78,17.98-17.71,35.13-30.49,49.97-.89,1.04-1.8,2.06-2.72,3.07-19.32,21.25-44.34,36.93-71.52,46.52-8.66,3.06-17.54,5.5-26.52,7.31-38.51,7.75-78.8,4.3-116.52-6.66-2.06-.6-4.11-1.22-6.16-1.87-22.61-7.15-44.46-17.36-62.48-32.7-3.17-2.7-6.21-5.55-9.14-8.52-5.16-5.24-9.95-10.84-14.44-16.66-19.06-24.7-32.17-54.74-39.63-85.39h0c-1.72-7.04-3.13-14.12-4.25-21.17h0c-2.63-16.56-3.64-32.97-3.07-48.5.01-.36.03-.72.04-1.07.55-13.2,9.03-22.13,17.6-30.36,8.58-8.22,18.95-14.36,29.63-19.56,47.06-22.91,100.59-28.44,152.23-29.52,77.76-1.62,135.49,7.1,189.94,49.41,9.18,7.14,17.39,17.95,18.09,31.65.05,1.06.1,2.12.14,3.18.56,14.72-.17,29.48-2.16,44.08Z"/>
      <path class="cls-5" d="m431.15,243.46c-.93,6.83-2.14,13.63-3.62,20.36-8.69,8.58-19.64,16.13-30.39,21.67-42.12,21.69-89.5,31.19-136.64,35.9-40.24,1.71-82.16.52-122.7-8.43-37.8-8.34-74.51-23.7-104.84-47.65h0c-1.72-7.04-3.13-14.12-4.25-21.17,23.56,20.66,52.12,34.39,81.73,43.02,31.73,9.25,64.8,12.93,97.75,15.49,39.18,1.44,78.22-1.71,116.34-9.39,20.8-4.2,41.43-9.77,60.73-18.58,16.92-7.72,32.85-18,45.89-31.22Z"/>
      <path class="cls-27" d="m433.31,199.38c-.07.47-.14.94-.23,1.41-2.47,13.91-11.29,26.23-22.67,34.6-23.41,17.81-52.05,28.82-81.31,35.26-29.26,6.44-59.29,8.5-89.21,10.03-42.68,1.33-86.08-3.57-127.58-15.27-19.74-5.57-39.27-12.77-56.26-24.27-10.14-6.86-19.45-15.43-25.09-26.3-3.05-5.89-4.91-12.52-5.34-19.18.01-.36.03-.72.04-1.07.55-13.2,9.03-22.13,17.6-30.36,8.58-8.22,18.95-14.36,29.63-19.56,47.06-22.91,100.59-28.44,152.23-29.52,77.76-1.62,135.49,7.1,189.94,49.41,9.18,7.14,17.39,17.95,18.09,31.65.05,1.06.1,2.12.14,3.18Z"/>
      <path class="cls-11" d="m419.18,206.83c-.88,2.01-1.94,3.96-3.14,5.79-.34.52-.69,1.03-1.05,1.53-.21.29-.42.57-.63.84-.79,1.03-1.62,2.03-2.48,2.98-.33.37-.67.73-1.01,1.09-.06.06-.12.12-.18.18-1.32,1.38-2.71,2.69-4.16,3.95-.45.4-.91.79-1.38,1.17-2.16,1.8-4.43,3.5-6.74,5.13-2,1.41-4.03,2.78-6.06,4.13-.09.06-.17.12-.26.17-4.09,2.72-8.21,5.41-12.62,7.57-5.13,2.51-10.58,4.27-16.04,5.93-5.31,1.61-10.64,3.14-16,4.57h0c-3.01.81-6.03,1.59-9.06,2.34l-.56.14c-.56.14-1.13.28-1.69.41h0c-1.89.46-3.78.91-5.68,1.35h0c-.77.18-1.53.36-2.3.53h0c-1.19.27-2.38.54-3.57.8h0c-.8.18-1.61.35-2.41.52h0c-1.33.29-2.65.56-3.98.84-.74.15-1.49.31-2.23.45-.88.18-1.75.35-2.63.52-.71.14-1.41.28-2.12.41-1.63.31-3.27.62-4.91.92-.66.12-1.31.24-1.97.35-1.46.26-2.93.51-4.39.76-.64.11-1.28.22-1.92.32-1.79.29-3.58.58-5.37.85-.63.1-1.26.19-1.89.29,0,0-.02,0-.03,0-.4.06-.81.12-1.21.18-1.64.18-3.29.36-4.94.53-1.44.15-2.87.29-4.31.43-.9.09-1.8.17-2.7.25h0c-5.47.5-10.96.92-16.46,1.26-.81.05-1.61.1-2.42.14-4.05.23-8.12.42-12.18.57-1.04.04-2.08.07-3.13.1-12.31.36-24.66.29-36.99-.29l-.93-.05c-1.55-.07-3.1-.16-4.65-.25-8.16-.48-16.31-1.19-24.41-2.15-2.47-.29-4.94-.6-7.4-.94-11.42-1.56-22.74-3.62-33.94-6.24h0c-2.55-.59-5.08-1.22-7.61-1.87-13.89-3.58-27.54-8.05-40.84-13.52-4.6-1.89-9.15-3.89-13.66-6.02-7.35-3.47-14.66-7.33-20.85-12.55-1.18-.99-2.31-2.03-3.4-3.13-2.72-2.74-5.12-5.89-6.99-9.3-2.8-5.12-4.39-10.82-4.04-16.62.93-15.41,16.71-27.72,29.85-35.84,16.89-10.43,54.64-26.46,106.7-29.55,37.54-2.22,66.88-5.2,97.8-3.22,8.68.55,17.49,1.5,26.63,2.96,5.44.87,11,1.92,16.72,3.18,10.72,2.36,22.03,5.46,34.21,9.46,4.79,1.57,9.72,3.29,14.81,5.16,1.16.42,2.76,1.13,4.7,2.04,10.03,4.75,28.85,15.23,39.04,22.33,2.98,2.07,5.21,3.86,6.29,5.13,2.91,3.44,5.37,7.34,6.61,11.67,1.83,6.36.86,13.15-1.81,19.28Z"/>
      <path class="cls-23" d="m410.87,219.07l-.18.18c-1.32,1.38-2.71,2.69-4.16,3.95-.45.4-.91.79-1.38,1.17-2.16,1.8-4.43,3.5-6.74,5.13-.97.69-1.95,1.36-2.94,2.03-.68.46-1.36.92-2.04,1.37-.36.24-.72.49-1.08.72-.09.06-.17.12-.26.17-4.09,2.72-8.21,5.41-12.62,7.57-5.13,2.51-10.58,4.27-16.04,5.93-.94.29-1.88.57-2.82.84-1.21.36-2.42.72-3.63,1.06-2.8.81-5.61,1.6-8.43,2.36-.38.1-.75.2-1.13.31h0c-.5.13-1,.27-1.49.4-2.52.67-5.04,1.32-7.56,1.94l-.56.14c-.56.14-1.13.28-1.69.41h0c-1.89.46-3.78.91-5.68,1.35h0c-.77.18-1.53.36-2.3.53h0c-1.19.27-2.38.54-3.57.8h0c-.8.18-1.61.35-2.41.52h0c-1.33.29-2.65.56-3.98.84-.74.15-1.49.31-2.23.45-.88.18-1.75.35-2.63.52-.71.14-1.41.28-2.12.41-3.75.72-7.51,1.39-11.27,2.03-.64.11-1.28.22-1.92.32-2.42.4-4.84.78-7.26,1.14-.41.06-.83.13-1.24.19-1.64.18-3.29.36-4.94.53-1.44.15-2.87.29-4.31.43-.9.09-1.8.17-2.7.25h0c-5.47.5-10.96.92-16.46,1.26-.81.05-1.61.1-2.42.14-4.05.23-8.12.42-12.18.57-1.04.04-2.08.07-3.13.1-12.31.36-24.66.29-36.99-.29l-.93-.05c-1.55-.07-3.1-.16-4.65-.25-8.16-.48-16.31-1.19-24.41-2.15-2.47-.29-4.94-.6-7.4-.94-11.42-1.56-22.74-3.62-33.94-6.24h0c-2.55-.59-5.08-1.22-7.61-1.87-13.88-3.58-27.54-8.05-40.84-13.52-4.6-1.89-9.15-3.89-13.66-6.02-7.35-3.47-14.66-7.33-20.85-12.55-1.18-.99-2.31-2.03-3.4-3.13-2.72-2.74-5.12-5.89-6.99-9.3,5.78-10.83,15.19-19.45,25.62-26.46,2.99-2.01,6.07-3.89,9.17-5.64,9.4-5.32,19.16-9.81,29.19-13.56h0c11.36-4.24,23.06-7.54,34.99-10.05,0,0,0,0,0,0,11.67-2.45,23.54-4.14,35.52-5.2,21.36-1.9,43.02-1.83,64.31-.56,4.95.29,9.9.65,14.86,1.09,4.27.37,8.55.8,12.82,1.29,2.31.27,4.62.55,6.93.85h0c.95.12,1.9.25,2.85.38,2.71.37,5.42.77,8.13,1.2,23.17,3.68,45.95,9.43,67.37,18.2,1.35.55,2.7,1.12,4.04,1.7,1.35.58,2.69,1.17,4.02,1.78,3.83,1.74,7.61,3.58,11.34,5.53h0c.96.5,1.92,1.02,2.87,1.54h0c3.46,1.88,6.88,3.86,10.24,5.95h0c.82.51,1.64,1.03,2.46,1.55,2.03,1.3,4.03,2.63,6.01,4.01.21.15.42.29.63.45.78.55,1.55,1.13,2.33,1.72,1,.77,1.98,1.59,2.94,2.44.72.64,1.42,1.29,2.1,1.96h0c1.65,1.63,3.16,3.38,4.44,5.21,2.36,3.36,3.92,7.03,4.06,10.86.03.65.01,1.31-.05,1.97Z"/>
      <path class="cls-21" d="m400.11,199.81c8.03-29.11,17.25-63.01,25.28-92.12.73-2.64,1.43-5.56.22-8.02-1.09-2.22-3.46-3.46-5.69-4.53-37.32-17.99-77-31.1-117.7-38.88-4.43-.85-9.68-1.39-12.8,1.87-1.67,1.75-2.3,4.22-2.86,6.57-6.1,25.45-12.19,50.91-18.29,76.36-.67,2.8-1.34,5.7-.8,8.52,1.38,7.17,9.49,10.55,16.49,12.6,33.1,9.7,67.59,16.91,97.12,34.74,3.3,1.99,6.72,4.17,10.56,4.37,3.85.19,7.39,2.41,8.46-1.47Z"/>
      <path class="cls-24" d="m416.44,203.29c-4.15-4.47-8.91-8.37-14.11-11.57-2.98-1.84-6.1-3.45-9.33-4.8-4.2-14.3-12.67-28.63-23.95-38.48-1.68-1.47-3.43-2.84-5.24-4.1-5.17-3.6-10.71-6.42-16.49-8.5-9.78-3.51-20.27-4.87-30.88-4.15-.37.02-.74.05-1.11.09-7.29.61-14.47,2.41-21.57,4.73h0c-8.9,2.9-17.68,6.63-26.45,9.9-3.61,1.35-7.21,2.61-10.82,3.72-.39.12-.78.24-1.17.35-14.89,4.43-30.4,6.8-45.94,7.01-7.86,2.69-16.62.5-24.29-2.98-3.05-1.38-6-2.97-8.94-4.56-4.46-2.42-8.9-4.87-13.62-6.71-22.88-8.9-49.55-1.9-69.63,12.23-8.71,6.12-16.58,13.61-22.21,22.64-1.26,2.02-2.4,4.13-3.41,6.29-1.98,4.26-3.44,8.76-4.24,13.36-.09.52-.17,1.05-.25,1.58-.15,1.08-.27,2.17-.34,3.26-.13,1.93-.14,3.88-.02,5.82.78,12.65,10.83,22.46,19.94,30.15,1.36,1.15,2.76,2.24,4.19,3.28,13.31,5.46,26.96,9.94,40.84,13.52,2.53.66,5.07,1.28,7.61,1.87h0c11.19,2.62,22.52,4.68,33.94,6.24,2.46.34,4.93.65,7.4.94,8.11.96,16.25,1.67,24.41,2.15,1.55.09,3.1.18,4.65.25l.93.05c12.33.58,24.68.65,36.99.29,1.04-.03,2.08-.06,3.13-.1,4.07-.14,8.13-.33,12.18-.57.81-.05,1.61-.09,2.42-.14,5.5-.34,10.99-.77,16.46-1.26h0c.9-.08,1.8-.17,2.7-.25,1.44-.14,2.88-.28,4.31-.43,1.65-.17,3.29-.34,4.94-.53.41-.06.83-.12,1.24-.19-.06-.33-.22-.66-.38-.96-1.07-1.99-2.32-3.86-3.69-5.63-4.89-6.28-11.48-11.25-18.35-15.39-14.01-8.43-29.74-14.01-45.93-16.28-.21-.03-.32-.28-.18-.45,4.09-4.94,10.29-7.53,16.49-8.44,8.54-1.25,18.63-.37,24.41,6.04,10.04,11.13,20.07,15.77,31.42,19.93,2.03.74,4.1,1.47,6.23,2.22,1.89.67,3.8,1.32,5.73,1.96.57.19,1.15.38,1.73.57,2.91.95,5.85,1.85,8.81,2.68.59.17,1.18.33,1.77.49.72.2,1.44.39,2.16.57.6.16,1.21.31,1.81.46,1.09.27,2.18.53,3.28.77h0c.62.14,1.23.27,1.85.4h0c.8.17,1.6.33,2.4.49.63.12,1.25.24,1.88.35,1.42.25,2.84.49,4.26.69.46.07.93.13,1.39.19l.56-.14c3.03-.75,6.04-1.53,9.06-2.34h0c5.36-1.44,10.69-2.96,16-4.57,5.46-1.66,10.92-3.42,16.04-5.93,4.41-2.16,8.53-4.85,12.62-7.57.09-.06.17-.12.26-.17,2.03-1.35,4.06-2.72,6.06-4.13,2.31-1.63,4.58-3.33,6.74-5.13.47-.38.92-.77,1.38-1.17,1.45-1.26,2.84-2.57,4.16-3.95l.18-.18c.34-.36.68-.72,1.01-1.09.86-.96,1.69-1.95,2.48-2.98.21-.28.42-.56.63-.84.36-.5.71-1.01,1.05-1.53,1.2-1.83,2.26-3.78,3.14-5.79-.73-1.29-1.72-2.45-2.73-3.54Zm-110.01,6.81c-2.23,4.72-6.05,8.69-10.76,11.51-.08.05-.18.05-.26,0-9.88-5.62-19.13-12.32-29.25-17.5-10.16-5.2-21.53-8.85-32.88-7.68-12.41,1.28-23.65,8.25-32.07,17.28-.07.07-.16.1-.26.07-3.69-1.06-7.19-2.79-10.26-5.1-.32-.23-.63-.48-.93-.73-.12-.1-.13-.27-.02-.38.06-.06.12-.13.18-.19,3.43-3.56,6.1-7.85,7.77-12.51.03-.09.11-.16.21-.17,11.85-1.39,23.43-5.07,33.9-10.79,2.48-1.36,5.01-2.86,7.84-3.11,3.06-.27,6.01.99,8.99,1.71,5.13,1.25,10.63.93,15.26-.56.12-.04.24.01.3.12,8.2,15.09,24.03,25.76,42.03,27.65.18.02.28.2.21.36Z"/>
      <path class="cls-8" d="m206.81,164.83c-.24-.06-.47-.01-.69.09-.35.12-.72.2-1.09.26-.58.09-.31.05-1.09.14-1,.09-2,.15-3,.15-4.48-.09-8.46-.86-12.96-2.61-2.97-1.14-7.17-3.35-10.72-5.03-5.77-2.64-11.64-5.1-17.7-6.99-3.28-1.03-6.68-1.61-10.09-2.04-6.17-.83-12.43-.57-18.6.21-5.13.61-10.17,1.81-15.09,3.37-7.09,2.31-13.88,5.7-19.78,10.28-2.34,1.86-4.56,3.87-6.64,6.02-3.05,3.41-5.75,7.12-8.23,10.96-.87,1.36-1.69,2.75-2.44,4.18-.18.35-.36.7-.55,1.05-.09.19-.24.36-.24.58-.13.92,1.12,1.39,1.62.56,1.95-3.85,4.33-7.46,6.88-10.93,1.01-1.35,2.63-3.42,4.2-5.15,1.79-1.87,3.71-3.6,5.69-5.26,2-1.66,5.03-3.72,7.87-5.32,3.26-1.79,6.44-3.24,9.41-4.35,6.4-2.31,13.54-3.93,19.61-4.48,8.24-.91,15.97-.48,23.6,1.38,6.07,1.63,11.58,3.92,16.86,6.23,4.65,1.99,9.06,4.53,13.76,6.4,2.94,1.17,6.02,1.99,9.16,2.39,2.29.3,4.61.42,6.91.21.8-.07,1.59-.15,2.38-.31.49-.13,1.07-.19,1.41-.6.39-.45.13-1.24-.46-1.38Z"/>
      <path class="cls-3" d="m144.49,155.72c-5.43-.14-10.88.52-16.12,1.96-.37-.19-47.5-75.34-76.39-121.63-5.65-9.05-10.6-17-14.37-23.06-1.12-1.8-2.05-4.49-.75-6.63,1.3-2.14,3.64-3.39,5.87-4.53,2.16-1.11,4.58-2.25,6.93-1.65,2.36.6,4.11,2.66,5.3,4.78.05.09,4.94,8.33,12.42,20.93,24.59,41.42,77.1,129.84,77.1,129.84Z"/>
      <path class="cls-3" d="m111.55,162.53c-4.83,1.99-9.26,4.95-12.93,8.67-27.85-38.41-55-76.99-81.51-115.95-5.16-7.58-10.29-15.17-15.4-22.78-1.2-1.79-2.22-4.24-1.44-6.28.78-2.04,2.6-3.49,4.44-4.67,1.95-1.24,4.02-2.29,6.17-3.12.68-.27,1.39-.51,2.12-.46,1.9.14,3.67,2.69,5.34,5.49.12.2,5.51,8.26,13.64,20.4,25.89,38.64,79.56,118.69,79.56,118.69Z"/>
      <g>
        <path class="cls-8" d="m213.02,171.9c-.49.02-.85.44-1.27.64-1.62.95-2.67,1.29-4.68,1.87-2.74.71-5.53.74-8.8.59-3.14-.25-5.72-.52-8.95-1.82-1.74-.7-3.79-1.53-5.82-2.85-2.27-1.4-4.31-3.14-6.55-4.58-3.05-2.02-6.12-4.06-9.52-5.46-2.05-.91-4.17-1.66-6.3-2.37-2.26-.77-4.54-1.46-6.9-1.86-3.2-.56-6.43-.99-9.68-1.02-3.94-.04-7.87.4-11.77.93-6.79.94-13.54,2.51-19.78,5.38-1.78.81-3.57,1.59-5.27,2.55-2.4,1.4-4.69,3-6.79,4.82-2.26,1.89-4.25,4.06-6.03,6.4-1.82,2.31-3.48,4.77-4.77,7.41-.32.65-.6,1.31-.88,1.98-.1.27-.27.54-.21.83.12.94,1.45,1.03,1.71.12,1.31-3.57,4.41-8.09,7.01-11.11,2.21-2.61,4.78-4.85,7.08-6.5,1.29-.91,2.61-1.8,3.99-2.56,1.62-.89,3.32-1.64,5.01-2.41,7.84-3.61,18.04-5.4,26.91-5.99,3.56-.28,8.01.05,10.77.49,3.5.45,6.89,1.41,10.21,2.59,3.95,1.37,7.03,2.6,10.72,4.96,1.81,1.16,3.63,2.31,5.38,3.55,1.65,1.17,3.23,2.44,4.97,3.48,1.46.94,3.04,1.68,4.64,2.34,1.33.55,2.67,1.11,4.07,1.47,3.3.8,6.71,1.1,10.1,1.06,4.14-.05,8.38-.97,11.86-3.29.71-.44.52-1.6-.44-1.64Z"/>
        <path class="cls-8" d="m220.87,178.76c-.49.03-.89.4-1.34.58-.94.47-1.89.92-2.84,1.35-3.76,1.7-9.19,3.54-13.32,3.78-3.38.19-5.84-.42-9.27-1.44-4.8-1.49-8.42-2.94-12.71-5.21-5.31-2.88-10.44-6.18-16.11-8.34-9.37-3.82-19.86-5.74-29.85-3.48-3.86.81-7.53,2.26-11.02,4.1-.42.23-.99.36-1.12.89-.21.74.62,1.39,1.29.99,2.15-1.06,3.82-1.95,5.61-2.61,4.35-1.59,8.15-2.31,12.36-2.55,4.51-.16,7.86.23,12.09,1.16,3.01.64,5.96,1.54,8.82,2.67,5.61,1.99,11.21,5.47,16.92,8.63,3.72,1.99,7.62,3.63,11.64,4.94,2.8.9,5.66,1.78,8.61,2,4.71.35,9.33-1.04,13.71-2.64,1.68-.63,3.31-1.37,4.93-2.14.6-.29,1.19-.58,1.78-.88.19-.1.4-.18.51-.37.45-.53.02-1.43-.69-1.41Z"/>
        <path class="cls-8" d="m172.36,182.36c-1.01-.63-2.04-1.24-3.07-1.85-4.7-2.8-10.01-4.49-15.41-5.3-3.04-.45-6.17-.69-9.22-.16-.5.12-1.18.12-1.59.42-.76.55-.15,1.79.77,1.54,6.05-1.46,15.05.55,20.7,3.02,1.8.76,3.49,1.76,5.16,2.76.6.36,1.19.72,1.78,1.09.2.12.45.15.68.09.73-.18.87-1.24.21-1.6Z"/>
        <path class="cls-8" d="m199.15,214.38c-1.44,1.64-2.71,3.44-3.85,5.3-.33.54-.66,1.09-.98,1.64-.11.22-.3.43-.31.69-.13.6.52,1.14,1.1.96.47-.12.63-.61.86-.98.35-.6.71-1.2,1.08-1.8.85-1.42,2.09-3.06,2.7-3.83.24-.36.63-.63.82-1.02.4-.86-.76-1.63-1.42-.96Z"/>
        <path class="cls-8" d="m304.76,233.06c-.39-.39-.97-.22-1.47-.3-.98-.09-1.64-.2-2.98-.46-3.52-.69-7.66-2.13-10.26-3.3-2.06-.92-4.03-2.02-6.03-3.07-2.82-1.52-5.57-3.19-8.3-4.86-1.91-1.19-3.8-2.41-5.79-3.48-2.32-1.37-4.82-2.37-7.31-3.38-3.67-1.51-7.38-2.94-11.15-4.18-4.46-1.42-8.96-2.94-13.66-3.3-3.19-.2-6.43.1-9.53.9-3.6.99-6.97,2.67-10.13,4.63-3.32,2.04-6.41,4.48-8.9,7.5-1.2,1.41-2.34,2.86-3.45,4.34-.25.34-.37.5-.43.62-1.52.1-3.04.24-4.55.45-1.14.14-2.28.31-3.42.48-.36.06-.73.12-1.09.19-.2.04-.43.06-.58.21-.76.55-.14,1.8.77,1.54,3.43-.61,6.08-.93,9.81-1.19,2.97-.14,5.95-.12,8.93-.06,1.13.02,2.26.03,3.38.03.71-.08,1.81.32,2.15-.53.19-.39,0-.88-.36-1.1-.46-.23-1.02-.08-1.52-.13-.75,0-1.51,0-2.26-.02-3-.06-6-.1-9,0,1.53-2.25,2.41-3.2,4.76-5.71,2.02-2.04,3.46-3.05,5.86-4.64,3.79-2.37,6.79-3.98,10.94-5.06,2.7-.65,4.78-.83,7.83-.77,2.22.09,3.49.37,5.85.88,5.77,1.46,11.41,3.44,16.94,5.63,3.16,1.33,5.41,2.05,8.24,3.61,3.2,1.67,6.18,3.7,9.29,5.54,2.67,1.62,5.38,3.15,8.15,4.58,2.87,1.56,5.87,2.85,8.97,3.87,3.08.99,6.25,1.79,9.48,2,.4.05.85-.14.99-.54.16-.31.06-.72-.18-.96Z"/>
        <path class="cls-8" d="m317.94,205.3c.09-.37.29-.75.24-1.14-.04-.6-.8-.96-1.31-.64-.35.2-.42.57-.51.93-.12.43-.26.85-.41,1.27-.61,1.68-.87,2.38-1.53,3.76-1.65,3.49-4.33,7.25-6.26,9.7-.86,1.11-1.76,2.18-2.71,3.21-.25.27-.49.53-.76.78-.02.02-.04.04-.06.06-1.01-.21-2.06-.46-3.22-.74-1.02-.25-2.04-.55-3.04-.87-.44-.1-.95-.44-1.39-.37-.93.09-1.02,1.47-.12,1.71,2.49.89,5.07,1.5,7.66,2.04,2,.39,4.03.66,6.06.71.66.01,1.33.02,1.99,0,.24-.02.5.03.72-.09.66-.23.71-1.23.1-1.56-.31-.19-.67-.09-1.01-.1-.61.02-1.23.01-1.84,0-1.38-.04-2.62-.16-3.84-.35,1.63-1.73,3.07-3.64,4.49-5.54,2.88-3.88,5.3-8.13,6.73-12.76Z"/>
        <path class="cls-8" d="m308.33,203.32c-.34-.88-1.69-.6-1.68.34-.15,1.39-.11,1.66-.36,2.82-.09.37-.2.73-.31,1.09-.06.2-.15.4-.1.61.09.94,1.47,1.02,1.71.12.36-1.05.59-2.14.69-3.24.04-.46.09-.93.13-1.39,0-.12-.02-.23-.08-.34Z"/>
        <path class="cls-8" d="m327.47,203.68c-.36-.66-1.43-.52-1.6.21-.78,3.58-1.94,7-3.31,9.76-.21.41-.42.82-.64,1.22-.12.2-.15.45-.09.68.14.54.81.81,1.29.52.45-.31.59-.9.86-1.34.41-.79.77-1.6,1.11-2.43.79-1.93,1.47-3.9,1.99-5.91.15-.57.29-1.15.41-1.73.09-.32.18-.67-.02-.97Z"/>
        <path class="cls-8" d="m290.61,191.17c-.19-.33-.55-.42-.9-.5-.59-.16-1.18-.33-1.75-.53-1.76-.62-2.86-1.08-4.65-2.28-1.76-1.16-3.5-2.65-5.19-4.64-.72-.87-.89-1.09-1.35-1.73-.07-.08-.13-.17-.19-.26.63.01,1.28.03,1.95.07,1.4.09,2.8.22,4.2.39.39.05.79.11,1.18.19.23.06.47.03.68-.09.49-.27.58-.99.18-1.38-.21-.22-.52-.25-.8-.3-1.64-.27-3.29-.42-4.94-.54-4.13-.29-8.31-.03-12.36.87-.48.14-1.04.16-1.46.45-.77.55-.14,1.8.77,1.54,2.95-.76,5.63-1.12,8.55-1.19.02.07.05.14.09.21,2.37,3.57,5.48,6.66,9.21,8.8,1.69.92,3.52,1.59,5.38,2.1.36.1.76.25,1.1.03.41-.23.56-.8.31-1.2Z"/>
        <path class="cls-8" d="m285.6,169.93c-.14-.08-.28-.12-.44-.12-.6.03-1.21.06-1.81.1-1.64.1-3.28.26-4.9.47-4.03.53-8.04,1.21-11.99,2.17-1.1.33-.66,1.97.47,1.69,5.09-1.19,9.59-1.94,14.36-2.42,1.23-.11,2.47-.19,3.7-.25.4.02.85-.14.98-.55.19-.39,0-.88-.36-1.1Z"/>
        <path class="cls-8" d="m286.56,158.43c-4.69.21-9.34,1.01-13.85,2.31-.83.23-1.64.5-2.46.75-.34.1-.74.18-.92.52-.4.65.25,1.51.99,1.29,5.73-1.82,10.69-2.87,16.39-3.11.34-.04.71.03,1.03-.11.33-.11.54-.46.54-.8-.09-1.02-.96-.89-1.73-.84Z"/>
        <path class="cls-8" d="m292.28,145.1c-.16-.04-.31-.04-.47,0-.62.19-1.23.39-1.84.6-.95.32-1.91.62-2.86.96-1.81.68-3.6,1.42-5.34,2.24-2.38,1.23-4.72,2.56-7.04,3.92-.48.29-.95.59-1.41.92-.25.18-.53.35-.6.67-.22.73.63,1.39,1.29.99,1.57-1.14,3.29-2.04,4.97-3,3.42-1.96,5.95-3.14,9.56-4.39,1.17-.39,2.35-.78,3.53-1.15.4-.08.81-.35.83-.79.08-.42-.22-.85-.63-.96Z"/>
        <path class="cls-8" d="m410.87,219.07c.34-.36.68-.72,1.01-1.09-.32-.29-.64-.59-.96-.88-2.15-1.96-4.34-3.86-6.66-5.62-1.18-.9-2.36-1.79-3.62-2.57-.38-.2-.79-.53-1.2-.72,0-.03,0-.07,0-.1-.09-.88-.18-1.77-.29-2.65-.15-1.2-.34-2.4-.56-3.59-.06-.31-.12-.61-.18-.92.11.05.23.11.39.18.17.08.34.17.51.25,1.25.62,2.48,1.3,3.65,2.05,1.39.89,2.66,1.82,3.91,2.83,1.66,1.34,3.27,2.81,5.02,4.47.98.99,1.96,1.98,2.85,3.05-.05-.06-.09-.12-.14-.18.14.16.27.36.4.56.36-.5.71-1.01,1.05-1.53-.52-.66-1.11-1.28-1.69-1.89-1.39-1.46-2.87-2.83-4.38-4.15-2.35-2.06-4.86-3.97-7.56-5.54h0c-.75-.44-1.52-.85-2.3-1.23-.44-.22-.89-.42-1.35-.62-.27-.09-.54-.26-.83-.33-.18-.74-.37-1.49-.57-2.22-.69-2.53-1.52-5.03-2.44-7.49-.16-.48-.5-.99-1.07-.87-.6.04-.96.8-.64,1.31.6,1.52,1.24,3.36,1.83,5.33.69,2.29,1.33,4.77,1.8,7.16.2,1.01.36,1.99.49,2.95,0,.02,0,.04,0,.06.04.26.07.51.1.77.06.51.12,1.02.17,1.54.06.56.11,1.13.17,1.69,0,.34.21.69.54.8.18.09.38.09.57.04.37.22.74.44,1.11.67.1.06.19.13.29.19,2.9,1.93,4.87,3.59,7.62,5.97.9.8,1.79,1.62,2.68,2.43.04.03.07.06.11.09l.18-.18Z"/>
        <path class="cls-8" d="m406.53,223.21c-.45.4-.91.79-1.38,1.17-.02-.05-.05-.09-.07-.14-.74-1.42-1.56-2.79-2.49-4.09-.74-1.03-1.47-2.03-2.18-3.01h0c-2.27-3.12-4.43-6.02-6.78-8.87-1.48-1.82-3.16-3.56-4.89-5.17h0c-2.07-1.93-4.21-3.67-6.16-5.12-.41-.31-.83-.61-1.25-.91,0,0,0,0,0,0-3.5-2.52-7.13-4.86-10.95-6.87-3.07-1.65-6.48-2.93-9.99-3.89h0c-3.25-.89-6.58-1.52-9.81-1.94-.85-.11-1.69-.2-2.52-.29-.95,0-1.2-1.34-.34-1.68.33-.16.7,0,1.06.01.79.1,1.58.18,2.37.28.04,0,.08,0,.12.01.19.02.37.05.56.08,1.23.16,2.46.36,3.68.59-.32-.36-.63-.71-.96-1.06-.32-.34-.65-.69-.98-1.02-.6-.59-1.09-1.06-1.57-1.46-.77-.65-1.5-1.16-2.55-1.84-.66-.36-.52-1.43.21-1.6.33-.1.65.04.91.24.29.19.58.38.86.58.35.24.69.49,1.03.75,1.07.84,2.07,1.77,3,2.76.69.72,1.36,1.46,2,2.23.24.3.57.63.74.98,2.77.64,5.5,1.45,8.15,2.49-.72-1.37-1.51-2.71-2.34-4.01-1.63-2.5-2.79-4.26-4.56-6.26-.67-.74-1.32-1.42-1.97-2.05-1.25-1.22-2.49-2.28-3.86-3.24-.72-.51-1.49-1-2.3-1.47-.82-.47-.37-1.78.56-1.62.31.02.55.27.82.41.36.23.73.45,1.09.68.34.21.67.43.99.67,1.83,1.36,3.55,2.88,5.12,4.54.56.59,1.09,1.2,1.6,1.82,2.27,2.75,4.19,5.79,5.95,8.89.38.7.76,1.4,1.1,2.12.08.2.21.38.29.58.02,0,.03.01.04.02,3.23,1.51,6.31,3.31,9.29,5.26-.1-.31-.21-.61-.33-.91-.9-2.32-1.74-4.22-3-6.78-.53-1.1-1.24-2.38-2-3.64h0c-1.24-2.06-2.59-4.08-3.48-5.22-1.82-2.35-3.86-4.53-5.88-6.7-3.21-3.34-6.16-6.28-9.67-8.69h0c-1.11-.76-2.28-1.48-3.53-2.14-.82-.47-.36-1.78.56-1.62.72.19,1.35.69,2,1.05.26.16.53.32.79.48.85.54,1.68,1.11,2.47,1.73,2.86,2.15,5.46,4.63,7.93,7.21,2.04,2.15,4.05,4.33,5.93,6.62,2.21,2.74,4.11,5.71,5.76,8.82h0c1.1,2.06,2.09,4.19,2.98,6.34.63,1.47,1.19,2.97,1.65,4.5.08.16.1.32.08.47,2.92,2,5.73,4.17,8.38,6.52.3.27.6.53.9.81-.03-.2-.06-.4-.09-.6-.11-.68-.24-1.37-.41-2.04-.85-3.42-1.94-6.77-3.24-10.05h0c-.23-.57-.46-1.15-.7-1.71-.3-.71-1.61-3.84-2.44-5.28-1.38-2.53-2.93-4.97-4.51-7.39-2.42-3.47-4.45-5.96-7.24-9.3-1.92-2.27-3.82-4.56-5.92-6.67-2.12-2.17-5.63-5.21-7.36-6.56-1.58-1.25-3.3-2.3-5.02-3.35-.36-.22-.72-.44-1.08-.66-1.17-.7-2.36-1.37-3.6-1.95-.67-.38-.52-1.41.21-1.6.23-.06.47-.03.68.09.36.18.71.35,1.07.53.32.16.64.33.96.5,1.13.62,2.22,1.31,3.32,1.98,2.73,1.61,5.25,3.53,7.61,5.64,3.26,2.76,6.22,5.85,8.96,9.13,2.89,3.41,5.76,6.85,8.34,10.49,1.87,2.71,3.59,5.51,5.18,8.39,1.54,2.99,2.85,6.1,4,9.27.48,1.32.93,2.65,1.35,3.98.72,2.24,1.28,4.52,1.66,6.83.11.67.21,1.35.29,2.02,0,.03.02.07.02.1.01.05.01.11.01.16,3.26,3.33,6.04,7.08,8.81,10.83h0c.54.74,1.09,1.47,1.63,2.2,1.59,2.12,3.11,4.29,4.36,6.62Z"/>
        <path class="cls-8" d="m280.24,264.83c-.9.09-1.8.17-2.7.25h0c-2.14-1.48-4.81-3.31-7.02-4.71-4.74-2.87-9.48-5.73-14.14-8.74-2.63-1.66-5.27-3.33-8.02-4.79-3.69-1.92-7.54-3.8-10.87-5.02-7.35-2.6-14.37-4.1-21.74-4.35-3.72-.18-7.45,0-11.14.52-.18.02-.37.05-.58.08-.64.09-1.42.2-2.24.33-1.15.18-2.4.41-3.5.68-.04,0-.08.02-.12.03-.92.26-1.52-.98-.77-1.54.27-.21.62-.23.95-.31.06-.01.12-.03.18-.05.85-.19,1.71-.34,2.57-.48.1-.02.21-.03.31-.05.7-.11,1.41-.22,2.12-.32,1.34-.19,2.69-.35,4.04-.49,9.08-.79,18.29.39,26.97,3.1,3.24.95,6.36,2.24,9.41,3.68,2.68,1.27,5.33,2.59,7.89,4.09,5.5,3.27,10.79,6.85,16.3,10.1,3.25,1.9,6.39,3.99,9.49,6.12.68.47,1.36.94,2.04,1.42.17.14.39.27.58.41Z"/>
        <path class="cls-8" d="m261.08,266.34c-.81.05-1.61.1-2.42.14-.52-.48-1.05-.96-1.58-1.44-3.25-2.91-5.71-5.02-9.51-7.12-3.14-1.76-5.73-3.12-8.75-4.19-2.49-.9-5.02-1.71-7.6-2.35-2.6-.66-6.96-1.35-8.73-1.57-4.71-.61-9.49-.81-14.23-.38-.59.07-1.2.15-1.83.24-.78.11-1.59.25-2.42.4-1.4.25-2.86.54-4.33.85-.2.04-.4.09-.61.13-.92.26-1.52-.98-.77-1.54.24-.21.59-.2.88-.29.32-.07.64-.14.97-.2.27-.05.54-.1.81-.15.91-.17,1.83-.34,2.74-.51.83-.15,1.65-.29,2.48-.42.53-.08,1.06-.15,1.6-.21,3.49-.35,7.02-.37,10.52-.1,9.04.73,18.13,2.64,26.28,6.71,2.5,1.27,4.96,2.62,7.29,4.19,1.56,1.09,3.03,2.31,4.47,3.55,1.6,1.39,3.18,2.81,4.72,4.26Z"/>
        <path class="cls-8" d="m246.48,267.05c-1.04.04-2.08.07-3.13.1-1.62-1.01-3.26-1.97-4.99-2.77-1.32-.63-3.75-1.43-5.82-1.96-5.97-1.6-11.46-1.88-17.91-1.79-2.79.11-5.28.19-7.72.45-.51.05-1.02.12-1.54.19-1.22.18-2.44.41-3.7.74-.92.26-1.52-.98-.76-1.54.63-.38,1.53-.42,2.25-.59.7-.13,1.4-.25,2.1-.35.57-.09,1.14-.16,1.71-.21.09,0,.17-.02.26-.02,6.51-.56,13.1-.68,19.59.19,4.04.56,8.05,1.55,11.82,3.11,2.43,1.03,4.67,2.45,6.9,3.85.31.2.62.4.93.6Z"/>
      </g>
      <path class="cls-27" d="m31.99,43.84c-2.82.5-5.52,1.77-7.83,3.5-2.84,2.13-5.14,4.92-7.04,7.92-5.16-7.58-10.29-15.17-15.4-22.78-1.2-1.79-2.22-4.24-1.44-6.28.78-2.04,2.6-3.49,4.44-4.67,1.95-1.24,4.02-2.29,6.17-3.12.68-.27,1.39-.51,2.12-.46,1.9.14,3.67,2.69,5.34,5.49.12.2,5.51,8.26,13.64,20.4Z"/>
      <path class="cls-27" d="m67.39,25.88c-6.3.88-12.12,4.73-15.41,10.17-5.65-9.05-10.6-17-14.37-23.06-1.12-1.8-2.05-4.49-.75-6.63,1.3-2.14,3.64-3.39,5.87-4.53,2.16-1.11,4.58-2.25,6.93-1.65,2.36.6,4.11,2.66,5.3,4.78.05.09,4.94,8.33,12.42,20.93Z"/>
      <path class="cls-6" d="m347.09,192.04c5.37-9.65,7.47-20.98,6.63-31.99-.84-11.01-4.53-21.72-10.05-31.29-2.47-4.28-5.35-8.41-9.16-11.55-3.81-3.14-8.66-5.24-13.59-5.01-6.47.31-12.13,4.48-16.55,9.21-6.8,7.28-11.64,16.19-15.5,25.37-3.55,8.46-6.36,17.43-6.31,26.61.05,9.18,3.26,18.65,10.14,24.73,4.96,4.38,11.36,6.84,17.83,8.21,17.5,3.7,31.69-5.56,36.55-14.3Z"/>
      <path class="cls-16" d="m302.43,155.02c-3.88,5.77-5.51,13.09-4.05,19.88,1.46,6.79,6.1,12.92,12.41,15.81,6.32,2.9,14.18,2.33,19.81-1.74,4.28-3.1,7.1-7.99,8.14-13.17,1.03-5.18.36-10.62-1.43-15.59-.92-2.57-2.17-5.07-4.05-7.04-1.62-1.69-3.66-2.95-5.83-3.83-8.17-3.32-19.75-2.15-25.01,5.68Z"/>
      <path class="cls-6" d="m244.18,98.36c-10.29,5.56-20.15,12.27-27.7,21.2-7.55,8.94-12.64,20.32-12.38,32.02.26,11.73,6.13,23.21,15.48,30.29,1.92,1.46,3.99,2.74,6.23,3.64,2.54,1.02,5.25,1.54,7.94,1.99,3.48.58,7,1.07,10.52.83,10.27-.73,19.28-7.8,24.78-16.51,5.5-8.71,8.02-18.93,10.08-29.02,1.61-7.87,3-15.93,2.12-23.92s-4.32-16.02-10.76-20.82c-6.44-4.81-16-5.27-26.32.3Z"/>
      <path class="cls-16" d="m227.48,131.76c-4.97,5.28-7.73,12.57-7.49,19.82.18,5.46,2.17,11.05,6.28,14.65,3.19,2.79,7.4,4.18,11.59,4.83,4.06.63,8.36.6,12.09-1.11,1.8-.83,3.41-2.03,4.85-3.39,5.35-5.07,8.3-12.64,7.51-19.97-.78-7.33-5.37-14.2-11.95-17.52-6.58-3.32-16.26-4.35-22.89,2.7Z"/>
      <path class="cls-6" d="m259.75,229.09c.85-.72,2.02-.9,3.07-.53,1.71.62,3.72.46,5.26-.52,1.57-1,2.58-2.79,2.72-4.63.08-1.06.76-1.97,1.7-2.47,1.73-.93,3.02-2.7,3.4-4.65.51-2.6-.46-5.35-2.22-7.33-.24-.27-.51-.55-.58-.91-.06-.31.05-.63.14-.93.81-2.53,1-5.38-.13-7.79-.92-1.95-2.87-3.49-4.97-3.72-.94-.1-1.79-.63-2.32-1.42-.92-1.36-2.12-2.52-3.6-3.19-2-.91-4.55-.77-6.18.7-.23.21-.47.46-.77.52-.35.07-.69-.12-1-.29-2.29-1.2-5.16-1.32-7.46-.15-1.76.9-3.11,2.57-3.63,4.46-.27.98-1,1.75-1.95,2.11-1.64.63-2.97,2.14-3.47,3.87-.48,1.67-.29,3.46.31,5.1.38,1.04.17,2.19-.51,3.06-1.15,1.48-1.66,3.46-1.28,5.29.38,1.84,1.65,3.45,3.29,4.34.93.51,1.55,1.45,1.67,2.51.2,1.75,1.17,3.42,2.65,4.4,1.41.93,3.22,1.19,4.85.78,1.11-.28,2.3.06,3.09.88.91.95,2.12,1.62,3.41,1.83,1.5.24,3.08-.12,4.5-1.33Z"/>
      <g>
        <path class="cls-22" d="m299.97,91.14c-1.16.03-1.15,1.72,0,1.76,1.16-.03,1.15-1.72,0-1.76Z"/>
        <path class="cls-22" d="m295.47,92.42c-1.16.03-1.15,1.72,0,1.76,1.16-.03,1.15-1.72,0-1.76Z"/>
        <path class="cls-22" d="m299.65,100.14c-1.16.03-1.15,1.72,0,1.76,1.16-.03,1.15-1.72,0-1.76Z"/>
        <path class="cls-22" d="m294.18,98.53c-1.16.03-1.15,1.72,0,1.76,1.16-.03,1.15-1.72,0-1.76Z"/>
        <path class="cls-22" d="m288.07,105.61c-1.16.03-1.15,1.72,0,1.76,1.16-.03,1.15-1.72,0-1.76Z"/>
        <path class="cls-22" d="m291.93,111.07c-1.16.03-1.15,1.72,0,1.76,1.16-.03,1.15-1.72,0-1.76Z"/>
        <path class="cls-22" d="m293.86,76.02c-1.16.03-1.15,1.72,0,1.76,1.16-.03,1.15-1.72,0-1.76Z"/>
        <path class="cls-22" d="m360.42,119.43c-1.16.03-1.15,1.72,0,1.76,1.16-.03,1.15-1.72,0-1.76Z"/>
        <path class="cls-22" d="m364.6,120.07c-1.16.03-1.15,1.72,0,1.76,1.16-.03,1.15-1.72,0-1.76Z"/>
        <path class="cls-22" d="m363.63,123.93c-1.16.03-1.15,1.72,0,1.76,1.16-.03,1.15-1.72,0-1.76Z"/>
        <path class="cls-22" d="m372.31,128.43c-1.16.03-1.15,1.72,0,1.76,1.16-.03,1.15-1.72,0-1.76Z"/>
        <path class="cls-22" d="m365.88,131.33c-1.16.03-1.15,1.72,0,1.76,1.16-.03,1.15-1.72,0-1.76Z"/>
        <path class="cls-22" d="m403.5,105.93c-1.16.03-1.15,1.72,0,1.76,1.16-.03,1.15-1.72,0-1.76Z"/>
        <path class="cls-22" d="m407.04,106.89c-1.16.03-1.15,1.72,0,1.76,1.16-.03,1.15-1.72,0-1.76Z"/>
        <path class="cls-22" d="m405.43,110.11c-1.16.03-1.15,1.72,0,1.76,1.16-.03,1.15-1.72,0-1.76Z"/>
        <path class="cls-22" d="m407.04,115.89c-1.16.03-1.15,1.72,0,1.76,1.16-.03,1.15-1.72,0-1.76Z"/>
        <path class="cls-22" d="m409.61,120.4c-1.16.03-1.15,1.72,0,1.76,1.16-.03,1.15-1.72,0-1.76Z"/>
        <path class="cls-22" d="m393.21,146.44c-1.16.03-1.15,1.72,0,1.76,1.16-.03,1.15-1.72,0-1.76Z"/>
        <path class="cls-22" d="m389.68,151.91c-1.16.03-1.15,1.72,0,1.76,1.16-.03,1.15-1.72,0-1.76Z"/>
        <path class="cls-22" d="m392.57,161.23c-1.16.03-1.15,1.72,0,1.76,1.16-.03,1.15-1.72,0-1.76Z"/>
        <path class="cls-22" d="m316.04,76.99c-1.16.03-1.15,1.72,0,1.76,1.16-.03,1.15-1.72,0-1.76Z"/>
      </g>
      <path class="cls-9" d="m400.54,214.38h0c0,.37,0,.73-.02,1.1-.01.54-.04,1.11-.12,1.66h0c-.16,1.2-.55,2.32-1.49,2.93.39,2.21.62,4.48.27,6.7-.15.94-.4,1.87-.78,2.75-4.63,3.27-6.22,4.24-6.32,4.3-4.09,2.72-8.21,5.41-12.62,7.57-5.13,2.51-10.58,4.27-16.04,5.93-.94.29-1.88.57-2.82.84-1.21.36-2.42.72-3.63,1.06-2.8.81-5.61,1.6-8.43,2.36-.38.1-.75.2-1.13.31h0c-.5.13-1,.27-1.49.4-2.52.67-5.04,1.32-7.56,1.94l-.56.14c-.56.14-1.13.28-1.69.41h0c-1.89.46-3.78.91-5.68,1.35h0c-.77.18-1.53.36-2.3.53h0c-1.19.27-2.38.54-3.57.8h0c-.8.18-1.61.35-2.41.52h0c-1.33.29-2.65.56-3.98.84-.74.15-1.49.31-2.23.45-.88.18-1.75.35-2.63.52-.71.14-1.41.28-2.12.41-3.75.72-7.51,1.39-11.27,2.03-.64.11-1.28.22-1.92.32-2.42.4-4.84.78-7.26,1.14-.41.06-.83.13-1.24.19-1.64.18-3.29.36-4.94.53.5-2.48,1.22-4.92,2.1-7.3,1.59-4.27,3.74-8.35,6.22-12.18.53-.82,1.08-1.62,1.63-2.42,2.02-2.88,4.23-5.63,6.54-8.29.45-.52.91-1.04,1.37-1.55,1.78-1.99,3.62-3.94,5.47-5.86.38-.4.76-.79,1.15-1.18.55-.56,1.1-1.12,1.66-1.67,2.62-2.61,5.35-5.11,8.3-7.34,1.04-.78,2.11-1.53,3.19-2.26.93-.63,1.87-1.25,2.81-1.87,1.43-.93,2.86-1.87,4.25-2.84,3.79-2.65,7.36-5.6,10.78-8.81-.07-.24-.16-.47-.27-.69-.57-1.22-1.6-2.2-2.52-3.21-1.09-1.19-2.14-2.62-2.07-4.23.08-1.86,1.68-3.37,3.45-3.94,1.77-.57,3.68-.41,5.53-.24,1.43.13,2.86.27,4.29.4.08,0,.15.02.23.02,1.1.11,2.23.25,3.18.81.98.57,1.7,1.58,1.94,3.19,3.15-.48,6.38-.47,9.53.03,1.83.29,3.65.76,5.26,1.69,1.6.92,2.98,2.34,3.11,4.06,2.47-.08,4.98-.16,7.38.41,2.41.57,4.74,1.88,6.06,3.97,1.2-.02,2.4-.04,3.6,0h0c1,.04,1.99.12,2.98.29.43.07.86.16,1.29.27,1.6.41,3.16,1.13,4.43,2.18.75.63,1.4,1.37,1.88,2.22.48.85.77,1.76.96,2.71.23,1.17.27,2.4.27,3.61Z"/>
      <path class="cls-12" d="m267.88,206.3c-1.99-3.76-5.64-6.6-9.74-7.68-1.31-.37-2.67-.63-4.03-.64-1.09.02-2.19.2-3.24.5-1.66.57-3.09,1.73-4.1,3.16-.9,1.4-1.52,2.99-1.79,4.63-.33,1.7-.12,3.44.17,5.13.49,2.69,1.56,5.35,3.47,7.36,1.29,1.3,2.85,2.33,4.54,3.04,1.62.61,3.42.66,5.1.32,1.9-.42,3.84-1.75,4.92-3.37.71-1.51,1.42-3.16,1.21-4.86-.33-2.72-1.49-6.05-3.67-7.83-1.06-.9-2.37-1.52-3.76-1.69-1.43-.24-2.96-.02-4.15.86-.89.62-1.5,1.57-1.92,2.55-.75,1.77-.3,3.85.6,5.48.66,1.09,1.68,1.97,2.88,2.41,1.29.41,2.77.14,3.48-1.11.36-.74.6-1.83-.04-2.49-.88-.89-2.4-.12-2.25,1.12,0,0,0,.01,0,.02,0,0,0,0,0,.01-.06,0-.12,0-.17,0-.09-.02-.18-.04-.26-.06-.04-.02-.08-.04-.14-.07-1.24-.64-1.67-1.87-1.82-2.96,0-1.02-.05-.72.12-1.26.02-.06.04-.11.05-.13.03-.06.06-.12.1-.18.56-.93.22-.53.83-1.13.21-.14.43-.26.66-.37.05-.02.12-.04.19-.06.06-.02.11-.03.15-.04,1.21-.06.91-.07,1.98.15.19.05.37.12.55.18.16.07.31.15.46.23,2.03,1.03,3.17,4.21,3.49,6.36.09,1.26.07.75-.2,1.92-.44,1.22-.29.94-.75,1.78-.04.04-.08.08-.12.13-.26.28-.54.54-.84.78-1.04.71-1.07.73-1.86.99-1.03.22-.24.11-1.29.21-1.58,0-1.4.02-2.69-.37-.02,0-.04-.01-.05-.02-.31-.14-.61-.32-.91-.48-.51-.28-1-.6-1.47-.94-1.05-.85-1.56-1.44-1.96-2.07-1.06-1.77-1.19-2.12-1.72-4.14-.35-1.76-.53-2.32-.4-4.49.27-2.14,1.31-4.74,3.46-5.88.84-.39.26-.2,1.32-.47,1.1-.19.41-.15,1.56-.22,1.81-.04,3.41.38,5.68,1.26.44.2.86.42,1.26.67.43.26.85.54,1.25.85,1.3,1.04,2.34,2.21,2.8,2.91.2.29.39.59.56.9.16.28.27.62.56.8,1.11.9,2.65-.46,1.93-1.7Z"/>
      <g>
        <path class="cls-25" d="m351.35,205.36s-.02.02-.02.04c0-.01.02-.03.03-.04,0,0,0,0,0,0Z"/>
        <path class="cls-25" d="m368.68,212.31c-.03-.34-.07-.69-.13-1.03-.15-.97-.39-1.94-.76-2.85-.41-1.02-1.03-1.96-1.71-2.82-.87-1.1-1.97-2.11-3.33-2.53-.18-.09-.36-.12-.53-.11-2.89-.82-6.11-1.39-9-.57-.08-.11-.17-.21-.28-.3-.11-.14-.2-.3-.29-.45-.64-1.13-1.04-2.21-1.12-3.13-.07-1.65.17-2.24.94-3.14.46-.46.25-.26.62-.52.14-.09.29-.16.37-.3.6-.73-.32-1.78-1.13-1.29-1.06.66-1.76,1.52-2.15,2.48-2.36.25-4.77.53-6.99,1.41-.13.05-.25.1-.37.15-.6.25-1.18.54-1.68.95-.22.18-.49.34-.59.62-.11.22-.1.46,0,.67.14.31.45.56.81.55.37,0,.61-.25.87-.47,1.02-.69,1.18-.67,2.31-1.09,2.06-.66,3.51-.75,5.25-.99-.11,1.71.47,3.54,1.41,5.09.1.15.2.31.31.46-.21.11-.42.23-.63.37-1.62,1.04-2.07,3.15-1.69,4.94.13.7.36,1.37.66,2.01-.12,0-.44-.04-.58-.05-1.72-.36-2.45-.8-3.99-1.93-.55-.41-2.84-2.57-3.27-3.52-.39-.69-.61-1.24-.69-1.47-.1-.24-.09-.52-.28-.72-.55-.77-1.8-.14-1.54.76.21.79.54,1.53.95,2.22-.14.08-.26.2-.37.33-.33.34-.67.67-1.02,1-2.51,2.29-5.16,4.43-7.81,6.56-.29.23-.73.57-1.46,1.07-.33.25-.8.42-.91.87-.22.73.63,1.39,1.29.99,1.84-1.21,3.51-2.67,5.23-4.04,2.07-1.73,4.19-3.41,6.06-5.35.56.68,1.19,1.32,1.85,1.9.43.4.89.77,1.36,1.12-.08.09-.16.19-.24.27-.37.39-.76.76-1.15,1.12-1.48,1.36-3.06,2.62-4.62,3.89-3.77,3.07-7.62,6.04-11.36,9.15-3.02,2.59-5.95,5.29-8.8,8.07-4.17,4.15-8.28,8.39-11.53,13.32-.17.25-.34.49-.51.74-1.26,1.83-2.5,3.66-3.68,5.55-1.44,2.22-2.77,4.52-3.7,6.99-.41,1.09-.78,2.2-1.09,3.32.64-.11,1.28-.21,1.92-.32.55-1.82,1.1-3.27,1.93-4.92,1.19-2.37,2.71-4.57,4.14-6.8.77-1.14,1.5-2.22,2.21-3.25,1.84-2.67,3.6-5.06,5.93-7.56,5.55-5.99,11.49-11.61,17.87-16.7,2.79-2.23,5.6-4.44,8.36-6.69,1.35-1.1,2.7-2.19,3.99-3.36.61-.6,1.31-1.16,1.82-1.86,1.25.67,2.6,1.09,4.04,1.08.2,0,.43,0,.64-.02.09.13.17.26.26.38.14.2.27.39.41.59-1.8,1.33-5.09,3.3-7.44,4.87-3.4,2.28-6.75,4.63-9.99,7.13-3.35,2.61-6.54,5.41-9.6,8.35-3.58,3.3-6.84,6.93-9.92,10.71-.23.29-.47.58-.7.88-.16.16-.26.39-.26.62-.01.56.57,1,1.11.85.27-.06.44-.29.6-.5.21-.28.44-.55.66-.82.87-1.07,1.77-2.12,2.67-3.15,2.32-2.71,4.82-5.26,7.44-7.69,3.37-3.25,7.4-6.67,10.59-9.04,4.08-3.02,8.27-5.89,12.57-8.57.95-.61,1.9-1.23,2.83-1.87.15-.12.33-.24.51-.36.24.29.49.56.76.83.48.49.99.97,1.51,1.44-.01,0-.02.02-.03.03-.04.03-.09.07-.13.1-.28.21-.56.41-.85.6-1.69,1.14-3.4,2.24-5.12,3.33-6.35,4-12.61,8.18-18.23,13.17-4.52,3.88-8.51,8.36-11.79,13.34-.57.87-1.15,1.74-1.72,2.62-1.96,3.02-3.86,6.1-5.4,9.36-.14.3-.29.6-.42.9.71-.13,1.42-.27,2.12-.41,1.31-2.67,3.18-5.85,4.85-8.39.21-.32.41-.65.62-.97,1.94-3.01,3.91-5.83,5.93-8.19,5.39-6.11,11.23-10.77,17.62-15.15,2.98-2.01,6.02-3.93,9.05-5.87,1.17-.75,2.33-1.51,3.48-2.29.4-.28.8-.57,1.18-.87.07-.05.15-.11.22-.18.56.4,1.15.76,1.78,1.04-1.89,1.43-3.81,2.82-5.8,4.09-4.29,2.74-8.62,5.44-12.6,8.64-2.79,2.23-5.56,4.49-8.14,6.96-1.97,1.9-3.81,3.93-5.59,6.01-1.74,2.06-3.42,4.18-4.98,6.38-1.65,2.33-3.16,4.76-4.49,7.3-.17.32-.34.64-.51.97.74-.15,1.49-.3,2.23-.45.54-1,1.1-1.99,1.68-2.96.95-1.6,1.92-3.04,2.9-4.39,1.11-1.52,2.24-2.95,3.41-4.4,3.61-4.45,7.68-8.51,12.16-12.09,4.04-3.41,8.29-6.33,13.14-9.37,2.96-1.87,5.88-3.85,8.6-6.05,1.69.27,3.5.23,5.08-.49.87-.38,1.72-.88,2.33-1.61.92-1.15,1.19-2.66,1.23-4.13,0-.34,0-.68-.01-1.01Zm-1.79,1.78c-.23,1.45-.43,1.88-.99,2.46-1.44,1.31-3.88,1.72-6.11,1.15-1.13-.32-1.79-.74-3-1.6-.63-.53-1.25-1.09-1.85-1.67-.5-.49-.99-1.01-1.42-1.56-1.27-1.72-2.19-2.94-2.58-4.69-.13-.63-.15-.58-.09-1.53.04-.25.03-.62.47-1.27-.06.08-.11.11.02-.03,0,0,0,0,0,0,.01-.02.02-.03.03-.05,0,.02-.02.03-.03.04.61-.68,1.25-.88,2.08-1.19,2.55-.74,4.56-.47,7.39.25.44.11.88.23,1.32.35.13.05.28.08.42.09,0,0,.01,0,.02,0,.29.12.55.3.8.49.37.29.72.61,1.03.96.77.88,1.64,2.21,1.98,3.37.55,1.68.64,3.46.5,4.41Z"/>
      </g>
      <path class="cls-25" d="m397.73,219.94c-.16-.05-.28-.17-.39-.31-.16-.18-.34-.35-.51-.51-.93-.85-1.22-1.05-2.44-1.81-1.11-.62-1.8-.84-3.36-1.15-.97-.19-2.33-.23-3.89-.32-1.32-.08-2.65-.16-3.98-.12-1.57-.01-3.04,1.1-3.41,2.36-.5,2.15,1.13,5.47,3.28,7.56.94.91,1.2,1.1,2.04,1.71.32.27.36.28,1.01.75.99.65,2.19,1.35,3.34,1.83.26.13,4,1.12,6.04,1.6-.68.46-1.36.92-2.04,1.37-1.48-.34-3.02-.73-3.48-.9-.04.11-.11.21-.2.31-5.81,5.9-15.2,8.66-21.82,11.6-2.29,1.02-4.56,2.14-6.58,3.63-.23.17-.48.37-.74.59-1.21.36-2.42.72-3.63,1.06,1.64-1.86,3.62-3.42,5.76-4.65,7.18-4.01,14.34-5.51,21.17-9.86,1.86-1.23,2.87-1.89,4.35-3.38-1.03-.47-2.03-1.01-2.97-1.63-.32.26-.65.51-.99.76-2.6,1.92-5.46,3.43-8.31,4.92-4.37,2.34-8.85,4.48-13.31,6.63-4.84,2.39-9.29,4.79-12.85,8.23-.44.43-.87.88-1.27,1.34-.38.1-.75.2-1.13.31h0c-.5.13-1,.27-1.49.4.07-.47.54-.92.82-1.29.86-1.04,1.8-2,2.81-2.89,4.84-4.23,10.77-6.9,16.51-9.67,3.11-1.49,6.19-3.06,9.24-4.67,2.91-1.49,6.31-3.41,8.51-5.12-.05-.04-.11-.09-.16-.13-.03-.02-.05-.05-.07-.08-.25-.19-.5-.38-.74-.58-.4-.33-.8-.7-1.2-1.11-.81.53-1.64,1.02-2.47,1.51-1.92,1.13-3.87,2.22-5.87,3.2-6,2.94-12.15,5.54-18.03,8.7-2.75,1.47-5.52,2.92-8.08,4.7-2.39,1.62-5.6,4.49-7.15,6.67-.6.87-1.18,1.76-1.68,2.69l-.56.14c-.56.14-1.13.28-1.69.41.08-.18.2-.36.27-.54.01-.02.02-.04.03-.07.47-.94,1-1.85,1.58-2.73,1.3-2.06,3.04-3.81,4.86-5.41,3.14-2.78,6.79-4.87,10.48-6.83,8.89-4.91,18.56-8.33,27.15-13.79-1.22-1.59-2.2-3.48-2.49-5.35-.58.4-1.16.81-1.73,1.23-5.51,4.2-11.62,7.47-17.6,10.94-3.38,1.99-6.79,3.94-10.1,6.03-2.82,1.87-5.93,3.93-7.98,5.73-3.25,2.8-6.16,6.38-8.31,9.31-.04.06-.09.12-.13.18-.62.85-1.19,1.74-1.72,2.65h0c-.77.18-1.53.36-2.3.53.47-.88.96-1.74,1.49-2.57.21-.32.43-.64.65-.96,2.12-3.06,4.51-5.95,7.13-8.59,2.08-2.08,4.43-3.84,6.85-5.49,8.14-5.62,17.01-10.06,25.39-15.29,2.89-1.78,5.54-3.9,8.33-5.82.06-.3.15-.59.27-.87-.99-.3-1.91-.79-2.76-1.38,0,0,0,0,0,0-.22.27-.46.52-.71.77-2.97,2.76-6.5,4.8-9.92,6.95-3.84,2.28-7.65,4.62-11.62,6.68-.82.49-1.73-.56-1.13-1.29.16-.25.48-.33.72-.48.47-.25.95-.5,1.43-.75,1.33-.71,2.64-1.47,3.94-2.25,4.53-2.7,9.16-5.29,13.4-8.44.14-.1,1.35-1.07,1.99-1.69.09-.07.38-.39.54-.57-.55-.48-1.07-1-1.56-1.52-.52-.56-1.03-1.14-1.52-1.73-.06.05-.12.11-.18.17-.44.42-.88.85-1.35,1.25-.27.19-.51.46-.83.56-.07.02-.15.04-.24.04-.88,0-1.21-1.19-.44-1.64.09-.05.29-.22.54-.44.41-.37.96-.89,1.4-1.32-.25-.34-.49-.68-.72-1.04-1.24-2.04-2.24-4.46-1.8-6.88.17-.88.65-1.68,1.31-2.28.43-.4.91-.76,1.48-.94.91-.26,1.53.99.77,1.54-.07.07-.27.16-.39.2-.5.29-.5.32-1.06.92-.1.15-.18.31-.26.48-.25.79-.24,1.07-.14,2.23.11.62.78,2.71,1.64,3.91,1.06,1.59,1.94,2.59,3.47,4.21,1.19,1.18,1.59,1.54,2.99,2.38.95.54.95.57,2.05.83.02,0,.04,0,.06,0,.55-.54,1.22-.96,1.93-1.22.88-.32,1.84-.35,2.78-.34.61,0,1.23.03,1.84.06.03-.08.07-.15.12-.22,0-.01.02-.03.03-.04.1-.28.17-.56.23-.85.28-1.37.34-1.71.32-3.25-.1-1.75-.5-3.27-1.56-4.92-.55-1.02.91-1.87,1.52-.89,1.11,1.72,1.71,3.77,1.8,5.82.04,1.02-.06,2.04-.25,3.04-.1.47-.18.96-.33,1.42,2.18.1,4.42.25,6.44,1.15,1.69.75,3.22,1.9,4.47,3.25.68.66-.11,1.82-.96,1.42Z"/>
      <path class="cls-25" d="m350.05,231.84c-.1.42-.52.59-.86.79-.52.3-1.04.61-1.55.92-1.8,1.11-3.56,2.28-5.29,3.49-4.65,3.22-9.35,8.38-12.64,13.06-.61.85-1.22,1.69-1.83,2.54h0c-1.13,1.59-2.25,3.19-3.31,4.82h0c-.8.18-1.61.35-2.41.52.01-.02.02-.04.04-.06.64-1.05,1.32-2.07,2.01-3.09.61-.86,1.22-1.72,1.82-2.59h0c2.01-2.87,4.05-5.72,6.34-8.37,1.83-2.06,3.75-4.06,5.84-5.86,2.42-2.01,5.05-3.76,7.7-5.46.94-.59,1.89-1.16,2.85-1.71.66-.4,1.51.26,1.29.99Z"/>
      <path class="cls-25" d="m312.97,248.99c0,.22-.14.38-.27.55-.17.23-.34.47-.5.71-.68.99-1.34,1.99-1.99,3.01-1.67,2.52-2.87,5.03-3.75,7.35-.06.17-.13.34-.19.51-.66.12-1.31.24-1.97.35.8-2.42,1.86-4.75,3.09-6.98,1.23-2.08,2.55-4.1,3.96-6.06.47-.82,1.78-.37,1.62.56Z"/>
      <path class="cls-25" d="m327.57,218.47c-4.56,3.21-8.43,6.1-12.52,10.24-2.6,2.76-5.28,5.46-7.73,8.35-1.9,2.26-3.61,4.73-5.59,7.54-2.22,3.19-4.31,6.49-5.83,10.08-1.09,2.45-2.34,5.58-3.28,8.73-.63.1-1.26.19-1.89.29,0,0-.02,0-.03,0,.01-.04.02-.08.03-.12,1.3-4.37,2.99-8.63,5.03-12.71,1.69-3.26,3.81-6.27,5.92-9.26,1.38-1.9,2.73-3.83,4.25-5.63,1.56-1.9,3.29-3.66,4.97-5.46,1.62-1.72,3.23-3.47,4.97-5.07,1.88-1.73,3.87-3.34,5.88-4.91,1.21-.94,2.46-1.83,3.71-2.72.41-.29.81-.58,1.22-.87.14-.08.29-.12.44-.12.9,0,1.19,1.21.44,1.64Z"/>
      <path class="cls-9" d="m205.42,266.82c-1.55-.07-3.1-.16-4.65-.25-8.16-.48-16.31-1.19-24.41-2.15-2.47-.29-4.94-.6-7.4-.94-11.42-1.56-22.74-3.62-33.94-6.24h0c-2.55-.59-5.08-1.22-7.61-1.87-13.89-3.58-27.54-8.05-40.84-13.52-4.6-1.89-9.15-3.89-13.66-6.02-7.35-3.47-14.66-7.33-20.85-12.55-1.15-3.27-1.85-6.7-2.08-10.16-.24-3.68.27-7.79,2.52-10.55.47-.58,1.01-1.09,1.64-1.54,2.46-1.73,5.6-1.89,8.67-1.7.7.04,1.4.1,2.09.17,2.1.2,4.2.39,6.58.55-.07-.11-.14-.23-.21-.34-1.2-2.04-1.94-4.36-2.11-6.72-.09-1.12-.04-2.29.41-3.32.55-1.25,1.63-2.17,2.77-2.94,0,0,0,0,0,0,.04-.02.07-.05.11-.07,4.08-2.68,9.01-3.82,13.89-4.03,1.25-.05,2.5-.05,3.77,0,.63.02,1.27.05,1.91.09,3,.18,6.12.53,9.53.81h0c.07,0,.14.01.22.02-2.46-2.25-2.26-6.08-.51-9h0c.65-1.1,1.52-2.06,2.55-2.76,3.77-2.59,8.69-2.63,13.26-2.42,2.57.12,5.15.29,7.72.54,1.1.1,2.19.22,3.29.36,6.68.82,13.27,2.2,19.54,4.52h.02c1.61.59,3.19,1.25,4.75,1.97.02,0,.03.02.05.02,0,0,0,0,0,0h0c17.81,8.28,30.56,24.55,40.88,41.27.5.82,1,1.64,1.49,2.46.34.58.68,1.16,1.01,1.75h0c.63,1.11,1.23,2.24,1.79,3.39.27.54.52,1.09.77,1.65.22.49.42.98.62,1.47,1.02,2.58,1.78,5.24,2.41,7.95.13.57.26,1.13.38,1.71.35,1.63.67,3.27.98,4.9.32,1.68.65,3.36.95,5.05.1.57.2,1.14.3,1.71.54,3.14,1,6.3,1.25,9.46.05.58.09,1.16.12,1.74.1,1.84.13,3.68.05,5.53Z"/>
      <path class="cls-18" d="m135.02,257.24c-2.55-.59-5.08-1.22-7.61-1.87-.36-1.28-.85-2.51-1.45-3.67-.36-.69-.76-1.35-1.19-1.99-.9-1.32-1.95-2.52-3.12-3.6-2.33-2.13-5.36-4.22-5.46-7.37-.02-.47.04-.94-.04-1.4-.31-1.69-2.21-2.46-3.65-3.41-3.03-2-4.5-5.61-6.71-8.5-1.55-2.03-3.52-3.75-5.74-5.01-3.5-1.99-7.67-2.9-10.62-5.65-2.31-2.15-3.77-5.34-6.65-6.64-2.15-.97-4.63-.66-6.97-.9-4.2-.43-7.99-2.62-11.93-4.13-.46-.18-.92-.34-1.4-.49-3.3-1.06-6.95-1.47-9.97-.03.47-.58,1.01-1.09,1.64-1.54,2.46-1.73,5.6-1.89,8.67-1.7.7.04,1.4.1,2.09.17,2.1.2,4.2.39,6.58.55-.07-.11,2.31.4,3.59.69,2.81.65,5.69.97,8.45,1.8,3.08.92,5.94,2.45,8.68,4.13,10.51,6.44,19.5,15.15,27.26,24.73,3.82,4.72,7.38,9.7,10.39,14.96.55.96,1.08,1.92,1.58,2.9,1.35,2.59,2.56,5.25,3.6,7.98Z"/>
      <path class="cls-18" d="m176.36,264.42c-2.47-.29-4.94-.6-7.4-.94-.17-3.23-.21-6.54-1.7-9.36-1.06-2.01-2.83-3.69-3.34-5.9-.22-.94-.19-1.92-.4-2.86-.45-2.07-1.96-3.74-2.86-5.66-1.06-2.27-1.27-4.89-2.5-7.08-.8-1.43-2-2.59-3.14-3.77-3.95-4.07-7.48-8.55-10.49-13.36-.78-1.25-1.55-2.53-2.64-3.52-1.42-1.27-3.29-1.94-4.76-3.16-1.58-1.31-2.62-3.2-4.24-4.46-3.04-2.36-7.49-2.06-10.66-4.24-1.47-1.01-2.54-2.48-3.81-3.73-3.44-3.4-8.41-5.18-13.22-4.75-1.69.15-3.38.57-5.07.35-4.63-.6-8.24-5.78-12.83-4.91-1.49.28-2.86,1.22-4.38,1.21-1.23,0-2.36-.62-3.51-1.06-2.24-.85-4.72-1-7.06-.49.04-.02.07-.05.11-.07,4.08-2.68,9.01-3.82,13.89-4.03,1.25-.05,2.5-.05,3.77,0,.63.02,1.27.05,1.91.09,3,.18,9.75.82,9.75.82,1.26.41,2.3.82,3.54,1.25,10.66,3.68,21.46,7.59,30.44,14.4,9.12,6.91,15.87,16.45,21.77,26.26,7.45,12.38,13.76,25.44,18.84,38.97Z"/>
      <path class="cls-18" d="m205.42,266.82c-1.55-.07-3.1-.16-4.65-.25-.12-2.41-2.22-5.23-1.4-7.69.06-.18.14-.37.23-.54.37-.75.89-1.45,1-2.26.01-.08.02-.15.02-.23.02-.96-.6-1.8-.87-2.72-.2-.71-.18-1.45-.06-2.19.11-.63.29-1.27.47-1.9.49-1.66,1.01-3.3.26-4.78-.42-.84-1.19-1.45-1.64-2.28-.48-.88-.53-1.87-.5-2.88.02-.6.06-1.21.06-1.81s-.04-1.18-.2-1.74c-.37-1.32-1.31-2.39-2.09-3.51-1.59-2.3-2.57-5.03-2.79-7.82-.88-1.28-3.63-2.01-5.06-3.84-1.53-1.96-1.3-4.81-2.59-6.94-1.04-1.72-2.93-2.73-4.3-4.2-1.13-1.2-1.89-2.69-2.91-3.99-1.32-1.69-3.04-3.01-4.55-4.53-2.25-2.25-4.07-4.92-5.33-7.84-2.44-3.07-4.79-6.29-8.3-7.03-1.18-.25-2.41-.19-3.58-.46-4.09-.95-6.64-5.62-10.8-6.18-2.34-.31-4.75.78-7.04.22-2.49-.61-4.16-3-6.52-4.01-2.48-1.07-5.33-.47-8.01-.74-3.99-.39-7.57-2.7-11.52-3.35-4.05-.67-8.36.57-11.5,3.2.65-1.09,1.52-2.05,2.55-2.75,3.77-2.59,8.69-2.63,13.26-2.42,2.57.12,5.15.29,7.72.54,1.1.1,2.19.22,3.29.36,6.68.82,13.27,2.2,19.54,4.52h.02c1.61.59,3.19,1.25,4.75,1.97.02,0,.03.02.05.02,0,0,0,0,0,0h0c17.81,8.28,30.56,24.55,40.88,41.27.5.82,1,1.64,1.49,2.46.34.58.68,1.16,1.01,1.75h0c.63,1.11,1.23,2.24,1.79,3.39.27.54.52,1.09.77,1.65.22.49.42.98.62,1.47,1.02,2.58,1.78,5.24,2.41,7.95.13.57.26,1.13.38,1.71.35,1.63.67,3.27.98,4.9.32,1.68.65,3.36.95,5.05.1.57.2,1.14.3,1.71.39,2.3.74,4.6,1,6.91.08.75.16,1.5.22,2.25,0,.1.02.2.02.3.05.58.09,1.16.12,1.74.1,1.84.13,3.68.05,5.53Z"/>
      <path class="cls-19" d="m84.75,227.46c-.71-.83-1.45-1.64-2.23-2.41-1.19-1.21-2.49-2.32-3.96-3.17-1.24-.72-2.6-1.19-3.83-1.93-1.36-.86-1.71-1.15-2.85-2.15-.73-.64-1.43-1.3-2.08-2.01-.22-.24-.44-.48-.64-.74-.13-.17-.26-.37-.47-.43-.86-.4-1.64.76-.96,1.42.89,1.14,1.94,2.14,3.02,3.09,1.25,1.12,2.6,2.14,4.11,2.88,1.31.63,2.66,1.18,3.84,2.03,1.17.79,2.72,2.33,4.08,3.83.41.45.79.92,1.21,1.36.38.5.99.77,1.51.28.74-.84-.26-1.44-.75-2.05Z"/>
      <path class="cls-26" d="m131.42,249.26s-.02.07-.03.1c-.56,1.9-3.38,2.21-5.44,2.34-.36-.69-.76-1.35-1.19-1.99.37,0,.74-.01,1.11-.03,1.39-.02,2.99-.34,3.41-.7.08-.07.16-.13.23-.21.04-.06.08-.15.11-.2,0,0,0-.02.01-.03.2-.73.19-.61.17-1.39,0-.01,0-.02,0-.03-.04-.19-.1-.37-.04-.56.02-.07.05-.14.09-.19.55.96,1.08,1.92,1.58,2.9Z"/>
      <path class="cls-19" d="m80.51,230.42c-1.65-2.09-3.5-4.11-5.84-5.42-1.01-.56-1.87.9-.89,1.52,2.09,1.1,4.33,3.6,5.56,5.27.4.78,1.43.84,1.73-.04.15-.53-.28-.92-.56-1.32Z"/>
      <path class="cls-19" d="m93.08,235.03c-.07-.22-.2-.41-.4-.52-.06-.04-.12-.09-.17-.13-.03-.02-.05-.04-.08-.06-.64-.51-1.27-1.04-1.8-1.66-.38-.45-.38-.47-.48-.59-.12-.16-.21-.36-.38-.47-.73-.6-1.77.32-1.29,1.13.63.91,1.36,1.74,2.23,2.44.29.25.59.48.9.72.15.12.31.24.51.24.6.13,1.14-.52.96-1.1Z"/>
      <path class="cls-19" d="m110.36,244.97c-.64-1.34-1.53-2.59-2.64-3.59-.91-.8-1.99-1.39-2.96-2.11-.4-.31-.27-.15-.82-.73-.25-.24-.41-.62-.76-.74-.86-.4-1.63.76-.96,1.42.9,1.22,2.24,1.95,3.47,2.79.71.49,1.06.78,1.83,1.69.52.68.98,1.4,1.34,2.18.14.16.09.79.86.93.42.09.85-.22.96-.63.13-.44-.17-.83-.32-1.22Z"/>
      <path class="cls-19" d="m129.8,219.75c-.07-.31-.35-.48-.57-.68-.51-.43-.97-.91-1.41-1.41-1.72-1.88-3.03-4.21-5.18-5.66-1-.6-2.69-1.14-3.09-1.36-1.61-.67-2.55-1.5-3.52-2.33-.88-.79-1.73-1.62-2.49-2.52-.53-.59-.31-.5-.94-1.18-.73-.6-1.78.32-1.29,1.13,1.65,2.3,3.76,4.29,6.15,5.82,1.41.8,3.11,1.3,3.98,1.76,1.58.84,3.29,3.43,4.87,5.27.53.6,1.07,1.19,1.68,1.7.35.32.81.74,1.31.48.41-.14.62-.63.51-1.04Z"/>
      <path class="cls-19" d="m125.98,222.66c-.21-.28-.44-.54-.67-.8-.97-1.03-2.04-1.99-3.29-2.67-.42-.21-.86-.39-1.31-.49-.28-.08-.59-.11-.85.05-.66.36-.52,1.43.21,1.6.98.24.91.25,1.83.82.67.48,1.37,1.08,2.27,2.05.09.09.33.39.46.54.14.21.32.41.58.48.45.13.96-.16,1.08-.61.1-.36-.06-.69-.3-.96Z"/>
      <path class="cls-19" d="m136.08,219.43c-.06-.26-.27-.43-.47-.59-.24-.2-.48-.41-.71-.63-.85-.82-1.18-1.26-1.64-1.85-.84-.8-2.03.4-1.24,1.24.14.2,1.07,1.36,1.79,1.99.22.2.44.39.67.58.21.19.46.39.76.37.57.01,1-.57.85-1.11Z"/>
      <path class="cls-19" d="m157.35,254.26c-.41-1.05-1.02-2.01-1.74-2.87-1.37-1.62-2.35-2.35-3.14-4.02-.34-.68-.64-1.37-.96-2.06-.18-.33-.26-.77-.58-1-.73-.6-1.78.32-1.29,1.13.82,1.73,1.49,3.57,2.77,5.02,1.16,1.32,2.14,2.2,2.77,3.35.46.84.39.69.66,1.42.1.23.11.52.29.71.33.5,1.16.43,1.45-.09.29-.52-.06-1.08-.23-1.59Z"/>
      <path class="cls-19" d="m151.14,252.32c-.09-.17-.25-.27-.4-.38-.28-.21-.08-.05-.54-.42-.47-.34-.88-.8-1.38-1.07-.86-.4-1.63.76-.96,1.42.59.46,1.15.96,1.75,1.41.35.33.91.54,1.31.18.36-.24.44-.77.23-1.13Z"/>
      <path class="cls-19" d="m129.05,185.05c-.14-.25-.41-.36-.65-.49-.3-.17-.58-.36-.85-.57-.76-.55-3-2.96-4.59-3.78-.57-.29-1.17-.52-1.78-.7-.3-.07-.6-.25-.91-.19-.93.09-1.02,1.47-.12,1.71,2.17.58,2.84,1.17,4.6,2.81.43.39.85.79,1.29,1.17.45.38.92.74,1.43,1.04.32.18.67.41,1.05.29.54-.14.81-.81.52-1.29Z"/>
      <path class="cls-19" d="m136,184.56c-1.14-.45-2.31-1.05-3.55-1.07-.94.09-1.02,1.47-.12,1.71,1.25.14,2.51.85,3.1.98.93.16,1.38-1.16.56-1.62Z"/>
      <path class="cls-19" d="m156.41,200.97c-.67-1-1.3-2.04-2.14-2.91-.84-.86-1.91-1.43-3-1.94-.15-.05-.65-.41-.79-.5-2.08-1.6-3.5-3.9-5.58-5.49-.42-.27-.89-.66-1.42-.53-.73.18-.87,1.24-.21,1.6,1.53.71,3.07,2.99,4.74,4.57.78.73,1.57,1.47,2.53,1.94,2.36,1.06,2.85,1.84,4.15,3.83.22.34.45.68.69,1.01.17.24.34.51.65.58.45.13.96-.16,1.08-.61.17-.63-.43-1.05-.7-1.55Z"/>
      <path class="cls-19" d="m164.01,201.95c-.12-.41-.53-.64-.81-.94-.72-.67-1.53-1.23-2.32-1.82,0,0-.02-.01-.02-.02-.99-.78-1.86-1.7-2.68-2.66-.23-.28-.46-.57-.68-.86-.21-.23-.35-.56-.66-.66-.86-.4-1.63.76-.96,1.42.99,1.3,2.05,2.54,3.28,3.62,1.06.88,1.91,1.39,2.56,1.99.38.29.68.74,1.11.95.64.32,1.39-.36,1.18-1.04Z"/>
      <path class="cls-19" d="m166.63,213.13c-.13-.46-.63-.66-.94-.98-.85-.73-1.7-1.46-2.43-2.32-.35-.43-.36-.44-.88-1.17-.11-.2-.31-.34-.52-.4-.73-.22-1.39.63-.99,1.29.94,1.42,2.13,2.63,3.43,3.71.29.24.57.49.87.72.16.16.39.26.62.26.57.01,1-.57.85-1.11Z"/>
      <path class="cls-19" d="m184.53,230.9c-.45-.58-.86-1.2-1.23-1.83-.76-1.28-1.25-2.7-1.98-3.99-.94-1.62-2.19-3.03-3.54-4.31-.84-.9-.94-1.04-1.64-2.17-.29-.49-.56-.98-.79-1.5,0,.02.02.04.03.06-.15-.33-.21-.72-.42-1.01-.55-.77-1.8-.14-1.54.77.55,1.56,1.39,3.02,2.43,4.31.73.89,1.64,1.62,2.38,2.5.46.57.98,1.19,1.59,2.24.46.79.8,1.64,1.19,2.47.46.99.99,1.95,1.63,2.84.32.42.63,1.07,1.26.94.6-.04.96-.8.64-1.31Z"/>
      <path class="cls-19" d="m190.44,232.99c-.05-.2-.19-.34-.31-.49-.22-.28-.11-.12-.46-.63-.59-.9-1.06-1.87-1.47-2.86l.09.21c-.61-1.35-1.01-2.9-2.04-4-.73-.6-1.77.32-1.29,1.13,1.09,1.56,1.17,2.4,1.99,4.16.28.65.61,1.28.98,1.89.22.37.47.72.74,1.06.18.21.32.49.6.58.64.32,1.39-.36,1.18-1.04Z"/>
      <path class="cls-26" d="m205.24,259.24c-1.5.7-3.28.37-4.73-.29-.31-.17-.64-.37-.9-.63.37-.75.89-1.45,1-2.26,0,0,.02.01.02.02.25.3.8.65,1.31.81.7.29,2.14.28,2.59.18.16-.03.33-.05.49-.09.08.75.16,1.5.22,2.25Z"/>
      <path class="cls-6" d="m204.69,183.13c-.94-.62-1.61-1.58-1.83-2.69-.44-2.21-1.6-4.28-3.42-5.6-1.66-1.2-3.87-1.67-5.84-1.22-1.33.3-2.72-.02-3.75-.92-1.63-1.43-3.89-2.17-6.05-1.84-2.04.31-3.89,1.57-5.04,3.28-.76,1.14-2,1.85-3.36,1.92-.41.02-.83.1-1.22.22-1.8.54-3.37,1.85-4.22,3.53-.61,1.21-.85,2.61-.65,4.01.15,1.04-.07,2.09-.67,2.95-1.03,1.47-1.75,3.16-1.92,4.94-.23,2.35.57,4.86,2.36,6.41.25.21.51.41.69.68.23.35.29.77.35,1.18.16,1.1.37,2.23.98,3.16.7,1.09,1.85,1.79,2.97,2.45.67.39,1.35.78,2.1.94.18.04.36.06.55.07,1.16.03,2.21.63,2.95,1.52.67.8,1.5,1.46,2.43,1.92,1.68.82,3.69.97,5.47.4.3-.1.6-.22.9-.37,1.13-.59,2.46-.62,3.66-.18,1.58.58,3.39.58,4.94-.08,1.71-.73,3.06-2.23,3.68-3.98.34-.97,1.04-1.79,1.95-2.26,1.46-.76,2.53-2.4,3.08-4.03.33-.97.55-1.99.43-3-.03-.24-.07-.47-.14-.7-.37-1.26-.16-2.61.58-3.69.86-1.27,1.28-2.84,1.08-4.36-.23-1.85-1.37-3.55-3.06-4.66Z"/>
      <path class="cls-12" d="m194.01,185.54c-1.49-.69-3.15-1.03-4.79-.79-2.1.19-4.13,1.09-5.56,2.65-1.28,1.32-2.22,3.22-1.8,5.08.3,2.03,2.08,3.44,3.91,4.09,1.13.29,2.35.18,3.45-.2.97-.32,1.96-.77,2.58-1.61,1.1-1.4.66-3.22-.8-4.16-1.04-.71-2.62-.67-2.72.86,0,.69.56,1.27,1.23,1.32h0s.08.05.11.07c.04.04.09.08.13.12.01.02.02.04.03.05,0,.02-.01.04-.02.06-.02.04-.04.07-.06.1-.11.14-.15.19-.73.48-.01,0-.02.01-.04.02-1.09.38-.95.35-1.75.43-.16,0-.31,0-.47-.03-.08-.01-.15-.03-.23-.06-.22-.1-.44-.21-.66-.32-.42-.25-.25-.09-.96-.77,0,0-.01-.01-.02-.02-.08-.11-.17-.23-.23-.35-.08-.18-.08-.15-.22-.83,0-.17,0-.33,0-.5.05-.2.11-.4.19-.6.09-.18.3-.62.41-.76.38-.51.28-.39,1.11-1.19.03-.03.06-.05.09-.07.37-.27.76-.54,1.19-.72.07-.03.14-.06.21-.1.1-.04.19-.07.29-.1,1.28-.33.84-.27,1.88-.38.43-.03.87-.02,1.3.02,2.68.48,4.55,2.25,5.02,3.37.93,1.93.31,4.4-1.01,6.15-2.1,2.45-4.48,3.57-6.55,3.79-1.57.07-1.55.03-3.28-.35-1.7-.48-1.71-.49-3.09-1.28-.76-.42-1.47-.92-2.18-1.43-.01,0-.02-.02-.04-.03-.65-.51-1.24-1.09-1.75-1.74-.33-.47-.63-.96-.87-1.48-.03-.07-.06-.12-.07-.16-.18-.46-.32-.94-.4-1.43,0-.01,0-.03,0-.04-.06-.71-.04-1.43.05-2.13.06-.33.13-.66.21-.98.37-1.21.3-.91.67-1.69.81-1.38.81-1.37,2.01-2.59,1.5-1.46,2.51-2.16,3.88-2.64.94-.31,1.88-.59,2.86-.77.18-.03.37-.07.55-.1.05,0,.12-.01.19-.02.34-.03.68-.06,1.02-.06.28.04.57.07.82-.08,1.32-.51.9-2.53-.51-2.52-1.24-.11-2.49.17-3.69.43-1.33.34-2.66.74-3.86,1.42-3.13,1.97-5.94,4.92-6.66,8.65-.26,1.39-.32,2.83,0,4.22.58,2.28,2.02,4.31,3.89,5.72,1.57,1.19,3.27,2.29,5.14,2.93,2.14.69,4.45,1.08,6.67.53,2.86-.65,5.66-2.65,7.38-5.01,3.2-4.79,1.75-10.28-3.45-12.5Z"/>
      <g>
        <path class="cls-21" d="m130,247.5c-.05.43-.12.88-.37,1.24-.17.25-.4.43-.67.56-.38.19-.84.28-1.26.35-1.47.23-2.96.34-4.45.33-.51,0-1.04-.02-1.51-.23-.97-.44-1.4-1.57-1.65-2.61-.53-2.25-.63-4.59-.3-6.88.13-.88.65-1.53,1.24-1.95.58-.42,1.29-.63,2-.78,1.07-.22,2.17-.3,3.26-.25.51.03,1.03.09,1.51.26.29.1.57.25.81.44.53.43.83,1.08,1.06,1.72.85,2.48.67,5.19.33,7.8Z"/>
        <path class="cls-22" d="m130,247.5c-.05.43-.12.88-.37,1.24-.17.25-.4.43-.67.56-1.62-1.48-2.36-3.75-2.37-5.95,0-1.99.52-3.93,1.2-5.8.29.1.57.25.81.44.53.43.83,1.08,1.06,1.72.85,2.48.67,5.19.33,7.8Z"/>
        <path class="cls-21" d="m147.23,234.95c-.37,1.83-.92,3.63-1.62,5.37-.37.91-.84,1.87-1.72,2.3-.35.18-.74.25-1.14.27-.4.02-.81-.03-1.21-.08-.9-.13-1.79-.3-2.67-.52-.56-.14-1.13-.32-1.55-.72-.57-.55-.72-1.4-.78-2.19-.27-3.35.41-6.77,1.93-9.77.43-.85,1.74-.85,2.68-.86.94-.01,1.87.22,2.78.46.83.22,1.71.45,2.37.98.09.07.17.15.25.23,1.11,1.14.99,2.98.68,4.54Z"/>
        <path class="cls-22" d="m147.23,234.95c-.37,1.83-.92,3.63-1.62,5.37-.37.91-.84,1.87-1.72,2.3-.35.18-.74.25-1.14.27-.11-.56-.16-1.12-.19-1.69-.16-3.96,1.2-7.96,3.74-11.01.09.07.17.15.25.23,1.11,1.14.99,2.98.68,4.54Z"/>
        <path class="cls-21" d="m174.85,226.54c-.49,2.78-1.67,5.45-3.41,7.68-.27.34-.57.69-.99.79-.3.07-.61,0-.91-.06-1.45-.33-2.88-.75-4.28-1.25-.31-.11-.63-.23-.9-.41-.18-.13-.34-.28-.45-.47-.25-.42-.22-.95-.17-1.44.4-3.56,1.89-6.98,4.21-9.7.16-.19.45-.23.78-.2.45.04.98.22,1.4.36,1.05.34,2.08.75,3.07,1.23.52.25,1.04.53,1.37,1,.49.7.42,1.63.27,2.48Z"/>
        <path class="cls-22" d="m166.2,231.18c-.5.79-1.08,1.56-1.83,2.1-.18-.13-.34-.28-.45-.47-.25-.42-.22-.95-.17-1.44.4-3.56,1.89-6.98,4.21-9.7.16-.19.45-.23.78-.2.44,3.37-.7,6.83-2.54,9.71Z"/>
        <path class="cls-21" d="m185.42,243.99c-.06.26-.2.5-.36.72-.1.13-.21.26-.31.39-1,1.17-2.08,2.27-3.23,3.29-.41.36-.85.71-1.38.8-.47.08-.95-.07-1.4-.25-2.72-1.06-5.01-3.18-6.27-5.8-.18-.37-.34-.76-.31-1.17.03-.47.31-.87.59-1.25,1.09-1.48,2.35-2.84,3.73-4.06.18-.16.41-.25.67-.3.68-.12,1.54.09,2.25.32.97.32,1.81.94,2.57,1.62,1.21,1.09,2.23,2.39,3.02,3.81.32.57.6,1.23.45,1.87Z"/>
        <path class="cls-22" d="m185.42,243.99c-.06.26-.2.5-.36.72-3.84-1.14-6.98-4.45-7.93-8.35.68-.12,1.54.09,2.25.32.97.32,1.81.94,2.57,1.62,1.21,1.09,2.23,2.39,3.02,3.81.32.57.6,1.23.45,1.87Z"/>
        <path class="cls-21" d="m209.07,255.04c-.11.3-.23.61-.46.84-.22.22-.52.35-.82.46-1.38.51-2.85.8-4.32.85-.83.03-1.69-.03-2.41-.44-.82-.46-1.35-1.31-1.78-2.14-.56-1.08-1.01-2.2-1.35-3.37-.41-1.4-.7-2.92-.31-4.34.16-.59.47-1.17.9-1.65.43-.49.98-.88,1.63-1.13.11-.04.12-.19,0-.24-.74-.34-1.5-.73-2.13-1.22-.71-.55-1.26-1.23-1.44-2.1-.21-1.01.13-2.05.5-3.02.75-1.97,1.62-3.9,2.59-5.77.15-.28.3-.57.55-.77.3-.24.69-.32,1.06-.37.21-.03.43-.05.65-.06,2.25-.14,4.56.59,6.44,1.86.23.15.4.39.44.66.55,3.3-.34,6.83-2.4,9.46-.05.06,0,.14.08.13.55-.07,1.13.24,1.48.68.4.5.59,1.14.75,1.77.84,3.25,1.43,6.73.35,9.91Z"/>
        <path class="cls-22" d="m198.74,241.73c-.21.32-.45.65-.72.93-.71-.55-1.26-1.23-1.44-2.1-.21-1.01.13-2.05.5-3.02.75-1.97,1.62-3.9,2.59-5.77.15-.28.3-.57.55-.77.3-.24.69-.32,1.06-.37.21-.03.43-.05.65-.06.09,3.93-1.03,7.88-3.19,11.17Z"/>
        <path class="cls-22" d="m201.16,256.54c-.03.07-.06.14-.09.2-.82-.46-1.35-1.31-1.78-2.14-.56-1.08-1.01-2.2-1.35-3.37-.41-1.4-.7-2.92-.31-4.34.16-.59.47-1.17.9-1.65,1.02.73,2.03,1.53,2.62,2.63.61,1.16.68,2.52.69,3.83.02,1.64-.05,3.32-.67,4.83Z"/>
        <path class="cls-22" d="m205.99,242.12c-.21-.71-.87-.69-1.47-.57-.83.1-1.64.32-2.45.54-.45.15-1.03.2-1.29.64-.41.64.26,1.52.99,1.29,1.13-.4,2.91-.77,3.38-.79.57.01,1-.57.85-1.11Z"/>
        <path class="cls-21" d="m227.16,241.31c-.29.53-.83.86-1.34,1.18-1.51.92-3.09,1.86-4.86,1.99-.12,0-.24.01-.36.01-.58,0-1.15-.12-1.63-.43-.55-.36-.91-.93-1.22-1.51-1.47-2.64-2.39-5.59-2.69-8.6-.07-.76.29-1.37.69-1.83.05-.05.09-.11.14-.16.44-.47,1.02-.77,1.6-1.05,1.7-.81,3.49-1.51,5.37-1.6.62-.03,1.29.02,1.79.38.41.31.66.79.87,1.26,1.22,2.74,1.89,5.73,1.93,8.73,0,.55,0,1.13-.28,1.62Z"/>
        <path class="cls-22" d="m220.65,243.85c0,.21-.01.43-.05.64-.58,0-1.15-.12-1.63-.43-.55-.36-.91-.93-1.22-1.51-1.47-2.64-2.39-5.59-2.69-8.6-.07-.76.29-1.37.69-1.83,1.08.84,1.91,1.98,2.53,3.21.77,1.52,1.24,3.18,1.69,4.83.34,1.21.68,2.44.68,3.69Z"/>
        <path class="cls-21" d="m233.79,258.9c-.02.59-.09,1.21-.37,1.73-.45.83-1.35,1.3-2.23,1.65-1.45.59-2.98,1.03-4.53,1.29-.58.1-1.21.16-1.77.04-.25-.05-.48-.14-.7-.29-.49-.32-.8-.85-1.07-1.38-1.45-2.89-2-6.23-1.57-9.44.07-.52.26-.96.53-1.34.51-.73,1.31-1.23,2.08-1.6.93-.45,1.9-.84,2.88-1.17.49-.17,1.01-.32,1.53-.23.63.11,1.13.56,1.57,1.02,2.43,2.59,3.77,6.17,3.65,9.72Z"/>
        <path class="cls-22" d="m225.05,263.12c-.04.16-.09.33-.15.49-.25-.05-.48-.14-.7-.29-.49-.32-.8-.85-1.07-1.38-1.45-2.89-2-6.23-1.57-9.44.07-.52.26-.96.53-1.34,2.85,3.17,4.02,7.81,2.96,11.95Z"/>
        <path class="cls-21" d="m248.83,246.68c-.04.51-.11,1.03-.33,1.49-.59,1.21-2.07,1.65-3.39,1.96-.83.2-1.67.4-2.5.59-.5.12-1.02.24-1.53.18-.41-.05-.77-.2-1.1-.41-.67-.44-1.19-1.16-1.58-1.89-1.4-2.6-1.87-5.69-1.3-8.58.12-.59.29-1.2.65-1.69.1-.13.22-.23.36-.3.37-.2.87-.26,1.44-.49,1.68-.7,3.49-1.09,5.31-1.11.39,0,.8,0,1.16.16.64.27,1.01.93,1.3,1.56,1.22,2.65,1.74,5.62,1.52,8.53Z"/>
        <path class="cls-22" d="m239.98,250.49c-.67-.44-1.19-1.16-1.58-1.89-1.4-2.6-1.87-5.69-1.3-8.58.12-.59.29-1.2.65-1.69.1-.13.22-.23.36-.3,1.33,1.5,2.04,3.52,2.26,5.53.25,2.3-.07,4.62-.39,6.92Z"/>
        <path class="cls-21" d="m268.59,251c-.02.86-.03,1.72-.16,2.57-.46,3.02-2.31,5.61-4.2,8.01-.3.38-.63.78-1.09.92-.18.05-.36.07-.54.05-.3-.02-.6-.11-.88-.21-2.17-.73-4.26-1.71-6.2-2.93-.15-.09-.3-.19-.4-.34-.15-.21-.16-.48-.17-.74-.09-3.93,1.31-7.87,3.85-10.87.87-1.03,2.52-.76,3.78-.42,1.42.38,2.81.85,4.16,1.41.35.14.72.31,1.03.53.29.21.54.46.68.79.16.38.16.81.15,1.22Z"/>
        <path class="cls-22" d="m268.59,251c-.02.86-.03,1.72-.16,2.57-.46,3.02-2.31,5.61-4.2,8.01-.3.38-.63.78-1.09.92-.18.05-.36.07-.54.05-.45-2.58.04-5.28,1.1-7.68.97-2.19,2.42-4.14,4.07-5.89.29.21.54.46.68.79.16.38.16.81.15,1.22Z"/>
      </g>
      <path class="cls-11" d="m336.52,415.83c-.04.77-.08,1.55-.13,2.32-.02.29-.03.59-.05.88-6.03,3.58-12.5,6.16-18.35,8.27-15.96,5.76-32.71,9.94-49.8,12.41-12.47,1.81-25.15,2.72-37.85,2.72-4.48,0-8.96-.11-13.43-.34-17.15-.87-34.23-3.41-50.78-7.55-14.48-3.63-28.57-8.48-42-14.48-.16-1.03-.31-2.06-.45-3.09,13.75,6.25,28.22,11.29,43.09,15.01,16.38,4.1,33.29,6.62,50.27,7.48,16.98.86,34.06.07,50.77-2.35,16.91-2.45,33.5-6.59,49.28-12.29,6.22-2.25,13.17-5.03,19.43-8.99Z"/>
      <path class="cls-20" d="m56.27,14.88c-.3,0-.59-.15-.75-.42l-5.66-9.36c-.25-.41-.12-.95.3-1.21.41-.25.95-.12,1.21.3l5.66,9.36c.25.41.12.95-.3,1.21-.14.09-.3.13-.45.13Z"/>
      <path class="cls-20" d="m62.35,24.9c-.3,0-.58-.15-.75-.42l-3.91-6.41c-.25-.41-.12-.95.29-1.21.41-.25.95-.12,1.21.29l3.91,6.41c.25.41.12.95-.29,1.21-.14.09-.3.13-.46.13Z"/>
      <path class="cls-20" d="m57.2,22.85c-.29,0-.58-.15-.74-.41l-5.88-9.35c-.26-.41-.13-.95.28-1.21.41-.26.95-.13,1.21.28l5.88,9.35c.26.41.13.95-.28,1.21-.15.09-.31.13-.47.13Z"/>
      <path class="cls-20" d="m20.78,33.17c-.29,0-.58-.14-.74-.41-1.65-2.61-3.43-5.17-5.3-7.62-.29-.39-.22-.94.17-1.23.39-.29.94-.22,1.23.17,1.9,2.49,3.71,5.1,5.39,7.75.26.41.14.95-.27,1.21-.15.09-.31.14-.47.14Z"/>
      <path class="cls-20" d="m26.59,42.08c-.28,0-.56-.14-.73-.39l-3.64-5.42c-.27-.4-.16-.95.24-1.22.4-.27.95-.16,1.22.24l3.64,5.42c.27.4.16.95-.24,1.22-.15.1-.32.15-.49.15Z"/>
      <path class="cls-20" d="m22.36,40.76c-.29,0-.58-.15-.75-.41-1.71-2.74-3.57-5.43-5.54-7.98-.3-.38-.22-.94.16-1.23.38-.3.94-.22,1.23.16,2,2.6,3.9,5.34,5.64,8.13.26.41.13.95-.28,1.21-.14.09-.3.13-.46.13Z"/>
      <path class="cls-10" d="m81.54,58.52c-.3,0-.59-.16-.76-.43l-6.83-11.66c-.25-.42-.1-.96.31-1.2.42-.25.96-.1,1.2.31l6.83,11.66c.25.42.1.96-.31,1.2-.14.08-.29.12-.44.12Z"/>
      <path class="cls-10" d="m89,71.07c-.29,0-.58-.15-.74-.41l-4.91-7.8c-.26-.41-.14-.95.28-1.21.41-.26.95-.14,1.21.27l4.91,7.8c.26.41.14.95-.28,1.21-.15.09-.31.14-.47.14Z"/>
      <path class="cls-10" d="m83.19,68.71c-.29,0-.58-.15-.75-.42l-7.34-11.93c-.25-.41-.13-.95.29-1.21.41-.25.95-.13,1.21.29l7.34,11.93c.25.41.13.95-.29,1.21-.14.09-.3.13-.46.13Z"/>
      <path class="cls-10" d="m121.01,124.24c-.29,0-.58-.15-.75-.42l-5.67-9.21c-.25-.41-.13-.95.29-1.21.41-.25.95-.13,1.21.29l5.67,9.21c.25.41.13.95-.29,1.21-.14.09-.3.13-.46.13Z"/>
      <path class="cls-10" d="m128.64,136.52c-.29,0-.57-.14-.74-.4l-5.58-8.56c-.26-.41-.15-.95.26-1.21.41-.26.95-.15,1.21.26l5.58,8.56c.26.41.15.95-.26,1.21-.15.1-.31.14-.48.14Z"/>
      <path class="cls-10" d="m121.3,132.42c-.3,0-.59-.15-.75-.42l-5.49-9.02c-.25-.41-.12-.95.29-1.21.41-.25.95-.12,1.21.29l5.49,9.02c.25.41.12.95-.29,1.21-.14.09-.3.13-.46.13Z"/>
      <path class="cls-10" d="m74.75,114.72c-.28,0-.55-.13-.72-.38l-7.92-11.43c-.28-.4-.18-.95.22-1.22.4-.28.95-.18,1.22.22l7.92,11.43c.28.4.18.95-.22,1.22-.15.11-.33.16-.5.16Z"/>
      <path class="cls-10" d="m82.83,126.6c-.29,0-.57-.14-.74-.4l-5.84-8.94c-.27-.41-.15-.95.25-1.22.41-.26.95-.15,1.21.25l5.84,8.94c.27.41.15.95-.25,1.22-.15.1-.31.14-.48.14Z"/>
      <path class="cls-10" d="m76.31,123.35c-.27,0-.53-.12-.7-.35l-7.18-9.54c-.29-.39-.21-.94.17-1.23.39-.29.94-.21,1.23.17l7.18,9.54c.29.39.21.94-.17,1.23-.16.12-.34.18-.53.18Z"/>
      <path class="cls-20" d="m257.31,142.91c-.38,0-.73-.25-.84-.63-.52-1.76-1.3-3.41-2.32-4.93-.27-.4-.16-.95.24-1.22.4-.27.95-.16,1.22.24,1.12,1.67,1.98,3.49,2.55,5.42.14.46-.13.95-.59,1.09-.08.02-.17.04-.25.04Z"/>
      <path class="cls-20" d="m257.88,154.39c-.07,0-.15,0-.22-.03-.47-.12-.75-.6-.63-1.07.64-2.45.74-5.05.28-7.54-.09-.48.23-.93.71-1.02.48-.09.93.23,1.02.71.5,2.74.39,5.61-.31,8.3-.1.39-.46.66-.85.66Z"/>
      <path class="cls-20" d="m254.69,150.77c-.07,0-.15,0-.22-.03-.47-.12-.75-.6-.63-1.07.74-2.86.29-5.96-1.22-8.5-.25-.42-.11-.96.31-1.2.42-.25.96-.11,1.2.31,1.75,2.94,2.26,6.52,1.41,9.83-.1.4-.46.66-.85.66Z"/>
      <path class="cls-20" d="m333.49,162.35c-.39,0-.74-.26-.85-.65-.52-1.93-1.49-3.75-2.8-5.26-.32-.37-.28-.92.09-1.24.37-.32.92-.28,1.24.09,1.48,1.71,2.58,3.77,3.17,5.95.13.47-.15.95-.62,1.08-.08.02-.15.03-.23.03Z"/>
      <path class="cls-20" d="m335.9,172.25s0,0-.01,0c-.48,0-.87-.4-.87-.89.03-2.26-.4-4.56-1.24-6.66-.18-.45.04-.96.49-1.14s.96.04,1.14.49c.92,2.31,1.39,4.85,1.36,7.33,0,.48-.4.87-.88.87Z"/>
      <path class="cls-20" d="m332.17,170.52h0c-.48,0-.88-.4-.87-.88.02-2.83-.71-5.62-2.1-8.08-.24-.42-.09-.96.33-1.2.42-.24.96-.09,1.2.33,1.54,2.73,2.35,5.82,2.33,8.96,0,.48-.4.87-.88.87Z"/>
      <path class="cls-1" d="m338.16,129.39c-.33,0-.65-.19-.8-.51-1.2-2.63-2.96-5.05-5.08-7.01-.36-.33-.38-.88-.05-1.24.33-.36.88-.38,1.24-.05,2.29,2.12,4.19,4.74,5.49,7.57.2.44,0,.96-.43,1.16-.12.05-.24.08-.36.08Z"/>
      <path class="cls-1" d="m344.53,142.79c-.37,0-.71-.23-.83-.6-1.13-3.42-2.66-6.72-4.53-9.8-.25-.41-.12-.95.29-1.21.41-.25.95-.12,1.21.29,1.94,3.19,3.52,6.61,4.7,10.16.15.46-.1.96-.56,1.11-.09.03-.18.04-.28.04Z"/>
      <path class="cls-1" d="m339.53,139.98c-.38,0-.73-.25-.84-.63-1.16-3.89-3.21-7.55-5.93-10.56-.32-.36-.3-.91.06-1.24.36-.32.91-.3,1.24.06,2.9,3.21,5.08,7.1,6.31,11.24.14.46-.13.95-.59,1.09-.08.02-.17.04-.25.04Z"/>
      <path class="cls-1" d="m276.18,114.28c-.39,0-.75-.26-.85-.66-.76-2.93-2.19-5.69-4.15-8-.31-.37-.27-.92.1-1.24.37-.31.92-.27,1.24.1,2.13,2.51,3.69,5.51,4.51,8.7.12.47-.16.95-.63,1.07-.07.02-.15.03-.22.03Z"/>
      <path class="cls-1" d="m277.28,128.23s-.08,0-.12,0c-.48-.07-.81-.51-.75-.99.45-3.2.33-6.42-.35-9.57-.1-.47.2-.94.67-1.04.47-.1.94.2,1.04.67.73,3.36.85,6.79.37,10.19-.06.44-.44.76-.87.76Z"/>
      <path class="cls-1" d="m273.18,123.52s-.08,0-.13,0c-.48-.07-.81-.51-.74-.99.51-3.55-.03-7.31-1.52-10.57-.2-.44,0-.96.43-1.16.44-.2.96,0,1.16.43,1.63,3.57,2.23,7.67,1.67,11.55-.06.44-.44.75-.87.75Z"/>
      <path class="cls-1" d="m272.15,218.17c-.15,0-.29-.04-.43-.11-.42-.24-.57-.77-.33-1.2.72-1.27.76-2.95.11-4.25-.22-.43-.04-.96.39-1.18.43-.22.96-.04,1.18.4.92,1.84.86,4.1-.15,5.9-.16.29-.46.45-.77.45Z"/>
      <path class="cls-1" d="m270.6,204.6s-.09,0-.13,0c-.48-.07-.81-.52-.74-1,.24-1.62-.57-3.34-1.96-4.2-.41-.25-.54-.79-.29-1.21.25-.41.79-.54,1.21-.29,1.97,1.21,3.11,3.66,2.77,5.95-.06.44-.44.75-.87.75Z"/>
      <path class="cls-1" d="m262.65,196.47c-.33,0-.65-.19-.8-.51-.46-1.01-1.64-1.69-2.75-1.58-.48.05-.91-.31-.96-.79-.05-.48.31-.91.79-.96,1.85-.18,3.75.91,4.52,2.6.2.44,0,.96-.43,1.16-.12.05-.24.08-.36.08Z"/>
      <path class="cls-1" d="m199.79,180.46c-.34,0-.67-.2-.81-.54-.62-1.5-2.07-2.62-3.68-2.85-.48-.07-.81-.51-.74-.99.07-.48.51-.81.99-.74,2.21.32,4.2,1.85,5.05,3.92.19.45-.03.96-.47,1.15-.11.05-.22.07-.34.07Z"/>
      <path class="cls-1" d="m204.67,191.25c-.06,0-.11,0-.17-.02-.48-.09-.78-.56-.69-1.03.29-1.47-.19-3.12-1.24-4.2-.34-.35-.33-.9.02-1.24.35-.34.9-.33,1.24.02,1.46,1.5,2.12,3.71,1.71,5.77-.08.42-.45.71-.86.71Z"/>
      <path class="cls-1" d="m181.8,175.07c-.28,0-.55-.13-.72-.37-.28-.4-.18-.94.21-1.22,1.71-1.21,4.07-1.3,5.87-.23.42.25.55.79.3,1.2s-.79.55-1.2.3c-1.2-.71-2.83-.65-3.96.15-.15.11-.33.16-.51.16Z"/>
      <path class="cls-19" d="m362.03,196.56c-.06,0-.11,0-.17-.02-1.56-.31-3.17-.41-4.76-.31-.48.03-.9-.34-.93-.82-.03-.48.34-.9.82-.93,1.74-.11,3.49.01,5.2.34.48.09.79.55.69,1.03-.08.42-.45.71-.86.71Z"/>
      <path class="cls-19" d="m367.45,198.12c-.1,0-.21-.02-.31-.06l-2.33-.88c-.45-.17-.68-.68-.51-1.13.17-.45.68-.68,1.13-.51l2.33.88c.45.17.68.68.51,1.13-.13.35-.47.57-.82.57Z"/>
      <path class="cls-19" d="m361.7,208.45c-.12,0-.24-.02-.35-.07-1.7-.75-3.58-1.09-5.43-.98-.48.03-.9-.34-.93-.83-.03-.48.34-.9.83-.93,2.13-.12,4.29.27,6.24,1.12.44.19.65.71.45,1.16-.14.33-.47.53-.8.53Z"/>
      <path class="cls-19" d="m379.54,203.87c-.12,0-.25-.03-.37-.08-1.79-.83-3.78-1.23-5.75-1.16-.48.02-.89-.36-.91-.85s.36-.89.85-.91c2.25-.08,4.51.37,6.55,1.32.44.2.63.72.43,1.17-.15.32-.47.51-.8.51Z"/>
      <path class="cls-19" d="m394.57,208.2c-.14,0-.28-.03-.42-.11-1.2-.64-2.49-1.07-3.83-1.26-.48-.07-.81-.51-.75-.99.07-.48.51-.81.99-.75,1.55.22,3.04.71,4.42,1.45.43.23.59.76.36,1.19-.16.29-.46.46-.77.46Z"/>
      <path class="cls-19" d="m389.41,219.8c-.08,0-.15,0-.23-.03-1.55-.42-3.16-.58-4.76-.48-.48.03-.9-.34-.93-.82-.03-.48.34-.9.82-.93,1.8-.11,3.59.07,5.33.53.47.13.75.61.62,1.07-.1.39-.46.65-.85.65Z"/>
      <path class="cls-19" d="m395.24,221.95c-.16,0-.32-.04-.47-.14-.91-.58-1.89-1.04-2.92-1.37-.46-.15-.71-.64-.57-1.11.15-.46.64-.71,1.11-.57,1.17.38,2.28.9,3.32,1.56.41.26.53.8.27,1.21-.17.26-.45.41-.74.41Z"/>
      <path class="cls-19" d="m344.94,192.31c-.09,0-.17-.01-.26-.04-1.33-.41-2.77-.56-4.15-.43-.48.05-.91-.31-.96-.79-.05-.48.31-.91.79-.96,1.62-.16,3.29.01,4.85.5.46.14.72.64.58,1.1-.12.38-.46.62-.84.62Z"/>
      <path class="cls-19" d="m349.86,192.94s-.08,0-.13,0l-1.98-.28c-.48-.07-.81-.51-.74-.99.07-.48.51-.81.99-.74l1.98.28c.48.07.81.51.74.99-.06.44-.44.75-.87.75Z"/>
      <path class="cls-19" d="m344.38,201.74c-.37,0-.71-.23-.83-.6-.15-.46.1-.96.56-1.11,1.28-.42,2.66-.5,3.99-.23.47.1.78.56.68,1.04-.1.47-.56.78-1.04.68-1.02-.21-2.09-.15-3.08.18-.09.03-.18.04-.28.04Z"/>
      <path class="cls-4" d="m317.21,64.9c-.05,0-.11,0-.17-.02l-11.68-2.24c-.48-.09-.79-.55-.7-1.03.09-.48.55-.79,1.03-.7l11.68,2.24c.48.09.79.55.7,1.03-.08.42-.45.71-.86.71Z"/>
      <path class="cls-4" d="m336.87,70.38c-.1,0-.2-.02-.3-.05-5.1-1.85-10.39-3.31-15.71-4.36-.48-.09-.79-.55-.69-1.03.09-.48.55-.79,1.03-.69,5.41,1.06,10.78,2.55,15.97,4.43.46.17.69.67.53,1.12-.13.36-.47.58-.83.58Z"/>
      <path class="cls-4" d="m325.05,71.22c-.1,0-.2-.02-.29-.05-4.44-1.57-9.07-2.64-13.75-3.16-.48-.05-.83-.49-.77-.97s.49-.83.97-.77c4.82.54,9.57,1.64,14.14,3.25.46.16.7.66.53,1.12-.13.36-.47.58-.83.58Z"/>
      <path class="cls-4" d="m402.47,93.45c-.12,0-.24-.02-.35-.07l-10.73-4.68c-.44-.19-.65-.71-.45-1.16.19-.44.71-.65,1.16-.45l10.73,4.68c.44.19.65.71.45,1.16-.14.33-.47.53-.81.53Z"/>
      <path class="cls-4" d="m417.93,101.02c-.13,0-.26-.03-.39-.09l-11.56-5.67c-.44-.21-.62-.74-.4-1.17.21-.44.74-.61,1.17-.4l11.56,5.67c.44.21.62.74.4,1.17-.15.31-.46.49-.79.49Z"/>
      <path class="cls-4" d="m409.51,101.88c-.16,0-.33-.05-.48-.14-3.4-2.22-7.09-3.96-10.97-5.16-.46-.14-.72-.64-.58-1.1.14-.46.64-.72,1.1-.58,4.03,1.25,7.87,3.06,11.41,5.37.41.27.52.81.25,1.22-.17.26-.45.4-.74.4Z"/>
      <path class="cls-4" d="m406.97,160.87c-.07,0-.15,0-.22-.03-.47-.12-.75-.6-.63-1.07l2.07-8.08c.12-.47.6-.75,1.07-.63.47.12.75.6.63,1.07l-2.07,8.08c-.1.4-.46.66-.85.66Z"/>
      <path class="cls-4" d="m401.53,179.72c-.08,0-.16-.01-.24-.03-.47-.14-.73-.62-.6-1.09l4.38-15.11c.13-.47.62-.73,1.09-.6.47.13.73.62.6,1.09l-4.38,15.11c-.11.38-.46.63-.84.63Z"/>
      <path class="cls-4" d="m400.38,170.38c-.08,0-.16-.01-.24-.03-.47-.13-.74-.61-.61-1.08l3.86-13.78c.13-.47.61-.74,1.08-.61.47.13.74.61.61,1.08l-3.86,13.78c-.11.39-.46.64-.84.64Z"/>
      <path class="cls-4" d="m282.71,96.2c-.06,0-.12,0-.18-.02-.48-.1-.78-.56-.69-1.04l1.48-7.26c.1-.48.56-.78,1.04-.69.48.1.78.56.69,1.04l-1.48,7.26c-.08.42-.45.7-.86.7Z"/>
      <path class="cls-4" d="m280.83,106.62c-.06,0-.12,0-.18-.02-.47-.1-.78-.56-.68-1.04l1.47-7.08c.1-.47.56-.78,1.04-.68.47.1.78.56.68,1.04l-1.47,7.08c-.09.41-.45.7-.86.7Z"/>
      <path class="cls-4" d="m285.22,102.49s-.09,0-.13-.01c-.48-.07-.81-.52-.73-1l1.21-7.88c.07-.48.52-.81,1-.73.48.07.81.52.73,1l-1.21,7.88c-.07.43-.44.74-.87.74Z"/>
      <path class="cls-10" d="m296.57,210.99c-1.16.03-1.15,1.72,0,1.76,1.16-.03,1.15-1.72,0-1.76Z"/>
      <path class="cls-10" d="m299.87,213.58c-1.16.03-1.15,1.72,0,1.76,1.16-.03,1.15-1.72,0-1.76Z"/>
      <path class="cls-10" d="m296.33,214.53c-1.16.03-1.15,1.72,0,1.76,1.16-.03,1.15-1.72,0-1.76Z"/>
      <path class="cls-10" d="m285.01,241.9c-1.16.03-1.15,1.72,0,1.76,1.16-.03,1.15-1.72,0-1.76Z"/>
      <path class="cls-10" d="m288.31,244.73c-1.16.03-1.15,1.72,0,1.76,1.16-.03,1.15-1.72,0-1.76Z"/>
      <path class="cls-10" d="m285.48,245.91c-1.16.03-1.15,1.72,0,1.76,1.16-.03,1.15-1.72,0-1.76Z"/>
      <path class="cls-10" d="m211.34,195.48c-1.16.03-1.15,1.72,0,1.76,1.16-.03,1.15-1.72,0-1.76Z"/>
      <path class="cls-10" d="m211.1,199.25c-1.16.03-1.15,1.72,0,1.76,1.16-.03,1.15-1.72,0-1.76Z"/>
      <path class="cls-10" d="m214.87,196.18c-1.16.03-1.15,1.72,0,1.76,1.16-.03,1.15-1.72,0-1.76Z"/>
      <path class="cls-10" d="m199.3,150.65c-1.16.03-1.15,1.72,0,1.76,1.16-.03,1.15-1.72,0-1.76Z"/>
      <path class="cls-10" d="m200.72,153.72c-1.16.03-1.15,1.72,0,1.76,1.16-.03,1.15-1.72,0-1.76Z"/>
      <path class="cls-10" d="m196,152.3c-1.16.03-1.15,1.72,0,1.76,1.16-.03,1.15-1.72,0-1.76Z"/>
      <path class="cls-10" d="m45.18,209.46c-1.16.03-1.15,1.72,0,1.76,1.16-.03,1.15-1.72,0-1.76Z"/>
      <path class="cls-10" d="m46.59,212.52c-1.16.03-1.15,1.72,0,1.76,1.16-.03,1.15-1.72,0-1.76Z"/>
      <path class="cls-10" d="m59.1,193.88c-1.16.03-1.15,1.72,0,1.76,1.16-.03,1.15-1.72,0-1.76Z"/>
      <path class="cls-4" d="m122.67,240.92c-.02-.31.14-.64,0-.93-.24-.66-1.28-.44-1.26.25-.09.67-.08,1.34-.07,2.01.03.39-.03.82.09,1.19.24.66,1.28.44,1.26-.25-.04-.76-.06-1.52-.02-2.28Z"/>
      <path class="cls-4" d="m139.42,230.48c-.3.97-.55,1.95-.76,2.94-.07.44-.23.89-.22,1.33.03.45.6.72.98.48.41-.24.33-.78.45-1.18.22-1.09.49-2.16.82-3.22.22-.84-1.02-1.18-1.27-.35Z"/>
      <path class="cls-4" d="m142.21,233.09c-.06-.7-1.11-.76-1.28-.09-.31.97-.47,1.98-.63,2.98-.02.26-.14.54-.01.78.15.43.76.54,1.07.21.15-.15.19-.35.2-.55.02-.14.05-.38.07-.46.11-.67.23-1.34.39-2.01.05-.29.24-.57.19-.87Z"/>
      <path class="cls-4" d="m173.64,224.68c-.24-.66-1.28-.44-1.26.25-.05.74-.25,1.74-.49,2.88-.05.39-.3.81-.09,1.18.2.37.74.43,1.03.13.25-.27.23-.67.33-1,.17-.8.33-1.61.45-2.42.02-.34.16-.71.03-1.04Z"/>
      <path class="cls-4" d="m176.62,244.3c-.51-.51-1.03-1.01-1.49-1.56-.3-.34-.16-.28-.59-.74-.55-.45-1.33.24-.97.85.58.85,1.31,1.59,2.04,2.31.21.2.41.46.73.44.75-.04.86-.91.28-1.3Z"/>
      <path class="cls-4" d="m180.1,244.37c-.72-.56-1.41-1.16-2.07-1.79-.27-.21-.46-.55-.77-.69-.64-.3-1.23.58-.72,1.07.82.85,1.71,1.62,2.63,2.35.62.6,1.53-.31.93-.93Z"/>
      <path class="cls-4" d="m207.71,247.15c-.27-.95-.61-1.9-.89-2.37-.42-.58-1.35-.11-1.15.57.32.76.47,1.09.76,2.11.16.43.17.93.41,1.32.3.44,1.03.28,1.15-.22.07-.48-.19-.95-.28-1.42Z"/>
      <path class="cls-4" d="m206.32,251.03c-.07-.43-.15-.87-.24-1.3-.17-.7-.27-1.46-.62-2.1-.42-.58-1.35-.11-1.15.57.3.83.47,1.71.64,2.58.11.37.05.82.28,1.14.3.44,1.03.28,1.15-.22.06-.23-.03-.45-.05-.68Z"/>
      <path class="cls-4" d="m207.63,233.46c-.27-.49-1.07-.39-1.2.16-.16,1.22-.14,1.55-.38,2.7-.06.32-.13.64-.2.95-.05.17-.02.36.07.51.2.37.74.43,1.03.13.24-.26.22-.65.31-.97.18-.86.31-1.73.39-2.6,0-.08.02-.23.03-.31,0-.02,0-.04,0-.05.05-.17.02-.36-.07-.51Z"/>
      <path class="cls-4" d="m224.89,233.42c-.21-.64-.43-1.28-.69-1.9-.14-.27-.19-.63-.44-.81-.55-.45-1.33.24-.97.85.17.37.49,1.18.75,2,.18.4.17.97.57,1.23.36.22.86.01.97-.39.08-.33-.12-.65-.19-.96Z"/>
      <path class="cls-4" d="m223.96,237.58c-.16-.57-.32-1.13-.49-1.69-.16-.5-.33-1-.52-1.5-.1-.22-.14-.5-.35-.64-.54-.45-1.31.23-.98.83.31.75.56,1.53.78,2.31.19.5.26,1.18.51,1.62.3.44,1.03.28,1.15-.22.07-.25-.05-.48-.1-.72Z"/>
      <path class="cls-4" d="m231.27,253.09c-.23-.61-.48-1.21-.81-1.77-.18-.28-.3-.66-.66-.75-.54-.17-1.05.48-.74.97.51.84.7,1.25.94,1.88.24.46.22,1.28.86,1.36.32.06.64-.17.72-.47.09-.42-.2-.82-.31-1.21Z"/>
      <path class="cls-4" d="m246.77,241.97c-.23-.85-.48-1.7-.79-2.53-.18-.36-.2-.86-.57-1.09-.48-.3-1.14.2-.97.74.37.94.7,1.89.96,2.87.08.28.12.6.4.75.48.3,1.14-.2.97-.74Z"/>
      <path class="cls-4" d="m259.48,248.69c-.53.69-.85,1.52-1.2,2.32-.14.34-.28.69-.41,1.03-.05.17-.02.36.07.51.27.49,1.07.39,1.2-.16.09-.24.59-1.45.44-1.1.23-.53.47-1.06.77-1.56.11-.21.34-.37.34-.62.13-.69-.87-1.03-1.22-.42Z"/>
      <path class="cls-4" d="m260.76,251.15c-.45.84-.78,1.75-1.07,2.66-.09.26-.19.56-.03.81.17.31.6.42.9.24.29-.16.33-.51.43-.79.26-.83.5-1.42.7-1.85.08-.22.26-.41.28-.65.13-.69-.87-1.03-1.22-.42Z"/>
      <path class="cls-7" d="m407.9,307.99c-.12,0-.25-.03-.37-.08-.44-.2-.63-.72-.43-1.16,3.51-7.62,6.27-15.62,8.2-23.79.11-.47.58-.76,1.06-.65.47.11.76.58.65,1.06-1.95,8.28-4.75,16.39-8.31,24.12-.15.32-.47.51-.8.51Z"/>
      <path class="cls-7" d="m396.63,331.88c-.13,0-.26-.03-.38-.09-.44-.21-.62-.74-.41-1.17l9.59-19.77c.21-.44.74-.62,1.17-.41.44.21.62.74.41,1.17l-9.59,19.77c-.15.31-.46.5-.79.5Z"/>
      <path class="cls-7" d="m396.7,321.72c-.15,0-.3-.04-.43-.11-.42-.24-.57-.78-.33-1.2,4.47-7.87,8.08-16.24,10.75-24.88.14-.46.63-.72,1.1-.58.46.14.72.63.58,1.1-2.7,8.77-6.37,17.26-10.9,25.23-.16.28-.46.44-.76.44Z"/>
      <path class="cls-7" d="m380.59,356.28c-.17,0-.34-.05-.48-.15-.4-.27-.51-.81-.25-1.22l7.15-10.78c.27-.4.81-.51,1.22-.25.4.27.51.81.25,1.22l-7.15,10.78c-.17.25-.45.39-.73.39Z"/>
      <path class="cls-7" d="m380.51,349.41c-.14,0-.29-.03-.42-.11-.43-.23-.58-.77-.35-1.19l7.2-13.16c.23-.43.77-.58,1.19-.35.43.23.58.77.35,1.19l-7.2,13.16c-.16.29-.46.46-.77.46Z"/>
      <path class="cls-7" d="m428.8,237.29s-.03,0-.04,0c-.48-.02-.86-.44-.83-.92l.59-11.93c.02-.48.44-.86.92-.83.48.02.86.44.83.92l-.59,11.93c-.02.47-.41.83-.88.83Z"/>
      <path class="cls-7" d="m424.72,243.21s-.09,0-.13-.01c-.48-.07-.81-.52-.74-1,.5-3.27.75-6.6.74-9.91,0-.48.39-.88.87-.88h0c.48,0,.88.39.88.88.01,3.4-.24,6.82-.76,10.18-.07.43-.44.75-.87.75Z"/>
      <path class="cls-2" d="m50.76,304.45c-.35,0-.68-.21-.82-.56l-4.62-11.91c-.18-.45.05-.96.5-1.14.45-.18.96.05,1.14.5l4.62,11.91c.18.45-.05.96-.5,1.14-.1.04-.21.06-.32.06Z"/>
      <path class="cls-2" d="m60.48,323.11c-.29,0-.57-.14-.74-.4-3.11-4.77-5.76-9.87-7.86-15.17-.18-.45.04-.96.49-1.14.45-.18.96.04,1.14.49,2.06,5.18,4.65,10.18,7.7,14.85.26.41.15.95-.26,1.21-.15.1-.31.14-.48.14Z"/>
      <path class="cls-2" d="m59.35,313.67c-.31,0-.61-.16-.77-.45-2.64-4.8-4.99-9.81-6.99-14.91-.18-.45.05-.96.5-1.14.45-.18.96.05,1.14.5,1.97,5.03,4.29,9.98,6.89,14.7.23.42.08.96-.35,1.19-.13.07-.28.11-.42.11Z"/>
      <path class="cls-2" d="m81.73,357.53c-.26,0-.51-.11-.69-.33-2.9-3.61-5.58-7.45-7.97-11.41-.25-.41-.12-.95.3-1.21.42-.25.95-.12,1.21.3,2.35,3.89,4.99,7.67,7.84,11.22.3.38.24.93-.14,1.23-.16.13-.36.19-.55.19Z"/>
      <path class="cls-2" d="m90.04,360.87c-.26,0-.52-.12-.69-.34l-8.57-11.05c-.3-.38-.23-.93.16-1.23s.93-.23,1.23.16l8.57,11.05c.3.38.23.93-.16,1.23-.16.12-.35.18-.54.18Z"/>
      <path class="cls-2" d="m31.69,239.63c-.43,0-.81-.32-.87-.76-.59-4.48-.93-9.04-1.01-13.56,0-.48.38-.88.86-.89.48-.01.88.38.89.86.08,4.45.41,8.95,1,13.36.06.48-.27.92-.76.99-.04,0-.08,0-.12,0Z"/>
      <path class="cls-2" d="m36.23,244.98c-.43,0-.81-.32-.87-.76l-1.38-10.57c-.06-.48.28-.92.76-.98.48-.06.92.28.98.76l1.38,10.57c.06.48-.28.92-.76.98-.04,0-.08,0-.11,0Z"/>
      <path class="cls-14" d="m208.79,154.15c-.08-.59-.52-3.97-.44-5.48-.03-1.16-1.72-1.16-1.76,0-.03,1.62.17,3.24.36,4.84.07.54.14,1.07.21,1.61.04.24.03.51.21.69.33.5,1.16.43,1.45-.09.26-.49-.02-1.05-.04-1.58Z"/>
      <path class="cls-14" d="m212.96,164.69c-.39-.56-.77-1.13-1.12-1.71-.8-1.37-1.13-2.18-1.53-3.28-.21-.5-.26-1.16-.55-1.6-.55-.77-1.8-.14-1.54.77.56,2.09,1.45,4.09,2.66,5.89.3.46.61.91.94,1.34.16.24.34.49.64.56.54.16,1.12-.28,1.11-.85,0-.45-.39-.75-.61-1.11Z"/>
      <path class="cls-14" d="m213.32,158.73c-.81-1.89-1.46-5.24-1.59-6.43,0-.42-.11-.92-.56-1.06-.54-.27-1.24.2-1.22.8.11,1.3.38,2.57.66,3.84.3,1.22.61,2.49,1.17,3.61.55.77,1.8.14,1.54-.77Z"/>
      <path class="cls-14" d="m288.58,183.2c-.37-1.1-.76-2.19-1.03-3.32-.11-.5-.13-.69-.13-.68,0-.26-.07-.53-.26-.71-.52-.55-1.52-.14-1.5.62.1,1.33.58,2.6.99,3.86.17.5.34,1.01.53,1.5.09.27.2.54.46.68.48.29,1.15.02,1.29-.52.12-.5-.23-.96-.35-1.43Z"/>
      <path class="cls-14" d="m294.24,192.34c-1.65-1.71-2.44-2.68-3.64-4.72-.2-.34-.36-.77-.78-.86-.73-.22-1.39.63-.99,1.29.86,1.6,1.92,3.08,3.13,4.43.42.46.85.91,1.29,1.36.08.09.17.15.28.18.54.28,1.24-.21,1.22-.8,0-.37-.25-.63-.51-.88Z"/>
      <path class="cls-14" d="m293.61,186.67c-.2-.34-.39-.68-.58-1.02-.58-1.05-1.13-2.13-1.59-3.24-.03-.08-.11-.26-.14-.36-.19-.41-.23-.95-.65-1.19-.65-.4-1.51.26-1.29.99.54,1.51,1.22,2.96,1.99,4.37.25.45.5.9.76,1.35.13.19.21.43.41.56.53.47,1.43,0,1.41-.69.01-.29-.17-.53-.31-.77Z"/>
      <path class="cls-15" d="m307.74,184.02c-.18-.51-.78-.87-1.12-1.3-.85-.93-.98-1.11-1.56-1.94-.19-.24-.28-.57-.54-.75-.73-.6-1.77.32-1.29,1.13.66,1.13,1.51,2.14,2.41,3.09.37.34.68.88,1.24.88.57.01,1-.57.85-1.11Z"/>
      <path class="cls-15" d="m313.97,187.44c-.71-.23-1.41-.47-2.1-.76-.15-.07-.86-.4-1.02-.5-.37-.2-.72-.41-1.07-.64-.19-.12-.36-.29-.6-.29-.93-.16-1.38,1.16-.56,1.62,1.38.96,2.95,1.63,4.54,2.15.76.23,1.78.78,2.15-.28.19-.95-.63-1.09-1.34-1.3Z"/>
      <path class="cls-15" d="m312.7,183.89c-.1-.37-.44-.55-.74-.74-.5-.33-.99-.67-1.48-1.02-.59-.44-1.04-.8-1.9-1.59-.22-.18-.35-.47-.64-.56-.86-.4-1.63.76-.96,1.42,1.18,1.26,2.61,2.28,4.04,3.24.31.21.66.46,1.06.33.45-.12.75-.63.61-1.08Z"/>
      <path class="cls-15" d="m225.19,158.14c-.36-.89-.7-1.8-.96-2.72-.13-.33-.08-.75-.32-1.03-.55-.77-1.8-.14-1.54.77.23,1.24.72,2.42,1.18,3.59.2.37.26.87.61,1.13.33.29.85.23,1.15-.07.63-.7-.11-1.42-.12-1.66Z"/>
      <path class="cls-15" d="m231.56,165.38c-.17-.57-.83-.71-1.26-1.04-.41-.26-.81-.55-1.19-.85-.01-.01-.03-.03-.06-.04-.54-.43-1.05-.9-1.5-1.42-.33-.31-.54-.79-.97-.98-.86-.4-1.63.76-.96,1.42,1.21,1.52,2.71,2.76,4.38,3.75.76.6,1.75.13,1.56-.83Z"/>
      <path class="cls-15" d="m230.01,159.83c-1.1-1.07-2.36-3.03-2.75-3.99-.34-1.11-1.97-.66-1.69.47.49,1.26,1.25,2.39,2.07,3.45.38.49.77.97,1.21,1.4.15.14.29.32.49.38.54.28,1.24-.21,1.22-.8,0-.4-.28-.66-.55-.9Z"/>
      <path class="cls-20" d="m210.2,272.06s-.02,0-.03,0c-29.23-.83-58.37-5.1-86.61-12.71-.47-.13-.75-.61-.62-1.08.13-.47.61-.75,1.08-.62,28.11,7.57,57.11,11.83,86.2,12.65.48.01.87.42.85.9-.01.48-.4.85-.88.85Z"/>
      <path class="cls-20" d="m231.86,272.72c-4.3,0-8.6-.1-12.88-.29-.48-.02-.86-.43-.84-.92.02-.48.43-.86.92-.84,12.04.54,24.24.32,36.26-.68.48-.04.91.32.95.8s-.32.91-.8.95c-7.82.65-15.72.97-23.6.97Z"/>
      <path class="cls-20" d="m269.02,270.98c-.45,0-.83-.34-.87-.8-.04-.48.32-.91.8-.95,22.91-1.99,45.88-5.68,68.27-10.96.47-.11.94.18,1.06.65.11.47-.18.94-.65,1.06-22.47,5.3-45.52,9.01-68.52,11-.03,0-.05,0-.08,0Z"/>
      <path class="cls-20" d="m344.08,258.26c-.4,0-.76-.28-.86-.68-.11-.47.19-.94.66-1.05,9.61-2.19,19.08-5.25,28.15-9.09.45-.19.96.02,1.15.47.19.45-.02.96-.47,1.15-9.17,3.88-18.74,6.97-28.44,9.18-.07.02-.13.02-.2.02Z"/>
      <path class="cls-20" d="m109.13,255.38c-.09,0-.17-.01-.26-.04-8.24-2.52-16.43-5.56-24.33-9.02-.44-.19-.65-.71-.45-1.16.19-.44.71-.65,1.16-.45,7.83,3.44,15.95,6.45,24.13,8.95.46.14.72.63.58,1.1-.12.38-.46.62-.84.62Z"/>
      <path class="cls-20" d="m157.31,124.65c-.43,0-.81-.32-.87-.76-.06-.48.27-.92.75-.99l18.05-2.39c.48-.06.92.27.99.75s-.27.92-.75.99l-18.05,2.39s-.08,0-.12,0Z"/>
      <path class="cls-20" d="m180.69,121.7c-.44,0-.81-.32-.87-.77-.06-.48.28-.92.76-.98,8.5-1.09,17.16-1.67,25.72-1.73.48,0,.88.39.88.87,0,.48-.39.88-.87.88-8.5.06-17.08.64-25.51,1.72-.04,0-.08,0-.11,0Z"/>
      <path class="cls-20" d="m59.71,156.41c-.28,0-.56-.13-.73-.39-.27-.4-.17-.95.23-1.22,5.37-3.64,11.1-6.8,17.04-9.39.44-.19.96,0,1.16.45.19.44,0,.96-.45,1.16-5.84,2.55-11.48,5.66-16.76,9.24-.15.1-.32.15-.49.15Z"/>
      <path class="cls-20" d="m43.02,170.32c-.21,0-.42-.08-.59-.23-.36-.33-.38-.88-.05-1.24,3.57-3.89,7.59-7.37,11.96-10.33.4-.27.95-.17,1.22.23.27.4.17.95-.23,1.22-4.25,2.89-8.17,6.27-11.65,10.06-.17.19-.41.28-.65.28Z"/>
    </g>
  </g>
</svg>