<?xml version="1.0" encoding="UTF-8"?>
<svg id="Calque_2" data-name="Calque 2" xmlns="http://www.w3.org/2000/svg" viewBox="0 0 239.86 309.08">
  <defs>
    <style>
      .cls-1 {
        fill: #fbd155;
      }

      .cls-2 {
        fill: #fee881;
      }

      .cls-3 {
        fill: #fff5cc;
      }

      .cls-4 {
        opacity: .41;
      }

      .cls-4, .cls-5 {
        fill: none;
      }

      .cls-6 {
        fill: #df4c33;
      }

      .cls-7 {
        fill: #ffa187;
      }

      .cls-5 {
        opacity: .54;
      }

      .cls-8 {
        fill: #f7aa4e;
      }

      .cls-9 {
        fill: #ffc7b7;
      }

      .cls-10 {
        fill: #fff0b0;
      }

      .cls-11 {
        fill: #63d39b;
      }

      .cls-12 {
        fill: #5db991;
      }

      .cls-13 {
        fill: #ff9a8d;
      }

      .cls-14 {
        fill: #fd7a56;
      }

      .cls-15 {
        fill: #cf8840;
      }

      .cls-16 {
        fill: #f3947b;
      }
    </style>
  </defs>
  <g id="Layer_1" data-name="Layer 1">
    <g id="shawarma">
      <path class="cls-12" d="m239.66,72.67c1.99-12.78-11.21-6.65-17.02-3.39,2.97-2.41,7.77-8.29,10.87-22.25,2.19-9.89-4.5-10.9-12.35-9.13-.29.07-.57.14-.86.21-8.96,2.23-19.04,7.75-19.04,7.75,0,0,9.92-14.67,1.23-31.7-8.68-17.03-28.67,20.41-28.67,20.41,0,0,10.51-25.33-1.25-33.46-11.16-7.72-20.83,27.49-21.78,31.07.55-2.33,3.78-17.9-7.99-22.8-12.74-5.3-19.44,21.79-19.44,21.79,0,0-1.52-10.93-11.36-7.99-4.37,1.3-7.41,13.12-9.45,25.87h0c-.06.36-.11.72-.17,1.07,0,0,0,.02,0,.03-.01.07-.02.15-.03.22,0,0,0,0,0,.01-2.4,15.61-3.32,32.11-3.32,32.11l86.27,41.55s5.55-3.75,13.1-9.37c15.53-11.55,39.55-31.01,41.26-41.99Zm-124.9-29.92c-2.14.1-4.02-3.04-4.2-7.01-.18-3.97,1.41-7.26,3.55-7.35,2.15-.1,4.03,3.04,4.2,7.01.18,3.97-1.42,7.26-3.56,7.36Zm34.46,10.66c-2.14.1-4.02-3.04-4.2-7.01-.18-3.97,1.41-7.26,3.55-7.35,2.15-.1,4.03,3.04,4.2,7.01.18,3.97-1.42,7.26-3.56,7.36Zm19.85-27.4c-1.92.18-3.75-2.64-4.1-6.3-.35-3.66.93-6.78,2.84-6.96,1.92-.18,3.75,2.64,4.1,6.3.34,3.66-.93,6.77-2.85,6.96Zm16.22,16.5c-2.38-1.03-2.71-5.56-.73-10.11,1.98-4.55,5.51-7.4,7.89-6.36,2.38,1.03,2.71,5.56.73,10.11-1.98,4.55-5.51,7.4-7.89,6.36Zm38.98,45.17c-1.04.92-2.2,1.57-3.35,1.93-2.14.67-4.24.35-5.49-1.05-1.91-2.15-1.05-6.04,1.91-8.67,2.97-2.64,6.92-3.03,8.84-.88.87.99,1.17,2.33.94,3.76-.26,1.69-1.25,3.49-2.86,4.92Z"/>
      <path class="cls-11" d="m220.3,38.1c-.25.39-.59.97-1.1,1.79-2.94,4.74-8.72,7.52-9.68,7.5-.96-.01-1.93.93-3.87,2.81s-3.15,6.07-8.47,3.31c-5.31-2.76-8.74-3.58-6.38-8.13s4.82-2.8,4.14-7.97c-.69-5.18,1.2-3.23,2.63-9.72,1.44-6.48,2.85-11.05-1.36-11.31-4.2-.26-7.79,9.45-9.13,9.23-1.34-.21-1.91-.03-4.67,5.29-2.76,5.31-8.17,9.25-10.07,8.26s-5.04,4.13-4.18-2.17,4.49-5.86,4.53-8.73c.04-2.87,1.72.41,2-5.71.28-6.12,4.87-5.66.14-9.56-4.72-3.9-4.06-9.82-6.58-7.75-2.52,2.07-5.96,2.21-5.99,4.12-.03,1.91-6.34,2.01-4.53,8.73,1.81,6.72,4.07,8.86.42,10.34-3.66,1.47-2.5,1.11-5.23,4.51s-3.71,5.3-6.68-1.06-.74-14.36-4.03-11.73c-3.29,2.63-2.34,2.64-7.3,1.99s-8.09,3.51-8.51,6.18-.27,5.16-2.03,7.62c-1.76,2.46-2.42,8.38-4.55,9.69,0,0,3.79-10.08.6-14.15-3.19-4.07.45-4.58-3.92-6.37-4.37-1.79-6.72,1.81-6.75,3.72-.03,1.91.5,4.6-1.45,7.44-1.73,2.51-4.98,9.51-5.76,12.74,2.03-12.75,5.08-24.56,9.45-25.87,9.84-2.94,11.36,7.99,11.36,7.99,0,0,6.71-27.09,19.44-21.79,11.77,4.9,8.54,20.47,7.99,22.8.95-3.58,10.62-38.79,21.78-31.07,11.76,8.13,1.25,33.46,1.25,33.46,0,0,19.99-37.44,28.67-20.41,8.69,17.02-1.23,31.7-1.23,31.7,0,0,10.08-5.52,19.04-7.75Z"/>
      <path class="cls-11" d="m198.4,114.66l-3.24-2.45c1.05.54,16.24-12.9,25.77-22.61,2.65-2.7,4.86-5.11,6.2-6.85.83-1.07,1.33-1.89,1.41-2.36.63-4.01,3.73-6.26-2.58-6.16-6.31.1-8.93-4.15-8.14-5.67s6.82-8.5,5.71-11.01c-1.11-2.5.5-7.45,1.28-8.97s4.61-1.46-.29-5.93c-2.37-2.16-3.01-3.98-3.36-4.75,7.85-1.77,14.54-.76,12.35,9.13-3.1,13.96-7.9,19.85-10.87,22.25,5.81-3.26,19.01-9.39,17.02,3.39-1.71,10.98-25.73,30.43-41.26,41.99Z"/>
      <g>
        <path class="cls-7" d="m159.79,113.75c-2.31-2.45-2.03-6.35-.69-10.69.4-1.31.91-2.67,1.46-4.03.91-2.24,1.97-4.52,2.99-6.71.13-.28.26-.55.39-.83.5-1.07,1.01-2.15,1.54-3.22.08-.16.15-.31.23-.47.73-1.47,1.5-2.92,2.33-4.31,3-4.99,6.77-9.06,12.27-9.63,1.7-.18,3.82.32,8.05,1.3,10.75,2.5,16.13,3.76,18.59,7.16,1.88,2.6,1.79,5.74.32,10.23-.29.88-.63,1.81-1.02,2.8-.22.55-.45,1.11-.69,1.69-.35.82-.72,1.68-1.12,2.59-.87,1.97-1.87,4.14-2.97,6.52-.17.36-.33.71-.49,1.06-.77,1.66-1.45,3.1-2.1,4.36-1.78,3.44-3.32,5.44-5.71,6.48-3.65,1.58-5.76.16-19.74-1.64-10.4-1.34-12-.9-13.65-2.66Z"/>
        <path class="cls-9" d="m166.43,88.78c-.32-.19-.63-.35-.95-.51.08-.16.15-.31.23-.47.73-1.47,1.5-2.92,2.33-4.31,3.98.3,2.92,1.29,4.03-.33,1.11-1.61,2.97,1.75,6.11,3.14,3.14,1.4,3.01,1.11,4.73.47,1.71-.65,1.79.27,4.59,1.27,2.8,1,4.15,1.05,7.18-.02,3.03-1.06,3.28.6,4.35,3.33,1.08,2.74,7.05.79,7.05.79l1.19.41c-.29.88-.63,1.81-1.02,2.8-.22.55-.45,1.11-.69,1.69-.99-.35-1.68-.53-4.55.14-4.7,1.08-5,1.14-8.31-1-3.31-2.14-2.58-.89-5.87-.4s-2.28.14-6.2-1.88c-3.93-2.02-3.4-1.97-6.29-2.8-2.89-.83-4.73-.47-7.91-2.33Z"/>
        <path class="cls-16" d="m159.1,103.07c.4-1.31.91-2.67,1.46-4.03,1.11.02,2.21.08,3.12.13,3.79.2,2.76,1.2,3.85-.42,1.09-1.62,2.79,1.65,5.75,2.96s2.85,1.03,4.5.35,1.7.22,4.35,1.15,3.94.93,6.85-.19,3.11.51,4.08,3.19c.96,2.68,6.7.61,6.7.61l1.21.4c-.77,1.66-1.45,3.1-2.1,4.36-.81-.25-1.59-.32-4.07.33-4.51,1.18-4.8,1.24-7.91-.79-3.11-2.04-2.44-.82-5.59-.26-3.15.56-2.18.19-5.87-1.71-3.7-1.9-3.2-1.87-5.93-2.62-2.73-.75-4.5-.35-7.49-2.11-1.01-.59-1.99-1-2.92-1.35Z"/>
      </g>
      <g>
        <path class="cls-2" d="m137.17,142.82l-11.28-7.1c11.04-16.51,21.82-33.18,32.36-50,9.22-14.71,18.24-29.54,27.08-44.49,3.76,2.37,7.52,4.73,11.28,7.1-8.44,11.15-16.99,23.21-25.49,36.2-13.28,20.29-24.48,39.9-33.95,58.29Z"/>
        <path class="cls-3" d="m183.26,51.23s-14.11,20.7-13.03,23.42c1.09,2.72,24.25-33.6,13.03-23.42Z"/>
      </g>
      <g>
        <path class="cls-2" d="m163.69,147.43l-11.28-7.1c11.04-16.51,21.82-33.18,32.36-50,9.22-14.71,18.24-29.54,27.08-44.49,3.76,2.37,7.52,4.73,11.28,7.1-8.44,11.15-16.99,23.21-25.49,36.2-13.28,20.29-24.48,39.9-33.95,58.29Z"/>
        <path class="cls-3" d="m209.77,55.84s-14.11,20.7-13.03,23.42c1.09,2.72,24.25-33.6,13.03-23.42Z"/>
      </g>
      <g>
        <path class="cls-2" d="m137.38,128.23l-12.05-5.69c8.98-17.72,17.69-35.56,26.14-53.52,7.39-15.71,14.57-31.51,21.55-47.41,4.02,1.9,8.03,3.8,12.05,5.69-7.04,12.08-14.09,25.08-20.97,38.99-10.75,21.74-19.52,42.55-26.72,61.94Z"/>
        <path class="cls-3" d="m172.16,31.77s-11.53,22.25-10.13,24.82c1.4,2.57,20.04-36.27,10.13-24.82Z"/>
      </g>
      <g>
        <path class="cls-2" d="m110.15,116.63l-12.57-4.45c7.14-18.53,14.01-37.16,20.6-55.88,5.76-16.37,11.31-32.82,16.66-49.34,4.19,1.48,8.38,2.97,12.57,4.45-5.78,12.73-11.48,26.37-16.92,40.91-8.5,22.71-15.13,44.3-20.33,64.32Z"/>
        <path class="cls-3" d="m135.01,17.16s-9.23,23.3-7.57,25.71c1.66,2.41,16.28-38.11,7.57-25.71Z"/>
      </g>
      <g>
        <path class="cls-14" d="m217.33,80.14l-30.55,48.22c-1.54-.8-12.96-6.93-15.44-20.12-.45-2.39-1.52-9.89,2.6-17.51,6.38-11.81,19.75-13.81,22.47-14.22,9.82-1.47,17.63,1.93,20.91,3.62Z"/>
        <path class="cls-13" d="m207.21,90.66s.22-10.27-4.47-10.25c-4.7.03-3.18,3.35,4.47,10.25Z"/>
        <path class="cls-13" d="m204,96.56c1.16-1.43-1.97-5.65-3.77-8.08-2.32-3.12-4.68-6.31-8.05-6.34-2.16-.02-3.81,1.26-3.87,1.32-.26.21-1.87,1.5-2.02,3.15-.31,3.42,5.81,6.35,8.8,7.78,2.39,1.15,7.69,3.69,8.92,2.17Z"/>
        <path class="cls-13" d="m201.03,101.22s-16.44-11.94-20.47-8.81c-1.8,1.41-2.88,2.83-2.79,4.26.2,2.97,4.91,4.75,6.48,5.35,6.53,2.46,13.07.65,16.77-.8Z"/>
        <path class="cls-13" d="m194.59,106.71c-1.67.48-15.42-6.38-17.84-2.97-2.43,3.4-1.05,6.15,6.09,7.29,7.14,1.14,11.75-4.32,11.75-4.32Z"/>
        <path class="cls-13" d="m190.37,113.45s-9.89-1.14-11.58.96c-1.69,2.1,1.04,5.09,4.29,5.13,3.24.04,7.29-6.09,7.29-6.09Z"/>
        <path class="cls-6" d="m174.9,109.41c-.48-2.36-1.67-9.76,2.22-17.2,6.03-11.51,19.06-13.24,21.72-13.59,7.48-.99,13.82.93,17.78,2.63l.71-1.12c-3.28-1.69-11.09-5.09-20.91-3.62-2.73.41-16.09,2.41-22.47,14.22-4.12,7.63-3.05,15.12-2.6,17.51,2.48,13.18,13.89,19.32,15.44,20.12l.5-.8c-3.99-2.83-10.45-8.71-12.39-18.16Z"/>
      </g>
      <g>
        <path class="cls-14" d="m120.33,28.03l-14.88,55.11c1.63.6,13.87,4.86,25.26-2.23,2.07-1.28,8.31-5.56,11.15-13.76,4.39-12.69-3.17-23.89-4.72-26.17-5.56-8.23-13.34-11.68-16.8-12.96Z"/>
        <path class="cls-13" d="m119.42,42.6s7.42-7.11,10.58-3.63c3.15,3.48-.32,4.61-10.58,3.63Z"/>
        <path class="cls-13" d="m117.25,48.95c.27-1.82,5.49-2.37,8.51-2.68,3.87-.4,7.81-.81,10.11,1.65,1.48,1.58,1.64,3.66,1.65,3.75.02.34.16,2.39-.96,3.62-2.31,2.54-8.6.01-11.68-1.22-2.46-.99-7.92-3.17-7.63-5.11Z"/>
        <path class="cls-13" d="m115.82,54.29s19.92,4.04,20.33,9.13c.18,2.28-.14,4.03-1.26,4.93-2.32,1.86-6.82-.4-8.32-1.16-6.22-3.15-9.31-9.19-10.75-12.9Z"/>
        <path class="cls-13" d="m116.12,62.74c.78,1.55,15.12,7.05,14.25,11.14-.87,4.09-3.82,4.93-9.49.44-5.67-4.49-4.76-11.58-4.76-11.58Z"/>
        <path class="cls-13" d="m114.01,70.41s7.52,6.52,7.12,9.18c-.41,2.66-4.46,2.67-6.68.31s-.44-9.49-.44-9.49Z"/>
        <path class="cls-6" d="m127.45,79.08c2.07-1.24,8.32-5.37,11.17-13.26,4.41-12.22-3.13-22.99-4.67-25.19-4.33-6.18-10.03-9.56-13.96-11.32l.34-1.28c3.46,1.28,11.25,4.73,16.8,12.96,1.54,2.28,9.1,13.48,4.72,26.17-2.83,8.19-9.08,12.47-11.15,13.76-11.39,7.09-23.63,2.82-25.26,2.23l.25-.91c4.78,1.02,13.49,1.81,21.76-3.15Z"/>
      </g>
      <g>
        <path class="cls-7" d="m121.74,87.74c-2.31-2.45-2.03-6.35-.69-10.69.4-1.31.91-2.67,1.46-4.03.91-2.24,1.97-4.52,2.99-6.71.13-.28.26-.55.39-.83.5-1.07,1.01-2.15,1.54-3.22.08-.16.15-.31.23-.47.73-1.47,1.5-2.92,2.33-4.31,3-4.99,6.77-9.06,12.27-9.63,1.7-.18,3.81.32,8.05,1.3,10.75,2.5,16.13,3.76,18.59,7.16,1.88,2.6,1.79,5.74.32,10.23-.29.88-.63,1.81-1.02,2.8-.22.55-.45,1.11-.69,1.69-.35.82-.72,1.68-1.12,2.59-.87,1.97-1.87,4.14-2.97,6.52-.17.36-.33.71-.49,1.06-.77,1.66-1.45,3.1-2.1,4.36-1.78,3.44-3.32,5.44-5.71,6.48-3.65,1.58-5.76.16-19.74-1.64-10.4-1.34-12-.9-13.65-2.66Z"/>
        <path class="cls-9" d="m128.37,62.76c-.32-.19-.63-.35-.95-.51.08-.16.15-.31.23-.47.73-1.47,1.5-2.92,2.33-4.31,3.98.3,2.92,1.29,4.03-.33,1.11-1.61,2.97,1.75,6.11,3.14,3.14,1.4,3.01,1.11,4.73.47,1.71-.65,1.79.27,4.59,1.27,2.8,1,4.15,1.05,7.18-.02,3.03-1.06,3.28.6,4.35,3.33,1.08,2.74,7.05.79,7.05.79l1.19.41c-.29.88-.63,1.81-1.02,2.8-.22.55-.45,1.11-.69,1.69-.99-.35-1.68-.53-4.55.13-4.7,1.08-5,1.14-8.31-1-3.31-2.14-2.58-.89-5.87-.4s-2.28.14-6.2-1.88c-3.93-2.02-3.4-1.97-6.29-2.8-2.89-.83-4.73-.47-7.91-2.33Z"/>
        <path class="cls-16" d="m121.05,77.05c.4-1.31.91-2.67,1.46-4.03,1.11.02,2.21.08,3.12.13,3.79.2,2.76,1.2,3.85-.42,1.09-1.62,2.79,1.65,5.75,2.96,2.97,1.31,2.85,1.03,4.5.35s1.7.22,4.35,1.15c2.64.92,3.94.93,6.85-.19,2.92-1.12,3.11.51,4.08,3.19.96,2.68,6.7.61,6.7.61l1.21.4c-.77,1.66-1.45,3.1-2.1,4.36-.81-.25-1.59-.32-4.07.33-4.51,1.18-4.8,1.24-7.91-.79-3.11-2.04-2.44-.82-5.59-.26-3.15.56-2.18.19-5.87-1.71-3.7-1.9-3.2-1.87-5.93-2.62-2.73-.75-4.5-.35-7.49-2.11-1.01-.59-1.99-1-2.92-1.35Z"/>
      </g>
      <g>
        <path class="cls-7" d="m123.85,112.44c-2.31-2.45-2.03-6.35-.69-10.69.4-1.31.91-2.67,1.46-4.03.91-2.24,1.97-4.52,2.99-6.71.13-.28.26-.55.39-.83.5-1.07,1.01-2.15,1.54-3.22.08-.16.15-.31.23-.47.73-1.47,1.5-2.92,2.33-4.31,3-4.99,6.77-9.06,12.27-9.63,1.7-.18,3.81.32,8.05,1.3,10.75,2.5,16.13,3.76,18.59,7.16,1.88,2.6,1.79,5.74.32,10.23-.29.88-.63,1.81-1.02,2.8-.22.55-.45,1.11-.69,1.69-.35.82-.72,1.68-1.12,2.59-.87,1.97-1.87,4.14-2.97,6.52-.17.36-.33.71-.49,1.06-.77,1.66-1.45,3.1-2.1,4.36-1.78,3.44-3.32,5.44-5.71,6.48-3.65,1.58-5.76.16-19.74-1.64-10.4-1.34-12-.9-13.65-2.66Z"/>
        <path class="cls-9" d="m130.48,87.47c-.32-.19-.63-.35-.95-.51.08-.16.15-.31.23-.47.73-1.47,1.5-2.92,2.33-4.31,3.98.3,2.92,1.29,4.03-.33,1.11-1.61,2.97,1.74,6.11,3.14,3.14,1.4,3.01,1.11,4.73.47,1.71-.65,1.79.27,4.59,1.27,2.8,1,4.15,1.05,7.18-.01,3.03-1.06,3.28.6,4.35,3.33s7.05.79,7.05.79l1.19.41c-.29.88-.63,1.81-1.02,2.8-.22.55-.45,1.11-.69,1.69-.99-.35-1.68-.53-4.55.14-4.7,1.08-5,1.14-8.31-1-3.31-2.14-2.58-.89-5.87-.4-3.29.49-2.28.14-6.2-1.88-3.93-2.02-3.4-1.97-6.29-2.8-2.89-.83-4.73-.47-7.91-2.33Z"/>
        <path class="cls-16" d="m123.16,101.76c.4-1.31.91-2.67,1.46-4.03,1.11.02,2.21.08,3.12.13,3.79.2,2.76,1.2,3.85-.42,1.09-1.62,2.79,1.65,5.75,2.96,2.97,1.31,2.85,1.03,4.5.35,1.65-.68,1.7.22,4.35,1.15,2.64.92,3.94.93,6.85-.19,2.92-1.12,3.11.51,4.08,3.19.96,2.68,6.7.61,6.7.61l1.21.4c-.77,1.66-1.45,3.1-2.1,4.36-.81-.25-1.59-.32-4.07.33-4.51,1.18-4.8,1.24-7.91-.79-3.11-2.04-2.44-.82-5.59-.26-3.15.56-2.18.19-5.87-1.71-3.7-1.9-3.2-1.87-5.93-2.62s-4.5-.35-7.49-2.11c-1.01-.59-1.99-1-2.92-1.35Z"/>
      </g>
      <g>
        <path class="cls-1" d="m198.95,114.18c-38.22,64.97-76.44,129.93-114.66,194.9-14.77-5.38-31.33-12.49-48.83-21.97-1.61-.87-3.21-1.75-4.78-2.63-11.06-6.21-21.03-12.56-29.9-18.74L110.54,104.42c11.28-2.62,29.37-5.31,51.1-1.9,13.55,2.12,24.8,6.04,33.34,9.82,1.39.62,2.72,1.23,3.97,1.84Z"/>
        <path class="cls-2" d="m104.81,204.57c-31.57,41.58-40.28,62-53.53,70.31-3.28,2.06-6.84,3.37-11.1,4.08-15.79,2.62-30.35-4.89-40.18-11.7L102.08,56.67c1.16.65,2.64,1.51,4.36,2.61,8.21,5.26,21.8,15.96,30.85,34.45,3.13,6.4,10.72,23.94,8.3,45.27-2.48,21.85-13.39,29.49-40.78,65.57Z"/>
        <path class="cls-15" d="m119.95,158.7c-1.69,3.25-4.75,5-6.85,3.91-2.1-1.09-2.43-4.6-.74-7.85s4.75-5,6.85-3.91c2.1,1.09,2.43,4.6.74,7.85Z"/>
        <path class="cls-15" d="m106.2,85.95c-.18,3.66-2.24,6.53-4.6,6.41-2.36-.12-4.12-3.18-3.94-6.83.18-3.66,2.24-6.53,4.6-6.41,2.36.12,4.12,3.18,3.94,6.83Z"/>
        <path class="cls-15" d="m72.9,174.03c-2.16,2.96-5.45,4.23-7.36,2.84-1.91-1.39-1.71-4.92.45-7.88,2.16-2.96,5.45-4.23,7.36-2.84s1.71,4.92-.45,7.88Z"/>
        <path class="cls-15" d="m130.55,219.86c-2.16,2.96-5.45,4.23-7.36,2.84-1.91-1.39-1.71-4.92.45-7.88,2.16-2.96,5.45-4.23,7.36-2.84,1.91,1.39,1.71,4.92-.45,7.88Z"/>
        <path class="cls-15" d="m155.84,166.49c-2.16,2.96-5.45,4.23-7.36,2.84s-1.71-4.92.45-7.88,5.45-4.23,7.36-2.84,1.71,4.92-.45,7.88Z"/>
        <path class="cls-15" d="m119.89,128.07c-2.16,2.96-5.45,4.23-7.36,2.84-1.91-1.39-1.71-4.92.45-7.88,2.16-2.96,5.45-4.23,7.36-2.84,1.91,1.39,1.71,4.92-.45,7.88Z"/>
        <path class="cls-15" d="m186.56,121.24c-2.16,2.96-5.45,4.23-7.36,2.84s-1.71-4.92.45-7.88c2.16-2.96,5.45-4.23,7.36-2.84,1.91,1.39,1.71,4.92-.45,7.88Z"/>
        <path class="cls-15" d="m45.93,260.96c-2.57,2.6-6.02,3.37-7.7,1.71s-.95-5.12,1.62-7.72,6.02-3.37,7.7-1.71c1.68,1.66.95,5.12-1.62,7.72Z"/>
        <path class="cls-15" d="m77.42,216.09c-.62,4.43-3.33,7.71-6.04,7.33s-4.4-4.28-3.78-8.72c.62-4.43,3.33-7.71,6.04-7.33,2.71.38,4.4,4.28,3.78,8.72Z"/>
        <path class="cls-15" d="m103.4,255.97c-.51,3.63-2.4,6.37-4.21,6.11-1.81-.26-2.86-3.41-2.35-7.04.51-3.63,2.4-6.37,4.21-6.11,1.81.26,2.86,3.41,2.35,7.04Z"/>
        <path class="cls-15" d="m68.95,274.16c-2.58,2.61-5.72,3.68-7.02,2.39-1.3-1.29-.26-4.44,2.32-7.05,2.58-2.61,5.72-3.68,7.02-2.39,1.3,1.29.26,4.44-2.32,7.05Z"/>
        <path class="cls-15" d="m41.9,222.9c-.29,2.05-1.64,3.55-3.02,3.36s-2.26-2.01-1.97-4.06c.29-2.05,1.64-3.55,3.02-3.36,1.38.19,2.26,2.01,1.97,4.06Z"/>
        <path class="cls-15" d="m82.72,293.72c-.29,2.05-1.64,3.55-3.02,3.36-1.38-.19-2.26-2.01-1.97-4.06.29-2.05,1.64-3.55,3.02-3.36,1.38.19,2.26,2.01,1.97,4.06Z"/>
        <path class="cls-15" d="m129.85,188.08c-.29,2.05-1.64,3.55-3.02,3.36-1.38-.19-2.26-2.01-1.97-4.06.29-2.05,1.64-3.55,3.02-3.36,1.38.19,2.26,2.01,1.97,4.06Z"/>
        <path class="cls-15" d="m85.05,139.78c-.29,2.05-1.64,3.55-3.02,3.36-1.38-.19-2.26-2.01-1.97-4.06.29-2.05,1.64-3.55,3.02-3.36,1.38.19,2.26,2.01,1.97,4.06Z"/>
        <path class="cls-15" d="m99.2,190.49c-.29,2.05-1.64,3.55-3.02,3.36-1.38-.19-2.26-2.01-1.97-4.06.29-2.05,1.64-3.55,3.02-3.36s2.26,2.01,1.97,4.06Z"/>
        <path class="cls-15" d="m105.59,223.68c-.29,2.05-1.64,3.55-3.02,3.36-1.38-.19-2.26-2.01-1.97-4.06.29-2.05,1.64-3.55,3.02-3.36s2.26,2.01,1.97,4.06Z"/>
        <path class="cls-15" d="m157.32,129.59c-.29,2.05-1.64,3.55-3.02,3.36s-2.26-2.01-1.97-4.06c.29-2.05,1.64-3.55,3.02-3.36,1.38.19,2.26,2.01,1.97,4.06Z"/>
        <path class="cls-10" d="m145.59,139c2.42-21.33-5.17-38.87-8.3-45.27-10.95-22.35-28.52-33.33-35.21-37.07l-.57,1.18c7.88,6.06,17.7,15.74,24.77,30.18,3.14,6.4,10.72,23.94,8.3,45.27-2.48,21.85-13.39,29.49-40.78,65.57-39.39,51.88-43.19,70.82-64.63,74.39-9.08,1.51-17.75-.34-25.35-3.47,9.6,5.98,22.5,11.49,36.36,9.18,21.44-3.56,25.24-22.5,64.63-74.39,27.39-36.07,38.3-43.71,40.78-65.57Z"/>
        <g class="cls-4">
          <path class="cls-1" d="m51.28,274.88c-3.28,2.06-6.84,3.37-11.1,4.08-15.79,2.62-30.35-4.89-40.18-11.7L102.08,56.67c1.16.65,2.64,1.51,4.36,2.61l.09,2.74S38.44,217.34,31.98,226.99c-6.46,9.66-9.84,18.02-8.04,25.7,1.02,4.37,12.07,14.1,27.34,22.18Z"/>
        </g>
        <g class="cls-5">
          <path class="cls-8" d="m198.95,114.18c-38.22,64.97-76.44,129.93-114.66,194.9-14.77-5.38-31.33-12.49-48.83-21.97-1.61-.87-3.21-1.75-4.78-2.63,11.74,1.97,29.52,2.44,47.19-6.67,25.98-13.4,97.41-132.13,117.1-165.46,1.39.62,2.72,1.23,3.97,1.84Z"/>
        </g>
      </g>
    </g>
  </g>
</svg>