<?xml version="1.0" encoding="UTF-8"?>
<svg xmlns="http://www.w3.org/2000/svg" viewBox="0 0 463.31 356.6">
  <defs>
    <style>
      .cls-1, .cls-2, .cls-3 {
        mix-blend-mode: multiply;
      }

      .cls-1, .cls-3, .cls-4, .cls-5, .cls-6 {
        fill: #231f20;
      }

      .cls-1, .cls-4, .cls-7, .cls-8 {
        opacity: .1;
      }

      .cls-9, .cls-2, .cls-10, .cls-11, .cls-12, .cls-13 {
        fill: none;
      }

      .cls-9, .cls-10, .cls-7, .cls-13 {
        mix-blend-mode: soft-light;
      }

      .cls-2, .cls-5, .cls-14 {
        opacity: .2;
      }

      .cls-15 {
        fill: #383738;
      }

      .cls-16 {
        fill: #4f3127;
      }

      .cls-17 {
        fill: #00782a;
      }

      .cls-18, .cls-7, .cls-14, .cls-8 {
        fill: #fff;
      }

      .cls-3 {
        opacity: .05;
      }

      .cls-10 {
        opacity: .8;
      }

      .cls-19 {
        fill: #e2debc;
      }

      .cls-20 {
        fill: #f4f0c9;
      }

      .cls-11 {
        isolation: isolate;
      }

      .cls-4, .cls-5, .cls-14, .cls-8 {
        mix-blend-mode: overlay;
      }

      .cls-21 {
        fill: #5e6900;
      }

      .cls-13 {
        opacity: .6;
      }

      .cls-22 {
        fill: #933f19;
      }

      .cls-23 {
        fill: #323233;
      }

      .cls-24 {
        fill: #6d4237;
      }

      .cls-25 {
        fill: #f7f5dd;
      }

      .cls-26 {
        fill: #58595b;
      }

      .cls-27 {
        fill: #414042;
      }
    </style>
  </defs>
  <g class="cls-11">
    <g id="Calque_2" data-name="Calque 2">
      <g id="Layer_1" data-name="Layer 1">
        <g id="miso_soup" data-name="miso soup">
          <g>
            <ellipse class="cls-26" cx="185.28" cy="258.12" rx="185.28" ry="88.05"/>
            <path class="cls-1" d="m352.44,287.38c-32.15,21.08-63.38,35.48-106.67,40.61-59.83,7.09-122.65.23-178.41-25.48-10.17-4.69-19.21-11.2-26.04-19.41-18.6-22.33-16.41-48.95-.15-71.63,3.5-4.91,5.63-7.54,11.62-14.89C20.13,212.45,0,234.17,0,258.12,0,306.75,82.95,346.18,185.28,346.18c94.33,0,172.19-33.5,183.79-76.83-4.31,6.8-8.13,12.47-16.63,18.04Z"/>
            <ellipse class="cls-1" cx="186.67" cy="260.93" rx="117.83" ry="33.31"/>
          </g>
          <path class="cls-27" d="m349.34,90.07c4.3-.11,7.6,3.78,6.79,8.01-2.51,13.08-8.44,40.23-19.25,70.41-11.62,32.47-28.88,68.45-53.58,94.1-.68.7-35.84,20.84-100.17,19.1-46.14-1.25-74.51-11.5-85.11-16.14-3.01-1.32-5.76-3.17-8.09-5.48-28.04-27.78-42.01-64.9-53.94-100.64-8.84-26.48-13.86-49.61-16.12-61.36-.81-4.23,2.49-8.11,6.79-8l161.34,4.22,133.69-3.5,27.65-.73Z"/>
          <path class="cls-1" d="m237.04,252.18c-14-1.5-27.85-4.68-41.12-9.23-26.18-8.99-50.39-23.02-72.86-39.18-17.58-12.64-34.33-26.75-47.58-43.87-8.11-10.48-14.85-22.1-19.36-34.58-1.02-2.81-7.59-34.68-7.91-34.69l-21.54-.56c-4.3-.11-7.6,3.78-6.79,8,2.26,11.75,7.28,34.89,16.12,61.36,11.92,35.73,25.9,72.86,53.94,100.64,2.33,2.31,5.08,4.16,8.09,5.48,10.6,4.65,38.97,14.89,85.11,16.14,64.34,1.74,99.49-18.4,100.17-19.1,5.02-5.2,9.31-10.87,14.77-15.62-19.79,5.98-40.57,7.39-61.02,5.2Z"/>
          <path class="cls-1" d="m241.06,270.75c-64.2,10.3-119.68-27.74-160.9-72.92-13.47-15.06-27.22-36.34-33.56-56.15-6.34-18.31-9.82-32.32-14.77-51.47-2.98-.08-5.18-.14-5.18-.14-4.3-.11-7.6,3.78-6.79,8,2.26,11.75,7.28,34.89,16.12,61.36,11.92,35.73,25.9,72.86,53.94,100.64,2.33,2.31,5.08,4.16,8.09,5.48,10.6,4.65,38.97,14.89,85.11,16.14,64.34,1.74,99.49-18.4,100.17-19.1,2.79-2.89,5.36-5.93,8.03-8.87-15.93,7.45-32.2,13.84-50.26,17.03Z"/>
          <path class="cls-26" d="m357.98,84.39c0,5.33-1,10.54-2.9,15.59-7.65,20.31-29.98,38.07-61.32,50.44-29.07,11.49-65.9,18.36-105.97,18.36-82.11,0-150.65-28.84-166.65-67.2-2.32-5.55-3.53-11.29-3.53-17.18C17.6,37.78,93.8,0,187.78,0c28.48,0,55.32,3.47,78.91,9.6,54.26,14.11,91.28,42.3,91.28,74.79Z"/>
          <path class="cls-22" d="m355.28,100.11c-14.75,39.15-84.03,68.8-167.29,68.8S37.34,140.07,21.34,101.71c14.76-39.15,84.05-68.78,167.29-68.78s150.65,28.83,166.65,67.19Z"/>
          <path class="cls-24" d="m177.17,89.69c-3.03-1.52-5.25-4.67-5.43-8.05-.18-3.49,1.7-6.77,3.97-9.43,2.91-3.42,6.64-6.23,10.93-7.57,4.29-1.34,9.15-1.09,13.05,1.15,6.07,3.5,8.71,11.93,5.71,18.26-2.3,4.84-7.54,7.82-12.81,7.97-2.32.07-4.33-.64-6.57-1.01-3.04-.51-5.96.14-8.84-1.31Z"/>
          <g>
            <path class="cls-16" d="m163.36,87.72c-2.63-4.58-1.45-10.37,2.08-14.47,3.53-4.1,9.07-6.66,14.82-7.86,5.75-1.2,11.73-1.18,17.64-.94,4.25.17,8.46,2.28,11.9,4.46,4.64,2.93,6.38,6.57,6.87,11.53.43,4.35.28,9.03-2.52,12.66-2.4,3.11-6.49,5.02-10.69,5.9-4.71.98-9.61.83-14.42.78-3.4-.03-7.01.15-10.16-1.15-2.67-1.1-5.07-2.88-7.59-4.22-3.3-1.76-6.03-3.71-7.93-6.68Z"/>
            <path class="cls-5" d="m175.04,93.32c-13.32-7.28-10.03-19.55,1.47-26.94-4.34,1.41-8.31,3.66-11.07,6.86-3.53,4.1-4.71,9.89-2.08,14.47,1.9,2.97,4.63,4.93,7.93,6.68,2.52,1.34,4.91,3.11,7.59,4.22,3.15,1.3,6.76,1.11,10.16,1.15,4.81.05,9.71.2,14.42-.78,4.21-.88,8.29-2.78,10.69-5.9.94-1.22,1.58-2.57,2-3.98-9.63,9.57-28.05,11.75-41.1,4.21Z"/>
            <path class="cls-24" d="m176.27,77.89c-2.27,2.3-4.15,5.14-3.97,8.17.17,2.93,2.4,5.65,5.43,6.97,2.88,1.26,5.8.69,8.84,1.13,2.24.33,4.25.93,6.57.88,5.27-.13,10.51-2.71,12.81-6.9,3-5.48.37-12.78-5.71-15.81-3.89-1.94-8.76-2.15-13.05-.99s-8.02,3.59-10.93,6.55Z"/>
            <path class="cls-4" d="m195.74,86.35c1.51-1.31,2.29-3.45,1.22-5.06-1.24-1.87-4.21-2.17-6.69-1.99-1.47.1-2.97.31-4.23.96-2.3,1.2-3.34,3.93-2.31,6.08,2.25,4.68,8.86,2.75,12.01.01Z"/>
            <path class="cls-4" d="m200.25,72.32c-3.89-1.94-8.76-2.15-13.05-.99s-8.02,3.59-10.93,6.55c-2.27,2.3-4.15,5.14-3.97,8.17.17,2.93,2.4,5.65,5.43,6.97,2.88,1.26,5.8.69,8.84,1.13,2.24.33,4.25.93,6.57.88,5.27-.13,10.51-2.71,12.81-6.9,3-5.48.37-12.78-5.71-15.81Zm4.56,15.43c-2.13,3.9-7.01,6.29-11.9,6.41-2.16.05-4.03-.51-6.11-.82-2.83-.41-5.54.12-8.22-1.05-2.82-1.23-4.88-3.75-5.04-6.48-.17-2.81,1.58-5.45,3.69-7.59,2.71-2.75,6.17-5.01,10.16-6.09,3.98-1.08,8.51-.88,12.12.92,5.65,2.81,8.09,9.59,5.3,14.69Z"/>
            <path class="cls-16" d="m194.95,86.03c1.29-1.12,1.95-2.94,1.04-4.31-1.06-1.6-3.58-1.85-5.7-1.7-1.25.09-2.53.26-3.6.82-1.96,1.02-2.85,3.35-1.97,5.18,1.92,3.98,7.55,2.34,10.23,0Z"/>
            <path class="cls-5" d="m195.74,84.66c-2.68,2.33-8.31,3.97-10.23,0-.42-.88-.43-1.87-.11-2.78-1.01,1.17-1.33,2.8-.68,4.16,1.92,3.98,7.55,2.34,10.23,0,.58-.51,1.03-1.16,1.27-1.85-.15.17-.3.33-.47.48Z"/>
            <g class="cls-10">
              <path class="cls-18" d="m191.18,67.7c9.91-1.05,22.48,3.46,21.15,15.4-.08-1.24-.14-2.48-.47-3.67-1.99-9.11-12.61-11.49-20.67-11.73h0Z"/>
            </g>
            <path class="cls-14" d="m182.93,79.95c-.77-.05-1.49-.53-1.75-1.16-.27-.65-.07-1.4.37-1.98s1.09-1.02,1.75-1.41c3.07-1.78,6.89-2.63,10.55-2.16,3.66.47,7.1,2.29,9.05,5.01,1.14,1.59,1.77,3.46,1.78,5.33.01,1.33-.29,2.69-1.07,3.84-.78,1.15-2.07,2.07-3.58,2.34-1.14.21-2.54-.08-3.03-.99-.36-.66-.15-1.44.23-2.09s.91-1.22,1.25-1.88c.9-1.75.26-3.92-1.29-5.29-1.54-1.37-3.83-1.99-6.04-1.95-1.67.03-3.3.41-4.84.96-1.09.39-2.18,1.52-3.38,1.43Z"/>
          </g>
          <path class="cls-12" d="m177.13,104.54c-.13.44-.3.94-.48,1.5"/>
          <path class="cls-12" d="m170.65,124.22c-.05.17-.1.33-.15.49"/>
          <path class="cls-3" d="m183.93,154.3c.03,2.74-.13,5.5-.6,8.3,1.8-.09,3.61-.18,5.41-.28-2.77-2.02-4.31-4.91-4.81-8.03Z"/>
          <path class="cls-21" d="m270.02,115.88c7.06-1.87,14.11-3.75,21.17-5.62,2.52-.67,5.11-1.37,7.25-2.86.36,3.6,1.63,6.67,3.68,9.65-5.01,3.2-10.84,5.78-16.78,6.01-5.93.23-11.85-.59-17.74-1.4,1.55-1.32,2.07-3.77,2.42-5.77Z"/>
          <path class="cls-5" d="m301.08,115.41c-6.19,8.51-20.08,6.77-28.32.78-.2-.2-.4-.51-.6-.89-.72.19-1.43.38-2.15.57-.34,2-.87,4.46-2.42,5.77,5.88.82,11.8,1.63,17.74,1.4,5.93-.23,11.77-2.81,16.78-6.01-.37-.54-.71-1.09-1.03-1.64Z"/>
          <path class="cls-4" d="m357.98,84.39c0,5.33-1,10.54-2.9,15.59-7.65,20.31-29.98,38.07-61.32,50.44,4.96-3.8,10.18-7.34,15.25-10.91,13.32-9.38,26.85-20.44,31.82-35.97,5.67-17.72-1.46-37.55-13.55-51.7-12.09-14.15-28.54-23.73-44.66-33.04-5.3-3.07-10.61-6.13-15.92-9.2,54.26,14.11,91.28,42.3,91.28,74.79Z"/>
          <g>
            <path class="cls-17" d="m123.22,148.27c11.79.61,23.75-3.39,32.8-10.96,2.07,5,5.5,9.29,9.46,12.97-6.52.57-12.81,1.32-19.32,1.9-3.91.34-7.85.69-11.76.27-3.9-.42-8.15-1.67-11.18-4.17Z"/>
            <path class="cls-5" d="m160.54,144.91c-.45.59-.96,1.11-1.58,1.53-9.34,3.59-21.28,6.53-29.93,1.74-1.93.14-3.87.18-5.81.08,3.03,2.5,7.28,3.76,11.18,4.17,3.9.42,7.85.07,11.76-.27,6.52-.57,12.81-1.32,19.32-1.9-1.79-1.66-3.45-3.45-4.95-5.36Z"/>
            <path class="cls-8" d="m136.78,148.23c5.1-.52,10.06-2.33,14.3-5.21,1.31-.89,2.72-1.94,4.29-1.78.83.08,1.63.53,2.06,1.24.44.71.47,1.67.02,2.37-.57.9-1.72,1.2-2.77,1.44-3.19.71-6.39,1.41-9.59,2.13-2.16.49-4.05,1.26-6.3,1.14-.68-.04-1.81.02-2.41-.33-.7-.42-.33-.92.38-.99Z"/>
          </g>
          <line class="cls-12" x1="177.94" y1="107.12" x2="176.62" y2="106.17"/>
          <line class="cls-12" x1="156.37" y1="91.61" x2="151.3" y2="87.96"/>
          <path class="cls-4" d="m92.68,103.08c-8.74-17.41-5.26-46.01,20.13-61.34-46.94,11.6-81.55,33.63-91.48,59.97,16,38.36,84.53,67.2,166.65,67.2,51.93,0,98.43-11.53,129.64-29.72-71.77,24.82-189.71,34.13-224.95-36.12Z"/>
          <g>
            <path class="cls-20" d="m193.56,116.22c-4.31,6.28-5.07,8.43-12.34,10.7-3.58-3.07-7.05-3.71-12.1-5.14.98-4.35,3.03-13.59,4.18-18.61,6.69-2.92,11.22-4.31,17.5-4.4,2.07,5.39,2.37,11.26,2.75,17.45Z"/>
            <path class="cls-3" d="m173.3,103.16c-1.15,5.02-3.2,14.26-4.18,18.61.69.2,1.35.38,1.99.55,1.67-7.75,4.17-16.46,11.36-19.32,3.46-1.5,7.12-.77,9.87,1.28-.36-1.89-.84-3.73-1.53-5.52-6.28.09-10.81,1.48-17.5,4.4Z"/>
            <path class="cls-19" d="m173.49,103.27c-1.17,5.04-3.39,14.19-4.37,18.5-.15-.04-.32-.08-.47-.13-7.47-1.84-15.27-2.7-22.9-1.85,1.68-6.99,5.95-21.7,6.31-29.26l21.44,12.74Z"/>
            <path class="cls-3" d="m152.05,90.54c-.07,1.46-.28,3.19-.6,5.07,12.6,2.74,20.03,13.8,17.07,26.01.04,0,.08.02.12.03.15.04.32.08.47.13.97-4.31,3.2-13.46,4.37-18.5l-21.44-12.74Z"/>
            <path class="cls-25" d="m190.86,98.76h-.06c-5.94.54-17.3,4.47-17.32,4.51l-21.44-12.74c.06-.09.14-.18.21-.25,1.94-1.85,22.79-6.43,30.08-7.16.23-.02.44.12.52.34,1.46,4.25,3.58,6.58,4.31,7.9,1.39,2.54,2.84,4.6,3.7,7.39Z"/>
            <path class="cls-3" d="m187.81,92.51c-5.71,8.98-18.82,9.97-26.84,1.24-1.98-2-2.02-4.32-.94-6.17-4,1.05-7.08,2.05-7.76,2.71-.07.07-.15.16-.21.25l21.44,12.74s11.38-3.97,17.32-4.51h.06c-.73-2.37-1.87-4.21-3.05-6.26Z"/>
            <path class="cls-14" d="m163.63,93.08c-.43-1.46.07-3.16,1.23-4.15.88-.75,2.03-1.09,3.15-1.39,3.16-.84,6.35-1.56,9.57-2.16,1.07-.2,2.21-.38,3.23.01,1.51.58,2.3,2.2,2.89,3.7.43,1.09.83,2.3.44,3.41-.38,1.06-1.4,1.75-2.4,2.27-2.56,1.33-5.42,2.06-8.3,2.17-2.19.08-4.96-.01-6.98-.97-1.26-.59-2.43-1.51-2.83-2.9Z"/>
            <path class="cls-14" d="m150.51,109.38c.42-2.6,1.45-5.05,2.46-7.48.32-.78.71-1.62,1.48-1.96.84-.38,1.82,0,2.64.43,4.67,2.49,8.07,7.22,8.93,12.44.21,1.24.23,2.65-.61,3.59-.75.85-1.98,1.06-3.1,1.16-3.19.29-6.91.35-10.01-.58-2.48-.74-2.11-5.62-1.79-7.59Z"/>
            <path class="cls-14" d="m176.55,121.23c-.6-.25-1.2-.57-1.6-1.07-.67-.85-.65-2.05-.49-3.12.32-2.11,1.23-4.33,3.12-5.33,1.53-.81,3.43-.64,5.03.03,1.6.67,2.95,1.8,4.28,2.91.68.57,1.43,1.33,1.23,2.19-.14.6-.7,1-1.22,1.33-1.79,1.16-3.5,2.4-5.25,3.59-.66.45-1.28.49-2.07.36-.34-.05-3-.55-3.03-.9Z"/>
          </g>
          <g>
            <path class="cls-20" d="m218.19,125.49c-2.23-2.3-4.64-5.33-3.62-8.37.49-1.43,1.66-2.5,2.63-3.66,3.95-4.72,4.65-11.89,1.7-17.29,8.97-1.67,16.67-3.58,25.64-5.25-1.17,5.56-.62,8.72-.62,12.49-5.74,4.8-8.17,10.2-13.91,15-3.92,3.28-7.86,5.99-10.28,10.49-.38-1.31-.61-2.44-1.55-3.42Z"/>
            <path class="cls-25" d="m185.54,110.86c11.47.37,22.97.3,34.44.67,8.63-6.29,17.66-12.46,24.56-20.61-11.67-3.11-23.16-5.02-35.21-5.6-.19,0-.38.07-.51.22-7.5,8.83-14.86,17.36-23.28,25.31Z"/>
            <path class="cls-3" d="m235.77,88.8c.52.69.75,1.56.56,2.72-3.81,17.53-30.35,21.86-46.48,15.12-1.41,1.42-2.84,2.83-4.31,4.22,11.47.37,22.97.3,34.44.67,8.63-6.29,17.66-12.46,24.56-20.61-2.94-.78-5.86-1.49-8.78-2.12Z"/>
            <path class="cls-19" d="m219.99,111.52l-34.72-.65c1.22.84,2.36,1.79,3.42,2.81,2.2,2.13,4.04,4.62,5.4,7.36,8.93.78,17.75,3.65,25.66,7.86.06-.21.1-.42.15-.64,1.35-5.42,1.53-11.37.09-16.75Z"/>
            <path class="cls-3" d="m219.99,111.52l-34.72-.65c.57.39,1.13.82,1.67,1.26,12.66.06,29.9,1.25,31.78,16.24.35.18.69.35,1.03.53.06-.21.1-.42.15-.64,1.35-5.42,1.53-11.37.09-16.75Z"/>
            <path class="cls-14" d="m197.45,104.27c.02-1.13.72-2.12,1.38-3.03,1.98-2.7,3.96-5.41,5.94-8.11,1.52-2.07,3.16-4.24,5.54-5.19,2.06-.83,4.38-.61,6.58-.31,3.68.51,7.33,1.25,10.92,2.21.88.23,1.79.5,2.46,1.11,1.07.97,1.3,2.58,1.09,4.01-.31,2.14-1.45,4.1-2.95,5.66-1.5,1.55-3.36,2.73-5.29,3.7-3.33,1.67-6.95,2.75-10.65,3.21-3.73.47-7.54.32-11.22-.48-1.52-.33-3.83-.76-3.79-2.78Z"/>
            <path class="cls-14" d="m192.64,115.35c-.08-.16-.14-.32-.17-.49-.04-.28.02-.58.25-.78.36-.3,1.16-.08,1.61-.06.78.04,1.56.12,2.33.23,1.52.21,3.02.54,4.51.88,2.48.56,4.92,1.29,7.29,2.17,1.2.44,2.41,1.56,3.23,2.45.67.74,1.42,1.97,1.18,2.67s-.74.83-1.55.94c-.52.07-2.14-.56-2.63-.73-3.34-1.14-5.77-1.8-9.27-2.08-1.4-.11-2.79-.64-3.92-1.41-1.26-.87-2.01-2.2-2.71-3.48-.05-.1-.11-.19-.16-.29Z"/>
          </g>
          <g>
            <path class="cls-20" d="m182.51,148.37c.22-1.4.31-2.83.24-4.28-.21-4.07-2.78-7.64-5.54-13.09-2.36-1.52-3.52-2.49-6.32-2.7-2.66,6.28-2.86,7.24-4.43,11.18-1.03,2.59-2.52,6.14-3.04,9.47,6.33-.53,12.72-.76,19.09-.58Z"/>
            <path class="cls-3" d="m182.75,144.09c-.21-4.07-2.78-7.64-5.54-13.09-2.36-1.52-3.52-2.49-6.32-2.7-.88,2.08-1.49,3.57-1.97,4.79,5.81,2.43,8.56,8.32,9.43,15.22,1.38,0,2.77.02,4.15.06.22-1.4.31-2.83.24-4.28Z"/>
            <path class="cls-19" d="m212.3,127.78c-.74-.87-9.8-2.79-13.91-3.65-5.77,3.75-14.69,6.75-21.33,8.56.68,5.32,1.51,10.46,1.76,15.62,9.37.04,18.75.91,27.94,2.94,2.83-7.48,4.73-16.11,5.54-23.48Z"/>
            <path class="cls-3" d="m182.92,137.03c6.4-8.53,18.53-5.59,28.4-2.6.41-2.28.74-4.52.98-6.65-.74-.87-9.8-2.79-13.91-3.65-5.77,3.75-14.69,6.75-21.33,8.56.55,4.29,1.43,9.68,1.74,15.62.12,0,.24,0,.37,0,.55-3.85,1.8-9.09,3.76-11.29Z"/>
            <path class="cls-25" d="m170.89,128.3c2.06,1.46,4.11,2.93,6.17,4.39,11.65-1.96,23.59-2.95,35.23-4.91-1.04-2.43-2.26-4.52-4.07-6.44-1.77-1.87-3.54-3.75-5.31-5.62-4.4-.49-8.4-.62-12.71.39-6.1,4.57-12.65,8.73-19.31,12.19Z"/>
            <path class="cls-3" d="m208.22,121.35c-1.77-1.87-3.54-3.75-5.31-5.62-.41-.04-.8-.08-1.2-.12,2.12,2.64,3.26,5.53.23,7.95-5.52,5.52-9.27,5.46-24.88,9.14,10.44-1.58,24.84-3.17,35.23-4.91-1.04-2.43-2.26-4.52-4.07-6.44Z"/>
            <path class="cls-14" d="m176.83,130.17c-.57-.26-1.13-.72-1.18-1.34-.06-.79.7-1.39,1.39-1.78,4.2-2.4,9.22-3.69,12.42-7.32.83-.94,1.55-2.05,2.66-2.65.84-.45,1.82-.56,2.78-.66.97-.1,1.95-.2,2.92-.08.97.12,1.94.49,2.61,1.2.93.98,1.15,2.51.75,3.8-.4,1.29-1.35,2.36-2.47,3.14-1.11.78-2.38,1.29-3.65,1.76-3.07,1.14-6.21,2.09-9.4,2.83-1.61.38-3.25.6-4.86.97-1.42.33-2.53.79-3.98.13Z"/>
            <path class="cls-14" d="m207.04,144.53c.42-1.87.74-3.85.08-5.66-.84-2.3-3.14-3.89-5.59-4.6-2.45-.71-5.05-.68-7.61-.63-2.01.03-4.1.08-5.87.97-1.49.74-2.61,2.01-3.51,3.36-2.05,3.07-3.09,6.74-2.97,10.38,7.91.17,15.81.97,23.59,2.58.76-2.09,1.39-4.23,1.88-6.39Z"/>
            <path class="cls-14" d="m171.78,138.23c-.58-.4-1.35-.59-2-.33-.81.33-1.21,1.24-1.52,2.06-.72,1.88-1.45,3.77-2.17,5.65-.39,1.02-.78,2.1-.63,3.17,3.63-.26,7.27-.42,10.92-.46-.5-3.01-1.59-5.93-3.23-8.51-.38-.59-.79-1.18-1.37-1.59Z"/>
          </g>
          <g>
            <path class="cls-16" d="m260.26,103.91c7.44,2.76,12.48,9.38,12.24,16.08-.24,6.71-5.21,13.89-12.29,17.24s-14.51,3.63-22.56,2.44c-3.52-.52-8.61-1.97-11.21-3.98-3.15-2.43-4.4-6.1-4.85-9.63-.53-4.22-.07-8.63,2.33-12.38,1.65-2.59,4.28-4.73,7.49-6,2.56-1.01,4.78-1.88,7.36-2.84,6.92-2.59,14.06-3.7,21.51-.94Z"/>
            <path class="cls-5" d="m240.02,137.69c-5.55-1.95-11.1-3.9-13.47-8.46-4.4-7.73-.82-15.87,5.58-21.83-.24.1-.48.19-.73.29-3.21,1.27-5.84,3.41-7.49,6-2.4,3.75-2.86,8.17-2.33,12.38.45,3.53,1.7,7.2,4.85,9.63,2.6,2.01,7.7,3.46,11.21,3.98,8.05,1.18,15.48.91,22.56-2.44,2.88-1.36,5.39-3.36,7.4-5.69-7.86,5.42-16.81,9.24-27.58,6.15Z"/>
            <path class="cls-24" d="m242.33,136.48c6.86.76,14.19-1.13,18.91-5.28s6.46-10.55,3.86-15.81c-1.28-2.57-3.52-4.82-6.34-6.35-6.49-3.51-15.62-2.82-21.84,1-5.55,3.41-9.06,9.16-9.19,14.92-.14,5.91,8.53,10.85,14.61,11.52Z"/>
            <path class="cls-4" d="m240.48,125.58c1.62,1.96,4.59,3.11,7.46,2.9,2.88-.21,5.54-1.78,6.71-3.95.76-1.41.9-3.06.27-4.52-.91-2.12-3.5-3.67-6.24-3.74-5.48-.15-11.81,4.96-8.21,9.31Z"/>
            <path class="cls-4" d="m265.1,115.39c-1.28-2.57-3.52-4.82-6.34-6.35-6.49-3.51-15.62-2.82-21.84,1-5.54,3.41-9.06,9.16-9.19,14.92-.13,5.91,8.53,10.85,14.61,11.52,6.85.76,14.19-1.13,18.91-5.28,4.72-4.15,6.46-10.55,3.86-15.81Zm-5.01,15.04c-4.33,3.81-11.07,5.54-17.37,4.85-5.59-.62-13.55-5.15-13.42-10.58.12-5.29,3.35-10.58,8.44-13.71,5.72-3.51,14.11-4.15,20.07-.92,2.59,1.41,4.65,3.47,5.83,5.83,2.39,4.83.79,10.71-3.54,14.53Z"/>
            <path class="cls-16" d="m241.6,125.06c1.36,1.64,3.84,2.6,6.24,2.43,2.4-.18,4.64-1.49,5.62-3.3.64-1.18.75-2.56.23-3.78-.77-1.77-2.93-3.07-5.22-3.13-4.58-.12-9.88,4.15-6.87,7.78Z"/>
            <path class="cls-5" d="m248.64,125.9c-2.4.18-4.89-.79-6.24-2.43-.84-1.01-1.03-2.07-.78-3.07-1.06,1.4-1.31,3.08-.01,4.65,1.36,1.64,3.84,2.6,6.24,2.43,2.4-.18,4.64-1.49,5.62-3.3.17-.31.3-.63.39-.96-1.11,1.48-3.09,2.52-5.21,2.68Z"/>
            <g class="cls-10">
              <path class="cls-18" d="m244.49,104.82c8.85-1.86,20.01.88,23.84,9.85-.67-.89-1.24-1.96-2.04-2.75-5.25-6.22-14.07-7.6-21.81-7.1h0Z"/>
            </g>
            <path class="cls-14" d="m240.81,115.61c-1.02-.65-1.27-1.9-.77-2.87.56-1.07,1.83-1.78,3.14-2.24,3.9-1.38,8.6-1.07,12.26.7,3.66,1.77,6.25,4.92,7.04,8.35.54,2.37.24,4.89-1.05,7.06s-3.61,3.94-6.41,4.69c-.65.17-1.33.29-2,.19s-1.31-.46-1.52-.99c-.22-.55.07-1.16.52-1.6.45-.44,1.05-.76,1.6-1.11,1.85-1.19,3.21-2.91,3.64-4.8.59-2.64-.78-5.51-3.4-7.12-1.97-1.21-4.57-1.66-6.98-1.3-1.84.28-4.28,2.2-6.08,1.06Z"/>
          </g>
          <g>
            <path class="cls-21" d="m146.14,64.24c-2.15-1.43-4.22-2.38-6.37-3.8-8.72,6.76-19.46,12.29-30.37,13.99,2.18,1.78,3.81,4.23,4.59,6.94,12.51-.53,24.76-7.01,32.15-17.12Z"/>
            <path class="cls-5" d="m116.82,76.56c-1.7-.57-2.58-1.54-2.37-3.21-1.67.44-3.35.8-5.04,1.07,2.18,1.78,3.81,4.23,4.59,6.94,8.23-.35,16.34-3.29,23.03-8.13-7.16.58-13.39,6.06-20.21,3.33Z"/>
            <path class="cls-8" d="m120.97,76.13c-.82.01-3.3.06-3.61-.71-.25-.62.09-1.55.64-1.92s2.74-.81,3.39-.94c5.66-1.11,11.02-3.72,15.39-7.48,1.04-.9,1.77-2.61,3.14-2.67,1.09-.05,2.56,1.28,3.04,2.26.49.97.07,1.97-.62,2.81-.62.75-3.08,2.06-3.99,2.41-5.14,1.98-8.57,3.13-13.63,5.29-1.18.5-2.49.93-3.76.95Z"/>
          </g>
          <g>
            <path class="cls-17" d="m273.14,69.85c-11.55,2.31-24.19-2.14-31.76-11.16-2.27,1.69-4.55,3.39-6.82,5.08,8.42,10.31,20.77,17.22,33.91,19.35,1.29-4.49,3.5-8.74,4.67-13.26Z"/>
            <path class="cls-5" d="m273.14,69.85c-.27.05-.55.09-.82.13-.64,3.49-3.07,6.44-5.5,7.05-9.3,2.91-16.89-2.71-25.28-6.22,7.65,6.41,17.07,10.7,26.94,12.3,1.29-4.49,3.5-8.74,4.67-13.26Z"/>
            <path class="cls-8" d="m238.01,65.05c-.04-.98.5-2.01,1.41-2.36.66-.26,1.42-.14,2.07.15s1.21.74,1.77,1.16c6.73,5.07,15.23,7.71,23.65,7.36.83-.04,1.89.03,2.19.81.3.76-.41,1.53-1.1,1.96-2.32,1.46-5.21,1.78-7.93,1.44-2.72-.34-5.32-1.3-7.88-2.25-3.11-1.15-6.22-2.29-9.33-3.45-2.05-.76-4.76-2.36-4.85-4.82Z"/>
          </g>
          <path class="cls-8" d="m277.44,116.83c-.23-.52.15-1.16.67-1.41.52-.25,1.12-.23,1.69-.22,5.08.1,10.17-1.17,14.61-3.63.45-.25.89-.51,1.39-.62s1.06-.05,1.44.29c.26.24.4.58.54.9.34.84.68,1.68,1.02,2.52.15.37.3.76.22,1.15-.13.64-.83.99-1.44,1.22-2.75,1.03-5.65,1.67-8.57,1.92-2.5.21-5.34.39-7.72-.51-.97-.37-3.39-.56-3.85-1.6Z"/>
          <path class="cls-15" d="m266.7,9.6C243.11,3.47,216.26,0,187.78,0,93.8,0,17.6,37.78,17.6,84.39c0,5.89,1.21,11.64,3.53,17.18,16,38.36,84.54,67.2,166.65,67.2,40.07,0,76.9-6.86,105.97-18.36,31.34-12.37,53.67-30.13,61.32-50.44,1.9-5.05,2.9-10.26,2.9-15.59,0-32.49-37.02-60.68-91.28-74.79Zm81.96,89.78c-7.36,19.53-28.83,36.61-58.97,48.51-27.96,11.05-63.38,17.65-101.9,17.65-78.96,0-144.87-27.74-160.26-64.63-2.23-5.34-3.4-10.86-3.4-16.52C24.13,39.57,97.4,3.24,187.78,3.24c27.39,0,53.2,3.34,75.88,9.23,52.18,13.57,87.78,40.68,87.78,71.92,0,5.12-.96,10.14-2.79,14.99Z"/>
          <g class="cls-2">
            <path class="cls-6" d="m53.74,83.21c-7.99,14.09,2.52,29.45,13.05,38.86,6.26,5.49,13.21,10.18,20.49,14.34,6.83,3.97,13.93,7.5,21.13,10.81l-.12.29c-19.44-7.89-40.56-17.4-53.81-34.35-3.89-5.46-6.46-12.22-5.75-19,.39-4.15,2.04-8.15,4.77-11.15l.24.2h0Z"/>
          </g>
          <path class="cls-7" d="m32.37,69.26c1.49,3.54,12.21-3.26,15.18-5.45,39.26-29,99.29-36.04,143.98-35.68,44.69.36,95.96,12.04,137.31,36.85,1.86-3.82-6.26-11.77-8.7-15.2-2.45-3.43-14.5-12.63-18.02-14.77-31.51-19.14-59.17-23.47-94.92-25.21-36.56-1.78-73.58-.55-108.52,10.96-8.7,2.87-15.38,6.6-24.71,10.92-18.65,8.63-44.94,29.63-41.59,37.58Z"/>
          <path class="cls-7" d="m244.53,238.48c13.69,2.13,28.16,2.87,40.76-2.8,6.55-2.95,12.99-7.83,17.73-13.21,5.42-6.16,9.18-15.22,12.86-22.5,7.87-15.6,14.2-31.98,18.86-48.83.92-3.33,2.72-9.54.19-12.64-2.97-3.64-7.79.8-10,3.11-10.33,10.83-25.11,16.07-39.53,20.08-42.4,11.78-86.9,15.87-130.73,12.18-5.4-.45-10.79-1.03-16.17-1.72-4.08-.52-12.33-3.54-16.17-2.29-8.34,2.7-.5,12.38,3.42,15.38,7.4,5.66,14.87,11.38,22.69,16.49,28.57,18.68,61.19,31.11,94.88,36.57.4.06.8.13,1.2.19Z"/>
          <g class="cls-9">
            <path class="cls-18" d="m255.32,8.37c29.98,5.75,67.25,19.63,87.17,43.68,7.1,8.45,11.87,18.98,12.79,30.02-6.34-43.22-62.77-64.18-99.95-73.69h0Z"/>
          </g>
          <g class="cls-9">
            <path class="cls-18" d="m84.96,151.55c69.21,26.14,191.21,24.75,249.77-24.78,4.42-3.72,8.55-7.81,12.27-12.25l.12.1c-3.58,4.57-7.6,8.8-11.92,12.69-47.88,41.2-122.27,45.59-182.63,39.98-17.31-1.9-34.51-4.99-51.23-9.9-5.56-1.65-11.09-3.45-16.44-5.7l.06-.15h0Z"/>
          </g>
          <g>
            <path class="cls-23" d="m453.19,215.2l-290.29,136.16c-1.73.81-1.91,3.21-.32,4.27l.21.14c1.4.93,3.17,1.1,4.71.45l295.81-124.83c-1.16-6.49-4.73-11.79-10.12-16.19Z"/>
            <path class="cls-6" d="m168.29,352.25c-1.55.65-3.32.48-4.71-.45l-.21-.14c-.15-.1-.27-.22-.39-.34l-.08.04c-1.73.81-1.91,3.21-.32,4.27l.21.14c1.4.93,3.17,1.1,4.71.45l295.81-124.83c-.2-1.13-.48-2.22-.83-3.28l-294.19,124.14Z"/>
            <g class="cls-9">
              <line class="cls-23" x1="168.67" y1="349.97" x2="451.57" y2="221.27"/>
              <path class="cls-18" d="m168.64,349.9c83.05-37.9,200.39-92.82,282.91-128.7.09-.04.16.11.07.14-80.75,38.22-200.72,91.77-282.97,128.56h0Z"/>
            </g>
          </g>
          <g>
            <path class="cls-23" d="m433.4,188.03l-278.82,158.34c-1.66.95-1.66,3.35.01,4.28l.22.12c1.46.82,3.24.85,4.73.08l285.2-147.47c-1.66-6.38-5.63-11.38-11.35-15.35Z"/>
            <path class="cls-6" d="m160.03,346.84c-1.49.77-3.27.74-4.73-.08l-.22-.12c-.16-.09-.29-.2-.42-.31l-.08.05c-1.66.95-1.66,3.35.01,4.28l.22.12c1.46.82,3.24.85,4.73.08l285.2-147.47c-.29-1.11-.65-2.18-1.08-3.21l-283.64,146.66Z"/>
            <g class="cls-9">
              <line class="cls-23" x1="160.22" y1="344.54" x2="432.26" y2="194.21"/>
              <path class="cls-18" d="m160.19,344.47c79.84-44.25,192.56-108.13,272.03-150.33.09-.05.17.09.08.14-77.53,44.38-192.97,107.11-272.11,150.19h0Z"/>
            </g>
          </g>
          <path class="cls-8" d="m146.66,96.33c-.65,1.62-1.7,7.83-7.77,3.45-4.72-3.4-15.66-5.61-30.53-1.02-5.67,1.75-10.92-7.18-11.29-14.38-.36-6.92,4.94-17.26,9.68-22.32,14.04-15,33.37-17.73,52.77-20.05,23.12-2.77,46.62-2.29,69.63,1.29,13.94,2.17,27.7,5.48,41.1,9.9,12.85,4.24,23.63,9.17,35.31,16.07,7.64,4.52,18.66,12.32,22.06,20.52,5.8,13.97-.27,29.13-11.37,39.4-11.11,10.27-23.76,17.22-38.87,16.81-2.79-.08-16.71,1.53-17.83-1.02-1.16-2.65,10.5-10.3,12.97-11.8,2.05-1.24,3-2.17,4.54-3.51,4.48-3.88,5.68-11.28,2.72-16.42-2.92-5.08-6.52-9.89-11.44-13.09-12.55-8.15-11.93-10.74-37.93-17.69-3.99-1.07-7.56-3.38-10.06-6.66-3.86-5.09-6.43-10.97-12.85-13.42-9.02-3.44-24.64-5.53-33.94-2.93-9.3,2.6-15.78,8.2-22.1,20.54-1.43,2.79-4.07,14.52-4.79,16.32Z"/>
          <g class="cls-13">
            <path class="cls-18" d="m264.12,51.14c22.91,5.97,69.82,23.07,66.33,52.63-.09.45-.28,1.82-.36,2.26-.33,1.22-.71,2.44-1.09,3.63-.04.13-.25.09-.23-.05.16-1.25.38-2.47.54-3.7.03-1.68.18-3.48-.05-5.14-.76-8.81-6.33-16.4-12.61-22.27-8.65-8.19-19.3-13.93-30.15-18.78-7.28-3.25-14.78-6.07-22.44-8.34-.14-.03-.09-.27.06-.23h0Z"/>
          </g>
          <path class="cls-22" d="m160.22,148.95s35.7-2.94,52.07,4.35"/>
          <path class="cls-22" d="m142.06,120.7s21.37-6.13,43.49,7.69"/>
          <g>
            <path class="cls-16" d="m120.94,103.44c-8.78,2.04-16.11,9.34-18.19,18.11-.78,3.3-.84,6.85.42,9.99,1.73,4.31,5.7,7.31,9.8,9.48,5.18,2.74,10.94,4.52,16.8,4.57,5.86.04,11.82-1.74,16.34-5.47,4.52-3.73,7.45-9.49,7.24-15.35-.28-7.68-5.86-11.99-11.4-16.34-5.88-4.62-13.66-6.7-21.02-4.99Z"/>
            <g>
              <path class="cls-5" d="m107.38,131.62c-5.21-8.57-.44-16.9,4.8-24.09-4.63,3.42-8.11,8.41-9.43,14.02-.78,3.3-.84,6.85.42,9.99,1.73,4.31,5.7,7.31,9.8,9.48,5.18,2.74,10.94,4.52,16.8,4.57,5.86.04,11.82-1.74,16.34-5.47,2.31-1.9,4.2-4.34,5.47-7.05-2.88,3.48-6.97,5.97-11.7,7.55-12.22,4.14-26.12,2.11-32.5-9Z"/>
              <path class="cls-16" d="m141.96,108.43c-5.88-4.62-13.66-6.7-21.02-4.99-3.17.74-6.14,2.16-8.75,4.09-5.24,7.2-10.01,15.52-4.8,24.09,6.38,11.1,20.28,13.13,32.5,9,4.73-1.57,8.82-4.07,11.7-7.55,1.22-2.59,1.87-5.44,1.77-8.3-.28-7.68-5.86-11.99-11.4-16.34Z"/>
              <path class="cls-24" d="m118.17,114.09c-3.51,2.46-6.14,6.3-6.65,10.56-.52,4.25,1.28,8.83,4.85,11.21,3.1,2.07,7.08,2.33,10.79,1.92,5.12-.57,10.36-2.49,13.55-6.52,3.55-4.48,3.51-13.3-1.34-16.96-5.95-4.48-15.17-4.43-21.2-.2Z"/>
              <path class="cls-4" d="m139.36,114.3c-5.95-4.48-15.17-4.43-21.2-.2-3.51,2.46-6.14,6.3-6.65,10.56s1.28,8.83,4.84,11.21c3.1,2.07,7.08,2.33,10.79,1.92,5.12-.57,10.36-2.49,13.55-6.52,3.55-4.48,3.51-13.3-1.34-16.96Zm.73,16.65c-3.05,3.85-8.05,5.68-12.93,6.23-3.54.39-7.34.14-10.3-1.83-3.4-2.27-5.12-6.64-4.62-10.7.49-4.06,3-7.73,6.35-10.08,5.75-4.03,14.55-4.08,20.23.19,4.63,3.49,4.66,11.91,1.28,16.19Z"/>
              <path class="cls-4" d="m129.43,118.48c-2.75-.66-5.99.46-7.6,2.64-1.61,2.17-1.45,5.22.37,7.15,1.19,1.26,3.01,2.03,4.89,2.08s3.8-.64,5.17-1.83c1.34-1.16,2.15-2.81,2.16-4.45,0-2.1-1.36-4.11-3.42-5.06l-1.56-.53Z"/>
              <path class="cls-16" d="m129.14,119.37c-2.34-.56-5.08.39-6.44,2.23-1.36,1.84-1.23,4.43.31,6.06,1.01,1.07,2.55,1.73,4.15,1.76,1.6.04,3.22-.54,4.38-1.55,1.14-.99,1.83-2.38,1.83-3.77,0-1.78-1.15-3.49-2.9-4.29l-1.33-.45Z"/>
              <path class="cls-5" d="m132.11,126.2c-1.16,1.01-2.79,1.59-4.38,1.55-1.6-.04-3.14-.69-4.15-1.76-.98-1.04-1.38-2.47-1.2-3.84-.98,1.78-.76,4.04.64,5.52,1.01,1.07,2.55,1.73,4.15,1.76,1.6.04,3.22-.54,4.38-1.55.98-.85,1.63-2.01,1.79-3.21-.31.57-.72,1.09-1.23,1.53Z"/>
              <g class="cls-10">
                <path class="cls-18" d="m124.46,107.32c9.42-1.16,20.51,3.37,23.13,13.18-.57-1.03-.99-2.19-1.69-3.13-4.41-7.24-13.37-9.91-21.44-10.05h0Z"/>
              </g>
              <path class="cls-14" d="m119.97,119.6c-.72-.33-1.9-.89-1.9-2.06,0-.79.83-2.08,1.7-2.68.65-.45,3.4-1.81,4.18-1.96,3.12-.59,3.84-.58,6.44-.24,2.63.34,5.1,1.42,7.12,3.13,2.42,2.05,3.69,5.36,3.28,8.5s-2.51,6.01-5.38,7.35c-.76.36-1.77.58-2.37,0-.5-.48-.47-1.31-.17-1.93.3-.62.82-1.11,1.24-1.65,1.44-1.83,1.86-4.42,1.07-6.61s-2.77-3.91-5.05-4.4c-1.9-.4-3.86.03-5.63.75-1.29.53-3.1,2.47-4.54,1.8Z"/>
            </g>
          </g>
        </g>
      </g>
    </g>
  </g>
</svg>