<?xml version="1.0" encoding="UTF-8"?>
<svg id="Calque_2" data-name="Calque 2" xmlns="http://www.w3.org/2000/svg" viewBox="0 0 262.4 229.84">
  <defs>
    <style>
      .cls-1 {
        fill: #fbd155;
      }

      .cls-2 {
        fill: #fee881;
      }

      .cls-3 {
        fill: #ff7954;
      }

      .cls-4 {
        fill: #fff2bd;
      }

      .cls-5 {
        fill: #f05142;
      }

      .cls-6 {
        fill: #5db991;
      }

      .cls-7 {
        fill: #fdb228;
      }

      .cls-8 {
        fill: #5bce99;
      }

      .cls-9 {
        fill: #bf793a;
      }
    </style>
  </defs>
  <g id="Layer_1" data-name="Layer 1">
    <g id="taco">
      <path class="cls-1" d="m12.45,101.19c-2.25-1.41-4.2-3.24-5.72-5.42-1.81-2.59-3.74-6-5.15-10.24-.49-1.46-.86-2.88-1.15-4.23-1.21-5.67.19-11.59,3.73-16.19,8.09-10.51,21.12-23.94,39.94-35.18,13.31-7.95,29.27-14.1,47.55-15.18,19.41-1.15,34.94,3.81,44.78,6.95,12.07,3.85,48.47,17.19,75.2,54.03,7.08,9.76,18.94,26.11,23.23,49.94,6.02,33.49-6.37,62.56-17,80.32-5.74,9.58-18.26,12.55-27.72,6.61L12.45,101.19Z"/>
      <path class="cls-6" d="m21.89,83.53s-27.87-6.68-12.76-22.87c12.04-12.88,15.16-9.43,19.61-11.15,9.77-3.79,6.3-16.34,13.33-24.77,10.36-13.12,14.99,9.87,20.71-1.84,2.81-4.85-.96-8.35.97-11.74,2-3.5,8.51-5.03,12.19-2.88,5.45,3.58,3.54,14.5,10.32,3.78,4.86-7.69,4.53-10.46,7.05-11.63,3.58-1.66,9.69,1.66,12.11,6.25,2.62,4.96.42,10.4,1.51,10.7,1.93.53,7.24-17.15,11.33-16.35.81.16,1.53.9,2.12,2.38,3.11,7.7,13.51,12.19,17.49,10.14,2.65-1.36,1.29-5.04,4.39-6.87,3.11-1.84,7.96-.19,10.85,2.29,3.48,2.99,2.11,5.46,5.14,8.26,4.33,4,8.66.37,13.89,3.7,6.38,4.06,4.9,12.63,9.3,13.39,3.2.55,4.27-3.95,10.36-5.57.42-.11,7.78-1.96,12.26,2.23,2.86,2.67,3.18,6.65,3.65,9.75.83,5.54-.76,9.18.67,12.26.19.41,1.6,2.79,4.41,4.01,4.34,1.89,6.88-1.31,11.01-.11,4.46,1.3,8.22,7.02,7.28,11.11-.97,4.25-6.68,5.41-6.42,8.83.12,1.66,1.59,2.7,2.42,3.42,5.29,4.57,15.1,12.75,13.81,16.49s-4.3,11.98,2.86,17.13c7.16,5.15,6.45,13.22,5.38,18.09-.66,3.04-4.46,3.49-5.42,6.01-1.4,3.7,2.42,7.6,2.66,7.86,3.27,3.53,6.37,1.96,10.19,4.74,4.11,3,6.05,8.86,5.81,13.47-.41,7.65-6.71,9.77-5.72,16.1.63,4.03,3.23,3.5,4.67,8.3,2.88,9.6-5.41,18.8-7.27,20.27-1.28,1.01-2.64,1.43-2.64,1.44-1.46.45-2.19.19-2.84.34-3.39.78-1.65,12.17-5.74,14.51-1.21.69-3.47.9-8.09-2.07-33.18-17.45-68.57-37.84-212.85-139.4Z"/>
      <g>
        <path class="cls-8" d="m114.69,6.83c.79.14,1.48.87,2.03,2.34,2.87,7.69,12.97,11.96,16.92,9.81,1.86-1.02,1.78-3.15,2.67-4.99-4.66.54-13.15-3.76-15.91-10.59-.6-1.47-1.31-2.22-2.12-2.38-1.91-.37-4.08,3.28-6.06,7.23.86-1,1.7-1.57,2.47-1.43Z"/>
        <path class="cls-8" d="m63.48,15.85c2.83-1.75,6.93-2.23,9.52-.71,5.26,3.48,3.14,14.53,10.03,3.56,4.95-7.87,4.69-10.65,7.19-11.89,3.55-1.76,9.46,1.44,11.74,6.02,2.45,4.94.17,10.47,1.23,10.74.77.2,2.18-2.72,3.85-6.18-.03,0-.07,0-.1-.01-1.09-.3,1.11-5.74-1.51-10.7-2.43-4.6-8.53-7.91-12.11-6.25-2.52,1.17-2.19,3.94-7.05,11.63-6.78,10.72-4.87-.19-10.32-3.78-3.68-2.15-10.19-.63-12.19,2.88-.86,1.5-.59,3.03-.27,4.69Z"/>
        <path class="cls-8" d="m251.41,210.15s1.36-.42,2.64-1.44c1.86-1.47,10.15-10.67,7.27-20.27-1.44-4.8-4.04-4.28-4.67-8.3-.99-6.33,5.31-8.45,5.72-16.1.24-4.61-1.69-10.47-5.81-13.47-3.82-2.78-6.93-1.21-10.19-4.74-.24-.26-4.07-4.16-2.66-7.86.96-2.53,4.75-2.97,5.42-6.01,1.06-4.87,1.77-12.94-5.38-18.09-7.16-5.15-4.15-13.38-2.86-17.13s-8.52-11.93-13.81-16.49c-.83-.72-2.3-1.76-2.42-3.42-.26-3.43,5.45-4.59,6.42-8.83.94-4.1-2.82-9.81-7.28-11.11-4.12-1.2-6.67,2-11.01.11-2.8-1.22-4.22-3.61-4.41-4.01-1.43-3.08.16-6.72-.67-12.26-.46-3.1-.79-7.08-3.65-9.75-4.48-4.19-11.84-2.34-12.26-2.23-6.09,1.62-7.15,6.11-10.36,5.57-4.4-.75-2.92-9.33-9.3-13.39-5.23-3.33-9.56.3-13.89-3.7-3.03-2.8-1.66-5.27-5.14-8.26-2.88-2.47-7.73-4.12-10.85-2.29-1.97,1.16-2.14,3.06-2.67,4.65,2.98-.8,6.73.62,9.09,2.68,3.35,2.93,1.94,5.45,4.85,8.2,4.16,3.93,8.49.17,13.54,3.4,6.16,3.94,4.51,12.62,8.81,13.27,3.13.48,4.28-4.08,10.29-5.85.41-.12,7.68-2.16,11.97,1.96,2.74,2.62,2.97,6.62,3.35,9.74.69,5.57-.96,9.27.37,12.34.18.41,1.51,2.78,4.23,3.94,4.21,1.8,6.78-1.48,10.8-.37,4.35,1.21,7.9,6.88,6.89,11.03-1.05,4.3-6.68,5.61-6.51,9.05.08,1.67,1.5,2.68,2.3,3.39,5.08,4.48,14.51,12.49,13.16,16.3-1.35,3.8-4.5,12.17,2.4,17.19,6.9,5.02,6.01,13.17,4.86,18.11-.72,3.08-4.45,3.62-5.45,6.19-1.46,3.76,2.2,7.6,2.43,7.86,3.12,3.48,6.21,1.82,9.89,4.54,3.97,2.93,5.73,8.78,5.38,13.43-.58,7.72-6.81,10-5.99,16.36.52,4.04,3.09,3.45,4.39,8.26,2.6,9.61-5.75,19.07-7.61,20.6-1.28,1.05-2.63,1.51-2.63,1.51-1.44.49-2.16.24-2.79.41-1.88.48-2.25,4.32-2.93,8.02.03.01.06.03.08.04,4.62,2.97,6.88,2.75,8.09,2.07,4.09-2.34,2.35-13.73,5.74-14.51.65-.15,1.38.12,2.84-.34Z"/>
        <path class="cls-8" d="m39.39,32.51c10.47-13.46,14.47,9.59,20.36-2.34.97-1.67,1.2-3.17,1.15-4.55-4.94,4.31-9.62-12.53-18.83-.88-2.77,3.33-3.91,7.29-4.88,11.11.61-1.16,1.32-2.28,2.19-3.34Z"/>
        <path class="cls-8" d="m6.24,69.48c12.11-13.27,15.09-9.86,19.49-11.69,5.41-2.26,6.82-7.19,8.25-12.6-1.16,1.86-2.78,3.37-5.24,4.33-4.45,1.71-7.57-1.74-19.61,11.15-3.85,4.12-4.91,7.62-4.35,10.55.44-.56.92-1.14,1.45-1.73Z"/>
      </g>
      <path class="cls-9" d="m131.48,29.38s-17.07-8.86-27.44-3.06c-10.36,5.8-3.71,6.9-19.05,4.04-15.34-2.85-22.81,9.06-24.29,7.52-1.48-1.54,9.84,1.86,0,0-9.84-1.86-14.09,1.01-15.75,3.65-1.66,2.65,7.94-4.86,0,0-7.94,4.86-8.66,5.03-10.27,9.55-1.61,4.52-2.17,5.41-5.14,7.23-2.98,1.82-.78,3.2-3.32,5.3-2.54,2.1-6.37-1.54-11.13,4.09-4.75,5.63-7.06,5.41-6.09,9.71s-4.7,7.5,1.88,11.63,16.98,5.11,18.44,11.56,6.88-1.22,14.93,9.36c8.05,10.58,25.72,20.43,32.24,27.59,6.52,7.16,44.01,26.37,48.29,30.28,4.28,3.91,9.43,8.37,17.88,12.44,8.46,4.07,13.14,1.48,31.58,13.04,18.44,11.56,24.58,15.41,31.17,19.54,6.58,4.13,29.48-142.61-73.94-183.47Z"/>
      <g>
        <circle class="cls-5" cx="128.93" cy="67.55" r="57.8" transform="translate(-14.14 40.8) rotate(-17.06)"/>
        <ellipse class="cls-3" cx="128.93" cy="67.55" rx="54.67" ry="52.68" transform="translate(-9.88 111.34) rotate(-45.16)"/>
        <path class="cls-5" d="m107.83,113.71s-22.98-17.18-19.13-27.13c3.84-9.95,33.12-16.91,34.37-11.61s-8.11,38.13-15.24,38.74Z"/>
        <path class="cls-5" d="m150.18,107.2c-2.28,5.73-9.6,7.4-12.12,7.97-1.13.26-11.32,2.46-14.98-2.62-1.63-2.27-1.14-4.85,0-10.89,4.06-21.67,4.27-23.57,6.22-24.2,5.25-1.69,12.83,9.14,15,12.23,3.84,5.49,8.19,11.7,5.89,17.5Z"/>
        <path class="cls-5" d="m155.14,31.55c6.45-.76,10.84,5.05,12.35,7.05.68.9,6.67,9.04,3.09,14.86-1.6,2.6-4.3,3.42-10.62,5.37-22.67,6.99-24.61,7.75-25.96,6.28-3.63-3.93,4.08-16.12,6.28-19.61,3.91-6.18,8.33-13.18,14.86-13.95Z"/>
        <path class="cls-5" d="m109.09,25.61c2.74-5.89,9.98-6.58,12.48-6.82,1.12-.11,11.2-.94,14.27,5.16,1.37,2.72.65,5.45-1,11.86-5.94,22.97-6.31,25.02-8.27,25.4-5.24,1.03-11.59-11.93-13.4-15.63-3.22-6.57-6.86-14.01-4.09-19.97Z"/>
        <path class="cls-5" d="m80.5,59.35c-3.18-5.66.5-11.95,1.77-14.11.57-.97,5.79-9.63,12.53-8.56,3.01.48,4.81,2.66,9.04,7.75,15.17,18.25,16.6,19.75,15.77,21.56-2.23,4.86-16.45,2.43-20.51,1.73-7.21-1.23-15.37-2.63-18.59-8.36Z"/>
        <path class="cls-5" d="m179.7,66.28s-4.7,28.28-14.85,29.64c-10.15,1.37-28.75-20.95-24.77-24.57,3.98-3.61,36.02-11.03,39.63-5.08Z"/>
      </g>
      <g>
        <circle class="cls-5" cx="198.84" cy="118.26" r="57.8" transform="translate(-17.61 36.57) rotate(-10.07)"/>
        <ellipse class="cls-3" cx="198.84" cy="118.26" rx="54.67" ry="52.68" transform="translate(-25.22 175.86) rotate(-45.16)"/>
        <path class="cls-5" d="m177.74,164.42s-22.98-17.18-19.13-27.13,33.12-16.91,34.37-11.61-8.11,38.13-15.24,38.74Z"/>
        <path class="cls-5" d="m220.09,157.91c-2.28,5.73-9.6,7.4-12.12,7.97-1.13.26-11.32,2.46-14.98-2.62-1.63-2.27-1.14-4.85,0-10.89,4.06-21.67,4.27-23.57,6.22-24.2,5.25-1.69,12.83,9.14,15,12.23,3.84,5.49,8.19,11.7,5.89,17.5Z"/>
        <path class="cls-5" d="m225.05,82.26c6.45-.76,10.84,5.05,12.35,7.05.68.9,6.67,9.04,3.09,14.86-1.6,2.6-4.3,3.42-10.62,5.37-22.67,6.99-24.61,7.75-25.96,6.28-3.63-3.93,4.08-16.12,6.28-19.61,3.91-6.18,8.33-13.18,14.86-13.95Z"/>
        <path class="cls-5" d="m179,76.32c2.74-5.89,9.98-6.58,12.48-6.82,1.12-.11,11.2-.94,14.27,5.16,1.37,2.72.65,5.45-1,11.86-5.94,22.97-6.31,25.02-8.27,25.4-5.24,1.03-11.59-11.93-13.4-15.63-3.22-6.57-6.86-14.01-4.09-19.97Z"/>
        <path class="cls-5" d="m150.41,110.06c-3.18-5.66.5-11.95,1.77-14.11.57-.97,5.79-9.63,12.53-8.56,3.01.48,4.81,2.66,9.04,7.75,15.17,18.25,16.6,19.75,15.77,21.56-2.23,4.86-16.45,2.43-20.51,1.73-7.21-1.23-15.37-2.63-18.59-8.36Z"/>
        <path class="cls-5" d="m249.61,116.99s-4.7,28.28-14.85,29.64c-10.15,1.37-28.75-20.95-24.77-24.57,3.97-3.61,36.02-11.03,39.62-5.08Z"/>
      </g>
      <path class="cls-2" d="m215.85,228.5c-33.12-21.63-60.69-37.94-80.08-49.02-32.53-18.58-65.63-35.89-109.42-67.62-4.03-2.92-7.62-5.58-10.67-7.86-3.53-2.64-4.34-7.6-1.83-11.22,10.18-14.72,36.83-46.59,82.65-54.89,16.86-3.05,33.94-2.48,50.22,1.28h0c28.67,6.63,54.84,23.21,72.84,47.41,28.03,37.7,32.23,88.51,11.85,131.44-1.21,2.55-2.51,5.08-3.9,7.57-2.32,4.16-7.67,5.5-11.66,2.9Z"/>
      <path class="cls-1" d="m215.85,228.5c-33.12-21.63-60.69-37.94-80.08-49.02-32.53-18.58-65.63-35.89-109.42-67.62-4.03-2.92-7.62-5.58-10.67-7.86-3.53-2.64-4.34-7.6-1.83-11.22,10.18-14.72,36.83-46.59,82.65-54.89,16.86-3.05,33.94-2.48,50.22,1.28h0s-113.88,27.26-104.41,58.68c7.94,26.35,145.06,97.8,189.1,120.17-1.21,2.55-2.51,5.08-3.9,7.57-2.32,4.16-7.67,5.5-11.66,2.9Z"/>
      <path class="cls-7" d="m99.8,99.7c-1.4,2.24-5.62,2.13-9.42-.26s-5.74-6.13-4.33-8.37c1.4-2.24,5.62-2.13,9.42.26,3.8,2.38,5.74,6.13,4.33,8.37Z"/>
      <path class="cls-7" d="m208.56,139.39c-1.4,2.24-5.62,2.13-9.42-.26-3.8-2.38-5.74-6.13-4.33-8.37,1.4-2.24,5.62-2.13,9.42.26s5.74,6.13,4.33,8.37Z"/>
      <path class="cls-7" d="m154.86,73.79c-1.4,2.24-5.62,2.13-9.42-.26-3.8-2.38-5.74-6.13-4.33-8.37,1.4-2.24,5.62-2.13,9.42.26s5.74,6.13,4.33,8.37Z"/>
      <path class="cls-7" d="m176.95,127.12c-1.12,1.78-4.47,1.69-7.49-.2s-4.56-4.87-3.45-6.65c1.12-1.78,4.47-1.69,7.49.2,3.02,1.89,4.56,4.87,3.45,6.65Z"/>
      <path class="cls-7" d="m200.14,171.63c-1.12,1.78-4.47,1.69-7.49-.2s-4.56-4.87-3.45-6.65c1.12-1.78,4.47-1.69,7.49.2s4.56,4.87,3.45,6.65Z"/>
      <path class="cls-7" d="m116.3,77.3c-1.12,1.78-4.47,1.69-7.49-.2-3.02-1.89-4.56-4.87-3.45-6.65,1.12-1.78,4.47-1.69,7.49.2s4.56,4.87,3.45,6.65Z"/>
      <path class="cls-7" d="m53.99,85c-.97,1.55-3.89,1.47-6.52-.18-2.63-1.65-3.97-4.24-3-5.79.97-1.55,3.89-1.47,6.52.18,2.63,1.65,3.97,4.24,3,5.79Z"/>
      <path class="cls-7" d="m108.5,47.44c-.97,1.55-3.89,1.47-6.52-.18-2.63-1.65-3.97-4.24-3-5.79.97-1.55,3.89-1.47,6.52.18,2.63,1.65,3.97,4.24,3,5.79Z"/>
      <path class="cls-7" d="m147.45,147.53c-.97,1.55-3.89,1.47-6.52-.18-2.63-1.65-3.97-4.24-3-5.79.97-1.55,3.89-1.47,6.52.18,2.63,1.65,3.97,4.24,3,5.79Z"/>
      <path class="cls-7" d="m137.18,106.7c-.97,1.55-3.89,1.47-6.52-.18-2.63-1.65-3.97-4.24-3-5.79.97-1.55,3.89-1.47,6.52.18,2.63,1.65,3.97,4.24,3,5.79Z"/>
      <path class="cls-7" d="m118.35,127.32c-.97,1.55-3.89,1.47-6.52-.18-2.63-1.65-3.97-4.24-3-5.79.97-1.55,3.89-1.47,6.52.18,2.63,1.65,3.97,4.24,3,5.79Z"/>
      <path class="cls-7" d="m174.25,168.26c-.97,1.55-3.89,1.47-6.52-.18-2.63-1.65-3.97-4.24-3-5.79.97-1.55,3.89-1.47,6.52.18,2.63,1.65,3.97,4.24,3,5.79Z"/>
      <path class="cls-7" d="m196.48,79.51c-.97,1.55-3.89,1.47-6.52-.18-2.63-1.65-3.97-4.24-3-5.79.97-1.55,3.89-1.47,6.52.18,2.63,1.65,3.97,4.24,3,5.79Z"/>
      <path class="cls-7" d="m222.21,198.33c-.97,1.55-3.89,1.47-6.52-.18-2.63-1.65-3.97-4.24-3-5.79.97-1.55,3.89-1.47,6.52.18,2.63,1.65,3.97,4.24,3,5.79Z"/>
      <path class="cls-7" d="m178.41,98.15c-.97,1.55-3.89,1.47-6.52-.18-2.63-1.65-3.97-4.24-3-5.79.97-1.55,3.89-1.47,6.52.18,2.63,1.65,3.97,4.24,3,5.79Z"/>
      <path class="cls-7" d="m76.58,116.36c-.97,1.55-3.89,1.47-6.52-.18-2.63-1.65-3.97-4.24-3-5.79.97-1.55,3.89-1.47,6.52.18,2.63,1.65,3.97,4.24,3,5.79Z"/>
      <path class="cls-4" d="m217.68,102.12c2.23,2.5,20.16,31.31,15.48,66.21s-42.31-96.3-15.48-66.21Z"/>
    </g>
  </g>
</svg>