<?xml version="1.0" encoding="UTF-8"?>
<svg id="Calque_2" data-name="Calque 2" xmlns="http://www.w3.org/2000/svg" viewBox="0 0 315.89 316.95">
  <defs>
    <style>
      .cls-1 {
        fill: #ffd1ab;
      }

      .cls-2 {
        fill: #fff0d9;
      }

      .cls-3 {
        fill: #79a123;
      }

      .cls-4 {
        fill: #ffd19c;
      }

      .cls-5 {
        fill: #e64b30;
      }

      .cls-6 {
        fill: #9e541b;
      }

      .cls-7 {
        fill: #ffb15e;
      }

      .cls-8 {
        fill: #a1d5e3;
      }

      .cls-9 {
        fill: #6e2016;
      }

      .cls-10 {
        fill: #ffb67a;
      }

      .cls-11 {
        fill: #ab541a;
      }

      .cls-12 {
        fill: #8f291b;
      }

      .cls-13 {
        fill: #4a7575;
      }

      .cls-14 {
        fill: #ee9737;
      }

      .cls-15 {
        fill: #ab3b2c;
      }

      .cls-16 {
        fill: #74b2c4;
      }

      .cls-17 {
        fill: #d47f24;
      }

      .cls-18 {
        fill: #631b11;
      }

      .cls-19 {
        fill: #568b9c;
      }
    </style>
  </defs>
  <g id="Layer_1" data-name="Layer 1">
    <g>
      <g>
        <path class="cls-10" d="m6.08,149.17c5.26,31.43,10.52,62.87,15.79,94.3,1.64,9.81,3.85,28.94,7.08,32.53,11.43,12.66,33.26,24.85,54.3,30.59,49.93,13.61,103.45,13.82,153.49.62,17.41-4.59,35.5-13.25,47.26-26.89,3.54-4.1,5.31-19.45,7.1-29.64,5.35-30.42,10.69-60.84,16.04-91.25-24.31,22.6-56.81,35-89.69,39.56-32.88,4.56-66.34,1.79-99.22-2.77-38.97-5.41-79.81-14.41-112.15-47.04Z"/>
        <path class="cls-16" d="m4.95,147.56c5.48,35.62,11.28,71.18,17.42,106.7.51,2.94,1.05,5.97,2.62,8.51,1.55,2.5,3.97,4.31,6.38,6,52.53,36.99,121.95,43.37,184.92,30.63,23.46-4.75,47.16-12.34,65.22-28.05,3.17-2.76,6.2-5.83,7.99-9.63,1.31-2.78,1.89-5.83,2.47-8.84,5.42-28.36,10.84-56.72,16.25-85.09-81.95,44.2-184.39,48.26-269.58,10.68-12.73-5.61-26.21-13.38-33.68-30.92Z"/>
        <path class="cls-5" d="m81.35,221.95c.05,17.41.46,34.82,1.23,52.21.07,1.53.15,3.11.83,4.47,1.33,2.67,4.48,3.79,7.34,4.63,29.84,8.71,61.49,12.81,92.14,7.63,2.05-.35,4.28-.84,5.58-2.47,1.22-1.53,1.28-3.66,1.28-5.62.04-16.8.04-33.6,0-50.39,0-1.85-.05-3.84-1.12-5.35-1.67-2.37-5.04-2.59-7.94-2.61-29.95-.19-59.89-2.81-89.41-7.84-2.03-.35-4.13-.7-6.12-.15-1.98.55-3.83,2.27-3.82,5.49Z"/>
        <path class="cls-19" d="m264.06,283.34c.07-.86.14-1.72.22-2.58.59-6.02,1.1-12.05,1.55-18.08.41-4.36.86-8.72,1.27-13.08.37-3.84.65-7.7,1.01-11.54.26-2.78.63-5.54.96-8.31.68-5.17,1.13-10.36,1.56-15.56.34-3.54.74-7.09,1.19-10.62.37-2.9.94-6.81,1.45-10.53.16-1.05.31-2.1.46-3.15.08-.29.04-.6-.11-.86-.48-.82-1.8-.69-2.05.27-.9,6.39-1.86,12.77-2.58,19.18-.6,4.99-.91,10.01-1.43,15.01-.47,4.51-1.11,8.99-1.59,13.5-.36,3.59-.61,7.19-.94,10.78-.45,4.91-.96,9.82-1.42,14.73-.41,5.21-.82,10.42-1.32,15.62-.19,1.95-.36,3.9-.52,5.85-.01.2-.03.39-.04.59l2.33-1.23Z"/>
        <path class="cls-2" d="m85.06,224.99c.17,16.22.88,32.43,2.11,48.61.07.96.17,1.98.72,2.77.61.86,1.64,1.29,2.63,1.66,13.96,5.2,28.94,6.93,43.74,8.61,15.08,1.71,28.77,2.03,44.17.21,1.45-.17,2.88-.72,4.01-1.63,2.53-2.03,2.63-5.78,2.51-9.02-.5-13.49.12-27.17-.38-40.66-.07-1.82-.21-3.82-1.49-5.11-1.36-1.37-3.51-1.45-5.43-1.46-28.43-.13-56.85-2.71-84.84-7.71-2.66-.48-7.81-.89-7.76,3.73Z"/>
        <g>
          <path class="cls-13" d="m103.04,244.54c-.31-.19-.69-.15-1.04-.2-.53-.04-1.06-.05-1.6-.07-1.05-.02-2.1-.11-3.15-.21-.24-.1-.51-.13-.76-.07-.14-.01-.28-.03-.42-.04-.98-.1-1.97-.17-2.95-.28-.45-.06-.9-.11-1.36-.13-.25-.01-.53-.05-.76.08-1.12.44-.77,2.15.43,2.14,1.38.1,2.76.24,4.14.38-.18,3.22-.15,6.44-.17,9.66,0,1.04,0,2.09,0,3.13,0,.5,0,1,0,1.5-.02.4.01.84.33,1.13.67.7,1.93.18,1.91-.79,0-1.49,0-2.97,0-4.46.02-3.32,0-6.64.16-9.96.25.02.5.04.75.06.97.09,1.93.09,2.9.13.34.02.68.04,1.01.08.43,0,.88-.27,1.02-.69.24-.49,0-1.12-.46-1.4Z"/>
          <path class="cls-13" d="m112.12,260.59c-.05-1.05-.12-2.11-.17-3.16-.16-3.18-.18-6.4-.81-9.54-.27-1.08-.86-2.13-1.77-2.8-.6-.44-1.38-.45-2.05-.17-.83.27-1.44.97-1.72,1.78-.35.81-.58,1.67-.81,2.53-.52,1.94-.96,3.91-1.39,5.87-.29,1.34-.57,2.68-.83,4.03-.09.5-.19,1-.26,1.51-.02.23-.12.46-.06.69.13,1.19,1.86,1.31,2.18.15.23-1.44.51-2.87.81-4.3,1.47.27,2.99.22,4.48.23.04.94.09,1.89.15,2.83.02.38.03.76.04,1.15,0,.23-.02.48.1.69.29.85,1.57.91,1.99.13.27-.49.11-1.08.12-1.61Zm-2.6-5.43c-1.08,0-2.16,0-3.24-.08-.08,0-.15-.02-.23-.03-.11-.02-.23-.04-.34-.06.08-.37.17-.75.25-1.12.48-2.01.91-4.05,1.57-6.01.11-.22,0-.17.35-.73.01-.01.02-.02.03-.03.03-.02.06-.04.09-.05.04-.01.09-.03.16-.05,0,0,.01,0,.02,0,.02.02.04.04.06.06.04.04.06.07.09.1.58.82.53.78.79,2.01.13.77.25,1.86.35,3.34.06.89.11,1.78.15,2.67-.03,0-.07,0-.1,0Z"/>
          <path class="cls-13" d="m124.88,247.07c-.13-1.19-1.86-1.31-2.18-.15-.03.1-.07.2-.11.31,0,.01,0,.02-.01.03-.32.71-.72,1.39-1.1,2.07-.86,1.51-1.42,2.43-2.21,3.26-.69.71-1,.85-1.79,1.33,0-.24,0-.48.01-.72.03-1.62.09-3.23.13-4.85.01-.51.02-1.02.04-1.54,0-.28.06-.57-.08-.83-.44-1.12-2.15-.77-2.14.43-.1,3.4-.2,6.79-.24,10.19-.01,1.42-.15,2.84-.21,4.25.03.84-.35,2.1.65,2.49.49.24,1.12,0,1.4-.46.23-.39.13-.86.16-1.29.01-.5.03-.99.06-1.49.1-1.3.15-2.6.18-3.91.09.02.18.03.27.03.09.02.18.03.27.05.04,0,.07.02.11.03.02,0,.03.01.05.02.95.55,1.53,1.23,2.37,2.91.49,1.08.5,1.02.9,2.36.09.31.18.62.26.93.04.2.09.4.24.55.5.74,1.75.48,1.96-.38.12-.43-.08-.86-.18-1.28-.17-.61-.34-1.22-.58-1.8-.68-1.64-1.45-3.34-2.84-4.5-.08-.08-.17-.15-.26-.22.35-.28.68-.58.99-.91,1.27-1.43,2.18-3.13,3.1-4.8.24-.45.45-.91.64-1.38.09-.24.2-.5.13-.76Z"/>
          <g>
            <path class="cls-13" d="m137.31,252.27c0-.52-.04-1.04-.13-1.56-.33-2.3-2.14-4.29-4.39-4.84-.72-.17-1.46-.07-2.18.06-.62.14-1.13.42-1.54.8-.25.07-.49.23-.65.51-2.09,3.48-2.6,8.18-1.93,12.14.35,1.69.94,3.57,2.39,4.63.73.5,1.68.63,2.54.5,1.12-.27,2.12-1,2.9-1.84,1.62-1.88,2.27-4.33,2.63-6.74.04-.23.08-.47.12-.7.07-.05.15-.09.22-.14.37-.25.73-.52,1.08-.79.21-.17.45-.34.53-.62.45-1-.71-1.9-1.57-1.41Zm-6.42-4.09c.89-.22.34-.11,1.2-.16.01,0,.02,0,.04,0,.21.05.42.12.63.19.38.13,1.29.75,1.61,1.35.52.89.37.5.61,1.52.01.07.02.12.02.15.08.69.1,1.39.05,2.08-.02.19-.03.34-.05.48-.52.22-1.13.4-1.86.52,0,0-.01,0-.02,0-.15.01-.3,0-.45,0-.13-.02-.27-.04-.4-.08-.13-.03-.26-.08-.39-.12-.11-.05-.21-.1-.31-.16-.12-.07-.23-.14-.35-.22-.13-.12-.26-.25-.38-.37-.09-.1-.18-.2-.27-.31-.05-.07-.1-.14-.15-.22-.29-.59-.16-.22-.44-1.13-.14-.73-.1-.29-.16-1.29,0-.13,0-.26.01-.39.03-.18.07-.35.12-.52.04-.16.1-.32.15-.47.02-.05.04-.09.06-.14.05-.09.1-.18.16-.27.09-.1.18-.2.28-.28.03-.02.06-.04.09-.06.05-.03.11-.06.17-.09Zm2.59,11.74c-.7,1.23-1.09,1.57-1.58,1.93-.74.43-.58.39-.98.49-.1,0-.21,0-.31-.01.1.02.15.03-.03,0-.05,0-.1,0-.14-.02.04,0,.08,0,.12.01-.1-.02-.2-.04-.3-.07-.06-.03-.12-.07-.18-.11-.04-.03-.08-.07-.13-.12-.06-.06-.11-.12-.14-.15-.05-.08-.1-.15-.15-.23-.19-.33-.37-.66-.52-1-.56-1.75-.55-2.1-.67-3.72-.03-1.3-.01-2.1.09-2.92.44.73,1.04,1.35,1.77,1.81.99.6,2.2.89,3.35.69.32-.05.64-.12.95-.21-.27,1.48-.73,3.04-1.13,3.65Z"/>
            <path class="cls-13" d="m130.56,262.31s.02,0,.02,0c0,0,.02,0,.03,0-.02,0-.03,0-.05,0,0,0,0,0,0,0Z"/>
          </g>
          <path class="cls-13" d="m147.58,248.25c-.26.47-.21,1.04-.23,1.56-.05,1.58-.03,1.66-.33,2.99-.23.85-.25.91-.42,1.19-.14.16-.3.3-.46.44-.03.02-.06.05-.09.07-.03.02-.07.06-.13.1-.27.21-.57.38-.89.52-.19.07-.38.14-.58.18-.73.01-.64-.02-.85-.06-.14-.05-.29-.07-.84-.45-.04-.04-.09-.08-.13-.12,0-.01-.02-.03-.03-.04-.08-.13-.15-.27-.21-.4-.06-.18-.1-.36-.14-.55-.12-.06-.07-2.93.12-4.07.1-.73.02-.25.21-1.2.08-.29.04-.6-.11-.86-.47-.84-1.81-.67-2.05.27-.28,1.29-.4,2.6-.46,3.92-.08,1.64,0,3.57,1.31,4.73,1.09.94,2.63,1.34,4.02.94.46-.15.9-.35,1.33-.59-.08.5-.16,1.03-.26,1.58-.2.94-.41,1.89-.75,2.8-.56,1.22-.92,1.77-1.55,2.42-.04.04-.08.07-.11.1-.08.05-.16.1-.24.14-.02,0-.03.01-.05.02-.03,0-.06.02-.1.03-.17.01-.33,0-.5,0h0c-.9-.26-.39-.09-1.22-.51-.07-.07-.16-.03-.56-.48-.08-.13-.16-.26-.22-.4-.29-.52-1.02-.71-1.53-.4-1,.64-.44,1.73.19,2.41.47.51,1.07.88,1.71,1.16,1.66.82,3.49.58,4.64-.95,1.27-1.49,1.96-3.36,2.35-5.26.33-1.54.51-3.11.73-4.68.2-1.23.46-3.82.51-5.95,0-1.13-1.51-1.54-2.09-.56Z"/>
          <path class="cls-13" d="m159.98,255.02c-.06-1.5-.1-3.04-.52-4.49-.6-1.88-2.48-3.13-4.29-1.9-1.2.84-1.76,2.26-2.31,3.56-1.09,2.7-1.48,5.6-1.97,8.45-.18,1.11-.36,2.22-.54,3.33-.06.56-.34,1.16-.02,1.68.47.84,1.81.67,2.05-.27.25-1.46.48-2.92.72-4.37,1.05.1,2.1.12,3.16.14.5.01,1.01.05,1.51.04-.02.76-.04,1.52-.04,2.29,0,.39,0,.79,0,1.18,0,.24-.03.49.1.71.29.84,1.57.91,1.99.13.1-.17.15-.36.15-.56,0-.47,0-.95,0-1.42.01-1.02.03-2.04.06-3.07.02-1.81.02-3.63-.03-5.44Zm-5.8,3.84c-.24-.01-.48-.03-.72-.05.21-1.21.41-2.42.76-3.6.26-.9.53-1.8.9-2.67h0c.27-.6.57-1.2.94-1.74.11-.11.25-.24.32-.31.05-.03.11-.07.16-.09.04-.01.08-.03.12-.04.03,0,.06.02.1.03.03.02.06.04.09.05,1.04.86.88,4.78.93,8.05,0,.15,0,.3,0,.45-1.2.01-2.4-.07-3.6-.1Z"/>
          <path class="cls-13" d="m170.6,249.54c-.74,1.72-1.95,3.9-2.63,4.65-.8.97-1.77,1.78-2.74,2.57-.09.07-.19.14-.29.21,0-.04,0-.07,0-.11.06-1.75.13-3.51.16-5.27,0-.41.02-.83.03-1.24,0-.28.06-.58-.08-.84-.44-1.12-2.15-.77-2.14.43-.12,4.83-.37,9.55-.25,14.39,0,.5,0,.99,0,1.49,0,.26-.04.54.1.77.18.53.8.79,1.32.65.47-.13.83-.59.82-1.08,0-1.01,0-2.02-.02-3.03-.02-1.24-.03-2.47-.02-3.71.03.02.05.04.08.05.14.09.28.19.42.29.11.09.22.18.32.28,1.92,1.89,3.43,4.07,4.12,6.3.11.39.25.8.62,1.01.61.37,1.46.02,1.64-.67.11-.35-.03-.69-.14-1.02-.17-.57-.4-1.12-.65-1.67-.6-1.33-1.45-2.53-2.35-3.67-.59-.76-1.23-1.5-1.97-2.12.48-.39.95-.81,1.42-1.22.74-.66,1.37-1.44,1.95-2.25.6-.83,1.06-1.74,1.52-2.65.24-.47.46-.94.67-1.42.08-.13.13-.27.13-.42.2-1.19-1.46-1.76-2.07-.71Z"/>
          <path class="cls-13" d="m178.04,250c-.44-1.12-2.15-.77-2.14.43-.08,3.33-.25,6.66-.32,9.99-.05,1.36-.15,2.73-.15,4.09,0,.5,0,.99-.01,1.49-.05.54.12,1.18.69,1.37.69.34,1.58-.26,1.55-1.02,0-.99,0-1.99.03-2.98.1-2.06.15-4.12.22-6.18.07-1.74.15-3.47.18-5.21,0-.42.02-.85.04-1.27.01-.24.04-.49-.08-.7Z"/>
        </g>
        <path class="cls-10" d="m3.38,123.09c-8.22,12.35-.05,30.06,9.54,41.38,9.59,11.32,23.06,18.6,36.62,24.61,52,23.02,109.51,27.86,165.73,19.28,28.33-4.33,57.83-10.09,80.41-27.73,7.28-5.69,14.18-12.46,17.49-21.09,8.02-20.93-3.19-32.87-14.86-44.88-11.68-12.01-27.69-19.1-43.62-24.29-60.47-19.71-123.64-22.32-185.12-6.04-24.22,6.41-50.57,15.28-66.19,38.77Z"/>
        <path class="cls-6" d="m298.35,160.5c-5.68,7.53-13.96,12.64-22.4,16.83-18,8.94-37.53,14.62-57.45,17.61-5.24.79-10.51,1.39-15.79,1.82-2.32.19-4.65.34-6.97.46-8.1.42-16.24.51-24.39.33-16.58-.37-33.19-1.87-49.6-4.03-3.08-.4-6.15-.83-9.21-1.28-3.99-.59-7.88-1.26-11.66-2.02-1.21-.24-2.41-.49-3.6-.75-37.03-8.03-63-23.26-69.76-29.41-7.65-6.96-13.21-16.93-12.52-27.25,1.03-15.39,15.03-26.63,29.01-33.13,19.24-8.96,40.44-12.82,61.52-15.3,43.82-5.15,88.88-4.55,131.24,7.81,17.12,5,37.27,14.27,54.21,27.66,4.9,3.87,9.68,8.28,12.08,14.04,3.62,8.7.97,19.08-4.7,26.6Z"/>
        <path class="cls-14" d="m48.64,79.67c-4.21-14.81-2.18-31.28,5.51-44.62,7.69-13.33,20.94-23.35,35.86-27.12,6.41-1.62,13.06-2.12,19.67-2.13,5.23,0,10.5.29,15.58,1.53,12.81,3.12,23.74,12.17,30.67,23.39s10.1,24.47,10.77,37.64c.32,6.32.08,12.72-1.51,18.85-4.34,16.72-18.84,29.78-35.39,34.74-16.55,4.96-34.73,2.52-50.6-4.31-7.66-3.29-14.99-7.64-20.78-13.64-5.8-6-6.89-14.16-9.79-24.33Z"/>
        <path class="cls-12" d="m59.06,21.12c-4.94,4.94-8.11,10.65-10.41,17.25-.97,2.8-1.74,5.74-1.52,8.69.33,4.29,2.9,8.35,6.63,10.49,2.4,1.37,5.38,1.95,7.97.98,3.64-1.36,5.57-5.22,7.6-8.53,1.96-3.2,4.33-6.16,7.01-8.78,1.72-1.68,4.1-3.33,6.35-2.49,1.58.59,2.51,2.24,2.99,3.85,1.02,3.41.64,7.1,1.51,10.55.87,3.45,3.81,6.92,7.32,6.39,2.22-.34,3.91-2.18,5.09-4.09s2.07-4.05,3.65-5.65c1.34-1.37,3.54-2.27,5.17-1.26.97.6,1.48,1.72,1.84,2.8,1.06,3.16,1.33,6.52,1.88,9.81s1.46,6.63,3.55,9.23c2.09,2.6,5.62,4.27,8.82,3.34,2.97-.86,4.97-3.68,6.11-6.55,1.14-2.88,1.67-5.98,3.01-8.77,1.33-2.79,3.78-5.36,6.86-5.6,3.73-.29,6.76,2.76,9.39,5.42,2.63,2.66,6.2,5.37,9.76,4.22,3.1-1,4.62-4.53,4.97-7.76.29-2.68.02-5.4-.45-8.06-2.44-13.65-10.67-26.06-21.96-34.1C130.92,4.43,116.73.71,102.89,1.59c-9.44.6-18.68,3.25-27.35,7.03-4.98,2.17-10.27,6.28-16.48,12.5Z"/>
        <path class="cls-4" d="m151.03,16.47c-1.82-3.39-6.52-5.37-7.72-.45-.34,4.91,1.6,8.67,1.19,13.75-.65,8.88-5.25,5.09-6.29-2.36-1.25-6.92-2.37-21.29-9.42-24.63-2.66-1.68-6.48-.67-7.04,2.68-1.38,10.87,6.95,20.45,3.5,31.45-.81,2.03-2.51,3.95-3.71.63-4.02-11.32-4.91-29.1-15.55-37.11-4.45-1.75-6.53,2.28-5.75,6.2.19,6.74,8.25,25.74-.06,28.42-7.15-7.09-4.78-21.13-11.2-29.05-1.81-2.75-6.18-3.41-7.89-.2-3.47,7.06,1.12,14.92.17,22.19-1.62,3.82-4.62-1.82-5.08-3.43-1.68-3.78-1.51-8.75-4.95-11.52-3.95-2.78-7.59.31-7.55,4.71-.62,2.66,1.86,10.59-.51,11.67-2.25-1.83-2.58-4.32-3.19-7.02.19-2.1-2.92-2.45-3.02-.29.55,3.73,1.87,9.66,6.27,10.31,6.69-1.38,2.78-9.87,3.42-14.52.02-4.05,3.16-3.71,4.41.08,1.58,4.96,3.78,17.42,11.34,13.45,2.02-1.67,2.33-4.52,1.94-6.96-.26-2.72-4.08-20.53,1.55-17.41,6.77,8,4.54,20.74,10.98,29.1,4.16,4.96,9.55-.6,9.69-5.51.81-6.6-1.14-13.07-2.53-19.45-.36-2.21-1.85-7.34-.23-8.17,11.31,1.77,11.34,46.08,21.58,38.57,8.63-8.35-.09-22.8-.78-32.26-.75-5.11,1.57-5.53,4.87-2.41,3.52,5.46,4.69,13.17,5.62,19.99,3.03,18.67,16.49,12.44,11.3-7.66-.08-1.13-.54-1.93.06-3.22,4.65,2.79,3.8,9.95,5.31,14.74.89.92,2.57.27,2.55-1.06-.37-4.19-.96-9.69-3.29-13.24Z"/>
        <path class="cls-14" d="m146.57,57.5c-2.62,9.46-1.76,19.54,0,29.19.76,4.14,1.68,8.27,3.39,12.12,3.67,8.29,10.77,14.7,18.75,19.01,18.38,9.94,41.44,9.19,60.48.6,3.74-1.68,7.35-3.66,10.67-6.06,13.12-9.52,20.77-25.92,20.24-42.13-.53-16.21-9.01-31.84-21.93-41.63-12.92-9.79-29.97-13.74-45.99-11.25-5.45.85-10.81,2.41-15.75,4.86-9.17,4.55-16.63,12.05-22.48,20.45-3.07,4.42-5.82,9.25-7.38,14.85Z"/>
        <path class="cls-12" d="m150.57,39.1c-5.24,7.95-7.99,17.52-7.78,27.03.08,3.42.57,6.97,2.44,9.84.83,1.28,1.96,2.42,3.39,2.99,3.63,1.44,7.67-1.33,9.72-4.66,2.05-3.33,2.98-7.29,5.27-10.45,2.29-3.17,6.88-5.33,10.11-3.12,1.29.89,2.11,2.31,2.74,3.74,1.95,4.44,2.5,9.38,4.26,13.89,1.76,4.52,5.33,8.89,10.16,9.35,4.04.38,7.92-2.17,10.21-5.52,2.29-3.35,3.29-7.39,4.16-11.36.87-3.97,1.67-8.02,3.65-11.57,1.03-1.84,2.41-3.55,4.26-4.57,1.85-1.02,4.21-1.25,6.06-.23,2.57,1.43,3.4,4.64,4.44,7.4,1.04,2.75,3.27,5.73,6.18,5.32,2.73-.39,4.1-3.47,4.69-6.16.59-2.69,1.11-5.79,3.45-7.24,2.7-1.68,6.31-.15,8.58,2.07,1.69,1.64,3.27,3.77,5.6,4.04,2.04.24,4.02-1.17,4.94-3.01.92-1.84.94-4.01.59-6.03-.84-4.95-3.67-9.33-6.88-13.19-8.32-9.98-19.69-17.38-32.19-20.93-12.5-3.55-26.06-3.24-38.39.88-10.33,3.45-21.31,8.78-29.69,21.5Z"/>
        <path class="cls-14" d="m117.97,142.37c-2.31,10.4-6.2,20.72-13.2,28.75-3.82,4.38-9.36,8.39-14.96,10.77-4.67,1.99-9.38,2.84-13.14,1.84-8.15-2.17-15.67-4.75-22.72-7.86-10.45-4.61-20.75-9.8-28.78-17.83-8.85-8.85-15.49-22.45-14.3-35.9,1.19-13.45,8.59-26.03,19.17-34.41,10.59-8.38,24.14-12.67,37.64-12.91,17.03-.31,34.94,6.43,44.49,20.52,9.12,13.45,9.31,31.17,5.79,47.03Z"/>
        <path class="cls-12" d="m31.2,81.32c-10.67,7.13-19.02,16.44-20.3,29.21-.2,2-.08,4.4,1.62,5.48,1.27.81,2.98.52,4.33-.17s2.51-1.71,3.86-2.38c3.63-1.82,8.5-.64,10.9,2.65,3.56,4.89,1.33,12.19,4.44,17.37,1.58,2.65,4.53,4.43,7.61,4.6,3.08.17,6.21-1.27,8.07-3.73,1.69-2.22,2.5-5.27,4.93-6.63,3.35-1.88,7.68.82,9.32,4.3,1.64,3.47,1.56,7.48,2.33,11.24.77,3.76,2.96,7.77,6.72,8.54,2.96.6,6.01-1.09,7.85-3.48,1.84-2.39,2.68-5.39,3.39-8.32.63-2.59,1.2-5.26,2.61-7.52s3.86-4.09,6.52-3.94c3.14.18,5.48,2.89,7.23,5.51,1.75,2.61,3.55,5.54,6.52,6.57,2.96,1.03,6.36-.24,8.55-2.48,2.18-2.24,3.33-5.3,4.04-8.35,3.37-14.67-2.76-30.55-13.62-40.98-10.85-10.43-25.62-15.56-40.6-17.1-12.14-1.25-24.58,1.78-36.31,9.62Z"/>
        <g>
          <path class="cls-4" d="m32.52,83.3s0,.01,0,.02c0,0,0,0,0,0,0,0,0,0,0-.01Z"/>
          <path class="cls-4" d="m114.01,94.74c-.99-.42-2.15-.29-3.13.09-.84.3-1.57.83-2.24,1.42-.82.72-1.59,1.51-2.28,2.35-1.71,2.08-3.2,4.33-4.8,6.5-2.27,3.14-6.36,7.88-8.47,7.27-.08-.04-.16-.08-.23-.13-.01-.01-.02-.02-.03-.03,0,0-.01-.01-.02-.02-.01-.02-.03-.04-.04-.06-.01-.02-.02-.05-.03-.07-.04-.13-.07-.27-.1-.4-.04-.21-.14-.5.36-2.08.43-1.19.21-.64.79-1.92,1.56-3.23,3.54-6.23,5.52-9.21,2.16-3.29,6.19-8.39,5.42-12.47-.37-1.92-2.13-3.51-4.12-3.47-2.52-.02-4.82,1.25-6.78,2.73-3.01,2.25-5.22,5.38-7.17,8.55-2.26,3.59-4.14,7.4-6.3,11.04-.81,1.32-1.67,2.62-2.61,3.85-.78.98-1.62,1.91-2.6,2.7-.87.64-1.31.78-1.67.93-.18.07-.36.12-.55.16-.14,0-.28,0-.42,0-.04-.02-.09-.05-.13-.08-.07-.06-.13-.12-.19-.19-.52-.9-.28-.54-.45-1.04-.03-.11-.06-.29-.08-.43-.02-.21-.04-.42-.05-.62.03-2.03.06-2,.43-3.79.73-2.96,1.73-4.72,3.61-7.73,2.31-3.64,4.97-7.04,7.54-10.49,1.51-2.04,2.83-4.27,3.52-6.72.9-3.51-.52-7.76-4.61-8.03-1.07-.05-2.12.28-3.08.73-.77.35-1.53.73-2.24,1.19-2.39,1.56-4.6,3.42-6.56,5.5-2.89,3.15-5.28,6.73-7.47,10.39-1.5,2.64-2.99,5.3-4.44,7.97-1.29,2.37-2.49,4.79-3.97,7.04-.18.26-.36.52-.55.78-.98,1.21-1.56,1.78-2.4,2.21,0,0-.01,0-.02,0-.1.04-.2.07-.3.09-.01,0-.03,0-.05,0-.03,0-.06,0-.09,0-.06-.01-.11-.03-.17-.04-.11-.06-.22-.12-.32-.19-.03-.03-.07-.05-.1-.08-.1-.1-.2-.2-.29-.31-.06-.09-.14-.21-.2-.32-.06-.11-.12-.22-.17-.33-.07-.19-.13-.38-.19-.57-.21-.99-.12-.31-.17-1.49.02-4.66,4.28-12.14,7.98-17.43,1.53-2.2,3.22-4.29,4.7-6.53,1.38-2.23,2.45-4.77,2.43-7.44-.26-3.51-3.3-4.61-6.42-4.07-1.13.16-2.19.57-3.22,1.05-1.27.54-2.39,1.35-3.46,2.2-4.34,3.33-7.64,7.81-10.53,12.4-2.91,4.78-6.7,12.04-8.89,13.09-.25.1-.52.18-.79.24-.06,0-.11,0-.17,0-.03,0-.07-.02-.1-.03-.03-.02-.06-.03-.08-.05-.04-.04-.09-.08-.12-.13-.07-.11-.14-.22-.2-.34-.09-.26-.15-.52-.2-.79-.09-1.7-.04-1.46.18-2.77.2-.93.49-1.85.82-2.74.23-.63,1.21-2.81,2.1-4.37,1.03-1.97,2.25-3.93,2.63-6.15.55-2.54-1.32-4.57-3.9-4.07-1.23.25-2.31.97-3.32,1.68-.96.71-1.9,1.43-2.78,2.23-1.77,1.64-3.36,3.47-4.84,5.37-.68.88-1.33,1.8-1.91,2.75-.27.52-.7,1.02-.78,1.61-.24,1.6,1.93,2.34,2.75.95,1.82-3.5,5.85-7.87,8.22-9.7,1.44-1.09,2.38-1.77,3.32-1.99.05,0,.1,0,.16,0,.05.01.1.02.14.04.01,0,.02.01.03.02,0,0,0,.02,0,.03,0,.03.01.06.02.1,0,.1,0,.2,0,.3,0,0,0,.02,0,.03-.1.65-.31,1.28-.56,1.89.01-.03.03-.06.04-.08-.01.03-.03.07-.04.1-.01.03-.02.05-.03.08,0-.02.02-.05.03-.07-.08.18-.16.36-.24.53-.42.88-.89,1.74-1.36,2.6-1.8,3.32-3.56,6.86-3.69,10.71-.03,1.83.49,3.94,2.21,4.87,1.54.79,3.45.23,4.75-.8,1.62-1.24,2.73-3.02,3.86-4.7,1.75-2.69,3.26-5.52,4.92-8.26,3.29-5.43,7.8-11.37,12.96-14.02.96-.42.65-.37,2.07-.76,1.1-.19.66-.22,2.03-.14.25.04.49.1.73.18.07.04.14.07.2.12.07.07.14.13.2.21.02.03.05.07.07.1.03.04.05.09.07.14.05.16.1.32.13.49,0,.14.02.34,0,.47-.06.6,0,.24-.17,1.19-.14.63-.34,1.24-.58,1.83-1.2,2.77-3.23,5.06-4.95,7.51-2.22,3.05-4.28,6.23-5.99,9.6-1.02,2.08-2.02,4.19-2.7,6.4-.74,2.65-1.19,5.67.2,8.19.76,1.36,2.14,2.48,3.75,2.48,1.54-.04,2.86-1,3.91-2.05,2.17-2.24,3.54-5.09,5.03-7.8,1.22-2.31,2.49-4.59,3.78-6.87.94-1.7,1.88-3.4,2.94-5.03,1.77-2.72,2.9-4.4,4.57-6.37,1.93-2.32,4.38-4.43,6-5.56,1.36-1.01,3.22-1.95,3.81-2.09.2-.06.39-.1.6-.14.18-.01.36,0,.54,0,.05.01.11.02.16.03.08.02.15.04.22.07.18.08.35.18.51.29.08.07.16.14.23.22.02.02.03.04.05.06.11.15.21.3.29.47,1.48,3.14-1.61,7.42-5.5,12.42-1.9,2.53-3.75,5.1-5.43,7.78-2.09,3.28-3.73,6.93-4.02,10.86-.26,2.53.26,5.87,3,6.8,1.04.26,2.14.09,3.1-.35,1.06-.39,1.98-1.05,2.83-1.78,1.31-1.12,2.36-2.5,3.37-3.88,2.38-3.3,4.16-6.98,6.17-10.5,1.5-2.62,3.75-6.31,4.92-7.67,1.01-1.25,2.12-2.43,3.39-3.42.92-.68,1.89-1.31,2.94-1.79.39-.15.79-.28,1.2-.36.11-.02.21-.04.32-.06.03,0,.06,0,.09,0,.26-.02.53-.03.79-.02.08.02.17.04.25.06.06.03.12.07.18.1.12.11.23.22.34.34.07.1.13.21.18.32h0c.03.11.06.21.08.32.07,1.04.02.7-.09,1.38-.12.52-.3,1.03-.5,1.52-1.16,2.61-2.85,4.93-4.44,7.29-1.67,2.49-3.29,5.01-4.73,7.64-1.41,2.77-3.92,7.24-1.24,9.94,5.85,4.65,13.51-8.37,16.53-12.27.76-1,1.89-2.54,3.59-3.95.01-.01.03-.02.04-.03.17-.12.34-.24.52-.34.11-.06.22-.12.34-.18.2-.07.4-.13.6-.17.11,0,.23-.01.34,0,.03,0,.07.02.1.03.02.01.04.02.05.04.03.02.05.05.07.08.02.03.04.06.06.1.03.06.06.11.09.17.07.2.12.41.16.62.1,1.51.02,1.41-.18,2.49-.22.96-.51,1.89-.87,2.81-.59,1.76-2.73,5.22-3.94,8.02-.17.51-.57,1.02-.44,1.59.07,1.2,1.71,1.72,2.52.86.24-.23.35-.54.46-.85.2-.46.41-.92.64-1.38,1.73-3.51,3.91-6.9,4.63-10.81.46-2.27.31-5.44-2.13-6.48Z"/>
        </g>
        <path class="cls-14" d="m297.88,161.1c-5.64,7.4-14.02,12.53-22.28,16.47-1.26.6-2.49,1.25-3.77,1.73-11.82,4.42-21.91,10.21-30.92,10.21-.22,0-.43-.04-.65-.06-11.22-1.12-25.3-12.47-29.98-22.73-5.63-12.36-7.83-21.96-8.36-34.3-.53-12.34,2.54-25.06,9.97-34.91,8.37-11.1,21.83-17.82,35.65-19.34,13.91-1.53,28.4,2.04,39.76,10.21,11.36,8.17,19.42,20.92,21.51,34.76,2.09,13.84-2.46,26.81-10.94,37.95Z"/>
        <path class="cls-12" d="m208.82,99.78c-9.09,14.81-12.02,31.52-6.89,48.12.64,2.06,1.42,4.15,2.89,5.73s3.8,2.53,5.84,1.83c2.41-.82,3.58-3.49,4.41-5.9,1.23-3.6,2.36-7.34,4.69-10.36,2.32-3.02,6.19-5.2,9.9-4.34,4.55,1.06,6.94,5.92,8.81,10.2,1.87,4.28,4.56,9.08,9.18,9.73,2.63.37,5.35-.83,7.14-2.8,1.79-1.97,2.72-4.61,2.96-7.26.21-2.31-.07-4.67.51-6.92.58-2.24,2.38-4.44,4.7-4.41,2.28.03,4.13,2.15,6.41,2.19,3.01.05,4.78-3.38,5.36-6.33.58-2.96.95-6.4,3.46-8.06,2.82-1.88,6.65-.33,9.38,1.67,2.74,2,5.44,4.54,8.83,4.7,3.81.17,7.7-1.89,8.82-5.53,1.12-3.64,1.96-8.33.8-11.97-5.68-17.76-23.68-30.97-42.17-33.38-18.49-2.4-42.87,3.29-55.03,23.09Z"/>
        <path class="cls-4" d="m301.46,99.84c-.37-2.05-1.37-5.34-3.28-6.42-1.55-.88-3.49-.13-4.3,1.39-.7,1.35-.75,2.91-.89,4.4-.11,1.69-.15,3.39-.36,5.07-.1.64-.22,1.28-.42,1.9-.06.23-.22.63-.19.56-.04.09-.07.17-.11.26-.23.53-.48,1.05-.81,1.52-.05.06-.11.13-.17.18-.05.05-.11.1-.16.14-.14.09-.3.17-.45.25-.05.03-.09.05-.14.07-.04.01-.09.03-.13.04-.02,0-.04,0-.06,0-.03,0-.06-.01-.08-.02-.1-.05-.2-.11-.29-.18-.76-.78-.48-.44-1.13-1.61-.04-.08-.07-.16-.11-.24-.01-.03-.02-.06-.04-.09-.24-.62-.43-1.26-.6-1.9-.27-1.04-.43-2.11-.6-3.17-.54-4.04-1.61-7.98-2.79-11.88-1.36-4.59-2.23-7.77-6-10.96-1.15-1-2.41-1.89-3.86-2.39-1.77-.62-3.94-.28-4.98,1.41-1.77,2.63-.1,8.27.64,11.2.71,2.82.69,3.96,1.1,6.84.25,1.42.53,5.13.53,7.81,0,3.46.04,5.06-.87,8.06-.05.16-.11.32-.17.48-.1.23-.22.46-.34.68-.52.85-.65.93-.77,1.1-.76.79-.48.54-1.05.89-.04.02-.09.04-.13.06-.1.04-.21.07-.31.09-.05,0-.11,0-.16,0-.13-.03-.27-.07-.36-.1-.41-.19-.81-.39-1.17-.67-.87-.64-1.15-.9-2.12-2.91-.66-1.25-1.87-5.82-2.56-8.48-.73-2.7-1.54-5.38-2.42-8.04-1.54-4.63-2.99-9.37-5.69-13.48-1.18-1.84-2.54-3.61-4.37-4.84-1.76-1.2-4.44-1.52-5.96.24-1.17,1.34-1.42,3.19-1.59,4.9-.26,3.65.48,7.29,1.2,10.86.92,4.1,2.01,8.15,3.03,12.22.47,2.06.73,4.16,1.07,6.24.33,2.26.5,2.48.48,4.64-.09,1.62-.06,1.2-.35,2.67-.27,1.19-.57,2.39-.99,3.54-.99,2.15-2.06,2.48-2.59,2.6-1.38.21-3.28-1.55-4.15-2.71-.7-.91-1.23-1.93-1.73-2.96-.99-2.07-1.12-2.37-1.85-4.55-.91-2.77-1.6-5.6-2.16-8.46-.61-2.96-1.08-5.95-1.81-8.88-.79-2.82-1.85-5.57-3.21-8.15-.95-1.71-2.19-3.47-4.12-4.13-2.44-.84-5.16.57-6.36,2.77-1.03,1.8-1.18,3.93-1.23,5.96.02,3.96,1.09,7.81,1.88,11.66.86,3.99,1.04,7.85.13,9.44-.07.08-.14.16-.21.24-.02.02-.04.03-.06.05,0,0,0,0-.01,0-.08.03-.16.05-.25.07-.06,0-.12,0-.18,0-.09-.02-.18-.05-.27-.08-.09-.05-.18-.1-.27-.16-.21-.18-.41-.38-.58-.6-.98-1.28-2.2-4.65-3.33-7.56-.78-1.81-1.63-4.49-3.52-5.39-1.15-.53-2.59-.08-3.41.84-.92,1.11-1.26,2.59-1.52,3.98-.06.55-.29,1.17-.03,1.69.61,1.5,2.85,1.03,2.86-.58,0-.01,0-.03,0-.04.1-.7.25-1.39.46-2.06.29-.77.06-.39.46-1.01,0,0,0,0,0,0,.01,0,.03-.01.04-.02.05.06.11.11.16.17.27.37.51.76.72,1.17.21.42.4.85.59,1.28.02.05.04.1.06.15.81,1.96,1.5,3.96,2.33,5.91.66,1.52,1.37,3.11,2.64,4.23,1.3,1.2,3.4,1.49,4.85.39,1.41-1.05,1.82-2.88,1.99-4.54.2-1.74,0-3.49-.23-5.22-.45-3.41-1.43-6.71-1.99-10.1-.3-1.92-.67-5.52.27-7.93.14-.3.31-.59.5-.86.01-.02.02-.03.03-.05.12-.14.24-.27.37-.39.04-.04.09-.08.13-.12.23-.16.48-.3.74-.42.01,0,.02,0,.03-.02.06-.02.12-.04.18-.06.04-.01.08-.02.12-.03.23-.02.45-.02.68,0,.12.03.24.06.36.1,0,0,.01,0,.02,0,.11.05.23.11.33.18.34.24.24.12.85.77,1.62,2,3.11,5.7,4.13,9.31.94,3.9,1.52,7.88,2.42,11.79.82,3.53,1.87,7.04,3.45,10.31.92,2,2.08,3.92,3.72,5.42,1.51,1.36,3.49,2.52,5.6,2.1,1.72-.32,3.13-1.58,4.02-3.04.72-1.12,1.1-2.41,1.44-3.69.5-1.86.86-3.77.84-5.7-.05-1.61-.37-3.2-.61-4.8-.41-2.63-.76-5.28-1.48-7.85-.57-2.05-1.07-4.12-1.57-6.19-.52-2.09-1.04-4.17-1.43-6.29-.7-3.61-1.33-8.69.08-10.97.05-.05.09-.1.14-.15.06-.04.12-.08.19-.11.06-.02.12-.04.18-.05.05,0,.11,0,.16,0,.07,0,.14,0,.21.01.26.05.51.12.75.21.11.05.21.11.32.17.94.62.57.34,1.59,1.31,1.12,1.14,1.66,2.05,2.84,3.97,1.67,2.96,2.13,4.3,3.24,7.42.89,2.63,1.78,5.26,2.58,7.92,1.12,3.53,1.89,7.17,3.01,10.7.67,1.9,1.41,3.84,2.73,5.4.57.58,1.25,1.05,1.91,1.52.83.47,1.74.89,2.72.9,1.71-.05,3.18-1.17,4.14-2.52,3.11-3.94,2.59-10.83,2.43-15.63-.18-2.85-.58-5.69-1.18-8.48-.66-3.06-.83-4.37-1.44-7.44-.32-1.52-.43-4.11-.03-4.46.03-.05.06-.09.09-.14.04-.04.08-.08.12-.12.03-.02.06-.04.1-.06.1-.03.19-.06.29-.08.15,0,.3,0,.44.01.1.02.19.04.29.06.91.29.25.03,1.29.54,1.27.81,1.05.66,2.31,1.8,1.4,1.4,2.06,2.32,3.17,4.61.51,1,.97,2.84,1.61,5.13.89,3.03,1.75,6.07,2.27,9.19.57,3.37.82,7.08,3.08,9.83,1.81,2.14,4.23,1.96,6.15.03.98-1.15,1.55-2.59,2-4.01.9-3.51.51-7.57,1.14-9.99.02-.09.05-.18.08-.26.04-.08.08-.16.13-.23.04-.04.07-.08.11-.11.02,0,.03-.02.05-.03,0,0,.02,0,.03,0,.04.02.08.05.12.07.02.02.04.04.06.06.33.46.62.96.85,1.48,1.09,2.72,1.61,7.49,1.41,12.04-.22,1.13.73,2.11,1.87,1.82.63-.17,1.1-.79,1.1-1.44.01-.17.02-.34.03-.51.03-.64.04-1.28.04-1.92,0-2.61-.25-5.22-.73-7.78Z"/>
        <path class="cls-14" d="m224.55,171.96c-.25,8.02-1.6,16.39-6.06,22.98-5.24.79-10.51,1.39-15.79,1.82-2.32.19-4.65.34-6.97.46-8.1.42-16.24.51-24.39.33-16.58-.37-33.19-1.87-49.6-4.03-3.08-.4-6.15-.83-9.21-1.28-3.99-.59-7.88-1.26-11.66-2.02-.95-2.82-1.71-5.71-2.29-8.63-3.27-16.63-.47-34.49,8.39-48.95,11.54-18.85,33.15-31.24,55.24-31.18,22.1.06,43.84,12.79,54.27,32.27,6.22,11.61,8.47,25.07,8.06,38.24Z"/>
        <path class="cls-12" d="m105.92,131.41c-3.58,4.95-8.04,12.98-7.89,20.01.07,3.03.45,3.7,2.08,6.26,1.63,2.56,4.41,4.5,7.44,4.58,3.94.11,7.34-2.81,9.58-6.04s3.8-6.96,6.43-9.89c2.63-2.93,6.89-4.97,10.52-3.44,4.39,1.85,5.42,7.49,5.87,12.23.45,4.74,1.61,10.39,6.06,12.09,2.66,1.01,5.77.14,7.96-1.67,2.19-1.81,3.59-4.41,4.58-7.07.76-2.05,1.32-4.2,2.45-6.07,1.14-1.87,3.01-3.46,5.2-3.55,3.21-.13,5.63,2.9,6.9,5.85,1.79,4.12,2.49,8.68,4.59,12.65,2.1,3.97,6.3,7.42,10.71,6.58,2.97-.56,5.33-3,6.48-5.79,1.14-2.79,1.23-5.91.98-8.92-.2-2.48-.61-5.01,0-7.43s2.58-4.71,5.07-4.73c3.98-.02,5.71,5.09,9.05,7.25,3.2,2.07,7.79.98,10.31-1.87s3.17-7.01,2.45-10.74c-.72-3.74-2.66-7.12-4.81-10.26-12.05-17.57-31.91-30.12-53.17-31.4-21.26-1.28-43.21,9.78-58.82,31.38Z"/>
        <path class="cls-17" d="m151.44,87.97c-.15-.74-.28-1.49-.4-2.24-.1-.6-.19-1.21-.28-1.82,0-.02,0-.05,0-.08-.08-.37,0-.82-.29-1.11-.44-.47-1.3-.12-1.27.53.16,1.4.39,2.79.64,4.17.07.36.13.72.21,1.07.04.38.26.79.68.81.36.07.72-.19.82-.53.08-.27-.05-.55-.09-.82Z"/>
        <path class="cls-17" d="m153.64,95.25c-.27-.6-.15-.33-.42-.99-.3-.76-.56-1.52-.81-2.3-.1-.3-.15-.66-.46-.83-.55-.34-1.29.22-1.1.84.38,1.28.84,2.54,1.37,3.76.14.32.27.69.64.78.46.14.95-.24.94-.72,0-.2-.1-.37-.18-.55Z"/>
        <path class="cls-17" d="m155.73,92.4c-.17-.5-.32-1-.47-1.5-.55-1.93-1.13-3.87-1.5-5.85-.02-.11-.03-.22-.05-.33,0-.05-.02-.13-.02-.2,0-.2-.08-.39-.22-.53-.44-.47-1.3-.12-1.27.53.31,2.5,1.11,4.91,1.8,7.33.13.41.26.82.4,1.23.08.25.17.51.41.64.41.25.97.01,1.1-.45.09-.3-.08-.59-.16-.87Z"/>
        <path class="cls-17" d="m166.3,73.5c-.26-1.9-.56-3.4-.61-5.64-.02-.98-1.47-.98-1.49,0,.03,2.03.38,4.03.66,6.04.29.94,1.67.56,1.44-.4Z"/>
        <path class="cls-17" d="m170.14,75.86c-.34-1.45-.67-2.9-.95-4.37-.08-.46-.15-.92-.21-1.39-.02-.17-.04-.34-.16-.47-.47-.65-1.53-.12-1.31.65.16,1.33.43,2.63.72,3.94.18.83.37,1.66.57,2.48.04.15.07.3.17.42.28.43.99.37,1.23-.08.22-.38,0-.8-.08-1.19Z"/>
        <path class="cls-7" d="m257.33,64.36c-.11-.77-.22-1.54-.35-2.3-.09-.36-.06-.8-.29-1.11-.47-.65-1.53-.12-1.31.65.17.82.28,1.65.41,2.48.07.4.03.9.44,1.12.56.34,1.28-.22,1.1-.84Z"/>
        <path class="cls-7" d="m257.87,72.68c0-.5,0-1-.02-1.5-.02-.82-.04-1.64-.08-2.46-.04-.34.03-.71-.09-1.02-.29-.75-1.44-.51-1.43.29.05,1.35.1,2.71.12,4.06.04.45-.08,1.01.07,1.43.2.56,1.04.61,1.33.09.16-.27.09-.59.1-.88Z"/>
        <path class="cls-7" d="m254.99,69.25c-.03-.57-.07-1.14-.12-1.72-.12-1.33-.23-2.67-.56-3.96-.29-.94-1.67-.56-1.44.4.48,2.03.52,3.55.65,5.89,0,.75,1.01,1.03,1.39.38.18-.3.07-.66.08-.99Z"/>
        <path class="cls-9" d="m183.65,75.29c-.16-.48-.32-.95-.47-1.43-.35-1.14-.69-2.29-.97-3.45-.29-.94-1.67-.56-1.44.4.27,1.13.6,2.25.94,3.37.16.51.32,1.01.49,1.51.02.1.07.18.13.25.33.5,1.17.32,1.31-.25.04-.13.04-.26,0-.4Z"/>
        <path class="cls-9" d="m186.89,81.82c-.81-.84-1.67-2.34-1.99-3.38-.11-.29-.17-.64-.47-.8-.55-.34-1.29.22-1.1.84.46,1.4,1.11,2.74,2.07,3.88.2.26.42.5.64.74.12.12.23.27.4.32.46.23,1.05-.17,1.03-.68,0-.41-.35-.64-.59-.92Z"/>
        <path class="cls-9" d="m187.37,77.76c-.27-.51-.51-1.02-.75-1.54-.38-.87-.59-1.33-1.01-2.51-.1-.29-.19-.58-.26-.88-.05-.18-.07-.39-.2-.53-.47-.65-1.53-.12-1.31.65.39,1.6,1.08,3.1,1.75,4.59.22.47.46.93.71,1.39.1.22.28.41.52.47.46.14.95-.24.94-.72,0-.35-.26-.62-.4-.92Z"/>
        <path class="cls-9" d="m146.03,64.46c-.02-.37.1-.77-.04-1.11-.29-.75-1.44-.51-1.43.29-.04.99-.06,1.99-.01,2.99.04.37-.05.81.25,1.09.44.47,1.3.12,1.27-.53-.06-.91-.07-1.81-.04-2.72Z"/>
        <path class="cls-9" d="m147.75,73.37c-.43-.89-.49-1.01-.83-2.07-.16-.41-.17-.89-.41-1.25-.47-.65-1.53-.12-1.31.65.29,1.18.7,2.34,1.26,3.43.52.84,1.76.11,1.29-.75Z"/>
        <path class="cls-9" d="m149.07,69.07c-.01-.07-.03-.21-.05-.3-.11-.9-.19-1.8-.21-2.71,0-.25,0-.51,0-.76,0-.17.03-.36-.06-.51-.29-.75-1.44-.51-1.43.29-.05,1.73.11,3.47.44,5.16.16.63,1.05.74,1.36.18.23-.43-.04-.9-.07-1.34Z"/>
        <path class="cls-11" d="m149.79,98.2c-.18-.48-.35-.97-.52-1.45-.27-.77-.52-1.56-.76-2.35-1.04-3.61-1.91-7.28-2.52-10.98-.21-1.37-.28-1.78-.4-3.23-.04-.47-.07-.94-.1-1.41-.01-.16,0-.34-.07-.49-.28-.74-1.44-.51-1.43.29.17,3.59.84,7.13,1.64,10.63.71,3.03,1.49,6.06,2.58,8.98.1.22.13.48.28.66.21.31.65.37.96.19.29-.16.43-.53.34-.84Z"/>
        <path class="cls-18" d="m156.55,29.73c-.31.09-.51.37-.76.56-.44.4-.87.81-1.28,1.24-2.93,2.93-5.32,6.36-7.3,9.99-1.02,1.9-1.84,3.89-2.59,5.91-.37.97-.69,1.96-1.01,2.94-.09.32-.18.64-.27.96-.04.14-.09.29-.05.43.08.79,1.25.87,1.45.1.93-3.28,1.98-6.03,3.31-8.74,1.46-2.9,3.55-6.01,5.23-8.06.94-1.09,1.92-2.13,2.94-3.14.34-.33.69-.65,1.06-.96.14-.14.22-.33.22-.53.01-.48-.48-.85-.94-.72Z"/>
        <path class="cls-4" d="m247.41,44.24c.05-.33.11-.65.18-.98.45-2.4,1.93-5.91,1.01-8.23-.55-1.44-2.34-1.95-3.72-1.49-1.51.51-2.49,1.86-3.43,3.07-1.5,1.89-2.92,4.12-5.07,5.14-.13.05-.3.11-.44.14-.2.02-.4.02-.59,0-.04-.01-.09-.02-.13-.03-.04-.01-.08-.03-.12-.04-.08-.04-.16-.09-.24-.14-.03-.03-.07-.06-.1-.09-.01-.01-.02-.02-.03-.04-.02-.03-.03-.05-.05-.08,0,0,0-.01,0-.02-.04-.11-.08-.27-.1-.39-.15-.59.09-2.79.37-4.27.49-3.04,1.24-6.1,1.01-9.2-.28-3.36-2.59-6.02-6.03-4.15-2.73,1.52-4.73,4.05-6.28,6.71-2.24,3.89-4.25,9.78-6.49,12.17-.79.75-.37.49-1.33.99-.08.03-.16.05-.24.07-.06,0-.11,0-.17,0-.01,0-.02,0-.04,0-.02,0-.05-.02-.07-.02-.02-.01-.04-.02-.06-.03-.04-.02-.08-.05-.12-.08-.07-.07-.14-.13-.21-.21-.4-.63-.26-.51-.42-.89-.13-.41-.21-.84-.28-1.27-.2-1.67-.13-3.35.04-5.02.22-1.97.4-3.47,1.08-6.1.59-2.36,1.36-4.67,1.85-7.06.67-3,.73-6.37-2.08-8.29-1.73-1.37-3.85-1.01-5.58.16-1.42.93-2.51,2.26-3.43,3.66-1.79,2.86-3.09,5.99-4.27,9.14-.99,2.85-1.67,5.81-2.27,8.77-1.02,4.82-1.43,9.75-2.46,14.57-.37,1.68-.7,3.38-1.35,4.98-.5,1.17-.97,2.12-2.21,3.21-.02.02-.05.04-.07.06-.17.12-.34.24-.53.33-.05.02-.09.04-.12.06-.13.04-.26.08-.39.11-.04,0-.07,0-.11,0-.04,0-.08,0-.12,0-.02,0-.04,0-.06-.01-.05-.01-.1-.03-.15-.05-.08-.04-.16-.09-.24-.15-.05-.04-.1-.09-.15-.14-.04-.04-.08-.09-.12-.13-.12-.18-.22-.37-.31-.56,0-.02-.01-.04-.02-.07-.24-.77-.41-1.57-.52-2.38-.01-.09-.02-.18-.03-.27-.29-2.61-.06-5.25.16-7.86.39-4.25.81-7.31,1.78-11.99.63-3.02,1.41-6,2.16-8.98.63-2.53,1.26-5.1,1.29-7.72-.03-1.01-.09-2.07-.52-3-.72-1.58-2.44-2.8-4.22-2.45-.75.08-1.44.48-2.05.9-1.29.91-2.23,2.21-3.1,3.51-2.23,3.54-3.62,7.54-4.67,11.57-1.16,4.27-2.08,8.61-3.38,12.85-.97,3.24-1.69,5.51-3.14,7.1-.31.36-.65.7-1.01,1.01-.05.04-.11.07-.16.1-.08.05-.17.09-.26.13-.14.05-.29.09-.43.12-.14,0-.28,0-.42,0-.1-.02-.2-.04-.29-.08-.01,0-.02,0-.03-.01-.03-.02-.07-.04-.1-.05-.13-.07-.25-.16-.38-.24-.04-.04-.08-.07-.12-.11-.03-.03-.05-.07-.08-.1-.08-.12-.15-.25-.22-.37-.75-1.37-1.01-3.77-.89-6.77.18-4.45,1-7.66,1.84-12.54.36-2.6.98-5.26.57-7.88-.38-2.32-2.15-4.21-4.63-3.55-1.22.38-2.18,1.3-2.98,2.27-1.4,1.74-2.26,3.83-3.02,5.91-1.15,3.47-1.7,7.1-2.62,10.63-.75,3.13-1.85,6.39-2.8,8.34-.97,1.97-1.83,3.11-2.69,3.68,0,0-.02,0-.02.01-.16.06-.33.11-.5.14-.05,0-.11.01-.16.01-.03,0-.06,0-.1,0-.06-.01-.12-.02-.17-.04-.18-.1-.36-.21-.54-.32-.04-.04-.08-.07-.12-.11-.02-.02-.04-.04-.06-.06-.64-1.11-.4-.65-.71-1.68-.31-1.33-.19-.82-.31-1.76-.14-1.58-.16-3.17,0-4.75.03-.31.06-.62.1-.94.09-.46.15-.96-.12-1.38-.62-1.12-2.4-.9-2.73.36-.38,2.48-.48,5.01-.15,7.51.28,2.25,1.04,4.84,3.31,5.81,1.27.61,2.83.39,4-.34.73-.49,1.32-1.13,1.83-1.84.65-.8,1.18-1.69,1.63-2.62,2.44-5.02,3.5-10.54,4.73-15.94.85-3.83,2.07-7.12,3.83-9.07.8-.78.34-.42,1.08-.89.07-.02.14-.04.21-.06.03,0,.06,0,.09,0,.02,0,.03,0,.05.01.02.01.05.02.07.03.02.01.04.02.06.04.05.05.1.09.14.14.06.09.11.19.15.29.04.1.07.19.1.29.28.85.23,1.6.11,3.26-.21,1.89-.69,5.02-1.3,7.95-.83,4.61-1.6,9.34-.92,14.02.16,1.32.61,2.6,1.29,3.74.82,1.23,2.24,2.04,3.72,2.06,1.86.04,3.43-1.16,4.52-2.57,1.64-1.86,2.42-4.28,3.18-6.6,1.87-5.8,3.01-11.81,4.78-17.64.71-2.17.91-2.64,1.68-4.34.64-1.37,1.36-2.71,2.24-3.94.68-.91,1.25-1.65,2.34-2.21,0,0,.01,0,.02,0,.05-.02.1-.03.15-.04.09,0,.17,0,.26,0,.04.01.08.02.12.04.08.04.16.09.23.14.1.09.19.18.27.28.01.02.02.04.04.06.06.09.12.19.16.27.26.94.16.44.23,1.76-.07,2.02-.11,2.04-.52,4.09-.65,2.93-1.47,5.82-2.15,8.73-.81,3.46-1.49,6.95-1.96,10.47-.31,2.17-.52,4.35-.7,6.54-.16,2.14-.3,4.29-.09,6.43.21,1.7.38,3.5,1.29,5,.91,1.49,2.77,2.39,4.49,1.89,1.87-.53,3.27-2.06,4.27-3.66,1.16-2,1.75-4.26,2.23-6.5.82-3.58,1.24-7.24,1.82-10.86.68-4.16,1.52-8.3,2.78-12.33,1.03-2.94,1.5-3.99,2.77-6.61.75-1.54,1.87-3.3,2.32-3.76.38-.46.8-.89,1.27-1.26.32-.23.65-.45,1.01-.62.24-.09.49-.16.74-.21.06,0,.12,0,.18,0,.1.03.19.06.29.1.07.03.14.07.21.12.06.04.12.08.18.12.27.22.53.47.75.73.03.05.06.1.09.15.93,1.8-.04,5.06-1.24,9.31-.8,2.77-1.39,5.61-1.67,8.49-.32,3.16-.67,8.91,2.7,10.53,1.28.65,2.81.28,3.96-.48,1.15-.76,1.98-1.88,2.75-3,1.39-2.09,2.33-4.43,3.4-6.69,1.83-3.88,3.13-6.61,6.07-9.03.38-.28.77-.55,1.19-.78.08-.04.16-.08.24-.12.15-.05.3-.1.45-.13.03,0,.05,0,.08,0,.04.02.08.04.12.07.05.05.1.09.14.14.11.15.2.32.28.49,0,0,0,0,0,.01.12.34.22.69.28,1.04,0,.01,0,.02,0,.03.08.72.06,1.46.02,2.18-.13,1.81-.14,1.55-.37,3.08-.31,1.87-.69,3.74-.92,5.63-.16,1.28-.27,2.62.14,3.86.49,1.5,2.03,2.48,3.57,2.53,1.22.06,2.42-.4,3.42-1.08,2.04-1.39,3.49-3.43,4.97-5.37.5-.64,1-1.3,1.63-1.83.1-.07.19-.13.3-.19.06-.02.12-.04.18-.05.17.97-.29,2.51-.82,4.61-.38,1.6-.85,3.26-.66,4.93.09.51.15,1.08.49,1.49.4.62,1.31.74,1.93.38.57-.33.87-1.05.69-1.69-.06-.18-.11-.36-.15-.55-.03-.43,0-.87.05-1.3Z"/>
        <path class="cls-17" d="m142.18,85.73c-.04-.42-.07-.84-.1-1.26-.15-2.34-.35-4.69-.31-7.04-.02-.98-1.46-.98-1.49,0-.04,2,.12,3.99.24,5.98.06.85.12,1.69.2,2.54.01.25.04.52.24.71.33.34.94.26,1.17-.15.15-.24.09-.51.06-.78Z"/>
        <path class="cls-17" d="m142.97,91.65c-.09-.59-.18-1.18-.26-1.77-.08-.33-.02-.73-.24-1.01-.47-.65-1.53-.12-1.31.65.11.77.21,1.55.33,2.32.1.44.03,1.01.48,1.26.41.25.97.01,1.1-.45.08-.34-.07-.68-.1-1.01Z"/>
        <path class="cls-17" d="m139.05,89.12c-.05-.81-.09-1.62-.12-2.43-.04-1.1-.09-2.2-.09-3.3,0-.49,0-.99,0-1.48,0-.24.06-.5-.05-.72-.29-.75-1.44-.51-1.43.29-.06,1.95.02,3.9.1,5.84.04.8.07,1.6.13,2.4,0,.35.1.76.47.88.33.16.75,0,.93-.31.2-.36.04-.78.04-1.17Z"/>
        <path class="cls-7" d="m50.08,58.35c-.29-.75-1.44-.51-1.43.29-.13.99-.22,1.99-.26,2.98.02.98,1.47.98,1.49,0,.03-.78.1-1.55.18-2.32,0-.31.16-.65.02-.95Z"/>
        <path class="cls-7" d="m50.22,69.09c-.04-.37-.07-.73-.1-1.1-.06-.75-.1-1.51-.11-2.27,0-.29,0-.59,0-.88.02-.24-.04-.5-.22-.67-.44-.47-1.3-.12-1.27.53-.02,1.06,0,2.11.09,3.17.04.49.08.98.14,1.47,0,.2.08.39.22.53.28.29.78.29,1.06,0,.2-.21.25-.49.19-.77Z"/>
        <path class="cls-7" d="m52.83,66.42c-.16-1.82-.3-3.66-.16-5.48-.02-.98-1.47-.98-1.49,0-.12,1.58-.02,3.17.1,4.75.04.44.08.88.13,1.31,0,.2.08.39.22.53.33.34.94.26,1.17-.15.18-.29.05-.64.04-.96Z"/>
        <path class="cls-15" d="m253.87,45.16c-.16-.31-.32-.62-.48-.93-.28-.53-.58-1.04-.9-1.55-.18-.26-.3-.58-.55-.77-.62-.51-1.51.27-1.1.96.48.74.92,1.5,1.34,2.27.16.31.32.61.47.92.07.15.14.31.28.39.38.34,1.05.1,1.17-.39.1-.33-.1-.62-.24-.91Z"/>
        <path class="cls-15" d="m256.39,52.33c-.19-1.02-.46-2.02-.8-2.99-.17-.38-.2-.89-.58-1.12-.56-.34-1.28.22-1.1.84.52,1.39.91,2.83,1.15,4.3.16.63,1.05.74,1.36.18.22-.38,0-.81-.04-1.21Z"/>
        <path class="cls-15" d="m253.5,51.64c-.46-1.5-.93-3-1.6-4.41-.19-.41-.4-.81-.63-1.2-.12-.18-.19-.4-.38-.52-.62-.51-1.51.27-1.1.96.93,1.54,1.19,2.31,1.74,3.91.14.42.28.85.41,1.27.08.21.09.46.25.63.47.65,1.53.12,1.31-.65Z"/>
        <path class="cls-15" d="m54.93,29.84c-.71.87-1.27,1.85-1.83,2.83-.24.45-.48.9-.71,1.35-.13.26-.3.53-.2.83.12.46.69.69,1.1.45.19-.1.29-.29.37-.47.13-.26.27-.52.4-.79.46-.87.95-1.73,1.49-2.55.33-.48.27-.38.43-.6.14-.14.22-.33.22-.53.02-.64-.83-1-1.27-.53Z"/>
        <path class="cls-15" d="m52.64,37.1c-.15-.62-1.06-.74-1.36-.18-.86,1.82-1.42,3.76-1.89,5.71-.11.47-.22.94-.32,1.41-.07.24-.1.51.04.73.3.56,1.21.44,1.36-.18.4-1.92.89-3.82,1.56-5.66.25-.66.29-.75.44-1.08.12-.24.26-.5.17-.77Z"/>
        <path class="cls-15" d="m55.74,34.31c-1.08,1.83-1.89,3.81-2.5,5.84-.15.5-.3,1.01-.44,1.52-.13.38-.23.89.17,1.15.28.24.72.19.98-.06.16-.15.2-.36.25-.56.08-.3.16-.59.25-.89.27-.94.57-1.87.9-2.78.3-.82.6-1.47,1.17-2.57.13-.24.26-.49.4-.73.08-.14.18-.28.19-.44.14-.79-.98-1.17-1.38-.48Z"/>
        <path class="cls-9" d="m131.36,58.9c-.08-.8-1.25-.87-1.45-.1-.29.8-.53,1.61-.75,2.43-.08.41-.34.86-.11,1.25.23.42.84.49,1.17.15.24-.25.25-.63.36-.95.08-.3.16-.6.25-.9.13-.42.25-.84.39-1.25.06-.21.19-.42.13-.64Z"/>
        <path class="cls-9" d="m129.7,64.7c-.08-.79-1.25-.87-1.45-.1-.61,1.92-.96,2.96-1.86,4.56-.48.64-.09,1.46.73,1.31.47-.14.59-.67.82-1.04.6-1.1,1.04-2.27,1.44-3.45.09-.4.37-.88.32-1.27Z"/>
        <path class="cls-9" d="m128.39,60.18c-.3-.56-1.21-.44-1.36.18-.39,1.36-.83,2.7-1.36,4.01-.17.42-.19.45-.22.53-.1.17-.13.38-.08.57.15.62,1.06.74,1.36.18.55-1.26,1.02-2.55,1.43-3.87.08-.26.16-.51.23-.77.1-.27.17-.58,0-.84Z"/>
        <path class="cls-11" d="m225.69,166.75c-.08-2.7-.25-5.39-.48-8.08-.15-1.69-.39-3.37-.71-5.03-.12-.62-.25-1.24-.41-1.85-.09-.26-.1-.57-.28-.79-.47-.65-1.53-.12-1.31.65,1.09,4.02,1.26,7.28,1.55,11.52.16,3.81.37,7.62.21,11.44-.04,1.05-.09,2.11-.19,3.16-.01.58-.35,1.42.36,1.7.33.16.75,0,.93-.31.12-.2.1-.44.13-.67.08-.76.14-1.51.18-2.27.19-3.15.15-6.31.01-9.46Z"/>
        <path class="cls-11" d="m98.08,158.33c.05-.51.22-1.03.21-1.54-.08-.79-1.25-.87-1.45-.1-1.07,6.16-1.04,12.45-.53,18.66.04.23,0,.47.11.68.12.35.53.52.88.43.32-.08.55-.39.55-.72-.06-.52-.1-1.03-.14-1.55-.09-1.36-.15-2.73-.2-4.1-.12-3.05-.02-6.11.25-9.15.12-1.19.2-1.8.33-2.62Z"/>
        <path class="cls-18" d="m121.67,114.6c-.04-.51-.68-.82-1.11-.55-.6.45-1.2.91-1.78,1.39-3.1,2.61-5.99,5.48-8.65,8.54-1.53,1.8-3.02,3.63-4.45,5.51-.62.83-1.24,1.65-1.81,2.51-.19.29-.38.57-.57.86-.09.12-.17.25-.17.4-.13.79.98,1.17,1.38.48,1.6-2.45,2.87-4.05,4.58-6.16,2.77-3.49,5.84-6.73,9.15-9.7.81-.72,1.62-1.42,2.48-2.08.08-.06.19-.15.25-.19.34-.25.82-.51.71-1.01Z"/>
        <path class="cls-18" d="m221.7,134.77c-.25-.61-.6-1.17-.95-1.73-2.33-3.6-5.02-6.97-7.99-10.05-2.88-2.96-5.85-5.82-8.97-8.52-.67-.86-1.89.11-1.17.94,1.45,1.33,2.96,2.61,4.39,3.97,1.35,1.27,2.64,2.6,3.95,3.91,3.2,3.19,5.51,6.08,7.94,9.62.44.69.9,1.37,1.28,2.09.06.12.12.24.17.36.03.08.07.19.09.25.08.28.33.52.62.53.36.07.72-.19.82-.53.09-.3-.07-.58-.18-.85Z"/>
        <path class="cls-17" d="m229.48,165.82c-.02-.29-.04-.57-.06-.86-.09-1.17-.2-2.33-.35-3.49-.06-.51-.14-1.01-.21-1.52-.02-.1-.07-.18-.13-.25-.47-.65-1.53-.12-1.31.65.17,1.16.34,2.55.47,4.19.03.43.07.87.09,1.3.01.29,0,.6.23.81.33.34.94.26,1.17-.15.13-.21.1-.45.08-.69Z"/>
        <path class="cls-17" d="m231.65,161.38c-.11-.73-.23-1.46-.35-2.19-.19-1.21-.39-2.42-.58-3.62-.29-.94-1.67-.56-1.44.4.24,1.52.49,3.03.73,4.55.07.42.13.84.2,1.27.02.1.07.18.13.25.28.43.99.37,1.23-.08.09-.18.13-.38.08-.58Z"/>
        <path class="cls-17" d="m232.51,170.21c-.04-1.31-.1-2.62-.18-3.93-.02-.32-.05-.63-.09-.95,0-.2-.08-.39-.22-.53-.44-.47-1.3-.12-1.27.53.16,1.56.2,3.13.27,4.69.01.45.03.89.04,1.34,0,.2.08.39.22.53.33.34.94.26,1.17-.15.21-.44.04-1.05.07-1.53Z"/>
        <path class="cls-17" d="m220.81,163.54c-.01-.43-.03-.85-.05-1.27-.06-1.27-.16-2.54-.33-3.8-.05-.39-.11-.78-.18-1.16-.04-.21-.04-.44-.19-.6-.47-.65-1.53-.12-1.31.65.28,1.58.41,2.91.51,4.87.03.56.05,1.11.06,1.67-.02.65.82,1,1.27.53.24-.23.23-.56.21-.87Z"/>
        <path class="cls-17" d="m220.71,166c-.29-.75-1.44-.51-1.43.29-.09,1.77-.25,2.55-.47,4.14-.06.39-.12.77-.18,1.16-.05.19-.03.4.08.57.19.35.68.47,1.02.27.5-.32.38-1.01.51-1.52.18-1.22.36-2.45.48-3.68,0-.4.14-.85,0-1.23Z"/>
        <path class="cls-17" d="m217.84,162.03c-.02-.3-.04-.61-.08-.91-.02-.18-.04-.37-.17-.5-.47-.65-1.53-.12-1.31.65.1.59.11,2.74.07,4.01,0,.34-.02.69-.03,1.03-.02.6-.04,1.2-.08,1.8,0,.28-.1.58.03.83.2.56,1.04.61,1.33.09.2-.45.11-.99.17-1.47.04-.86.07-1.71.08-2.57.01-.99.04-1.98-.01-2.96Z"/>
        <path class="cls-17" d="m97.86,142.01c-.08-.79-1.25-.87-1.45-.1-.58,1.76-1.04,3.55-1.48,5.34-.08.54-.51,1.28.06,1.69.28.24.72.19.98-.06.3-.33.27-.83.4-1.23.3-1.21.6-2.42.95-3.62.14-.47.28-.94.43-1.41.06-.2.17-.4.12-.61Z"/>
        <path class="cls-17" d="m95.63,151.15c-.08-.79-1.25-.87-1.45-.1-.6,2-.86,4.09-1.18,6.15-.07.5-.15,1.01-.21,1.51-.1.4-.03.91.41,1.06.26.13.61.05.82-.15.19-.19.22-.44.24-.69.02-.17.06-.46.08-.56.11-.74.22-1.48.33-2.21.18-1.15.36-2.31.63-3.44.07-.32.16-.65.25-.97.05-.19.15-.39.1-.59Z"/>
        <path class="cls-17" d="m93.63,145.82c-.08-.79-1.25-.87-1.45-.1-.38,1.31-.72,2.62-1.07,3.94-.17.66-.34,1.31-.5,1.97-.07.45-.37.94-.12,1.37.23.42.84.49,1.17.15.09-.09.16-.2.19-.33.11-.43.21-.86.32-1.29.23-.89.46-1.78.69-2.67.18-.69.36-1.37.55-2.05.07-.33.26-.65.21-.99Z"/>
        <path class="cls-4" d="m209.8,126.87c-.93-1.9-2.11-3.69-2.95-5.64-.05-.12-.1-.24-.14-.36-.15-.42-.29-.84-.37-1.28,0,0,0-.02,0-.03.27-.13.51-.32.66-.59.21-.34.25-.77.15-1.15-.46-1.4-2.02-1.32-2.96-.44-.66.61-.9,1.55-.81,2.42.11,1.17.6,2.26,1.07,3.32.83,1.84,1.95,3.52,2.81,5.34.64,1.87.68,2.03.57,3.8-.04.25-.1.66-.14.83-.02.16-.13.48-.2.67-.37.74-.28.56-.65.91-.04.02-.08.05-.12.07-.21.07-.44.12-.66.15-.07,0-.14.01-.22,0-.06,0-.13,0-.19,0-.21-.04-.42-.1-.62-.17-.11-.05-.22-.11-.33-.17-.19-.1-.61-.39-.67-.43-.13-.1-.26-.2-.39-.31-1.66-1.48-2.04-2-2.97-3.37-1.49-2.21-2.68-4.59-3.95-6.93-2.14-3.94-4.25-7.92-6.81-11.61-2.88-4.13-7.32-9.13-11.92-11.28-1.98-.97-4.92-1.64-6.53.31-1.63,2.12-.23,4.89.83,6.95,1.42,2.79,3.53,5.14,5.31,7.69,1.42,1.98,2.81,3.98,4.14,6.02,1.62,2.57,2.66,4.31,3.26,6.56.34,1.52.3,1.07.35,2.39-.06,1.29.01.62-.27,1.99-.3.97-.06.33-.39,1.03-.18.28-.12.32-.68.8-.07.04-.14.09-.21.12-.05.02-.11.03-.16.05-.15,0-.3,0-.45-.02-.12-.02-.36-.06-.52-.1-1.33-.4-.92-.24-2.22-1.01-4.22-2.88-7.64-8.57-10.86-14.29-1.68-2.98-3.32-5.97-5.07-8.9-1.49-2.46-3.06-4.89-5.05-6.97-1.95-2.03-4.27-4.23-7.24-4.38-1.9.02-3.64,1.32-4.28,3.1-.37,1.1-.27,2.32-.01,3.43.51,1.75,1.39,3.36,2.43,4.86.97,1.46,1.97,2.91,2.96,4.36,1.86,2.77,3.77,5.52,5.31,8.48,1.17,2.35,1.86,3.7,2.37,6.68.02.24.04.48.04.71,0,.25-.01.5-.04.75-.29,1.85-.44,2.2-1.48,3.15-.15.1-.3.18-.46.26-.13.05-.27.08-.41.11-.05,0-.1,0-.14,0-.15,0-.3,0-.45-.02-.08-.01-.16-.03-.24-.04-.91-.28-.87-.25-2.13-1.06-.23-.16-.46-.33-.68-.5-.04-.04-.09-.07-.13-.11-1.99-1.64-3.62-3.66-5.22-5.67-3.89-4.68-7.57-10.72-12.84-15.47-1.5-1.28-3.03-2.63-4.92-3.29-1.33-.38-2.77-.67-4.13-.31-1.83.61-3.25,2.3-3.64,4.17-.71,4.75,2.72,8.65,5.13,12.38.93,1.37,2.56,4.54,2.63,4.84.39,1.06.45,1.25.43,1.63,0,.01,0,.03,0,.04,0,.05-.02.1-.03.15,0,.01-.02.02-.02.03-.02.02-.03.04-.06.07-.03.03-.06.06-.09.09-.07.05-.14.09-.21.13-.03.01-.05.03-.08.04-.07.02-.14.04-.2.06-.03,0-.07,0-.1,0-.22,0-.44,0-.65,0-.26-.05-.51-.13-.76-.23-.6-.34-1.81-1.17-2.39-1.7-2.13-1.85-4.21-3.75-6.53-5.36-1.5-1.08-3.09-2.09-4.92-2.48-1.03-.22-2.1-.4-3.13-.12-3.36,1.06-4.1,4.62-2.83,7.62,1.09,2.75,2.93,5.11,4.18,7.78.07.14.22.47.31.66.03.07.05.14.08.2.14.47.34.95.8,1.19,1.14.68,2.55-.42,2.19-1.69-1.09-3.2-4.25-7.48-4.86-9.43-.34-1.22-.22-.53-.29-1.59.02-.35-.03-.41.17-.95.04-.07.09-.16.15-.26.1-.12.19-.23.31-.33,0,0,.02-.01.03-.02.13-.09.27-.18.4-.25,0,0,0,0,.01,0,.12-.04.23-.07.35-.09.19,0,.42,0,.54.02.17.03.33.05.5.08,1.77.43,1.76.47,3.42,1.5,1.88,1.26,2.08,1.45,3.66,2.73,1.54,1.28,2.98,2.68,4.58,3.88.92.72,1.93,1.38,3.07,1.69.92.19,1.92.24,2.82-.06,1.65-.57,2.73-2.07,2.57-3.83-.11-1.19-.63-2.3-1.12-3.38-.71-1.43-1.47-2.84-2.34-4.18-1-1.54-2.1-3.01-3.03-4.59-.45-.77-.88-1.55-1.24-2.36-.23-.61-.4-1.25-.49-1.9-.05-.46-.07-.93-.02-1.39.03-.15.09-.32.14-.45.07-.14.14-.28.22-.41.05-.08.1-.16.16-.24.1-.11.2-.22.31-.33.07-.07.14-.14.22-.2.02-.02.05-.03.07-.05.11-.08.22-.15.34-.21.04-.01.09-.03.13-.04.05-.01.09-.02.14-.03.79-.06.74.03,1.07.05.51.09,1.02.21,1.51.39.76.39,1.86,1.11,2.89,2.03,5.62,4.95,8.39,9.85,13.05,15.55,2.21,2.79,4.51,5.63,7.58,7.51,3.19,1.92,6.43,1.29,8.26-2.07.63-1.24.83-2.65.89-4.03-.04-2.57-.95-5.03-2-7.34-2.02-4.32-4.84-8.19-7.5-12.14-1.13-1.73-2.43-3.37-3.28-5.26-.42-1.05-.56-1.62-.55-2.07,0-.19,0-.38,0-.58.02-.08.03-.16.06-.24,0-.02.01-.03.02-.05.09-.17.19-.32.29-.47.06-.08.13-.14.21-.21.08-.06.15-.11.24-.16.07-.04.13-.07.2-.1.02,0,.04-.01.06-.02.11-.03.22-.06.31-.08.1,0,.19,0,.29,0,.2.04.41.11.61.16.73.27.47.11,1.56.79.17.13.25.18.26.18.97.76,1.86,1.61,2.69,2.52.5.55.99,1.11,1.45,1.69,3.78,5.2,6.57,11.02,9.85,16.53,1.35,2.31,2.82,4.56,4.46,6.67,1.18,1.5,2.39,3,3.87,4.21.87.69,1.73,1.4,2.71,1.91,1.3.64,2.75,1.12,4.21.96,2.22-.32,3.62-2.53,4.01-4.59,1.25-5.6-2.32-10.71-5.29-15.13-1.3-1.89-2.61-3.77-3.99-5.61-1.62-2.1-3.22-4.23-4.35-6.64-.56-1.21-.32-.6-.66-1.76-.03-.12-.05-.25-.08-.38,0-.1-.01-.2-.01-.3.02-.09.05-.17.07-.26,0-.01.01-.03.02-.04,0,0,.02-.01.03-.02.3-.08.62-.37,2.52.36.58.26,1.15.55,1.69.87.59.36,1.15.76,1.7,1.17,2.24,1.81,4.26,3.9,6.07,6.14,2.61,3.18,6.24,9.71,8.79,14.52,2.26,4.15,4.45,8.77,8.64,11.3,1.47.86,3.33.97,4.87.23,1.04-.53,1.78-1.52,2.18-2.59.35-.85.45-1.78.55-2.69.16-1.8-.27-3.61-1.03-5.24Z"/>
        <path class="cls-7" d="m307.43,127.55c-.02-.34-.06-.68-.08-1.02,0-.2-.08-.39-.22-.53-.44-.47-1.3-.12-1.27.53.11,1.54.25,3.07.21,4.62.02.98,1.47.98,1.49,0,.02-1.2-.04-2.4-.14-3.59Z"/>
        <path class="cls-7" d="m307.44,133.94c-.29-.75-1.44-.51-1.43.29-.04,1.07-.1,2.13-.18,3.19-.03.35-.05.7-.09,1.04,0,.1.02.2.06.29.29.75,1.44.51,1.43-.29.09-1.04.16-2.08.21-3.12.01-.3.03-.59.04-.89,0-.17.04-.36-.05-.52Z"/>
        <path class="cls-7" d="m101.2,162.97c-.29-.75-1.44-.51-1.43.29-.12,1.23-.21,2.46-.28,3.69.01.43-.14.9,0,1.31.12.35.53.52.88.43.72-.2.53-1.06.6-1.63.05-.91.11-1.81.18-2.72.03-.36.07-.72.1-1.08,0-.1-.02-.2-.06-.29Z"/>
        <path class="cls-7" d="m101.21,174.73c-.03-.28-.05-.55-.08-.83-.1-.97-.15-1.95-.18-2.93-.02-.98-1.47-.98-1.49,0,.03,1.23.12,2.46.25,3.68.05.34,0,.73.27.99.33.34.94.26,1.17-.15.15-.23.09-.5.06-.76Z"/>
        <path class="cls-7" d="m103.38,168.24c0-.36,0-.72.03-1.08,0-.19.06-.4-.04-.58-.29-.75-1.44-.51-1.43.29-.11,1.42,0,2.85.04,4.27.02.4.04.8.06,1.19,0,.2.08.39.22.53.44.47,1.3.12,1.27-.53-.08-1.36-.13-2.73-.15-4.09Z"/>
        <path class="cls-7" d="m13.67,120.8c-.27,1.26-.34,2.56-.44,3.84-.03.39-.05.78-.07,1.16-.01.37-.12.81.19,1.1.44.47,1.29.12,1.27-.53.11-1.89.2-3.85.49-5.18.24-.95-1.15-1.34-1.44-.4Z"/>
        <path class="cls-7" d="m14.91,132.36c-.01-.09-.02-.18-.04-.27-.09-.7-.16-1.39-.2-2.1-.05-.4.06-.88-.25-1.19-.44-.47-1.3-.12-1.27.53.04.97.12,1.93.25,2.89.02.18.05.36.07.53.08.28.33.52.62.53.51.1.97-.44.82-.93Z"/>
        <path class="cls-7" d="m17.12,124.44c-.29-.75-1.44-.51-1.43.29-.12,1.23-.12,2.47-.12,3.7,0,.44,0,.89.02,1.33,0,.2.08.39.22.53.44.47,1.3.12,1.27-.53-.03-1.24-.03-2.47.01-3.71.01-.35.03-.7.06-1.04.01-.19.06-.4-.04-.57Z"/>
        <path class="cls-9" d="m242.9,147.2c-.29-.54-.59-1.09-.87-1.64-.45-.84-.85-1.7-1.24-2.57-.52-.84-1.76-.11-1.29.75.5,1.13,1.05,2.23,1.64,3.32.23.36.35.82.67,1.1.45.4,1.22,0,1.2-.59,0-.13-.03-.26-.1-.38Z"/>
        <path class="cls-9" d="m245.84,150.94c-.54-.51-1.17-1.27-1.27-1.43-.17-.2-.25-.48-.47-.63-.62-.51-1.51.27-1.1.96.51.85,1.2,1.59,1.91,2.28.83.73,1.8-.51.93-1.18Z"/>
        <path class="cls-9" d="m246.51,148.09c-.22-.3-.43-.6-.64-.9-.59-.9-1.16-1.82-1.65-2.77-.39-1.01-1.85-.34-1.35.62.41.87.93,1.69,1.44,2.51.39.57.75,1.19,1.23,1.69.45.4,1.22,0,1.2-.59,0-.22-.1-.4-.24-.55Z"/>
        <path class="cls-9" d="m194.6,162.3c.03-1.19-.2-3.69-.32-4.12.03-1.04-1.45-1.13-1.5-.09.15,1.11.26,1.62.3,3,.02.58.03,1.16.03,1.74.02.24-.05.51.07.74.17.49.86.61,1.21.24.37-.41.17-1.01.21-1.51Z"/>
        <path class="cls-9" d="m194.4,165.61c-.08-.8-1.25-.87-1.45-.1-.15.88-.64,2.13-.77,2.39-.12.27-.31.55-.21.86.15.62,1.06.74,1.36.18.34-.72.64-1.47.87-2.24.08-.36.24-.73.2-1.09Z"/>
        <path class="cls-9" d="m192.13,161.09c-.29-.94-1.67-.56-1.44.4.19.69.03,3.62-.14,4.35-.2.73.71,1.26,1.25.73.18-.17.21-.42.24-.65.05-.33.09-.67.12-1,.12-1.27.18-2.56-.03-3.82Z"/>
        <path class="cls-9" d="m85.77,133.48c-.08-.79-1.25-.87-1.45-.1-.43,1.58-.8,3.18-1.18,4.77-.09.4-.19.8-.28,1.2-.07.24-.09.5.04.72.3.56,1.21.44,1.36-.18.33-1.4.65-2.81.99-4.2.12-.49.25-.98.38-1.48.05-.24.18-.48.13-.73Z"/>
        <path class="cls-9" d="m83.65,142.07c-.08-.79-1.25-.87-1.45-.1-.27.97-.59,1.93-.97,2.86,0,0,0,.02-.01.03,0,.02-.02.04-.02.06,0,0,0,.02-.01.02,0,0,0-.01,0-.02-.11.28-.3.54-.34.83-.11.51.45.97.93.82.34-.09.49-.4.61-.7.19-.41.36-.82.52-1.24.2-.54.38-1.09.55-1.64.07-.3.24-.61.19-.92Z"/>
        <path class="cls-9" d="m82.28,136.49c-.3-.56-1.21-.44-1.36.18-.25,1.7-.67,3.38-1.18,5.02-.08.41-.37.87-.33,1.28.03.51.68.81,1.11.55.27-.16.35-.46.44-.74.46-1.43.87-2.88,1.16-4.36.07-.39.14-.78.2-1.17.05-.25.11-.53-.04-.76Z"/>
        <path class="cls-15" d="m304.85,112.93c-.06-.34,0-.76-.23-1.05-.47-.65-1.51-.12-1.31.64.01.12.03.24.04.37.06.69.07,1.39.05,2.08,0,.4-.02.8-.03,1.19,0,.2.08.39.22.53.33.34.94.26,1.17-.15.18-.35.08-.76.12-1.14.02-.82.03-1.65-.04-2.47Z"/>
        <path class="cls-15" d="m304.69,118.34c-.29-.75-1.44-.51-1.43.29-.06.56-.11.96-.31,1.89-.08.54-.51,1.28.05,1.69.28.24.72.19.98-.06.29-.33.27-.81.4-1.22.14-.59.23-1.19.31-1.79.02-.26.12-.55,0-.8Z"/>
        <path class="cls-15" d="m302.45,114.82c-.29-.75-1.44-.51-1.43.29-.04,1.46-.13,1.93-.37,3.22-.05.45-.34.93-.09,1.36.23.42.84.49,1.17.15.31-.35.28-.88.4-1.32.15-.82.27-1.65.34-2.48,0-.4.12-.83-.02-1.21Z"/>
        <path class="cls-15" d="m102.87,141.82c-.15-.62-1.06-.74-1.36-.18-.36.79-.69,1.59-.95,2.42-.07.32-.27.63-.22.96.02.37.38.64.73.65.45.01.72-.39.79-.79.2-.64.41-1.27.67-1.88,0,0,0,0,0,0,.02-.04.03-.07.05-.11.13-.34.41-.68.3-1.07Z"/>
        <path class="cls-15" d="m101.03,148.39c0,.07-.02.13-.03.2.02-.41.21-.81.18-1.22-.08-.79-1.25-.87-1.45-.1-.29,1.3-.34,2.64-.36,3.96,0,.34-.06.73.22.98.28.29.78.29,1.06,0,.34-.35.18-.88.22-1.32.02-.84.06-1.68.16-2.51Z"/>
        <path class="cls-15" d="m104.42,144.69c-.08-.79-1.25-.87-1.45-.1-.47,1.43-.89,2.89-1.11,4.39-.33,1.26,1.46,1.5,1.47.18.16-1.02.43-2.02.71-3.01.09-.31.18-.61.28-.92.06-.18.14-.36.1-.54Z"/>
        <path class="cls-15" d="m16.09,98.88c-.53.82-.9,1.72-1.29,2.61-.14.44-.51.86-.4,1.33.15.62,1.06.74,1.36.18.39-.9.76-1.81,1.21-2.68.13-.33.44-.62.49-.96.14-.79-.98-1.17-1.38-.48Z"/>
        <path class="cls-15" d="m15.19,105.01c-.08-.79-1.25-.87-1.45-.1-.61,1.59-.88,3.29-1.13,4.97-.02.25-.13.53,0,.76.17.49.86.61,1.21.24.13-.15.22-.33.22-.53,0,0,0,0,0-.01.02-.14.04-.28.06-.42.07-.51.16-1.01.26-1.51.16-.79.32-1.58.56-2.36.06-.19.12-.38.19-.57.07-.15.14-.32.09-.48Z"/>
        <path class="cls-15" d="m18.33,102.24c-.15-.62-1.06-.74-1.36-.18-.49,1.08-.87,2.22-1.21,3.35-.12.4-.23.81-.35,1.21-.04.18-.13.37-.09.56.04.6.86.86,1.26.43.21-.2.22-.5.31-.75.14-.5.29-1.01.44-1.51.24-.78.52-1.55.82-2.31.12-.26.28-.52.18-.81Z"/>
        <path class="cls-1" d="m24.52,161.37c-.11-.36-.46-.58-.69-.86-.48-.51-.95-1.02-1.42-1.54-1.72-1.88-2.87-3.22-4.18-5.12-.34-.49-.69-.98-1-1.5-.17-.24-.2-.58-.46-.75-.62-.51-1.51.27-1.1.96.31.73.8,1.35,1.24,2,.87,1.26,1.8,2.46,2.8,3.62.84.97,1.71,1.91,2.58,2.85.27.29.54.58.81.86.13.13.24.29.42.34.54.27,1.18-.31,1.01-.88Z"/>
        <path class="cls-1" d="m40.43,171.81c-.08-.26-.27-.44-.52-.53-.32-.16-.65-.32-.97-.48-2.78-1.44-5.5-2.98-8.13-4.69-.86-.55-1.71-1.12-2.54-1.71-.21-.15-.42-.3-.63-.45-.19-.12-.35-.31-.59-.32-.79-.14-1.17.98-.48,1.38,4.01,2.92,8.31,5.45,12.75,7.65.55.34,1.28-.22,1.1-.84Z"/>
        <path class="cls-1" d="m29.21,169.45c-.07-.3-.35-.44-.57-.63-.35-.28-.69-.56-1.03-.84-2.27-1.87-4.47-3.82-6.56-5.89-.52-.52-1.03-1.05-1.52-1.61-.28-.27-.43-.7-.8-.86-.73-.34-1.39.65-.82,1.21,1.75,2.24,3.95,4.1,6.05,6.01.98.85,1.96,1.68,2.96,2.5.34.28.69.56,1.04.84.14.14.33.22.53.22.48.01.85-.48.72-.94Z"/>
        <path class="cls-1" d="m135.69,198.46c-.53-.08-1.07-.15-1.6-.23-1.37-.2-2.73-.4-4.1-.61-3.68-.57-7.33-1.29-11.02-1.77-.33-.05-.71-.1-.96.17-.47.44-.12,1.29.53,1.27,4.25.54,9.95,1.68,14.87,2.34.5.07,1,.15,1.5.22.23.01.46.11.69.07.29-.02.54-.26.62-.53.1-.39-.13-.82-.52-.92Z"/>
        <path class="cls-1" d="m154.7,199.81c-.12-.07-.24-.1-.38-.1-.42-.02-.84-.04-1.26-.06-3.05-.15-6.1-.28-9.13-.58-1.73-.15-2.5-.35-4.05-.5-.79.08-.87,1.25-.1,1.45,3.3.53,6.63.78,9.97.95,1.41.07,2.82.14,4.23.21.3.03.64.04.87-.2.34-.33.26-.94-.15-1.17Z"/>
        <path class="cls-1" d="m145.62,202.87c-.49-.02-.98-.05-1.47-.09-1.46-.1-2.93-.21-4.38-.35-3.58-.33-7.15-.83-10.73-1.24-.42,0-.88-.16-1.28-.01-.74.29-.51,1.44.29,1.43,2.02.13,4.03.46,6.04.69,3.21.38,6.42.73,9.64.95.56.04,1.11.07,1.67.1.24,0,.5.07.73-.04.28-.09.46-.39.46-.68,0-.53-.48-.8-.97-.76Z"/>
        <path class="cls-1" d="m263.87,185.91c-.13-.04-.26-.04-.4,0-.41.15-.82.29-1.23.44-2.83.99-5.68,1.93-8.55,2.8-.87.26-1.74.52-2.61.76-.4.15-.93.14-1.17.55-.34.55.22,1.28.84,1.1,3.15-.88,6.28-1.85,9.37-2.9.94-.32,1.87-.64,2.81-.96.31-.11.62-.22.94-.33.19-.05.35-.18.45-.34.25-.41.01-.98-.45-1.1Z"/>
        <path class="cls-1" d="m280.51,177.92c-.49.04-.91.46-1.35.66-2.63,1.53-5.35,2.91-8.14,4.12-1.1.49-1.3.57-2.4,1-.29.13-.63.17-.89.36-.65.47-.12,1.53.65,1.31,2.59-.94,5.09-2.12,7.56-3.33,1.19-.6,2.36-1.25,3.52-1.91.39-.22.78-.44,1.16-.66.16-.11.37-.17.48-.35.4-.45,0-1.22-.59-1.2Z"/>
        <path class="cls-1" d="m275.28,184.7c-.51-.12-.98.32-1.45.49-3.28,1.52-6.6,2.99-9.47,4.17-.96.39-1.92.77-2.88,1.14-.39.18-.85.25-1.21.49-.65.47-.12,1.53.65,1.31,3.18-1.16,6.3-2.5,9.4-3.87,1.15-.51,2.3-1.02,3.44-1.55.45-.21.91-.42,1.36-.64.19-.1.42-.16.54-.35.34-.38.1-1.05-.39-1.17Z"/>
        <path class="cls-8" d="m300.07,189.4c-.08-.79-1.25-.87-1.45-.1-.64,2.99-1.17,6.01-1.71,9.03-.05.27-.13.56.03.8.23.42.84.49,1.17.15.09-.09.16-.2.19-.33.11-.6.22-1.2.32-1.8.11-.59.21-1.18.32-1.78.27-1.5.56-3,.86-4.5.06-.32.12-.63.19-.95.03-.17.11-.35.07-.53Z"/>
        <path class="cls-8" d="m297.35,202.91c-.3-.56-1.21-.44-1.36.18-.6,4.15-1.35,8.27-2.1,12.39-.2.73.71,1.26,1.25.73.09-.09.16-.2.19-.33.07-.4.14-.8.21-1.2.54-2.97,1.07-5.95,1.54-8.93.1-.62.19-1.25.28-1.87.03-.32.17-.67-.02-.97Z"/>
        <path class="cls-8" d="m293.96,196.16c-.39,2.96-1.27,7.72-1.94,11.37-.05.28-.14.58.03.83.3.56,1.21.44,1.36-.18.71-3.9,1.45-7.79,2-11.71.32-1.16-1.35-1.49-1.46-.31Z"/>
        <path class="cls-8" d="m17.06,192.19c-.14-.95-.29-1.91-.44-2.86-.36-2.41-1-5.6-1.23-7.35-.02-.98-1.46-.98-1.49,0,.31,2.46.85,4.88,1.21,7.34.11.67.22,1.33.32,2,.05.34.1.68.15,1.02.01.27.13.55.38.68.56.34,1.28-.22,1.1-.84Z"/>
        <path class="cls-8" d="m19.44,206.58c-.12-.61-.23-1.22-.35-1.83-.5-2.47-.82-4.98-1.28-7.46-.28-.94-1.67-.56-1.44.4.4,2.13.67,4.28,1.08,6.4.11.59.22,1.18.34,1.77.06.29.11.59.17.88.03.17.05.36.18.49.28.43.99.37,1.23-.08.09-.18.13-.38.08-.58Z"/>
        <path class="cls-8" d="m21.56,199.21c-.07-.4-.13-.8-.19-1.21-.45-2.97-.7-4.92-1.07-7.8-.07-.56-.14-1.11-.2-1.67-.04-.3,0-.64-.25-.86-.44-.47-1.3-.12-1.27.53.46,4.03,1,8.05,1.65,12.05.16.62,1.05.74,1.36.18.21-.38,0-.81-.03-1.21Z"/>
        <path class="cls-8" d="m25.42,241.93c-.54-2.94-1.16-5.86-1.68-8.8-.28-.94-1.67-.56-1.44.4.51,2.88,1.11,5.74,1.64,8.61.09,1.11,1.71.89,1.48-.2Z"/>
        <path class="cls-8" d="m28.01,255.38c-.18-.91-.37-1.81-.54-2.72-.29-1.54-.59-3.07-.86-4.61-.09-.53-.19-1.05-.26-1.58-.05-.25-.02-.54-.2-.73-.47-.65-1.53-.12-1.31.65.31,2.15.75,4.28,1.15,6.42.18.92.36,1.84.55,2.76.03.26.14.52.39.66.56.34,1.28-.22,1.1-.84Z"/>
        <path class="cls-8" d="m29.98,248.86c-.09-.53-.18-1.06-.26-1.59-.49-2.93-1.04-5.85-1.58-8.77-.28-.94-1.67-.56-1.44.4.53,2.84,1.06,5.68,1.54,8.53.12.7.23,1.4.35,2.11.02.28.13.56.39.7.41.25.97.01,1.1-.45.08-.31-.06-.63-.09-.94Z"/>
      </g>
      <g>
        <path class="cls-3" d="m245.85,98.05c-.34-.32-.8-.43-1.24-.54-.65-.17-1.3-.31-1.96-.46-.42-.09-.85-.19-1.28-.26-.24-.07-.5-.03-.72.09-.24.14-.38.36-.43.6-.2.34-.21.79.13,1.13.38.33.84.54,1.3.75.9.39,1.84.7,2.8.89.64.13,1.5.24,1.89-.42.36-.61,0-1.36-.5-1.78Z"/>
        <path class="cls-3" d="m255.65,89.68c-.06-.83-1.11-1.32-1.8-.89-.53.22-1.01.54-1.52.8-.43.21-.89.47-1.01.97-.3,1.02.87,1.92,1.78,1.37.51-.27,1.02-.55,1.53-.84.61-.22,1.16-.71,1.02-1.42Z"/>
        <path class="cls-3" d="m236.09,91.68c-.42.46-.82.93-1.2,1.43-.3.39-.72.75-.7,1.28-.02,1.06,1.33,1.62,2.07.86.4-.49.79-1,1.21-1.48.2-.25.49-.45.59-.76.54-1.2-1.04-2.25-1.97-1.32Z"/>
        <path class="cls-3" d="m239.39,103.49c-.27-.06-.54-.12-.8-.19-.23-.08-.47-.16-.71-.09-1.3.14-1.41,2.01-.16,2.36.74.21,1.77.61,2.3-.18.55-.62.17-1.71-.63-1.9Z"/>
        <path class="cls-3" d="m259.46,103.15c-.33-.56-1.1-.77-1.66-.43-.43.31-.84.62-1.26.95-.33.3-.8.52-.95.97-.54,1.2,1.04,2.25,1.97,1.32.78-.65.58-.48,1.04-.84.25-.21.58-.35.77-.62.32-.36.33-.94.09-1.35Z"/>
        <path class="cls-3" d="m266.88,93.1c-.23-.42-.71-.55-1.1-.76-.64-.24-1.26-.82-1.98-.62-1.02.27-1.2,1.7-.29,2.22.44.22.89.43,1.33.64.41.21.84.45,1.31.3.75-.19,1.12-1.12.72-1.78Z"/>
        <path class="cls-3" d="m258.76,96.34c-.14-1.3-2.01-1.41-2.36-.16-.01.04-.09.22-.41.87-.22.46-.46.91-.69,1.36-.24.41-.23.99.09,1.35.34.5,1.06.6,1.56.31.5-.3.65-.92.93-1.4.21-.42.42-.84.61-1.27.13-.34.36-.68.26-1.05Z"/>
        <path class="cls-3" d="m261.54,85.5c-.49-.22-.98-.46-1.48-.66-.28-.16-.62-.21-.93-.12-1.02.26-1.2,1.7-.29,2.22.58.23,1.13.51,1.7.76.31.13.63.31.97.22.6-.04,1.04-.61,1.05-1.19.01-.61-.46-1.06-1.02-1.23Z"/>
        <path class="cls-3" d="m264.83,79.85c-.26-1.02-1.7-1.2-2.22-.29-.21.34-.43.69-.64,1.03-.14.23-.32.45-.32.73-.19.97.97,1.72,1.8,1.21.36-.2.53-.61.75-.94.31-.53.83-1.08.62-1.74Z"/>
        <path class="cls-3" d="m237.71,84.19c-.41-.31-.78-.76-1.33-.74-1.06-.02-1.62,1.33-.86,2.07.29.24.59.47.88.71.31.28.65.58,1.1.56.65.01,1.22-.57,1.21-1.21.01-.66-.54-1.02-1-1.39Z"/>
        <path class="cls-3" d="m228.45,93.91c-.68-.22-1.36-.47-2.02-.73-.34-.12-.68-.36-1.06-.26-1.3.14-1.41,2.01-.16,2.36.67.29,1.36.55,2.05.79.33.1.68.29,1.03.21,1.3-.14,1.41-2.01.16-2.36Z"/>
        <path class="cls-3" d="m228.55,101.78c-.36.37-.71.74-1.05,1.13-.22.22-.36.54-.36.86-.02,1.06,1.33,1.62,2.07.86.33-.36.67-.72,1.01-1.08.32-.32.67-.68.65-1.16-.06-1.29-1.59-1.62-2.32-.6Z"/>
        <path class="cls-3" d="m241.25,110.91c-.74-.76-2.08-.2-2.07.86,0,.52-.03,1.05-.04,1.57-.04.46-.02.96.34,1.29.74.76,2.08.2,2.07-.86.02-.52.03-1.04.05-1.55.03-.46.02-.97-.35-1.3Z"/>
        <path class="cls-3" d="m256.49,111.9c-.34-.59-1.07-.64-1.65-.85-.52-.16-1.09-.42-1.6-.09-.92.52-.73,1.95.29,2.22.41.14.83.26,1.24.39.27.08.55.21.84.14.84-.05,1.32-1.11.89-1.8Z"/>
        <path class="cls-3" d="m250.57,103.11c-.32-.31-.75-.42-1.18-.31-.41.11-.67.46-1,.7-.33.33-.83.54-.99,1-.54,1.2,1.04,2.25,1.97,1.32.32-.25.62-.52.94-.78.21-.17.44-.34.52-.61.22-.43.08-.99-.25-1.32Z"/>
        <path class="cls-3" d="m269.47,100.18c-.18-.26-.35-.53-.5-.81-.13-.24-.23-.52-.48-.67-1.03-.83-2.44.43-1.78,1.56.24.49.52.95.84,1.38.21.32.46.63.85.73.75.22,1.54-.39,1.53-1.17.02-.41-.24-.72-.47-1.03Z"/>
        <path class="cls-3" d="m278.09,92.41c-.2-.57-.87-.85-1.43-.7-.49.15-.82.59-1.23.87-1.48,1.04.15,3.09,1.49,1.9.31-.25.61-.5.92-.75.34-.33.47-.9.25-1.32Z"/>
        <path class="cls-3" d="m276.49,86c-.42-.3-.73-.76-1.21-.97-1.2-.54-2.25,1.04-1.32,1.97.51.4.96,1.07,1.67,1.07,1.06.02,1.62-1.33.86-2.07Z"/>
        <path class="cls-3" d="m280.31,98.6c-.44.46-.86.92-1.29,1.39-.2.26-.5.47-.6.78-.54,1.2,1.04,2.25,1.97,1.32.41-.46.83-.92,1.25-1.37.34-.36.77-.73.74-1.27.02-1.06-1.33-1.62-2.07-.86Z"/>
        <path class="cls-3" d="m286.73,92.79c-.27-.18-.54-.35-.8-.55-.2-.16-.42-.32-.69-.32-1.3-.21-1.9,1.58-.77,2.24.26.2.53.39.81.57.21.14.43.3.69.3,1.3.21,1.9-1.58.77-2.24Z"/>
        <path class="cls-3" d="m218.85,100.54c-.3-.31-.74-.36-1.13-.49-.22-.07-.45-.14-.68-.08-1.3.14-1.41,2.01-.16,2.36.56.16,1.18.46,1.72.11.68-.38.8-1.37.25-1.9Z"/>
        <path class="cls-3" d="m259.18,79.04c-.47-.76-1.22-.66-1.95-.38-.43.18-.96.2-1.33.5-1.06.78-.21,2.47,1.06,2.12.4-.11.79-.24,1.19-.37.25-.08.53-.12.73-.31.5-.33.6-1.06.31-1.56Z"/>
        <path class="cls-3" d="m253.16,78.19c-.22-.41-.69-.54-1.08-.74-.28-.14-.55-.28-.82-.43-.2-.12-.4-.25-.63-.25-1.3-.21-1.9,1.58-.77,2.24.41.25.85.47,1.28.68.4.2.83.43,1.29.29.75-.19,1.12-1.12.72-1.78Z"/>
        <path class="cls-3" d="m249.17,81.92c-.57.29-1.35.31-1.7.92-.55.91.34,2.08,1.37,1.78.41-.12.81-.29,1.2-.45.45-.12.84-.53.87-1.01.19-.93-.93-1.7-1.74-1.24Z"/>
        <path class="cls-3" d="m243.29,79.91c-.3-.5-.91-.64-1.38-.93-.36-.22-.78-.4-1.2-.26-1.02.26-1.2,1.7-.29,2.22.32.17.64.33.96.5.23.11.45.28.71.28.97.19,1.72-.97,1.21-1.8Z"/>
        <path class="cls-3" d="m231.47,82.05c-.55-.16-1.01.16-1.47.41-.4.27-.94.36-1.23.76-.83,1.03.43,2.44,1.56,1.78.38-.17.75-.38,1.11-.57.23-.13.5-.24.65-.48.56-.62.17-1.71-.63-1.9Z"/>
        <path class="cls-3" d="m225.07,87.94c-.34-.5-1.06-.6-1.56-.31-.31.17-.47.5-.68.77-.32.44-.68.94-.5,1.51.26,1.02,1.7,1.2,2.22.29.19-.31.4-.61.63-.91.24-.41.23-.99-.09-1.35Z"/>
        <path class="cls-3" d="m216.87,93.15c-1.93.15-1.62,2.76.22,2.43,1.93-.15,1.62-2.76-.22-2.43Z"/>
        <path class="cls-3" d="m284.84,86.43c-.54-.13-1.08.13-1.62.17-1.53.47-.91,2.71.64,2.34.61-.11,1.37-.11,1.7-.73.41-.66.02-1.58-.72-1.78Z"/>
        <path class="cls-3" d="m294.41,97.34c-.3-.46-.84-.67-1.25-1.03-1.41-.76-2.58,1.24-1.22,2.09.27.2.54.4.81.59.41.24.99.23,1.35-.09.5-.34.6-1.06.31-1.56Z"/>
        <path class="cls-3" d="m287.69,99.85c-.42.12-.94.07-1.28.38-1.06.78-.21,2.47,1.06,2.12.64-.14,1.44-.13,1.8-.77.59-1.04-.48-2.16-1.57-1.73Z"/>
        <path class="cls-3" d="m296.27,106.37c-.28-.15-.56-.28-.84-.42-.23-.11-.44-.27-.7-.27-1.3-.21-1.9,1.58-.77,2.24.29.15.57.29.86.43.22.11.43.26.68.26,1.3.21,1.9-1.58.77-2.24Z"/>
        <path class="cls-3" d="m216.06,106.72c-.37-.22-.77-.17-1.17-.08-.3.03-.6.03-.91.02-.22-.01-.45-.01-.64.1-1.22.48-.84,2.32.47,2.32.54.03,1.08,0,1.61-.08.43-.03.86-.23,1.07-.62.34-.55.13-1.34-.43-1.66Z"/>
        <path class="cls-3" d="m212.98,100.25c-.34-.5-1.06-.6-1.56-.31-.54.33-.71,1-.96,1.54-.75,1.62,1.68,2.57,2.24.89.02-.05.04-.1.06-.15.15-.36.44-.68.46-1.07.07-.31-.03-.66-.24-.9Z"/>
        <path class="cls-3" d="m228.25,24.21c-.23-.36-.47-.72-.71-1.08-.19-.33-.45-.64-.84-.74-1.02-.3-1.92.87-1.37,1.78.26.41.54.81.8,1.23.23.38.48.79.94.89,1.26.3,2-1.13,1.18-2.08Z"/>
        <path class="cls-3" d="m223.01,29.7c-.46.11-.91.23-1.36.34-.25.05-.51.1-.69.28-1.06.78-.21,2.47,1.06,2.12.43-.09.86-.21,1.29-.31.43-.08.86-.24,1.08-.64.55-.91-.34-2.08-1.37-1.78Z"/>
        <path class="cls-3" d="m229.27,35.59c-.45-.14-.88.08-1.3.2-.29.09-.58.18-.87.26-.22.05-.45.1-.61.27-1.06.78-.21,2.47,1.06,2.12.46-.11.91-.26,1.36-.39.42-.11.87-.26,1.09-.67.41-.66.02-1.58-.72-1.78Z"/>
        <path class="cls-3" d="m231.62,31.56c-.08-.34-.35-.57-.56-.82-.2-.21-.39-.47-.68-.56-1.2-.54-2.25,1.04-1.32,1.97.41.4.75.98,1.4.95.78.02,1.38-.79,1.17-1.53Z"/>
        <path class="cls-3" d="m239.45,32.68c-.23-.41-.3-.96-.71-1.24-1.03-.83-2.44.43-1.78,1.56.17.39.34.78.51,1.17.11.25.21.51.45.65.62.56,1.71.17,1.9-.63.16-.55-.18-1.03-.38-1.52Z"/>
        <path class="cls-3" d="m238.58,38.33c-.53.06-1.11-.04-1.61.16-1.22.48-.84,2.32.47,2.32.53-.07,1.11.05,1.61-.16,1.22-.48.84-2.32-.47-2.32Z"/>
        <path class="cls-3" d="m211.24,32.64c-.45.28-.9.56-1.35.84-.39.23-.83.48-.94.96-.3,1.02.87,1.92,1.78,1.37.46-.28.91-.57,1.36-.85.39-.22.82-.48.93-.95.3-1.02-.87-1.92-1.78-1.37Z"/>
        <path class="cls-3" d="m210.98,25.9c-.17-.09-.33-.18-.49-.28-.4-.21-.73-.62-1.21-.65-1.3-.21-1.9,1.58-.77,2.24.89.61,2.07,1.59,2.91.35.33-.56.14-1.34-.44-1.66Z"/>
        <path class="cls-3" d="m215.05,20.23c-.04-.6-.61-1.05-1.19-1.05-.22,0-.42.06-.61.17-.4.19-.8.38-1.2.57-1.36.85-.18,2.85,1.22,2.09.4-.19.8-.38,1.2-.57.41-.24.68-.74.58-1.21Z"/>
        <path class="cls-3" d="m221.35,23.56c-.38-.02-.77-.03-1.15-.04-.27,0-.56-.04-.8.1-1.22.48-.83,2.33.47,2.32.5,0,.99.02,1.49.04.47,0,.96-.29,1.11-.75.37-.75-.28-1.71-1.11-1.68Z"/>
        <path class="cls-3" d="m218.49,35.21s-.03-.06-.06-.14c-.12-.37-.28-.74-.64-.94-.91-.55-2.08.34-1.78,1.37.17.45.36.9.58,1.33.11.23.22.49.46.63.62.56,1.71.17,1.9-.63.16-.6-.21-1.1-.46-1.62Z"/>
        <path class="cls-3" d="m224.9,43.11c-.51.03-1.08-.02-1.46.39-.76.74-.2,2.08.86,2.07.61-.08,1.35.09,1.82-.4.88-.94.01-2.29-1.22-2.05Z"/>
        <path class="cls-3" d="m200.96,28.65c-.15.03-.47.08-.61.1-.16.02-.31.04-.47.05-.39,0-.8.07-1.08.37-.76.74-.2,2.08.86,2.07.53-.04,1.06-.12,1.58-.19.43-.04.87-.22,1.08-.62.55-.91-.34-2.08-1.37-1.78Z"/>
        <path class="cls-3" d="m203.04,20.17c-.1-.45-.52-.69-.82-1-.39-.31-.66-.86-1.12-1.03-1.2-.54-2.25,1.04-1.32,1.97.3.35.62.68.96.99.32.3.67.63,1.14.61.78.02,1.38-.79,1.17-1.53Z"/>
        <path class="cls-3" d="m197,26.37c-.2-.6-.41-1.19-.61-1.79-.1-.38-.27-.77-.63-.96-.91-.55-2.08.34-1.78,1.37.17.53.36,1.06.54,1.59.14.44.27.93.71,1.16.91.55,2.08-.34,1.78-1.37Z"/>
        <path class="cls-3" d="m196.82,35.14c-.34-.34-.85-.39-1.27-.58-1.62-.71-2.54,1.69-.87,2.25.6.21,1.28.62,1.9.23.68-.38.8-1.37.25-1.9Z"/>
        <path class="cls-3" d="m204.27,38.04c-.25-.37-.5-.73-.75-1.1-.19-.34-.46-.66-.85-.76-1.02-.3-1.92.87-1.37,1.78.27.43.57.85.86,1.27.24.37.49.79.96.9,1.26.3,2.02-1.16,1.16-2.09Z"/>
        <path class="cls-3" d="m207.47,29.95c-.29-.09-.59-.02-.87.06-.28.07-.59.1-.81.31-1.06.78-.21,2.47,1.06,2.12.21-.05.42-.1.62-.15.45-.12.84-.53.87-1.01.12-.58-.31-1.17-.87-1.33Z"/>
        <path class="cls-3" d="m190.36,20.6c-.1-.39-.43-.65-.69-.94-.42-.4-.83-.96-1.47-.95-1.06-.02-1.62,1.33-.86,2.07.27.24.53.5.78.77.18.19.35.41.6.48.89.44,1.91-.49,1.64-1.43Z"/>
        <path class="cls-3" d="m182.83,23.32c-.38-.12-.75.03-1.11.18-.52.24-1.19.32-1.49.86-.55.91.34,2.08,1.37,1.78.75-.38,2-.46,2.09-1.49.12-.58-.31-1.17-.87-1.33Z"/>
        <path class="cls-3" d="m180.13,19.07c-.39.05-.79.06-1.18.07-.43-.01-.89.03-1.2.36-.76.74-.2,2.08.86,2.07.87-.08,2.26.19,2.64-.83.37-.75-.28-1.71-1.11-1.68Z"/>
        <path class="cls-3" d="m176.95,26.58c-.46-.25-1.02-.16-1.52-.21-1.6.05-1.6,2.37,0,2.43.6,0,1.31.2,1.77-.31.56-.53.42-1.52-.25-1.9Z"/>
        <path class="cls-3" d="m177.3,32.4c-.03-.26-.07-.54-.26-.73-.78-1.06-2.47-.21-2.12,1.06,0,.05.01.11.02.16,0-.04-.02-.12-.02-.19.09.49.02,1.02.21,1.47.48,1.22,2.32.84,2.32-.47-.04-.44-.08-.87-.15-1.3Z"/>
        <path class="cls-3" d="m181.88,28.89c-.48.21-1.06.24-1.48.56-1.06.78-.21,2.47,1.06,2.12.62-.24,1.43-.28,1.8-.9.55-.91-.34-2.08-1.37-1.78Z"/>
        <path class="cls-3" d="m191.03,29.28c-.26-.24-.52-.5-.77-.75-.21-.19-.39-.44-.68-.53-1.2-.54-2.25,1.04-1.32,1.97.34.33.67.67,1.02.99.31.32.67.65,1.15.63,1.28-.04,1.63-1.6.6-2.31Z"/>
        <path class="cls-3" d="m186.44,37.09c-.43-.27-.94-.12-1.41-.14-.5,0-1.07-.06-1.44.35-.76.74-.2,2.08.86,2.07.36.01.72,0,1.08,0,.26-.02.54.01.77-.12.92-.32.98-1.7.14-2.16Z"/>
        <path class="cls-3" d="m187.79,33.19c-.14-.49-.23-1.07-.73-1.33-.91-.55-2.08.34-1.78,1.37.14.49.24,1.07.73,1.33.91.55,2.08-.34,1.78-1.37Z"/>
        <path class="cls-3" d="m175.07,42.23c-.3,0-.56.14-.83.26-.48.21-1.07.29-1.33.79-.55.91.34,2.08,1.37,1.78.39-.14.78-.3,1.16-.47.23-.09.46-.2.59-.42.65-.75.02-1.97-.95-1.95Z"/>
        <path class="cls-3" d="m160.72,36.73c-.09-.39-.41-.62-.69-.87-.42-.39-.79-.96-1.43-.93-1.06-.02-1.62,1.33-.86,2.07.6.58,1.32,1.61,2.27,1.16.57-.2.85-.87.7-1.43Z"/>
        <path class="cls-3" d="m170.69,30.07c-.04-.6-.61-1.05-1.19-1.05-.39-.01-.7.22-1.02.4-.49.26-1.1.46-1.24,1.07-.3,1.02.87,1.92,1.78,1.37.73-.36,1.86-.77,1.67-1.78Z"/>
        <path class="cls-3" d="m168.57,39.73c-.19-.25-.37-.5-.54-.76-.18-.34-.45-.66-.84-.75-1.02-.3-1.92.87-1.37,1.78.21.37.48.71.73,1.05.31.44.67.91,1.27.89,1.21-.05,1.58-1.4.75-2.21Z"/>
        <path class="cls-3" d="m166.15,46.28c-.27-1.02-1.7-1.2-2.22-.29-.23.64-.79,1.26-.6,1.97.27,1.02,1.7,1.2,2.22.29.23-.64.79-1.26.6-1.97Z"/>
        <path class="cls-3" d="m156.18,45.69c-.85-1.36-2.85-.18-2.09,1.22.31.41.44.98.86,1.29.36.32.94.33,1.35.09.37-.23.59-.61.6-1.05-.02-.59-.44-1.06-.71-1.56Z"/>
        <path class="cls-3" d="m183.82,46.96c-.06-.07-.11-.15-.16-.22-.15-.22-.24-.5-.49-.64-1.03-.83-2.44.43-1.78,1.56.17.35.43.64.66.94.23.27.43.61.79.72.75.38,1.71-.28,1.68-1.11,0-.53-.38-.88-.7-1.26Z"/>
        <path class="cls-3" d="m207.68,15.57c-.64.07-1.28.14-1.92.2-.32,0-.63.13-.86.36-.76.74-.2,2.09.86,2.07.5-.05,1.01-.11,1.51-.16.44-.04.94-.04,1.26-.4.76-.74.2-2.08-.86-2.07Z"/>
        <path class="cls-3" d="m175.31,22.77c-.32-.58-.99-.6-1.56-.76-.5-.16-1.06-.39-1.55-.07-.92.52-.73,1.95.29,2.22.37.12.75.23,1.13.32.26.05.53.16.8.09.84-.05,1.32-1.11.89-1.8Z"/>
        <path class="cls-3" d="m165.75,32.79c-.11-.17-.22-.34-.33-.52-.28-.39-.41-.91-.81-1.2-1.03-.83-2.44.43-1.78,1.56.2.37.41.73.64,1.09.15.22.26.49.5.63.36.32.94.33,1.35.09.56-.33.77-1.1.44-1.66Z"/>
        <path class="cls-3" d="m194.05,45.69c-.56.18-1.2.48-1.23,1.15-.17.82.72,1.58,1.51,1.33.56-.18,1.2-.48,1.23-1.15.17-.82-.72-1.58-1.51-1.33Z"/>
        <path class="cls-3" d="m209.32,49.04c-.26-1.02-1.7-1.2-2.22-.29-.18.4-.34.81-.5,1.22-.1.24-.2.5-.13.76.06.97,1.39,1.39,2.05.7.37-.41.44-1,.68-1.48-.11.27-.15.36,0,.03.16-.28.21-.62.12-.93Z"/>
        <path class="cls-3" d="m95.8,6.76c-.29-.29-.71-.36-1.07-.51-.44-.12-.89-.4-1.35-.31-1.3.14-1.41,2.01-.16,2.36.37.11.73.24,1.09.37.25.1.52.21.8.14.97-.06,1.39-1.39.7-2.05Z"/>
        <path class="cls-3" d="m96.69,14.58c-.33.53-.85,1.09-.65,1.77.19.75,1.12,1.12,1.78.72.41-.23.56-.7.83-1.07,1.08-1.4-1-2.89-1.96-1.42Z"/>
        <path class="cls-3" d="m88.7,13.44c-.48-1.22-2.33-.83-2.32.47,0,.47,0,.93-.01,1.4-.03.44.01.91.35,1.23.53.56,1.52.42,1.9-.25.24-.39.15-.86.17-1.3-.04-.51.11-1.07-.1-1.54Z"/>
        <path class="cls-3" d="m91.64,23.56c-.51.17-1.1.26-1.55.58-1.06.78-.21,2.47,1.06,2.12.29-.11.59-.21.89-.29.23-.07.48-.11.66-.29,1.06-.78.21-2.47-1.06-2.12Z"/>
        <path class="cls-3" d="m99.74,22.25c-.07-.3-.08-.64-.31-.87-.78-1.06-2.47-.21-2.12,1.06.05.25.1.49.15.74.12.45.53.84,1.01.87.58.12,1.17-.31,1.33-.87.1-.31,0-.62-.06-.93Z"/>
        <path class="cls-3" d="m104.93,10.95c-.56-.11-1.11-.43-1.69-.36-1.3.14-1.41,2.01-.16,2.36.7.13,1.46.62,2.14.21.92-.52.73-1.95-.29-2.22Z"/>
        <path class="cls-3" d="m107.98,19.32c-.62-.81-1.72-.52-2.15.33-.25.43-.62.85-.68,1.35-.21,1.3,1.58,1.9,2.24.77.2-.39.43-.75.68-1.11.24-.41.23-.99-.09-1.35Z"/>
        <path class="cls-3" d="m113.23,20.24c-.31.4-.6.81-.89,1.22-.24.41-.23.99.09,1.35.34.5,1.06.6,1.56.31.35-.2.52-.59.77-.9.24-.4.68-.72.71-1.21.21-1.3-1.58-1.9-2.24-.77Z"/>
        <path class="cls-3" d="m110.07,11.71c-.51-.07-1.1-.12-1.48.3-.76.74-.2,2.08.86,2.07.41,0,.85.17,1.23-.04.45-.15.75-.64.75-1.11,0-.73-.65-1.26-1.35-1.23Z"/>
        <path class="cls-3" d="m117.31,6.9c-.36-.44-.73-.87-1.1-1.3-.29-.39-.67-.77-1.19-.75-1.06-.02-1.62,1.33-.86,2.07.37.44.74.88,1.12,1.32.21.24.39.54.71.63,1.2.54,2.25-1.04,1.32-1.97Z"/>
        <path class="cls-3" d="m120.97,11.03c-.55.16-.86.69-1.23,1.09-.27.31-.56.65-.54,1.08-.02,1.06,1.33,1.62,2.07.86.22-.28.45-.54.69-.8.17-.18.37-.35.44-.59.44-.89-.49-1.91-1.43-1.64Z"/>
        <path class="cls-3" d="m120.85,17.59c-.41-.32-.79-.79-1.36-.77-1.06-.02-1.62,1.33-.86,2.07.42.31.79.79,1.36.77,1.06.02,1.62-1.33.86-2.07Z"/>
        <path class="cls-3" d="m130.57,14.46c-.07-.5.02-1.08-.18-1.54-.48-1.22-2.32-.84-2.32.47.03.45.06.91.09,1.36.03.28-.01.58.13.84.15.45.64.75,1.11.75.65,0,1.22-.55,1.21-1.21-.01-.22-.03-.44-.04-.66Z"/>
        <path class="cls-3" d="m134.49,21.91c-.59.02-1.08.43-1.57.73-.34.22-.71.48-.81.9-.3,1.02.87,1.92,1.78,1.37.3-.22.6-.42.92-.6.39-.16.74-.44.84-.86.22-.75-.39-1.54-1.17-1.53Z"/>
        <path class="cls-3" d="m126.76,25.73c-.5-1.39-1.8-.8-2.81-.39-.53.22-1.16.43-1.31,1.06-.3,1.02.87,1.92,1.78,1.37.74-.32.23-.14,1.18-.46.78-.13,1.37-.76,1.15-1.58Z"/>
        <path class="cls-3" d="m133.28,30.5c-.16-.51-.14-1.13-.48-1.56-.78-1.06-2.47-.21-2.12,1.06.17.51.14,1.13.48,1.56.78,1.06,2.47.21,2.12-1.06Z"/>
        <path class="cls-3" d="m128.27,19.2c-.29-.18-.63-.17-.96-.2-.41-.07-.84-.15-1.21.09-.92.52-.73,1.95.29,2.22.56.03,1.19.29,1.73.05.92-.32.98-1.7.14-2.16Z"/>
        <path class="cls-3" d="m140.88,15.87c-.37.26-.8.51-.91.98-.3,1.02.87,1.92,1.78,1.37.36-.27.81-.5.91-.98.3-1.02-.87-1.92-1.78-1.37Z"/>
        <path class="cls-3" d="m144.16,24.18c-.48-.07-.96-.14-1.44-.19-.65-.1-1.42.01-1.67.72-.37.75.28,1.71,1.11,1.68.32,0,.65.03.97.07.03,0,.06,0,.11.02.76.21,1.52.02,1.77-.8.17-.63-.21-1.33-.85-1.49Z"/>
        <path class="cls-3" d="m140.14,30.17c-.4-.13-.78.05-1.15.17-.36.09-.71.28-.89.61-.55.91.34,2.08,1.37,1.78.5-.18,1.12-.26,1.4-.78.41-.66.02-1.58-.72-1.78Z"/>
        <path class="cls-3" d="m112.58,28.02c-.28-.44-.55-.88-.82-1.32-.23-.4-.48-.84-.97-.95-1.02-.3-1.92.87-1.37,1.78.28.45.55.9.83,1.35.23.39.48.81.95.92,1.02.3,1.92-.87,1.37-1.78Z"/>
        <path class="cls-3" d="m104.36,28.64c-.15-.15-.33-.25-.53-.31-.03-.01-.05-.02-.07-.03-.07-.03-.14-.06-.2-.09-.41-.19-.84-.44-1.3-.29-1.02.26-1.2,1.7-.29,2.22.33.15.67.3,1.01.44.22.1.46.17.69.11.97-.06,1.39-1.39.7-2.05Z"/>
        <path class="cls-3" d="m101.36,34.1c-.26-1.02-1.7-1.2-2.22-.29-.24.45-.58.92-.41,1.46.26,1.02,1.7,1.2,2.22.29.25-.45.58-.93.41-1.46Z"/>
        <path class="cls-3" d="m92.99,30.23c-.27-.88-1.18-1.08-1.94-.68-.51.22-1.16.3-1.45.83-.55.91.34,2.08,1.37,1.78.39-.15.78-.3,1.18-.44.16-.04.3-.11.41-.22.4-.27.56-.82.43-1.27Z"/>
        <path class="cls-3" d="m86.24,20.47c-.3-.5-.92-.64-1.39-.95-.36-.24-.79-.43-1.23-.29-1.02.26-1.2,1.7-.29,2.22.32.19.65.37.98.55.23.12.45.28.72.29.97.19,1.72-.97,1.21-1.8Z"/>
        <path class="cls-3" d="m77.53,11.05c-.42-.02-.85-.04-1.27-.05-.29,0-.6-.05-.85.1-1.22.48-.84,2.32.47,2.32.43,0,.86.01,1.3.03.58.09,1.27-.13,1.47-.73.37-.75-.28-1.71-1.11-1.68Z"/>
        <g>
          <path class="cls-3" d="m79.94,18.69c.02-1.06-1.33-1.62-2.07-.86-.33.41-.65.81-.96,1.24-.29.34-.46.79-.33,1.23.19.75,1.12,1.12,1.78.72.33-.19.51-.54.72-.84,0,.01-.02.02-.03.04.33-.48.9-.89.88-1.52Z"/>
          <path class="cls-3" d="m79.08,20.18c.05-.07.11-.14.16-.21-.06.07-.11.14-.16.21Z"/>
        </g>
        <path class="cls-3" d="m76.68,22.99c-.33-.16-.67-.31-.99-.48-.39-.24-.84-.49-1.31-.34-1.02.26-1.2,1.7-.29,2.22.43.25.87.47,1.32.67.41.19.85.45,1.31.3,1.21-.36,1.15-2.02-.04-2.37Z"/>
        <path class="cls-3" d="m73.71,27.8c-.48.14-.79.58-1.16.89-1.1,1.17.55,2.81,1.71,1.71.42-.4,1.01-.78.98-1.43.02-.78-.79-1.38-1.53-1.17Z"/>
        <path class="cls-3" d="m70.58,17.19c-.68-.01-1.02.55-1.39,1.03-.3.41-.76.78-.74,1.34-.02,1.06,1.33,1.62,2.07.86.24-.3.48-.61.72-.91.15-.21.37-.38.45-.64.38-.75-.28-1.71-1.11-1.68Z"/>
        <path class="cls-3" d="m69.48,26.47c-.3-.46-.84-.68-1.26-1.02-.46-.3-.99-.68-1.57-.51-1.02.26-1.2,1.7-.29,2.22.4.21.77.48,1.14.74.35.29.8.49,1.25.35.75-.19,1.12-1.12.72-1.78Z"/>
        <path class="cls-3" d="m58.32,25.75c-.45-.02-.78.29-1.13.52-.32.19-.62.45-.72.83-.3,1.02.87,1.92,1.78,1.37.46-.34,1.08-.59,1.23-1.19.22-.75-.39-1.54-1.17-1.53Z"/>
        <path class="cls-3" d="m64.49,20.5c-.49-.11-1.04-.3-1.5,0-.92.52-.73,1.95.29,2.22.49.11,1.04.3,1.5,0,.92-.52.73-1.95-.29-2.22Z"/>
        <path class="cls-3" d="m68.83,33.8c-.52-.36-.94-1.01-1.63-1-1.06-.02-1.62,1.33-.86,2.07.51.37.94,1,1.63,1,1.06.02,1.62-1.33.86-2.07Z"/>
        <path class="cls-3" d="m62.65,41.28c-.06-.83-1.11-1.32-1.8-.89-.53.27-1.06.77-.92,1.42.06.83,1.11,1.32,1.8.89.53-.27,1.06-.77.92-1.42Z"/>
        <path class="cls-3" d="m95.72,40.68c-.38-.36-.75-.83-1.32-.8-1.06-.02-1.62,1.33-.86,2.07.38.36.75.83,1.32.8,1.06.02,1.62-1.33.86-2.07Z"/>
        <path class="cls-3" d="m112.31,35.05c-.22.28-.43.56-.63.85-.24.41-.23.99.09,1.35.46.69,1.61.6,2-.12.25-.43.74-.78.78-1.3.21-1.3-1.58-1.9-2.24-.77Z"/>
        <path class="cls-3" d="m120.4,31.92c-1.6.05-1.6,2.37,0,2.43,1.6-.05,1.6-2.37,0-2.43Z"/>
        <path class="cls-3" d="m65.29,103.27c-.18-.52-.35-1.03-.53-1.55-.08-.3-.29-.57-.56-.72-.91-.55-2.08.34-1.78,1.37.16.5.34.99.51,1.49.14.43.27.91.7,1.14,1.14.62,2.24-.59,1.66-1.72Z"/>
        <path class="cls-3" d="m72.43,89.18c-.39.01-.79.05-1.18.1-.32,0-.63.13-.86.36-.76.74-.2,2.08.86,2.07.38-.04.76-.08,1.14-.1.26-.02.55,0,.78-.12.45-.15.75-.64.75-1.11,0-.78-.74-1.34-1.49-1.19Z"/>
        <path class="cls-3" d="m76.69,81.05c-.16-.47-.14-1.04-.46-1.44-.78-1.06-2.47-.21-2.12,1.06.1.44.21.88.31,1.32.08.58.46,1.2,1.1,1.23.58.12,1.17-.31,1.33-.87.13-.44-.08-.87-.16-1.3Z"/>
        <path class="cls-3" d="m69.53,75.35c-.43.13-.95.13-1.3.43-1.06.78-.21,2.47,1.06,2.12.63-.19,1.46-.17,1.83-.82.59-1.05-.49-2.17-1.58-1.73Z"/>
        <path class="cls-3" d="m61.98,83.58c-.4-.23-.81-.44-1.24-.61-.28-.16-.62-.21-.93-.12-1.02.27-1.2,1.7-.29,2.22.41.17.81.37,1.19.59.25.13.48.32.77.32.47.1.97-.17,1.21-.58.41-.71.01-1.53-.71-1.81Z"/>
        <path class="cls-3" d="m60.88,92.35c-.62.28-1.49.35-1.86.97-.55.91.34,2.08,1.37,1.78.62-.3,1.48-.33,1.86-.97.55-.91-.34-2.08-1.37-1.78Z"/>
        <path class="cls-3" d="m55.45,85.79c-.38-.37-.76-.76-1.14-1.13-.33-.34-.69-.72-1.21-.7-1.06-.02-1.62,1.33-.86,2.07.39.38.78.77,1.17,1.16.32.34.68.69,1.18.67,1.06.02,1.62-1.33.86-2.07Z"/>
        <path class="cls-3" d="m59.08,76.86c-.23-.37-.61-.59-1.05-.6-.51,0-.92.36-1.37.57-1.65.7-.61,3.02.98,2.23.43-.29,1.01-.42,1.33-.85.32-.36.33-.94.09-1.35Z"/>
        <path class="cls-3" d="m51.89,79.76c-.18-.52-.22-1.13-.55-1.57-.78-1.06-2.47-.21-2.12,1.06.15.49.28.98.41,1.47.09.44.24.9.66,1.13.66.41,1.58.02,1.78-.72.13-.46-.09-.91-.19-1.36Z"/>
        <path class="cls-3" d="m49.33,88.51c-.23-.4-.68-.56-1.05-.8-.47-.23-.92-.61-1.44-.68-1.3-.21-1.9,1.58-.77,2.24.43.22.85.45,1.27.7.37.25.81.46,1.27.32.75-.19,1.12-1.12.72-1.78Z"/>
        <path class="cls-3" d="m46.82,94.49c-.23-.37-.61-.59-1.05-.6-.58.03-1.05.42-1.58.63-1.36.85-.18,2.85,1.22,2.09.43-.26,1-.36,1.3-.78.32-.36.33-.94.09-1.35Z"/>
        <path class="cls-3" d="m41.98,85.52c-.14-.49-.28-.98-.4-1.48-.09-.46-.23-.96-.67-1.19-.91-.55-2.08.34-1.78,1.37.12.51.25,1.02.39,1.52.11.44.25.92.68,1.15.91.55,2.08-.34,1.78-1.37Z"/>
        <path class="cls-3" d="m43.5,77.01c-.39.12-.78.25-1.17.37-.42.11-.86.26-1.08.67-.55.91.34,2.08,1.37,1.78.4-.13.81-.25,1.21-.38.56-.12,1.16-.48,1.19-1.11.17-.82-.72-1.58-1.51-1.33Z"/>
        <path class="cls-3" d="m35.29,88.04c-.26-.44-.38-1.02-.81-1.33-1.03-.83-2.44.43-1.78,1.56.22.43.43.85.64,1.28.16.41.44.79.89.9.75.22,1.54-.39,1.53-1.17,0-.46-.3-.83-.47-1.24Z"/>
        <path class="cls-3" d="m35.81,94.52c-.21-.06-.43-.06-.64,0-.46.07-.92.14-1.38.21-1.53.47-.91,2.71.64,2.34.36-.06.72-.11,1.08-.17.25-.03.52-.08.71-.26.81-.55.52-1.88-.41-2.12Z"/>
        <path class="cls-3" d="m26.77,88.57c-.15-.5-.62-.82-.93-1.22-1.08-1.44-3.09.16-1.91,1.5.27.3.54.6.82.89.33.34.9.47,1.32.25.57-.2.85-.87.7-1.43Z"/>
        <path class="cls-3" d="m28.68,82.72c-1.6.05-1.6,2.37,0,2.43,1.6-.05,1.6-2.37,0-2.43Z"/>
        <path class="cls-3" d="m41.81,100.21c-.46-.26-.92-.51-1.38-.76-.28-.16-.62-.21-.93-.12-1.02.26-1.2,1.7-.29,2.22.45.24.89.49,1.33.73.39.24.84.48,1.31.33,1.23-.4,1.14-1.95-.03-2.4Z"/>
        <path class="cls-3" d="m41.66,108.27c-.55-.83-1.39-.71-2.1-.15-.47.33-1.12.58-1.27,1.19-.3,1.02.87,1.92,1.78,1.37.47-.37,1.12-.61,1.49-1.07.32-.36.33-.94.09-1.35Z"/>
        <path class="cls-3" d="m62.86,112.59c-.26-.41-.41-.94-.81-1.23-1.03-.83-2.44.43-1.78,1.56.44.71.76,1.88,1.82,1.68.98-.11,1.33-1.26.77-2.01Z"/>
        <path class="cls-3" d="m55.7,103.88c-.17-.63-.86-1.03-1.49-.85-.48.06-.99.2-1.23.65-.55.91.34,2.08,1.37,1.78.31-.07.67-.07.92-.31.4-.27.56-.82.43-1.27Z"/>
        <path class="cls-3" d="m90.24,96.92c-.29-.43-.42-1.07-.84-1.37-1.03-.83-2.44.43-1.78,1.56.32.58.53,1.4,1.25,1.59,1.02.3,1.92-.87,1.37-1.78Z"/>
        <path class="cls-3" d="m92.05,81.95c-.48-.27-1.05-.15-1.57-.2-1.79-.25-2.08,2.29-.29,2.41.42.01.84.03,1.26.05.47,0,.96-.29,1.11-.75.27-.53,0-1.22-.5-1.51Z"/>
        <path class="cls-3" d="m84.93,90.16c-.1-.56-.2-1.13-.3-1.69-.06-.32-.05-.68-.29-.93-.78-1.06-2.47-.21-2.12,1.06.08.57.18,1.14.28,1.71.06.31.07.67.31.91.78,1.06,2.47.21,2.12-1.06Z"/>
        <path class="cls-3" d="m80.59,98.08c-.51-.27-1.12-.17-1.68-.26-1.79-.31-2.11,2.29-.31,2.4.46.04.91.08,1.37.12.47,0,.96-.29,1.11-.75.27-.53,0-1.22-.5-1.51Z"/>
        <path class="cls-3" d="m79.58,107.09s0-.07-.01-.11c-.02-.15-.06-.45-.08-.61-.07-.49-.02-1.06-.42-1.43-.74-.76-2.09-.2-2.07.86.04.42.1.85.15,1.27.07.36.03.79.31,1.07.55.81,1.88.52,2.12-.41.06-.21.06-.43,0-.64Z"/>
        <path class="cls-3" d="m74.13,110.49c-.46-.46-1.26-.47-1.71,0-.23.26-.46.52-.7.77-.42.38-.75,1-.46,1.55.27.78,1.4.99,1.97.39.24-.26.48-.52.71-.79.16-.19.37-.36.44-.61.22-.43.08-.99-.25-1.32Z"/>
        <path class="cls-3" d="m81.99,114.73c-.39-.89-.35-.82-.52-1.21-.17-.41-.29-.89-.71-1.11-.91-.55-2.08.34-1.78,1.37.24.59.49,1.18.74,1.76.12.27.22.59.49.75,1.03.83,2.44-.43,1.78-1.56Z"/>
        <path class="cls-3" d="m86.94,107.02c-.43-.25-.96-.16-1.44-.15-1.6.05-1.6,2.37,0,2.43.57-.06,1.24.11,1.68-.37.56-.53.42-1.52-.25-1.9Z"/>
        <path class="cls-3" d="m91.96,102c-.42.22-.83.44-1.26.66-.43.19-.87.46-.99.95-.3,1.02.87,1.92,1.78,1.37.49-.25.98-.5,1.46-.76.27-.15.59-.26.75-.53.87-1.17-.58-2.53-1.76-1.68Z"/>
        <path class="cls-3" d="m100.74,91.51c-.17-.49-.35-.98-.47-1.49-.08-.46-.22-.96-.66-1.19-.91-.55-2.08.34-1.78,1.37.1.52.25,1.03.43,1.53.15.43.27.92.71,1.15.91.55,2.08-.34,1.78-1.37Z"/>
        <path class="cls-3" d="m106.56,98.04c-.4-.25-.89-.14-1.33-.11-.65.11-1.5-.03-2,.47-.76.74-.2,2.08.86,2.07.49-.05.97-.1,1.46-.14.45-.02.94-.03,1.26-.38.56-.53.42-1.52-.25-1.9Z"/>
        <path class="cls-3" d="m100.81,106.68c-.17-.52-.25-1.15-.78-1.44-.91-.55-2.08.34-1.78,1.37.15.37.17.82.43,1.13.17.26.48.44.79.46.82.17,1.58-.72,1.33-1.51Z"/>
        <g>
          <path class="cls-3" d="m104.57,113.5s0,.02,0,.04c-.05-.49-.03-1.01-.41-1.37-.74-.76-2.08-.2-2.07.86.05.55.13,1.1.21,1.65.01.59.44,1.18,1.06,1.22.58.12,1.17-.31,1.33-.87.12-.5-.09-1.01-.13-1.52Z"/>
          <path class="cls-3" d="m104.58,113.54c0,.1.02.19.04.29-.01-.1-.03-.19-.04-.29Z"/>
        </g>
        <path class="cls-3" d="m108.13,106.89c-.53.15-1.23.12-1.66.47-1.06.78-.21,2.47,1.06,2.12.32-.07.65-.14.97-.2.25-.04.51-.09.69-.27,1.06-.78.21-2.47-1.06-2.12Z"/>
        <path class="cls-3" d="m113.99,102.52c-.17-.53-.67-.87-.98-1.32-1.17-1.1-2.81.55-1.71,1.71.21.27.43.53.66.78.33.34.9.47,1.32.25.57-.2.85-.87.7-1.43Z"/>
        <path class="cls-3" d="m117,111.32c-.13-.47-.56-.77-.85-1.15-1.06-1.42-3.05.22-1.88,1.53.44.47.82,1.18,1.55,1.16.78.02,1.38-.79,1.17-1.53Z"/>
        <path class="cls-3" d="m110.52,117.67c-.36-.01-.65.19-.96.33-.19.09-.37.18-.56.26-.41.24-.68.74-.58,1.21.06.83,1.11,1.32,1.8.89.56-.29,1.31-.45,1.47-1.15.22-.75-.39-1.54-1.17-1.53Z"/>
        <path class="cls-3" d="m97.3,115.97c-.18-.57-.72-.93-1.12-1.35-.39-.43-1.01-.79-1.59-.49-.78.27-.99,1.4-.39,1.97.37.33.73.68,1.07,1.05.33.34.9.47,1.32.25.57-.2.85-.87.7-1.43Z"/>
        <path class="cls-3" d="m72.99,98.21c-.19-.47-.35-.94-.51-1.42-.14-.43-.27-.91-.7-1.14-.91-.55-2.08.34-1.78,1.37.16.48.32.97.5,1.44.16.42.28.9.71,1.12.91.55,2.08-.34,1.78-1.37Z"/>
        <g>
          <path class="cls-3" d="m84.46,79.72c-.24-.25-.59-.33-.91-.45.03.01.06.03.09.04-.04-.01-.07-.03-.11-.05-.06-.02-.12-.05-.18-.08.05.02.1.04.15.06-.44-.2-.89-.48-1.38-.32-1.02.26-1.2,1.7-.29,2.22.39.18.79.35,1.19.51.24.1.49.18.74.12.97-.06,1.39-1.39.7-2.05Z"/>
          <path class="cls-3" d="m83.55,79.27s-.03-.01-.05-.02c.01,0,.02.01.04.02h.02Z"/>
        </g>
        <path class="cls-3" d="m97.43,82.83c-.1-.53-.16-1.15-.7-1.43-.91-.55-2.08.34-1.78,1.37.16.65.12,1.49.78,1.86.66.41,1.58.02,1.78-.72.11-.36-.03-.72-.09-1.08Z"/>
        <path class="cls-3" d="m65.76,72.84c-.37-.23-.82-.14-1.23-.19-.31-.08-.65-.04-.93.12-.92.52-.73,1.95.29,2.22.56.05,1.19.24,1.73,0,.92-.32.98-1.7.14-2.16Z"/>
        <path class="cls-3" d="m178.3,115.29c-.42-.23-.92-.18-1.38-.21-.34.02-.72-.06-1.04.11-1.22.48-.84,2.32.47,2.32.35,0,.7,0,1.05.02.41.07.85-.02,1.15-.33.56-.53.42-1.52-.25-1.9Z"/>
        <path class="cls-3" d="m180.69,120.45c-.18.11-.33.25-.43.43-.27.38-.54.77-.79,1.17-.24.44-.65.83-.7,1.34-.21,1.3,1.58,1.9,2.24.77.43-.7.88-1.38,1.35-2.05.62-1.07-.58-2.27-1.66-1.66Z"/>
        <path class="cls-3" d="m178.66,128.31c-.4-.24-.88-.15-1.32-.18-.28,0-.56-.01-.84-.04-.26-.03-.55-.07-.78.07-1.22.48-.84,2.32.47,2.32.48.06.96.07,1.45.08.45.03.94,0,1.27-.35.56-.53.42-1.52-.25-1.9Z"/>
        <path class="cls-3" d="m175.76,120.95c-.16-.39-.33-.78-.5-1.18-.85-1.36-2.85-.18-2.09,1.22.08.19.16.38.24.57,0,0,0,.02.01.03.04.16.11.3.22.41.33.5,1.06.6,1.56.31.46-.27.7-.86.56-1.37Z"/>
        <path class="cls-3" d="m173.36,108.45c-.19-.11-.39-.16-.61-.17-.56-.05-1.12-.11-1.68-.19-.12-.02-.23-.03-.35-.04-.01,0-.02,0-.04,0-.31-.09-.66-.04-.93.12-.92.52-.73,1.95.29,2.22.9.13,1.8.24,2.71.32,1.23,0,1.66-1.63.61-2.26Z"/>
        <path class="cls-3" d="m172.7,112.67c-.52-.92-1.95-.73-2.22.29-.15.42-.28.84-.4,1.26-.15.42-.23.89.02,1.29.38.68,1.37.8,1.9.25.38-.39.4-.98.59-1.47.17-.53.44-1.1.11-1.62Z"/>
        <path class="cls-3" d="m166.08,103c-.28-.39-.58-.77-.89-1.13-.4-.5-1.04-.96-1.69-.63-.78.27-.99,1.4-.39,1.97.28.28.54.58.79.89.12.17.22.35.4.46.36.32.94.33,1.35.09.56-.33.77-1.1.44-1.66Z"/>
        <path class="cls-3" d="m171.21,101.96c-.44-.25-.96-.16-1.45-.21-1.76-.22-2.01,2.31-.25,2.42.36.01.72.02,1.08.05.47,0,.96-.29,1.11-.75.27-.53,0-1.22-.5-1.51Z"/>
        <path class="cls-3" d="m159.17,101.46c-.54.15-.85.69-1.23,1.07-.28.3-.57.64-.55,1.08-.02,1.06,1.33,1.62,2.07.86.23-.26.45-.52.69-.78.17-.19.38-.35.45-.6.44-.89-.49-1.91-1.43-1.64Z"/>
        <path class="cls-3" d="m149.14,104.09c-.4-.38-.98-.43-1.48-.61-.54-.14-1.15-.39-1.66-.06-.92.52-.73,1.95.29,2.22.45.1.89.22,1.33.36.41.17.89.24,1.29,0,.68-.38.8-1.37.25-1.9Z"/>
        <path class="cls-3" d="m155.86,108.67c-1.1-.94-1.94.14-2.57,1.01-.6.65-.66,1.56.14,2.07.56.33,1.34.14,1.66-.44.07-.11.21-.29.28-.39.11-.13.21-.26.33-.38.58-.45.71-1.35.16-1.87Z"/>
        <path class="cls-3" d="m161.57,112.16c-.39-.31-.79-.62-1.21-.89-.43-.26-.91-.57-1.43-.4-1.02.26-1.2,1.7-.29,2.22.4.2.77.44,1.12.71.15.13.29.28.49.33.43.22.99.08,1.32-.25.46-.46.47-1.26,0-1.71Z"/>
        <path class="cls-3" d="m163.8,119.24c-.14-1.3-2.01-1.41-2.36-.16-.16.41-.29.83-.42,1.25-.16.41-.23.89.01,1.28.69,1.06,2.12.62,2.31-.58.11-.34.21-.69.33-1.03.1-.24.19-.5.12-.76Z"/>
        <path class="cls-3" d="m167.63,125.75c-.35-.39-.69-.78-1.03-1.18-.28-.37-.65-.71-1.14-.69-1.06-.02-1.62,1.33-.86,2.07.34.4.68.79,1.03,1.19.28.36.66.7,1.15.68,1.06.02,1.62-1.33.86-2.07Z"/>
        <path class="cls-3" d="m171.34,131.98c-.14-1.3-2.01-1.41-2.36-.16-.11.31-.22.62-.33.94-.09.24-.19.5-.12.76.14,1.3,2.01,1.41,2.36.16.11-.31.22-.63.33-.94.09-.24.19-.5.12-.76Z"/>
        <path class="cls-3" d="m158.69,128.75c-.28-.13-.56-.26-.84-.39-.5-.2-1-.57-1.56-.4-1.02.26-1.2,1.7-.29,2.22.39.17.77.34,1.15.52.25.1.49.28.77.29.59.12,1.17-.31,1.33-.87.15-.51-.09-1.1-.56-1.37Z"/>
        <path class="cls-3" d="m152.43,121.35c-.41.26-.9.52-1.02,1.03-.3,1.02.87,1.92,1.78,1.37.4-.28.9-.51,1.02-1.03.3-1.02-.87-1.92-1.78-1.37Z"/>
        <path class="cls-3" d="m149.46,115.23c-.6-.17-1.14.25-1.68.44.02-.01.05-.02.07-.03-.54.18-1.16.5-1.18,1.14-.17.82.72,1.58,1.51,1.33.16-.07.73-.31,1.01-.43.38-.15.8-.29,1-.67.41-.66.02-1.58-.72-1.78Z"/>
        <path class="cls-3" d="m147.17,109.05c-.52-.92-1.95-.73-2.22.29-.14.43-.28.87-.41,1.3-.15.41-.23.88.02,1.28.38.68,1.37.8,1.9.25.38-.39.41-.99.6-1.48.17-.53.44-1.11.1-1.63Z"/>
        <path class="cls-3" d="m139.71,108.41c-.52-.07-1.05-.15-1.57-.21-1.82-.42-2.21,2.26-.37,2.38.64.08.27.03,1.3.17.62.19,1.33-.22,1.49-.85.17-.63-.21-1.33-.85-1.49Z"/>
        <path class="cls-3" d="m142.95,115.71c-.56-.33-1.34-.14-1.66.44-.17.34-.33.69-.49,1.03-.14.41-.46.82-.35,1.28.14,1.3,2.01,1.41,2.36.16.23-.54.12-.32.57-1.25.34-.55.13-1.34-.44-1.66Z"/>
        <path class="cls-3" d="m134.17,114.92c-.36-.36-.9-.38-1.36-.53-.51-.14-1.03-.37-1.52-.05-.92.52-.73,1.95.29,2.22.36.12.73.21,1.1.31.54.21,1.25.18,1.6-.35.39-.45.32-1.18-.09-1.59Z"/>
        <path class="cls-3" d="m140.77,122.14c-.26-1.02-1.7-1.2-2.22-.29-.24.52-.47,1.04-.69,1.57-.1.3-.31.57-.33.9-.21,1.3,1.58,1.9,2.24.77.25-.59.5-1.19.77-1.77.19-.36.37-.76.23-1.17Z"/>
        <path class="cls-3" d="m146.84,127.95c-.12-.41-.43-.72-.85-.85-.4-.12-.81.05-1.2.11-.44.13-.96.1-1.32.41-1.06.78-.21,2.47,1.06,2.12.39-.08.77-.16,1.16-.24.26-.05.53-.09.72-.28.4-.27.56-.82.43-1.27Z"/>
        <path class="cls-3" d="m148.7,134.54c-.52-.92-1.95-.73-2.22.29-.08.39-.18.77-.27,1.15-.06.27-.18.55-.1.83.06.97,1.39,1.39,2.05.7.37-.36.38-.92.52-1.39.11-.52.34-1.09.02-1.58Z"/>
        <path class="cls-3" d="m141.21,133c-.26-.07-.52-.13-.79-.19-.23-.07-.46-.14-.69-.08-1.3.14-1.41,2.01-.16,2.36.81.17,1.92.74,2.53-.12.62-.75.06-1.87-.88-1.97Z"/>
        <path class="cls-3" d="m129.9,123.77c-.19-.11-.39-.16-.61-.17-.49-.04-.98-.1-1.46-.15-1.6.05-1.6,2.37,0,2.43.38.04.76.09,1.15.12.26.03.55.06.78-.07.92-.32.98-1.7.14-2.16Z"/>
        <path class="cls-3" d="m124.1,117.47c-.28.38-.54.78-.8,1.17-.27.36-.47.81-.33,1.26.19.75,1.12,1.12,1.78.72.39-.22.55-.66.81-1.01.25-.45.74-.85.78-1.38.21-1.3-1.58-1.9-2.24-.77Z"/>
        <path class="cls-3" d="m134.19,120.41c-.37-.19-.67-.56-1.1-.58-1.3-.21-1.9,1.58-.77,2.24.21.15.43.3.65.43.41.24.99.23,1.35-.09.69-.46.6-1.61-.12-2Z"/>
        <path class="cls-3" d="m127.07,131.14c-.14-1.3-2.01-1.41-2.36-.16-.18.91-1,2.14-.03,2.85.62.55,1.71.17,1.9-.63.12-.41.24-.82.37-1.23.08-.27.2-.55.12-.83Z"/>
        <path class="cls-3" d="m118.59,128.08c-.54-.13-1.08.11-1.61.19-1.79.23-1.39,2.76.36,2.4.41-.1.83-.18,1.24-.25.45-.12.84-.53.87-1.01.12-.58-.31-1.17-.87-1.33Z"/>
        <path class="cls-3" d="m120.71,120.72c-.52-.92-1.95-.73-2.22.29-.08.35-.15.71-.22,1.06-.04.21-.1.41-.05.62.06.97,1.39,1.39,2.05.7.35-.32.35-.81.45-1.24.1-.47.27-.99-.02-1.43Z"/>
        <path class="cls-3" d="m112.12,132.16c-.33-.35-.84-.35-1.26-.53-1.61-.7-2.51,1.71-.85,2.26.59.21,1.28.54,1.87.18.68-.38.8-1.37.25-1.9Z"/>
        <path class="cls-3" d="m111.28,138.37c-.52-.92-1.95-.73-2.22.29-.07.51-.16,1.02-.25,1.52-.09.45-.22.93.05,1.35.52.92,1.95.73,2.22-.29.1-.56.21-1.13.29-1.7.07-.39.14-.82-.09-1.18Z"/>
        <path class="cls-3" d="m123.36,137.63c-.11-.18-.25-.33-.44-.43-.4-.27-.8-.56-1.19-.86-1.41-.76-2.58,1.24-1.22,2.09.3.23.6.45.91.67.22.15.45.33.73.33.97.19,1.72-.97,1.21-1.8Z"/>
        <path class="cls-3" d="m192.7,130.81c-.19.37-.36.76-.54,1.14-.1.26-.29.5-.3.79-.12.59.31,1.17.87,1.33.51.15,1.1-.09,1.37-.56.13-.28.25-.56.38-.84.13-.37.42-.7.45-1.09.21-1.3-1.58-1.9-2.24-.77Z"/>
        <path class="cls-3" d="m191.24,120.99c-.5.12-1.1.05-1.51.39-1.06.78-.21,2.47,1.06,2.12.64-.13,1.47-.07,1.82-.73.55-.91-.34-2.08-1.37-1.78Z"/>
        <path class="cls-3" d="m202.35,122.43c-.48-1.22-2.32-.84-2.32.47-.09.61-.09,1.23-.11,1.85,0,.32-.07.67.09.96.47,1.22,2.33.83,2.32-.47.02-.61.02-1.23.06-1.84.03-.33.13-.68-.04-.98Z"/>
        <path class="cls-3" d="m205.19,128.2c-.46-.02-.97-.16-1.4.04-1.22.48-.83,2.33.47,2.32.68-.03,1.48.31,2.01-.27.83-.9.11-2.15-1.07-2.09Z"/>
        <path class="cls-3" d="m214.19,134.2c.11.15.28.36.06.07-.21-.33-.47-.67-.87-.77-1.02-.3-1.92.87-1.37,1.78.26.38.56.75.85,1.11.16.21.33.43.59.5.75.38,1.71-.28,1.68-1.11,0-.67-.59-1.08-.94-1.59Z"/>
        <path class="cls-3" d="m212.2,127.38c-.38.38-.91.69-1.13,1.19-.54,1.2,1.04,2.25,1.97,1.32.22-.21.44-.43.67-.63.19-.16.38-.32.45-.56.54-1.2-1.04-2.25-1.97-1.32Z"/>
        <path class="cls-3" d="m193.68,114.55c-.44-.26-.96-.15-1.44-.13-1.6.05-1.6,2.37,0,2.43.58-.06,1.25.08,1.69-.39.56-.53.42-1.52-.25-1.9Z"/>
        <path class="cls-3" d="m200.72,115.54c-.14-1.3-2.01-1.41-2.36-.16-.12.42-.24.83-.36,1.25-.07.28-.2.57-.13.86.03.47.42.89.87,1.01.43.11.86,0,1.18-.31.31-.3.36-.74.48-1.14.1-.49.4-.99.32-1.5Z"/>
        <path class="cls-3" d="m186.01,110.46c-.27-.46-.86-.7-1.37-.56-.52.22-1.04.43-1.55.66-1.81.56-.83,3.08.85,2.26.41-.18.82-.36,1.24-.53.19-.07.38-.12.52-.26.5-.33.6-1.06.31-1.56Z"/>
        <path class="cls-3" d="m187.45,116.28c-.18-.3-.28-.67-.58-.86-1.03-.83-2.44.43-1.78,1.56.16.33.34.65.51.97.12.22.23.47.46.6.75.65,1.97.02,1.95-.95,0-.5-.35-.89-.55-1.32Z"/>
        <path class="cls-3" d="m180.85,105.86c-.34-.5-1.06-.6-1.56-.31-.36.2-.52.59-.73.92-.2.4-.58.75-.61,1.22-.21,1.3,1.58,1.9,2.24.77.42-.77,1.4-1.73.67-2.6Z"/>
        <path class="cls-3" d="m191.9,110.23c-.06-.83-1.11-1.32-1.8-.89-.3.22-.6.42-.9.63-.36.22-.73.47-.83.91-.3,1.02.87,1.92,1.78,1.37.68-.54,1.95-.96,1.76-2.02Z"/>
        <path class="cls-3" d="m198.99,137.14c-.52-.92-1.95-.73-2.22.29-.06.4-.15.79-.23,1.18-.05.28-.17.56-.1.84.06.97,1.39,1.39,2.05.7.41-.41.38-1.03.52-1.56.08-.48.25-1-.03-1.45Z"/>
        <path class="cls-3" d="m210.08,141.58c-.13-.48-.58-.76-.87-1.14-1.1-1.29-2.94.37-1.8,1.61.49.59,1.12,1.37,1.97.96.57-.2.85-.87.7-1.43Z"/>
        <path class="cls-3" d="m181.99,142.88c-.3-.33-.59-.66-.87-1-.24-.34-.47-.7-.9-.8-1.02-.3-1.92.87-1.37,1.78.34.5.74.96,1.14,1.41.2.22.38.48.68.57,1.2.54,2.25-1.04,1.32-1.97Z"/>
        <path class="cls-3" d="m190.21,144.04c-.26-1.02-1.7-1.2-2.22-.29-.38.75-.77,1.5-1.13,2.26-.76,1.41,1.24,2.58,2.09,1.22.28-.58.58-1.16.87-1.73.23-.45.56-.93.39-1.46Z"/>
        <path class="cls-3" d="m164.44,141.34c-.52-.18-1.04-.36-1.56-.55-.3-.11-.62-.28-.95-.19-1.3.14-1.41,2.01-.16,2.36.53.2,1.06.39,1.59.58.3.1.6.25.92.17,1.3-.14,1.41-2.01.16-2.36Z"/>
        <path class="cls-3" d="m256.74,118.91c-.34.35-.68.7-1,1.06-.31.32-.65.68-.63,1.16-.02.78.79,1.38,1.53,1.17.45-.11.7-.52,1.01-.83.33-.42.84-.74,1.06-1.23.54-1.2-1.04-2.25-1.97-1.32Z"/>
        <path class="cls-3" d="m227.58,117.18c-.45-.19-.85-.55-1.34-.61-1.3-.21-1.9,1.58-.77,2.24.58.26,1.15.79,1.82.59,1.02-.26,1.2-1.7.29-2.22Z"/>
        <path class="cls-3" d="m231.98,121.84c-.36.27-.72.55-1.07.83-.2.15-.4.32-.47.57-.44.89.49,1.91,1.43,1.64.49-.15.81-.59,1.23-.87l-.25.19c.12-.09.23-.18.35-.27.27-.16.47-.42.56-.72.3-1.02-.87-1.92-1.78-1.37Z"/>
        <path class="cls-3" d="m224.23,108.85c-.46-.15-.89.11-1.31.28-.37.15-.74.31-1.11.46-.3.08-.57.29-.72.56-.55.91.34,2.08,1.37,1.78.6-.24,1.19-.49,1.78-.73.3-.08.57-.29.72-.56.41-.66.02-1.58-.72-1.78Z"/>
        <path class="cls-3" d="m276.35,110.55c-.64-.22-1.25-.77-1.96-.59-1.02.26-1.2,1.7-.29,2.22.47.17.99.54,1.47.61.47.1.97-.17,1.21-.58.33-.56.14-1.34-.44-1.66Z"/>
        <path class="cls-3" d="m266.05,107.91c-.19.3-.38.6-.58.9-.14.22-.3.44-.3.7-.19.97.97,1.72,1.8,1.21.47-.3.67-.87.99-1.31.14-.23.32-.46.33-.73.21-1.3-1.58-1.9-2.24-.77Z"/>
      </g>
    </g>
  </g>
</svg>