<?xml version="1.0" encoding="UTF-8"?>
<svg xmlns="http://www.w3.org/2000/svg" viewBox="0 0 539.22 533.13">
  <defs>
    <style>
      .cls-1, .cls-2, .cls-3 {
        opacity: .1;
      }

      .cls-1, .cls-4, .cls-3, .cls-5 {
        fill: #231f20;
      }

      .cls-1, .cls-4, .cls-5 {
        mix-blend-mode: multiply;
      }

      .cls-6, .cls-2, .cls-7, .cls-8, .cls-9 {
        fill: #fff;
      }

      .cls-10 {
        fill: #2d2c2d;
      }

      .cls-11 {
        fill: #7c9911;
      }

      .cls-12 {
        fill: #eb9a41;
      }

      .cls-13 {
        opacity: .4;
      }

      .cls-13, .cls-14, .cls-15, .cls-16 {
        fill: none;
      }

      .cls-4, .cls-7, .cls-16 {
        opacity: .3;
      }

      .cls-17 {
        fill: #cddddd;
      }

      .cls-18 {
        fill: #5b2b17;
      }

      .cls-14 {
        isolation: isolate;
      }

      .cls-7 {
        mix-blend-mode: soft-light;
      }

      .cls-19 {
        fill: #faffc4;
      }

      .cls-15 {
        opacity: .6;
      }

      .cls-3, .cls-8, .cls-9 {
        mix-blend-mode: overlay;
      }

      .cls-5, .cls-9 {
        opacity: .2;
      }

      .cls-8 {
        opacity: .15;
      }

      .cls-20 {
        fill: #232223;
      }

      .cls-21 {
        fill: #9bd61a;
      }

      .cls-22 {
        fill: #414042;
      }
    </style>
  </defs>
  <g class="cls-14">
    <g id="Calque_2" data-name="Calque 2">
      <g id="Layer_1" data-name="Layer 1">
        <g id="tempura">
          <g>
            <polygon class="cls-22" points="0 203.91 2.8 222.8 317.5 152.29 315.79 145.8 0 203.91"/>
            <polygon class="cls-20" points="4.32 219.11 2.02 203.54 0 203.91 2.8 222.8 317.5 152.29 316.67 149.13 4.32 219.11"/>
            <g class="cls-15">
              <path class="cls-6" d="m5.39,208.51c102.19-21.21,205.76-41.3,308.47-59.79-102.18,21.22-205.76,41.29-308.47,59.79h0Z"/>
            </g>
          </g>
          <path class="cls-12" d="m329.46,56.35c6.39-7.47,9.7-17.17,11-26.92,1.3-9.74.72-19.62.14-29.43,3.95,2.78,9.7,2.11,14.52,1.72,4.82-.39,10.02-.76,14.13,1.8-7.18,9.07-12.21,19.87-17.81,29.99-5.24,9.46-10.48,18.93-15.72,28.39-1.81-1.65-4.44-3.91-6.25-5.56Z"/>
          <path class="cls-1" d="m341.26.42c-.23-.13-.45-.27-.67-.42.58,9.81,1.16,19.69-.14,29.43-1.3,9.74-4.61,19.45-11,26.92,1.81,1.65,4.44,3.91,6.25,5.56,1.86-3.35,3.71-6.7,5.57-10.05-.38-.85-.6-1.73-.6-2.67-2.81-16.84,8.68-26.41.59-48.76Z"/>
          <path class="cls-20" d="m137.74,487.17s51.25,19.17,56.91,45.96c0,0,127.5-48.46,235.16-2.73,0,0,16.29-30.3,47.87-32.83l-145.5-29.48-127.21,3.71-67.23,15.37Z"/>
          <path class="cls-22" d="m166.93,318.87s211.99,45.9,372.3-9.75c0,0-54.84,117.32-40.08,200.64,0,0-184.65-41.83-391.28,20.04,0,0,68.55-108.63,59.06-210.93Z"/>
          <path class="cls-8" d="m251.68,369.66c-6.5-5.41-9.21-12.75-11.46-19.38-2.25-6.63-4.82-14.44-11.48-16.61-6.68-2.19-13.94,3.16-16.42,9.75s-1.46,13.9-.42,20.85l5.72,38c1.08,7.18,1.84,15.47-3.13,20.76-8.22,8.75-23.34,1.5-34.6,5.63-9.14,3.35-13.98,14.32-12.32,23.91,1.66,9.59,8.62,17.6,16.84,22.8,8.23,5.2,17.7,8,27.04,10.74,12.95,3.79,27,7.56,39.65,2.85,10.37-3.86,18.27-12.95,28.85-16.18,11.47-3.5,23.71.49,35.27,3.71,44.61,12.42,92.39,13.26,137.41,2.41,11.65-2.81,24.99-8.32,27.41-20.06,1.36-6.6-1.3-13.38-1.07-20.11.53-15.7,15.99-26.95,19.87-42.17,3.83-15.03-.83-33.8-13.12-43.26-12.28-9.47-24.88-4.55-39.83-8.66-9.6-2.64-26.86-11.68-35.88-7.47-11.77,5.49-15.78,19.77-21.9,31.22-9.32,17.44-26.32,30.6-45.55,35.26-22.76,5.51-48,2.2-67.47-10.8-9.58-6.4-23.42-23.17-23.42-23.17Z"/>
          <path class="cls-4" d="m509,344.53c4.38,7.11,6.42,15.68,7.39,24.77,11.14-35.14,22.84-60.18,22.84-60.18-32.81,11.39-67.79,18.52-102.66,22.67,4.81,3.98,9.99,7.5,16.67,8.61,19.62,3.1,43.37-14.46,55.77,4.13Z"/>
          <path class="cls-4" d="m155.82,491.17c-9.3-2.79-17.76-10.61-17.84-21.19-15.03,35.92-30.11,59.81-30.11,59.81,45.65-13.67,90.23-22.28,131.99-27.39-3.2-1.8-6.42-3.52-9.68-5.04-23.75-10.33-49.57,0-74.35-6.2Z"/>
          <path class="cls-12" d="m358.6,195.74c-.13,2.38-.43,4.79-1.44,6.95-1.01,2.16-2.82,4.05-5.12,4.66,2.95,1.61,3.98,5.54,2.96,8.75-1,3.21-3.89,5.62-7.11,6.59-3.22.97-6.72.66-9.96-.28-1.33,1.26-3.61,1.27-4.95,2.53-2.35,2.23-4.8,4.52-7.85,5.6-4.69,1.65-10.36-.14-13.24-4.19-1.23-1.73-1.91-3.81-2.04-5.94-.17-2.82.64-5.71,2.41-7.93-2.98,1.87-6.55,2.19-9.98,1.44-3.44-.75-6.54-3.17-7.83-6.44-1.28-3.26-.58-7.31,1.96-9.75-5.98.84-11.99-3.03-13.59-8.85-1.61-5.82,1.67-12.58,7.24-14.93-2.27.41-4.76-.92-6.3-2.62-1.55-1.7-2.15-4.22-1.52-6.43.62-2.21,2.44-4.06,4.65-4.7-4.67-1.94-8.14-7.38-7.36-12.38.77-4.99,5.25-9.16,10.28-9.58-1.6-1.3-2.77-3.22-3.23-5.23-.32-1.37-.31-2.85.22-4.15.54-1.3,1.64-2.4,3.01-2.74-2.19-2.15-3.93-4.73-4.54-7.75-.43-2.17.11-4.52,1.48-6.27,1.36-1.76,3.5-2.87,5.72-2.97-1.4-1.67-1.19-4.19-.6-6.29.59-2.11,1.83-3.96,3.06-5.75.95-1.39,1.92-2.82,3.27-3.81,1.36-.99,3.2-1.49,4.75-.84-2.09-1.49-2.83-4.28-2.57-6.84.26-2.55,1.71-4.89,3.71-6.52,1.99-1.62,4.48-2.54,7.02-2.94-.65-1.2-.66-2.47-.88-3.81-.37-2.4.25-4.93,1.69-6.86,1.45-1.94,3.67-3.77,6.06-4.09.1-2.59,1.33-5.11,3.31-6.78,1.97-1.67,4.67-2.47,7.24-2.14,3.07.39,5.73,2.25,8.24,4.06,1.4,1.01,2.83,2.03,3.92,3.38,1.08,1.34,1.83,3.07,1.62,4.78-.23,1.98-1.67,3.66-3.39,4.68-1.71,1.01-3.69,1.49-5.63,1.93,4.06,2.05,6.3,7.6,5.38,12.06-.92,4.45-5.05,8.03-9.59,8.31-.03.21-.17,1.13-.2,1.33,2.72,1.48,4.7,4.22,5.26,7.26.56,3.05-.34,6.31-2.35,8.65-1.76,2.03-4.22,3.3-6.62,4.52,2.1-1.01,4.89,1.26,6.29,3.12,1.4,1.86,1.79,4.29,1.86,6.62.06,2.02-.09,4.12-.96,5.96-.88,1.84-2.57,3.38-4.59,3.61,2.14.13,4.12,1.38,5.9,2.59,2.46,1.68,4.17,4.42,4.63,7.36.45,2.94-.36,6.07-2.2,8.42,1.91-.95,4.06-.58,5.87.56,2.92,1.85,4.63,5.44,4.21,8.88-.41,3.43-2.93,6.52-6.22,7.6,6.2-.18,11.97,4.25,15.09,9.61,2.24,3.85,3.27,8.26,3.54,12.74.11,1.75.1,3.51.01,5.25Z"/>
          <path class="cls-1" d="m300.39,177.23c-9.29-37.18,1.03-75.39,20.65-108.43,4.13-7.09,11.98-9.44,19.87-8.62-.08-.1-.15-.21-.23-.31-1.09-1.34-2.52-2.36-3.92-3.38-2.51-1.81-5.17-3.67-8.24-4.06-2.57-.33-5.27.46-7.24,2.14-1.98,1.67-3.21,4.19-3.31,6.78-2.4.32-4.62,2.15-6.06,4.09-1.45,1.93-2.07,4.46-1.69,6.86.22,1.34.23,2.61.88,3.81-2.54.4-5.03,1.32-7.02,2.94-1.99,1.62-3.45,3.97-3.71,6.52-.26,2.56.49,5.35,2.57,6.84-1.55-.65-3.39-.15-4.75.84-1.35.99-2.32,2.42-3.27,3.81-1.23,1.8-2.47,3.65-3.06,5.75-.59,2.1-.81,4.62.6,6.29-2.22.1-4.36,1.22-5.72,2.97-1.36,1.75-1.91,4.1-1.48,6.27.61,3.02,2.35,5.6,4.54,7.75-1.36.34-2.47,1.44-3.01,2.74-.53,1.3-.54,2.78-.22,4.15.46,2,1.63,3.92,3.23,5.23-5.03.42-9.5,4.6-10.28,9.58-.77,5,2.7,10.44,7.36,12.38-2.21.64-4.03,2.49-4.65,4.7-.63,2.21-.03,4.73,1.52,6.43,1.54,1.7,4.03,3.04,6.3,2.62-5.57,2.35-8.85,9.11-7.24,14.93,1.6,5.82,7.61,9.69,13.59,8.85-2.54,2.44-3.24,6.49-1.96,9.75,1.29,3.27,4.39,5.69,7.83,6.44,3.43.75,6.99.43,9.98-1.44-1.77,2.22-2.57,5.11-2.41,7.93.13,2.13.82,4.2,2.04,5.94,2.88,4.05,8.55,5.85,13.24,4.19,3.05-1.07,5.49-3.37,7.85-5.6,1.33-1.26,3.61-1.27,4.95-2.53,3.23.94,6.73,1.25,9.96.28,2.38-.72,4.57-2.22,5.96-4.24-24.85-3.9-47.81-16.53-53.45-41.21Z"/>
          <path class="cls-18" d="m358.6,195.74c-.13,2.38-.43,4.79-1.44,6.95-1.01,2.16-2.82,4.05-5.12,4.66,2.95,1.61,3.98,5.54,2.96,8.75-1,3.21-3.89,5.62-7.11,6.59-3.22.97-6.72.66-9.96-.28-1.33,1.26-3.61,1.27-4.95,2.53-2.35,2.23-4.8,4.52-7.85,5.6-4.69,1.65-10.36-.14-13.24-4.19-1.23-1.73-1.91-3.81-2.04-5.94.47-6.28,1.74-7.13,2.06-7.46,5.93-6.04,6.34-11.17,12.28-17.21,4.92-5.02,12.58-11.21,19.6-11.43,5.27-.16,11.16,1.85,14,5.76.18.24.54.27.8.42.11,1.75.1,3.51.01,5.25Z"/>
          <path class="cls-1" d="m336.49,211.55c-5.79-.83-13.71-3.83-18.34-7.4-1.62,2.85-3.21,5.7-6.24,8.79-.32.33-1.59,1.18-2.06,7.46.13,2.13.82,4.2,2.04,5.94,2.88,4.05,8.55,5.85,13.24,4.19,3.05-1.07,5.49-3.37,7.85-5.6,1.33-1.26,3.61-1.27,4.95-2.53,3.23.94,6.73,1.25,9.96.28,3.22-.97,6.11-3.38,7.11-6.59.74-2.35.38-5.07-1.02-7-5.87,2.47-10.83,3.67-17.49,2.46Z"/>
          <path class="cls-1" d="m292.13,176.2c-4.06-23.33,2.44-48.16.18-67.09-2.49.18-4.44,1.49-5.58,2.97-1.36,1.75-1.91,4.1-1.48,6.27.61,3.02,2.35,5.6,4.54,7.75-1.36.34-2.47,1.44-3.01,2.74-.53,1.3-.54,2.78-.22,4.15.46,2,1.63,3.92,3.23,5.23-5.03.42-9.5,4.6-10.28,9.58-.77,5,2.7,10.44,7.36,12.38-2.21.64-4.03,2.49-4.65,4.7-.63,2.21-.03,4.73,1.52,6.43,1.54,1.7,4.03,3.04,6.3,2.62-5.57,2.35-8.85,9.11-7.24,14.93,1.6,5.82,7.61,9.69,13.59,8.85-2.54,2.44-3.24,6.49-1.96,9.75,1.29,3.27,4.39,5.69,7.83,6.44,3.43.75,6.99.43,9.98-1.44-1.77,2.22-2.57,5.11-2.41,7.93.13,2.13.82,4.2,2.04,5.94,2.88,4.05,8.55,5.85,13.24,4.19,3.05-1.07,5.49-3.37,7.85-5.6,1.33-1.26,3.61-1.27,4.95-2.53,1.28.37,2.61.64,3.94.77-23.96-5.56-44.75-19.85-49.74-46.98Z"/>
          <path class="cls-1" d="m311.91,212.94c-.32.33-1.59,1.18-2.06,7.46.13,2.13.82,4.2,2.04,5.94,2.88,4.05,8.55,5.85,13.24,4.19,3.05-1.07,5.49-3.37,7.85-5.6,1.33-1.26,3.61-1.27,4.95-2.53,1.28.37,2.61.64,3.94.77-10.29-2.39-19.98-6.39-28.09-12.33-.56.69-1.17,1.38-1.87,2.09Z"/>
          <path class="cls-10" d="m393.44,320.71c0,22.28-3.18,76.71-66.59,76.71-66.84,0-66.84-55.22-66.84-77.5,3.19-22.28,29.92-3.18,66.84-3.18s63.96-17.65,66.59,3.97Z"/>
          <path class="cls-3" d="m298.33,380.67c-25.62-11.89-34.21-38.38-37.99-64.37-.22,1.06-.33,2.26-.33,3.62,0,22.28,0,77.5,66.84,77.5,21.37,0,35.92-6.12,45.82-15.09-23.07,9.8-50.99,8.65-74.34-1.66Z"/>
          <path class="cls-12" d="m295.71,431.12c-1.71-2.52-3.51-5.38-3.04-8.39.35-2.24,1.96-4.14,3.9-5.31,1.94-1.17,4.19-1.71,6.43-2.08,4.75-.79,9.6-.92,14.38-.38,2.2.25,4.45.67,6.31,1.86,1.86,1.19,3.27,3.33,3.02,5.53,1.22-2.24,4.28-2.62,6.79-2.24,3.28.5,6.37,2.14,8.61,4.59,2.24,2.44,3.62,5.66,3.84,8.97,2.52-1.01,5.09-1.65,7.7-.9,2.36.68,4.28,2.57,5.22,4.84s.93,4.87.2,7.21l.08.61c2.61-1.5,6.12-1.27,8.5.57,2.38,1.84,3.5,5.17,2.71,8.08,2.09-2.88,6.15-3.84,9.41-2.41,3.26,1.43,5.38,4.99,5.35,8.55,5.09-2.04,10.41-3.03,15.86-2.42,2.68.3,5.55,1.07,7.13,3.25,1.74,2.4,1.28,5.95-.57,8.26s-4.83,3.51-7.77,3.84c-2.95.33-5.92-.11-8.85-.55-2.26,1.71-5.2,3.37-8,3.85-2.79.47-5.92-.26-7.75-2.42-2.29,3.07-6.48,4.57-10.31,4.47-3.83-.11-7.56-2.17-9.67-5.37-2.77,2.44-6.71,3.1-10.4,2.98-2.03-.07-4.08-.57-5.75-1.72-1.68-1.14-2.94-2.96-3.15-4.98-3.79,2.36-9.58,2.31-13.36-.05-3.79-2.36-6.04-6.98-5.58-11.42-1.89,2.05-5.46,2.16-7.81.65-1.25-.81-2.17-2.08-2.72-3.46-1.1-2.77-.75-6.07.92-8.54-3.95.89-8.18-.75-10.62-3.97-2.44-3.23-2.79-7.89-.87-11.45l-.13-.04Z"/>
          <path class="cls-12" d="m232.39,369.66c-4.55-2.05-8.38-5.65-10.71-10.07-2.33-4.41-3.15-9.6-2.29-14.52,4.3-2.35,8.91-4.32,13.8-4.67-2.26,9.48-2.27,19.62-.8,29.25Z"/>
          <path class="cls-1" d="m226.04,362.08c-3.6-5.4-4.26-12.62-2.87-18.91-.54.28-3.24,1.6-3.77,1.9-.86,4.91-.05,10.11,2.29,14.52,2.33,4.41,6.16,8.01,10.71,10.07-.17-1.14-.32-2.29-.46-3.44-2.58-.64-4.73-2.38-5.89-4.13Z"/>
          <path class="cls-1" d="m324.15,453.99c-14.5-9.38-17.01-26.5-8.15-39.16-4.33-.38-8.71-.21-13,.51-2.24.37-4.49.91-6.43,2.08-1.94,1.17-3.54,3.07-3.9,5.31-.47,3.01,1.32,5.87,3.04,8.39l.13.04c-1.93,3.56-1.57,8.22.87,11.45,2.44,3.23,6.68,4.86,10.62,3.97-1.67,2.47-2.03,5.77-.92,8.54.55,1.39,1.47,2.65,2.72,3.46,2.34,1.51,5.92,1.41,7.81-.65-.46,4.44,1.8,9.05,5.58,11.42,3.79,2.36,9.58,2.41,13.36.05.21,2.02,1.48,3.84,3.16,4.98,1.68,1.14,3.73,1.65,5.75,1.72,3.69.12,7.63-.54,10.4-2.98,2.12,3.19,5.84,5.26,9.67,5.37,3.83.11,8.02-1.39,10.31-4.47,1.83,2.16,4.96,2.89,7.75,2.42,2.79-.47,5.74-2.14,8-3.85,2.93.44,5.91.88,8.85.55,2.95-.33,5.92-1.53,7.77-3.84,1.2-1.49,1.8-3.5,1.62-5.38-27.07,11.24-60.97,7.37-85.02-9.95Z"/>
          <path class="cls-1" d="m316.9,458.43c-.71,5.1,2.98,9.29,5.62,10.93,3.79,2.36,9.58,2.41,13.36.05.21,2.02,1.48,3.84,3.16,4.98,1.68,1.14,3.73,1.65,5.75,1.72,3.69.12,7.63-.54,10.4-2.98,2.12,3.19,5.84,5.26,9.67,5.37,3.83.11,8.02-1.39,10.31-4.47,1.83,2.16,4.96,2.89,7.75,2.42,2.79-.47,5.74-2.14,8-3.85,2.93.44,5.91.88,8.85.55,2.95-.33,5.92-1.53,7.77-3.84,1.04-1.29,1.63-2.97,1.65-4.62-27.71,16.67-83.34,1.47-92.3-6.27Z"/>
          <path class="cls-12" d="m227.66,395.47c-2.88-2.29-4.52-6.04-4.25-9.7s2.44-7.14,5.62-8.98c-.66-2.01-.55-4.04.11-6.05.42-1.27,1.38-2.36,2.58-2.94,2.04-.98,4.61-.42,6.36,1.02,1.75,1.44,2.77,3.62,3.22,5.84.45,2.22.39,4.51.31,6.77,2.05-.74,4.37-.1,6.02,1.33,1.54,1.33,2.33,3.36,2.57,5.38.24,2.02-.03,4.06-.29,6.08,1.62-3.1,5.49-4.25,8.93-3.62,3.44.63,6.36,3.08,8.18,6.06s2.67,6.46,3.14,9.93c4.65-2.91,11.16-1.85,15.07,2.01,2.26,2.23,3.56,5.24,4.78,8.17,3.28-3.5,8.8-3.62,13.16-1.62s7.64,5.73,10.67,9.44c.43,6.41-1.59,13.24-5.9,18-2.01,2.23-2.92,5.39-4.63,7.87-1.61,2.33-4.39,3.81-7.23,3.82s-5.63-1.43-7.27-3.75c.33,2.64-1.9,5.33-4.3,6.48s-5.3.94-7.76-.1c-4.02-1.71-6.99-5.7-7.47-10.04-2.98,2.32-6.98,2.39-10.45.92s-6.04-4.9-6.46-8.65c-3.7.33-7.17-1.67-9.34-4.69-2.17-3.02-2.61-7.19-1.12-10.6-2.33.24-4.53.18-6.68-.76-2.41-1.06-4.05-3.51-4.5-6.1-.46-2.59.16-5.29,1.3-7.66-2.92.12-5.13-2.38-6.11-5.14-.98-2.76.85-5.94,1.75-8.72Z"/>
          <path class="cls-1" d="m313.83,424.6c-2.9-3.56-6.04-7.11-10.13-9.16,4.47,8.47,3.62,19.34-4.34,25.13-13.43,11.36-29.95,0-41.31-9.29-18.1-16.19-30.91-38.54-27.12-62.99-.83.61-1.47,1.47-1.79,2.45-.67,2.01-.77,4.04-.11,6.05-3.18,1.84-5.35,5.32-5.62,8.98-.27,3.66,1.38,7.42,4.25,9.7-.89,2.78-2.72,5.97-1.75,8.72.98,2.76,3.19,5.26,6.11,5.14-1.15,2.37-1.76,5.07-1.31,7.66.46,2.59,2.09,5.05,4.51,6.1,2.15.94,4.35,1,6.68.76-1.49,3.4-1.05,7.58,1.12,10.6,2.17,3.02,5.64,5.01,9.34,4.69.42,3.75,2.99,7.19,6.46,8.65,3.48,1.47,7.47,1.39,10.45-.92.49,4.35,3.45,8.33,7.47,10.04,2.45,1.04,5.35,1.25,7.76.1,2.41-1.15,4.64-3.83,4.3-6.48,1.63,2.32,4.43,3.76,7.26,3.75,2.83-.01,5.62-1.49,7.23-3.82,1.7-2.47,2.61-5.64,4.63-7.86,4.31-4.76,6.33-11.59,5.9-18Z"/>
          <path class="cls-1" d="m243.6,421.98c-2.44-4.06-6.8-9.39-12.07-11.48-.81,2.07-1.18,4.32-.8,6.49.46,2.59,2.09,5.05,4.51,6.1,2.15.94,4.35,1,6.68.76-1.49,3.4-1.05,7.58,1.12,10.6,2.17,3.02,5.64,5.01,9.34,4.69.42,3.75,2.99,7.19,6.46,8.65,3.46,1.46,7.44,1.39,10.41-.9-10.91-4.47-20.22-13.46-25.65-24.91Z"/>
          <path class="cls-1" d="m313.83,424.6c-.63-.77-1.27-1.54-1.93-2.29.22,12.04-6.61,24.15-17.7,26.53-8.57,2.14-17.15,1.25-24.91-1.92.5,4.33,3.46,8.29,7.46,9.99,2.45,1.04,5.35,1.25,7.76.1,2.41-1.15,4.64-3.83,4.3-6.48,1.63,2.32,4.43,3.76,7.26,3.75,2.83-.01,5.62-1.49,7.23-3.82,1.7-2.47,2.61-5.64,4.63-7.86,4.31-4.76,6.33-11.59,5.9-18Z"/>
          <path class="cls-12" d="m316.38,409.09c-2.54,2.06-4.98,5.53-3.92,8.62,1.06,3.09,3.64,5.95,6.91,6.02-1.11,3.98.34,8.56,3.55,11.16s7.98,3.48,11.65,1.57c.14,3.84,2.18,7.56,5.34,9.75,3.16,2.19,7.71,2.89,11.35,1.68,1.57,2.23,4.19,3.69,6.91,3.87,3.71.23,7.26-1.83,9.72-4.62,2.46-2.79,4.28-5.99,5.79-9.39,2.47,1.46,5.42,2.5,8.18,1.74,2.89-.8,5.74-3.64,5.68-6.64,3,2,7.37.61,9.56-2.25,2.2-2.86,3.72-6.87,3.43-10.47.99,1.94,3.93,2.12,5.68.83,1.75-1.29,2.53-3.53,2.93-5.67.43-2.32,1.7-4.69,1.48-7.04,1.4.6,2.83,1.21,4.35,1.31s3.17-.4,4.05-1.64c1.02-1.43.78-3.4.27-5.09-.5-1.69-.89-3.28-.69-5.03,2.4,1.82,6.17,1.49,8.22-.72,1.4-1.51,1.95-3.65,1.93-5.71-.02-2.06,1.23-3.73.7-5.72,1.81-2.77,2.14-6.44.87-9.49s-4.11-5.39-7.35-6.06c-3.31-.68-6.88.29-10.06-.86-2.65-.96-4.55-3.23-6.6-5.16-2.58-2.43-6.11-4.59-9.65-2.38-1.91,1.19-3.01,3.33-3.17,5.57-.25,3.37-.04,7.02,1.27,10.16-2.78-.51-5.79.56-7.64,2.7-1.84,2.14-4.09,5.25-3.17,7.92-2.94-.04-5.87,1.34-7.73,3.63-1.85,2.29-3.49,5.3-2.85,8.18-2.74-1.3-6.17-1-8.66.74-2.48,1.75-4.36,4.88-4.06,7.9-5.1-1.77-10.91-.5-14.44,3.58-4.68-2.87-12.05-2.77-15.51,1.49-.59-2.65-3.26-4.43-5.95-4.83-4.23-.64-7.19,2.25-9.59-1.97-2.55-4.48-4.67-9.26-7.08-13.81-.65-1.23-1.89-3.22-3.13-3.83-1.19-.58-1.78-.3-3.05.7-1.04.82-2.49,1.58-3.48,2.46l-7.94,7.07c-.97.86-.58,2.47.69,2.77,8.1,1.9,17.49,5.59,25.2,6.96Z"/>
          <path class="cls-1" d="m430.33,376.17c-1.27-3.05-4.11-5.39-7.35-6.06-3.31-.68-6.88.29-10.06-.86-2.65-.96-4.55-3.23-6.6-5.16-2.57-2.42-6.1-4.58-9.63-2.39-1.91,1.18-3.02,3.29-3.19,5.53-.12,1.51-.13,3.07,0,4.62,12.63-3.38,20.33,4.01,19.47,16.79-1.67,24.9-24.79,44.71-50.61,49.87-18.81,3.76-41.03-10.46-44.08-29.41-1.15-.11-2.09-.87-2.09-.87-.08-.15-2.22-.51-2.3-.66-9.03-2.59-15.83-4.13-20.37-10.9-1,.89-2,1.78-3,2.67-.98.88-.58,2.5.7,2.8,8.09,1.9,17.47,5.59,25.16,6.95-2.54,2.06-4.98,5.53-3.92,8.62,1.06,3.09,3.64,5.95,6.91,6.02-1.11,3.98.34,8.56,3.55,11.16s7.98,3.48,11.65,1.57c.14,3.84,2.18,7.56,5.34,9.75,3.16,2.19,7.71,2.89,11.35,1.68,1.57,2.23,4.19,3.69,6.91,3.87,3.71.23,7.26-1.83,9.71-4.62,2.46-2.79,4.28-5.99,5.79-9.39,2.47,1.46,5.42,2.5,8.18,1.74,2.89-.8,5.74-3.64,5.68-6.64,3,2,7.37.61,9.56-2.25,2.2-2.86,3.72-6.87,3.43-10.47.99,1.94,3.93,2.12,5.68.83,1.75-1.29,2.53-3.53,2.93-5.67.43-2.32,1.7-4.69,1.48-7.04,1.4.6,2.83,1.21,4.35,1.31,1.52.1,3.17-.4,4.05-1.64,1.02-1.43.78-3.4.27-5.09-.5-1.69-.89-3.28-.69-5.03,2.4,1.82,6.17,1.49,8.22-.72,1.4-1.51,1.95-3.65,1.93-5.71-.02-2.06,1.23-3.73.7-5.72,1.81-2.77,2.14-6.44.87-9.49Z"/>
          <path class="cls-1" d="m399.89,425.17c-.08.24-.15.48-.23.71.08-.24.16-.47.23-.71Z"/>
          <path class="cls-1" d="m430.33,376.17c-1.27-3.05-4.11-5.39-7.35-6.06-3.31-.68-6.88.29-10.06-.86-2.65-.96-4.55-3.23-6.6-5.16-2.57-2.42-6.1-4.58-9.63-2.39-1.77,1.1-2.85,3-3.13,5.06,10.7-1.77,20.63,5.59,22.92,9.93,1.67,3.44,3.87,7.42,2.55,14.36-5.47,15.31-9.43,15.7-18.02,28.42,1.32.94,3.84,2.53,5.21,1.51,1.75-1.29,2.53-3.53,2.93-5.67.43-2.32,1.7-4.69,1.48-7.04,1.4.6,2.83,1.21,4.35,1.31,1.52.1,3.17-.4,4.05-1.64,1.02-1.43.78-3.4.27-5.09-.5-1.69-.89-3.28-.69-5.03,2.4,1.82,6.17,1.49,8.22-.72,1.4-1.51,1.95-3.65,1.93-5.71-.02-2.06,1.23-3.73.7-5.72,1.81-2.77,2.14-6.44.87-9.49Z"/>
          <path class="cls-11" d="m181.77,459.91c5.72,9.97,13.31,14.93,24.21,18.59,10.9,3.67,25.01,6.15,36.12,3.21,2.18-.58,4.69-1.64,5.09-3.86.22-1.19-.26-2.39-.73-3.5-2.13-5.09-4.26-10.18-6.4-15.27-1.39-3.31-2.87-6.75-5.62-9.05-4-3.33-9.65-3.48-14.84-3.89-9.94-.8-19.76-3.18-28.97-7-2.4-1-5.82-2.26-9.55-5-1.98-1.45-2.3-1.38-3.84.35-.96,2.77-1.05,7.89-.81,9.64.75,5.53,2.55,10.93,5.33,15.78Z"/>
          <path class="cls-19" d="m267.79,431.26c3.74-1.61,7.79,1.51,7.26,5.55-.87,6.61-2.09,13.16-4.38,19.4-3.4,9.24-9.45,17.89-18.21,22.38-6.39,3.27-13.79,4.13-20.95,3.64-22.06-1.49-42.71-16.17-51.38-36.5-1.37-3.23-2.47-6.62-2.94-10.08-.31-2.29,2.03-4.02,4.16-3.14,27.51,11.29,59.13,10.51,86.45-1.24Z"/>
          <ellipse class="cls-17" cx="326.61" cy="321.24" rx="66.84" ry="40.34"/>
          <g class="cls-15">
            <path class="cls-6" d="m306.08,287.36c4.04-1.7,8.52-1.79,12.83-2.23,8.68-.61,17.42-.27,26.02,1.1,17.15,2.68,35.92,10.24,42.59,27.63,1.59,4.17,2.35,8.56,2.51,12.9,0,.09-.06.16-.15.16-.08,0-.14-.05-.16-.13-1-4.22-2.33-8.27-4.19-12.05-12.5-23.43-42.11-29.03-66.58-28.69-4.21.22-8.71.14-12.7,1.56-.07.06-.2.04-.24-.05-.04-.07,0-.16.06-.2h0Z"/>
          </g>
          <ellipse class="cls-18" cx="326.61" cy="329.13" rx="57.61" ry="30.04"/>
          <path class="cls-5" d="m288,335.23c-6.99-9.32-5.22-20.38.92-28.81-12.2,5.51-19.92,13.64-19.92,22.71,0,16.59,25.79,30.04,57.61,30.04,8.97,0,17.47-1.07,25.04-2.98-23.45,3.9-52.99-7.4-63.64-20.97Z"/>
          <path class="cls-18" d="m319.39,271.04c-1.88,2.67-4.24,5.15-5.08,8.31-1.31,4.94,1.75,10.38,6.31,12.7,4.48,2.28,10.22,1.81,14.28-1.16,4.05-2.97,6.23-8.3,5.41-13.26-.8-4.84-4.1-8.84-7.3-12.56-1.57-1.82-3.14-3.64-4.48-5.63-.77-1.14-2.18-5.51-3.31-5.8-.49,1.14-.31,2.97-.51,4.27-.25,1.58-.62,3.14-1.11,4.67-.96,3.01-2.37,5.87-4.19,8.45Z"/>
          <path class="cls-5" d="m340.3,277.64c-.5-3.04-1.99-5.74-3.81-8.25,2.35,6.11,2.38,12.69-4.08,16.28-7.6,4.23-15.9-1.23-16.96-9.01-.48.86-.88,1.75-1.14,2.7-1.31,4.94,1.75,10.38,6.31,12.7,4.48,2.28,10.22,1.81,14.28-1.16,4.05-2.97,6.23-8.3,5.41-13.26Z"/>
          <path class="cls-21" d="m270.13,436.34c-.22-.98-1.33-1.48-2.24-1.06-2.38,1.09-6.54,2.75-7.08,2.95-5.35,2.01-10.91,3.46-16.55,4.33-2.82.43-14.81,4.01-39.8.28-3.99-.6-5.73-.88-9.46-2.06l-9.13-2.9c-1.48-.47-3.03.66-2.95,2.22.2,3.87,1.57,7.68,3.5,11.06,2.46,4.29,5.8,8,9.11,11.67,1.05,1.16,2.23,2.38,3.62,2.96,1.51,1.46,6.35,4.28,6.9,4.83.66.67,1.51,1.12,2.35,1.54,5.68,2.85,11.76,4.91,18.01,6.09.67.13,1.37.23,2.04.19,3.17.39,8.54.16,9.68.22,4.69.24,9.43-.89,13.52-3.2,3.73-2.11,6.89-5.21,9.1-8.89.37-.62.83-1.19,1.29-1.76,1.82-2.29,4.98-8.63,5.51-10.2,1.1-3.28,2.21-6.58,2.74-10,.43-2.74.47-5.57-.14-8.26Z"/>
          <path class="cls-9" d="m288.98,323.48c-.3-5.22,1.55-10.51,5.73-13.85,3.37-2.69,7.64-3.79,11.82-4.56,17.31-3.19,35.41-1.66,51.99,4.39,3.77,1.38,7.51,3,10.76,5.42,3.25,2.42,6.01,5.7,7.3,9.62,2.2,6.68-.53,13.61-5.56,17.96-6.16,5.32-13.73,6.98-21.63,7.47-14.97.93-30.14-1.7-44.01-7.61-4.98-2.13-9.99-4.83-13.17-9.34-1.95-2.76-3.05-6.11-3.25-9.5Z"/>
          <g class="cls-13">
            <path class="cls-6" d="m341.24,309.12c11.52,1.01,35.56,8.01,31.52,23.45-.65,2.03-1.78,3.81-3.04,5.41.88-1.85,1.72-3.7,2.06-5.65,2.34-13.79-20.45-19.84-30.53-23.21h0Z"/>
          </g>
          <path class="cls-9" d="m323.95,270.08c-1.03,1.44-2.38,2.69-3.12,4.27-1.39,2.97-.05,6.83,2.94,8.47,2.99,1.64,7.24.84,9.32-1.75,2.44-3.03,1.7-7.43-.21-10.78-.89-1.56-1.49-3.32-2.6-4.75-.96-1.23-2.42-4.91-3.68-5.74-.76.63-.5,4.96-.73,5.97-.34,1.53-.99,3-1.92,4.3Z"/>
          <g class="cls-13">
            <path class="cls-6" d="m326.75,259.92c4.21,4.73,11.13,15.59,6.21,21.52,3.45-6.17-3.23-15.98-6.21-21.52h0Z"/>
          </g>
          <g class="cls-16">
            <path class="cls-17" d="m285.35,355.73c27.15,9.35,58.75,11.49,84.78-2.23,7.28-3.75,13.79-8.72,19.76-14.33-3.15,3.47-6.49,6.81-10.23,9.69-26.42,20.99-64.58,20.12-94.3,6.87h0Z"/>
          </g>
          <path class="cls-2" d="m324,73.87c-7.22,14.34-13.93,29.04-18.18,44.53-4.25,15.49-5.97,31.87-3.14,47.68.91,5.08,2.31,10.15,5,14.56,2.68,4.41,4,12.85,8.95,14.28,6.5,1.87,7.99-5.92,17.63-11.19,3.62-1.98,15.85-.36,15.68-4.48-.15-3.83-10.12-7.75-12.79-10.5-9.97-10.27-13.2-26.05-14.66-40.29s.92-28.66,5.16-42.33c.99-3.2,2.09-6.37,3.18-9.54.78-2.25,3.04-6.13,2.34-8.53-1.91-6.49-8.07,3.62-9.17,5.8Z"/>
          <path class="cls-2" d="m325.13,200.45c-.04-1.14.53-2.22,1.18-3.15,2.09-2.98,5.19-5.1,8.4-6.82,2.55-1.37,5.25-2.53,8.11-3.03s5.88-.3,8.5.94c1.21.58,2.33,1.38,3.13,2.46s1.25,2.44,1.08,3.77c-.25,1.99-1.76,3.56-3.28,4.87-1.24,1.07-2.66,2.27-2.74,3.9-.06,1.3.76,2.64.27,3.85-.54,1.34-2.28,1.61-3.72,1.69-2.9.15-5.83.3-8.69-.21-2.73-.49-4.97-1.76-7.28-3.21-1.96-1.22-4.88-2.36-4.97-5.06Z"/>
          <g class="cls-15">
            <path class="cls-6" d="m329.46,71.81c-7.36,25.84-13.08,54.04-4.06,80.18,2.95,8.51,6.68,17.06,12.94,23.7-3.52-2.95-6.17-6.8-8.57-10.7-17.15-28.56-11.83-63.57-.31-93.19h0Z"/>
          </g>
          <path class="cls-2" d="m351.15,4.84c2.54-.29,5.09-.57,7.63-.86,1.1-.12,2.2-.25,3.3-.13.5.05,1.04.18,1.39.55.42.44.46,1.14.27,1.71-.19.58-.58,1.06-.96,1.53-7.51,9.39-13.52,19.97-17.75,31.23-.21.56-.43,1.14-.87,1.55-.44.41-1.16.58-1.63.22-.5-.38-.5-1.12-.43-1.74.36-3.04,1.45-5.94,2.24-8.9,1.06-4,1.57-8.14,1.52-12.28-.02-2.12-.19-4.24-.51-6.34-.16-1.05-.35-2.09-.58-3.13-.12-.54-.72-1.84-.4-2.38.4-.67,2.2-.53,2.91-.61,1.29-.15,2.59-.29,3.88-.44Z"/>
          <g class="cls-15">
            <path class="cls-6" d="m354.86,8.21c-2.68,10.4-6.5,20.49-11.51,29.98,1.08-2.44,2.13-4.89,3.05-7.4,1.87-4.98,3.43-10.08,4.73-15.24.65-2.58,1.24-5.19,1.71-7.78.28-1.37,2.33-.94,2.02.43h0Z"/>
          </g>
          <g>
            <polygon class="cls-22" points="1.9 266.66 7.7 286.17 325.81 163.3 323.05 156.71 1.9 266.66"/>
            <polygon class="cls-20" points="8.73 282.04 3.95 265.96 1.9 266.66 7.7 286.17 325.82 163.3 324.47 160.09 8.73 282.04"/>
            <g class="cls-15">
              <path class="cls-6" d="m8.23,270.68c101.83-37.42,210.4-75.72,313.24-110.59-101.96,37.44-210.46,75.77-313.24,110.59h0Z"/>
            </g>
          </g>
          <path class="cls-2" d="m236.12,392.52c-2.45-5.78-3.94-13.8-1.07-19.39,1.42,1.09,2.01,2.92,2.6,4.61,3.78,10.88,13.25,19.99,22.12,27.35,8.87,7.35,17.11,12.93,28.5,14.63,2.69.4,8.74.38,10.93,1.98,3.34,2.43,2.2,7.77.29,11.43s-7.07,7.45-11.16,8c-4.09.54-9.37-1.18-13.23-2.64-15.27-5.77-24.4-18.5-32.21-32.2-2.42-4.25-4.86-9.26-6.77-13.77Z"/>
          <path class="cls-2" d="m350.47,432.26c11.27,2.57,23.55.36,33.23-5.97,5.31-3.47,9.78-8.07,13.85-12.93,6.08-7.26,11.51-15.64,12.37-25.07.22-2.45.12-5-.9-7.23s-3.09-4.1-5.54-4.34c-2.39-.23-4.65,1.05-6.57,2.49-8.19,6.12-13.29,15.48-20.47,22.76-8.53,8.66-20.11,14.25-32.2,15.56-7.42.8-14.37-.34-20.7-4.32,5.93,9.55,15.98,16.56,26.92,19.05Z"/>
          <path class="cls-2" d="m300.32,401.13c3.69,1.94,7.65,3.36,11.73,4.21-1.78-3.8-3.55-7.61-5.33-11.41-.41-.87-.9-1.82-1.8-2.14-.9-.32-1.88.11-2.72.57-1.05.58-2.07,1.24-3.03,1.97-.81.61-2.18,1.45-2.66,2.37-.93,1.79,2.6,3.8,3.8,4.44Z"/>
          <path class="cls-2" d="m227.96,361.57c.29.48.73,1.01,1.28.92.75-.13.81-1.17.7-1.93-.89-6.04-.34-12.3,1.61-18.09.03-.08-4.21.71-4.63.89-.66.27-1.68.65-2.16,1.19-.46.52-.42,1.23-.46,1.93-.23,3.33.21,6.7,1.25,9.87.6,1.82,1.41,3.58,2.4,5.22Z"/>
          <path class="cls-2" d="m318.82,430.8c-.44-1.05-1.58-2.01-2.69-1.75-1.04.24-1.42,1.5-1.51,2.56-.43,5.16,1.87,10.27,5.3,14.14,3.43,3.87,7.92,6.65,12.5,9.06,19.32,10.14,41.68,14.42,63.38,12.14,1.06-.11,2.24-.31,2.87-1.16.99-1.34-.17-3.37-1.73-3.95s-3.29-.2-4.95-.02c-5.31.6-11.05-2.24-16.08-4.04-5.03-1.8-9.51-2.57-14.69-3.87-5.42-1.36-11.09-1.65-16.42-3.33-4.19-1.32-8.36-3.72-10.79-7.49-.53-.82-.79-1.77-1.28-2.58-.49-.81-1.17-.92-2.04-1.2-2.23-.73-5.22-.46-7.14-1.79-2.14-1.48-3.66-4.21-4.72-6.72Z"/>
          <g>
            <path class="cls-12" d="m471.78,460.02c-1.77-4.09-3.26-8.11-4.37-12.4-.22-.84-1.31-1.09-1.86-.41-2.2,2.71-5.17,4.8-8.47,5.94-2.71.93-5.63,1.22-8.46.87-1.11-.14-1.71,1.25-.82,1.93,6.47,4.93,15.26,7.14,23.18,5.57.69-.14,1.07-.86.8-1.5Z"/>
            <path class="cls-1" d="m471.78,460.02c-.88-2.03-1.69-4.05-2.42-6.09.39,2.01-.08,3.16-.92,3.85-7.25,5.39-14.56.18-20.89-3.25-.27.43-.25,1.03.25,1.41,6.47,4.93,15.26,7.14,23.19,5.57.69-.14,1.07-.86.8-1.5Z"/>
            <path class="cls-12" d="m394.57,404.57c3.88.54,7.64,2.54,9.84,5.78,2.21,3.24,2.65,7.73.69,11.12,2.25.41,4.28,2.05,5.35,4.08,1.07,2.02,1.15,4.54.22,6.63,1.91-.55,3.9-.7,5.88-.68,1.98.02,4.03.58,5.51,1.9,1.48,1.32,2.28,3.49,1.67,5.38,2.1-1.85,5.36-1.87,7.98-.85,2.61,1.01,4.56,3.56,4.85,6.35,2.2-1.9,5.86-2.51,8.68-1.81,2.82.7,5.25,2.83,6.3,5.54.94,2.4-.47,5.52-2.46,7.17,1.68,2.27.92,6.16-1.22,7.99-1.18,1.01-2.72,1.48-4.24,1.78-3.48.69-7.12.58-10.55-.32-4.35,2.23-9.97,2.24-14.48.35-.15.71-1.36,1.56-2.06,1.79s-1.44.2-2.17.17c-2.13-.1-4.3-.27-6.27-1.09-1.97-.82-3.72-2.42-4.21-4.5-2.99,2.02-7.26,1.18-10.22-.89-1.65-1.15-2.95-3.19-2.36-5.11-2.76.28-5.8-.23-7.98-1.94-2.1-1.65-2.73-4.89-1.4-7.21-2.85.27-5.75-.66-7.81-2.65-2.06-1.99-2.84-5.38-1.36-7.83-.92-1.63-2.45-2-4.21-2.64-2.73-.99-4.96-3.25-5.93-5.98s-.64-5.9.86-8.38c5.79-9.59,19.99-15.68,31.09-14.12Z"/>
            <path class="cls-1" d="m401.99,455.41c-11.96-3.85-22.14-12.65-24.28-26.54-1.01-12.49,9.78-17.2,18.14-24.07-.42-.1-.85-.18-1.28-.24-11.1-1.56-25.3,4.53-31.09,14.12-1.5,2.48-1.82,5.64-.86,8.38.97,2.74,3.2,4.99,5.93,5.98,1.75.64,3.29,1.01,4.21,2.64-1.47,2.45-.7,5.85,1.36,7.83,2.06,1.99,4.96,2.92,7.81,2.65-1.33,2.31-.7,5.56,1.4,7.21,2.18,1.71,5.23,2.22,7.98,1.94-.59,1.92.72,3.96,2.36,5.11,2.96,2.06,7.23,2.9,10.22.89.48,2.08,2.24,3.68,4.21,4.5,1.97.82,4.14.99,6.27,1.09.73.03,1.48.06,2.17-.17.69-.22,1.91-1.07,2.06-1.79,4.5,1.9,10.13,1.88,14.48-.35,3.43.9,7.07,1,10.55.32,1.52-.3,3.06-.78,4.24-1.78,2.05-1.75,2.81-5.38,1.4-7.67-14.1,7.43-32.43,5.62-47.28-.06Z"/>
            <path class="cls-1" d="m373.71,414.75c1.86-4.96,5.59-7.68,9.83-9.51-8.17,1.95-16.09,6.87-20.06,13.45-1.5,2.48-1.82,5.65-.85,8.38.97,2.73,3.2,4.99,5.93,5.98,1.75.64,3.29,1.01,4.21,2.64-1.48,2.45-.7,5.85,1.36,7.83,2.06,1.99,4.96,2.92,7.81,2.65-1.33,2.31-.7,5.56,1.4,7.21,2.18,1.71,5.23,2.22,7.98,1.94-.59,1.92.72,3.96,2.36,5.11,2.83,1.97,6.85,2.82,9.81,1.13-16.25-9.41-34.81-25.65-29.78-46.81Z"/>
            <path class="cls-2" d="m383.41,429.03c1.26,7.36,9.21,15.93,15.63,19.74,13.09,7.76,27.15,7.7,42.15,5.16,1.36-.23,2.75-.52,3.89-1.29,1.14-.77,1.98-2.14,1.74-3.5-.41-2.27-3.23-3.03-5.51-3.38-7.59-1.19-14.84-2.02-21.97-4.89-3.15-1.27-7.5-2.81-10.18-4.9-5.5-4.31-7.64-12.19-8.93-19.06-.33-1.75-.58-3.61-1.67-5.03-3.04-3.95-9.18,1.38-11.35,3.97-3.02,3.6-4.6,8.49-3.8,13.17Z"/>
            <path class="cls-2" d="m453.29,456.52c3.09,1.08,6.31,2.31,9.58,2.15,1.57-.07,3.43-1.17,4.25-2.52.67-1.1.47-2.49.24-3.76-.1-.59-.25-1.24-.74-1.58-.59-.4-1.43-.24-2.06.11-2.58,1.44-4.19,2.47-6.88,3.51-.66.26-2.54.22-3.22.41-.47.13-.84,0-1.27.06-1.26.2-1,1.21.1,1.6Z"/>
          </g>
          <g class="cls-16">
            <path class="cls-6" d="m235.33,376.68c7.44,19.61,25.4,32.64,43.78,41.24,6.26,2.73,12.76,5.43,19.67,5.71-6.98.57-13.88-1.74-20.32-4.23-18.97-7.91-37.79-21.93-43.14-42.72h0Z"/>
          </g>
          <g class="cls-16">
            <path class="cls-6" d="m328.32,416.95c12.05,4.15,25.5,1.38,36.53-4.4,14.32-7.91,25.26-20.64,35.04-33.57-3.63,6.36-7.98,12.31-12.81,17.84-4.88,5.49-10.28,10.61-16.47,14.71-12.21,7.88-28.65,11.79-42.29,5.41h0Z"/>
          </g>
          <g>
            <path class="cls-12" d="m454.43,356.62c2.32-.16,4.69.65,6.42,2.2,1.73,1.55,2.8,3.82,2.89,6.14,2.44-.85,5.5.59,7.2,2.54,1.63,1.86,2.07,4.61,1.34,6.97,2.49.54,4.84,1.74,6.36,3.79,1.52,2.05,1.74,5.2-.04,7.03,1.68.73,3.36,1.95,4.44,3.43.97,1.31,1.63,2.92,1.48,4.54-.15,1.62-1.27,3.21-2.85,3.58,1.72,1.67,2.44,4.98,1.76,7.28-.68,2.3-2.71,4.15-5.07,4.62.57,1.49.87,3.37.85,4.97-.02,2-1.04,3.97-2.67,5.13s-3.82,1.5-5.72.87c.68,1.72-.88,3.9-2.53,4.74s-3.63.72-5.42.26c.43,1.6.54,4.17-.38,5.55-.69,1.03-1.96,1.54-3.2,1.6-1.23.07-2.45-.25-3.65-.56,1.2,1.5-.64,4.45-2.32,5.41-1.67.96-3.76.78-5.62.3-7.26-1.86-13.18-8.15-14.6-15.51-.43-2.22-1.24-4.26-1.74-6.47-.2-.86-.34-1.74-.2-2.61.14-.87.62-1.72,1.4-2.12s1.87-.22,2.34.53c-.3-1.59-.04-3.24.45-4.79.5-1.54,2.08-2.86,3.65-2.47-.38-2.06.63-4.42,1.93-6.06s3.34-2.68,5.43-2.77c-.74-1.86-1.08-3.64-1.01-5.63.07-2,1.19-4.1,3.1-4.68-1.89-1.04-2.83-3.17-3.1-5.31-.26-2,.65-4.33,2.58-4.91-1.58-1.28-2.99-2.86-4.37-4.35-.7-.75-1.35-1.58-1.69-2.55-.34-.97-.34-2.1.23-2.96-2.1.46-4.42-.75-5.88-2.33-1.47-1.58-2.02-3.95-1.41-6.01-.9-.61-1.84-1.67-2.47-2.56s-.92-2.11-.43-3.09c.7-1.41,2.58-1.72,4.14-1.58,1.38.12,2.75.46,4.04.98.93-.64,2.05-.96,3.19-.98s2.26.23,3.33.61c3.43,1.21,6.22,3.98,7.85,7.23Z"/>
            <path class="cls-1" d="m451.24,393.37c9.26-16.66-.95-25.74-12.52-37.77-.19-.02-5.12-4.57-2.68-6.83-1.57-.14-3.45.17-4.14,1.58-.48.98-.2,2.2.43,3.09.63.89,1.57,1.95,2.47,2.56-.61,2.06-.05,4.43,1.41,6.01,1.47,1.58,3.78,2.79,5.88,2.33-.56.86-.57,2-.23,2.96.34.97,1,1.79,1.69,2.55,1.38,1.49,2.79,3.07,4.37,4.35-1.93.58-2.84,2.91-2.58,4.91.28,2.14,1.21,4.27,3.1,5.31-1.91.58-3.03,2.69-3.1,4.68-.07,2,.27,3.78,1.01,5.63-2.09.09-4.13,1.13-5.43,2.77s-2.31,4-1.93,6.06c-1.57-.39-3.16.93-3.65,2.47-.5,1.54-.76,3.2-.45,4.79-.46-.74-1.56-.93-2.34-.53-.78.4-1.26,1.25-1.4,2.12-.14.87,0,1.75.2,2.61.5,2.21,1.31,4.24,1.74,6.47,1.41,7.36,7.34,13.65,14.6,15.51,1.87.48,3.95.65,5.62-.3,1.56-.89,3.27-3.52,2.52-5.08-2.95-.87-5.86-2.19-8.73-4.17-12.39-8.26-2.07-23.75,4.13-34.08Z"/>
            <path class="cls-1" d="m438.84,408.86c5.16-10.33,19.62-21.69,9.29-35.11-.47-.47-1.04-.72-1.68-.86.48.46.96.9,1.46,1.31-1.93.58-2.84,2.91-2.58,4.91.28,2.14,1.21,4.27,3.1,5.31-1.91.58-3.03,2.69-3.1,4.68-.07,2,.27,3.78,1.01,5.63-2.09.09-4.13,1.13-5.43,2.77s-2.31,4-1.93,6.06c-1.57-.39-3.16.93-3.65,2.47-.5,1.54-.76,3.2-.45,4.79-.46-.74-1.56-.93-2.34-.53-.78.4-1.26,1.25-1.4,2.12-.14.87,0,1.75.2,2.61.5,2.21,1.31,4.24,1.74,6.47,1.34,6.98,6.75,13,13.5,15.18-8.92-6.25-14.38-16.77-7.75-27.82Z"/>
            <path class="cls-12" d="m432.79,349.52c-3.8-5.16-9.72-8.69-16.05-9.64-.68-.1-1.29.43-1.24,1.11.27,3.94-.91,7.95-3,11.36-.52.84.26,1.87,1.21,1.58,5.89-1.75,12-2.54,18.17-2.94.34-.02.7-.05.99-.22.3-.17.51-.54.39-.86s-.32-.7-.46-.4Z"/>
            <path class="cls-1" d="m432.79,349.52c-.17-.23-.35-.46-.54-.69-5.87.09-12.18,2.67-17.38-1.96-.52,1.92-1.34,3.78-2.39,5.48-.52.84.26,1.87,1.21,1.58,5.89-1.75,12-2.54,18.17-2.94.34-.02.7-.05.99-.22.3-.17.51-.54.39-.86s-.32-.7-.46-.4Z"/>
            <path class="cls-2" d="m439.91,352.15c-.54-.09-.88.57-.5.96l5.02,5.15c4.36,4.47,8.81,9.08,11.22,14.84,2.34,5.59,2.55,12.05.56,17.78-1.55,4.48-4.34,8.41-6.62,12.57-2.7,4.91-4.77,10.55-2.9,16.09.86,2.55,2.63,4.75,5.08,5.88,4.74,2.19,8.84-.5,12.14-3.41,6.79-5.98,12.31-14.1,12.73-23.13.31-6.64-2.15-13.1-5.09-19.07-3.14-6.38-7.33-11.63-12.32-16.76-3.03-3.11-6.49-5.79-10.32-7.84-3.32-1.79-5.6-2.51-9-3.05Z"/>
            <path class="cls-2" d="m416.49,344.23c-.19.96-.2,2.06.45,2.78.67.74,1.78.83,2.78.87,3.26.12,6.52.24,9.78.36-.15-1.44-1.58-2.35-2.85-3.04-2.08-1.13-4.16-2.25-6.24-3.38-.76-.41-2.28-1.27-3.12-.59-.66.53-.64,2.23-.79,3Z"/>
            <g class="cls-16">
              <path class="cls-6" d="m445.89,354.55c12.69,9.19,31.02,26.27,29.66,43.35-.39,7.34-3.73,14.54-9.23,19.41-2.68,2.45-5.62,4.51-8.5,6.64,5.19-4.74,10.92-9.38,13.59-16.03,4.34-10.72,2.14-20.22-4.18-29.57-5.89-8.9-13.43-16.64-21.33-23.79h0Z"/>
            </g>
          </g>
          <g class="cls-16">
            <path class="cls-6" d="m396.74,412.55c1.16,9.28,5.79,18.13,13.07,24.03,5.2,4.2,11.86,5.95,18.21,7.72,5.24,1.32,10.55,2.44,15.92,3.37-5.45-.14-10.9-.73-16.28-1.8-6.61-1.41-13.75-3.24-19.14-7.74-7.48-6.16-12.04-15.95-11.78-25.58h0Z"/>
          </g>
          <path class="cls-5" d="m230.17,477.75c-18.59-4.13-42.34-14.46-37.18-38.21,0-.98.31-1.96.87-2.81-4.24-1.15-8.42-2.55-12.51-4.23-2.14-.88-4.48.85-4.16,3.14.47,3.46,1.57,6.86,2.94,10.08,8.67,20.34,29.32,35.01,51.38,36.5,7.16.48,14.57-.37,20.95-3.64,3-1.54,5.67-3.57,8.04-5.94-9.5,4.38-19.7,7.09-30.33,5.1Z"/>
          <g class="cls-15">
            <path class="cls-6" d="m197.1,443.4c18.33,5.58,38.19,4.02,56.51-.79,4.17-1.02,8.64-2.54,12.75-3.78-2.69,1.24-5.4,2.48-8.15,3.59-18.96,7.18-42.25,9.6-61.1.98h0Z"/>
          </g>
          <path class="cls-7" d="m210.23,467.65c-1.23-.68-2.43-1.42-3.6-2.23-5.9-4.09-10.78-10.07-12.21-17.1-.48-2.35-2.3-5.13-.22-6.32,1.75-1.01,5.15.47,6.95,1.38,5,2.54,12.34,1.83,17.9,2.15,6.36.37,12.76.11,19.06-.78,5.05-.71,10.04-1.81,14.92-3.31,1.75-.54,3.69-.9,5.37-1.58,1.96-.79,4.39-2.06,6.51-2.62,2.14-.56,3.72-.31,4.68,1.68.82,1.68.24,3.66-.35,5.43-2.16,6.51-4.35,13.1-8.07,18.87-3.71,5.77-9.18,10.72-15.84,12.36-6.25,1.54-12.82.06-19.01-1.71-5.54-1.59-11.08-3.45-16.1-6.23Z"/>
          <path class="cls-21" d="m246.36,479.5c9.53-3.81,16.66-11.93,21.01-21.03.2-.49.73-1.78.94-2.28,1.71-3.98,2.77-8.4,3.66-12.65,0,0,.98-6.56.98-6.56-.18,3.18-.39,6.77-1.06,9.92-.64,4.13-2.03,8.12-3.63,11.97-.24.48-1.63,3.2-1.9,3.74-4.5,7.62-11.37,14.33-20,16.88h0Z"/>
          <path class="cls-21" d="m201.35,464.89c3.72-6.53,9.42-12.05,16.09-15.52-3.73,6.56-9.41,12.02-16.09,15.52h0Z"/>
          <path class="cls-21" d="m224.64,476.36c-1.43-8.8-.72-17.91,2.11-26.37,1.45,8.8.7,17.9-2.11,26.37h0Z"/>
          <path class="cls-21" d="m246.36,476.36c-4.52-8.23-7.16-17.6-7.57-26.98,4.53,8.23,7.14,17.6,7.57,26.98h0Z"/>
          <path class="cls-21" d="m264.44,460.97c-5.98-3.17-10.91-8.29-13.82-14.4,5.99,3.15,10.9,8.3,13.82,14.4h0Z"/>
          <g class="cls-16">
            <path class="cls-6" d="m176.32,335.04c1.29,28.99-2.46,58.21-9.71,86.28-2.14,8.09-5.1,17-7.99,24.9-1.06,2.57-3.96,9.57-5.04,12.06-1.85,3.76-3.9,7.99-5.79,11.7,1.58-3.86,3.43-8.15,5.07-12.01.9-2.52,3.51-9.6,4.48-12.22,1.52-4.81,3.86-11.75,5.1-16.57,8.55-30.57,13.03-62.43,13.87-94.15h0Z"/>
          </g>
          <g class="cls-16">
            <path class="cls-6" d="m249.91,494.99c40.06-4.39,80.65-5.59,120.92-4.97,40.23.87,80.89,4.09,120.43,11.56,0,0-14.99-2.04-14.99-2.04-2.5-.33-4.99-.73-7.49-1-72.56-8.38-146.05-8.32-218.88-3.55h0Z"/>
          </g>
          <path class="cls-9" d="m200.8,524.26c6.43,2.91,13.87.42,20.55-1.85,60.46-20.58,127.31-21.92,188.55-3.77,4.95,1.47,10.06,3.08,15.18,2.45,7.81-.95,17.49-10.98,15.54-15.45-2.46-5.02-48.01-4.56-52.38-4.82-17.5-1.05-35.04-1.54-52.58-1.48-35.28.12-70.56,2.5-105.54,7.11-9.75,1.29-19.48,2.75-29.18,4.38-3.64.61-8.62.17-7.46,5.03.87,3.62,4,6.9,7.32,8.4Z"/>
        </g>
      </g>
    </g>
  </g>
</svg>